<?xml version="1.0" encoding="UTF-8" standalone="no"?>
<!-- Created with Inkscape (http://www.inkscape.org/) -->

<svg
   xmlns:dc="http://purl.org/dc/elements/1.1/"
   xmlns:cc="http://creativecommons.org/ns#"
   xmlns:rdf="http://www.w3.org/1999/02/22-rdf-syntax-ns#"
   xmlns:svg="http://www.w3.org/2000/svg"
   xmlns="http://www.w3.org/2000/svg"
   xmlns:sodipodi="http://sodipodi.sourceforge.net/DTD/sodipodi-0.dtd"
   xmlns:inkscape="http://www.inkscape.org/namespaces/inkscape"
   width="460.51999"
   height="250"
   id="svg2"
   version="1.1"
   inkscape:version="0.47 r22583"
   sodipodi:docname="DOI-CTR.svg">
  <defs
     id="defs4">
    <inkscape:perspective
       sodipodi:type="inkscape:persp3d"
       inkscape:vp_x="0 : 125 : 1"
       inkscape:vp_y="0 : 1000 : 0"
       inkscape:vp_z="460.51999 : 125 : 1"
       inkscape:persp3d-origin="230.25999 : 83.333333 : 1"
       id="perspective51" />
    <marker
       inkscape:stockid="Arrow2Lend"
       orient="auto"
       refY="0"
       refX="0"
       id="Arrow2Lend"
       style="overflow:visible">
      <path
         id="path4238"
         style="fill-rule:evenodd;stroke-width:0.625;stroke-linejoin:round"
         d="M 8.7185878,4.0337352 -2.2072895,0.01601326 8.7185884,-4.0017078 c -1.7454984,2.3720609 -1.7354408,5.6174519 -6e-7,8.035443 z"
         transform="matrix(-1.1,0,0,-1.1,-1.1,0)"
         inkscape:connector-curvature="0" />
    </marker>
    <marker
       inkscape:stockid="Arrow1Lstart"
       orient="auto"
       refY="0"
       refX="0"
       id="Arrow1Lstart"
       style="overflow:visible">
      <path
         id="path3797"
         d="M 0,0 5,-5 -12.5,0 5,5 0,0 z"
         style="fill-rule:evenodd;stroke:#000000;stroke-width:1pt"
         transform="matrix(0.8,0,0,0.8,10,0)"
         inkscape:connector-curvature="0" />
    </marker>
  </defs>
  <sodipodi:namedview
     id="base"
     pagecolor="#ffffff"
     bordercolor="#666666"
     borderopacity="1.0"
     inkscape:pageopacity="0.0"
     inkscape:pageshadow="2"
     inkscape:zoom="1.7022314"
     inkscape:cx="315.74228"
     inkscape:cy="178.17755"
     inkscape:document-units="px"
     inkscape:current-layer="layer2"
     showgrid="false"
     fit-margin-top="10"
     fit-margin-left="10"
     fit-margin-right="10"
     fit-margin-bottom="10"
     inkscape:window-width="1920"
     inkscape:window-height="1006"
     inkscape:window-x="0"
     inkscape:window-y="25"
     inkscape:window-maximized="1">
    <inkscape:grid
       type="xygrid"
       id="grid3776"
       empspacing="5"
       visible="true"
       enabled="true"
       snapvisiblegridlinesonly="true"
       originx="-99.25px"
       originy="-475.51843px" />
  </sodipodi:namedview>
  <metadata
     id="metadata7">
    <rdf:RDF>
      <cc:Work
         rdf:about="">
        <dc:format>image/svg+xml</dc:format>
        <dc:type
           rdf:resource="http://purl.org/dc/dcmitype/StillImage" />
        <dc:title />
      </cc:Work>
    </rdf:RDF>
  </metadata>
  <g
     inkscape:label="Layer 1"
     inkscape:groupmode="layer"
     id="layer1"
     transform="translate(-99.25,-326.84375)">
    <rect
       y="-517.39423"
       x="328.41275"
       height="19.386353"
       width="160.74484"
       id="rect2985-0"
       style="opacity:0.4;fill:#7fc97f;fill-opacity:1;stroke:#000000;stroke-width:1.25;stroke-linecap:butt;stroke-linejoin:miter;stroke-miterlimit:4;stroke-opacity:1;stroke-dasharray:none"
       transform="matrix(0,1,-1,0,0,0)" />
    <path
       style="fill:none;stroke:#000000;stroke-width:1.25;stroke-linecap:butt;stroke-linejoin:miter;stroke-miterlimit:4;stroke-opacity:1;stroke-dasharray:none"
       d="m 120.15174,419.45101 0,123.36768 c 59.63309,0 73.26618,0 132.89927,0 m 119.26619,0 c 59.63309,0 75.26618,0 134.89928,0 l 0,-25.73878"
       id="path3818"
       inkscape:connector-curvature="0"
       sodipodi:nodetypes="cccccc" />
    <rect
       ry="4.6296296"
       rx="4.6296296"
       style="fill:#b4b4b4;fill-opacity:1;stroke:#000000;stroke-width:1.25;stroke-miterlimit:4;stroke-opacity:1;stroke-dasharray:none"
       id="rect3783"
       width="9.2592592"
       height="9.2592592"
       x="389.29276"
       y="389.78461" />
    <rect
       style="opacity:0.4;fill:#7fc97f;fill-opacity:1;stroke:#000000;stroke-width:1.25;stroke-linecap:butt;stroke-linejoin:miter;stroke-miterlimit:4;stroke-opacity:1;stroke-dasharray:none"
       id="rect2985"
       width="49.389484"
       height="19.389481"
       x="137.31544"
       y="384.37677" />
    <rect
       style="fill:#fff295;fill-opacity:1;stroke:#000000;stroke-width:1.25000000000000000;stroke-miterlimit:4;stroke-opacity:1;stroke-dasharray:none;opacity:0.4"
       id="rect3755"
       width="19.195982"
       height="49.19598"
       x="109.87165"
       y="369.81625" />
    <path
       style="fill:#d7b5b5;fill-opacity:1;stroke:#000000;stroke-width:1.25000000000000000;stroke-linecap:butt;stroke-linejoin:miter;stroke-miterlimit:4;stroke-opacity:1;stroke-dasharray:none;opacity:0.4"
       d="m 129.1436,379.14464 c 0,0 2.52984,2.82442 4.14121,3.76435 1.25545,0.73232 4.1412,1.36478 4.1412,1.36478 l 0,19.38276 c 0,0 -2.8841,0.16984 -4.1412,0.79928 -1.66806,0.83521 -4.14121,3.76436 -4.14121,3.76436 z"
       id="rect2985-7"
       inkscape:connector-curvature="0"
       sodipodi:nodetypes="caccscc" />
    <rect
       style="fill:#fff295;fill-opacity:1;stroke:#000000;stroke-width:1.25000000000000000;stroke-miterlimit:4;stroke-opacity:1;stroke-dasharray:none;opacity:0.4"
       id="rect3755-16"
       width="19.195982"
       height="49.19598"
       x="-516.75842"
       y="483.43759"
       transform="matrix(0,-1,1,0,0,0)" />
    <path
       style="opacity:0.4;fill:#d7b5b5;fill-opacity:1;stroke:#000000;stroke-width:1.25;stroke-linecap:butt;stroke-linejoin:miter;stroke-miterlimit:4;stroke-opacity:1;stroke-dasharray:none"
       d="m 492.76583,497.48652 c 0,0 2.82444,-2.52983 3.76435,-4.1412 0.73233,-1.25546 1.36479,-4.1412 1.36479,-4.1412 l 19.38276,0 c 0,0 0.16985,2.8841 0.79927,4.1412 0.83523,1.66805 3.76435,4.1412 3.76435,4.1412 z"
       id="rect2985-7-9"
       inkscape:connector-curvature="0"
       sodipodi:nodetypes="caccscc" />
    <path
       sodipodi:nodetypes="cc"
       inkscape:connector-curvature="0"
       id="path3942"
       d="m 186.88866,384.51558 330.82507,24.76567"
       style="fill:none;stroke:#c1c1c1;stroke-width:0.5;stroke-linecap:butt;stroke-linejoin:miter;stroke-miterlimit:4;stroke-opacity:1;stroke-dasharray:4,4;stroke-dashoffset:0" />
    <path
       inkscape:connector-curvature="0"
       id="path3944"
       d="m 186.71373,403.78125 77.53043,-5.52111 252.46957,-17.97889"
       style="fill:none;stroke:#c1c1c1;stroke-width:0.5;stroke-linecap:butt;stroke-linejoin:miter;stroke-miterlimit:4;stroke-opacity:1;stroke-dasharray:4,4;stroke-dashoffset:0"
       sodipodi:nodetypes="ccc" />
    <path
       style="fill:#cecece;fill-opacity:1;stroke:#ff0000;stroke-width:1.25;stroke-linecap:butt;stroke-linejoin:miter;stroke-miterlimit:4;stroke-opacity:1;stroke-dasharray:5, 5;stroke-dashoffset:0"
       d="m 498.32889,381.13681 19.0744,-1.21538 0,29.13248 -19.37082,-1.36223 z"
       id="path3816"
       inkscape:connector-curvature="0"
       sodipodi:nodetypes="ccccc" />
    <rect
       style="fill:none;stroke:#000000;stroke-width:1.25;stroke-miterlimit:4;stroke-opacity:1;stroke-dasharray:none;stroke-dashoffset:0"
       id="rect3820"
       width="119.75713"
       height="46.242863"
       x="252.79944"
       y="519.99048" />
    <path
       style="fill:#ffffff;fill-opacity:1;stroke:none"
       d="m 522.64973,333.55852 -7.08739,-1.26502 -7.47908,1.33494 -6.90633,-1.23272 -6.78386,1.21086 -6.2722,-1.11953 0,-6.96528 0.014,-0.004 34.51485,-0.013 c 0,0 0.15819,7.96938 0,8.05409 z"
       id="path3775-9"
       sodipodi:nodetypes="cccccccccc"
       inkscape:connector-curvature="0" />
    <g
       transform="matrix(0.01370838,0,0,0.01370838,389.70963,389.8157)"
       id="g4114">
      <path
         inkscape:connector-curvature="0"
         id="sign_border"
         d="M 597.6,499.6 313.8,8 C 310.9,3 305.6,0 299.9,0 294.2,0 288.9,3.1 286,8 L 2.2,499.6 c -2.9,5 -2.9,11.1 0,16 2.9,5 8.2,8 13.9,8 h 567.6 c 5.7,0 11,-3.1 13.9,-8 2.9,-5 2.9,-11.1 0,-16 z" />
      <polygon
         transform="matrix(1,0,0,0.99591458,0.125,2.0332437)"
         style="fill:#ffdc32;fill-opacity:1;stroke:none;overflow:visible"
         id="polygon7"
         points="43.875,491.5 299.875,48.2 555.875,491.5 " />
      <path
         inkscape:connector-curvature="0"
         id="path4433"
         d="m 279.85,380.02339 -46.8,81.1 c 42.6,24.6 91.1,24.6 133.7,0 l -46.8,-81.1 c -0.3,0.2 -0.6,0.4 -0.9,0.6 -1.1,0.6 -2.3,1.2 -3.5,1.7 -1.2,0.5 -2.4,1 -3.7,1.4 -1.3,0.4 -2.5,0.7 -3.8,1 -1.3,0.3 -2.6,0.5 -4,0.6 -1.3,0.1 -2.7,0.2 -4.1,0.2 -1.4,0 -2.7,-0.1 -4.1,-0.2 -1.3,-0.1 -2.7,-0.3 -4,-0.6 -1.3,-0.3 -2.6,-0.6 -3.8,-1 -1.3,-0.4 -2.5,-0.8 -3.7,-1.4 -1.2,-0.5 -2.4,-1.1 -3.5,-1.7 -0.4,-0.2 -0.7,-0.4 -1,-0.6 z" />
      <path
         inkscape:connector-curvature="0"
         id="path4435"
         d="m 233.05,229.52339 c -42.6,24.6 -66.8,66.6 -66.8,115.8 h 93.6 c 0,-1.4 0.1,-2.8 0.2,-4.1 0.1,-1.3 0.4,-2.7 0.6,-4 0.3,-1.3 0.6,-2.6 1,-3.8 0.4,-1.3 0.8,-2.5 1.4,-3.7 0.5,-1.2 1.1,-2.4 1.7,-3.5 0.6,-1.1 1.3,-2.2 2,-3.3 0.7,-1.1 1.5,-2.1 2.3,-3.1 0.8,-1 1.7,-1.9 2.6,-2.8 0.9,-0.9 1.9,-1.8 2.9,-2.6 1,-0.8 2,-1.6 3.1,-2.3 0.8,-0.5 1.6,-1 2.4,-1.5 l -47,-81.1 z" />
      <path
         inkscape:connector-curvature="0"
         id="path4437"
         d="m 366.75,229.52339 -46.8,81.1 c 0.8,0.5 1.6,0.9 2.4,1.5 1.1,0.7 2.1,1.5 3.1,2.3 1,0.8 1.9,1.7 2.9,2.6 0.9,0.9 1.8,1.9 2.6,2.8 0.8,1 1.6,2 2.3,3.1 0.7,1.1 1.4,2.2 2,3.3 0.6,1.1 1.2,2.3 1.7,3.5 0.5,1.2 1,2.4 1.4,3.7 0.4,1.3 0.7,2.5 1,3.8 0.3,1.3 0.5,2.6 0.6,4 0.1,1.3 0.2,2.7 0.2,4.1 h 93.6 c -0.2,-49.2 -24.4,-91.2 -67,-115.8 z" />
      <circle
         d="m 326.49999,343.60001 c 0,14.746 -11.954,26.7 -26.7,26.7 -14.74601,0 -26.7,-11.954 -26.7,-26.7 0,-14.74601 11.95399,-26.7 26.7,-26.7 14.746,0 26.7,11.95399 26.7,26.7 z"
         transform="translate(0.05,1.723392)"
         sodipodi:ry="26.700001"
         sodipodi:rx="26.700001"
         sodipodi:cy="343.60001"
         sodipodi:cx="299.79999"
         id="circle4439"
         r="26.700001"
         cy="343.60001"
         cx="299.79999" />
    </g>
  </g>
  <g
     inkscape:groupmode="layer"
     id="layer2"
     inkscape:label="Text"
     transform="translate(0,-147.6875)">
    <text
       xml:space="preserve"
       style="font-size:14px;font-style:normal;font-variant:normal;font-weight:300;font-stretch:normal;text-align:center;line-height:125%;letter-spacing:0px;word-spacing:0px;writing-mode:lr-tb;text-anchor:middle;fill:#000000;fill-opacity:1;stroke:none;font-family:Miso;-inkscape-font-specification:Miso Light"
       x="55.157364"
       y="177.87675"
       id="text3897"
       sodipodi:linespacing="125%"><tspan
         sodipodi:role="line"
         id="tspan3899"
         x="56.497208"
         y="177.87675">Reference </tspan><tspan
         sodipodi:role="line"
         x="55.157364"
         y="195.37675"
         id="tspan3901">Detector</tspan></text>
    <text
       xml:space="preserve"
       style="font-size:14px;font-style:normal;font-weight:300;text-align:center;line-height:125%;letter-spacing:0px;word-spacing:0px;text-anchor:middle;fill:#000000;fill-opacity:1;stroke:none;font-family:Miso;-inkscape-font-specification:Miso Light;font-stretch:normal;font-variant:normal;writing-mode:lr"
       x="212.56248"
       y="358.67126"
       id="text3897-8"
       sodipodi:linespacing="125%"><tspan
         sodipodi:role="line"
         x="212.56248"
         y="358.67126"
         id="tspan3901-6"
         style="-inkscape-font-specification:Miso Light;font-family:Miso;font-weight:300;font-style:normal;font-stretch:normal;font-variant:normal;font-size:14px;text-anchor:middle;text-align:center;writing-mode:lr;line-height:125%">Electronics &amp;</tspan><tspan
         sodipodi:role="line"
         x="212.56248"
         y="376.17126"
         id="tspan3929"
         style="-inkscape-font-specification:Miso Light;font-family:Miso;font-weight:300;font-style:normal;font-stretch:normal;font-variant:normal;font-size:14px;text-anchor:middle;text-align:center;writing-mode:lr;line-height:125%">Oscilloscope</tspan></text>
    <text
       xml:space="preserve"
       style="font-size:20px;font-style:normal;font-weight:300;text-align:center;line-height:125%;letter-spacing:0px;word-spacing:0px;text-anchor:middle;fill:#000000;fill-opacity:1;stroke:none;font-family:Miso;-inkscape-font-specification:Miso Light;font-stretch:normal;font-variant:normal;writing-mode:lr"
       x="293.99036"
       y="235.42203"
       id="text3931"
       sodipodi:linespacing="125%"><tspan
         sodipodi:role="line"
         id="tspan3933"
         x="293.99036"
         y="235.42203"
         style="font-size:14px;-inkscape-font-specification:Miso Light;font-family:Miso;font-weight:300;font-style:normal;font-stretch:normal;font-variant:normal;text-anchor:middle;text-align:center;writing-mode:lr;line-height:125%">Na<tspan
   style="font-size:14px;baseline-shift:sub;-inkscape-font-specification:Miso Light;font-family:Miso;font-weight:300;font-style:normal;font-stretch:normal;font-variant:normal;text-anchor:middle;text-align:center;writing-mode:lr;line-height:125%"
   id="tspan3937">22</tspan></tspan><tspan
         sodipodi:role="line"
         x="293.99036"
         y="252.92203"
         id="tspan3935"
         style="font-size:14px;-inkscape-font-specification:Miso Light;font-family:Miso;font-weight:300;font-style:normal;font-stretch:normal;font-variant:normal;text-anchor:middle;text-align:center;writing-mode:lr;line-height:125%">Source</tspan></text>
    <text
       xml:space="preserve"
       style="font-size:14px;font-style:normal;font-variant:normal;font-weight:300;font-stretch:normal;text-align:center;line-height:125%;letter-spacing:0px;word-spacing:0px;writing-mode:lr-tb;text-anchor:middle;fill:#000000;fill-opacity:1;stroke:none;font-family:Miso;-inkscape-font-specification:Miso Light"
       x="367.70178"
       y="180.48676"
       id="text3897-3-1"
       sodipodi:linespacing="125%"><tspan
         sodipodi:role="line"
         x="367.70178"
         y="180.48676"
         id="tspan3989">Confinement</tspan><tspan
         sodipodi:role="line"
         x="367.70178"
         y="197.98676"
         id="tspan2866">Region</tspan></text>
    <flowRoot
       xml:space="preserve"
       id="flowRoot4361"
       style="font-size:16px;font-style:normal;font-variant:normal;font-weight:300;font-stretch:normal;text-align:center;line-height:125%;letter-spacing:0px;word-spacing:0px;writing-mode:lr-tb;text-anchor:middle;fill:#000000;fill-opacity:1;stroke:none;font-family:Miso;-inkscape-font-specification:Miso Light"
       transform="translate(-22.11225,87.947635)"><flowRegion
         id="flowRegion4363"><rect
           id="rect4365"
           width="35.247852"
           height="31.723066"
           x="452.93491"
           y="168.34248" /></flowRegion><flowPara
         id="flowPara4367">DOI</flowPara></flowRoot>    <g
       style="font-size:36px;font-style:normal;font-variant:normal;font-weight:300;font-stretch:normal;text-align:center;line-height:125%;writing-mode:lr-tb;text-anchor:middle;fill:#000000;fill-opacity:1;stroke:none;font-family:Miso;-inkscape-font-specification:Miso"
       id="text2857">
      <path
         d="m 433.76044,269.99973 c -1e-5,-0.59999 0.13199,-1.13999 0.396,-1.62 0.26399,-0.50398 0.62399,-0.92398 1.08,-1.26 -0.45601,-0.33598 -0.81601,-0.74398 -1.08,-1.224 -0.26401,-0.50398 -0.39601,-1.05598 -0.396,-1.656 l 0,-45.2 c -1e-5,-0.59997 -0.21601,-1.11597 -0.648,-1.548 -0.40801,-0.43197 -0.91201,-0.64797 -1.512,-0.648 -0.19201,3e-5 -0.36,-0.06 -0.504,-0.18 -0.144,-0.14397 -0.216,-0.31197 -0.216,-0.504 0,-0.19197 0.072,-0.34797 0.216,-0.468 0.144,-0.14397 0.31199,-0.21597 0.504,-0.216 0.47999,3e-5 0.93599,0.096 1.368,0.288 0.43199,0.16803 0.80399,0.42003 1.116,0.756 0.33599,0.31203 0.59999,0.68403 0.792,1.116 0.19199,0.43203 0.28799,0.90003 0.288,1.404 l 0,45.2 c -1e-5,0.62402 0.20399,1.15202 0.612,1.584 0.43199,0.40802 0.95999,0.61202 1.584,0.612 0.19199,2e-5 0.34799,0.072 0.468,0.216 0.14399,0.12002 0.21599,0.27602 0.216,0.468 -1e-5,0.19202 -0.072,0.36002 -0.216,0.504 -0.12001,0.12002 -0.27601,0.18002 -0.468,0.18 -0.62401,2e-5 -1.15201,0.21602 -1.584,0.648 -0.40801,0.43201 -0.61201,0.94801 -0.612,1.548 l 0,43.92 c -1e-5,0.504 -0.096,0.972 -0.288,1.404 -0.19201,0.432 -0.45601,0.804 -0.792,1.116 -0.31201,0.336 -0.68401,0.588 -1.116,0.756 -0.43201,0.192 -0.88801,0.288 -1.368,0.288 -0.19201,0 -0.36,-0.072 -0.504,-0.216 -0.144,-0.12 -0.216,-0.276 -0.216,-0.468 0,-0.192 0.072,-0.36 0.216,-0.504 0.144,-0.12 0.31199,-0.18 0.504,-0.18 0.59999,0 1.10399,-0.216 1.512,-0.648 0.43199,-0.408 0.64799,-0.924 0.648,-1.548 l 0,-43.92 0,0"
         id="path2862"
         sodipodi:nodetypes="cscscccsssssccscccssssscccsccssssscccc"
         style="" />
    </g>
  </g>
</svg>
