<?xml version="1.0" encoding="utf-8" standalone="no"?>
<!DOCTYPE svg PUBLIC "-//W3C//DTD SVG 1.1//EN"
  "http://www.w3.org/Graphics/SVG/1.1/DTD/svg11.dtd">
<!-- Created with matplotlib (http://matplotlib.org/) -->
<svg height="288pt" version="1.1" viewBox="0 0 864 288" width="864pt" xmlns="http://www.w3.org/2000/svg" xmlns:xlink="http://www.w3.org/1999/xlink">
 <defs>
  <style type="text/css">
*{stroke-linecap:butt;stroke-linejoin:round;}
  </style>
 </defs>
 <g id="figure_1">
  <g id="patch_1">
   <path d="
M0 288
L864 288
L864 0
L0 0
z
" style="fill:#ffffff;"/>
  </g>
  <g id="axes_1">
   <g id="patch_2">
    <path d="
M53.1591 238.314
L848.88 238.314
L848.88 21.42
L53.1591 21.42
z
" style="fill:#ffffff;"/>
   </g>
   <g id="LineCollection_1">
    <defs>
     <path d="
M275.493 -99.0835
L275.493 -100.618" id="C0_0_9040b480c0"/>
     <path d="
M743.564 -144.51
L743.564 -146.119" id="C0_1_5eb3211482"/>
     <path d="
M509.528 -124.866
L509.528 -126.457" id="C0_2_d5928d0da2"/>
     <path d="
M392.511 -107.91
L392.511 -109.473" id="C0_3_3ee23457e4"/>
     <path d="
M626.546 -127.124
L626.546 -128.755" id="C0_4_7dec252a5d"/>
     <path d="
M158.475 -158.715
L158.475 -160.369" id="C0_5_077a7b99b8"/>
    </defs>
    <g clip-path="url(#pb63d0e8e96)">
     <use style="fill:none;stroke:#ff0000;" x="0.0" xlink:href="#C0_0_9040b480c0" y="288.0"/>
    </g>
    <g clip-path="url(#pb63d0e8e96)">
     <use style="fill:none;stroke:#ff0000;" x="0.0" xlink:href="#C0_1_5eb3211482" y="288.0"/>
    </g>
    <g clip-path="url(#pb63d0e8e96)">
     <use style="fill:none;stroke:#ff0000;" x="0.0" xlink:href="#C0_2_d5928d0da2" y="288.0"/>
    </g>
    <g clip-path="url(#pb63d0e8e96)">
     <use style="fill:none;stroke:#ff0000;" x="0.0" xlink:href="#C0_3_3ee23457e4" y="288.0"/>
    </g>
    <g clip-path="url(#pb63d0e8e96)">
     <use style="fill:none;stroke:#ff0000;" x="0.0" xlink:href="#C0_4_7dec252a5d" y="288.0"/>
    </g>
    <g clip-path="url(#pb63d0e8e96)">
     <use style="fill:none;stroke:#ff0000;" x="0.0" xlink:href="#C0_5_077a7b99b8" y="288.0"/>
    </g>
   </g>
   <g id="LineCollection_2">
    <defs>
     <path d="
M802.073 -151.259
L802.073 -154.688" id="C1_0_eb06561b18"/>
     <path d="
M568.037 -106.052
L568.037 -107.719" id="C1_1_3e9778c441"/>
     <path d="
M685.055 -136.077
L685.055 -137.916" id="C1_2_fcbdeabbba"/>
     <path d="
M451.02 -130.855
L451.02 -132.461" id="C1_3_30359ff69e"/>
     <path d="
M334.002 -120.14
L334.002 -121.766" id="C1_4_8e04eb5d24"/>
     <path d="
M216.984 -129.826
L216.984 -131.385" id="C1_5_2511978cd5"/>
     <path d="
M99.9662 -247.361
L99.9662 -249.209" id="C1_6_7424492173"/>
    </defs>
    <g clip-path="url(#pb63d0e8e96)">
     <use style="fill:none;stroke:#ff0000;" x="0.0" xlink:href="#C1_0_eb06561b18" y="288.0"/>
    </g>
    <g clip-path="url(#pb63d0e8e96)">
     <use style="fill:none;stroke:#ff0000;" x="0.0" xlink:href="#C1_1_3e9778c441" y="288.0"/>
    </g>
    <g clip-path="url(#pb63d0e8e96)">
     <use style="fill:none;stroke:#ff0000;" x="0.0" xlink:href="#C1_2_fcbdeabbba" y="288.0"/>
    </g>
    <g clip-path="url(#pb63d0e8e96)">
     <use style="fill:none;stroke:#ff0000;" x="0.0" xlink:href="#C1_3_30359ff69e" y="288.0"/>
    </g>
    <g clip-path="url(#pb63d0e8e96)">
     <use style="fill:none;stroke:#ff0000;" x="0.0" xlink:href="#C1_4_8e04eb5d24" y="288.0"/>
    </g>
    <g clip-path="url(#pb63d0e8e96)">
     <use style="fill:none;stroke:#ff0000;" x="0.0" xlink:href="#C1_5_2511978cd5" y="288.0"/>
    </g>
    <g clip-path="url(#pb63d0e8e96)">
     <use style="fill:none;stroke:#ff0000;" x="0.0" xlink:href="#C1_6_7424492173" y="288.0"/>
    </g>
   </g>
   <g id="LineCollection_3">
    <defs>
     <path d="
M275.493 -88.0023
L275.493 -89.2712" id="C2_0_a97bf7f1d7"/>
     <path d="
M392.511 -89.4941
L392.511 -90.8234" id="C2_1_19f20b6ebc"/>
     <path d="
M509.528 -100.605
L509.528 -101.976" id="C2_2_4b550c32b1"/>
     <path d="
M743.564 -94.9955
L743.564 -96.3638" id="C2_3_a52b4e2e31"/>
     <path d="
M158.475 -141.602
L158.475 -142.95" id="C2_4_06abf8b89d"/>
     <path d="
M626.546 -91.4319
L626.546 -92.7978" id="C2_5_b571c79da0"/>
    </defs>
    <g clip-path="url(#pb63d0e8e96)">
     <use style="fill:none;stroke:#008000;" x="0.0" xlink:href="#C2_0_a97bf7f1d7" y="288.0"/>
    </g>
    <g clip-path="url(#pb63d0e8e96)">
     <use style="fill:none;stroke:#008000;" x="0.0" xlink:href="#C2_1_19f20b6ebc" y="288.0"/>
    </g>
    <g clip-path="url(#pb63d0e8e96)">
     <use style="fill:none;stroke:#008000;" x="0.0" xlink:href="#C2_2_4b550c32b1" y="288.0"/>
    </g>
    <g clip-path="url(#pb63d0e8e96)">
     <use style="fill:none;stroke:#008000;" x="0.0" xlink:href="#C2_3_a52b4e2e31" y="288.0"/>
    </g>
    <g clip-path="url(#pb63d0e8e96)">
     <use style="fill:none;stroke:#008000;" x="0.0" xlink:href="#C2_4_06abf8b89d" y="288.0"/>
    </g>
    <g clip-path="url(#pb63d0e8e96)">
     <use style="fill:none;stroke:#008000;" x="0.0" xlink:href="#C2_5_b571c79da0" y="288.0"/>
    </g>
   </g>
   <g id="LineCollection_4">
    <defs>
     <path d="
M451.02 -90.9682
L451.02 -92.1048" id="C3_0_fed679c678"/>
     <path d="
M216.984 -79.8881
L216.984 -81.0303" id="C3_1_44884e6cfd"/>
     <path d="
M802.073 -152.956
L802.073 -155.07" id="C3_2_735a54952e"/>
     <path d="
M685.055 -71.4935
L685.055 -72.6746" id="C3_3_272c730688"/>
     <path d="
M568.037 -78.7473
L568.037 -79.9198" id="C3_4_e857e6b0f6"/>
     <path d="
M99.9662 -162.712
L99.9662 -164.347" id="C3_5_8efe32b43f"/>
     <path d="
M334.002 -84.3676
L334.002 -85.5228" id="C3_6_7ca2a883d8"/>
    </defs>
    <g clip-path="url(#pb63d0e8e96)">
     <use style="fill:none;stroke:#008000;" x="0.0" xlink:href="#C3_0_fed679c678" y="288.0"/>
    </g>
    <g clip-path="url(#pb63d0e8e96)">
     <use style="fill:none;stroke:#008000;" x="0.0" xlink:href="#C3_1_44884e6cfd" y="288.0"/>
    </g>
    <g clip-path="url(#pb63d0e8e96)">
     <use style="fill:none;stroke:#008000;" x="0.0" xlink:href="#C3_2_735a54952e" y="288.0"/>
    </g>
    <g clip-path="url(#pb63d0e8e96)">
     <use style="fill:none;stroke:#008000;" x="0.0" xlink:href="#C3_3_272c730688" y="288.0"/>
    </g>
    <g clip-path="url(#pb63d0e8e96)">
     <use style="fill:none;stroke:#008000;" x="0.0" xlink:href="#C3_4_e857e6b0f6" y="288.0"/>
    </g>
    <g clip-path="url(#pb63d0e8e96)">
     <use style="fill:none;stroke:#008000;" x="0.0" xlink:href="#C3_5_8efe32b43f" y="288.0"/>
    </g>
    <g clip-path="url(#pb63d0e8e96)">
     <use style="fill:none;stroke:#008000;" x="0.0" xlink:href="#C3_6_7ca2a883d8" y="288.0"/>
    </g>
   </g>
   <g id="line2d_1">
    <defs>
     <path d="
M3 1.83697e-16
L-3 -1.83697e-16" id="m12d35e2592" style="stroke:#ff0000;stroke-width:0.5;"/>
    </defs>
    <g clip-path="url(#pb63d0e8e96)">
     <use style="fill:#ff0000;stroke:#ff0000;stroke-width:0.5;" x="275.49285386" xlink:href="#m12d35e2592" y="188.916460902"/>
     <use style="fill:#ff0000;stroke:#ff0000;stroke-width:0.5;" x="743.563993566" xlink:href="#m12d35e2592" y="143.489827748"/>
     <use style="fill:#ff0000;stroke:#ff0000;stroke-width:0.5;" x="509.528423713" xlink:href="#m12d35e2592" y="163.133752274"/>
     <use style="fill:#ff0000;stroke:#ff0000;stroke-width:0.5;" x="392.510638787" xlink:href="#m12d35e2592" y="180.090361404"/>
     <use style="fill:#ff0000;stroke:#ff0000;stroke-width:0.5;" x="626.54620864" xlink:href="#m12d35e2592" y="160.876125019"/>
     <use style="fill:#ff0000;stroke:#ff0000;stroke-width:0.5;" x="158.475068934" xlink:href="#m12d35e2592" y="129.284695026"/>
    </g>
   </g>
   <g id="line2d_2">
    <g clip-path="url(#pb63d0e8e96)">
     <use style="fill:#ff0000;stroke:#ff0000;stroke-width:0.5;" x="275.49285386" xlink:href="#m12d35e2592" y="187.382047406"/>
     <use style="fill:#ff0000;stroke:#ff0000;stroke-width:0.5;" x="743.563993566" xlink:href="#m12d35e2592" y="141.880728089"/>
     <use style="fill:#ff0000;stroke:#ff0000;stroke-width:0.5;" x="509.528423713" xlink:href="#m12d35e2592" y="161.542903965"/>
     <use style="fill:#ff0000;stroke:#ff0000;stroke-width:0.5;" x="392.510638787" xlink:href="#m12d35e2592" y="178.527218532"/>
     <use style="fill:#ff0000;stroke:#ff0000;stroke-width:0.5;" x="626.54620864" xlink:href="#m12d35e2592" y="159.244568433"/>
     <use style="fill:#ff0000;stroke:#ff0000;stroke-width:0.5;" x="158.475068934" xlink:href="#m12d35e2592" y="127.631234495"/>
    </g>
   </g>
   <g id="line2d_3">
    <defs>
     <path d="
M1.83697e-16 -3
L-0.673542 -0.927051
L-2.85317 -0.927051
L-1.08981 0.354102
L-1.76336 2.42705
L-2.10498e-16 1.1459
L1.76336 2.42705
L1.08981 0.354102
L2.85317 -0.927051
L0.673542 -0.927051
z
" id="mffc86915ee" style="stroke:#000000;stroke-linejoin:bevel;stroke-width:0.5;"/>
    </defs>
    <g clip-path="url(#pb63d0e8e96)">
     <use style="fill:#ff0000;stroke:#000000;stroke-linejoin:bevel;stroke-width:0.5;" x="275.49285386" xlink:href="#mffc86915ee" y="188.149254154"/>
     <use style="fill:#ff0000;stroke:#000000;stroke-linejoin:bevel;stroke-width:0.5;" x="743.563993566" xlink:href="#mffc86915ee" y="142.685277919"/>
     <use style="fill:#ff0000;stroke:#000000;stroke-linejoin:bevel;stroke-width:0.5;" x="509.528423713" xlink:href="#mffc86915ee" y="162.338328119"/>
     <use style="fill:#ff0000;stroke:#000000;stroke-linejoin:bevel;stroke-width:0.5;" x="392.510638787" xlink:href="#mffc86915ee" y="179.308789968"/>
     <use style="fill:#ff0000;stroke:#000000;stroke-linejoin:bevel;stroke-width:0.5;" x="626.54620864" xlink:href="#mffc86915ee" y="160.060346726"/>
     <use style="fill:#ff0000;stroke:#000000;stroke-linejoin:bevel;stroke-width:0.5;" x="158.475068934" xlink:href="#mffc86915ee" y="128.457964761"/>
    </g>
   </g>
   <g id="line2d_4">
    <g clip-path="url(#pb63d0e8e96)">
     <use style="fill:#ff0000;stroke:#ff0000;stroke-width:0.5;" x="802.072886029" xlink:href="#m12d35e2592" y="136.741343537"/>
     <use style="fill:#ff0000;stroke:#ff0000;stroke-width:0.5;" x="568.037316176" xlink:href="#m12d35e2592" y="181.948078391"/>
     <use style="fill:#ff0000;stroke:#ff0000;stroke-width:0.5;" x="685.055101103" xlink:href="#m12d35e2592" y="151.922818955"/>
     <use style="fill:#ff0000;stroke:#ff0000;stroke-width:0.5;" x="451.01953125" xlink:href="#m12d35e2592" y="157.145479415"/>
     <use style="fill:#ff0000;stroke:#ff0000;stroke-width:0.5;" x="334.001746324" xlink:href="#m12d35e2592" y="167.860294283"/>
     <use style="fill:#ff0000;stroke:#ff0000;stroke-width:0.5;" x="216.983961397" xlink:href="#m12d35e2592" y="158.174224859"/>
     <use style="fill:#ff0000;stroke:#ff0000;stroke-width:0.5;" x="99.9661764706" xlink:href="#m12d35e2592" y="40.6385867889"/>
    </g>
   </g>
   <g id="line2d_5">
    <g clip-path="url(#pb63d0e8e96)">
     <use style="fill:#ff0000;stroke:#ff0000;stroke-width:0.5;" x="802.072886029" xlink:href="#m12d35e2592" y="133.312408365"/>
     <use style="fill:#ff0000;stroke:#ff0000;stroke-width:0.5;" x="568.037316176" xlink:href="#m12d35e2592" y="180.280509895"/>
     <use style="fill:#ff0000;stroke:#ff0000;stroke-width:0.5;" x="685.055101103" xlink:href="#m12d35e2592" y="150.084325514"/>
     <use style="fill:#ff0000;stroke:#ff0000;stroke-width:0.5;" x="451.01953125" xlink:href="#m12d35e2592" y="155.539395301"/>
     <use style="fill:#ff0000;stroke:#ff0000;stroke-width:0.5;" x="334.001746324" xlink:href="#m12d35e2592" y="166.233845137"/>
     <use style="fill:#ff0000;stroke:#ff0000;stroke-width:0.5;" x="216.983961397" xlink:href="#m12d35e2592" y="156.614583719"/>
     <use style="fill:#ff0000;stroke:#ff0000;stroke-width:0.5;" x="99.9661764706" xlink:href="#m12d35e2592" y="38.7905423326"/>
    </g>
   </g>
   <g id="line2d_6">
    <defs>
     <path d="
M0 -3
L-3 3
L3 3
z
" id="m22ca2eebfc" style="stroke:#000000;stroke-linejoin:miter;stroke-width:0.5;"/>
    </defs>
    <g clip-path="url(#pb63d0e8e96)">
     <use style="fill:#ff0000;stroke:#000000;stroke-linejoin:miter;stroke-width:0.5;" x="802.072886029" xlink:href="#m22ca2eebfc" y="135.026875951"/>
     <use style="fill:#ff0000;stroke:#000000;stroke-linejoin:miter;stroke-width:0.5;" x="568.037316176" xlink:href="#m22ca2eebfc" y="181.114294143"/>
     <use style="fill:#ff0000;stroke:#000000;stroke-linejoin:miter;stroke-width:0.5;" x="685.055101103" xlink:href="#m22ca2eebfc" y="151.003572235"/>
     <use style="fill:#ff0000;stroke:#000000;stroke-linejoin:miter;stroke-width:0.5;" x="451.01953125" xlink:href="#m22ca2eebfc" y="156.342437358"/>
     <use style="fill:#ff0000;stroke:#000000;stroke-linejoin:miter;stroke-width:0.5;" x="334.001746324" xlink:href="#m22ca2eebfc" y="167.04706971"/>
     <use style="fill:#ff0000;stroke:#000000;stroke-linejoin:miter;stroke-width:0.5;" x="216.983961397" xlink:href="#m22ca2eebfc" y="157.394404289"/>
     <use style="fill:#ff0000;stroke:#000000;stroke-linejoin:miter;stroke-width:0.5;" x="99.9661764706" xlink:href="#m22ca2eebfc" y="39.7145645607"/>
    </g>
   </g>
   <g id="line2d_7">
    <defs>
     <path d="
M3 1.83697e-16
L-3 -1.83697e-16" id="m1ef3793437" style="stroke:#008000;stroke-width:0.5;"/>
    </defs>
    <g clip-path="url(#pb63d0e8e96)">
     <use style="fill:#008000;stroke:#008000;stroke-width:0.5;" x="275.49285386" xlink:href="#m1ef3793437" y="199.997719235"/>
     <use style="fill:#008000;stroke:#008000;stroke-width:0.5;" x="392.510638787" xlink:href="#m1ef3793437" y="198.505862294"/>
     <use style="fill:#008000;stroke:#008000;stroke-width:0.5;" x="509.528423713" xlink:href="#m1ef3793437" y="187.394596819"/>
     <use style="fill:#008000;stroke:#008000;stroke-width:0.5;" x="743.563993566" xlink:href="#m1ef3793437" y="193.004498757"/>
     <use style="fill:#008000;stroke:#008000;stroke-width:0.5;" x="158.475068934" xlink:href="#m1ef3793437" y="146.398037345"/>
     <use style="fill:#008000;stroke:#008000;stroke-width:0.5;" x="626.54620864" xlink:href="#m1ef3793437" y="196.568126456"/>
    </g>
   </g>
   <g id="line2d_8">
    <g clip-path="url(#pb63d0e8e96)">
     <use style="fill:#008000;stroke:#008000;stroke-width:0.5;" x="275.49285386" xlink:href="#m1ef3793437" y="198.728752305"/>
     <use style="fill:#008000;stroke:#008000;stroke-width:0.5;" x="392.510638787" xlink:href="#m1ef3793437" y="197.176555034"/>
     <use style="fill:#008000;stroke:#008000;stroke-width:0.5;" x="509.528423713" xlink:href="#m1ef3793437" y="186.024091764"/>
     <use style="fill:#008000;stroke:#008000;stroke-width:0.5;" x="743.563993566" xlink:href="#m1ef3793437" y="191.636237846"/>
     <use style="fill:#008000;stroke:#008000;stroke-width:0.5;" x="158.475068934" xlink:href="#m1ef3793437" y="145.050185957"/>
     <use style="fill:#008000;stroke:#008000;stroke-width:0.5;" x="626.54620864" xlink:href="#m1ef3793437" y="195.20221044"/>
    </g>
   </g>
   <g id="line2d_9">
    <defs>
     <path d="
M1.83697e-16 -3
L-0.673542 -0.927051
L-2.85317 -0.927051
L-1.08981 0.354102
L-1.76336 2.42705
L-2.10498e-16 1.1459
L1.76336 2.42705
L1.08981 0.354102
L2.85317 -0.927051
L0.673542 -0.927051
z
" id="m78c097fb03" style="stroke:#000000;stroke-linejoin:bevel;stroke-width:0.5;"/>
    </defs>
    <g clip-path="url(#pb63d0e8e96)">
     <use style="fill:#008000;stroke:#000000;stroke-linejoin:bevel;stroke-width:0.5;" x="275.49285386" xlink:href="#m78c097fb03" y="199.36323577"/>
     <use style="fill:#008000;stroke:#000000;stroke-linejoin:bevel;stroke-width:0.5;" x="392.510638787" xlink:href="#m78c097fb03" y="197.841208664"/>
     <use style="fill:#008000;stroke:#000000;stroke-linejoin:bevel;stroke-width:0.5;" x="509.528423713" xlink:href="#m78c097fb03" y="186.709344291"/>
     <use style="fill:#008000;stroke:#000000;stroke-linejoin:bevel;stroke-width:0.5;" x="743.563993566" xlink:href="#m78c097fb03" y="192.320368301"/>
     <use style="fill:#008000;stroke:#000000;stroke-linejoin:bevel;stroke-width:0.5;" x="158.475068934" xlink:href="#m78c097fb03" y="145.724111651"/>
     <use style="fill:#008000;stroke:#000000;stroke-linejoin:bevel;stroke-width:0.5;" x="626.54620864" xlink:href="#m78c097fb03" y="195.885168448"/>
    </g>
   </g>
   <g id="line2d_10">
    <g clip-path="url(#pb63d0e8e96)">
     <use style="fill:#008000;stroke:#008000;stroke-width:0.5;" x="451.01953125" xlink:href="#m1ef3793437" y="197.031767672"/>
     <use style="fill:#008000;stroke:#008000;stroke-width:0.5;" x="216.983961397" xlink:href="#m1ef3793437" y="208.111856138"/>
     <use style="fill:#008000;stroke:#008000;stroke-width:0.5;" x="802.072886029" xlink:href="#m1ef3793437" y="135.043858166"/>
     <use style="fill:#008000;stroke:#008000;stroke-width:0.5;" x="685.055101103" xlink:href="#m1ef3793437" y="216.50654163"/>
     <use style="fill:#008000;stroke:#008000;stroke-width:0.5;" x="568.037316176" xlink:href="#m1ef3793437" y="209.252724408"/>
     <use style="fill:#008000;stroke:#008000;stroke-width:0.5;" x="99.9661764706" xlink:href="#m1ef3793437" y="125.287645294"/>
     <use style="fill:#008000;stroke:#008000;stroke-width:0.5;" x="334.001746324" xlink:href="#m1ef3793437" y="203.632383984"/>
    </g>
   </g>
   <g id="line2d_11">
    <g clip-path="url(#pb63d0e8e96)">
     <use style="fill:#008000;stroke:#008000;stroke-width:0.5;" x="451.01953125" xlink:href="#m1ef3793437" y="195.895157964"/>
     <use style="fill:#008000;stroke:#008000;stroke-width:0.5;" x="216.983961397" xlink:href="#m1ef3793437" y="206.969673416"/>
     <use style="fill:#008000;stroke:#008000;stroke-width:0.5;" x="802.072886029" xlink:href="#m1ef3793437" y="132.930474928"/>
     <use style="fill:#008000;stroke:#008000;stroke-width:0.5;" x="685.055101103" xlink:href="#m1ef3793437" y="215.325404663"/>
     <use style="fill:#008000;stroke:#008000;stroke-width:0.5;" x="568.037316176" xlink:href="#m1ef3793437" y="208.080226433"/>
     <use style="fill:#008000;stroke:#008000;stroke-width:0.5;" x="99.9661764706" xlink:href="#m1ef3793437" y="123.653407269"/>
     <use style="fill:#008000;stroke:#008000;stroke-width:0.5;" x="334.001746324" xlink:href="#m1ef3793437" y="202.477175385"/>
    </g>
   </g>
   <g id="line2d_12">
    <defs>
     <path d="
M0 -3
L-3 3
L3 3
z
" id="md7f788f78c" style="stroke:#000000;stroke-linejoin:miter;stroke-width:0.5;"/>
    </defs>
    <g clip-path="url(#pb63d0e8e96)">
     <use style="fill:#008000;stroke:#000000;stroke-linejoin:miter;stroke-width:0.5;" x="451.01953125" xlink:href="#md7f788f78c" y="196.463462818"/>
     <use style="fill:#008000;stroke:#000000;stroke-linejoin:miter;stroke-width:0.5;" x="216.983961397" xlink:href="#md7f788f78c" y="207.540764777"/>
     <use style="fill:#008000;stroke:#000000;stroke-linejoin:miter;stroke-width:0.5;" x="802.072886029" xlink:href="#md7f788f78c" y="133.987166547"/>
     <use style="fill:#008000;stroke:#000000;stroke-linejoin:miter;stroke-width:0.5;" x="685.055101103" xlink:href="#md7f788f78c" y="215.915973146"/>
     <use style="fill:#008000;stroke:#000000;stroke-linejoin:miter;stroke-width:0.5;" x="568.037316176" xlink:href="#md7f788f78c" y="208.66647542"/>
     <use style="fill:#008000;stroke:#000000;stroke-linejoin:miter;stroke-width:0.5;" x="99.9661764706" xlink:href="#md7f788f78c" y="124.470526281"/>
     <use style="fill:#008000;stroke:#000000;stroke-linejoin:miter;stroke-width:0.5;" x="334.001746324" xlink:href="#md7f788f78c" y="203.054779684"/>
    </g>
   </g>
   <g id="matplotlib.axis_1">
    <g id="xtick_1">
     <g id="line2d_13">
      <path clip-path="url(#pb63d0e8e96)" d="
M99.9662 238.314
L99.9662 21.42" style="fill:none;stroke:#000000;stroke-dasharray:1.000000,3.000000;stroke-dashoffset:0.0;stroke-width:0.5;"/>
     </g>
     <g id="line2d_14">
      <defs>
       <path d="
M0 0
L0 -4" id="m93b0483c22" style="stroke:#000000;stroke-width:0.5;"/>
      </defs>
      <g>
       <use style="stroke:#000000;stroke-width:0.5;" x="99.9661764706" xlink:href="#m93b0483c22" y="238.314375"/>
      </g>
     </g>
     <g id="line2d_15">
      <defs>
       <path d="
M0 0
L0 4" id="m741efc42ff" style="stroke:#000000;stroke-width:0.5;"/>
      </defs>
      <g>
       <use style="stroke:#000000;stroke-width:0.5;" x="99.9661764706" xlink:href="#m741efc42ff" y="21.42"/>
      </g>
     </g>
     <g id="text_1">
      <!-- 0 -->
      <defs>
       <path d="
M31.7812 3.42188
Q39.2656 3.42188 42.9688 11.625
Q46.6875 19.8281 46.6875 36.375
Q46.6875 52.9844 42.9688 61.1875
Q39.2656 69.3906 31.7812 69.3906
Q24.3125 69.3906 20.5938 61.1875
Q16.8906 52.9844 16.8906 36.375
Q16.8906 19.8281 20.5938 11.625
Q24.3125 3.42188 31.7812 3.42188
M31.7812 -1.42188
Q19.9219 -1.42188 13.25 8.53125
Q6.59375 18.5 6.59375 36.375
Q6.59375 54.2969 13.25 64.25
Q19.9219 74.2188 31.7812 74.2188
Q43.7031 74.2188 50.3438 64.25
Q56.9844 54.2969 56.9844 36.375
Q56.9844 18.5 50.3438 8.53125
Q43.7031 -1.42188 31.7812 -1.42188" id="BitstreamVeraSerif-Roman-30"/>
      </defs>
      <g transform="translate(96.4388327206 252.9521875)scale(0.14 -0.14)">
       <use xlink:href="#BitstreamVeraSerif-Roman-30"/>
      </g>
     </g>
    </g>
    <g id="xtick_2">
     <g id="line2d_16">
      <path clip-path="url(#pb63d0e8e96)" d="
M216.984 238.314
L216.984 21.42" style="fill:none;stroke:#000000;stroke-dasharray:1.000000,3.000000;stroke-dashoffset:0.0;stroke-width:0.5;"/>
     </g>
     <g id="line2d_17">
      <g>
       <use style="stroke:#000000;stroke-width:0.5;" x="216.983961397" xlink:href="#m93b0483c22" y="238.314375"/>
      </g>
     </g>
     <g id="line2d_18">
      <g>
       <use style="stroke:#000000;stroke-width:0.5;" x="216.983961397" xlink:href="#m741efc42ff" y="21.42"/>
      </g>
     </g>
     <g id="text_2">
      <!-- 5 -->
      <defs>
       <path d="
M50.2969 72.9062
L50.2969 64.8906
L16.8906 64.8906
L16.8906 44
Q19.4375 45.75 22.8281 46.625
Q26.2188 47.5156 30.4219 47.5156
Q42.2344 47.5156 49.0625 40.9688
Q55.9062 34.4219 55.9062 23.0938
Q55.9062 11.5312 49 5.04688
Q42.0938 -1.42188 29.5938 -1.42188
Q24.5625 -1.42188 19.2812 -0.1875
Q14.0156 1.03125 8.5 3.51562
L8.5 17.6719
L14.0156 17.6719
Q14.4531 10.75 18.4219 7.07812
Q22.4062 3.42188 29.5938 3.42188
Q37.3125 3.42188 41.4531 8.5
Q45.6094 13.5781 45.6094 23.0938
Q45.6094 32.5625 41.4844 37.6094
Q37.3594 42.6719 29.5938 42.6719
Q25.2031 42.6719 21.8438 41.1094
Q18.5 39.5469 15.9219 36.2812
L11.7188 36.2812
L11.7188 72.9062
z
" id="BitstreamVeraSerif-Roman-35"/>
      </defs>
      <g transform="translate(213.665523897 252.9521875)scale(0.14 -0.14)">
       <use xlink:href="#BitstreamVeraSerif-Roman-35"/>
      </g>
     </g>
    </g>
    <g id="xtick_3">
     <g id="line2d_19">
      <path clip-path="url(#pb63d0e8e96)" d="
M334.002 238.314
L334.002 21.42" style="fill:none;stroke:#000000;stroke-dasharray:1.000000,3.000000;stroke-dashoffset:0.0;stroke-width:0.5;"/>
     </g>
     <g id="line2d_20">
      <g>
       <use style="stroke:#000000;stroke-width:0.5;" x="334.001746324" xlink:href="#m93b0483c22" y="238.314375"/>
      </g>
     </g>
     <g id="line2d_21">
      <g>
       <use style="stroke:#000000;stroke-width:0.5;" x="334.001746324" xlink:href="#m741efc42ff" y="21.42"/>
      </g>
     </g>
     <g id="text_3">
      <!-- 10 -->
      <defs>
       <path d="
M14.2031 0
L14.2031 5.17188
L26.9062 5.17188
L26.9062 65.8281
L12.2031 56.2969
L12.2031 62.7031
L29.9844 74.2188
L36.7188 74.2188
L36.7188 5.17188
L49.4219 5.17188
L49.4219 0
z
" id="BitstreamVeraSerif-Roman-31"/>
      </defs>
      <g transform="translate(326.413308824 252.9521875)scale(0.14 -0.14)">
       <use xlink:href="#BitstreamVeraSerif-Roman-31"/>
       <use x="63.623046875" xlink:href="#BitstreamVeraSerif-Roman-30"/>
      </g>
     </g>
    </g>
    <g id="xtick_4">
     <g id="line2d_22">
      <path clip-path="url(#pb63d0e8e96)" d="
M451.02 238.314
L451.02 21.42" style="fill:none;stroke:#000000;stroke-dasharray:1.000000,3.000000;stroke-dashoffset:0.0;stroke-width:0.5;"/>
     </g>
     <g id="line2d_23">
      <g>
       <use style="stroke:#000000;stroke-width:0.5;" x="451.01953125" xlink:href="#m93b0483c22" y="238.314375"/>
      </g>
     </g>
     <g id="line2d_24">
      <g>
       <use style="stroke:#000000;stroke-width:0.5;" x="451.01953125" xlink:href="#m741efc42ff" y="21.42"/>
      </g>
     </g>
     <g id="text_4">
      <!-- 15 -->
      <g transform="translate(443.5065625 252.9521875)scale(0.14 -0.14)">
       <use xlink:href="#BitstreamVeraSerif-Roman-31"/>
       <use x="63.623046875" xlink:href="#BitstreamVeraSerif-Roman-35"/>
      </g>
     </g>
    </g>
    <g id="xtick_5">
     <g id="line2d_25">
      <path clip-path="url(#pb63d0e8e96)" d="
M568.037 238.314
L568.037 21.42" style="fill:none;stroke:#000000;stroke-dasharray:1.000000,3.000000;stroke-dashoffset:0.0;stroke-width:0.5;"/>
     </g>
     <g id="line2d_26">
      <g>
       <use style="stroke:#000000;stroke-width:0.5;" x="568.037316176" xlink:href="#m93b0483c22" y="238.314375"/>
      </g>
     </g>
     <g id="line2d_27">
      <g>
       <use style="stroke:#000000;stroke-width:0.5;" x="568.037316176" xlink:href="#m741efc42ff" y="21.42"/>
      </g>
     </g>
     <g id="text_5">
      <!-- 20 -->
      <defs>
       <path d="
M12.7969 55.5156
L7.32812 55.5156
L7.32812 68.5
Q12.5469 71.2969 17.8438 72.75
Q23.1406 74.2188 28.2188 74.2188
Q39.5938 74.2188 46.1875 68.7031
Q52.7812 63.1875 52.7812 53.7188
Q52.7812 43.0156 37.8438 28.125
Q36.6719 27 36.0781 26.4219
L17.6719 8.01562
L48.0938 8.01562
L48.0938 17
L53.8125 17
L53.8125 0
L6.78125 0
L6.78125 5.32812
L28.9062 27.3906
Q36.2344 34.7188 39.3594 40.8438
Q42.4844 46.9688 42.4844 53.7188
Q42.4844 61.0781 38.6406 65.2344
Q34.8125 69.3906 28.0781 69.3906
Q21.0938 69.3906 17.2812 65.9219
Q13.4844 62.4531 12.7969 55.5156" id="BitstreamVeraSerif-Roman-32"/>
      </defs>
      <g transform="translate(560.069347426 252.9521875)scale(0.14 -0.14)">
       <use xlink:href="#BitstreamVeraSerif-Roman-32"/>
       <use x="63.623046875" xlink:href="#BitstreamVeraSerif-Roman-30"/>
      </g>
     </g>
    </g>
    <g id="xtick_6">
     <g id="line2d_28">
      <path clip-path="url(#pb63d0e8e96)" d="
M685.055 238.314
L685.055 21.42" style="fill:none;stroke:#000000;stroke-dasharray:1.000000,3.000000;stroke-dashoffset:0.0;stroke-width:0.5;"/>
     </g>
     <g id="line2d_29">
      <g>
       <use style="stroke:#000000;stroke-width:0.5;" x="685.055101103" xlink:href="#m93b0483c22" y="238.314375"/>
      </g>
     </g>
     <g id="line2d_30">
      <g>
       <use style="stroke:#000000;stroke-width:0.5;" x="685.055101103" xlink:href="#m741efc42ff" y="21.42"/>
      </g>
     </g>
     <g id="text_6">
      <!-- 25 -->
      <g transform="translate(677.162601103 252.9521875)scale(0.14 -0.14)">
       <use xlink:href="#BitstreamVeraSerif-Roman-32"/>
       <use x="63.623046875" xlink:href="#BitstreamVeraSerif-Roman-35"/>
      </g>
     </g>
    </g>
    <g id="xtick_7">
     <g id="line2d_31">
      <path clip-path="url(#pb63d0e8e96)" d="
M802.073 238.314
L802.073 21.42" style="fill:none;stroke:#000000;stroke-dasharray:1.000000,3.000000;stroke-dashoffset:0.0;stroke-width:0.5;"/>
     </g>
     <g id="line2d_32">
      <g>
       <use style="stroke:#000000;stroke-width:0.5;" x="802.072886029" xlink:href="#m93b0483c22" y="238.314375"/>
      </g>
     </g>
     <g id="line2d_33">
      <g>
       <use style="stroke:#000000;stroke-width:0.5;" x="802.072886029" xlink:href="#m741efc42ff" y="21.42"/>
      </g>
     </g>
     <g id="text_7">
      <!-- 30 -->
      <defs>
       <path d="
M9.71875 69.8281
Q15.4375 71.9688 20.6719 73.0938
Q25.9219 74.2188 30.5156 74.2188
Q41.2188 74.2188 47.2188 69.5938
Q53.2188 64.9844 53.2188 56.7812
Q53.2188 50.2031 49.0625 45.7812
Q44.9219 41.3594 37.3125 39.7969
Q46.2969 38.5312 51.25 33.2812
Q56.2031 28.0312 56.2031 19.6719
Q56.2031 9.46875 49.3438 4.01562
Q42.4844 -1.42188 29.5938 -1.42188
Q23.875 -1.42188 18.4219 -0.1875
Q12.9844 1.03125 7.625 3.51562
L7.625 17.6719
L13.0938 17.6719
Q13.5781 10.6406 17.8281 7.03125
Q22.0781 3.42188 29.7812 3.42188
Q37.25 3.42188 41.5781 7.73438
Q45.9062 12.0625 45.9062 19.5781
Q45.9062 28.1719 41.4531 32.5938
Q37.0156 37.0156 28.4219 37.0156
L23.7812 37.0156
L23.7812 42
L26.2188 42
Q34.7656 42 39.0312 45.5312
Q43.3125 49.0781 43.3125 56.2031
Q43.3125 62.5938 39.7969 65.9844
Q36.2812 69.3906 29.6875 69.3906
Q23.0938 69.3906 19.4531 66.2656
Q15.8281 63.1406 15.1875 56.9844
L9.71875 56.9844
z
" id="BitstreamVeraSerif-Roman-33"/>
      </defs>
      <g transform="translate(794.163979779 252.9521875)scale(0.14 -0.14)">
       <use xlink:href="#BitstreamVeraSerif-Roman-33"/>
       <use x="63.623046875" xlink:href="#BitstreamVeraSerif-Roman-30"/>
      </g>
     </g>
    </g>
    <g id="text_8">
     <!-- Depth of Interaction (mm) -->
     <defs>
      <path d="
M31.8906 -15.5781
Q20.0156 -10.25 13.9531 1.29688
Q7.90625 12.8438 7.90625 30.1719
Q7.90625 47.5625 13.9531 59.1094
Q20.0156 70.6562 31.8906 75.9844
L31.8906 71.1875
Q24.3594 66.0156 21.0938 56.6094
Q17.8281 47.2188 17.8281 30.1719
Q17.8281 13.1875 21.0938 3.78125
Q24.3594 -5.60938 31.8906 -10.7969
z
" id="BitstreamVeraSerif-Roman-28"/>
      <path d="
M54.2031 25
L15.4844 25
L15.4844 24.6094
Q15.4844 14.1094 19.4375 8.76562
Q23.3906 3.42188 31.1094 3.42188
Q37.0156 3.42188 40.7969 6.51562
Q44.5781 9.625 46.0938 15.7188
L53.3281 15.7188
Q51.1719 7.17188 45.375 2.875
Q39.5938 -1.42188 30.1719 -1.42188
Q18.7969 -1.42188 11.8906 6.07812
Q4.98438 13.5781 4.98438 25.9844
Q4.98438 38.2812 11.7656 45.7969
Q18.5625 53.3281 29.5938 53.3281
Q41.3594 53.3281 47.6562 46.0625
Q53.9531 38.8125 54.2031 25
M43.6094 30.1719
Q43.3125 39.2656 39.7656 43.875
Q36.2344 48.4844 29.5938 48.4844
Q23.3906 48.4844 19.8281 43.8438
Q16.2656 39.2031 15.4844 30.1719
z
" id="BitstreamVeraSerif-Roman-65"/>
      <path d="
M43.0156 63.7188
L38.2812 63.7188
Q38.2344 67.3906 36.2031 69.2812
Q34.1875 71.1875 30.3281 71.1875
Q25.2969 71.1875 23.2344 68.4219
Q21.1875 65.6719 21.1875 58.5938
L21.1875 51.9062
L35.6875 51.9062
L35.6875 46.6875
L21.1875 46.6875
L21.1875 5.17188
L32.7188 5.17188
L32.7188 0
L3.60938 0
L3.60938 5.17188
L12.2031 5.17188
L12.2031 46.6875
L3.60938 46.6875
L3.60938 51.9062
L12.2031 51.9062
L12.2031 58.4062
Q12.2031 67.0938 16.7188 71.5312
Q21.2344 75.9844 29.9844 75.9844
Q33.25 75.9844 36.5156 75.3906
Q39.7969 74.8125 43.0156 73.5781
z
" id="BitstreamVeraSerif-Roman-66"/>
      <path d="
M10.7969 46.6875
L2.875 46.6875
L2.875 51.9062
L10.7969 51.9062
L10.7969 68.0156
L19.8281 68.0156
L19.8281 51.9062
L36.7188 51.9062
L36.7188 46.6875
L19.8281 46.6875
L19.8281 13.7188
Q19.8281 7.125 21.0938 5.26562
Q22.3594 3.42188 25.7812 3.42188
Q29.2969 3.42188 30.9062 5.48438
Q32.5156 7.5625 32.625 12.2031
L39.4062 12.2031
Q39.0156 5.125 35.5469 1.84375
Q32.0781 -1.42188 25 -1.42188
Q17.2344 -1.42188 14.0156 2.01562
Q10.7969 5.46875 10.7969 13.7188
z
" id="BitstreamVeraSerif-Roman-74"/>
      <path d="
M47.7969 52
L47.7969 39.0156
L42.625 39.0156
Q42.3906 42.875 40.4844 44.7812
Q38.5781 46.6875 34.9062 46.6875
Q28.2656 46.6875 24.7188 42.0938
Q21.1875 37.5 21.1875 28.9062
L21.1875 5.17188
L31.5938 5.17188
L31.5938 0
L4.10938 0
L4.10938 5.17188
L12.2031 5.17188
L12.2031 46.7812
L3.60938 46.7812
L3.60938 51.9062
L21.1875 51.9062
L21.1875 42.6719
Q23.8281 48.0938 27.9688 50.7031
Q32.125 53.3281 38.0938 53.3281
Q40.2812 53.3281 42.7031 52.9844
Q45.125 52.6406 47.7969 52" id="BitstreamVeraSerif-Roman-72"/>
      <path d="
M20.5156 28.5156
L20.5156 23.3906
Q20.5156 14.0156 24.0938 9.10938
Q27.6875 4.20312 34.5156 4.20312
Q41.4062 4.20312 44.9375 9.71875
Q48.4844 15.2344 48.4844 25.9844
Q48.4844 36.7656 44.9375 42.2344
Q41.4062 47.7031 34.5156 47.7031
Q27.6875 47.7031 24.0938 42.7656
Q20.5156 37.8438 20.5156 28.5156
M11.5312 46.6875
L2.875 46.6875
L2.875 51.9062
L20.5156 51.9062
L20.5156 43.7969
Q23.1406 48.6875 27.2188 51
Q31.2969 53.3281 37.3125 53.3281
Q46.875 53.3281 52.9219 45.75
Q58.9844 38.1875 58.9844 25.9844
Q58.9844 13.7656 52.9219 6.17188
Q46.875 -1.42188 37.3125 -1.42188
Q31.2969 -1.42188 27.2188 0.890625
Q23.1406 3.21875 20.5156 8.10938
L20.5156 -15.5781
L29 -15.5781
L29 -20.7969
L2.875 -20.7969
L2.875 -15.5781
L11.5312 -15.5781
z
" id="BitstreamVeraSerif-Roman-70"/>
      <path id="BitstreamVeraSerif-Roman-20"/>
      <path d="
M51.4219 15.5781
Q49.5156 7.28125 44.0938 2.92188
Q38.6719 -1.42188 30.0781 -1.42188
Q18.75 -1.42188 11.8594 6.07812
Q4.98438 13.5781 4.98438 25.9844
Q4.98438 38.4219 11.8594 45.875
Q18.75 53.3281 30.0781 53.3281
Q35.0156 53.3281 39.8906 52.1719
Q44.7812 51.0312 49.7031 48.6875
L49.7031 35.4062
L44.4844 35.4062
Q43.4531 42.2344 40.0156 45.3594
Q36.5781 48.4844 30.1719 48.4844
Q22.9062 48.4844 19.1875 42.8438
Q15.4844 37.2031 15.4844 25.9844
Q15.4844 14.75 19.1719 9.07812
Q22.8594 3.42188 30.1719 3.42188
Q35.9844 3.42188 39.4531 6.4375
Q42.9219 9.46875 44.1875 15.5781
z
" id="BitstreamVeraSerif-Roman-63"/>
      <path d="
M4.10938 0
L4.10938 5.17188
L12.2031 5.17188
L12.2031 70.7969
L3.60938 70.7969
L3.60938 75.9844
L21.1875 75.9844
L21.1875 42.6719
Q23.6875 47.9531 27.6562 50.6406
Q31.6406 53.3281 36.9219 53.3281
Q45.5156 53.3281 49.5625 48.3906
Q53.6094 43.4531 53.6094 33.0156
L53.6094 5.17188
L61.625 5.17188
L61.625 0
L36.8125 0
L36.8125 5.17188
L44.5781 5.17188
L44.5781 30.1719
Q44.5781 39.7031 42.25 43.1875
Q39.9375 46.6875 33.9844 46.6875
Q27.7344 46.6875 24.4531 42.1406
Q21.1875 37.5938 21.1875 28.9062
L21.1875 5.17188
L29 5.17188
L29 0
z
" id="BitstreamVeraSerif-Roman-68"/>
      <path d="
M9.71875 68.0156
Q9.71875 70.2656 11.3438 71.9219
Q12.9844 73.5781 15.2812 73.5781
Q17.5312 73.5781 19.1562 71.9219
Q20.7969 70.2656 20.7969 68.0156
Q20.7969 65.7188 19.1875 64.1094
Q17.5781 62.5 15.2812 62.5
Q12.9844 62.5 11.3438 64.1094
Q9.71875 65.7188 9.71875 68.0156
M21.1875 5.17188
L29.6875 5.17188
L29.6875 0
L3.60938 0
L3.60938 5.17188
L12.2031 5.17188
L12.2031 46.6875
L3.60938 46.6875
L3.60938 51.9062
L21.1875 51.9062
z
" id="BitstreamVeraSerif-Roman-69"/>
      <path d="
M51.8125 41.7969
Q54.3906 47.5156 58.4219 50.4219
Q62.4531 53.3281 67.8281 53.3281
Q75.9844 53.3281 79.9844 48.2656
Q83.9844 43.2188 83.9844 33.0156
L83.9844 5.17188
L92.0938 5.17188
L92.0938 0
L67.1875 0
L67.1875 5.17188
L75 5.17188
L75 31.9844
Q75 39.9375 72.6562 43.3125
Q70.3125 46.6875 64.8906 46.6875
Q58.8906 46.6875 55.7344 42.1406
Q52.5938 37.5938 52.5938 28.9062
L52.5938 5.17188
L60.4062 5.17188
L60.4062 0
L35.7969 0
L35.7969 5.17188
L43.6094 5.17188
L43.6094 32.3281
Q43.6094 40.0938 41.2656 43.3906
Q38.9219 46.6875 33.5 46.6875
Q27.4844 46.6875 24.3281 42.1406
Q21.1875 37.5938 21.1875 28.9062
L21.1875 5.17188
L29 5.17188
L29 0
L4.10938 0
L4.10938 5.17188
L12.2031 5.17188
L12.2031 46.7812
L3.60938 46.7812
L3.60938 51.9062
L21.1875 51.9062
L21.1875 42.6719
Q23.6875 47.8594 27.5312 50.5938
Q31.3906 53.3281 36.2812 53.3281
Q42.3281 53.3281 46.375 50.3125
Q50.4375 47.3125 51.8125 41.7969" id="BitstreamVeraSerif-Roman-6d"/>
      <path d="
M4.10938 0
L4.10938 5.17188
L12.2031 5.17188
L12.2031 46.6875
L3.60938 46.6875
L3.60938 51.9062
L21.1875 51.9062
L21.1875 42.6719
Q23.6875 47.9531 27.6562 50.6406
Q31.6406 53.3281 36.9219 53.3281
Q45.5156 53.3281 49.5625 48.3906
Q53.6094 43.4531 53.6094 33.0156
L53.6094 5.17188
L61.625 5.17188
L61.625 0
L36.8125 0
L36.8125 5.17188
L44.5781 5.17188
L44.5781 30.1719
Q44.5781 39.7031 42.2344 43.2344
Q39.8906 46.7812 33.9844 46.7812
Q27.7344 46.7812 24.4531 42.2031
Q21.1875 37.6406 21.1875 28.9062
L21.1875 5.17188
L29 5.17188
L29 0
z
" id="BitstreamVeraSerif-Roman-6e"/>
      <path d="
M30.0781 3.42188
Q37.3125 3.42188 40.9844 9.125
Q44.6719 14.8438 44.6719 25.9844
Q44.6719 37.1094 40.9844 42.7969
Q37.3125 48.4844 30.0781 48.4844
Q22.8594 48.4844 19.1719 42.7969
Q15.4844 37.1094 15.4844 25.9844
Q15.4844 14.8438 19.1875 9.125
Q22.9062 3.42188 30.0781 3.42188
M30.0781 -1.42188
Q18.75 -1.42188 11.8594 6.07812
Q4.98438 13.5781 4.98438 25.9844
Q4.98438 38.375 11.8438 45.8438
Q18.7031 53.3281 30.0781 53.3281
Q41.4531 53.3281 48.3125 45.8438
Q55.1719 38.375 55.1719 25.9844
Q55.1719 13.5781 48.3125 6.07812
Q41.4531 -1.42188 30.0781 -1.42188" id="BitstreamVeraSerif-Roman-6f"/>
      <path d="
M24.7031 5.17188
L33.9844 5.17188
L33.9844 0
L5.51562 0
L5.51562 5.17188
L14.7969 5.17188
L14.7969 67.6719
L5.51562 67.6719
L5.51562 72.9062
L33.9844 72.9062
L33.9844 67.6719
L24.7031 67.6719
z
" id="BitstreamVeraSerif-Roman-49"/>
      <path d="
M24.7031 5.17188
L33.7969 5.17188
Q48 5.17188 55.5938 13.2812
Q63.1875 21.3906 63.1875 36.5312
Q63.1875 51.6562 55.6094 59.6562
Q48.0469 67.6719 33.7969 67.6719
L24.7031 67.6719
z

M5.51562 0
L5.51562 5.17188
L14.7969 5.17188
L14.7969 67.6719
L5.51562 67.6719
L5.51562 72.9062
L34.5156 72.9062
Q53.375 72.9062 63.8906 63.2812
Q74.4219 53.6562 74.4219 36.5312
Q74.4219 19.3438 63.875 9.67188
Q53.3281 0 34.5156 0
z
" id="BitstreamVeraSerif-Roman-44"/>
      <path d="
M7.07812 -15.5781
L7.07812 -10.7969
Q14.5938 -5.60938 17.8906 3.78125
Q21.1875 13.1875 21.1875 30.1719
Q21.1875 47.2188 17.8906 56.6094
Q14.5938 66.0156 7.07812 71.1875
L7.07812 75.9844
Q19 70.6562 25.0469 59.1094
Q31.1094 47.5625 31.1094 30.1719
Q31.1094 12.8438 25.0469 1.29688
Q19 -10.25 7.07812 -15.5781" id="BitstreamVeraSerif-Roman-29"/>
      <path d="
M39.7969 16.3125
L39.7969 27.2969
L28.2188 27.2969
Q21.5312 27.2969 18.25 24.4062
Q14.9844 21.5312 14.9844 15.5781
Q14.9844 10.1562 18.2969 6.98438
Q21.625 3.8125 27.2969 3.8125
Q32.9062 3.8125 36.3438 7.28125
Q39.7969 10.75 39.7969 16.3125
M48.7812 32.4219
L48.7812 5.17188
L56.7812 5.17188
L56.7812 0
L39.7969 0
L39.7969 5.60938
Q36.8125 2 32.9062 0.28125
Q29 -1.42188 23.7812 -1.42188
Q15.1406 -1.42188 10.0625 3.17188
Q4.98438 7.76562 4.98438 15.5781
Q4.98438 23.6406 10.7969 28.0781
Q16.6094 32.5156 27.2031 32.5156
L39.7969 32.5156
L39.7969 36.0781
Q39.7969 42 36.2031 45.2344
Q32.625 48.4844 26.125 48.4844
Q20.75 48.4844 17.5781 46.0469
Q14.4062 43.6094 13.625 38.8125
L8.98438 38.8125
L8.98438 49.3125
Q13.6719 51.3125 18.0938 52.3125
Q22.5156 53.3281 26.7031 53.3281
Q37.5 53.3281 43.1406 47.9688
Q48.7812 42.625 48.7812 32.4219" id="BitstreamVeraSerif-Roman-61"/>
     </defs>
     <g transform="translate(358.35375 271.5015625)scale(0.14 -0.14)">
      <use xlink:href="#BitstreamVeraSerif-Roman-44"/>
      <use x="80.17578125" xlink:href="#BitstreamVeraSerif-Roman-65"/>
      <use x="139.35546875" xlink:href="#BitstreamVeraSerif-Roman-70"/>
      <use x="203.369140625" xlink:href="#BitstreamVeraSerif-Roman-74"/>
      <use x="243.5546875" xlink:href="#BitstreamVeraSerif-Roman-68"/>
      <use x="307.958984375" xlink:href="#BitstreamVeraSerif-Roman-20"/>
      <use x="339.74609375" xlink:href="#BitstreamVeraSerif-Roman-6f"/>
      <use x="399.951171875" xlink:href="#BitstreamVeraSerif-Roman-66"/>
      <use x="436.962890625" xlink:href="#BitstreamVeraSerif-Roman-20"/>
      <use x="468.75" xlink:href="#BitstreamVeraSerif-Roman-49"/>
      <use x="508.251953125" xlink:href="#BitstreamVeraSerif-Roman-6e"/>
      <use x="572.65625" xlink:href="#BitstreamVeraSerif-Roman-74"/>
      <use x="612.841796875" xlink:href="#BitstreamVeraSerif-Roman-65"/>
      <use x="672.021484375" xlink:href="#BitstreamVeraSerif-Roman-72"/>
      <use x="719.82421875" xlink:href="#BitstreamVeraSerif-Roman-61"/>
      <use x="779.443359375" xlink:href="#BitstreamVeraSerif-Roman-63"/>
      <use x="835.44921875" xlink:href="#BitstreamVeraSerif-Roman-74"/>
      <use x="875.634765625" xlink:href="#BitstreamVeraSerif-Roman-69"/>
      <use x="907.6171875" xlink:href="#BitstreamVeraSerif-Roman-6f"/>
      <use x="967.822265625" xlink:href="#BitstreamVeraSerif-Roman-6e"/>
      <use x="1032.2265625" xlink:href="#BitstreamVeraSerif-Roman-20"/>
      <use x="1064.01367188" xlink:href="#BitstreamVeraSerif-Roman-28"/>
      <use x="1103.02734375" xlink:href="#BitstreamVeraSerif-Roman-6d"/>
      <use x="1197.8515625" xlink:href="#BitstreamVeraSerif-Roman-6d"/>
      <use x="1292.67578125" xlink:href="#BitstreamVeraSerif-Roman-29"/>
     </g>
    </g>
   </g>
   <g id="matplotlib.axis_2">
    <g id="ytick_1">
     <g id="line2d_34">
      <path clip-path="url(#pb63d0e8e96)" d="
M53.1591 238.314
L848.88 238.314" style="fill:none;stroke:#000000;stroke-dasharray:1.000000,3.000000;stroke-dashoffset:0.0;stroke-width:0.5;"/>
     </g>
     <g id="line2d_35">
      <defs>
       <path d="
M0 0
L4 0" id="m728421d6d4" style="stroke:#000000;stroke-width:0.5;"/>
      </defs>
      <g>
       <use style="stroke:#000000;stroke-width:0.5;" x="53.1590625" xlink:href="#m728421d6d4" y="238.314375"/>
      </g>
     </g>
     <g id="line2d_36">
      <defs>
       <path d="
M0 0
L-4 0" id="mcb0005524f" style="stroke:#000000;stroke-width:0.5;"/>
      </defs>
      <g>
       <use style="stroke:#000000;stroke-width:0.5;" x="848.88" xlink:href="#mcb0005524f" y="238.314375"/>
      </g>
     </g>
     <g id="text_9">
      <!-- 10 -->
      <g transform="translate(33.9821875 242.1775)scale(0.14 -0.14)">
       <use xlink:href="#BitstreamVeraSerif-Roman-31"/>
       <use x="63.623046875" xlink:href="#BitstreamVeraSerif-Roman-30"/>
      </g>
     </g>
    </g>
    <g id="ytick_2">
     <g id="line2d_37">
      <path clip-path="url(#pb63d0e8e96)" d="
M53.1591 211.203
L848.88 211.203" style="fill:none;stroke:#000000;stroke-dasharray:1.000000,3.000000;stroke-dashoffset:0.0;stroke-width:0.5;"/>
     </g>
     <g id="line2d_38">
      <g>
       <use style="stroke:#000000;stroke-width:0.5;" x="53.1590625" xlink:href="#m728421d6d4" y="211.202578125"/>
      </g>
     </g>
     <g id="line2d_39">
      <g>
       <use style="stroke:#000000;stroke-width:0.5;" x="848.88" xlink:href="#mcb0005524f" y="211.202578125"/>
      </g>
     </g>
     <g id="text_10">
      <!-- 12 -->
      <g transform="translate(34.42625 215.065703125)scale(0.14 -0.14)">
       <use xlink:href="#BitstreamVeraSerif-Roman-31"/>
       <use x="63.623046875" xlink:href="#BitstreamVeraSerif-Roman-32"/>
      </g>
     </g>
    </g>
    <g id="ytick_3">
     <g id="line2d_40">
      <path clip-path="url(#pb63d0e8e96)" d="
M53.1591 184.091
L848.88 184.091" style="fill:none;stroke:#000000;stroke-dasharray:1.000000,3.000000;stroke-dashoffset:0.0;stroke-width:0.5;"/>
     </g>
     <g id="line2d_41">
      <g>
       <use style="stroke:#000000;stroke-width:0.5;" x="53.1590625" xlink:href="#m728421d6d4" y="184.09078125"/>
      </g>
     </g>
     <g id="line2d_42">
      <g>
       <use style="stroke:#000000;stroke-width:0.5;" x="848.88" xlink:href="#mcb0005524f" y="184.09078125"/>
      </g>
     </g>
     <g id="text_11">
      <!-- 14 -->
      <defs>
       <path d="
M34.9062 24.7031
L34.9062 63.4844
L10.0156 24.7031
z

M56.3906 0
L23.1875 0
L23.1875 5.17188
L34.9062 5.17188
L34.9062 19.4844
L3.07812 19.4844
L3.07812 24.8125
L35.0156 74.2188
L44.6719 74.2188
L44.6719 24.7031
L58.5938 24.7031
L58.5938 19.4844
L44.6719 19.4844
L44.6719 5.17188
L56.3906 5.17188
z
" id="BitstreamVeraSerif-Roman-34"/>
      </defs>
      <g transform="translate(33.756875 187.95390625)scale(0.14 -0.14)">
       <use xlink:href="#BitstreamVeraSerif-Roman-31"/>
       <use x="63.623046875" xlink:href="#BitstreamVeraSerif-Roman-34"/>
      </g>
     </g>
    </g>
    <g id="ytick_4">
     <g id="line2d_43">
      <path clip-path="url(#pb63d0e8e96)" d="
M53.1591 156.979
L848.88 156.979" style="fill:none;stroke:#000000;stroke-dasharray:1.000000,3.000000;stroke-dashoffset:0.0;stroke-width:0.5;"/>
     </g>
     <g id="line2d_44">
      <g>
       <use style="stroke:#000000;stroke-width:0.5;" x="53.1590625" xlink:href="#m728421d6d4" y="156.978984375"/>
      </g>
     </g>
     <g id="line2d_45">
      <g>
       <use style="stroke:#000000;stroke-width:0.5;" x="848.88" xlink:href="#mcb0005524f" y="156.978984375"/>
      </g>
     </g>
     <g id="text_12">
      <!-- 16 -->
      <defs>
       <path d="
M32.7188 3.42188
Q39.5938 3.42188 43.2969 8.46875
Q47.0156 13.5312 47.0156 23
Q47.0156 32.4688 43.2969 37.5156
Q39.5938 42.5781 32.7188 42.5781
Q25.7344 42.5781 22.0625 37.6875
Q18.4062 32.8125 18.4062 23.5781
Q18.4062 13.875 22.1094 8.64062
Q25.8281 3.42188 32.7188 3.42188
M16.7969 40.1406
Q20.125 43.7969 24.3125 45.5938
Q28.5156 47.4062 33.7969 47.4062
Q44.6719 47.4062 51 40.8594
Q57.3281 34.3281 57.3281 23
Q57.3281 11.9219 50.5156 5.25
Q43.7031 -1.42188 32.3281 -1.42188
Q19.9688 -1.42188 13.3281 7.78125
Q6.6875 17 6.6875 34.0781
Q6.6875 53.2188 14.5469 63.7188
Q22.4062 74.2188 36.7188 74.2188
Q40.5781 74.2188 44.8281 73.4844
Q49.0781 72.75 53.5156 71.2969
L53.5156 59.2812
L48 59.2812
Q47.4062 64.2031 44.2344 66.7969
Q41.0625 69.3906 35.6875 69.3906
Q26.2188 69.3906 21.5781 62.2031
Q16.9375 55.0312 16.7969 40.1406" id="BitstreamVeraSerif-Roman-36"/>
      </defs>
      <g transform="translate(33.9340625 160.842109375)scale(0.14 -0.14)">
       <use xlink:href="#BitstreamVeraSerif-Roman-31"/>
       <use x="63.623046875" xlink:href="#BitstreamVeraSerif-Roman-36"/>
      </g>
     </g>
    </g>
    <g id="ytick_5">
     <g id="line2d_46">
      <path clip-path="url(#pb63d0e8e96)" d="
M53.1591 129.867
L848.88 129.867" style="fill:none;stroke:#000000;stroke-dasharray:1.000000,3.000000;stroke-dashoffset:0.0;stroke-width:0.5;"/>
     </g>
     <g id="line2d_47">
      <g>
       <use style="stroke:#000000;stroke-width:0.5;" x="53.1590625" xlink:href="#m728421d6d4" y="129.8671875"/>
      </g>
     </g>
     <g id="line2d_48">
      <g>
       <use style="stroke:#000000;stroke-width:0.5;" x="848.88" xlink:href="#mcb0005524f" y="129.8671875"/>
      </g>
     </g>
     <g id="text_13">
      <!-- 18 -->
      <defs>
       <path d="
M46.5781 19.9219
Q46.5781 27.7344 42.6875 32.0469
Q38.8125 36.375 31.7812 36.375
Q24.75 36.375 20.875 32.0469
Q17 27.7344 17 19.9219
Q17 12.0625 20.875 7.73438
Q24.75 3.42188 31.7812 3.42188
Q38.8125 3.42188 42.6875 7.73438
Q46.5781 12.0625 46.5781 19.9219
M44.5781 55.3281
Q44.5781 61.9688 41.2031 65.6719
Q37.8438 69.3906 31.7812 69.3906
Q25.7812 69.3906 22.3906 65.6719
Q19 61.9688 19 55.3281
Q19 48.6406 22.3906 44.9219
Q25.7812 41.2188 31.7812 41.2188
Q37.8438 41.2188 41.2031 44.9219
Q44.5781 48.6406 44.5781 55.3281
M39.3125 38.8125
Q47.6094 37.7031 52.25 32.6875
Q56.8906 27.6875 56.8906 19.9219
Q56.8906 9.67188 50.3906 4.125
Q43.8906 -1.42188 31.7812 -1.42188
Q19.7344 -1.42188 13.2031 4.125
Q6.6875 9.67188 6.6875 19.9219
Q6.6875 27.6875 11.3281 32.6875
Q15.9688 37.7031 24.3125 38.8125
Q16.9375 40.1406 13 44.4062
Q9.07812 48.6875 9.07812 55.3281
Q9.07812 64.1094 15.125 69.1562
Q21.1875 74.2188 31.7812 74.2188
Q42.3906 74.2188 48.4375 69.1562
Q54.5 64.1094 54.5 55.3281
Q54.5 48.6875 50.5625 44.4062
Q46.625 40.1406 39.3125 38.8125" id="BitstreamVeraSerif-Roman-38"/>
      </defs>
      <g transform="translate(33.9953125 133.7303125)scale(0.14 -0.14)">
       <use xlink:href="#BitstreamVeraSerif-Roman-31"/>
       <use x="63.623046875" xlink:href="#BitstreamVeraSerif-Roman-38"/>
      </g>
     </g>
    </g>
    <g id="ytick_6">
     <g id="line2d_49">
      <path clip-path="url(#pb63d0e8e96)" d="
M53.1591 102.755
L848.88 102.755" style="fill:none;stroke:#000000;stroke-dasharray:1.000000,3.000000;stroke-dashoffset:0.0;stroke-width:0.5;"/>
     </g>
     <g id="line2d_50">
      <g>
       <use style="stroke:#000000;stroke-width:0.5;" x="53.1590625" xlink:href="#m728421d6d4" y="102.755390625"/>
      </g>
     </g>
     <g id="line2d_51">
      <g>
       <use style="stroke:#000000;stroke-width:0.5;" x="848.88" xlink:href="#mcb0005524f" y="102.755390625"/>
      </g>
     </g>
     <g id="text_14">
      <!-- 20 -->
      <g transform="translate(33.223125 106.618515625)scale(0.14 -0.14)">
       <use xlink:href="#BitstreamVeraSerif-Roman-32"/>
       <use x="63.623046875" xlink:href="#BitstreamVeraSerif-Roman-30"/>
      </g>
     </g>
    </g>
    <g id="ytick_7">
     <g id="line2d_52">
      <path clip-path="url(#pb63d0e8e96)" d="
M53.1591 75.6436
L848.88 75.6436" style="fill:none;stroke:#000000;stroke-dasharray:1.000000,3.000000;stroke-dashoffset:0.0;stroke-width:0.5;"/>
     </g>
     <g id="line2d_53">
      <g>
       <use style="stroke:#000000;stroke-width:0.5;" x="53.1590625" xlink:href="#m728421d6d4" y="75.64359375"/>
      </g>
     </g>
     <g id="line2d_54">
      <g>
       <use style="stroke:#000000;stroke-width:0.5;" x="848.88" xlink:href="#mcb0005524f" y="75.64359375"/>
      </g>
     </g>
     <g id="text_15">
      <!-- 22 -->
      <g transform="translate(33.6671875 79.50671875)scale(0.14 -0.14)">
       <use xlink:href="#BitstreamVeraSerif-Roman-32"/>
       <use x="63.623046875" xlink:href="#BitstreamVeraSerif-Roman-32"/>
      </g>
     </g>
    </g>
    <g id="ytick_8">
     <g id="line2d_55">
      <path clip-path="url(#pb63d0e8e96)" d="
M53.1591 48.5318
L848.88 48.5318" style="fill:none;stroke:#000000;stroke-dasharray:1.000000,3.000000;stroke-dashoffset:0.0;stroke-width:0.5;"/>
     </g>
     <g id="line2d_56">
      <g>
       <use style="stroke:#000000;stroke-width:0.5;" x="53.1590625" xlink:href="#m728421d6d4" y="48.531796875"/>
      </g>
     </g>
     <g id="line2d_57">
      <g>
       <use style="stroke:#000000;stroke-width:0.5;" x="848.88" xlink:href="#mcb0005524f" y="48.531796875"/>
      </g>
     </g>
     <g id="text_16">
      <!-- 24 -->
      <g transform="translate(32.9978125 52.394921875)scale(0.14 -0.14)">
       <use xlink:href="#BitstreamVeraSerif-Roman-32"/>
       <use x="63.623046875" xlink:href="#BitstreamVeraSerif-Roman-34"/>
      </g>
     </g>
    </g>
    <g id="ytick_9">
     <g id="line2d_58">
      <path clip-path="url(#pb63d0e8e96)" d="
M53.1591 21.42
L848.88 21.42" style="fill:none;stroke:#000000;stroke-dasharray:1.000000,3.000000;stroke-dashoffset:0.0;stroke-width:0.5;"/>
     </g>
     <g id="line2d_59">
      <g>
       <use style="stroke:#000000;stroke-width:0.5;" x="53.1590625" xlink:href="#m728421d6d4" y="21.42"/>
      </g>
     </g>
     <g id="line2d_60">
      <g>
       <use style="stroke:#000000;stroke-width:0.5;" x="848.88" xlink:href="#mcb0005524f" y="21.42"/>
      </g>
     </g>
     <g id="text_17">
      <!-- 26 -->
      <g transform="translate(33.175 25.283125)scale(0.14 -0.14)">
       <use xlink:href="#BitstreamVeraSerif-Roman-32"/>
       <use x="63.623046875" xlink:href="#BitstreamVeraSerif-Roman-36"/>
      </g>
     </g>
    </g>
    <g id="text_18">
     <!-- Energy Resolution (%) -->
     <defs>
      <path d="
M35.4062 51.9062
L52.2031 51.9062
L52.2031 5.17188
L60.6875 5.17188
L60.6875 0
L43.2188 0
L43.2188 9.1875
Q40.7188 4 36.7656 1.28125
Q32.8125 -1.42188 27.5938 -1.42188
Q18.9531 -1.42188 14.875 3.48438
Q10.7969 8.40625 10.7969 18.8906
L10.7969 46.6875
L2.6875 46.6875
L2.6875 51.9062
L19.8281 51.9062
L19.8281 21.6875
Q19.8281 12.2031 22.1406 8.6875
Q24.4688 5.17188 30.4219 5.17188
Q36.6719 5.17188 39.9375 9.76562
Q43.2188 14.3594 43.2188 23.0938
L43.2188 46.6875
L35.4062 46.6875
z
" id="BitstreamVeraSerif-Roman-75"/>
      <path d="
M5.51562 0
L5.51562 5.17188
L14.7969 5.17188
L14.7969 67.6719
L5.51562 67.6719
L5.51562 72.9062
L64.2031 72.9062
L64.2031 56.6875
L58.2031 56.6875
L58.2031 66.8906
L24.7031 66.8906
L24.7031 42.4844
L48.5781 42.4844
L48.5781 51.6094
L54.5938 51.6094
L54.5938 27.3906
L48.5781 27.3906
L48.5781 36.5312
L24.7031 36.5312
L24.7031 6
L58.9844 6
L58.9844 16.2188
L64.9844 16.2188
L64.9844 0
z
" id="BitstreamVeraSerif-Roman-45"/>
      <path d="
M5.60938 2.875
L5.60938 14.9844
L10.7969 14.9844
Q10.9844 9.1875 14.4219 6.29688
Q17.875 3.42188 24.6094 3.42188
Q30.6719 3.42188 33.8438 5.6875
Q37.0156 7.95312 37.0156 12.3125
Q37.0156 15.7188 34.6875 17.8125
Q32.375 19.9219 24.9062 22.3125
L18.4062 24.5156
Q11.7188 26.6562 8.71875 29.875
Q5.71875 33.1094 5.71875 38.0938
Q5.71875 45.2188 10.9375 49.2656
Q16.1562 53.3281 25.3906 53.3281
Q29.5 53.3281 34.0312 52.25
Q38.5781 51.1719 43.4062 49.125
L43.4062 37.7969
L38.2344 37.7969
Q38.0312 42.8281 34.7031 45.6562
Q31.3906 48.4844 25.6875 48.4844
Q20.0156 48.4844 17.1094 46.4844
Q14.2031 44.4844 14.2031 40.4844
Q14.2031 37.2031 16.4062 35.2188
Q18.6094 33.25 25.2031 31.2031
L32.3281 29
Q39.7031 26.7031 42.9375 23.2656
Q46.1875 19.8281 46.1875 14.4062
Q46.1875 7.03125 40.5469 2.79688
Q34.9062 -1.42188 25 -1.42188
Q19.9688 -1.42188 15.1875 -0.34375
Q10.4062 0.734375 5.60938 2.875" id="BitstreamVeraSerif-Roman-73"/>
      <path d="
M22.4062 69.6719
Q18.1094 69.6719 15.6875 65.625
Q13.2812 61.5781 13.2812 54.2969
Q13.2812 47.125 15.75 43.0156
Q18.2188 38.9219 22.4062 38.9219
Q26.5625 38.9219 28.9688 43
Q31.3906 47.0781 31.3906 54.2969
Q31.3906 61.5312 28.9688 65.5938
Q26.5625 69.6719 22.4062 69.6719
M72.7031 33.8906
Q68.4531 33.8906 66.0312 29.7812
Q63.625 25.6875 63.625 18.4062
Q63.625 11.2344 66.0625 7.15625
Q68.5 3.07812 72.7031 3.07812
Q76.9062 3.07812 79.2969 7.15625
Q81.6875 11.2344 81.6875 18.4062
Q81.6875 25.6406 79.2656 29.7656
Q76.8594 33.8906 72.7031 33.8906
M72.7031 38.2812
Q80.4219 38.2812 84.9531 32.9062
Q89.5 27.5469 89.5 18.4062
Q89.5 9.28125 84.9375 3.92188
Q80.375 -1.42188 72.7031 -1.42188
Q64.8906 -1.42188 60.3438 3.92188
Q55.8125 9.28125 55.8125 18.4062
Q55.8125 27.5938 60.375 32.9375
Q64.9375 38.2812 72.7031 38.2812
M66.6094 74.2188
L74.0312 74.2188
L28.4219 -1.42188
L21 -1.42188
z

M22.3125 74.2188
Q30.0312 74.2188 34.6094 68.875
Q39.2031 63.5312 39.2031 54.3906
Q39.2031 45.1719 34.6406 39.8438
Q30.0781 34.5156 22.3125 34.5156
Q14.5469 34.5156 10.0312 39.8594
Q5.51562 45.2188 5.51562 54.3906
Q5.51562 63.4844 10.0469 68.8438
Q14.5938 74.2188 22.3125 74.2188" id="BitstreamVeraSerif-Roman-25"/>
      <path d="
M21.5781 -9.51562
L25 -0.875
L5.60938 46.6875
L-0.296875 46.6875
L-0.296875 51.9062
L23.5781 51.9062
L23.5781 46.6875
L15.2812 46.6875
L29.8906 10.9844
L44.4844 46.6875
L36.7188 46.6875
L36.7188 51.9062
L56.2031 51.9062
L56.2031 46.6875
L50.3906 46.6875
L26.6094 -11.7188
Q24.1719 -17.7812 21.1875 -20
Q18.2188 -22.2188 12.7969 -22.2188
Q10.5 -22.2188 8.07812 -21.8281
Q5.67188 -21.4375 3.21875 -20.7031
L3.21875 -10.7969
L7.8125 -10.7969
Q8.10938 -14.1094 9.5 -15.5469
Q10.8906 -17 13.8125 -17
Q16.5 -17 18.1406 -15.5
Q19.7812 -14.0156 21.5781 -9.51562" id="BitstreamVeraSerif-Roman-79"/>
      <path d="
M52.4844 46.6875
L52.4844 1.125
Q52.4844 -10.0625 46.3281 -16.1406
Q40.1875 -22.2188 28.8125 -22.2188
Q23.6875 -22.2188 19 -21.2812
Q14.3125 -20.3594 10.0156 -18.5
L10.0156 -7.625
L14.7031 -7.625
Q15.5781 -12.7031 18.8438 -15.0469
Q22.125 -17.3906 28.2188 -17.3906
Q36.1406 -17.3906 39.8125 -12.9219
Q43.5 -8.45312 43.5 1.125
L43.5 8.10938
Q40.875 3.21875 36.7969 0.890625
Q32.7188 -1.42188 26.7031 -1.42188
Q17.1406 -1.42188 11.0625 6.17188
Q4.98438 13.7656 4.98438 25.9844
Q4.98438 38.1875 11.0312 45.75
Q17.0938 53.3281 26.7031 53.3281
Q32.7188 53.3281 36.7969 51
Q40.875 48.6875 43.5 43.7969
L43.5 51.9062
L61.0781 51.9062
L61.0781 46.6875
z

M43.5 28.5156
Q43.5 37.8438 39.9062 42.7656
Q36.3281 47.7031 29.5 47.7031
Q22.5625 47.7031 19.0156 42.2344
Q15.4844 36.7656 15.4844 25.9844
Q15.4844 15.2344 19.0156 9.71875
Q22.5625 4.20312 29.5 4.20312
Q36.3281 4.20312 39.9062 9.10938
Q43.5 14.0156 43.5 23.3906
z
" id="BitstreamVeraSerif-Roman-67"/>
      <path d="
M20.5156 5.17188
L29 5.17188
L29 0
L2.875 0
L2.875 5.17188
L11.5312 5.17188
L11.5312 70.7969
L2.875 70.7969
L2.875 75.9844
L20.5156 75.9844
z
" id="BitstreamVeraSerif-Roman-6c"/>
      <path d="
M47.9062 36.1875
Q51.3125 35.25 53.7812 33.0312
Q56.25 30.8125 58.2031 26.8125
L68.7969 5.17188
L77.6875 5.17188
L77.6875 0
L60.5 0
L49.125 23.1875
Q45.8438 29.9375 43.1094 31.9062
Q40.375 33.8906 35.5938 33.8906
L24.7031 33.8906
L24.7031 5.17188
L35.0156 5.17188
L35.0156 0
L5.51562 0
L5.51562 5.17188
L14.7969 5.17188
L14.7969 67.6719
L5.51562 67.6719
L5.51562 72.9062
L42.4844 72.9062
Q53.125 72.9062 58.9062 67.8281
Q64.7031 62.75 64.7031 53.4219
Q64.7031 45.9062 60.4688 41.5781
Q56.25 37.25 47.9062 36.1875
M24.7031 39.1094
L39.1094 39.1094
Q46.4844 39.1094 50 42.5938
Q53.5156 46.0938 53.5156 53.4219
Q53.5156 60.75 50 64.2031
Q46.4844 67.6719 39.1094 67.6719
L24.7031 67.6719
z
" id="BitstreamVeraSerif-Roman-52"/>
     </defs>
     <g transform="translate(24.8871875 209.161875)rotate(-90.0)scale(0.14 -0.14)">
      <use xlink:href="#BitstreamVeraSerif-Roman-45"/>
      <use x="72.998046875" xlink:href="#BitstreamVeraSerif-Roman-6e"/>
      <use x="137.40234375" xlink:href="#BitstreamVeraSerif-Roman-65"/>
      <use x="196.58203125" xlink:href="#BitstreamVeraSerif-Roman-72"/>
      <use x="244.384765625" xlink:href="#BitstreamVeraSerif-Roman-67"/>
      <use x="308.3984375" xlink:href="#BitstreamVeraSerif-Roman-79"/>
      <use x="364.892578125" xlink:href="#BitstreamVeraSerif-Roman-20"/>
      <use x="396.6796875" xlink:href="#BitstreamVeraSerif-Roman-52"/>
      <use x="471.97265625" xlink:href="#BitstreamVeraSerif-Roman-65"/>
      <use x="531.15234375" xlink:href="#BitstreamVeraSerif-Roman-73"/>
      <use x="582.470703125" xlink:href="#BitstreamVeraSerif-Roman-6f"/>
      <use x="642.67578125" xlink:href="#BitstreamVeraSerif-Roman-6c"/>
      <use x="674.658203125" xlink:href="#BitstreamVeraSerif-Roman-75"/>
      <use x="739.0625" xlink:href="#BitstreamVeraSerif-Roman-74"/>
      <use x="779.248046875" xlink:href="#BitstreamVeraSerif-Roman-69"/>
      <use x="811.23046875" xlink:href="#BitstreamVeraSerif-Roman-6f"/>
      <use x="871.435546875" xlink:href="#BitstreamVeraSerif-Roman-6e"/>
      <use x="935.83984375" xlink:href="#BitstreamVeraSerif-Roman-20"/>
      <use x="967.626953125" xlink:href="#BitstreamVeraSerif-Roman-28"/>
      <use x="1006.640625" xlink:href="#BitstreamVeraSerif-Roman-25"/>
      <use x="1101.66015625" xlink:href="#BitstreamVeraSerif-Roman-29"/>
     </g>
    </g>
   </g>
   <g id="patch_3">
    <path d="
M53.1591 21.42
L848.88 21.42" style="fill:none;stroke:#000000;"/>
   </g>
   <g id="patch_4">
    <path d="
M848.88 238.314
L848.88 21.42" style="fill:none;stroke:#000000;"/>
   </g>
   <g id="patch_5">
    <path d="
M53.1591 238.314
L848.88 238.314" style="fill:none;stroke:#000000;"/>
   </g>
   <g id="patch_6">
    <path d="
M53.1591 238.314
L53.1591 21.42" style="fill:none;stroke:#000000;"/>
   </g>
   <g id="legend_1">
    <g id="patch_7">
     <path d="
M450.61 85.66
L840.48 85.66
L840.48 29.82
L450.61 29.82
L450.61 85.66
z
" style="fill:#ffffff;stroke:#000000;"/>
    </g>
    <g id="LineCollection_5">
     <defs>
      <path d="
M462.37 -235.94
L462.37 -252.74" id="C4_0_60cd028507"/>
      <path d="
M485.89 -235.94
L485.89 -252.74" id="C4_1_0e2877f6cd"/>
     </defs>
     <use style="fill:none;stroke:#ff0000;" x="0.0" xlink:href="#C4_0_60cd028507" y="288.0"/>
     <use style="fill:none;stroke:#ff0000;" x="0.0" xlink:href="#C4_1_0e2877f6cd" y="288.0"/>
    </g>
    <g id="line2d_61">
     <g>
      <use style="fill:#ff0000;stroke:#ff0000;stroke-width:0.5;" x="462.37" xlink:href="#m12d35e2592" y="52.06"/>
      <use style="fill:#ff0000;stroke:#ff0000;stroke-width:0.5;" x="485.89" xlink:href="#m12d35e2592" y="52.06"/>
     </g>
    </g>
    <g id="line2d_62">
     <g>
      <use style="fill:#ff0000;stroke:#ff0000;stroke-width:0.5;" x="462.37" xlink:href="#m12d35e2592" y="35.26"/>
      <use style="fill:#ff0000;stroke:#ff0000;stroke-width:0.5;" x="485.89" xlink:href="#m12d35e2592" y="35.26"/>
     </g>
    </g>
    <g id="line2d_63"/>
    <g id="line2d_64">
     <g>
      <use style="fill:#ff0000;stroke:#000000;stroke-linejoin:bevel;stroke-width:0.5;" x="462.37" xlink:href="#mffc86915ee" y="43.66"/>
      <use style="fill:#ff0000;stroke:#000000;stroke-linejoin:bevel;stroke-width:0.5;" x="485.89" xlink:href="#mffc86915ee" y="43.66"/>
     </g>
    </g>
    <g id="text_19">
     <!-- 30A unwrapped -->
     <defs>
      <path d="
M48 51.9062
L61.2812 11.375
L73 46.6875
L65.4844 46.6875
L65.4844 51.9062
L84.2812 51.9062
L84.2812 46.6875
L78.5156 46.6875
L63.0938 0
L55.6094 0
L42.8281 38.8125
L29.9844 0
L22.7969 0
L7.42188 46.6875
L1.60938 46.6875
L1.60938 51.9062
L25.0938 51.9062
L25.0938 46.6875
L16.7031 46.6875
L28.3281 11.375
L41.7031 51.9062
z
" id="BitstreamVeraSerif-Roman-77"/>
      <path d="
M52.4844 5.17188
L61.0781 5.17188
L61.0781 0
L43.5 0
L43.5 8.10938
Q40.875 3.21875 36.7969 0.890625
Q32.7188 -1.42188 26.7031 -1.42188
Q17.1406 -1.42188 11.0625 6.17188
Q4.98438 13.7656 4.98438 25.9844
Q4.98438 38.1875 11.0312 45.75
Q17.0938 53.3281 26.7031 53.3281
Q32.7188 53.3281 36.7969 51
Q40.875 48.6875 43.5 43.7969
L43.5 70.7969
L35.0156 70.7969
L35.0156 75.9844
L52.4844 75.9844
z

M43.5 23.3906
L43.5 28.5156
Q43.5 37.8438 39.9062 42.7656
Q36.3281 47.7031 29.5 47.7031
Q22.5625 47.7031 19.0156 42.2344
Q15.4844 36.7656 15.4844 25.9844
Q15.4844 15.2344 19.0156 9.71875
Q22.5625 4.20312 29.5 4.20312
Q36.3281 4.20312 39.9062 9.10938
Q43.5 14.0156 43.5 23.3906" id="BitstreamVeraSerif-Roman-64"/>
      <path d="
M20.0156 26.4219
L46.7812 26.4219
L33.4062 61.0781
z

M-0.59375 0
L-0.59375 5.17188
L5.8125 5.17188
L31.7812 72.9062
L39.9844 72.9062
L66.0156 5.17188
L73.1875 5.17188
L73.1875 0
L46.6875 0
L46.6875 5.17188
L54.7812 5.17188
L48.6875 21.1875
L18.0156 21.1875
L11.9219 5.17188
L19.9219 5.17188
L19.9219 0
z
" id="BitstreamVeraSerif-Roman-41"/>
     </defs>
     <g transform="translate(504.37 49.54)scale(0.168 -0.168)">
      <use xlink:href="#BitstreamVeraSerif-Roman-33"/>
      <use x="63.623046875" xlink:href="#BitstreamVeraSerif-Roman-30"/>
      <use x="127.24609375" xlink:href="#BitstreamVeraSerif-Roman-41"/>
      <use x="199.462890625" xlink:href="#BitstreamVeraSerif-Roman-20"/>
      <use x="231.25" xlink:href="#BitstreamVeraSerif-Roman-75"/>
      <use x="295.654296875" xlink:href="#BitstreamVeraSerif-Roman-6e"/>
      <use x="360.05859375" xlink:href="#BitstreamVeraSerif-Roman-77"/>
      <use x="445.654296875" xlink:href="#BitstreamVeraSerif-Roman-72"/>
      <use x="493.45703125" xlink:href="#BitstreamVeraSerif-Roman-61"/>
      <use x="553.076171875" xlink:href="#BitstreamVeraSerif-Roman-70"/>
      <use x="617.08984375" xlink:href="#BitstreamVeraSerif-Roman-70"/>
      <use x="681.103515625" xlink:href="#BitstreamVeraSerif-Roman-65"/>
      <use x="740.283203125" xlink:href="#BitstreamVeraSerif-Roman-64"/>
     </g>
    </g>
    <g id="LineCollection_6">
     <defs>
      <path d="
M462.37 -210.54
L462.37 -227.34" id="C5_0_896ab375c5"/>
      <path d="
M485.89 -210.54
L485.89 -227.34" id="C5_1_35d51c0659"/>
     </defs>
     <use style="fill:none;stroke:#ff0000;" x="0.0" xlink:href="#C5_0_896ab375c5" y="288.0"/>
     <use style="fill:none;stroke:#ff0000;" x="0.0" xlink:href="#C5_1_35d51c0659" y="288.0"/>
    </g>
    <g id="line2d_65">
     <g>
      <use style="fill:#ff0000;stroke:#ff0000;stroke-width:0.5;" x="462.37" xlink:href="#m12d35e2592" y="77.46"/>
      <use style="fill:#ff0000;stroke:#ff0000;stroke-width:0.5;" x="485.89" xlink:href="#m12d35e2592" y="77.46"/>
     </g>
    </g>
    <g id="line2d_66">
     <g>
      <use style="fill:#ff0000;stroke:#ff0000;stroke-width:0.5;" x="462.37" xlink:href="#m12d35e2592" y="60.66"/>
      <use style="fill:#ff0000;stroke:#ff0000;stroke-width:0.5;" x="485.89" xlink:href="#m12d35e2592" y="60.66"/>
     </g>
    </g>
    <g id="line2d_67"/>
    <g id="line2d_68">
     <g>
      <use style="fill:#ff0000;stroke:#000000;stroke-linejoin:miter;stroke-width:0.5;" x="462.37" xlink:href="#m22ca2eebfc" y="69.06"/>
      <use style="fill:#ff0000;stroke:#000000;stroke-linejoin:miter;stroke-width:0.5;" x="485.89" xlink:href="#m22ca2eebfc" y="69.06"/>
     </g>
    </g>
    <g id="text_20">
     <!-- 30B unwrapped -->
     <defs>
      <path d="
M24.7031 5.17188
L39.3125 5.17188
Q48.0938 5.17188 52.1406 8.98438
Q56.2031 12.7969 56.2031 21.0938
Q56.2031 29.3438 52.1719 33.125
Q48.1406 36.9219 39.3125 36.9219
L24.7031 36.9219
z

M24.7031 42.0938
L37.1094 42.0938
Q45.125 42.0938 48.7969 45.1719
Q52.4844 48.25 52.4844 54.8906
Q52.4844 61.5781 48.7969 64.625
Q45.125 67.6719 37.1094 67.6719
L24.7031 67.6719
z

M5.51562 0
L5.51562 5.17188
L14.7969 5.17188
L14.7969 67.6719
L5.51562 67.6719
L5.51562 72.9062
L41.5 72.9062
Q52.5469 72.9062 58.125 68.3906
Q63.7188 63.875 63.7188 54.8906
Q63.7188 48.3906 59.8281 44.5312
Q55.9531 40.6719 48.4844 39.7969
Q57.7656 38.625 62.5781 33.8594
Q67.3906 29.1094 67.3906 21.0938
Q67.3906 10.25 60.5469 5.125
Q53.7188 0 39.2031 0
z
" id="BitstreamVeraSerif-Roman-42"/>
     </defs>
     <g transform="translate(504.37 74.94)scale(0.168 -0.168)">
      <use xlink:href="#BitstreamVeraSerif-Roman-33"/>
      <use x="63.623046875" xlink:href="#BitstreamVeraSerif-Roman-30"/>
      <use x="127.24609375" xlink:href="#BitstreamVeraSerif-Roman-42"/>
      <use x="200.732421875" xlink:href="#BitstreamVeraSerif-Roman-20"/>
      <use x="232.51953125" xlink:href="#BitstreamVeraSerif-Roman-75"/>
      <use x="296.923828125" xlink:href="#BitstreamVeraSerif-Roman-6e"/>
      <use x="361.328125" xlink:href="#BitstreamVeraSerif-Roman-77"/>
      <use x="446.923828125" xlink:href="#BitstreamVeraSerif-Roman-72"/>
      <use x="494.7265625" xlink:href="#BitstreamVeraSerif-Roman-61"/>
      <use x="554.345703125" xlink:href="#BitstreamVeraSerif-Roman-70"/>
      <use x="618.359375" xlink:href="#BitstreamVeraSerif-Roman-70"/>
      <use x="682.373046875" xlink:href="#BitstreamVeraSerif-Roman-65"/>
      <use x="741.552734375" xlink:href="#BitstreamVeraSerif-Roman-64"/>
     </g>
    </g>
    <g id="LineCollection_7">
     <defs>
      <path d="
M678.197 -235.94
L678.197 -252.74" id="C6_0_bfd70a88a2"/>
      <path d="
M701.717 -235.94
L701.717 -252.74" id="C6_1_ed85557587"/>
     </defs>
     <use style="fill:none;stroke:#008000;" x="0.0" xlink:href="#C6_0_bfd70a88a2" y="288.0"/>
     <use style="fill:none;stroke:#008000;" x="0.0" xlink:href="#C6_1_ed85557587" y="288.0"/>
    </g>
    <g id="line2d_69">
     <g>
      <use style="fill:#008000;stroke:#008000;stroke-width:0.5;" x="678.1975" xlink:href="#m1ef3793437" y="52.06"/>
      <use style="fill:#008000;stroke:#008000;stroke-width:0.5;" x="701.7175" xlink:href="#m1ef3793437" y="52.06"/>
     </g>
    </g>
    <g id="line2d_70">
     <g>
      <use style="fill:#008000;stroke:#008000;stroke-width:0.5;" x="678.1975" xlink:href="#m1ef3793437" y="35.26"/>
      <use style="fill:#008000;stroke:#008000;stroke-width:0.5;" x="701.7175" xlink:href="#m1ef3793437" y="35.26"/>
     </g>
    </g>
    <g id="line2d_71"/>
    <g id="line2d_72">
     <g>
      <use style="fill:#008000;stroke:#000000;stroke-linejoin:bevel;stroke-width:0.5;" x="678.1975" xlink:href="#m78c097fb03" y="43.66"/>
      <use style="fill:#008000;stroke:#000000;stroke-linejoin:bevel;stroke-width:0.5;" x="701.7175" xlink:href="#m78c097fb03" y="43.66"/>
     </g>
    </g>
    <g id="text_21">
     <!-- 30A wrapped -->
     <g transform="translate(720.1975 49.54)scale(0.168 -0.168)">
      <use xlink:href="#BitstreamVeraSerif-Roman-33"/>
      <use x="63.623046875" xlink:href="#BitstreamVeraSerif-Roman-30"/>
      <use x="127.24609375" xlink:href="#BitstreamVeraSerif-Roman-41"/>
      <use x="199.462890625" xlink:href="#BitstreamVeraSerif-Roman-20"/>
      <use x="231.25" xlink:href="#BitstreamVeraSerif-Roman-77"/>
      <use x="316.845703125" xlink:href="#BitstreamVeraSerif-Roman-72"/>
      <use x="364.6484375" xlink:href="#BitstreamVeraSerif-Roman-61"/>
      <use x="424.267578125" xlink:href="#BitstreamVeraSerif-Roman-70"/>
      <use x="488.28125" xlink:href="#BitstreamVeraSerif-Roman-70"/>
      <use x="552.294921875" xlink:href="#BitstreamVeraSerif-Roman-65"/>
      <use x="611.474609375" xlink:href="#BitstreamVeraSerif-Roman-64"/>
     </g>
    </g>
    <g id="LineCollection_8">
     <defs>
      <path d="
M678.197 -210.54
L678.197 -227.34" id="C7_0_606309595c"/>
      <path d="
M701.717 -210.54
L701.717 -227.34" id="C7_1_1207b35b9b"/>
     </defs>
     <use style="fill:none;stroke:#008000;" x="0.0" xlink:href="#C7_0_606309595c" y="288.0"/>
     <use style="fill:none;stroke:#008000;" x="0.0" xlink:href="#C7_1_1207b35b9b" y="288.0"/>
    </g>
    <g id="line2d_73">
     <g>
      <use style="fill:#008000;stroke:#008000;stroke-width:0.5;" x="678.1975" xlink:href="#m1ef3793437" y="77.46"/>
      <use style="fill:#008000;stroke:#008000;stroke-width:0.5;" x="701.7175" xlink:href="#m1ef3793437" y="77.46"/>
     </g>
    </g>
    <g id="line2d_74">
     <g>
      <use style="fill:#008000;stroke:#008000;stroke-width:0.5;" x="678.1975" xlink:href="#m1ef3793437" y="60.66"/>
      <use style="fill:#008000;stroke:#008000;stroke-width:0.5;" x="701.7175" xlink:href="#m1ef3793437" y="60.66"/>
     </g>
    </g>
    <g id="line2d_75"/>
    <g id="line2d_76">
     <g>
      <use style="fill:#008000;stroke:#000000;stroke-linejoin:miter;stroke-width:0.5;" x="678.1975" xlink:href="#md7f788f78c" y="69.06"/>
      <use style="fill:#008000;stroke:#000000;stroke-linejoin:miter;stroke-width:0.5;" x="701.7175" xlink:href="#md7f788f78c" y="69.06"/>
     </g>
    </g>
    <g id="text_22">
     <!-- 30B wrapped -->
     <g transform="translate(720.1975 74.94)scale(0.168 -0.168)">
      <use xlink:href="#BitstreamVeraSerif-Roman-33"/>
      <use x="63.623046875" xlink:href="#BitstreamVeraSerif-Roman-30"/>
      <use x="127.24609375" xlink:href="#BitstreamVeraSerif-Roman-42"/>
      <use x="200.732421875" xlink:href="#BitstreamVeraSerif-Roman-20"/>
      <use x="232.51953125" xlink:href="#BitstreamVeraSerif-Roman-77"/>
      <use x="318.115234375" xlink:href="#BitstreamVeraSerif-Roman-72"/>
      <use x="365.91796875" xlink:href="#BitstreamVeraSerif-Roman-61"/>
      <use x="425.537109375" xlink:href="#BitstreamVeraSerif-Roman-70"/>
      <use x="489.55078125" xlink:href="#BitstreamVeraSerif-Roman-70"/>
      <use x="553.564453125" xlink:href="#BitstreamVeraSerif-Roman-65"/>
      <use x="612.744140625" xlink:href="#BitstreamVeraSerif-Roman-64"/>
     </g>
    </g>
   </g>
  </g>
 </g>
 <defs>
  <clipPath id="pb63d0e8e96">
   <rect height="216.894375" width="795.7209375" x="53.1590625" y="21.42"/>
  </clipPath>
 </defs>
</svg>
