<?xml version="1.0" encoding="utf-8" standalone="no"?>
<!DOCTYPE svg PUBLIC "-//W3C//DTD SVG 1.1//EN"
  "http://www.w3.org/Graphics/SVG/1.1/DTD/svg11.dtd">
<!-- Created with matplotlib (http://matplotlib.org/) -->
<svg height="288pt" version="1.1" viewBox="0 0 864 288" width="864pt" xmlns="http://www.w3.org/2000/svg" xmlns:xlink="http://www.w3.org/1999/xlink">
 <defs>
  <style type="text/css">
*{stroke-linecap:butt;stroke-linejoin:round;}
  </style>
 </defs>
 <g id="figure_1">
  <g id="patch_1">
   <path d="
M0 288
L864 288
L864 0
L0 0
z
" style="fill:#ffffff;"/>
  </g>
  <g id="axes_1">
   <g id="patch_2">
    <path d="
M63.8319 237.534
L848.88 237.534
L848.88 21.319
L63.8319 21.319
z
" style="fill:#ffffff;"/>
   </g>
   <g id="LineCollection_1">
    <defs>
     <path d="
M283.184 -235.974
L283.184 -242.361" id="C0_0_dd005ab86e"/>
     <path d="
M744.977 -238.225
L744.977 -244.651" id="C0_1_068e85c18d"/>
     <path d="
M514.08 -236.939
L514.08 -243.343" id="C0_2_9e0bfb5cb3"/>
     <path d="
M398.632 -235.009
L398.632 -241.38" id="C0_3_3a2f0aaa76"/>
     <path d="
M629.528 -235.063
L629.528 -241.435" id="C0_4_5a9cac3dca"/>
     <path d="
M167.735 -247.981
L167.735 -254.57" id="C0_5_34512f2966"/>
    </defs>
    <g clip-path="url(#pf228d49d95)">
     <use style="fill:none;stroke:#0000ff;" x="0.0" xlink:href="#C0_0_dd005ab86e" y="288.0"/>
    </g>
    <g clip-path="url(#pf228d49d95)">
     <use style="fill:none;stroke:#0000ff;" x="0.0" xlink:href="#C0_1_068e85c18d" y="288.0"/>
    </g>
    <g clip-path="url(#pf228d49d95)">
     <use style="fill:none;stroke:#0000ff;" x="0.0" xlink:href="#C0_2_9e0bfb5cb3" y="288.0"/>
    </g>
    <g clip-path="url(#pf228d49d95)">
     <use style="fill:none;stroke:#0000ff;" x="0.0" xlink:href="#C0_3_3a2f0aaa76" y="288.0"/>
    </g>
    <g clip-path="url(#pf228d49d95)">
     <use style="fill:none;stroke:#0000ff;" x="0.0" xlink:href="#C0_4_5a9cac3dca" y="288.0"/>
    </g>
    <g clip-path="url(#pf228d49d95)">
     <use style="fill:none;stroke:#0000ff;" x="0.0" xlink:href="#C0_5_34512f2966" y="288.0"/>
    </g>
   </g>
   <g id="LineCollection_2">
    <defs>
     <path d="
M802.701 -64.4865
L802.701 -66.2825" id="C1_0_1e16db4cd5"/>
     <path d="
M571.804 -210.738
L571.804 -216.679" id="C1_1_5142bb6d1f"/>
     <path d="
M687.252 -177.6
L687.252 -182.898" id="C1_2_e90e1378f1"/>
     <path d="
M456.356 -217.166
L456.356 -223.224" id="C1_3_a135f3eb82"/>
     <path d="
M340.908 -233.509
L340.908 -239.854" id="C1_4_4674675a55"/>
     <path d="
M225.459 -240.476
L225.459 -246.94" id="C1_5_c57f8a6227"/>
     <path d="
M110.011 -225.202
L110.011 -231.403" id="C1_6_d90efc4590"/>
    </defs>
    <g clip-path="url(#pf228d49d95)">
     <use style="fill:none;stroke:#0000ff;" x="0.0" xlink:href="#C1_0_1e16db4cd5" y="288.0"/>
    </g>
    <g clip-path="url(#pf228d49d95)">
     <use style="fill:none;stroke:#0000ff;" x="0.0" xlink:href="#C1_1_5142bb6d1f" y="288.0"/>
    </g>
    <g clip-path="url(#pf228d49d95)">
     <use style="fill:none;stroke:#0000ff;" x="0.0" xlink:href="#C1_2_e90e1378f1" y="288.0"/>
    </g>
    <g clip-path="url(#pf228d49d95)">
     <use style="fill:none;stroke:#0000ff;" x="0.0" xlink:href="#C1_3_a135f3eb82" y="288.0"/>
    </g>
    <g clip-path="url(#pf228d49d95)">
     <use style="fill:none;stroke:#0000ff;" x="0.0" xlink:href="#C1_4_4674675a55" y="288.0"/>
    </g>
    <g clip-path="url(#pf228d49d95)">
     <use style="fill:none;stroke:#0000ff;" x="0.0" xlink:href="#C1_5_c57f8a6227" y="288.0"/>
    </g>
    <g clip-path="url(#pf228d49d95)">
     <use style="fill:none;stroke:#0000ff;" x="0.0" xlink:href="#C1_6_d90efc4590" y="288.0"/>
    </g>
   </g>
   <g id="LineCollection_3">
    <defs>
     <path d="
M283.184 -242.888
L283.184 -249.393" id="C2_0_68d7a0f450"/>
     <path d="
M398.632 -229.168
L398.632 -235.438" id="C2_1_573d7e7adb"/>
     <path d="
M514.08 -223.113
L514.08 -229.277" id="C2_2_b6a5a98b2b"/>
     <path d="
M744.977 -218.505
L744.977 -224.587" id="C2_3_17c2dd6952"/>
     <path d="
M167.735 -246.587
L167.735 -253.153" id="C2_4_93d9c0162a"/>
     <path d="
M629.528 -213.47
L629.528 -219.46" id="C2_5_8fad44266c"/>
    </defs>
    <g clip-path="url(#pf228d49d95)">
     <use style="fill:none;stroke:#ff0000;" x="0.0" xlink:href="#C2_0_68d7a0f450" y="288.0"/>
    </g>
    <g clip-path="url(#pf228d49d95)">
     <use style="fill:none;stroke:#ff0000;" x="0.0" xlink:href="#C2_1_573d7e7adb" y="288.0"/>
    </g>
    <g clip-path="url(#pf228d49d95)">
     <use style="fill:none;stroke:#ff0000;" x="0.0" xlink:href="#C2_2_b6a5a98b2b" y="288.0"/>
    </g>
    <g clip-path="url(#pf228d49d95)">
     <use style="fill:none;stroke:#ff0000;" x="0.0" xlink:href="#C2_3_17c2dd6952" y="288.0"/>
    </g>
    <g clip-path="url(#pf228d49d95)">
     <use style="fill:none;stroke:#ff0000;" x="0.0" xlink:href="#C2_4_93d9c0162a" y="288.0"/>
    </g>
    <g clip-path="url(#pf228d49d95)">
     <use style="fill:none;stroke:#ff0000;" x="0.0" xlink:href="#C2_5_8fad44266c" y="288.0"/>
    </g>
   </g>
   <g id="LineCollection_4">
    <defs>
     <path d="
M456.356 -225.953
L456.356 -232.167" id="C3_0_a6279b67ff"/>
     <path d="
M225.459 -232.865
L225.459 -239.2" id="C3_1_48dc298cf6"/>
     <path d="
M802.701 -94.0386
L802.701 -97.1625" id="C3_2_6059cbd971"/>
     <path d="
M687.252 -231.258
L687.252 -237.564" id="C3_3_b8caad5b9a"/>
     <path d="
M571.804 -232.169
L571.804 -238.491" id="C3_4_1a43358975"/>
     <path d="
M110.011 -158.241
L110.011 -163.122" id="C3_5_792f2714ff"/>
     <path d="
M340.908 -224.72
L340.908 -230.913" id="C3_6_63094a6a36"/>
    </defs>
    <g clip-path="url(#pf228d49d95)">
     <use style="fill:none;stroke:#ff0000;" x="0.0" xlink:href="#C3_0_a6279b67ff" y="288.0"/>
    </g>
    <g clip-path="url(#pf228d49d95)">
     <use style="fill:none;stroke:#ff0000;" x="0.0" xlink:href="#C3_1_48dc298cf6" y="288.0"/>
    </g>
    <g clip-path="url(#pf228d49d95)">
     <use style="fill:none;stroke:#ff0000;" x="0.0" xlink:href="#C3_2_6059cbd971" y="288.0"/>
    </g>
    <g clip-path="url(#pf228d49d95)">
     <use style="fill:none;stroke:#ff0000;" x="0.0" xlink:href="#C3_3_b8caad5b9a" y="288.0"/>
    </g>
    <g clip-path="url(#pf228d49d95)">
     <use style="fill:none;stroke:#ff0000;" x="0.0" xlink:href="#C3_4_1a43358975" y="288.0"/>
    </g>
    <g clip-path="url(#pf228d49d95)">
     <use style="fill:none;stroke:#ff0000;" x="0.0" xlink:href="#C3_5_792f2714ff" y="288.0"/>
    </g>
    <g clip-path="url(#pf228d49d95)">
     <use style="fill:none;stroke:#ff0000;" x="0.0" xlink:href="#C3_6_63094a6a36" y="288.0"/>
    </g>
   </g>
   <g id="line2d_1">
    <defs>
     <path d="
M3 1.83697e-16
L-3 -1.83697e-16" id="mdde457ef1d" style="stroke:#0000ff;stroke-width:0.5;"/>
    </defs>
    <g clip-path="url(#pf228d49d95)">
     <use style="fill:#0000ff;stroke:#0000ff;stroke-width:0.5;" x="283.183545698" xlink:href="#mdde457ef1d" y="52.0261233848"/>
     <use style="fill:#0000ff;stroke:#0000ff;stroke-width:0.5;" x="744.976569618" xlink:href="#mdde457ef1d" y="49.7750156904"/>
     <use style="fill:#0000ff;stroke:#0000ff;stroke-width:0.5;" x="514.080057658" xlink:href="#mdde457ef1d" y="51.0613769751"/>
     <use style="fill:#0000ff;stroke:#0000ff;stroke-width:0.5;" x="398.631801678" xlink:href="#mdde457ef1d" y="52.9908485675"/>
     <use style="fill:#0000ff;stroke:#0000ff;stroke-width:0.5;" x="629.528313638" xlink:href="#mdde457ef1d" y="52.9372532837"/>
     <use style="fill:#0000ff;stroke:#0000ff;stroke-width:0.5;" x="167.735289718" xlink:href="#mdde457ef1d" y="40.0189290879"/>
    </g>
   </g>
   <g id="line2d_2">
    <g clip-path="url(#pf228d49d95)">
     <use style="fill:#0000ff;stroke:#0000ff;stroke-width:0.5;" x="283.183545698" xlink:href="#mdde457ef1d" y="45.6386126085"/>
     <use style="fill:#0000ff;stroke:#0000ff;stroke-width:0.5;" x="744.976569618" xlink:href="#mdde457ef1d" y="43.349195924"/>
     <use style="fill:#0000ff;stroke:#0000ff;stroke-width:0.5;" x="514.080057658" xlink:href="#mdde457ef1d" y="44.6574199988"/>
     <use style="fill:#0000ff;stroke:#0000ff;stroke-width:0.5;" x="398.631801678" xlink:href="#mdde457ef1d" y="46.6198264454"/>
     <use style="fill:#0000ff;stroke:#0000ff;stroke-width:0.5;" x="629.528313638" xlink:href="#mdde457ef1d" y="46.5653140059"/>
     <use style="fill:#0000ff;stroke:#0000ff;stroke-width:0.5;" x="167.735289718" xlink:href="#mdde457ef1d" y="33.4296768844"/>
    </g>
   </g>
   <g id="line2d_3">
    <defs>
     <path d="
M3.06162e-16 -5
L-1.12257 -1.54508
L-4.75528 -1.54508
L-1.81636 0.59017
L-2.93893 4.04508
L-3.5083e-16 1.90983
L2.93893 4.04508
L1.81636 0.59017
L4.75528 -1.54508
L1.12257 -1.54508
z
" id="m2000094e96" style="stroke:#000000;stroke-linejoin:bevel;stroke-width:0.5;"/>
    </defs>
    <g clip-path="url(#pf228d49d95)">
     <use style="fill:#0000ff;stroke:#000000;stroke-linejoin:bevel;stroke-width:0.5;" x="283.183545698" xlink:href="#m2000094e96" y="48.8323679967"/>
     <use style="fill:#0000ff;stroke:#000000;stroke-linejoin:bevel;stroke-width:0.5;" x="744.976569618" xlink:href="#m2000094e96" y="46.5621058072"/>
     <use style="fill:#0000ff;stroke:#000000;stroke-linejoin:bevel;stroke-width:0.5;" x="514.080057658" xlink:href="#m2000094e96" y="47.8593984869"/>
     <use style="fill:#0000ff;stroke:#000000;stroke-linejoin:bevel;stroke-width:0.5;" x="398.631801678" xlink:href="#m2000094e96" y="49.8053375065"/>
     <use style="fill:#0000ff;stroke:#000000;stroke-linejoin:bevel;stroke-width:0.5;" x="629.528313638" xlink:href="#m2000094e96" y="49.7512836448"/>
     <use style="fill:#0000ff;stroke:#000000;stroke-linejoin:bevel;stroke-width:0.5;" x="167.735289718" xlink:href="#m2000094e96" y="36.7243029862"/>
    </g>
   </g>
   <g id="line2d_4">
    <g clip-path="url(#pf228d49d95)">
     <use style="fill:#0000ff;stroke:#0000ff;stroke-width:0.5;" x="802.700697608" xlink:href="#mdde457ef1d" y="223.513543409"/>
     <use style="fill:#0000ff;stroke:#0000ff;stroke-width:0.5;" x="571.804185648" xlink:href="#mdde457ef1d" y="77.2622412169"/>
     <use style="fill:#0000ff;stroke:#0000ff;stroke-width:0.5;" x="687.252441628" xlink:href="#mdde457ef1d" y="110.399716421"/>
     <use style="fill:#0000ff;stroke:#0000ff;stroke-width:0.5;" x="456.355929668" xlink:href="#mdde457ef1d" y="70.8342195697"/>
     <use style="fill:#0000ff;stroke:#0000ff;stroke-width:0.5;" x="340.907673688" xlink:href="#mdde457ef1d" y="54.4914896029"/>
     <use style="fill:#0000ff;stroke:#0000ff;stroke-width:0.5;" x="225.459417708" xlink:href="#mdde457ef1d" y="47.5237944769"/>
     <use style="fill:#0000ff;stroke:#0000ff;stroke-width:0.5;" x="110.011161728" xlink:href="#mdde457ef1d" y="62.7976437803"/>
    </g>
   </g>
   <g id="line2d_5">
    <g clip-path="url(#pf228d49d95)">
     <use style="fill:#0000ff;stroke:#0000ff;stroke-width:0.5;" x="802.700697608" xlink:href="#mdde457ef1d" y="221.71752302"/>
     <use style="fill:#0000ff;stroke:#0000ff;stroke-width:0.5;" x="571.804185648" xlink:href="#mdde457ef1d" y="71.3212324546"/>
     <use style="fill:#0000ff;stroke:#0000ff;stroke-width:0.5;" x="687.252441628" xlink:href="#mdde457ef1d" y="105.102437979"/>
     <use style="fill:#0000ff;stroke:#0000ff;stroke-width:0.5;" x="456.355929668" xlink:href="#mdde457ef1d" y="64.7763273048"/>
     <use style="fill:#0000ff;stroke:#0000ff;stroke-width:0.5;" x="340.907673688" xlink:href="#mdde457ef1d" y="48.1462016626"/>
     <use style="fill:#0000ff;stroke:#0000ff;stroke-width:0.5;" x="225.459417708" xlink:href="#mdde457ef1d" y="41.0598927586"/>
     <use style="fill:#0000ff;stroke:#0000ff;stroke-width:0.5;" x="110.011161728" xlink:href="#mdde457ef1d" y="56.596744598"/>
    </g>
   </g>
   <g id="line2d_6">
    <defs>
     <path d="
M0 -5
L-5 5
L5 5
z
" id="m225e1ef6c6" style="stroke:#000000;stroke-linejoin:miter;stroke-width:0.5;"/>
    </defs>
    <g clip-path="url(#pf228d49d95)">
     <use style="fill:#0000ff;stroke:#000000;stroke-linejoin:miter;stroke-width:0.5;" x="802.700697608" xlink:href="#m225e1ef6c6" y="222.615533214"/>
     <use style="fill:#0000ff;stroke:#000000;stroke-linejoin:miter;stroke-width:0.5;" x="571.804185648" xlink:href="#m225e1ef6c6" y="74.2917368357"/>
     <use style="fill:#0000ff;stroke:#000000;stroke-linejoin:miter;stroke-width:0.5;" x="687.252441628" xlink:href="#m225e1ef6c6" y="107.7510772"/>
     <use style="fill:#0000ff;stroke:#000000;stroke-linejoin:miter;stroke-width:0.5;" x="456.355929668" xlink:href="#m225e1ef6c6" y="67.8052734373"/>
     <use style="fill:#0000ff;stroke:#000000;stroke-linejoin:miter;stroke-width:0.5;" x="340.907673688" xlink:href="#m225e1ef6c6" y="51.3188456328"/>
     <use style="fill:#0000ff;stroke:#000000;stroke-linejoin:miter;stroke-width:0.5;" x="225.459417708" xlink:href="#m225e1ef6c6" y="44.2918436177"/>
     <use style="fill:#0000ff;stroke:#000000;stroke-linejoin:miter;stroke-width:0.5;" x="110.011161728" xlink:href="#m225e1ef6c6" y="59.6971941891"/>
    </g>
   </g>
   <g id="line2d_7">
    <defs>
     <path d="
M3 1.83697e-16
L-3 -1.83697e-16" id="m12d35e2592" style="stroke:#ff0000;stroke-width:0.5;"/>
    </defs>
    <g clip-path="url(#pf228d49d95)">
     <use style="fill:#ff0000;stroke:#ff0000;stroke-width:0.5;" x="283.183545698" xlink:href="#m12d35e2592" y="45.1116480417"/>
     <use style="fill:#ff0000;stroke:#ff0000;stroke-width:0.5;" x="398.631801678" xlink:href="#m12d35e2592" y="58.8323324027"/>
     <use style="fill:#ff0000;stroke:#ff0000;stroke-width:0.5;" x="514.080057658" xlink:href="#m12d35e2592" y="64.8873130754"/>
     <use style="fill:#ff0000;stroke:#ff0000;stroke-width:0.5;" x="744.976569618" xlink:href="#m12d35e2592" y="69.4949070294"/>
     <use style="fill:#ff0000;stroke:#ff0000;stroke-width:0.5;" x="167.735289718" xlink:href="#m12d35e2592" y="41.412780274"/>
     <use style="fill:#ff0000;stroke:#ff0000;stroke-width:0.5;" x="629.528313638" xlink:href="#m12d35e2592" y="74.5304713379"/>
    </g>
   </g>
   <g id="line2d_8">
    <g clip-path="url(#pf228d49d95)">
     <use style="fill:#ff0000;stroke:#ff0000;stroke-width:0.5;" x="283.183545698" xlink:href="#m12d35e2592" y="38.607191645"/>
     <use style="fill:#ff0000;stroke:#ff0000;stroke-width:0.5;" x="398.631801678" xlink:href="#m12d35e2592" y="52.5620844508"/>
     <use style="fill:#ff0000;stroke:#ff0000;stroke-width:0.5;" x="514.080057658" xlink:href="#m12d35e2592" y="58.7232765119"/>
     <use style="fill:#ff0000;stroke:#ff0000;stroke-width:0.5;" x="744.976569618" xlink:href="#m12d35e2592" y="63.4129467624"/>
     <use style="fill:#ff0000;stroke:#ff0000;stroke-width:0.5;" x="167.735289718" xlink:href="#m12d35e2592" y="34.8466265044"/>
     <use style="fill:#ff0000;stroke:#ff0000;stroke-width:0.5;" x="629.528313638" xlink:href="#m12d35e2592" y="68.5395084449"/>
    </g>
   </g>
   <g id="line2d_9">
    <defs>
     <path d="
M3.06162e-16 -5
L-1.12257 -1.54508
L-4.75528 -1.54508
L-1.81636 0.59017
L-2.93893 4.04508
L-3.5083e-16 1.90983
L2.93893 4.04508
L1.81636 0.59017
L4.75528 -1.54508
L1.12257 -1.54508
z
" id="m46c0476064" style="stroke:#000000;stroke-linejoin:bevel;stroke-width:0.5;"/>
    </defs>
    <g clip-path="url(#pf228d49d95)">
     <use style="fill:#ff0000;stroke:#000000;stroke-linejoin:bevel;stroke-width:0.5;" x="283.183545698" xlink:href="#m46c0476064" y="41.8594198433"/>
     <use style="fill:#ff0000;stroke:#000000;stroke-linejoin:bevel;stroke-width:0.5;" x="398.631801678" xlink:href="#m46c0476064" y="55.6972084267"/>
     <use style="fill:#ff0000;stroke:#000000;stroke-linejoin:bevel;stroke-width:0.5;" x="514.080057658" xlink:href="#m46c0476064" y="61.8052947937"/>
     <use style="fill:#ff0000;stroke:#000000;stroke-linejoin:bevel;stroke-width:0.5;" x="744.976569618" xlink:href="#m46c0476064" y="66.4539268959"/>
     <use style="fill:#ff0000;stroke:#000000;stroke-linejoin:bevel;stroke-width:0.5;" x="167.735289718" xlink:href="#m46c0476064" y="38.1297033892"/>
     <use style="fill:#ff0000;stroke:#000000;stroke-linejoin:bevel;stroke-width:0.5;" x="629.528313638" xlink:href="#m46c0476064" y="71.5349898914"/>
    </g>
   </g>
   <g id="line2d_10">
    <g clip-path="url(#pf228d49d95)">
     <use style="fill:#ff0000;stroke:#ff0000;stroke-width:0.5;" x="456.355929668" xlink:href="#m12d35e2592" y="62.0474794156"/>
     <use style="fill:#ff0000;stroke:#ff0000;stroke-width:0.5;" x="225.459417708" xlink:href="#m12d35e2592" y="55.1346054726"/>
     <use style="fill:#ff0000;stroke:#ff0000;stroke-width:0.5;" x="802.700697608" xlink:href="#m12d35e2592" y="193.96138475"/>
     <use style="fill:#ff0000;stroke:#ff0000;stroke-width:0.5;" x="687.252441628" xlink:href="#m12d35e2592" y="56.7423527101"/>
     <use style="fill:#ff0000;stroke:#ff0000;stroke-width:0.5;" x="571.804185648" xlink:href="#m12d35e2592" y="55.8313034126"/>
     <use style="fill:#ff0000;stroke:#ff0000;stroke-width:0.5;" x="110.011161728" xlink:href="#m12d35e2592" y="129.759392788"/>
     <use style="fill:#ff0000;stroke:#ff0000;stroke-width:0.5;" x="340.907673688" xlink:href="#m12d35e2592" y="63.2798848945"/>
    </g>
   </g>
   <g id="line2d_11">
    <g clip-path="url(#pf228d49d95)">
     <use style="fill:#ff0000;stroke:#ff0000;stroke-width:0.5;" x="456.355929668" xlink:href="#m12d35e2592" y="55.8334008364"/>
     <use style="fill:#ff0000;stroke:#ff0000;stroke-width:0.5;" x="225.459417708" xlink:href="#m12d35e2592" y="48.8003784726"/>
     <use style="fill:#ff0000;stroke:#ff0000;stroke-width:0.5;" x="802.700697608" xlink:href="#m12d35e2592" y="190.83746435"/>
     <use style="fill:#ff0000;stroke:#ff0000;stroke-width:0.5;" x="687.252441628" xlink:href="#m12d35e2592" y="50.4358629344"/>
     <use style="fill:#ff0000;stroke:#ff0000;stroke-width:0.5;" x="571.804185648" xlink:href="#m12d35e2592" y="49.5090809356"/>
     <use style="fill:#ff0000;stroke:#ff0000;stroke-width:0.5;" x="110.011161728" xlink:href="#m12d35e2592" y="124.877757448"/>
     <use style="fill:#ff0000;stroke:#ff0000;stroke-width:0.5;" x="340.907673688" xlink:href="#m12d35e2592" y="57.0874729935"/>
    </g>
   </g>
   <g id="line2d_12">
    <defs>
     <path d="
M0 -5
L-5 5
L5 5
z
" id="m9dfe19d8d5" style="stroke:#000000;stroke-linejoin:miter;stroke-width:0.5;"/>
    </defs>
    <g clip-path="url(#pf228d49d95)">
     <use style="fill:#ff0000;stroke:#000000;stroke-linejoin:miter;stroke-width:0.5;" x="456.355929668" xlink:href="#m9dfe19d8d5" y="58.940440126"/>
     <use style="fill:#ff0000;stroke:#000000;stroke-linejoin:miter;stroke-width:0.5;" x="225.459417708" xlink:href="#m9dfe19d8d5" y="51.9674919726"/>
     <use style="fill:#ff0000;stroke:#000000;stroke-linejoin:miter;stroke-width:0.5;" x="802.700697608" xlink:href="#m9dfe19d8d5" y="192.39942455"/>
     <use style="fill:#ff0000;stroke:#000000;stroke-linejoin:miter;stroke-width:0.5;" x="687.252441628" xlink:href="#m9dfe19d8d5" y="53.5891078222"/>
     <use style="fill:#ff0000;stroke:#000000;stroke-linejoin:miter;stroke-width:0.5;" x="571.804185648" xlink:href="#m9dfe19d8d5" y="52.6701921741"/>
     <use style="fill:#ff0000;stroke:#000000;stroke-linejoin:miter;stroke-width:0.5;" x="110.011161728" xlink:href="#m9dfe19d8d5" y="127.318575118"/>
     <use style="fill:#ff0000;stroke:#000000;stroke-linejoin:miter;stroke-width:0.5;" x="340.907673688" xlink:href="#m9dfe19d8d5" y="60.183678944"/>
    </g>
   </g>
   <g id="line2d_13">
    <path clip-path="url(#pf228d49d95)" d="
M63.2766 237.534
L96.5923 237.472
L98.6746 237.208
L100.757 236.15
L102.839 232.791
L104.921 224.33
L107.003 207.411
L109.086 180.556
L113.25 112.892
L115.332 86.0373
L117.415 69.1181
L119.497 60.6569
L121.579 57.2983
L123.661 56.24
L125.744 55.9754
L131.99 55.9135
L789.976 55.9754
L792.058 56.24
L794.14 57.2983
L796.223 60.6569
L798.305 69.1181
L800.387 86.0373
L802.469 112.892
L806.634 180.556
L808.716 207.411
L810.798 224.33
L812.881 232.791
L814.963 236.15
L817.045 237.208
L819.127 237.472
L825.374 237.534
L850.361 237.534
L850.361 237.534" style="fill:none;stroke:#000000;stroke-dasharray:6.000000,6.000000;stroke-dashoffset:0.0;"/>
   </g>
   <g id="matplotlib.axis_1">
    <g id="xtick_1">
     <g id="line2d_14">
      <defs>
       <path d="
M0 0
L0 -4" id="m93b0483c22" style="stroke:#000000;stroke-width:0.5;"/>
      </defs>
      <g>
       <use style="stroke:#000000;stroke-width:0.5;" x="110.011161728" xlink:href="#m93b0483c22" y="237.534399031"/>
      </g>
     </g>
     <g id="line2d_15">
      <defs>
       <path d="
M0 0
L0 4" id="m741efc42ff" style="stroke:#000000;stroke-width:0.5;"/>
      </defs>
      <g>
       <use style="stroke:#000000;stroke-width:0.5;" x="110.011161728" xlink:href="#m741efc42ff" y="21.3189524148"/>
      </g>
     </g>
     <g id="text_1">
      <!-- $0$ -->
      <defs>
       <path d="
M42 31.6406
C42 37.75 41.9062 48.125 37.7031 56.1094
C34 63.1094 28.0938 65.5938 22.9062 65.5938
C18.0938 65.5938 12 63.4062 8.20312 56.2031
C4.20312 48.7188 3.79688 39.4375 3.79688 31.6406
C3.79688 25.9531 3.90625 17.2812 7 9.67188
C11.2969 -0.609375 19 -2 22.9062 -2
C27.5 -2 34.5 -0.109375 38.5938 9.375
C41.5938 16.2812 42 24.3594 42 31.6406
M22.9062 -0.40625
C16.5 -0.40625 12.7031 5.07812 11.2969 12.6875
C10.2031 18.5625 10.2031 27.1562 10.2031 32.75
C10.2031 40.4375 10.2031 46.8281 11.5 52.9219
C13.4062 61.3906 19 64 22.9062 64
C27 64 32.2969 61.2969 34.2031 53.125
C35.5 47.4375 35.5938 40.7344 35.5938 32.75
C35.5938 26.25 35.5938 18.2656 34.4062 12.375
C32.2969 1.48438 26.4062 -0.40625 22.9062 -0.40625" id="CMR17-48"/>
      </defs>
      <g transform="translate(106.596917415 251.220275481)scale(0.14 -0.14)">
       <use transform="scale(0.996264009963)" xlink:href="#CMR17-48"/>
      </g>
     </g>
    </g>
    <g id="xtick_2">
     <g id="line2d_16">
      <g>
       <use style="stroke:#000000;stroke-width:0.5;" x="225.459417708" xlink:href="#m93b0483c22" y="237.534399031"/>
      </g>
     </g>
     <g id="line2d_17">
      <g>
       <use style="stroke:#000000;stroke-width:0.5;" x="225.459417708" xlink:href="#m741efc42ff" y="21.3189524148"/>
      </g>
     </g>
     <g id="text_2">
      <!-- $5$ -->
      <defs>
       <path d="
M11.4062 57.6875
C12.4062 57.2812 16.5 56 20.7031 56
C30 56 35.0938 61.0156 38 63.9219
C38 64.7344 38 65.25 37.4062 65.25
C37.2969 65.25 37.0938 65.25 36.2969 64.8281
C32.7969 63.3125 28.7031 62.0781 23.7031 62.0781
C20.7031 62.0781 16.2031 62.5 11.2969 64.7344
C10.2031 65.25 10 65.25 9.90625 65.25
C9.40625 65.25 9.29688 65.1406 9.29688 63.1562
L9.29688 34.2812
C9.29688 32.5 9.29688 32 10.2969 32
C10.7969 32 11 32.2031 11.5 32.9062
C14.7031 37.4844 19.0938 39.4062 24.0938 39.4062
C27.5938 39.4062 35.0938 37.2188 35.0938 20.1406
C35.0938 16.9531 35.0938 11.1719 32.0938 6.57812
C29.5938 2.48438 25.7031 0.390625 21.4062 0.390625
C14.7969 0.390625 8.09375 5 6.29688 12.7188
C6.70312 12.6094 7.5 12.4219 7.90625 12.4219
C9.20312 12.4219 11.7031 13.125 11.7031 16.2188
C11.7031 18.9062 9.79688 20 7.90625 20
C5.59375 20 4.09375 18.5938 4.09375 15.7969
C4.09375 7.09375 11 -2 21.5938 -2
C31.9062 -2 41.7031 6.875 41.7031 19.75
C41.7031 31.7188 33.9062 41 24.2031 41
C19.0938 41 14.7969 39.0938 11.4062 35.4531
z
" id="CMR17-53"/>
      </defs>
      <g transform="translate(222.045173395 251.220275481)scale(0.14 -0.14)">
       <use transform="scale(0.996264009963)" xlink:href="#CMR17-53"/>
      </g>
     </g>
    </g>
    <g id="xtick_3">
     <g id="line2d_18">
      <g>
       <use style="stroke:#000000;stroke-width:0.5;" x="340.907673688" xlink:href="#m93b0483c22" y="237.534399031"/>
      </g>
     </g>
     <g id="line2d_19">
      <g>
       <use style="stroke:#000000;stroke-width:0.5;" x="340.907673688" xlink:href="#m741efc42ff" y="21.3189524148"/>
      </g>
     </g>
     <g id="text_3">
      <!-- $10$ -->
      <defs>
       <path d="
M26.5938 63.3125
C26.5938 65.4062 26.5 65.5 25.0938 65.5
C21.2031 61.1875 15.2969 59.7969 9.70312 59.7969
C9.40625 59.7969 8.90625 59.7969 8.79688 59.5
C8.70312 59.2969 8.70312 59.0938 8.70312 57
C11.7969 57 17 57.5938 21 59.9844
L21 7.20312
C21 3.6875 20.7969 2.5 12.2031 2.5
L9.20312 2.5
L9.20312 0
C14 0 19 0 23.7969 0
C28.5938 0 33.5938 0 38.4062 0
L38.4062 2.5
L35.4062 2.5
C26.7969 2.5 26.5938 3.59375 26.5938 7.15625
z
" id="CMR17-49"/>
      </defs>
      <g transform="translate(334.079185061 251.220275481)scale(0.14 -0.14)">
       <use transform="scale(0.996264009963)" xlink:href="#CMR17-49"/>
       <use transform="translate(45.6904771171 0.0)scale(0.996264009963)" xlink:href="#CMR17-48"/>
      </g>
     </g>
    </g>
    <g id="xtick_4">
     <g id="line2d_20">
      <g>
       <use style="stroke:#000000;stroke-width:0.5;" x="456.355929668" xlink:href="#m93b0483c22" y="237.534399031"/>
      </g>
     </g>
     <g id="line2d_21">
      <g>
       <use style="stroke:#000000;stroke-width:0.5;" x="456.355929668" xlink:href="#m741efc42ff" y="21.3189524148"/>
      </g>
     </g>
     <g id="text_4">
      <!-- $15$ -->
      <g transform="translate(449.527441041 251.220275481)scale(0.14 -0.14)">
       <use transform="scale(0.996264009963)" xlink:href="#CMR17-49"/>
       <use transform="translate(45.6904771171 0.0)scale(0.996264009963)" xlink:href="#CMR17-53"/>
      </g>
     </g>
    </g>
    <g id="xtick_5">
     <g id="line2d_22">
      <g>
       <use style="stroke:#000000;stroke-width:0.5;" x="571.804185648" xlink:href="#m93b0483c22" y="237.534399031"/>
      </g>
     </g>
     <g id="line2d_23">
      <g>
       <use style="stroke:#000000;stroke-width:0.5;" x="571.804185648" xlink:href="#m741efc42ff" y="21.3189524148"/>
      </g>
     </g>
     <g id="text_5">
      <!-- $20$ -->
      <defs>
       <path d="
M41.7031 15.4531
L39.9062 15.4531
C38.9062 8.375 38.0938 7.17188 37.7031 6.5625
C37.2031 5.76562 30 5.76562 28.5938 5.76562
L9.40625 5.76562
C13 9.67188 20 16.75 28.5 24.9531
C34.5938 30.7344 41.7031 37.5312 41.7031 47.4219
C41.7031 59.2188 32.2969 66 21.7969 66
C10.7969 66 4.09375 56.3125 4.09375 47.3438
C4.09375 43.4375 7 42.9375 8.20312 42.9375
C9.20312 42.9375 12.2031 43.5469 12.2031 47.0312
C12.2031 50.1094 9.59375 51 8.20312 51
C7.59375 51 7 50.9062 6.59375 50.7031
C8.5 59.2188 14.2969 63.4062 20.4062 63.4062
C29.0938 63.4062 34.7969 56.5156 34.7969 47.4219
C34.7969 38.7344 29.7031 31.25 24 24.75
L4.09375 2.28125
L4.09375 0
L39.2969 0
z
" id="CMR17-50"/>
      </defs>
      <g transform="translate(564.975697021 251.220275481)scale(0.14 -0.14)">
       <use transform="scale(0.996264009963)" xlink:href="#CMR17-50"/>
       <use transform="translate(45.6904771171 0.0)scale(0.996264009963)" xlink:href="#CMR17-48"/>
      </g>
     </g>
    </g>
    <g id="xtick_6">
     <g id="line2d_24">
      <g>
       <use style="stroke:#000000;stroke-width:0.5;" x="687.252441628" xlink:href="#m93b0483c22" y="237.534399031"/>
      </g>
     </g>
     <g id="line2d_25">
      <g>
       <use style="stroke:#000000;stroke-width:0.5;" x="687.252441628" xlink:href="#m741efc42ff" y="21.3189524148"/>
      </g>
     </g>
     <g id="text_6">
      <!-- $25$ -->
      <g transform="translate(680.423953001 251.220275481)scale(0.14 -0.14)">
       <use transform="scale(0.996264009963)" xlink:href="#CMR17-50"/>
       <use transform="translate(45.6904771171 0.0)scale(0.996264009963)" xlink:href="#CMR17-53"/>
      </g>
     </g>
    </g>
    <g id="xtick_7">
     <g id="line2d_26">
      <g>
       <use style="stroke:#000000;stroke-width:0.5;" x="802.700697608" xlink:href="#m93b0483c22" y="237.534399031"/>
      </g>
     </g>
     <g id="line2d_27">
      <g>
       <use style="stroke:#000000;stroke-width:0.5;" x="802.700697608" xlink:href="#m741efc42ff" y="21.3189524148"/>
      </g>
     </g>
     <g id="text_7">
      <!-- $30$ -->
      <defs>
       <path d="
M22.0938 33.7031
C31 33.7031 34.9062 25.9688 34.9062 17.0312
C34.9062 5 28.5 0.390625 22.7031 0.390625
C17.4062 0.390625 8.79688 3.03125 6.09375 10.8281
C6.59375 10.625 7.09375 10.625 7.59375 10.625
C10 10.625 11.7969 12.2188 11.7969 14.8125
C11.7969 17.7031 9.59375 19 7.59375 19
C5.90625 19 3.29688 18.2031 3.29688 14.4688
C3.29688 5.23438 12.2969 -2 22.9062 -2
C34 -2 42.5 6.71875 42.5 16.9531
C42.5 26.6719 34.5 33.6875 25 34.7969
C32.5938 36.375 39.9062 43.0625 39.9062 52.0156
C39.9062 59.6875 32 65.2969 23 65.2969
C13.9062 65.2969 5.90625 59.8281 5.90625 52.0156
C5.90625 48.5938 8.5 48 9.79688 48
C11.9062 48 13.7031 49.2969 13.7031 51.8906
C13.7031 54.4688 11.9062 55.7656 9.79688 55.7656
C9.40625 55.7656 8.90625 55.7656 8.5 55.5625
C11.4062 61.8594 19.2969 63 22.7969 63
C26.2969 63 32.9062 61.3281 32.9062 51.875
C32.9062 49.1094 32.5 44.1875 29.0938 39.8438
C26.0938 36 22.7031 36 19.4062 35.5938
C18.9062 35.5938 16.5938 35.5938 16.2031 35.5938
C15.5 35.4844 15.0938 35.3906 15.0938 34.5938
C15.0938 33.8125 15.2031 33.7031 17.2031 33.7031
z
" id="CMR17-51"/>
      </defs>
      <g transform="translate(795.872208981 251.220275481)scale(0.14 -0.14)">
       <use transform="scale(0.996264009963)" xlink:href="#CMR17-51"/>
       <use transform="translate(45.6904771171 0.0)scale(0.996264009963)" xlink:href="#CMR17-48"/>
      </g>
     </g>
    </g>
    <g id="text_8">
     <!-- Depth of Interaction (mm) -->
     <defs>
      <path d="
M11.2969 -25
C16.7031 -19.5156 29.0938 -6.78125 29.0938 24.6719
C29.0938 56.2344 16.7031 68.875 11.2969 74.4531
L5.20312 74.4531
C17.5 61.7031 21.5 43.8906 21.5 24.7812
C21.5 5.76562 17.7031 -12.1562 5.20312 -25
z
" id="CMSS17-41"/>
      <path d="
M14.9062 21.2969
C14.9062 30.7031 21.7969 37 30.5938 37
L30.5938 43.5781
C24.2031 43.5781 18.2031 40.3906 14.5938 35.2031
L14.5938 43.0938
L7.5 43.0938
L7.5 0
L14.9062 0
z
" id="CMSS17-114"/>
      <path d="
M40.9062 29.3281
C40.9062 35.6719 39.4062 44 28.0938 44
C21.7969 44 17.7031 40.9219 14.7969 37.5312
L14.7969 69.0781
L7.40625 69.0781
L7.40625 0
L15 0
L15 24.3594
C15 30.6875 17.4062 37.9375 24.2031 37.9375
C33 37.9375 33.2969 32 33.2969 28.5781
L33.2969 0
L40.9062 0
z
" id="CMSS17-104"/>
      <path d="
M16.7031 37
L29.7031 37
L29.7031 42.7656
L16.7031 42.7656
L16.7031 55
L9.59375 55
L9.59375 42.7656
L1.70312 42.7656
L1.70312 37
L9.40625 37
L9.40625 11.7031
C9.40625 6 10.7031 -1 17.2969 -1
C22.2969 -1 26.9062 0.390625 31.2969 2.6875
L29.7031 8.5625
C27.2969 6.46875 24.4062 5.26562 21.2969 5.26562
C16.9062 5.26562 16.7031 10.875 16.7031 13.375
z
" id="CMSS17-116"/>
      <path d="
M44.2031 21.1875
C44.2031 34 34.7031 44 23.5 44
C12 44 2.70312 33.7031 2.70312 21.1875
C2.70312 8.5 12.2969 -1 23.4062 -1
C34.7969 -1 44.2031 8.79688 44.2031 21.1875
M23.5 5.26562
C16.4062 5.26562 10.2969 11.0781 10.2969 22
C10.2969 33.6094 17.4062 37.9219 23.4062 37.9219
C29.9062 37.9219 36.5938 33.2188 36.5938 22
C36.5938 10.6719 30.0938 5.26562 23.5 5.26562" id="CMSS17-111"/>
      <path d="
M40.9062 29.3281
C40.9062 35.6719 39.4062 44 28.0938 44
C21.7031 44 17.5 40.7188 14.7031 37.3281
L14.7031 43.0938
L7.40625 43.0938
L7.40625 0
L15 0
L15 24.3594
C15 30.6875 17.4062 37.9375 24.2031 37.9375
C33 37.9375 33.2969 32 33.2969 28.5781
L33.2969 0
L40.9062 0
z
" id="CMSS17-110"/>
      <path d="
M15.0938 5.20312
C18.4062 2.01562 22.9062 -0.078125 27.7031 -0.078125
C37 -0.078125 45 9.42188 45 22.0625
C45 33.7344 39 44 30.4062 44
C25.4062 44 19.4062 42.2188 14.9062 38.625
L14.9062 43.2031
L7.5 43.2031
L7.5 -19
L15.0938 -19
z

M15.0938 32.8125
C15.9062 34 19.2969 37.7344 24.7969 37.7344
C31.7969 37.7344 37.4062 30.625 37.4062 22.0625
C37.4062 12.2969 30.5938 6 23.9062 6
C21.9062 6 19.7969 6.48438 17.7969 8.17188
C15.0938 10.5312 15.0938 12 15.0938 13.3906
z
" id="CMSS17-112"/>
      <path d="
M39.0938 21.5156
C39.0938 24.8438 38.9062 31.2969 35.7031 36.6406
C32.2031 42.3906 26.5 44 22.2031 44
C11.7969 44 3 34.1875 3 21.4844
C3 9.09375 12.0938 -1 23.5938 -1
C28.0938 -1 33.5938 0.296875 38.5938 3.875
C38.5938 4.28125 38.4062 6.46875 38.2969 6.5625
C38.2969 6.76562 38 9.82812 38 10.2344
C33.2031 6.35938 27.7031 5.07812 23.7031 5.07812
C17.2969 5.07812 10.4062 10.4219 10.0938 21.5156
z

M10.9062 27
C12.2031 32.5625 16.5938 37.8281 22.2031 37.8281
C23.7031 37.8281 30.7031 37.8281 32.5 27
z
" id="CMSS17-101"/>
      <path d="
M25.2031 74.4531
C19.7969 68.9688 7.40625 56.2344 7.40625 24.7812
C7.40625 -6.78125 19.7969 -19.4219 25.2031 -25
L31.2969 -25
C19 -12.25 15 5.5625 15 24.6719
C15 43.6875 18.7969 61.6094 31.2969 74.4531
z
" id="CMSS17-40"/>
      <path d="
M67 29.3281
C67 36.0625 65.2969 44 54.0938 44
C46.5938 44 42.0938 39.3125 40.0938 36.4219
C38.2969 41.7188 34.0938 44 28.0938 44
C21.2969 44 17 40.125 14.7031 37.3281
L14.7031 43.0938
L7.40625 43.0938
L7.40625 0
L15 0
L15 24.3594
C15 30.2969 17.2031 37.9375 24.2969 37.9375
C33.4062 37.9375 33.4062 31.5 33.4062 28.5781
L33.4062 0
L41 0
L41 24.3594
C41 30.2969 43.2031 37.9375 50.2969 37.9375
C59.4062 37.9375 59.4062 31.5 59.4062 28.5781
L59.4062 0
L67 0
z
" id="CMSS17-109"/>
      <path d="
M8.90625 69
L8.90625 0
L33.5 0
C49.9062 0 62.5 15.3125 62.5 33.9062
C62.5 53.0938 49.9062 69 33.5 69
z

M17.0938 5.57812
L17.0938 63.4219
L31.2969 63.4219
C44.7031 63.4219 54.2969 51.2031 54.2969 33.9062
C54.2969 17.2969 44.7969 5.57812 31.2969 5.57812
z
" id="CMSS17-68"/>
      <path d="
M37.5938 27.9844
C37.5938 37.375 30.9062 43.875 21.9062 43.875
C17.5 43.875 12.7031 43.0781 7.20312 39.8906
L7.79688 33.3594
C10.2969 35.125 14.5938 38 21.7969 38
C26.9062 38 30 34.0625 30 27.8438
L30 24
C14 24 4 19.3438 4 11.3438
C4 7.20312 6.5 -1 14.7969 -1
C16.2969 -1 24.4062 -1 30.2031 3.39062
L30.2031 -0.296875
L37.5938 -0.296875
z

M30 12.75
C30 10.9531 30 8.5625 27 6.78125
C24.4062 5.07812 21.0938 5.07812 19.7031 5.07812
C14.7031 5.07812 11.2969 7.98438 11.2969 11.625
C11.2969 18.9219 26.9062 18.9219 30 18.9219
z
" id="CMSS17-97"/>
      <path d="
M15.2969 65.3594
L6.90625 65.3594
L6.90625 57
L15.2969 57
z

M14.7969 42.7969
L7.40625 42.7969
L7.40625 0
L14.7969 0
z
" id="CMSS17-105"/>
      <path d="
M16.7969 37
L26.9062 37
L26.9062 42.7656
L16.5938 42.7656
L16.5938 55.6094
C16.5938 62.7188 22 63.9375 25.0938 63.9375
C26.0938 63.9375 28.9062 63.9375 32.5 62.6406
L32.5 69.2031
C30.2031 69.7031 27.4062 70 25.2031 70
C15.9062 70 9.40625 62.3906 9.40625 52.4844
L9.40625 42.7656
L2.5 42.7656
L2.5 37
L9.40625 37
L9.40625 0
L16.7969 0
z
" id="CMSS17-102"/>
      <path d="
M38.5 39.7188
C38.5 40.4062 33.9062 42.4062 32.7031 42.7969
C29.4062 44 25.2031 44 24.0938 44
C11.0938 44 3.29688 32.7031 3.29688 21.2969
C3.29688 9.29688 12 -1 23.7031 -1
C30.4062 -1 35.2031 1.1875 39.0938 3.78125
L38.5 10.375
C34.2031 7.07812 29.2031 5.26562 23.7969 5.26562
C16 5.26562 10.9062 12.0938 10.9062 21.3906
C10.9062 28.6094 14.2031 37.7188 24.2031 37.7188
C29.7031 37.7188 32.7969 36.6094 37.4062 33.5156
z
" id="CMSS17-99"/>
      <path d="
M17.0938 69.0781
L8.70312 69.0781
L8.70312 0
L17.0938 0
z
" id="CMSS17-73"/>
     </defs>
     <g transform="translate(380.023843084 269.393075965)scale(0.14 -0.14)">
      <use transform="scale(0.996264009963)" xlink:href="#CMSS17-68"/>
      <use transform="translate(67.5428416631 0.0)scale(0.996264009963)" xlink:href="#CMSS17-101"/>
      <use transform="translate(109.181663732 0.0)scale(0.996264009963)" xlink:href="#CMSS17-112"/>
      <use transform="translate(157.386606865 0.0)scale(0.996264009963)" xlink:href="#CMSS17-116"/>
      <use transform="translate(191.218173548 0.0)scale(0.996264009963)" xlink:href="#CMSS17-104"/>
      <use transform="translate(270.652229433 0.0)scale(0.996264009963)" xlink:href="#CMSS17-111"/>
      <use transform="translate(317.495852954 0.0)scale(0.996264009963)" xlink:href="#CMSS17-102"/>
      <use transform="translate(377.351624523 0.0)scale(0.996264009963)" xlink:href="#CMSS17-73"/>
      <use transform="translate(403.135550037 0.0)scale(0.996264009963)" xlink:href="#CMSS17-110"/>
      <use transform="translate(451.34049317 0.0)scale(0.996264009963)" xlink:href="#CMSS17-116"/>
      <use transform="translate(485.172059854 0.0)scale(0.996264009963)" xlink:href="#CMSS17-101"/>
      <use transform="translate(526.810881922 0.0)scale(0.996264009963)" xlink:href="#CMSS17-114"/>
      <use transform="translate(558.720654479 0.0)scale(0.996264009963)" xlink:href="#CMSS17-97"/>
      <use transform="translate(603.642575085 0.0)scale(0.996264009963)" xlink:href="#CMSS17-99"/>
      <use transform="translate(645.281397153 0.0)scale(0.996264009963)" xlink:href="#CMSS17-116"/>
      <use transform="translate(679.112963837 0.0)scale(0.996264009963)" xlink:href="#CMSS17-105"/>
      <use transform="translate(701.293686882 0.0)scale(0.996264009963)" xlink:href="#CMSS17-111"/>
      <use transform="translate(748.137310403 0.0)scale(0.996264009963)" xlink:href="#CMSS17-110"/>
      <use transform="translate(827.571366288 0.0)scale(0.996264009963)" xlink:href="#CMSS17-40"/>
      <use transform="translate(864.005280491 0.0)scale(0.996264009963)" xlink:href="#CMSS17-109"/>
      <use transform="translate(938.234534923 0.0)scale(0.996264009963)" xlink:href="#CMSS17-109"/>
      <use transform="translate(1012.46378935 0.0)scale(0.996264009963)" xlink:href="#CMSS17-41"/>
     </g>
    </g>
   </g>
   <g id="matplotlib.axis_2">
    <g id="ytick_1">
     <g id="line2d_28">
      <defs>
       <path d="
M0 0
L4 0" id="m728421d6d4" style="stroke:#000000;stroke-width:0.5;"/>
      </defs>
      <g>
       <use style="stroke:#000000;stroke-width:0.5;" x="63.8318593361" xlink:href="#m728421d6d4" y="237.534399031"/>
      </g>
     </g>
     <g id="line2d_29">
      <defs>
       <path d="
M0 0
L-4 0" id="mcb0005524f" style="stroke:#000000;stroke-width:0.5;"/>
      </defs>
      <g>
       <use style="stroke:#000000;stroke-width:0.5;" x="848.88" xlink:href="#mcb0005524f" y="237.534399031"/>
      </g>
     </g>
     <g id="text_9">
      <!-- $0$ -->
      <g transform="translate(53.0033707094 241.021323066)scale(0.14 -0.14)">
       <use transform="scale(0.996264009963)" xlink:href="#CMR17-48"/>
      </g>
     </g>
    </g>
    <g id="ytick_2">
     <g id="line2d_30">
      <g>
       <use style="stroke:#000000;stroke-width:0.5;" x="63.8318593361" xlink:href="#m728421d6d4" y="210.507468204"/>
      </g>
     </g>
     <g id="line2d_31">
      <g>
       <use style="stroke:#000000;stroke-width:0.5;" x="848.88" xlink:href="#mcb0005524f" y="210.507468204"/>
      </g>
     </g>
     <g id="text_10">
      <!-- $500$ -->
      <g transform="translate(39.3463934562 213.994392239)scale(0.14 -0.14)">
       <use transform="scale(0.996264009963)" xlink:href="#CMR17-53"/>
       <use transform="translate(45.6904771171 0.0)scale(0.996264009963)" xlink:href="#CMR17-48"/>
       <use transform="translate(91.3809542341 0.0)scale(0.996264009963)" xlink:href="#CMR17-48"/>
      </g>
     </g>
    </g>
    <g id="ytick_3">
     <g id="line2d_32">
      <g>
       <use style="stroke:#000000;stroke-width:0.5;" x="63.8318593361" xlink:href="#m728421d6d4" y="183.480537377"/>
      </g>
     </g>
     <g id="line2d_33">
      <g>
       <use style="stroke:#000000;stroke-width:0.5;" x="848.88" xlink:href="#mcb0005524f" y="183.480537377"/>
      </g>
     </g>
     <g id="text_11">
      <!-- $1000$ -->
      <g transform="translate(32.5179048295 186.967461412)scale(0.14 -0.14)">
       <use transform="scale(0.996264009963)" xlink:href="#CMR17-49"/>
       <use transform="translate(45.6904771171 0.0)scale(0.996264009963)" xlink:href="#CMR17-48"/>
       <use transform="translate(91.3809542341 0.0)scale(0.996264009963)" xlink:href="#CMR17-48"/>
       <use transform="translate(137.071431351 0.0)scale(0.996264009963)" xlink:href="#CMR17-48"/>
      </g>
     </g>
    </g>
    <g id="ytick_4">
     <g id="line2d_34">
      <g>
       <use style="stroke:#000000;stroke-width:0.5;" x="63.8318593361" xlink:href="#m728421d6d4" y="156.45360655"/>
      </g>
     </g>
     <g id="line2d_35">
      <g>
       <use style="stroke:#000000;stroke-width:0.5;" x="848.88" xlink:href="#mcb0005524f" y="156.45360655"/>
      </g>
     </g>
     <g id="text_12">
      <!-- $1500$ -->
      <g transform="translate(32.5179048295 159.940530585)scale(0.14 -0.14)">
       <use transform="scale(0.996264009963)" xlink:href="#CMR17-49"/>
       <use transform="translate(45.6904771171 0.0)scale(0.996264009963)" xlink:href="#CMR17-53"/>
       <use transform="translate(91.3809542341 0.0)scale(0.996264009963)" xlink:href="#CMR17-48"/>
       <use transform="translate(137.071431351 0.0)scale(0.996264009963)" xlink:href="#CMR17-48"/>
      </g>
     </g>
    </g>
    <g id="ytick_5">
     <g id="line2d_36">
      <g>
       <use style="stroke:#000000;stroke-width:0.5;" x="63.8318593361" xlink:href="#m728421d6d4" y="129.426675723"/>
      </g>
     </g>
     <g id="line2d_37">
      <g>
       <use style="stroke:#000000;stroke-width:0.5;" x="848.88" xlink:href="#mcb0005524f" y="129.426675723"/>
      </g>
     </g>
     <g id="text_13">
      <!-- $2000$ -->
      <g transform="translate(32.5179048295 132.913599758)scale(0.14 -0.14)">
       <use transform="scale(0.996264009963)" xlink:href="#CMR17-50"/>
       <use transform="translate(45.6904771171 0.0)scale(0.996264009963)" xlink:href="#CMR17-48"/>
       <use transform="translate(91.3809542341 0.0)scale(0.996264009963)" xlink:href="#CMR17-48"/>
       <use transform="translate(137.071431351 0.0)scale(0.996264009963)" xlink:href="#CMR17-48"/>
      </g>
     </g>
    </g>
    <g id="ytick_6">
     <g id="line2d_38">
      <g>
       <use style="stroke:#000000;stroke-width:0.5;" x="63.8318593361" xlink:href="#m728421d6d4" y="102.399744896"/>
      </g>
     </g>
     <g id="line2d_39">
      <g>
       <use style="stroke:#000000;stroke-width:0.5;" x="848.88" xlink:href="#mcb0005524f" y="102.399744896"/>
      </g>
     </g>
     <g id="text_14">
      <!-- $2500$ -->
      <g transform="translate(32.5179048295 105.886668931)scale(0.14 -0.14)">
       <use transform="scale(0.996264009963)" xlink:href="#CMR17-50"/>
       <use transform="translate(45.6904771171 0.0)scale(0.996264009963)" xlink:href="#CMR17-53"/>
       <use transform="translate(91.3809542341 0.0)scale(0.996264009963)" xlink:href="#CMR17-48"/>
       <use transform="translate(137.071431351 0.0)scale(0.996264009963)" xlink:href="#CMR17-48"/>
      </g>
     </g>
    </g>
    <g id="ytick_7">
     <g id="line2d_40">
      <g>
       <use style="stroke:#000000;stroke-width:0.5;" x="63.8318593361" xlink:href="#m728421d6d4" y="75.3728140688"/>
      </g>
     </g>
     <g id="line2d_41">
      <g>
       <use style="stroke:#000000;stroke-width:0.5;" x="848.88" xlink:href="#mcb0005524f" y="75.3728140688"/>
      </g>
     </g>
     <g id="text_15">
      <!-- $3000$ -->
      <g transform="translate(32.5179048295 78.8597381037)scale(0.14 -0.14)">
       <use transform="scale(0.996264009963)" xlink:href="#CMR17-51"/>
       <use transform="translate(45.6904771171 0.0)scale(0.996264009963)" xlink:href="#CMR17-48"/>
       <use transform="translate(91.3809542341 0.0)scale(0.996264009963)" xlink:href="#CMR17-48"/>
       <use transform="translate(137.071431351 0.0)scale(0.996264009963)" xlink:href="#CMR17-48"/>
      </g>
     </g>
    </g>
    <g id="ytick_8">
     <g id="line2d_42">
      <g>
       <use style="stroke:#000000;stroke-width:0.5;" x="63.8318593361" xlink:href="#m728421d6d4" y="48.3458832418"/>
      </g>
     </g>
     <g id="line2d_43">
      <g>
       <use style="stroke:#000000;stroke-width:0.5;" x="848.88" xlink:href="#mcb0005524f" y="48.3458832418"/>
      </g>
     </g>
     <g id="text_16">
      <!-- $3500$ -->
      <g transform="translate(32.5179048295 51.8328072767)scale(0.14 -0.14)">
       <use transform="scale(0.996264009963)" xlink:href="#CMR17-51"/>
       <use transform="translate(45.6904771171 0.0)scale(0.996264009963)" xlink:href="#CMR17-53"/>
       <use transform="translate(91.3809542341 0.0)scale(0.996264009963)" xlink:href="#CMR17-48"/>
       <use transform="translate(137.071431351 0.0)scale(0.996264009963)" xlink:href="#CMR17-48"/>
      </g>
     </g>
    </g>
    <g id="ytick_9">
     <g id="line2d_44">
      <g>
       <use style="stroke:#000000;stroke-width:0.5;" x="63.8318593361" xlink:href="#m728421d6d4" y="21.3189524148"/>
      </g>
     </g>
     <g id="line2d_45">
      <g>
       <use style="stroke:#000000;stroke-width:0.5;" x="848.88" xlink:href="#mcb0005524f" y="21.3189524148"/>
      </g>
     </g>
     <g id="text_17">
      <!-- $4000$ -->
      <defs>
       <path d="
M33.5938 64.3281
C33.5938 66.4062 33.5 66.5 31.7031 66.5
L2 19.5938
L2 17
L27.7969 17
L27.7969 7.14062
C27.7969 3.5 27.5938 2.5 20.5938 2.5
L18.7031 2.5
L18.7031 0
C21.9062 0 27.2969 0 30.7031 0
C34.0938 0 39.5 0 42.7031 0
L42.7031 2.5
L40.7969 2.5
C33.7969 2.5 33.5938 3.5 33.5938 7.14062
L33.5938 17
L43.7969 17
L43.7969 19.5938
L33.5938 19.5938
z

M28.0938 57.7656
L28.0938 19.5938
L4 19.5938
z
" id="CMR17-52"/>
      </defs>
      <g transform="translate(32.5179048295 24.8058764496)scale(0.14 -0.14)">
       <use transform="scale(0.996264009963)" xlink:href="#CMR17-52"/>
       <use transform="translate(45.6904771171 0.0)scale(0.996264009963)" xlink:href="#CMR17-48"/>
       <use transform="translate(91.3809542341 0.0)scale(0.996264009963)" xlink:href="#CMR17-48"/>
       <use transform="translate(137.071431351 0.0)scale(0.996264009963)" xlink:href="#CMR17-48"/>
      </g>
     </g>
    </g>
    <g id="text_18">
     <!-- Number of $\gamma\gamma$ events detected -->
     <defs>
      <path d="
M32.2031 40.9844
C26.2969 43.8594 21.7031 43.8594 18.7031 43.8594
C11.5938 43.8594 3.09375 41.375 3.09375 31.2969
C3.09375 21.2344 14.0938 19.0312 17.0938 18.4219
C21.7031 17.5312 26.7969 16.5312 26.7969 11.5625
C26.7969 5.26562 19.5938 5.26562 18.2969 5.26562
C14.2969 5.26562 8.79688 6.35938 3.79688 9.96875
L2.59375 3.28125
C8.29688 0 13.7969 -1 18.4062 -1
C30.7031 -1 33.7969 6.5 33.7969 12.2031
C33.7969 17.0938 31 20.3906 29.0938 21.8906
C25.7969 24.5 24.5938 24.7969 16.4062 26.5
C15 26.7031 10.0938 27.7969 10.0938 32.2812
C10.0938 38 16.4062 38 17.7969 38
C24.2969 38 28.2969 35.9844 31 34.5
z
" id="CMSS17-115"/>
      <path d="
M40.9062 42.7969
L33.2969 42.7969
L33.2969 15.1875
C33.2969 7.78125 27.9062 4.78125 22.2031 4.78125
C15.5938 4.78125 15 6.98438 15 11.0781
L15 42.7969
L7.40625 42.7969
L7.40625 10.5938
C7.40625 2.79688 10.0938 -1 17 -1
C20.4062 -1 28.0938 -0.203125 33.5 4.78125
L33.5 0
L40.9062 0
z
" id="CMSS17-117"/>
      <path d="
M40.7969 69
L33.4062 69
L33.4062 38.0938
C30.2969 40.6719 25.2031 43.0625 19.5938 43.0625
C10.5 43.0625 3.29688 33.2969 3.29688 21.0312
C3.29688 8.78125 10.4062 -1 19.2969 -1
C26.2031 -1 30.7969 2.6875 33.2031 4.78125
L33.2031 -0.078125
L40.7969 -0.078125
z

M33.2031 13.0625
C33.2031 11.6719 33.2031 10.2031 30.0938 7.53125
C28.0938 5.85938 25.7031 5.07812 23.4062 5.07812
C18 5.07812 10.9062 9 10.9062 20.9375
C10.9062 33.3438 18.9062 37 24.4062 37
C28.0938 37 31.0938 35.2188 33.2031 32.2656
z
" id="CMSS17-100"/>
      <path d="
M41.7969 43
L34 43
L27.2969 24.3125
C25.2031 18.2031 22.2031 9.79688 21.7031 5.5
L21.5938 5.5
C21.4062 7.3125 20.5938 9.90625 20.0938 11.7031
C19.5 13.9062 18.7031 16.5 18.0938 18.3125
L9.29688 43
L1.29688 43
L17.0938 0
L26 0
z
" id="CMSS17-118"/>
      <path d="
M22.9062 65.3906
L21.0938 69.0781
L8.79688 69.0781
L8.79688 0
L16.5938 0
L16.5938 61.4062
L16.7031 61.5156
C17.4062 59.7188 17.7969 58.8281 21.9062 49.9688
L43.2969 3.6875
L45.0938 0
L57.4062 0
L57.4062 69.0781
L49.5938 69.0781
L49.5938 7.67188
L49.5 7.5625
C48.7969 9.35938 48.4062 10.25 44.2969 19.1094
z
" id="CMSS17-78"/>
      <path d="
M37.7969 12.0781
C37.5938 16.9844 37.4062 24.6875 33.5938 33.7031
C31.5938 38.7031 28.2031 44 20.9062 44
C8.59375 44 1.90625 28.3125 1.90625 25.7031
C1.90625 24.7969 2.59375 24.7969 2.90625 24.7969
C3.79688 24.7969 3.79688 25 4.29688 26.2969
C6.40625 32.5156 12.7969 37.4219 19.7031 37.4219
C33.5938 37.4219 35.5938 21.8906 35.5938 11.9844
C35.5938 5.65625 34.9062 3.5625 34.2969 1.5625
C32.4062 -4.64062 29.0938 -17.0625 29.0938 -19.875
C29.0938 -20.6719 29.4062 -21.5781 30.2031 -21.5781
C31.7031 -21.5781 32.5938 -18.2656 33.7031 -14.25
C36.0938 -5.45312 36.7031 -1.04688 37.2031 2.95312
C37.5 5.35938 43.2031 21.875 51.0938 37.6094
C51.7969 39.2031 53.2031 41.9062 53.2031 42.2031
C53.2031 42.3125 53.0938 43.0156 52.2031 43.0156
C52 43.0156 51.5 43.0156 51.2969 42.6094
C51.0938 42.4062 47.5938 35.6094 44.5938 28.7969
C43.0938 25.4062 41.0938 20.8906 37.7969 12.0781" id="CMMI12-13"/>
      <path d="
M14.9062 69
L7.5 69
L7.5 -0.078125
L15.0938 -0.078125
L15.0938 4.29688
C18.9062 0.59375 23.5 -1 27.5938 -1
C37.2031 -1 45 8.57812 45 21.125
C45 32.5938 39 43.0625 30.0938 43.0625
C23.7969 43.0625 18.2031 40.4844 14.9062 37.7969
z

M15.0938 31.9688
C17.2969 34.7188 20.4062 37 24.7969 37
C30.7031 37 37.4062 32.7656 37.4062 21.125
C37.4062 8.71875 29.4062 5.07812 23.9062 5.07812
C21.9062 5.07812 19.7969 5.5625 17.7969 7.25
C15.0938 9.60938 15.0938 11.0781 15.0938 12.4531
z
" id="CMSS17-98"/>
     </defs>
     <g transform="translate(24.8058764496 216.469185683)rotate(-90.0)scale(0.14 -0.14)">
      <use transform="scale(0.996264009963)" xlink:href="#CMSS17-78"/>
      <use transform="translate(66.061519181 0.0)scale(0.996264009963)" xlink:href="#CMSS17-117"/>
      <use transform="translate(114.266462314 0.0)scale(0.996264009963)" xlink:href="#CMSS17-109"/>
      <use transform="translate(188.495716746 0.0)scale(0.996264009963)" xlink:href="#CMSS17-98"/>
      <use transform="translate(239.30309861 0.0)scale(0.996264009963)" xlink:href="#CMSS17-101"/>
      <use transform="translate(280.941920678 0.0)scale(0.996264009963)" xlink:href="#CMSS17-114"/>
      <use transform="translate(344.080805986 0.0)scale(0.996264009963)" xlink:href="#CMSS17-111"/>
      <use transform="translate(390.924429508 0.0)scale(0.996264009963)" xlink:href="#CMSS17-102"/>
      <use transform="translate(450.780201077 0.0)scale(0.996264009963)" xlink:href="#CMMI12-13"/>
      <use transform="translate(506.798769142 0.0)scale(0.996264009963)" xlink:href="#CMMI12-13"/>
      <use transform="translate(594.046449958 0.0)scale(0.996264009963)" xlink:href="#CMSS17-101"/>
      <use transform="translate(635.685272027 0.0)scale(0.996264009963)" xlink:href="#CMSS17-118"/>
      <use transform="translate(678.685413707 0.0)scale(0.996264009963)" xlink:href="#CMSS17-101"/>
      <use transform="translate(720.324235776 0.0)scale(0.996264009963)" xlink:href="#CMSS17-110"/>
      <use transform="translate(768.529178909 0.0)scale(0.996264009963)" xlink:href="#CMSS17-116"/>
      <use transform="translate(802.360745593 0.0)scale(0.996264009963)" xlink:href="#CMSS17-115"/>
      <use transform="translate(869.503400335 0.0)scale(0.996264009963)" xlink:href="#CMSS17-100"/>
      <use transform="translate(917.708343468 0.0)scale(0.996264009963)" xlink:href="#CMSS17-101"/>
      <use transform="translate(959.347165536 0.0)scale(0.996264009963)" xlink:href="#CMSS17-116"/>
      <use transform="translate(993.17873222 0.0)scale(0.996264009963)" xlink:href="#CMSS17-101"/>
      <use transform="translate(1034.81755429 0.0)scale(0.996264009963)" xlink:href="#CMSS17-99"/>
      <use transform="translate(1076.45637636 0.0)scale(0.996264009963)" xlink:href="#CMSS17-116"/>
      <use transform="translate(1110.28794304 0.0)scale(0.996264009963)" xlink:href="#CMSS17-101"/>
      <use transform="translate(1151.92676511 0.0)scale(0.996264009963)" xlink:href="#CMSS17-100"/>
     </g>
    </g>
   </g>
   <g id="patch_3">
    <path d="
M63.8319 21.319
L848.88 21.319" style="fill:none;stroke:#000000;"/>
   </g>
   <g id="patch_4">
    <path d="
M848.88 237.534
L848.88 21.319" style="fill:none;stroke:#000000;"/>
   </g>
   <g id="patch_5">
    <path d="
M63.8319 237.534
L848.88 237.534" style="fill:none;stroke:#000000;"/>
   </g>
   <g id="patch_6">
    <path d="
M63.8319 237.534
L63.8319 21.319" style="fill:none;stroke:#000000;"/>
   </g>
   <g id="legend_1">
    <g id="patch_7">
     <path d="
M287.146 229.134
L625.566 229.134
L625.566 177.266
L287.146 177.266
L287.146 229.134
z
" style="fill:#ffffff;stroke:#000000;"/>
    </g>
    <g id="LineCollection_5">
     <defs>
      <path d="
M298.906 -89.7345
L298.906 -106.534" id="C4_0_a5b5a223b3"/>
      <path d="
M322.426 -89.7345
L322.426 -106.534" id="C4_1_2fab565cda"/>
     </defs>
     <use style="fill:none;stroke:#0000ff;" x="0.0" xlink:href="#C4_0_a5b5a223b3" y="288.0"/>
     <use style="fill:none;stroke:#0000ff;" x="0.0" xlink:href="#C4_1_2fab565cda" y="288.0"/>
    </g>
    <g id="line2d_46">
     <g>
      <use style="fill:#0000ff;stroke:#0000ff;stroke-width:0.5;" x="298.906197584" xlink:href="#mdde457ef1d" y="198.265512677"/>
      <use style="fill:#0000ff;stroke:#0000ff;stroke-width:0.5;" x="322.426197584" xlink:href="#mdde457ef1d" y="198.265512677"/>
     </g>
    </g>
    <g id="line2d_47">
     <g>
      <use style="fill:#0000ff;stroke:#0000ff;stroke-width:0.5;" x="298.906197584" xlink:href="#mdde457ef1d" y="181.465512677"/>
      <use style="fill:#0000ff;stroke:#0000ff;stroke-width:0.5;" x="322.426197584" xlink:href="#mdde457ef1d" y="181.465512677"/>
     </g>
    </g>
    <g id="line2d_48"/>
    <g id="line2d_49">
     <g>
      <use style="fill:#0000ff;stroke:#000000;stroke-linejoin:bevel;stroke-width:0.5;" x="298.906197584" xlink:href="#m2000094e96" y="189.865512677"/>
      <use style="fill:#0000ff;stroke:#000000;stroke-linejoin:bevel;stroke-width:0.5;" x="322.426197584" xlink:href="#m2000094e96" y="189.865512677"/>
     </g>
    </g>
    <g id="text_19">
     <!-- 30A unwrapped -->
     <defs>
      <path d="
M15.7031 31.6406
L22.5 31.6406
C31.9062 31.6406 34.5938 23.5469 34.5938 17.9062
C34.5938 10.2031 30.2031 4.17188 23 4.17188
C17.4062 4.17188 9.5 6.9375 5 14.25
C4.29688 10.7969 4.29688 10.5938 3.90625 8.21875
C8.59375 1.375 16.2031 -2 23.2031 -2
C34.5938 -2 43 7.39062 43 17.7812
C43 25.5938 37.5 32.1406 30 34.6094
C36 37.875 40.4062 44 40.4062 51.1406
C40.4062 59.4531 32.7031 66.0781 23.2969 66.0781
C14.7031 66.0781 8 60.8125 5.20312 55.1562
C5.90625 54.1875 7.70312 51.3125 8.59375 49.8281
C10.7969 55.6562 16.5 60 23.2031 60
C28.7969 60 32.5 56.3594 32.5 51.1094
C32.5 45.6875 29 39.7344 23.0938 38.3594
C22.7031 38.3594 16.5 37.7656 15.7031 37.6719
z
" id="CMSS17-51"/>
      <path d="
M43.0938 31.9375
C43.0938 37.5781 43 48.0781 38.9062 56.1875
C34.7969 64 28.2031 66.0781 23.5 66.0781
C16.7031 66.0781 10.9062 62.125 7.90625 55.7812
C4.70312 49.1562 3.79688 42.3281 3.79688 31.9375
C3.79688 24.8281 4.09375 16.1094 7.70312 8.48438
C11.7969 0.078125 18.7031 -2 23.4062 -2
C29.5938 -2 35.5938 1.26562 39 8.09375
C42.5 15.2188 43.0938 23.0312 43.0938 31.9375
M23.4062 4.07812
C15.7969 4.07812 13.5 12.6719 12.7969 15.5469
C11.5938 20.4688 11.4062 25.2188 11.4062 33.0312
C11.4062 39.1562 11.4062 46.0625 13.2969 51.5156
C15.5938 57.8281 19.5938 60 23.4062 60
C30.7969 60 33.2031 52.6875 34 50.125
C35.5 44.8906 35.5 38.7656 35.5 33.0312
C35.5 23.8438 35.5 4.07812 23.4062 4.07812" id="CMSS17-48"/>
      <path d="
M62.7031 43
L55.0938 43
L49.7969 25.1094
C48.7031 21.3281 45.5938 10.8906 45.2031 6
L45.0938 6
C44.9062 9 43.2031 16.1406 40.4062 25.6094
L35.2969 43
L28.4062 43
L23.4062 26
C20.9062 17.3438 19 9.98438 18.7969 6
L18.7031 6
C18.2969 11.875 14.2031 25.6094 13.5938 27.7969
L9.09375 43
L1.29688 43
L14.2969 0
L21.9062 0
C27.0938 17.125 31.0938 30.3594 31.4062 37.0312
C31.5938 33.75 33.2969 26.6719 34.2969 23.1875
L40.9062 0
L49.7031 0
z
" id="CMSS17-119"/>
      <path d="
M35.5 69
L26.9062 69
L2.59375 0
L10.2031 0
L17.2031 20
L44 20
L51.0938 0
L59.7969 0
z

M42.0938 25.5781
L19.0938 25.5781
C23.9062 39.5781 29.9062 56.9844 30.5938 61.5
L30.7031 61.5
C31.4062 57.3906 33.4062 51.3906 35.0938 46.2812
z
" id="CMSS17-65"/>
     </defs>
     <g transform="translate(340.906197584 195.745512677)scale(0.168 -0.168)">
      <use transform="scale(0.996264009963)" xlink:href="#CMSS17-51"/>
      <use transform="translate(46.8436235212 0.0)scale(0.996264009963)" xlink:href="#CMSS17-48"/>
      <use transform="translate(93.6872470423 0.0)scale(0.996264009963)" xlink:href="#CMSS17-65"/>
      <use transform="translate(187.134214712 0.0)scale(0.996264009963)" xlink:href="#CMSS17-117"/>
      <use transform="translate(235.339157846 0.0)scale(0.996264009963)" xlink:href="#CMSS17-110"/>
      <use transform="translate(283.544100979 0.0)scale(0.996264009963)" xlink:href="#CMSS17-119"/>
      <use transform="translate(347.363646093 0.0)scale(0.996264009963)" xlink:href="#CMSS17-114"/>
      <use transform="translate(379.27341865 0.0)scale(0.996264009963)" xlink:href="#CMSS17-97"/>
      <use transform="translate(424.195339255 0.0)scale(0.996264009963)" xlink:href="#CMSS17-112"/>
      <use transform="translate(472.400282388 0.0)scale(0.996264009963)" xlink:href="#CMSS17-112"/>
      <use transform="translate(523.207664252 0.0)scale(0.996264009963)" xlink:href="#CMSS17-101"/>
      <use transform="translate(564.846486321 0.0)scale(0.996264009963)" xlink:href="#CMSS17-100"/>
     </g>
    </g>
    <g id="LineCollection_6">
     <defs>
      <path d="
M298.906 -66.32
L298.906 -83.12" id="C5_0_37a3bb97e0"/>
      <path d="
M322.426 -66.32
L322.426 -83.12" id="C5_1_f5743fbea4"/>
     </defs>
     <use style="fill:none;stroke:#0000ff;" x="0.0" xlink:href="#C5_0_37a3bb97e0" y="288.0"/>
     <use style="fill:none;stroke:#0000ff;" x="0.0" xlink:href="#C5_1_f5743fbea4" y="288.0"/>
    </g>
    <g id="line2d_50">
     <g>
      <use style="fill:#0000ff;stroke:#0000ff;stroke-width:0.5;" x="298.906197584" xlink:href="#mdde457ef1d" y="221.679955854"/>
      <use style="fill:#0000ff;stroke:#0000ff;stroke-width:0.5;" x="322.426197584" xlink:href="#mdde457ef1d" y="221.679955854"/>
     </g>
    </g>
    <g id="line2d_51">
     <g>
      <use style="fill:#0000ff;stroke:#0000ff;stroke-width:0.5;" x="298.906197584" xlink:href="#mdde457ef1d" y="204.879955854"/>
      <use style="fill:#0000ff;stroke:#0000ff;stroke-width:0.5;" x="322.426197584" xlink:href="#mdde457ef1d" y="204.879955854"/>
     </g>
    </g>
    <g id="line2d_52"/>
    <g id="line2d_53">
     <g>
      <use style="fill:#0000ff;stroke:#000000;stroke-linejoin:miter;stroke-width:0.5;" x="298.906197584" xlink:href="#m225e1ef6c6" y="213.279955854"/>
      <use style="fill:#0000ff;stroke:#000000;stroke-linejoin:miter;stroke-width:0.5;" x="322.426197584" xlink:href="#m225e1ef6c6" y="213.279955854"/>
     </g>
    </g>
    <g id="text_20">
     <!-- 30B unwrapped -->
     <defs>
      <path d="
M8.90625 69
L8.90625 0
L33.7969 0
C47.4062 0 57.2969 8.96875 57.2969 18.75
C57.2969 26.3281 50.7969 34 39.0938 36.2031
C52.0938 39.9688 54.7031 47.5 54.7031 51.7656
C54.7031 60.6719 44.9062 69 31.2031 69
z

M17 39
L17 63.4219
L28.5 63.4219
C38.7969 63.4219 46.9062 58.1875 46.9062 51.6562
C46.9062 45.7188 40.5 39 27.5938 39
z

M17 5.57812
L17 32.9219
L30.2969 32.9219
C41.0938 32.9219 49.4062 26.2344 49.4062 18.8438
C49.4062 12.0625 42.0938 5.57812 31 5.57812
z
" id="CMSS17-66"/>
     </defs>
     <g transform="translate(340.906197584 219.159955854)scale(0.168 -0.168)">
      <use transform="scale(0.996264009963)" xlink:href="#CMSS17-51"/>
      <use transform="translate(46.8436235212 0.0)scale(0.996264009963)" xlink:href="#CMSS17-48"/>
      <use transform="translate(93.6872470423 0.0)scale(0.996264009963)" xlink:href="#CMSS17-66"/>
      <use transform="translate(187.254400004 0.0)scale(0.996264009963)" xlink:href="#CMSS17-117"/>
      <use transform="translate(235.459343137 0.0)scale(0.996264009963)" xlink:href="#CMSS17-110"/>
      <use transform="translate(283.66428627 0.0)scale(0.996264009963)" xlink:href="#CMSS17-119"/>
      <use transform="translate(347.483831384 0.0)scale(0.996264009963)" xlink:href="#CMSS17-114"/>
      <use transform="translate(379.393603941 0.0)scale(0.996264009963)" xlink:href="#CMSS17-97"/>
      <use transform="translate(424.315524547 0.0)scale(0.996264009963)" xlink:href="#CMSS17-112"/>
      <use transform="translate(472.52046768 0.0)scale(0.996264009963)" xlink:href="#CMSS17-112"/>
      <use transform="translate(523.327849544 0.0)scale(0.996264009963)" xlink:href="#CMSS17-101"/>
      <use transform="translate(564.966671612 0.0)scale(0.996264009963)" xlink:href="#CMSS17-100"/>
     </g>
    </g>
    <g id="LineCollection_7">
     <defs>
      <path d="
M486.603 -89.7345
L486.603 -106.534" id="C6_0_6f6ccce8cc"/>
      <path d="
M510.123 -89.7345
L510.123 -106.534" id="C6_1_8256b14e46"/>
     </defs>
     <use style="fill:none;stroke:#ff0000;" x="0.0" xlink:href="#C6_0_6f6ccce8cc" y="288.0"/>
     <use style="fill:none;stroke:#ff0000;" x="0.0" xlink:href="#C6_1_8256b14e46" y="288.0"/>
    </g>
    <g id="line2d_54">
     <g>
      <use style="fill:#ff0000;stroke:#ff0000;stroke-width:0.5;" x="486.603184202" xlink:href="#m12d35e2592" y="198.265512677"/>
      <use style="fill:#ff0000;stroke:#ff0000;stroke-width:0.5;" x="510.123184202" xlink:href="#m12d35e2592" y="198.265512677"/>
     </g>
    </g>
    <g id="line2d_55">
     <g>
      <use style="fill:#ff0000;stroke:#ff0000;stroke-width:0.5;" x="486.603184202" xlink:href="#m12d35e2592" y="181.465512677"/>
      <use style="fill:#ff0000;stroke:#ff0000;stroke-width:0.5;" x="510.123184202" xlink:href="#m12d35e2592" y="181.465512677"/>
     </g>
    </g>
    <g id="line2d_56"/>
    <g id="line2d_57">
     <g>
      <use style="fill:#ff0000;stroke:#000000;stroke-linejoin:bevel;stroke-width:0.5;" x="486.603184202" xlink:href="#m46c0476064" y="189.865512677"/>
      <use style="fill:#ff0000;stroke:#000000;stroke-linejoin:bevel;stroke-width:0.5;" x="510.123184202" xlink:href="#m46c0476064" y="189.865512677"/>
     </g>
    </g>
    <g id="text_21">
     <!-- 30A wrapped -->
     <g transform="translate(528.603184202 195.745512677)scale(0.168 -0.168)">
      <use transform="scale(0.996264009963)" xlink:href="#CMSS17-51"/>
      <use transform="translate(46.8436235212 0.0)scale(0.996264009963)" xlink:href="#CMSS17-48"/>
      <use transform="translate(93.6872470423 0.0)scale(0.996264009963)" xlink:href="#CMSS17-65"/>
      <use transform="translate(187.134214712 0.0)scale(0.996264009963)" xlink:href="#CMSS17-119"/>
      <use transform="translate(250.953759826 0.0)scale(0.996264009963)" xlink:href="#CMSS17-114"/>
      <use transform="translate(282.863532383 0.0)scale(0.996264009963)" xlink:href="#CMSS17-97"/>
      <use transform="translate(327.785452989 0.0)scale(0.996264009963)" xlink:href="#CMSS17-112"/>
      <use transform="translate(375.990396122 0.0)scale(0.996264009963)" xlink:href="#CMSS17-112"/>
      <use transform="translate(426.797777986 0.0)scale(0.996264009963)" xlink:href="#CMSS17-101"/>
      <use transform="translate(468.436600054 0.0)scale(0.996264009963)" xlink:href="#CMSS17-100"/>
     </g>
    </g>
    <g id="LineCollection_8">
     <defs>
      <path d="
M486.603 -66.32
L486.603 -83.12" id="C7_0_41fc92b9ed"/>
      <path d="
M510.123 -66.32
L510.123 -83.12" id="C7_1_87868a6d4c"/>
     </defs>
     <use style="fill:none;stroke:#ff0000;" x="0.0" xlink:href="#C7_0_41fc92b9ed" y="288.0"/>
     <use style="fill:none;stroke:#ff0000;" x="0.0" xlink:href="#C7_1_87868a6d4c" y="288.0"/>
    </g>
    <g id="line2d_58">
     <g>
      <use style="fill:#ff0000;stroke:#ff0000;stroke-width:0.5;" x="486.603184202" xlink:href="#m12d35e2592" y="221.679955854"/>
      <use style="fill:#ff0000;stroke:#ff0000;stroke-width:0.5;" x="510.123184202" xlink:href="#m12d35e2592" y="221.679955854"/>
     </g>
    </g>
    <g id="line2d_59">
     <g>
      <use style="fill:#ff0000;stroke:#ff0000;stroke-width:0.5;" x="486.603184202" xlink:href="#m12d35e2592" y="204.879955854"/>
      <use style="fill:#ff0000;stroke:#ff0000;stroke-width:0.5;" x="510.123184202" xlink:href="#m12d35e2592" y="204.879955854"/>
     </g>
    </g>
    <g id="line2d_60"/>
    <g id="line2d_61">
     <g>
      <use style="fill:#ff0000;stroke:#000000;stroke-linejoin:miter;stroke-width:0.5;" x="486.603184202" xlink:href="#m9dfe19d8d5" y="213.279955854"/>
      <use style="fill:#ff0000;stroke:#000000;stroke-linejoin:miter;stroke-width:0.5;" x="510.123184202" xlink:href="#m9dfe19d8d5" y="213.279955854"/>
     </g>
    </g>
    <g id="text_22">
     <!-- 30B wrapped -->
     <g transform="translate(528.603184202 219.159955854)scale(0.168 -0.168)">
      <use transform="scale(0.996264009963)" xlink:href="#CMSS17-51"/>
      <use transform="translate(46.8436235212 0.0)scale(0.996264009963)" xlink:href="#CMSS17-48"/>
      <use transform="translate(93.6872470423 0.0)scale(0.996264009963)" xlink:href="#CMSS17-66"/>
      <use transform="translate(187.254400004 0.0)scale(0.996264009963)" xlink:href="#CMSS17-119"/>
      <use transform="translate(251.073945118 0.0)scale(0.996264009963)" xlink:href="#CMSS17-114"/>
      <use transform="translate(282.983717675 0.0)scale(0.996264009963)" xlink:href="#CMSS17-97"/>
      <use transform="translate(327.90563828 0.0)scale(0.996264009963)" xlink:href="#CMSS17-112"/>
      <use transform="translate(376.110581413 0.0)scale(0.996264009963)" xlink:href="#CMSS17-112"/>
      <use transform="translate(426.917963277 0.0)scale(0.996264009963)" xlink:href="#CMSS17-101"/>
      <use transform="translate(468.556785346 0.0)scale(0.996264009963)" xlink:href="#CMSS17-100"/>
     </g>
    </g>
   </g>
  </g>
 </g>
 <defs>
  <clipPath id="pf228d49d95">
   <rect height="216.215446616" width="785.048140664" x="63.8318593361" y="21.3189524148"/>
  </clipPath>
 </defs>
</svg>
