<?xml version="1.0" encoding="utf-8" standalone="no"?>
<!DOCTYPE svg PUBLIC "-//W3C//DTD SVG 1.1//EN"
  "http://www.w3.org/Graphics/SVG/1.1/DTD/svg11.dtd">
<!-- Created with matplotlib (http://matplotlib.org/) -->
<svg height="288pt" version="1.1" viewBox="0 0 864 288" width="864pt" xmlns="http://www.w3.org/2000/svg" xmlns:xlink="http://www.w3.org/1999/xlink">
 <defs>
  <style type="text/css">
*{stroke-linecap:butt;stroke-linejoin:round;}
  </style>
 </defs>
 <g id="figure_1">
  <g id="patch_1">
   <path d="
M0 288
L864 288
L864 0
L0 0
z
" style="fill:#ffffff;"/>
  </g>
  <g id="axes_1">
   <g id="patch_2">
    <path d="
M64.4951 237.882
L848.88 237.882
L848.88 21.6195
L64.4951 21.6195
z
" style="fill:#ffffff;"/>
   </g>
   <g id="LineCollection_1">
    <defs>
     <path d="
M283.661 -235.667
L283.661 -242.056" id="C0_0_e8b04af093"/>
     <path d="
M745.064 -237.918
L745.064 -244.345" id="C0_1_367d113bf2"/>
     <path d="
M514.363 -236.632
L514.363 -243.037" id="C0_2_e0b8b24817"/>
     <path d="
M399.012 -234.702
L399.012 -241.074" id="C0_3_45d949429c"/>
     <path d="
M629.714 -234.755
L629.714 -241.129" id="C0_4_20d9b5c553"/>
     <path d="
M168.311 -247.676
L168.311 -254.267" id="C0_5_49d9168e8f"/>
    </defs>
    <g clip-path="url(#p6beb79da72)">
     <use style="fill:none;stroke:#ff0000;" x="0.0" xlink:href="#C0_0_e8b04af093" y="288.0"/>
    </g>
    <g clip-path="url(#p6beb79da72)">
     <use style="fill:none;stroke:#ff0000;" x="0.0" xlink:href="#C0_1_367d113bf2" y="288.0"/>
    </g>
    <g clip-path="url(#p6beb79da72)">
     <use style="fill:none;stroke:#ff0000;" x="0.0" xlink:href="#C0_2_e0b8b24817" y="288.0"/>
    </g>
    <g clip-path="url(#p6beb79da72)">
     <use style="fill:none;stroke:#ff0000;" x="0.0" xlink:href="#C0_3_45d949429c" y="288.0"/>
    </g>
    <g clip-path="url(#p6beb79da72)">
     <use style="fill:none;stroke:#ff0000;" x="0.0" xlink:href="#C0_4_20d9b5c553" y="288.0"/>
    </g>
    <g clip-path="url(#p6beb79da72)">
     <use style="fill:none;stroke:#ff0000;" x="0.0" xlink:href="#C0_5_49d9168e8f" y="288.0"/>
    </g>
   </g>
   <g id="LineCollection_2">
    <defs>
     <path d="
M802.74 -64.1421
L802.74 -65.9385" id="C1_0_11451c279e"/>
     <path d="
M572.038 -210.425
L572.038 -216.367" id="C1_1_f36f5008ec"/>
     <path d="
M687.389 -177.28
L687.389 -182.579" id="C1_2_9839556332"/>
     <path d="
M456.688 -216.854
L456.688 -222.914" id="C1_3_a703d53840"/>
     <path d="
M341.337 -233.201
L341.337 -239.547" id="C1_4_29bf2ec901"/>
     <path d="
M225.986 -240.17
L225.986 -246.635" id="C1_5_3d1d18f1f9"/>
     <path d="
M110.635 -224.893
L110.635 -231.095" id="C1_6_d42056c03e"/>
    </defs>
    <g clip-path="url(#p6beb79da72)">
     <use style="fill:none;stroke:#ff0000;" x="0.0" xlink:href="#C1_0_11451c279e" y="288.0"/>
    </g>
    <g clip-path="url(#p6beb79da72)">
     <use style="fill:none;stroke:#ff0000;" x="0.0" xlink:href="#C1_1_f36f5008ec" y="288.0"/>
    </g>
    <g clip-path="url(#p6beb79da72)">
     <use style="fill:none;stroke:#ff0000;" x="0.0" xlink:href="#C1_2_9839556332" y="288.0"/>
    </g>
    <g clip-path="url(#p6beb79da72)">
     <use style="fill:none;stroke:#ff0000;" x="0.0" xlink:href="#C1_3_a703d53840" y="288.0"/>
    </g>
    <g clip-path="url(#p6beb79da72)">
     <use style="fill:none;stroke:#ff0000;" x="0.0" xlink:href="#C1_4_29bf2ec901" y="288.0"/>
    </g>
    <g clip-path="url(#p6beb79da72)">
     <use style="fill:none;stroke:#ff0000;" x="0.0" xlink:href="#C1_5_3d1d18f1f9" y="288.0"/>
    </g>
    <g clip-path="url(#p6beb79da72)">
     <use style="fill:none;stroke:#ff0000;" x="0.0" xlink:href="#C1_6_d42056c03e" y="288.0"/>
    </g>
   </g>
   <g id="LineCollection_3">
    <defs>
     <path d="
M283.661 -242.583
L283.661 -249.088" id="C2_0_f38e7d6799"/>
     <path d="
M399.012 -228.859
L399.012 -235.131" id="C2_1_89632279cd"/>
     <path d="
M514.363 -222.803
L514.363 -228.968" id="C2_2_d83e70a385"/>
     <path d="
M745.064 -218.194
L745.064 -224.277" id="C2_3_4ba855fe8f"/>
     <path d="
M168.311 -246.282
L168.311 -252.85" id="C2_4_e25b7f901e"/>
     <path d="
M629.714 -213.157
L629.714 -219.15" id="C2_5_c392898686"/>
    </defs>
    <g clip-path="url(#p6beb79da72)">
     <use style="fill:none;stroke:#008000;" x="0.0" xlink:href="#C2_0_f38e7d6799" y="288.0"/>
    </g>
    <g clip-path="url(#p6beb79da72)">
     <use style="fill:none;stroke:#008000;" x="0.0" xlink:href="#C2_1_89632279cd" y="288.0"/>
    </g>
    <g clip-path="url(#p6beb79da72)">
     <use style="fill:none;stroke:#008000;" x="0.0" xlink:href="#C2_2_d83e70a385" y="288.0"/>
    </g>
    <g clip-path="url(#p6beb79da72)">
     <use style="fill:none;stroke:#008000;" x="0.0" xlink:href="#C2_3_4ba855fe8f" y="288.0"/>
    </g>
    <g clip-path="url(#p6beb79da72)">
     <use style="fill:none;stroke:#008000;" x="0.0" xlink:href="#C2_4_e25b7f901e" y="288.0"/>
    </g>
    <g clip-path="url(#p6beb79da72)">
     <use style="fill:none;stroke:#008000;" x="0.0" xlink:href="#C2_5_c392898686" y="288.0"/>
    </g>
   </g>
   <g id="LineCollection_4">
    <defs>
     <path d="
M456.688 -225.643
L456.688 -231.859" id="C3_0_76ebec0991"/>
     <path d="
M225.986 -232.557
L225.986 -238.893" id="C3_1_550b2f0825"/>
     <path d="
M802.74 -93.7006
L802.74 -96.8252" id="C3_2_33c94b6386"/>
     <path d="
M687.389 -230.949
L687.389 -237.257" id="C3_3_43c5f0ea29"/>
     <path d="
M572.038 -231.861
L572.038 -238.184" id="C3_4_891aecacfc"/>
     <path d="
M110.635 -157.917
L110.635 -162.799" id="C3_5_25063a7a79"/>
     <path d="
M341.337 -224.41
L341.337 -230.604" id="C3_6_5af22da13b"/>
    </defs>
    <g clip-path="url(#p6beb79da72)">
     <use style="fill:none;stroke:#008000;" x="0.0" xlink:href="#C3_0_76ebec0991" y="288.0"/>
    </g>
    <g clip-path="url(#p6beb79da72)">
     <use style="fill:none;stroke:#008000;" x="0.0" xlink:href="#C3_1_550b2f0825" y="288.0"/>
    </g>
    <g clip-path="url(#p6beb79da72)">
     <use style="fill:none;stroke:#008000;" x="0.0" xlink:href="#C3_2_33c94b6386" y="288.0"/>
    </g>
    <g clip-path="url(#p6beb79da72)">
     <use style="fill:none;stroke:#008000;" x="0.0" xlink:href="#C3_3_43c5f0ea29" y="288.0"/>
    </g>
    <g clip-path="url(#p6beb79da72)">
     <use style="fill:none;stroke:#008000;" x="0.0" xlink:href="#C3_4_891aecacfc" y="288.0"/>
    </g>
    <g clip-path="url(#p6beb79da72)">
     <use style="fill:none;stroke:#008000;" x="0.0" xlink:href="#C3_5_25063a7a79" y="288.0"/>
    </g>
    <g clip-path="url(#p6beb79da72)">
     <use style="fill:none;stroke:#008000;" x="0.0" xlink:href="#C3_6_5af22da13b" y="288.0"/>
    </g>
   </g>
   <g id="line2d_1">
    <defs>
     <path d="
M3 1.83697e-16
L-3 -1.83697e-16" id="m12d35e2592" style="stroke:#ff0000;stroke-width:0.5;"/>
    </defs>
    <g clip-path="url(#p6beb79da72)">
     <use style="fill:#ff0000;stroke:#ff0000;stroke-width:0.5;" x="283.661445696" xlink:href="#m12d35e2592" y="52.333366551"/>
     <use style="fill:#ff0000;stroke:#ff0000;stroke-width:0.5;" x="745.064347169" xlink:href="#m12d35e2592" y="50.0817712997"/>
     <use style="fill:#ff0000;stroke:#ff0000;stroke-width:0.5;" x="514.362896432" xlink:href="#m12d35e2592" y="51.3684111913"/>
     <use style="fill:#ff0000;stroke:#ff0000;stroke-width:0.5;" x="399.012171064" xlink:href="#m12d35e2592" y="53.298300679"/>
     <use style="fill:#ff0000;stroke:#ff0000;stroke-width:0.5;" x="629.7136218" xlink:href="#m12d35e2592" y="53.2446937872"/>
     <use style="fill:#ff0000;stroke:#ff0000;stroke-width:0.5;" x="168.310720327" xlink:href="#m12d35e2592" y="40.3235716721"/>
    </g>
   </g>
   <g id="line2d_2">
    <g clip-path="url(#p6beb79da72)">
     <use style="fill:#ff0000;stroke:#ff0000;stroke-width:0.5;" x="283.661445696" xlink:href="#m12d35e2592" y="45.9444723337"/>
     <use style="fill:#ff0000;stroke:#ff0000;stroke-width:0.5;" x="745.064347169" xlink:href="#m12d35e2592" y="43.6545597951"/>
     <use style="fill:#ff0000;stroke:#ff0000;stroke-width:0.5;" x="514.362896432" xlink:href="#m12d35e2592" y="44.963067212"/>
     <use style="fill:#ff0000;stroke:#ff0000;stroke-width:0.5;" x="399.012171064" xlink:href="#m12d35e2592" y="46.925898687"/>
     <use style="fill:#ff0000;stroke:#ff0000;stroke-width:0.5;" x="629.7136218" xlink:href="#m12d35e2592" y="46.8713744409"/>
     <use style="fill:#ff0000;stroke:#ff0000;stroke-width:0.5;" x="168.310720327" xlink:href="#m12d35e2592" y="33.7328923334"/>
    </g>
   </g>
   <g id="line2d_3">
    <defs>
     <path d="
M1.83697e-16 -3
L-0.673542 -0.927051
L-2.85317 -0.927051
L-1.08981 0.354102
L-1.76336 2.42705
L-2.10498e-16 1.1459
L1.76336 2.42705
L1.08981 0.354102
L2.85317 -0.927051
L0.673542 -0.927051
z
" id="mffc86915ee" style="stroke:#000000;stroke-linejoin:bevel;stroke-width:0.5;"/>
    </defs>
    <g clip-path="url(#p6beb79da72)">
     <use style="fill:#ff0000;stroke:#000000;stroke-linejoin:bevel;stroke-width:0.5;" x="283.661445696" xlink:href="#mffc86915ee" y="49.1389194423"/>
     <use style="fill:#ff0000;stroke:#000000;stroke-linejoin:bevel;stroke-width:0.5;" x="745.064347169" xlink:href="#mffc86915ee" y="46.8681655474"/>
     <use style="fill:#ff0000;stroke:#000000;stroke-linejoin:bevel;stroke-width:0.5;" x="514.362896432" xlink:href="#mffc86915ee" y="48.1657392016"/>
     <use style="fill:#ff0000;stroke:#000000;stroke-linejoin:bevel;stroke-width:0.5;" x="399.012171064" xlink:href="#mffc86915ee" y="50.112099683"/>
     <use style="fill:#ff0000;stroke:#000000;stroke-linejoin:bevel;stroke-width:0.5;" x="629.7136218" xlink:href="#mffc86915ee" y="50.0580341141"/>
     <use style="fill:#ff0000;stroke:#000000;stroke-linejoin:bevel;stroke-width:0.5;" x="168.310720327" xlink:href="#mffc86915ee" y="37.0282320027"/>
    </g>
   </g>
   <g id="line2d_4">
    <g clip-path="url(#p6beb79da72)">
     <use style="fill:#ff0000;stroke:#ff0000;stroke-width:0.5;" x="802.739709853" xlink:href="#m12d35e2592" y="223.857928232"/>
     <use style="fill:#ff0000;stroke:#ff0000;stroke-width:0.5;" x="572.038259116" xlink:href="#m12d35e2592" y="77.5749501556"/>
     <use style="fill:#ff0000;stroke:#ff0000;stroke-width:0.5;" x="687.388984484" xlink:href="#m12d35e2592" y="110.71960245"/>
     <use style="fill:#ff0000;stroke:#ff0000;stroke-width:0.5;" x="456.687533748" xlink:href="#m12d35e2592" y="71.1455362933"/>
     <use style="fill:#ff0000;stroke:#ff0000;stroke-width:0.5;" x="341.33680838" xlink:href="#m12d35e2592" y="54.7992667312"/>
     <use style="fill:#ff0000;stroke:#ff0000;stroke-width:0.5;" x="225.986083011" xlink:href="#m12d35e2592" y="47.8300625047"/>
     <use style="fill:#ff0000;stroke:#ff0000;stroke-width:0.5;" x="110.635357643" xlink:href="#m12d35e2592" y="63.1072198996"/>
    </g>
   </g>
   <g id="line2d_5">
    <g clip-path="url(#p6beb79da72)">
     <use style="fill:#ff0000;stroke:#ff0000;stroke-width:0.5;" x="802.739709853" xlink:href="#m12d35e2592" y="222.061518852"/>
     <use style="fill:#ff0000;stroke:#ff0000;stroke-width:0.5;" x="572.038259116" xlink:href="#m12d35e2592" y="71.632654658"/>
     <use style="fill:#ff0000;stroke:#ff0000;stroke-width:0.5;" x="687.388984484" xlink:href="#m12d35e2592" y="105.421176695"/>
     <use style="fill:#ff0000;stroke:#ff0000;stroke-width:0.5;" x="456.687533748" xlink:href="#m12d35e2592" y="65.0863319779"/>
     <use style="fill:#ff0000;stroke:#ff0000;stroke-width:0.5;" x="341.33680838" xlink:href="#m12d35e2592" y="48.4526044947"/>
     <use style="fill:#ff0000;stroke:#ff0000;stroke-width:0.5;" x="225.986083011" xlink:href="#m12d35e2592" y="41.3647608002"/>
     <use style="fill:#ff0000;stroke:#ff0000;stroke-width:0.5;" x="110.635357643" xlink:href="#m12d35e2592" y="56.9049776936"/>
    </g>
   </g>
   <g id="line2d_6">
    <defs>
     <path d="
M0 -3
L-3 3
L3 3
z
" id="m22ca2eebfc" style="stroke:#000000;stroke-linejoin:miter;stroke-width:0.5;"/>
    </defs>
    <g clip-path="url(#p6beb79da72)">
     <use style="fill:#ff0000;stroke:#000000;stroke-linejoin:miter;stroke-width:0.5;" x="802.739709853" xlink:href="#m22ca2eebfc" y="222.959723542"/>
     <use style="fill:#ff0000;stroke:#000000;stroke-linejoin:miter;stroke-width:0.5;" x="572.038259116" xlink:href="#m22ca2eebfc" y="74.6038024068"/>
     <use style="fill:#ff0000;stroke:#000000;stroke-linejoin:miter;stroke-width:0.5;" x="687.388984484" xlink:href="#m22ca2eebfc" y="108.070389572"/>
     <use style="fill:#ff0000;stroke:#000000;stroke-linejoin:miter;stroke-width:0.5;" x="456.687533748" xlink:href="#m22ca2eebfc" y="68.1159341356"/>
     <use style="fill:#ff0000;stroke:#000000;stroke-linejoin:miter;stroke-width:0.5;" x="341.33680838" xlink:href="#m22ca2eebfc" y="51.625935613"/>
     <use style="fill:#ff0000;stroke:#000000;stroke-linejoin:miter;stroke-width:0.5;" x="225.986083011" xlink:href="#m22ca2eebfc" y="44.5974116525"/>
     <use style="fill:#ff0000;stroke:#000000;stroke-linejoin:miter;stroke-width:0.5;" x="110.635357643" xlink:href="#m22ca2eebfc" y="60.0060987966"/>
    </g>
   </g>
   <g id="line2d_7">
    <defs>
     <path d="
M3 1.83697e-16
L-3 -1.83697e-16" id="m1ef3793437" style="stroke:#008000;stroke-width:0.5;"/>
    </defs>
    <g clip-path="url(#p6beb79da72)">
     <use style="fill:#008000;stroke:#008000;stroke-width:0.5;" x="283.661445696" xlink:href="#m1ef3793437" y="45.417393634"/>
     <use style="fill:#008000;stroke:#008000;stroke-width:0.5;" x="399.012171064" xlink:href="#m1ef3793437" y="59.1410496938"/>
     <use style="fill:#008000;stroke:#008000;stroke-width:0.5;" x="514.362896432" xlink:href="#m1ef3793437" y="65.1973417864"/>
     <use style="fill:#008000;stroke:#008000;stroke-width:0.5;" x="745.064347169" xlink:href="#m1ef3793437" y="69.8059336776"/>
     <use style="fill:#008000;stroke:#008000;stroke-width:0.5;" x="168.310720327" xlink:href="#m1ef3793437" y="41.7177247459"/>
     <use style="fill:#008000;stroke:#008000;stroke-width:0.5;" x="629.7136218" xlink:href="#m1ef3793437" y="74.8425886153"/>
    </g>
   </g>
   <g id="line2d_8">
    <g clip-path="url(#p6beb79da72)">
     <use style="fill:#008000;stroke:#008000;stroke-width:0.5;" x="283.661445696" xlink:href="#m1ef3793437" y="38.9115284676"/>
     <use style="fill:#008000;stroke:#008000;stroke-width:0.5;" x="399.012171064" xlink:href="#m1ef3793437" y="52.8694436983"/>
     <use style="fill:#008000;stroke:#008000;stroke-width:0.5;" x="514.362896432" xlink:href="#m1ef3793437" y="59.0319701831"/>
     <use style="fill:#008000;stroke:#008000;stroke-width:0.5;" x="745.064347169" xlink:href="#m1ef3793437" y="63.7226561473"/>
     <use style="fill:#008000;stroke:#008000;stroke-width:0.5;" x="168.310720327" xlink:href="#m1ef3793437" y="35.1501488438"/>
     <use style="fill:#008000;stroke:#008000;stroke-width:0.5;" x="629.7136218" xlink:href="#m1ef3793437" y="68.8503281678"/>
    </g>
   </g>
   <g id="line2d_9">
    <defs>
     <path d="
M1.83697e-16 -3
L-0.673542 -0.927051
L-2.85317 -0.927051
L-1.08981 0.354102
L-1.76336 2.42705
L-2.10498e-16 1.1459
L1.76336 2.42705
L1.08981 0.354102
L2.85317 -0.927051
L0.673542 -0.927051
z
" id="m78c097fb03" style="stroke:#000000;stroke-linejoin:bevel;stroke-width:0.5;"/>
    </defs>
    <g clip-path="url(#p6beb79da72)">
     <use style="fill:#008000;stroke:#000000;stroke-linejoin:bevel;stroke-width:0.5;" x="283.661445696" xlink:href="#m78c097fb03" y="42.1644610508"/>
     <use style="fill:#008000;stroke:#000000;stroke-linejoin:bevel;stroke-width:0.5;" x="399.012171064" xlink:href="#m78c097fb03" y="56.005246696"/>
     <use style="fill:#008000;stroke:#000000;stroke-linejoin:bevel;stroke-width:0.5;" x="514.362896432" xlink:href="#m78c097fb03" y="62.1146559847"/>
     <use style="fill:#008000;stroke:#000000;stroke-linejoin:bevel;stroke-width:0.5;" x="745.064347169" xlink:href="#m78c097fb03" y="66.7642949124"/>
     <use style="fill:#008000;stroke:#000000;stroke-linejoin:bevel;stroke-width:0.5;" x="168.310720327" xlink:href="#m78c097fb03" y="38.4339367948"/>
     <use style="fill:#008000;stroke:#000000;stroke-linejoin:bevel;stroke-width:0.5;" x="629.7136218" xlink:href="#m78c097fb03" y="71.8464583915"/>
    </g>
   </g>
   <g id="line2d_10">
    <g clip-path="url(#p6beb79da72)">
     <use style="fill:#008000;stroke:#008000;stroke-width:0.5;" x="456.687533748" xlink:href="#m1ef3793437" y="62.3568930603"/>
     <use style="fill:#008000;stroke:#008000;stroke-width:0.5;" x="225.986083011" xlink:href="#m1ef3793437" y="55.4425218903"/>
     <use style="fill:#008000;stroke:#008000;stroke-width:0.5;" x="802.739709853" xlink:href="#m1ef3793437" y="194.299369009"/>
     <use style="fill:#008000;stroke:#008000;stroke-width:0.5;" x="687.388984484" xlink:href="#m1ef3793437" y="57.0506173423"/>
     <use style="fill:#008000;stroke:#008000;stroke-width:0.5;" x="572.038259116" xlink:href="#m1ef3793437" y="56.1393707249"/>
     <use style="fill:#008000;stroke:#008000;stroke-width:0.5;" x="110.635357643" xlink:href="#m1ef3793437" y="130.083471839"/>
     <use style="fill:#008000;stroke:#008000;stroke-width:0.5;" x="341.33680838" xlink:href="#m1ef3793437" y="63.5895654602"/>
    </g>
   </g>
   <g id="line2d_11">
    <g clip-path="url(#p6beb79da72)">
     <use style="fill:#008000;stroke:#008000;stroke-width:0.5;" x="456.687533748" xlink:href="#m1ef3793437" y="56.141468603"/>
     <use style="fill:#008000;stroke:#008000;stroke-width:0.5;" x="225.986083011" xlink:href="#m1ef3793437" y="49.1069229898"/>
     <use style="fill:#008000;stroke:#008000;stroke-width:0.5;" x="802.739709853" xlink:href="#m1ef3793437" y="191.174772014"/>
     <use style="fill:#008000;stroke:#008000;stroke-width:0.5;" x="687.388984484" xlink:href="#m1ef3793437" y="50.7427616735"/>
     <use style="fill:#008000;stroke:#008000;stroke-width:0.5;" x="572.038259116" xlink:href="#m1ef3793437" y="49.8157789473"/>
     <use style="fill:#008000;stroke:#008000;stroke-width:0.5;" x="110.635357643" xlink:href="#m1ef3793437" y="125.200779209"/>
     <use style="fill:#008000;stroke:#008000;stroke-width:0.5;" x="341.33680838" xlink:href="#m1ef3793437" y="57.3958123737"/>
    </g>
   </g>
   <g id="line2d_12">
    <defs>
     <path d="
M0 -3
L-3 3
L3 3
z
" id="md7f788f78c" style="stroke:#000000;stroke-linejoin:miter;stroke-width:0.5;"/>
    </defs>
    <g clip-path="url(#p6beb79da72)">
     <use style="fill:#008000;stroke:#000000;stroke-linejoin:miter;stroke-width:0.5;" x="456.687533748" xlink:href="#md7f788f78c" y="59.2491808316"/>
     <use style="fill:#008000;stroke:#000000;stroke-linejoin:miter;stroke-width:0.5;" x="225.986083011" xlink:href="#md7f788f78c" y="52.2747224401"/>
     <use style="fill:#008000;stroke:#000000;stroke-linejoin:miter;stroke-width:0.5;" x="802.739709853" xlink:href="#md7f788f78c" y="192.737070512"/>
     <use style="fill:#008000;stroke:#000000;stroke-linejoin:miter;stroke-width:0.5;" x="687.388984484" xlink:href="#md7f788f78c" y="53.8966895079"/>
     <use style="fill:#008000;stroke:#000000;stroke-linejoin:miter;stroke-width:0.5;" x="572.038259116" xlink:href="#md7f788f78c" y="52.9775748361"/>
     <use style="fill:#008000;stroke:#000000;stroke-linejoin:miter;stroke-width:0.5;" x="110.635357643" xlink:href="#md7f788f78c" y="127.642125524"/>
     <use style="fill:#008000;stroke:#000000;stroke-linejoin:miter;stroke-width:0.5;" x="341.33680838" xlink:href="#md7f788f78c" y="60.4926889169"/>
    </g>
   </g>
   <g id="line2d_13">
    <path clip-path="url(#p6beb79da72)" d="
M63.9403 237.882
L97.2279 237.82
L99.3083 237.555
L101.389 236.497
L103.469 233.137
L105.55 224.674
L107.63 207.751
L109.711 180.891
L113.872 113.212
L115.952 86.3519
L118.033 69.429
L120.113 60.966
L122.194 57.6066
L124.274 56.5482
L126.354 56.2835
L132.596 56.2216
L790.026 56.2835
L792.106 56.5482
L794.187 57.6066
L796.267 60.966
L798.348 69.429
L800.428 86.3519
L802.509 113.212
L806.669 180.891
L808.75 207.751
L810.83 224.674
L812.911 233.137
L814.991 236.497
L817.072 237.555
L819.152 237.82
L825.394 237.882
L850.359 237.882
L850.359 237.882" style="fill:none;stroke:#000000;stroke-dasharray:6.000000,6.000000;stroke-dashoffset:0.0;"/>
   </g>
   <g id="matplotlib.axis_1">
    <g id="xtick_1">
     <g id="line2d_14">
      <path clip-path="url(#p6beb79da72)" d="
M110.635 237.882
L110.635 21.6195" style="fill:none;stroke:#000000;stroke-dasharray:1.000000,3.000000;stroke-dashoffset:0.0;stroke-width:0.5;"/>
     </g>
     <g id="line2d_15">
      <defs>
       <path d="
M0 0
L0 -4" id="m93b0483c22" style="stroke:#000000;stroke-width:0.5;"/>
      </defs>
      <g>
       <use style="stroke:#000000;stroke-width:0.5;" x="110.635357643" xlink:href="#m93b0483c22" y="237.881820565"/>
      </g>
     </g>
     <g id="line2d_16">
      <defs>
       <path d="
M0 0
L0 4" id="m741efc42ff" style="stroke:#000000;stroke-width:0.5;"/>
      </defs>
      <g>
       <use style="stroke:#000000;stroke-width:0.5;" x="110.635357643" xlink:href="#m741efc42ff" y="21.6195448586"/>
      </g>
     </g>
     <g id="text_1">
      <!-- $0$ -->
      <defs>
       <path d="
M42 31.6406
C42 37.75 41.9062 48.125 37.7031 56.1094
C34 63.1094 28.0938 65.5938 22.9062 65.5938
C18.0938 65.5938 12 63.4062 8.20312 56.2031
C4.20312 48.7188 3.79688 39.4375 3.79688 31.6406
C3.79688 25.9531 3.90625 17.2812 7 9.67188
C11.2969 -0.609375 19 -2 22.9062 -2
C27.5 -2 34.5 -0.109375 38.5938 9.375
C41.5938 16.2812 42 24.3594 42 31.6406
M22.9062 -0.40625
C16.5 -0.40625 12.7031 5.07812 11.2969 12.6875
C10.2031 18.5625 10.2031 27.1562 10.2031 32.75
C10.2031 40.4375 10.2031 46.8281 11.5 52.9219
C13.4062 61.3906 19 64 22.9062 64
C27 64 32.2969 61.2969 34.2031 53.125
C35.5 47.4375 35.5938 40.7344 35.5938 32.75
C35.5938 26.25 35.5938 18.2656 34.4062 12.375
C32.2969 1.48438 26.4062 -0.40625 22.9062 -0.40625" id="CMR17-48"/>
      </defs>
      <g transform="translate(107.22111333 252.230905175)scale(0.14 -0.14)">
       <use transform="scale(0.996264009963)" xlink:href="#CMR17-48"/>
      </g>
     </g>
    </g>
    <g id="xtick_2">
     <g id="line2d_17">
      <path clip-path="url(#p6beb79da72)" d="
M225.986 237.882
L225.986 21.6195" style="fill:none;stroke:#000000;stroke-dasharray:1.000000,3.000000;stroke-dashoffset:0.0;stroke-width:0.5;"/>
     </g>
     <g id="line2d_18">
      <g>
       <use style="stroke:#000000;stroke-width:0.5;" x="225.986083011" xlink:href="#m93b0483c22" y="237.881820565"/>
      </g>
     </g>
     <g id="line2d_19">
      <g>
       <use style="stroke:#000000;stroke-width:0.5;" x="225.986083011" xlink:href="#m741efc42ff" y="21.6195448586"/>
      </g>
     </g>
     <g id="text_2">
      <!-- $5$ -->
      <defs>
       <path d="
M11.4062 57.6875
C12.4062 57.2812 16.5 56 20.7031 56
C30 56 35.0938 61.0156 38 63.9219
C38 64.7344 38 65.25 37.4062 65.25
C37.2969 65.25 37.0938 65.25 36.2969 64.8281
C32.7969 63.3125 28.7031 62.0781 23.7031 62.0781
C20.7031 62.0781 16.2031 62.5 11.2969 64.7344
C10.2031 65.25 10 65.25 9.90625 65.25
C9.40625 65.25 9.29688 65.1406 9.29688 63.1562
L9.29688 34.2812
C9.29688 32.5 9.29688 32 10.2969 32
C10.7969 32 11 32.2031 11.5 32.9062
C14.7031 37.4844 19.0938 39.4062 24.0938 39.4062
C27.5938 39.4062 35.0938 37.2188 35.0938 20.1406
C35.0938 16.9531 35.0938 11.1719 32.0938 6.57812
C29.5938 2.48438 25.7031 0.390625 21.4062 0.390625
C14.7969 0.390625 8.09375 5 6.29688 12.7188
C6.70312 12.6094 7.5 12.4219 7.90625 12.4219
C9.20312 12.4219 11.7031 13.125 11.7031 16.2188
C11.7031 18.9062 9.79688 20 7.90625 20
C5.59375 20 4.09375 18.5938 4.09375 15.7969
C4.09375 7.09375 11 -2 21.5938 -2
C31.9062 -2 41.7031 6.875 41.7031 19.75
C41.7031 31.7188 33.9062 41 24.2031 41
C19.0938 41 14.7969 39.0938 11.4062 35.4531
z
" id="CMR17-53"/>
      </defs>
      <g transform="translate(222.571838698 252.230905175)scale(0.14 -0.14)">
       <use transform="scale(0.996264009963)" xlink:href="#CMR17-53"/>
      </g>
     </g>
    </g>
    <g id="xtick_3">
     <g id="line2d_20">
      <path clip-path="url(#p6beb79da72)" d="
M341.337 237.882
L341.337 21.6195" style="fill:none;stroke:#000000;stroke-dasharray:1.000000,3.000000;stroke-dashoffset:0.0;stroke-width:0.5;"/>
     </g>
     <g id="line2d_21">
      <g>
       <use style="stroke:#000000;stroke-width:0.5;" x="341.33680838" xlink:href="#m93b0483c22" y="237.881820565"/>
      </g>
     </g>
     <g id="line2d_22">
      <g>
       <use style="stroke:#000000;stroke-width:0.5;" x="341.33680838" xlink:href="#m741efc42ff" y="21.6195448586"/>
      </g>
     </g>
     <g id="text_3">
      <!-- $10$ -->
      <defs>
       <path d="
M26.5938 63.3125
C26.5938 65.4062 26.5 65.5 25.0938 65.5
C21.2031 61.1875 15.2969 59.7969 9.70312 59.7969
C9.40625 59.7969 8.90625 59.7969 8.79688 59.5
C8.70312 59.2969 8.70312 59.0938 8.70312 57
C11.7969 57 17 57.5938 21 59.9844
L21 7.20312
C21 3.6875 20.7969 2.5 12.2031 2.5
L9.20312 2.5
L9.20312 0
C14 0 19 0 23.7969 0
C28.5938 0 33.5938 0 38.4062 0
L38.4062 2.5
L35.4062 2.5
C26.7969 2.5 26.5938 3.59375 26.5938 7.15625
z
" id="CMR17-49"/>
      </defs>
      <g transform="translate(334.508319753 252.230905175)scale(0.14 -0.14)">
       <use transform="scale(0.996264009963)" xlink:href="#CMR17-49"/>
       <use transform="translate(45.6904771171 0.0)scale(0.996264009963)" xlink:href="#CMR17-48"/>
      </g>
     </g>
    </g>
    <g id="xtick_4">
     <g id="line2d_23">
      <path clip-path="url(#p6beb79da72)" d="
M456.688 237.882
L456.688 21.6195" style="fill:none;stroke:#000000;stroke-dasharray:1.000000,3.000000;stroke-dashoffset:0.0;stroke-width:0.5;"/>
     </g>
     <g id="line2d_24">
      <g>
       <use style="stroke:#000000;stroke-width:0.5;" x="456.687533748" xlink:href="#m93b0483c22" y="237.881820565"/>
      </g>
     </g>
     <g id="line2d_25">
      <g>
       <use style="stroke:#000000;stroke-width:0.5;" x="456.687533748" xlink:href="#m741efc42ff" y="21.6195448586"/>
      </g>
     </g>
     <g id="text_4">
      <!-- $15$ -->
      <g transform="translate(449.859045121 252.230905175)scale(0.14 -0.14)">
       <use transform="scale(0.996264009963)" xlink:href="#CMR17-49"/>
       <use transform="translate(45.6904771171 0.0)scale(0.996264009963)" xlink:href="#CMR17-53"/>
      </g>
     </g>
    </g>
    <g id="xtick_5">
     <g id="line2d_26">
      <path clip-path="url(#p6beb79da72)" d="
M572.038 237.882
L572.038 21.6195" style="fill:none;stroke:#000000;stroke-dasharray:1.000000,3.000000;stroke-dashoffset:0.0;stroke-width:0.5;"/>
     </g>
     <g id="line2d_27">
      <g>
       <use style="stroke:#000000;stroke-width:0.5;" x="572.038259116" xlink:href="#m93b0483c22" y="237.881820565"/>
      </g>
     </g>
     <g id="line2d_28">
      <g>
       <use style="stroke:#000000;stroke-width:0.5;" x="572.038259116" xlink:href="#m741efc42ff" y="21.6195448586"/>
      </g>
     </g>
     <g id="text_5">
      <!-- $20$ -->
      <defs>
       <path d="
M41.7031 15.4531
L39.9062 15.4531
C38.9062 8.375 38.0938 7.17188 37.7031 6.5625
C37.2031 5.76562 30 5.76562 28.5938 5.76562
L9.40625 5.76562
C13 9.67188 20 16.75 28.5 24.9531
C34.5938 30.7344 41.7031 37.5312 41.7031 47.4219
C41.7031 59.2188 32.2969 66 21.7969 66
C10.7969 66 4.09375 56.3125 4.09375 47.3438
C4.09375 43.4375 7 42.9375 8.20312 42.9375
C9.20312 42.9375 12.2031 43.5469 12.2031 47.0312
C12.2031 50.1094 9.59375 51 8.20312 51
C7.59375 51 7 50.9062 6.59375 50.7031
C8.5 59.2188 14.2969 63.4062 20.4062 63.4062
C29.0938 63.4062 34.7969 56.5156 34.7969 47.4219
C34.7969 38.7344 29.7031 31.25 24 24.75
L4.09375 2.28125
L4.09375 0
L39.2969 0
z
" id="CMR17-50"/>
      </defs>
      <g transform="translate(565.20977049 252.230905175)scale(0.14 -0.14)">
       <use transform="scale(0.996264009963)" xlink:href="#CMR17-50"/>
       <use transform="translate(45.6904771171 0.0)scale(0.996264009963)" xlink:href="#CMR17-48"/>
      </g>
     </g>
    </g>
    <g id="xtick_6">
     <g id="line2d_29">
      <path clip-path="url(#p6beb79da72)" d="
M687.389 237.882
L687.389 21.6195" style="fill:none;stroke:#000000;stroke-dasharray:1.000000,3.000000;stroke-dashoffset:0.0;stroke-width:0.5;"/>
     </g>
     <g id="line2d_30">
      <g>
       <use style="stroke:#000000;stroke-width:0.5;" x="687.388984484" xlink:href="#m93b0483c22" y="237.881820565"/>
      </g>
     </g>
     <g id="line2d_31">
      <g>
       <use style="stroke:#000000;stroke-width:0.5;" x="687.388984484" xlink:href="#m741efc42ff" y="21.6195448586"/>
      </g>
     </g>
     <g id="text_6">
      <!-- $25$ -->
      <g transform="translate(680.560495858 252.230905175)scale(0.14 -0.14)">
       <use transform="scale(0.996264009963)" xlink:href="#CMR17-50"/>
       <use transform="translate(45.6904771171 0.0)scale(0.996264009963)" xlink:href="#CMR17-53"/>
      </g>
     </g>
    </g>
    <g id="xtick_7">
     <g id="line2d_32">
      <path clip-path="url(#p6beb79da72)" d="
M802.74 237.882
L802.74 21.6195" style="fill:none;stroke:#000000;stroke-dasharray:1.000000,3.000000;stroke-dashoffset:0.0;stroke-width:0.5;"/>
     </g>
     <g id="line2d_33">
      <g>
       <use style="stroke:#000000;stroke-width:0.5;" x="802.739709853" xlink:href="#m93b0483c22" y="237.881820565"/>
      </g>
     </g>
     <g id="line2d_34">
      <g>
       <use style="stroke:#000000;stroke-width:0.5;" x="802.739709853" xlink:href="#m741efc42ff" y="21.6195448586"/>
      </g>
     </g>
     <g id="text_7">
      <!-- $30$ -->
      <defs>
       <path d="
M22.0938 33.7031
C31 33.7031 34.9062 25.9688 34.9062 17.0312
C34.9062 5 28.5 0.390625 22.7031 0.390625
C17.4062 0.390625 8.79688 3.03125 6.09375 10.8281
C6.59375 10.625 7.09375 10.625 7.59375 10.625
C10 10.625 11.7969 12.2188 11.7969 14.8125
C11.7969 17.7031 9.59375 19 7.59375 19
C5.90625 19 3.29688 18.2031 3.29688 14.4688
C3.29688 5.23438 12.2969 -2 22.9062 -2
C34 -2 42.5 6.71875 42.5 16.9531
C42.5 26.6719 34.5 33.6875 25 34.7969
C32.5938 36.375 39.9062 43.0625 39.9062 52.0156
C39.9062 59.6875 32 65.2969 23 65.2969
C13.9062 65.2969 5.90625 59.8281 5.90625 52.0156
C5.90625 48.5938 8.5 48 9.79688 48
C11.9062 48 13.7031 49.2969 13.7031 51.8906
C13.7031 54.4688 11.9062 55.7656 9.79688 55.7656
C9.40625 55.7656 8.90625 55.7656 8.5 55.5625
C11.4062 61.8594 19.2969 63 22.7969 63
C26.2969 63 32.9062 61.3281 32.9062 51.875
C32.9062 49.1094 32.5 44.1875 29.0938 39.8438
C26.0938 36 22.7031 36 19.4062 35.5938
C18.9062 35.5938 16.5938 35.5938 16.2031 35.5938
C15.5 35.4844 15.0938 35.3906 15.0938 34.5938
C15.0938 33.8125 15.2031 33.7031 17.2031 33.7031
z
" id="CMR17-51"/>
      </defs>
      <g transform="translate(795.911221226 252.230905175)scale(0.14 -0.14)">
       <use transform="scale(0.996264009963)" xlink:href="#CMR17-51"/>
       <use transform="translate(45.6904771171 0.0)scale(0.996264009963)" xlink:href="#CMR17-48"/>
      </g>
     </g>
    </g>
    <g id="text_8">
     <!-- Depth of Interaction (mm) -->
     <defs>
      <path d="
M46.5 23
C46.5938 37.8125 38.0938 48.2812 25.9062 48.2812
C13.0938 48.2812 3.5 37.25 3.5 22.3438
C3.5 8.4375 12.5938 -1 26.0938 -1
C35.5938 -1 42.4062 3.6875 46.5 13.1875
L43 15.0938
C38.9062 7.39062 34.7031 4.39062 28 4.39062
C22.9062 4.39062 19.2031 6.59375 16.5938 11
C14.7969 14 14 17.5 14.0938 23
z

M14.2031 27.2969
C14.2031 30.3438 14.5938 32.5 15.5938 35.25
C17.7031 41.1406 20.9062 44 25.7031 44
C31.7969 44 35.7969 38.7812 35.7969 30.9219
C35.7969 28.0781 34.9062 27.2969 31.7031 27.2969
z
" id="Century_Schoolbook_L_Roman-101"/>
      <path d="
M19.4062 47
L19.4062 67
L15.2969 67
C14.2969 53.875 9.90625 47.1875 1.79688 46.5938
L1.79688 42.7031
L10 42.7031
L10 17.2656
C10 10.2812 10.2031 7.78125 11.2031 5.48438
C12.7969 1.29688 16.7969 -1 22.5938 -1
C26.5 -1 29.9062 0.203125 32.2031 2.39062
C35.5 5.59375 37.4062 10.875 37.4062 16.375
C37.4062 16.9688 37.4062 17.6719 37.2969 18.6719
L33.0938 18.6719
C32.7969 9.6875 30.2031 5.09375 25.2969 5.09375
C23 5.09375 21 6.28125 20.2969 7.98438
C19.7031 9.375 19.4062 11.875 19.4062 15.4688
L19.4062 42.7031
L34.0938 42.7031
L34.0938 47
z
" id="Century_Schoolbook_L_Roman-116"/>
      <path d="
M19.7969 46
L2.09375 46
L2.09375 41.2188
L6.20312 41.2188
C9.90625 41.2188 10.5 40.5156 10.5 36.2031
L10.5 12.2969
L10.5 8.29688
C10.5 4.29688 9.40625 3.59375 2.90625 3.59375
L2.5 3.59375
L2.5 0
L29.2031 0
L29.2031 3.59375
L27.2969 3.59375
C20.9062 3.59375 19.7969 4.29688 19.7969 8.29688
L19.7969 12.2969
L19.7969 13.2969
C19.7969 20.8125 21.2031 28.4062 23.7031 34.1094
C26.0938 39.7031 29.5 42.8125 33.7031 43.3125
C32.2969 41.7031 31.9062 40.6875 31.9062 38.7656
C31.9062 35.5469 34.2031 33.2344 37.4062 33.2344
C41 33.2344 43.5 35.9375 43.5 40.0156
C43.5 44.8125 40.0938 48 34.7969 48
C28.5 48 23 42.9219 19.7969 34.1406
z
" id="Century_Schoolbook_L_Roman-114"/>
      <path d="
M20.0938 46.2969
L20.0938 52.1406
C20.0938 57.2656 20.4062 60.6562 21.2031 62.7188
C22.7969 67.2344 26.2969 70 30.2969 70
C32.4062 70 33.7031 69.3906 33.7031 68.2656
C33.7031 67.9375 33.5938 67.75 33.0938 66.9219
C32.5 65.9062 32.2031 64.7656 32.2031 63.6406
C32.2031 60.5469 34.5938 58.2031 37.7031 58.2031
C41 58.2031 43.2969 60.7344 43.2969 64.4062
C43.2969 70.3281 38.2969 74 30.2031 74
C23.2969 74 18.2969 71.5312 14.7031 66.4375
C11.7031 62.1406 10.7031 57.7344 10.7031 49.4688
L10.7031 46.2969
L1.90625 46.2969
L1.90625 42
L10.7031 42
L10.7031 12.2344
L10.7031 8.25
C10.7031 4.29688 9.59375 3.59375 3.20312 3.59375
L2.79688 3.59375
L2.79688 0
L29.5 0
L29.5 3.59375
L27.7031 3.59375
C21.2031 3.59375 20.0938 4.29688 20.0938 8.25
L20.0938 12.2344
L20.0938 42
L31.0938 42
L31.0938 46.2969
z
" id="Century_Schoolbook_L_Roman-102"/>
      <path d="
M20.0938 46
L2.79688 46
L2.79688 41.2188
L6.40625 41.2188
C10.0938 41.2188 10.7031 40.5156 10.7031 36.2188
L10.7031 -7.75
L10.7031 -11.7188
C10.7031 -15.7188 9.59375 -16.4062 3.20312 -16.4062
L2.79688 -16.4062
L2.79688 -20
L28.7969 -20
L28.7969 -16.4062
L27.7031 -16.4062
C21.2031 -16.4062 20.0938 -15.7188 20.0938 -11.7344
L20.0938 -7.75
L20.0938 6.6875
C23.4062 0.90625 27.2031 -1.39062 33.2969 -1.39062
C44.9062 -1.39062 53.5 9.26562 53.5 23.5
C53.5 37.2656 44.9062 48 33.9062 48
C27.7031 48 23.5938 45.4375 20.0938 39.5156
z

M32.0938 42.6094
C39 42.6094 43 35.75 43 24.0938
C43 11.2656 38.9062 4 31.7969 4
C24.7031 4 20 11.375 20 22.8125
C20 35.1406 24.5 42.6094 32.0938 42.6094" id="Century_Schoolbook_L_Roman-112"/>
      <path d="
M20 73
L1.5 73
L1.5 68.2188
L6.29688 68.2188
C10 68.2188 10.5938 67.5156 10.5938 63.2188
L10.5938 12.2812
L10.5938 8.28125
C10.5938 4.29688 9.5 3.59375 3.09375 3.59375
L2.70312 3.59375
L2.70312 0
L28 0
L28 3.59375
L27.5938 3.59375
C21.0938 3.59375 20 4.29688 20 8.28125
L20 12.2812
L20 22.5625
C20 27.5469 20.7031 32.0312 21.7969 34.3281
C23.9062 38.8281 28.4062 41.9219 32.7031 41.9219
C35.2969 41.9219 38.2969 40.4219 39.7969 38.4219
C41.2969 36.2344 42 33.2344 42 28.3438
L42 12.2812
L42 8.28125
C42 4.29688 40.9062 3.59375 34.4062 3.59375
L34 3.59375
L34 0
L59.2969 0
L59.2969 3.59375
L58.9062 3.59375
C52.5 3.59375 51.4062 4.29688 51.4062 8.28125
L51.4062 12.2812
L51.4062 27.9531
C51.4062 35.125 51.0938 36.9219 49.2969 40.3281
C46.7969 45.1094 41.7969 48 35.7969 48
C29.4062 48 24.5 45.0156 20 38.3281
z
" id="Century_Schoolbook_L_Roman-104"/>
      <path d="
M20 46
L2.70312 46
L2.70312 41.2188
L6.29688 41.2188
C10 41.2188 10.5938 40.5156 10.5938 36.2031
L10.5938 12.2969
L10.5938 8.29688
C10.5938 4.29688 9.5 3.59375 3.09375 3.59375
L2.70312 3.59375
L2.70312 0
L28 0
L28 3.59375
L27.5938 3.59375
C21.0938 3.59375 20 4.29688 20 8.28125
L20 12.2812
L20 22.6562
C20 27.5469 20.7031 32.0312 21.7969 34.3281
C23.9062 38.8281 28.4062 41.9219 32.7031 41.9219
C35.2969 41.9219 38.2969 40.4219 39.7969 38.4219
C41.2969 36.3281 42 33.2344 42 28.4375
L42 12.2812
L42 8.28125
C42 4.29688 40.9062 3.59375 34.4062 3.59375
L34 3.59375
L34 0
L59.2969 0
L59.2969 3.59375
L58.9062 3.59375
C52.5 3.59375 51.4062 4.29688 51.4062 8.28125
L51.4062 12.2812
L51.4062 27.9531
C51.4062 35.125 51.0938 36.9219 49.2969 40.3281
C46.7969 45.1094 41.7031 48 35.7969 48
C29.4062 48 24.4062 45.0469 20 38.5156
z
" id="Century_Schoolbook_L_Roman-110"/>
      <path d="
M25.2031 48.2812
C13 48.2812 3.40625 37.4531 3.40625 23.5469
C3.40625 9.9375 13 -1 25 -1
C37 -1 46.5938 9.9375 46.5938 23.6406
C46.5938 37.25 37 48.2812 25.2031 48.2812
M25.2031 44
C32.2031 44 36.0938 36.7344 36.0938 23.6406
C36.0938 10.4531 32.2031 3.29688 25 3.29688
C17.7969 3.29688 13.9062 10.4531 13.9062 23.5469
C13.9062 37.0469 17.7031 44 25.2031 44" id="Century_Schoolbook_L_Roman-111"/>
      <path d="
M20.0938 46
L2.29688 46
L2.29688 41.2188
L6.40625 41.2188
C10.0938 41.2188 10.7031 40.5156 10.7031 36.2031
L10.7031 12.2969
L10.7031 8.40625
C10.7031 4.29688 9.59375 3.59375 3.20312 3.59375
L2.79688 3.59375
L2.79688 0
L28 0
L28 3.59375
L27.5938 3.59375
C21.2031 3.59375 20.0938 4.29688 20.0938 8.39062
L20.0938 12.2812
L20.0938 26.4531
C20.0938 35.3281 25 41.9219 31.5 41.9219
C34.0938 41.9219 36.9062 40.5156 38.0938 38.625
C39.5 36.7344 40.0938 33.8281 40.0938 29.7344
L40.0938 12.2812
L40.0938 8.28125
C40.0938 4.29688 39 3.59375 32.5 3.59375
L32.0938 3.59375
L32.0938 0
L57.4062 0
L57.4062 3.59375
L57 3.59375
C50.5938 3.59375 49.5 4.29688 49.5 8.28125
L49.5 12.2812
L49.5 25.5469
C49.5 35.5312 54 41.9219 61 41.9219
C64.2969 41.9219 67 40.0156 68.2969 36.9219
C69.2031 34.7344 69.5 32.5312 69.5 28.6406
L69.5 12.2812
L69.5 8.28125
C69.5 4.29688 68.4062 3.59375 61.9062 3.59375
L61.5 3.59375
L61.5 0
L86.7969 0
L86.7969 3.59375
L86.4062 3.59375
C80 3.59375 78.9062 4.29688 78.9062 8.39062
L78.9062 12.2812
L78.9062 30.6406
C78.9062 36.8281 78.2969 38.9219 75.7031 42.3125
C72.7969 46.0156 68.7031 48 63.9062 48
C57.4062 48 52.5938 44.9375 48.2969 38.1094
C46.5938 44.0469 41.2031 48 34.5 48
C28.5 48 24 45.1406 20.0938 38.9219
z
" id="Century_Schoolbook_L_Roman-109"/>
      <path d="
M45.2031 32.5781
C45.2031 38.7969 44.0938 41.9688 41.2031 44.3438
C37.9062 46.9062 33 48.2812 26.5938 48.2812
C15.4062 48.2812 7.09375 43.0469 7.09375 35.9219
C7.09375 32.1562 9.40625 29.7812 12.9062 29.7812
C16 29.7812 18.2969 31.8594 18.2969 34.8125
C18.2969 36.1094 17.7969 37.4844 16.7969 38.875
C16.2031 39.5469 16.0938 39.8438 16.0938 40.1562
C16.0938 42.2188 20.2031 44 25 44
C28.0938 44 31.5938 43.0156 33.2031 41.5312
C35.0938 39.9531 35.7969 37.5781 35.7969 33.125
L35.7969 29.2812
C25.2969 27.4844 22.0938 26.6875 17.2031 24.8125
C8.59375 21.6094 4.40625 16.9375 4.40625 10.6562
C4.40625 3.57812 10.0938 -1 18.9062 -1
C25.7969 -1 32 1.85938 36.2969 7.0625
C37.9062 1.98438 40.4062 0 45.0938 0
C49.5938 0 54.2969 2.90625 54.2969 5.78125
C54.2969 6.46875 53.7969 6.96875 53.2969 6.96875
C52.9062 6.96875 52.5 6.875 51.7969 6.57812
C50.2031 6 49.7969 5.89062 49 5.89062
C46.2031 5.89062 45.2031 7.78125 45.2031 12.7188
z

M35.7969 20.4688
C35.7969 14.4688 35.5 13.0781 33.7969 10.4844
C31.2969 6.78125 26.7031 4.29688 22.4062 4.29688
C17.9062 4.29688 14.5 7.59375 14.5 12.0781
C14.5 16.2656 16.5938 19.2656 21 21.3594
C24.0938 22.75 28 23.75 35.7969 25.0469
z
" id="Century_Schoolbook_L_Roman-97"/>
      <path d="
M13.7031 12.2812
L13.7031 9.375
C13.7031 5.1875 12.7969 4.6875 4.79688 4.6875
L2.90625 4.6875
L2.90625 0
L36.5 0
C45.4062 0 52.2031 1.39062 57.5 4.39062
C67.5938 10.0625 73.2031 21.4375 73.2031 36.3906
C73.2031 50.0625 68.2031 60.9375 59 66.9062
C53.5 70.4062 46.0938 72 34.7031 72
L2.90625 72
L2.90625 67.3125
L4.79688 67.3125
C12.7969 67.3125 13.7031 66.8125 13.7031 62.6094
L13.7031 59.7188
z

M30.5938 4.6875
C25.5938 4.6875 24.9062 5.29688 24.9062 10.1875
L24.9062 61.7188
C24.9062 66.6094 25.5938 67.3125 30.5938 67.3125
L35.7969 67.3125
C52.9062 67.3125 60 58.0469 60 36
C60 13.6562 53.5 4.6875 37.4062 4.6875
z
" id="Century_Schoolbook_L_Roman-68"/>
      <path d="
M27.9062 73.4531
C21.9062 69.7656 18.7031 67.1719 15.2969 63.1719
C7.70312 54.1875 3.59375 42.7188 3.59375 30.6406
C3.59375 19.2656 7.20312 8.57812 13.9062 -0.296875
C17.7031 -5.09375 21.0938 -8.07812 27.9062 -12.2812
L27.9062 -8.57812
C17.9062 0.203125 13.9062 11.4844 13.9062 30.6406
C13.9062 49.7969 17.9062 60.9844 27.9062 69.7656
z
" id="Century_Schoolbook_L_Roman-40"/>
      <path d="
M20.5938 46
L1.79688 46
L1.79688 41.2188
L6.90625 41.2188
C10.5938 41.2188 11.2031 40.5156 11.2031 36.2031
L11.2031 12.2969
L11.2031 8.29688
C11.2031 4.29688 10.0938 3.59375 3.70312 3.59375
L3 3.59375
L3 0
L28.9062 0
L28.9062 3.59375
L28.2031 3.59375
C21.7031 3.59375 20.5938 4.28125 20.5938 8.21875
L20.5938 12.1719
z

M15.9062 71.5781
C12.7031 71.5781 10.0938 68.9844 10.0938 65.7969
C10.0938 62.7031 12.7031 60 15.7969 60
C19.0938 60 21.7031 62.5938 21.7031 65.7969
C21.7031 68.9844 19.0938 71.5781 15.9062 71.5781" id="Century_Schoolbook_L_Roman-105"/>
      <path d="
M5.40625 -12.2812
C11.4062 -8.57812 14.5938 -5.98438 18 -1.89062
C25.5938 6.98438 29.7031 18.5625 29.7031 30.6406
C29.7031 42.0156 26.0938 52.7031 19.4062 61.4844
C15.5938 66.375 12.2031 69.3594 5.40625 73.4531
L5.40625 69.7656
C15.4062 60.9844 19.4062 49.7969 19.4062 30.6406
C19.4062 11.375 15.4062 0.203125 5.40625 -8.57812
z
" id="Century_Schoolbook_L_Roman-41"/>
      <path d="
M26 59.7188
L26 62.6094
C26 66.8125 26.9062 67.3125 34.9062 67.3125
L36.9062 67.3125
L36.9062 72
L3.79688 72
L3.79688 67.3125
L5.79688 67.3125
C13.9062 67.3125 14.7969 66.8125 14.7969 62.6094
L14.7969 59.7188
L14.7969 12.2812
L14.7969 9.375
C14.7969 5.1875 13.9062 4.6875 5.79688 4.6875
L3.79688 4.6875
L3.79688 0
L36.9062 0
L36.9062 4.6875
L34.9062 4.6875
C26.9062 4.6875 26 5.1875 26 9.375
L26 12.2812
z
" id="Century_Schoolbook_L_Roman-73"/>
      <path d="
M38.7031 15.1094
C35.5 7.96875 32.0938 5.09375 26.9062 5.09375
C18.9062 5.09375 13.9062 12.3281 13.9062 23.9375
C13.9062 35.9531 18.7969 44 26.2031 44
C29.2031 44 31.7969 42.5938 31.7969 41.0156
C31.7969 40.7188 31.5938 40.4219 31.2031 39.8125
C29.5938 37.9375 29.2031 36.9375 29.2031 35.2656
C29.2031 31.9844 31.7031 29.7031 35.2031 29.7031
C38.7031 29.7031 41.2969 32.4844 41.2969 36.4531
C41.2969 43.1094 34.5938 48.2812 25.7031 48.2812
C12.7031 48.2812 3.40625 37.6562 3.40625 22.8438
C3.40625 8.73438 11.9062 -1 24.2969 -1
C33.2031 -1 38.2969 3.07812 42.5938 13.625
z
" id="Century_Schoolbook_L_Roman-99"/>
     </defs>
     <g transform="translate(372.102718748 270.229994892)scale(0.14 -0.14)">
      <use transform="scale(0.996264009963)" xlink:href="#Century_Schoolbook_L_Roman-68"/>
      <use transform="translate(77.5083701014 0.0)scale(0.996264009963)" xlink:href="#Century_Schoolbook_L_Roman-101"/>
      <use transform="translate(127.3215706 0.0)scale(0.996264009963)" xlink:href="#Century_Schoolbook_L_Roman-112"/>
      <use transform="translate(184.507057884 0.0)scale(0.996264009963)" xlink:href="#Century_Schoolbook_L_Roman-116"/>
      <use transform="translate(223.260764078 0.0)scale(0.996264009963)" xlink:href="#Century_Schoolbook_L_Roman-104"/>
      <use transform="translate(311.827564358 0.0)scale(0.996264009963)" xlink:href="#Century_Schoolbook_L_Roman-111"/>
      <use transform="translate(361.640764856 0.0)scale(0.996264009963)" xlink:href="#Century_Schoolbook_L_Roman-102"/>
      <use transform="translate(422.511164189 0.0)scale(0.996264009963)" xlink:href="#Century_Schoolbook_L_Roman-73"/>
      <use transform="translate(463.058589494 0.0)scale(0.996264009963)" xlink:href="#Century_Schoolbook_L_Roman-110"/>
      <use transform="translate(523.93022017 0.0)scale(0.996264009963)" xlink:href="#Century_Schoolbook_L_Roman-116"/>
      <use transform="translate(562.683926365 0.0)scale(0.996264009963)" xlink:href="#Century_Schoolbook_L_Roman-101"/>
      <use transform="translate(612.497126863 0.0)scale(0.996264009963)" xlink:href="#Century_Schoolbook_L_Roman-114"/>
      <use transform="translate(656.730695561 0.0)scale(0.996264009963)" xlink:href="#Century_Schoolbook_L_Roman-97"/>
      <use transform="translate(712.122372524 0.0)scale(0.996264009963)" xlink:href="#Century_Schoolbook_L_Roman-99"/>
      <use transform="translate(756.355941221 0.0)scale(0.996264009963)" xlink:href="#Century_Schoolbook_L_Roman-116"/>
      <use transform="translate(795.109647416 0.0)scale(0.996264009963)" xlink:href="#Century_Schoolbook_L_Roman-105"/>
      <use transform="translate(826.490960412 0.0)scale(0.996264009963)" xlink:href="#Century_Schoolbook_L_Roman-111"/>
      <use transform="translate(876.30416091 0.0)scale(0.996264009963)" xlink:href="#Century_Schoolbook_L_Roman-110"/>
      <use transform="translate(964.87096119 0.0)scale(0.996264009963)" xlink:href="#Century_Schoolbook_L_Roman-40"/>
      <use transform="translate(998.04619092 0.0)scale(0.996264009963)" xlink:href="#Century_Schoolbook_L_Roman-109"/>
      <use transform="translate(1086.61309761 0.0)scale(0.996264009963)" xlink:href="#Century_Schoolbook_L_Roman-109"/>
      <use transform="translate(1175.18000431 0.0)scale(0.996264009963)" xlink:href="#Century_Schoolbook_L_Roman-41"/>
     </g>
    </g>
   </g>
   <g id="matplotlib.axis_2">
    <g id="ytick_1">
     <g id="line2d_35">
      <path clip-path="url(#p6beb79da72)" d="
M64.4951 237.882
L848.88 237.882" style="fill:none;stroke:#000000;stroke-dasharray:1.000000,3.000000;stroke-dashoffset:0.0;stroke-width:0.5;"/>
     </g>
     <g id="line2d_36">
      <defs>
       <path d="
M0 0
L4 0" id="m728421d6d4" style="stroke:#000000;stroke-width:0.5;"/>
      </defs>
      <g>
       <use style="stroke:#000000;stroke-width:0.5;" x="64.4950674959" xlink:href="#m728421d6d4" y="237.881820565"/>
      </g>
     </g>
     <g id="line2d_37">
      <defs>
       <path d="
M0 0
L-4 0" id="mcb0005524f" style="stroke:#000000;stroke-width:0.5;"/>
      </defs>
      <g>
       <use style="stroke:#000000;stroke-width:0.5;" x="848.88" xlink:href="#mcb0005524f" y="237.881820565"/>
      </g>
     </g>
     <g id="text_9">
      <!-- $0$ -->
      <g transform="translate(53.6665788693 241.731360316)scale(0.14 -0.14)">
       <use transform="scale(0.996264009963)" xlink:href="#CMR17-48"/>
      </g>
     </g>
    </g>
    <g id="ytick_2">
     <g id="line2d_38">
      <path clip-path="url(#p6beb79da72)" d="
M64.4951 210.849
L848.88 210.849" style="fill:none;stroke:#000000;stroke-dasharray:1.000000,3.000000;stroke-dashoffset:0.0;stroke-width:0.5;"/>
     </g>
     <g id="line2d_39">
      <g>
       <use style="stroke:#000000;stroke-width:0.5;" x="64.4950674959" xlink:href="#m728421d6d4" y="210.849036102"/>
      </g>
     </g>
     <g id="line2d_40">
      <g>
       <use style="stroke:#000000;stroke-width:0.5;" x="848.88" xlink:href="#mcb0005524f" y="210.849036102"/>
      </g>
     </g>
     <g id="text_10">
      <!-- $500$ -->
      <g transform="translate(40.009601616 214.698575853)scale(0.14 -0.14)">
       <use transform="scale(0.996264009963)" xlink:href="#CMR17-53"/>
       <use transform="translate(45.6904771171 0.0)scale(0.996264009963)" xlink:href="#CMR17-48"/>
       <use transform="translate(91.3809542341 0.0)scale(0.996264009963)" xlink:href="#CMR17-48"/>
      </g>
     </g>
    </g>
    <g id="ytick_3">
     <g id="line2d_41">
      <path clip-path="url(#p6beb79da72)" d="
M64.4951 183.816
L848.88 183.816" style="fill:none;stroke:#000000;stroke-dasharray:1.000000,3.000000;stroke-dashoffset:0.0;stroke-width:0.5;"/>
     </g>
     <g id="line2d_42">
      <g>
       <use style="stroke:#000000;stroke-width:0.5;" x="64.4950674959" xlink:href="#m728421d6d4" y="183.816251639"/>
      </g>
     </g>
     <g id="line2d_43">
      <g>
       <use style="stroke:#000000;stroke-width:0.5;" x="848.88" xlink:href="#mcb0005524f" y="183.816251639"/>
      </g>
     </g>
     <g id="text_11">
      <!-- $1000$ -->
      <g transform="translate(33.1811129894 187.66579139)scale(0.14 -0.14)">
       <use transform="scale(0.996264009963)" xlink:href="#CMR17-49"/>
       <use transform="translate(45.6904771171 0.0)scale(0.996264009963)" xlink:href="#CMR17-48"/>
       <use transform="translate(91.3809542341 0.0)scale(0.996264009963)" xlink:href="#CMR17-48"/>
       <use transform="translate(137.071431351 0.0)scale(0.996264009963)" xlink:href="#CMR17-48"/>
      </g>
     </g>
    </g>
    <g id="ytick_4">
     <g id="line2d_44">
      <path clip-path="url(#p6beb79da72)" d="
M64.4951 156.783
L848.88 156.783" style="fill:none;stroke:#000000;stroke-dasharray:1.000000,3.000000;stroke-dashoffset:0.0;stroke-width:0.5;"/>
     </g>
     <g id="line2d_45">
      <g>
       <use style="stroke:#000000;stroke-width:0.5;" x="64.4950674959" xlink:href="#m728421d6d4" y="156.783467175"/>
      </g>
     </g>
     <g id="line2d_46">
      <g>
       <use style="stroke:#000000;stroke-width:0.5;" x="848.88" xlink:href="#mcb0005524f" y="156.783467175"/>
      </g>
     </g>
     <g id="text_12">
      <!-- $1500$ -->
      <g transform="translate(33.1811129894 160.633006926)scale(0.14 -0.14)">
       <use transform="scale(0.996264009963)" xlink:href="#CMR17-49"/>
       <use transform="translate(45.6904771171 0.0)scale(0.996264009963)" xlink:href="#CMR17-53"/>
       <use transform="translate(91.3809542341 0.0)scale(0.996264009963)" xlink:href="#CMR17-48"/>
       <use transform="translate(137.071431351 0.0)scale(0.996264009963)" xlink:href="#CMR17-48"/>
      </g>
     </g>
    </g>
    <g id="ytick_5">
     <g id="line2d_47">
      <path clip-path="url(#p6beb79da72)" d="
M64.4951 129.751
L848.88 129.751" style="fill:none;stroke:#000000;stroke-dasharray:1.000000,3.000000;stroke-dashoffset:0.0;stroke-width:0.5;"/>
     </g>
     <g id="line2d_48">
      <g>
       <use style="stroke:#000000;stroke-width:0.5;" x="64.4950674959" xlink:href="#m728421d6d4" y="129.750682712"/>
      </g>
     </g>
     <g id="line2d_49">
      <g>
       <use style="stroke:#000000;stroke-width:0.5;" x="848.88" xlink:href="#mcb0005524f" y="129.750682712"/>
      </g>
     </g>
     <g id="text_13">
      <!-- $2000$ -->
      <g transform="translate(33.1811129894 133.600222463)scale(0.14 -0.14)">
       <use transform="scale(0.996264009963)" xlink:href="#CMR17-50"/>
       <use transform="translate(45.6904771171 0.0)scale(0.996264009963)" xlink:href="#CMR17-48"/>
       <use transform="translate(91.3809542341 0.0)scale(0.996264009963)" xlink:href="#CMR17-48"/>
       <use transform="translate(137.071431351 0.0)scale(0.996264009963)" xlink:href="#CMR17-48"/>
      </g>
     </g>
    </g>
    <g id="ytick_6">
     <g id="line2d_50">
      <path clip-path="url(#p6beb79da72)" d="
M64.4951 102.718
L848.88 102.718" style="fill:none;stroke:#000000;stroke-dasharray:1.000000,3.000000;stroke-dashoffset:0.0;stroke-width:0.5;"/>
     </g>
     <g id="line2d_51">
      <g>
       <use style="stroke:#000000;stroke-width:0.5;" x="64.4950674959" xlink:href="#m728421d6d4" y="102.717898249"/>
      </g>
     </g>
     <g id="line2d_52">
      <g>
       <use style="stroke:#000000;stroke-width:0.5;" x="848.88" xlink:href="#mcb0005524f" y="102.717898249"/>
      </g>
     </g>
     <g id="text_14">
      <!-- $2500$ -->
      <g transform="translate(33.1811129894 106.567438)scale(0.14 -0.14)">
       <use transform="scale(0.996264009963)" xlink:href="#CMR17-50"/>
       <use transform="translate(45.6904771171 0.0)scale(0.996264009963)" xlink:href="#CMR17-53"/>
       <use transform="translate(91.3809542341 0.0)scale(0.996264009963)" xlink:href="#CMR17-48"/>
       <use transform="translate(137.071431351 0.0)scale(0.996264009963)" xlink:href="#CMR17-48"/>
      </g>
     </g>
    </g>
    <g id="ytick_7">
     <g id="line2d_53">
      <path clip-path="url(#p6beb79da72)" d="
M64.4951 75.6851
L848.88 75.6851" style="fill:none;stroke:#000000;stroke-dasharray:1.000000,3.000000;stroke-dashoffset:0.0;stroke-width:0.5;"/>
     </g>
     <g id="line2d_54">
      <g>
       <use style="stroke:#000000;stroke-width:0.5;" x="64.4950674959" xlink:href="#m728421d6d4" y="75.6851137853"/>
      </g>
     </g>
     <g id="line2d_55">
      <g>
       <use style="stroke:#000000;stroke-width:0.5;" x="848.88" xlink:href="#mcb0005524f" y="75.6851137853"/>
      </g>
     </g>
     <g id="text_15">
      <!-- $3000$ -->
      <g transform="translate(33.1811129894 79.5346535362)scale(0.14 -0.14)">
       <use transform="scale(0.996264009963)" xlink:href="#CMR17-51"/>
       <use transform="translate(45.6904771171 0.0)scale(0.996264009963)" xlink:href="#CMR17-48"/>
       <use transform="translate(91.3809542341 0.0)scale(0.996264009963)" xlink:href="#CMR17-48"/>
       <use transform="translate(137.071431351 0.0)scale(0.996264009963)" xlink:href="#CMR17-48"/>
      </g>
     </g>
    </g>
    <g id="ytick_8">
     <g id="line2d_56">
      <path clip-path="url(#p6beb79da72)" d="
M64.4951 48.6523
L848.88 48.6523" style="fill:none;stroke:#000000;stroke-dasharray:1.000000,3.000000;stroke-dashoffset:0.0;stroke-width:0.5;"/>
     </g>
     <g id="line2d_57">
      <g>
       <use style="stroke:#000000;stroke-width:0.5;" x="64.4950674959" xlink:href="#m728421d6d4" y="48.652329322"/>
      </g>
     </g>
     <g id="line2d_58">
      <g>
       <use style="stroke:#000000;stroke-width:0.5;" x="848.88" xlink:href="#mcb0005524f" y="48.652329322"/>
      </g>
     </g>
     <g id="text_16">
      <!-- $3500$ -->
      <g transform="translate(33.1811129894 52.5018690728)scale(0.14 -0.14)">
       <use transform="scale(0.996264009963)" xlink:href="#CMR17-51"/>
       <use transform="translate(45.6904771171 0.0)scale(0.996264009963)" xlink:href="#CMR17-53"/>
       <use transform="translate(91.3809542341 0.0)scale(0.996264009963)" xlink:href="#CMR17-48"/>
       <use transform="translate(137.071431351 0.0)scale(0.996264009963)" xlink:href="#CMR17-48"/>
      </g>
     </g>
    </g>
    <g id="ytick_9">
     <g id="line2d_59">
      <path clip-path="url(#p6beb79da72)" d="
M64.4951 21.6195
L848.88 21.6195" style="fill:none;stroke:#000000;stroke-dasharray:1.000000,3.000000;stroke-dashoffset:0.0;stroke-width:0.5;"/>
     </g>
     <g id="line2d_60">
      <g>
       <use style="stroke:#000000;stroke-width:0.5;" x="64.4950674959" xlink:href="#m728421d6d4" y="21.6195448586"/>
      </g>
     </g>
     <g id="line2d_61">
      <g>
       <use style="stroke:#000000;stroke-width:0.5;" x="848.88" xlink:href="#mcb0005524f" y="21.6195448586"/>
      </g>
     </g>
     <g id="text_17">
      <!-- $4000$ -->
      <defs>
       <path d="
M33.5938 64.3281
C33.5938 66.4062 33.5 66.5 31.7031 66.5
L2 19.5938
L2 17
L27.7969 17
L27.7969 7.14062
C27.7969 3.5 27.5938 2.5 20.5938 2.5
L18.7031 2.5
L18.7031 0
C21.9062 0 27.2969 0 30.7031 0
C34.0938 0 39.5 0 42.7031 0
L42.7031 2.5
L40.7969 2.5
C33.7969 2.5 33.5938 3.5 33.5938 7.14062
L33.5938 17
L43.7969 17
L43.7969 19.5938
L33.5938 19.5938
z

M28.0938 57.7656
L28.0938 19.5938
L4 19.5938
z
" id="CMR17-52"/>
      </defs>
      <g transform="translate(33.1811129894 25.4690846095)scale(0.14 -0.14)">
       <use transform="scale(0.996264009963)" xlink:href="#CMR17-52"/>
       <use transform="translate(45.6904771171 0.0)scale(0.996264009963)" xlink:href="#CMR17-48"/>
       <use transform="translate(91.3809542341 0.0)scale(0.996264009963)" xlink:href="#CMR17-48"/>
       <use transform="translate(137.071431351 0.0)scale(0.996264009963)" xlink:href="#CMR17-48"/>
      </g>
     </g>
    </g>
    <g id="text_18">
     <!-- Number of $\gamma\gamma$ events detected -->
     <defs>
      <path d="
M41.2031 0
L59.4062 0
L59.4062 4.70312
L56.9062 4.70312
C51.4062 4.70312 50.5938 5.59375 50.5938 11.9531
L50.5938 46.7812
L31.7969 46.7812
L31.7969 42
L36.9062 42
C40.5938 42 41.2031 41.2969 41.2031 36.9531
L41.2031 24.5625
C41.2031 18.8125 40.5938 15.4844 39.0938 12.1562
C37 7.71875 33 5.09375 28.0938 5.09375
C25 5.09375 22.4062 6.1875 21.0938 8.17188
C19.7969 10.0469 19.5938 11.0469 19.5938 16.5
L19.5938 46.7812
L2.09375 46.7812
L2.09375 42
L5.90625 42
C9.59375 42 10.2031 41.2969 10.2031 36.9531
L10.2031 15.2188
C10.2031 10.0781 10.5938 7.76562 12.0938 5.45312
C14.7969 1.3125 19.5938 -1 25.5938 -1
C32.2031 -1 36.7969 1.71875 41.2031 8.125
z
" id="Century_Schoolbook_L_Roman-117"/>
      <path d="
M39 48
L35.5 48
L32.5938 44.4062
C29 47.2031 25.4062 48.3906 20.4062 48.3906
C11.5938 48.3906 5.79688 42.625 5.79688 33.9531
C5.79688 30.0781 7.09375 26.7812 9.29688 24.8125
C11.5938 22.7031 13.9062 21.7188 19.9062 20.3125
L25.2031 19.125
C33.0938 17.2344 35.9062 15.2344 35.9062 11.2656
C35.9062 6.57812 31.7969 3.29688 25.9062 3.29688
C17.5 3.29688 11.5 8.76562 9.09375 18.875
L5.09375 18.875
L5.09375 0
L8.59375 0
L12.0938 3.90625
C16.2031 0.59375 20.7969 -1 25.7969 -1
C35.5938 -1 42.0938 5.07812 42.0938 14.3438
C42.0938 18.7188 40.7031 22.0938 37.9062 24.3906
C35.5 26.4844 33.5 27.2812 27.4062 28.5625
L22.4062 29.6719
C16.9062 30.8594 16.9062 30.8594 15.0938 31.8594
C12.9062 32.8594 11.5938 34.9375 11.5938 37.1406
C11.5938 41.1094 15.4062 44 20.9062 44
C24.7031 44 27.7969 42.7031 30.5938 40.0156
C32.7969 37.8125 33.9062 35.8281 35.5 31.2344
L39 31.2344
z
" id="Century_Schoolbook_L_Roman-115"/>
      <path d="
M18 73
L0.796875 73
L0.796875 68.2188
L4.29688 68.2188
C8 68.2188 8.59375 67.5156 8.59375 63.25
L8.59375 24.625
C8.59375 11.3125 8.09375 4.84375 6.79688 -1
L10.5938 -1
L15.5 6.75
C19.5938 1.45312 24.2969 -1 30.5 -1
C42.7969 -1 52 9.59375 52 23.8281
C52 38.0781 43.5938 48.0781 31.5938 48.0781
C25.5 48.0781 21.7969 46 18 40.3281
z

M29.7969 43
C37.2969 43 41.5 35.7656 41.5 22.7969
C41.5 10.3125 37.4062 3.1875 30.0938 3.1875
C22.2031 3.1875 17.5 10.4062 17.5 22.5938
C17.5 35.7656 21.7969 43 29.7969 43" id="Century_Schoolbook_L_Roman-98"/>
      <path d="
M38 0
L55.4062 0
L55.4062 4.70312
L53.5938 4.70312
C48.2031 4.70312 47.4062 5.70312 47.4062 11.9688
L47.4062 73.7812
L27.7969 73.7812
L27.7969 69
L33.7031 69
C37.2969 69 38 68.2812 38 63.9219
L38 41
C34.2969 46.0938 30 48.3906 24.2031 48.3906
C12.9062 48.3906 4.29688 37.5469 4.29688 23.2031
C4.29688 9.0625 12.5938 -1 24.2031 -1
C30.5 -1 34.7969 1.67188 38 7.59375
z

M26.2031 43
C30.2969 43 34.2031 40.0312 36 35.4375
C37.2031 32.4531 37.9062 28.2812 37.9062 23.5156
C37.9062 11.9688 33.2969 4.39062 26.0938 4.39062
C19.0938 4.39062 14.7969 10.9688 14.7969 22.0156
C14.7969 27.8906 15.4062 32.3594 16.7031 35.7344
C18.4062 40.125 22.0938 43 26.2031 43" id="Century_Schoolbook_L_Roman-100"/>
      <path d="
M22.5 72
L1.90625 72
L1.90625 67.3125
L4.40625 67.3125
C9.5 67.3125 11.7969 66.5 13.5938 64.0156
L13.5938 21.5
C13.5938 7.78125 11.5938 4.89062 2 4.89062
L2 0
L30.5 0
L30.5 4.89062
C21 4.89062 19 7.79688 19 21.5
L19 58.6406
L63.5938 -1.6875
L67.7969 -1.6875
L67.7969 50.5938
C67.7969 64.3906 69.7969 67.3125 79.4062 67.3125
L79.4062 72
L50.9062 72
L50.9062 67.3125
C60.4062 67.3125 62.4062 64.4062 62.4062 50.625
L62.4062 19.0469
z
" id="Century_Schoolbook_L_Roman-78"/>
      <path d="
M29.5 12.0938
L18.0938 38.5938
C17.7969 39.2031 17.5938 40.0938 17.5938 40.7031
C17.5938 42.3906 18.9062 43 23 43
L24.4062 43
L24.4062 46.5938
L0.796875 46.5938
L0.796875 43
L1.59375 43
C5.40625 43 6.79688 42.0938 8.20312 38.7031
L25.4062 -1.5
L28.9062 -1.5
L43.0938 33.5938
C45.7969 40.2031 48.5938 43 52.4062 43
L52.7969 43
L52.7969 46.5938
L32.7969 46.5938
L32.7969 43
L34.2031 43
C37.7031 43 39.5938 41.7969 39.5938 39.5
C39.5938 38.3906 39.2031 36.7969 38.7031 35.2969
z
" id="Century_Schoolbook_L_Roman-118"/>
      <path d="
M37.7969 12.0781
C37.5938 16.9844 37.4062 24.6875 33.5938 33.7031
C31.5938 38.7031 28.2031 44 20.9062 44
C8.59375 44 1.90625 28.3125 1.90625 25.7031
C1.90625 24.7969 2.59375 24.7969 2.90625 24.7969
C3.79688 24.7969 3.79688 25 4.29688 26.2969
C6.40625 32.5156 12.7969 37.4219 19.7031 37.4219
C33.5938 37.4219 35.5938 21.8906 35.5938 11.9844
C35.5938 5.65625 34.9062 3.5625 34.2969 1.5625
C32.4062 -4.64062 29.0938 -17.0625 29.0938 -19.875
C29.0938 -20.6719 29.4062 -21.5781 30.2031 -21.5781
C31.7031 -21.5781 32.5938 -18.2656 33.7031 -14.25
C36.0938 -5.45312 36.7031 -1.04688 37.2031 2.95312
C37.5 5.35938 43.2031 21.875 51.0938 37.6094
C51.7969 39.2031 53.2031 41.9062 53.2031 42.2031
C53.2031 42.3125 53.0938 43.0156 52.2031 43.0156
C52 43.0156 51.5 43.0156 51.2969 42.6094
C51.0938 42.4062 47.5938 35.6094 44.5938 28.7969
C43.0938 25.4062 41.0938 20.8906 37.7969 12.0781" id="CMMI12-13"/>
     </defs>
     <g transform="translate(25.4690846095 225.672067303)rotate(-90.0)scale(0.14 -0.14)">
      <use transform="scale(0.996264009963)" xlink:href="#Century_Schoolbook_L_Roman-78"/>
      <use transform="translate(81.1945134943 0.0)scale(0.996264009963)" xlink:href="#Century_Schoolbook_L_Roman-117"/>
      <use transform="translate(142.066144171 0.0)scale(0.996264009963)" xlink:href="#Century_Schoolbook_L_Roman-109"/>
      <use transform="translate(230.633050864 0.0)scale(0.996264009963)" xlink:href="#Century_Schoolbook_L_Roman-98"/>
      <use transform="translate(286.024727827 0.0)scale(0.996264009963)" xlink:href="#Century_Schoolbook_L_Roman-101"/>
      <use transform="translate(335.837928325 0.0)scale(0.996264009963)" xlink:href="#Century_Schoolbook_L_Roman-114"/>
      <use transform="translate(407.766666626 0.0)scale(0.996264009963)" xlink:href="#Century_Schoolbook_L_Roman-111"/>
      <use transform="translate(457.579867124 0.0)scale(0.996264009963)" xlink:href="#Century_Schoolbook_L_Roman-102"/>
      <use transform="translate(518.450266457 0.0)scale(0.996264009963)" xlink:href="#CMMI12-13"/>
      <use transform="translate(574.468834522 0.0)scale(0.996264009963)" xlink:href="#CMMI12-13"/>
      <use transform="translate(658.18257219 0.0)scale(0.996264009963)" xlink:href="#Century_Schoolbook_L_Roman-101"/>
      <use transform="translate(707.995772688 0.0)scale(0.996264009963)" xlink:href="#Century_Schoolbook_L_Roman-118"/>
      <use transform="translate(761.495116579 0.0)scale(0.996264009963)" xlink:href="#Century_Schoolbook_L_Roman-101"/>
      <use transform="translate(811.308317078 0.0)scale(0.996264009963)" xlink:href="#Century_Schoolbook_L_Roman-110"/>
      <use transform="translate(872.179947755 0.0)scale(0.996264009963)" xlink:href="#Century_Schoolbook_L_Roman-116"/>
      <use transform="translate(910.933653949 0.0)scale(0.996264009963)" xlink:href="#Century_Schoolbook_L_Roman-115"/>
      <use transform="translate(984.754634111 0.0)scale(0.996264009963)" xlink:href="#Century_Schoolbook_L_Roman-100"/>
      <use transform="translate(1041.9401214 0.0)scale(0.996264009963)" xlink:href="#Century_Schoolbook_L_Roman-101"/>
      <use transform="translate(1091.75332189 0.0)scale(0.996264009963)" xlink:href="#Century_Schoolbook_L_Roman-116"/>
      <use transform="translate(1130.50702809 0.0)scale(0.996264009963)" xlink:href="#Century_Schoolbook_L_Roman-101"/>
      <use transform="translate(1180.32022859 0.0)scale(0.996264009963)" xlink:href="#Century_Schoolbook_L_Roman-99"/>
      <use transform="translate(1224.55379728 0.0)scale(0.996264009963)" xlink:href="#Century_Schoolbook_L_Roman-116"/>
      <use transform="translate(1263.30750348 0.0)scale(0.996264009963)" xlink:href="#Century_Schoolbook_L_Roman-101"/>
      <use transform="translate(1313.12070398 0.0)scale(0.996264009963)" xlink:href="#Century_Schoolbook_L_Roman-100"/>
     </g>
    </g>
   </g>
   <g id="patch_3">
    <path d="
M64.4951 21.6195
L848.88 21.6195" style="fill:none;stroke:#000000;"/>
   </g>
   <g id="patch_4">
    <path d="
M848.88 237.882
L848.88 21.6195" style="fill:none;stroke:#000000;"/>
   </g>
   <g id="patch_5">
    <path d="
M64.4951 237.882
L848.88 237.882" style="fill:none;stroke:#000000;"/>
   </g>
   <g id="patch_6">
    <path d="
M64.4951 237.882
L64.4951 21.6195" style="fill:none;stroke:#000000;"/>
   </g>
   <g id="legend_1">
    <g id="patch_7">
     <path d="
M273.604 229.482
L639.771 229.482
L639.771 176.444
L273.604 176.444
L273.604 229.482
z
" style="fill:#ffffff;stroke:#000000;"/>
    </g>
    <g id="LineCollection_5">
     <defs>
      <path d="
M285.364 -89.8971
L285.364 -106.697" id="C4_0_72b801e7cb"/>
      <path d="
M308.884 -89.8971
L308.884 -106.697" id="C4_1_9cef66d084"/>
     </defs>
     <use style="fill:none;stroke:#ff0000;" x="0.0" xlink:href="#C4_0_72b801e7cb" y="288.0"/>
     <use style="fill:none;stroke:#ff0000;" x="0.0" xlink:href="#C4_1_9cef66d084" y="288.0"/>
    </g>
    <g id="line2d_62">
     <g>
      <use style="fill:#ff0000;stroke:#ff0000;stroke-width:0.5;" x="285.363940582" xlink:href="#m12d35e2592" y="198.102891574"/>
      <use style="fill:#ff0000;stroke:#ff0000;stroke-width:0.5;" x="308.883940582" xlink:href="#m12d35e2592" y="198.102891574"/>
     </g>
    </g>
    <g id="line2d_63">
     <g>
      <use style="fill:#ff0000;stroke:#ff0000;stroke-width:0.5;" x="285.363940582" xlink:href="#m12d35e2592" y="181.302891574"/>
      <use style="fill:#ff0000;stroke:#ff0000;stroke-width:0.5;" x="308.883940582" xlink:href="#m12d35e2592" y="181.302891574"/>
     </g>
    </g>
    <g id="line2d_64"/>
    <g id="line2d_65">
     <g>
      <use style="fill:#ff0000;stroke:#000000;stroke-linejoin:bevel;stroke-width:0.5;" x="285.363940582" xlink:href="#mffc86915ee" y="189.702891574"/>
      <use style="fill:#ff0000;stroke:#000000;stroke-linejoin:bevel;stroke-width:0.5;" x="308.883940582" xlink:href="#mffc86915ee" y="189.702891574"/>
     </g>
    </g>
    <g id="text_19">
     <!-- 30A unwrapped -->
     <defs>
      <path d="
M37.7969 73.5
L33.5938 73.5
L10.5938 15.2656
C8.59375 10.0781 8.20312 9.375 6.70312 7.78125
C5.09375 5.89062 2.29688 4.6875 -0.40625 4.6875
L-0.796875 4.6875
L-0.796875 0
L25.7031 0
L25.7031 4.6875
L23.7031 4.6875
C18.2969 4.6875 15.5938 6.625 15.5938 10.4531
C15.5938 11.6719 15.9062 13.0781 16.5 14.7031
L19.7969 23.6094
L46.2969 23.6094
L51.7031 10.0625
C52.2969 8.53125 52.5 7.82812 52.5 7.3125
C52.5 5.70312 50 4.6875 46.2969 4.6875
L42.0938 4.6875
L42.0938 0
L73.0938 0
L73.0938 4.6875
L71.7031 4.6875
C66.7031 4.6875 65.5938 5.48438 63.2969 11.0781
z

M32.9062 57.2031
L44.2031 29
L21.7969 29
z
" id="Century_Schoolbook_L_Roman-65"/>
      <path d="
M34.5938 36.8125
C36 37.3125 36.2031 37.3125 36.9062 37.6094
C43.9062 40.5625 47.9062 46.2656 47.9062 53.4844
C47.9062 64.0625 39.9062 71 27.5 71
C15.7969 71 6.90625 63.9688 6.90625 54.7188
C6.90625 50.5469 9.70312 47.5938 13.5 47.5938
C17 47.5938 19.4062 50.0469 19.4062 53.7188
C19.4062 55.875 18.5938 57.2969 16.2969 58.9375
C15.2969 59.6406 15 60.1562 15 60.7812
C15 63.6406 20.9062 66.7031 26.5 66.7031
C33.7031 66.7031 37.5 62.125 37.5 53.4688
C37.5 43.9844 33.7031 39 26.5 39
C25.5938 39 24 39 22.5 39
C21.7031 39 20.9062 39 20.2969 39
C18.2031 39 17.0938 38.125 17.0938 36.4062
C17.0938 34.7812 18.2031 34.0156 20.2031 34.0156
C20.5 34.0156 21.2969 34.0156 22.5938 34.0156
C26.4062 34.0156 26.5 34.0156 27.2969 34.0156
C34.7031 34.0156 38.7031 28.8281 38.7031 19.1406
C38.7031 9.0625 33.5938 3.29688 24.7031 3.29688
C18.4062 3.29688 11.5938 6.64062 11.5938 9.6875
C11.5938 10.5938 11.7969 10.7656 13.7969 11.875
C16.5938 13.5312 17.7031 15.2188 17.7031 17.6562
C17.7031 21.2031 15 23.875 11.2969 23.875
C7.09375 23.875 4.20312 20.3281 4.20312 15.1875
C4.20312 5.60938 13.0938 -1 25.9062 -1
C40.2969 -1 49.7969 6.89062 49.7969 19.0469
C49.7969 28.3125 44.9062 33.9375 34.5938 36.8125" id="Century_Schoolbook_L_Roman-51"/>
      <path d="
M28.4062 71
C14.4062 71 4.20312 55.6875 4.20312 34.75
C4.20312 14.125 14.0938 -1 27.5938 -1
C41.5938 -1 51.4062 13.625 51.4062 34.4375
C51.4062 45.0625 49.2031 53.875 45 60.7812
C41.0938 67.0938 34.7031 71 28.4062 71
M27.7031 66.7031
C31 66.7031 34.2031 64.5 36.5938 60.5
C39.2969 55.875 40.2031 49.9688 40.2031 36.25
C40.2031 22.2188 39.5 15.625 37.5 11.2031
C35.2031 6.29688 31.5938 3.29688 27.7969 3.29688
C24.5 3.29688 21.2969 5.5 18.9062 9.5
C16.0938 14.2188 15.2969 20.5312 15.2969 36.8594
C15.2969 48.4844 16 54.375 18 58.6875
C20.2969 63.7969 23.9062 66.7031 27.7031 66.7031" id="Century_Schoolbook_L_Roman-48"/>
      <path d="
M54.7031 12.9062
L44.9062 38.6094
C44.5938 39.2969 44.5 39.7969 44.5 40.7031
C44.5 42.5 45.4062 43 48.7031 43
L51.0938 43
L51.0938 46.5938
L28.7031 46.5938
L28.7031 43
L30.4062 43
C33.5 43 34.7031 42.2031 35.5938 39.2969
L36.5 36.6875
L27.7031 13.4062
L18 38.5
C17.7969 39.2031 17.5938 40.0938 17.5938 40.7031
C17.5938 42.3906 18.7031 43 21.7031 43
L23.5 43
L23.5 46.5938
L1.5 46.5938
L1.5 43
L3.29688 43
C6.09375 43 7.09375 42.0938 8.5 38.0938
L23.5 -1.5
L27 -1.5
L38.9062 30.0938
L51.0938 -1.5
L54.2031 -1.5
L68.2031 35.3906
C70.4062 41.2969 72.0938 43 75.5938 43
L76.2969 43
L76.2969 46.5938
L57.4062 46.5938
L57.4062 43
L59.0938 43
C62.5938 43 64 41.8906 64 39.4062
C64 38.4062 63.7031 36.8906 63.2031 35.6875
z
" id="Century_Schoolbook_L_Roman-119"/>
     </defs>
     <g transform="translate(327.363940582 195.582891574)scale(0.168 -0.168)">
      <use transform="scale(0.996264009963)" xlink:href="#Century_Schoolbook_L_Roman-51"/>
      <use transform="translate(55.3916769633 0.0)scale(0.996264009963)" xlink:href="#Century_Schoolbook_L_Roman-48"/>
      <use transform="translate(110.783353927 0.0)scale(0.996264009963)" xlink:href="#Century_Schoolbook_L_Roman-65"/>
      <use transform="translate(210.408508377 0.0)scale(0.996264009963)" xlink:href="#Century_Schoolbook_L_Roman-117"/>
      <use transform="translate(271.280139054 0.0)scale(0.996264009963)" xlink:href="#Century_Schoolbook_L_Roman-110"/>
      <use transform="translate(332.151769731 0.0)scale(0.996264009963)" xlink:href="#Century_Schoolbook_L_Roman-119"/>
      <use transform="translate(409.660139832 0.0)scale(0.996264009963)" xlink:href="#Century_Schoolbook_L_Roman-114"/>
      <use transform="translate(453.89370853 0.0)scale(0.996264009963)" xlink:href="#Century_Schoolbook_L_Roman-97"/>
      <use transform="translate(509.285385493 0.0)scale(0.996264009963)" xlink:href="#Century_Schoolbook_L_Roman-112"/>
      <use transform="translate(566.470872777 0.0)scale(0.996264009963)" xlink:href="#Century_Schoolbook_L_Roman-112"/>
      <use transform="translate(623.656360061 0.0)scale(0.996264009963)" xlink:href="#Century_Schoolbook_L_Roman-101"/>
      <use transform="translate(673.469560559 0.0)scale(0.996264009963)" xlink:href="#Century_Schoolbook_L_Roman-100"/>
     </g>
    </g>
    <g id="LineCollection_6">
     <defs>
      <path d="
M285.364 -65.8982
L285.364 -82.6982" id="C5_0_dba3e90769"/>
      <path d="
M308.884 -65.8982
L308.884 -82.6982" id="C5_1_d6d40cb1b0"/>
     </defs>
     <use style="fill:none;stroke:#ff0000;" x="0.0" xlink:href="#C5_0_dba3e90769" y="288.0"/>
     <use style="fill:none;stroke:#ff0000;" x="0.0" xlink:href="#C5_1_d6d40cb1b0" y="288.0"/>
    </g>
    <g id="line2d_66">
     <g>
      <use style="fill:#ff0000;stroke:#ff0000;stroke-width:0.5;" x="285.363940582" xlink:href="#m12d35e2592" y="222.101805315"/>
      <use style="fill:#ff0000;stroke:#ff0000;stroke-width:0.5;" x="308.883940582" xlink:href="#m12d35e2592" y="222.101805315"/>
     </g>
    </g>
    <g id="line2d_67">
     <g>
      <use style="fill:#ff0000;stroke:#ff0000;stroke-width:0.5;" x="285.363940582" xlink:href="#m12d35e2592" y="205.301805315"/>
      <use style="fill:#ff0000;stroke:#ff0000;stroke-width:0.5;" x="308.883940582" xlink:href="#m12d35e2592" y="205.301805315"/>
     </g>
    </g>
    <g id="line2d_68"/>
    <g id="line2d_69">
     <g>
      <use style="fill:#ff0000;stroke:#000000;stroke-linejoin:miter;stroke-width:0.5;" x="285.363940582" xlink:href="#m22ca2eebfc" y="213.701805315"/>
      <use style="fill:#ff0000;stroke:#000000;stroke-linejoin:miter;stroke-width:0.5;" x="308.883940582" xlink:href="#m22ca2eebfc" y="213.701805315"/>
     </g>
    </g>
    <g id="text_20">
     <!-- 30B unwrapped -->
     <defs>
      <path d="
M3 72
L3 67.3125
L4.79688 67.3125
C12.9062 67.3125 13.7969 66.8125 13.7969 62.6094
L13.7969 59.7188
L13.7969 12.2812
L13.7969 9.375
C13.7969 5.1875 12.9062 4.6875 4.79688 4.6875
L3 4.6875
L3 0
L39.2969 0
C56.5938 0 67 7.40625 67 19.5938
C67 29.4844 60.5938 35.2969 47 37.6875
C51.7969 38.6875 54 39.5781 56.5 41.4688
C60.7031 44.5469 63.2031 49.4219 63.2031 54.5
C63.2031 60.8594 59.2031 67.125 53.4062 69.6094
C49.7969 71.2031 44.7969 72 38.9062 72
z

M25 39.6875
L25 62.3281
C25 66.2031 26.4062 67.3125 31.5938 67.3125
L35.5938 67.3125
C40.2031 67.3125 44 66.6094 46.0938 65.2188
C49.7031 63.0312 51.5938 58.75 51.5938 53.2031
C51.5938 43.4688 46.7031 39.6875 33.9062 39.6875
z

M25 35
L33.7969 35
C40.2031 35 44.5 34.3906 47.5 33.0938
C52.2031 30.8906 54.7031 26.5 54.7031 19.8906
C54.7031 13.5938 52.5 8.89062 48.5938 6.98438
C45.5 5.39062 41.2969 4.6875 35 4.6875
L30.7969 4.6875
C25.7031 4.6875 25 5.48438 25 11
z
" id="Century_Schoolbook_L_Roman-66"/>
     </defs>
     <g transform="translate(327.363940582 219.581805315)scale(0.168 -0.168)">
      <use transform="scale(0.996264009963)" xlink:href="#Century_Schoolbook_L_Roman-51"/>
      <use transform="translate(55.3916769633 0.0)scale(0.996264009963)" xlink:href="#Century_Schoolbook_L_Roman-48"/>
      <use transform="translate(110.783353927 0.0)scale(0.996264009963)" xlink:href="#Century_Schoolbook_L_Roman-66"/>
      <use transform="translate(210.408508377 0.0)scale(0.996264009963)" xlink:href="#Century_Schoolbook_L_Roman-117"/>
      <use transform="translate(271.280139054 0.0)scale(0.996264009963)" xlink:href="#Century_Schoolbook_L_Roman-110"/>
      <use transform="translate(332.151769731 0.0)scale(0.996264009963)" xlink:href="#Century_Schoolbook_L_Roman-119"/>
      <use transform="translate(409.660139832 0.0)scale(0.996264009963)" xlink:href="#Century_Schoolbook_L_Roman-114"/>
      <use transform="translate(453.89370853 0.0)scale(0.996264009963)" xlink:href="#Century_Schoolbook_L_Roman-97"/>
      <use transform="translate(509.285385493 0.0)scale(0.996264009963)" xlink:href="#Century_Schoolbook_L_Roman-112"/>
      <use transform="translate(566.470872777 0.0)scale(0.996264009963)" xlink:href="#Century_Schoolbook_L_Roman-112"/>
      <use transform="translate(623.656360061 0.0)scale(0.996264009963)" xlink:href="#Century_Schoolbook_L_Roman-101"/>
      <use transform="translate(673.469560559 0.0)scale(0.996264009963)" xlink:href="#Century_Schoolbook_L_Roman-100"/>
     </g>
    </g>
    <g id="LineCollection_7">
     <defs>
      <path d="
M488.754 -89.8971
L488.754 -106.697" id="C6_0_c50064170d"/>
      <path d="
M512.274 -89.8971
L512.274 -106.697" id="C6_1_25f4cc593c"/>
     </defs>
     <use style="fill:none;stroke:#008000;" x="0.0" xlink:href="#C6_0_c50064170d" y="288.0"/>
     <use style="fill:none;stroke:#008000;" x="0.0" xlink:href="#C6_1_25f4cc593c" y="288.0"/>
    </g>
    <g id="line2d_70">
     <g>
      <use style="fill:#008000;stroke:#008000;stroke-width:0.5;" x="488.753970377" xlink:href="#m1ef3793437" y="198.102891574"/>
      <use style="fill:#008000;stroke:#008000;stroke-width:0.5;" x="512.273970377" xlink:href="#m1ef3793437" y="198.102891574"/>
     </g>
    </g>
    <g id="line2d_71">
     <g>
      <use style="fill:#008000;stroke:#008000;stroke-width:0.5;" x="488.753970377" xlink:href="#m1ef3793437" y="181.302891574"/>
      <use style="fill:#008000;stroke:#008000;stroke-width:0.5;" x="512.273970377" xlink:href="#m1ef3793437" y="181.302891574"/>
     </g>
    </g>
    <g id="line2d_72"/>
    <g id="line2d_73">
     <g>
      <use style="fill:#008000;stroke:#000000;stroke-linejoin:bevel;stroke-width:0.5;" x="488.753970377" xlink:href="#m78c097fb03" y="189.702891574"/>
      <use style="fill:#008000;stroke:#000000;stroke-linejoin:bevel;stroke-width:0.5;" x="512.273970377" xlink:href="#m78c097fb03" y="189.702891574"/>
     </g>
    </g>
    <g id="text_21">
     <!-- 30A wrapped -->
     <g transform="translate(530.753970377 195.582891574)scale(0.168 -0.168)">
      <use transform="scale(0.996264009963)" xlink:href="#Century_Schoolbook_L_Roman-51"/>
      <use transform="translate(55.3916769633 0.0)scale(0.996264009963)" xlink:href="#Century_Schoolbook_L_Roman-48"/>
      <use transform="translate(110.783353927 0.0)scale(0.996264009963)" xlink:href="#Century_Schoolbook_L_Roman-65"/>
      <use transform="translate(210.408508377 0.0)scale(0.996264009963)" xlink:href="#Century_Schoolbook_L_Roman-119"/>
      <use transform="translate(287.916878478 0.0)scale(0.996264009963)" xlink:href="#Century_Schoolbook_L_Roman-114"/>
      <use transform="translate(332.150447176 0.0)scale(0.996264009963)" xlink:href="#Century_Schoolbook_L_Roman-97"/>
      <use transform="translate(387.542124139 0.0)scale(0.996264009963)" xlink:href="#Century_Schoolbook_L_Roman-112"/>
      <use transform="translate(444.727611423 0.0)scale(0.996264009963)" xlink:href="#Century_Schoolbook_L_Roman-112"/>
      <use transform="translate(501.913098707 0.0)scale(0.996264009963)" xlink:href="#Century_Schoolbook_L_Roman-101"/>
      <use transform="translate(551.726299205 0.0)scale(0.996264009963)" xlink:href="#Century_Schoolbook_L_Roman-100"/>
     </g>
    </g>
    <g id="LineCollection_8">
     <defs>
      <path d="
M488.754 -65.8982
L488.754 -82.6982" id="C7_0_ca9933f895"/>
      <path d="
M512.274 -65.8982
L512.274 -82.6982" id="C7_1_b514214343"/>
     </defs>
     <use style="fill:none;stroke:#008000;" x="0.0" xlink:href="#C7_0_ca9933f895" y="288.0"/>
     <use style="fill:none;stroke:#008000;" x="0.0" xlink:href="#C7_1_b514214343" y="288.0"/>
    </g>
    <g id="line2d_74">
     <g>
      <use style="fill:#008000;stroke:#008000;stroke-width:0.5;" x="488.753970377" xlink:href="#m1ef3793437" y="222.101805315"/>
      <use style="fill:#008000;stroke:#008000;stroke-width:0.5;" x="512.273970377" xlink:href="#m1ef3793437" y="222.101805315"/>
     </g>
    </g>
    <g id="line2d_75">
     <g>
      <use style="fill:#008000;stroke:#008000;stroke-width:0.5;" x="488.753970377" xlink:href="#m1ef3793437" y="205.301805315"/>
      <use style="fill:#008000;stroke:#008000;stroke-width:0.5;" x="512.273970377" xlink:href="#m1ef3793437" y="205.301805315"/>
     </g>
    </g>
    <g id="line2d_76"/>
    <g id="line2d_77">
     <g>
      <use style="fill:#008000;stroke:#000000;stroke-linejoin:miter;stroke-width:0.5;" x="488.753970377" xlink:href="#md7f788f78c" y="213.701805315"/>
      <use style="fill:#008000;stroke:#000000;stroke-linejoin:miter;stroke-width:0.5;" x="512.273970377" xlink:href="#md7f788f78c" y="213.701805315"/>
     </g>
    </g>
    <g id="text_22">
     <!-- 30B wrapped -->
     <g transform="translate(530.753970377 219.581805315)scale(0.168 -0.168)">
      <use transform="scale(0.996264009963)" xlink:href="#Century_Schoolbook_L_Roman-51"/>
      <use transform="translate(55.3916769633 0.0)scale(0.996264009963)" xlink:href="#Century_Schoolbook_L_Roman-48"/>
      <use transform="translate(110.783353927 0.0)scale(0.996264009963)" xlink:href="#Century_Schoolbook_L_Roman-66"/>
      <use transform="translate(210.408508377 0.0)scale(0.996264009963)" xlink:href="#Century_Schoolbook_L_Roman-119"/>
      <use transform="translate(287.916878478 0.0)scale(0.996264009963)" xlink:href="#Century_Schoolbook_L_Roman-114"/>
      <use transform="translate(332.150447176 0.0)scale(0.996264009963)" xlink:href="#Century_Schoolbook_L_Roman-97"/>
      <use transform="translate(387.542124139 0.0)scale(0.996264009963)" xlink:href="#Century_Schoolbook_L_Roman-112"/>
      <use transform="translate(444.727611423 0.0)scale(0.996264009963)" xlink:href="#Century_Schoolbook_L_Roman-112"/>
      <use transform="translate(501.913098707 0.0)scale(0.996264009963)" xlink:href="#Century_Schoolbook_L_Roman-101"/>
      <use transform="translate(551.726299205 0.0)scale(0.996264009963)" xlink:href="#Century_Schoolbook_L_Roman-100"/>
     </g>
    </g>
   </g>
  </g>
 </g>
 <defs>
  <clipPath id="p6beb79da72">
   <rect height="216.262275707" width="784.384932504" x="64.4950674959" y="21.6195448586"/>
  </clipPath>
 </defs>
</svg>
