<?xml version="1.0" encoding="utf-8" standalone="no"?>
<!DOCTYPE svg PUBLIC "-//W3C//DTD SVG 1.1//EN"
  "http://www.w3.org/Graphics/SVG/1.1/DTD/svg11.dtd">
<!-- Created with matplotlib (http://matplotlib.org/) -->
<svg height="288pt" version="1.1" viewBox="0 0 864 288" width="864pt" xmlns="http://www.w3.org/2000/svg" xmlns:xlink="http://www.w3.org/1999/xlink">
 <defs>
  <style type="text/css">
*{stroke-linecap:butt;stroke-linejoin:round;}
  </style>
 </defs>
 <g id="figure_1">
  <g id="patch_1">
   <path d="
M0 288
L864 288
L864 0
L0 0
z
" style="fill:#ffffff;"/>
  </g>
  <g id="axes_1">
   <g id="patch_2">
    <path d="
M55.7241 240.84
L851.04 240.84
L851.04 19.26
L55.7241 19.26
z
" style="fill:#ffffff;"/>
   </g>
   <g id="LineCollection_1">
    <defs>
     <path d="
M277.945 -197.682
L277.945 -217.479" id="C0_0_200eef4241"/>
     <path d="
M745.778 -163.32
L745.778 -183.617" id="C0_1_c9885314f5"/>
     <path d="
M511.861 -181.875
L511.861 -202.765" id="C0_2_a2de6c0382"/>
     <path d="
M394.903 -192.071
L394.903 -211.56" id="C0_3_5656e956c1"/>
     <path d="
M628.819 -166.031
L628.819 -185.585" id="C0_4_35d2f69f99"/>
     <path d="
M160.986 -216.047
L160.986 -235.967" id="C0_5_ef9fb59782"/>
    </defs>
    <g clip-path="url(#pc6df0afb6d)">
     <use style="fill:none;stroke:#0000ff;" x="0.0" xlink:href="#C0_0_200eef4241" y="288.0"/>
    </g>
    <g clip-path="url(#pc6df0afb6d)">
     <use style="fill:none;stroke:#0000ff;" x="0.0" xlink:href="#C0_1_c9885314f5" y="288.0"/>
    </g>
    <g clip-path="url(#pc6df0afb6d)">
     <use style="fill:none;stroke:#0000ff;" x="0.0" xlink:href="#C0_2_a2de6c0382" y="288.0"/>
    </g>
    <g clip-path="url(#pc6df0afb6d)">
     <use style="fill:none;stroke:#0000ff;" x="0.0" xlink:href="#C0_3_5656e956c1" y="288.0"/>
    </g>
    <g clip-path="url(#pc6df0afb6d)">
     <use style="fill:none;stroke:#0000ff;" x="0.0" xlink:href="#C0_4_35d2f69f99" y="288.0"/>
    </g>
    <g clip-path="url(#pc6df0afb6d)">
     <use style="fill:none;stroke:#0000ff;" x="0.0" xlink:href="#C0_5_ef9fb59782" y="288.0"/>
    </g>
   </g>
   <g id="LineCollection_2">
    <defs>
     <path d="
M804.257 -127.8
L804.257 -253.338" id="C1_0_c6ad0c153e"/>
     <path d="
M570.34 -184.712
L570.34 -204.646" id="C1_1_b43718ae2f"/>
     <path d="
M687.298 -155.775
L687.298 -180.192" id="C1_2_3c398b0dd9"/>
     <path d="
M453.382 -177.353
L453.382 -198.34" id="C1_3_06888b94c2"/>
     <path d="
M336.424 -178.805
L336.424 -201.256" id="C1_4_50df4e2223"/>
     <path d="
M219.466 -188.485
L219.466 -208.916" id="C1_5_8adb891a56"/>
     <path d="
M102.507 -183.306
L102.507 -205.34" id="C1_6_addca795f0"/>
    </defs>
    <g clip-path="url(#pc6df0afb6d)">
     <use style="fill:none;stroke:#0000ff;" x="0.0" xlink:href="#C1_0_c6ad0c153e" y="288.0"/>
    </g>
    <g clip-path="url(#pc6df0afb6d)">
     <use style="fill:none;stroke:#0000ff;" x="0.0" xlink:href="#C1_1_b43718ae2f" y="288.0"/>
    </g>
    <g clip-path="url(#pc6df0afb6d)">
     <use style="fill:none;stroke:#0000ff;" x="0.0" xlink:href="#C1_2_3c398b0dd9" y="288.0"/>
    </g>
    <g clip-path="url(#pc6df0afb6d)">
     <use style="fill:none;stroke:#0000ff;" x="0.0" xlink:href="#C1_3_06888b94c2" y="288.0"/>
    </g>
    <g clip-path="url(#pc6df0afb6d)">
     <use style="fill:none;stroke:#0000ff;" x="0.0" xlink:href="#C1_4_50df4e2223" y="288.0"/>
    </g>
    <g clip-path="url(#pc6df0afb6d)">
     <use style="fill:none;stroke:#0000ff;" x="0.0" xlink:href="#C1_5_8adb891a56" y="288.0"/>
    </g>
    <g clip-path="url(#pc6df0afb6d)">
     <use style="fill:none;stroke:#0000ff;" x="0.0" xlink:href="#C1_6_addca795f0" y="288.0"/>
    </g>
   </g>
   <g id="LineCollection_3">
    <defs>
     <path d="
M277.945 -159.596
L277.945 -179.216" id="C2_0_fd080c4e5a"/>
     <path d="
M394.903 -183.361
L394.903 -206.18" id="C2_1_b5266117a2"/>
     <path d="
M511.861 -168.669
L511.861 -188.755" id="C2_2_57d1d52f71"/>
     <path d="
M745.778 -120.088
L745.778 -139.897" id="C2_3_ac3ef42efc"/>
     <path d="
M160.986 -160.831
L160.986 -181.022" id="C2_4_4c19c5c33e"/>
     <path d="
M628.819 -160.189
L628.819 -180.42" id="C2_5_0c73a97f1b"/>
    </defs>
    <g clip-path="url(#pc6df0afb6d)">
     <use style="fill:none;stroke:#ff0000;" x="0.0" xlink:href="#C2_0_fd080c4e5a" y="288.0"/>
    </g>
    <g clip-path="url(#pc6df0afb6d)">
     <use style="fill:none;stroke:#ff0000;" x="0.0" xlink:href="#C2_1_b5266117a2" y="288.0"/>
    </g>
    <g clip-path="url(#pc6df0afb6d)">
     <use style="fill:none;stroke:#ff0000;" x="0.0" xlink:href="#C2_2_57d1d52f71" y="288.0"/>
    </g>
    <g clip-path="url(#pc6df0afb6d)">
     <use style="fill:none;stroke:#ff0000;" x="0.0" xlink:href="#C2_3_ac3ef42efc" y="288.0"/>
    </g>
    <g clip-path="url(#pc6df0afb6d)">
     <use style="fill:none;stroke:#ff0000;" x="0.0" xlink:href="#C2_4_4c19c5c33e" y="288.0"/>
    </g>
    <g clip-path="url(#pc6df0afb6d)">
     <use style="fill:none;stroke:#ff0000;" x="0.0" xlink:href="#C2_5_0c73a97f1b" y="288.0"/>
    </g>
   </g>
   <g id="LineCollection_4">
    <defs>
     <path d="
M453.382 -136.533
L453.382 -154.863" id="C3_0_5f71d18ebd"/>
     <path d="
M219.466 -140.803
L219.466 -159.716" id="C3_1_ed2bf77135"/>
     <path d="
M804.257 -114.756
L804.257 -166.527" id="C3_2_fe6175dc84"/>
     <path d="
M687.298 -102.215
L687.298 -121.904" id="C3_3_259be7250a"/>
     <path d="
M570.34 -133.526
L570.34 -154.06" id="C3_4_ba11597122"/>
     <path d="
M102.507 -141.08
L102.507 -168.707" id="C3_5_e17dd0c08e"/>
     <path d="
M336.424 -140.317
L336.424 -162.89" id="C3_6_89a0a96a06"/>
    </defs>
    <g clip-path="url(#pc6df0afb6d)">
     <use style="fill:none;stroke:#ff0000;" x="0.0" xlink:href="#C3_0_5f71d18ebd" y="288.0"/>
    </g>
    <g clip-path="url(#pc6df0afb6d)">
     <use style="fill:none;stroke:#ff0000;" x="0.0" xlink:href="#C3_1_ed2bf77135" y="288.0"/>
    </g>
    <g clip-path="url(#pc6df0afb6d)">
     <use style="fill:none;stroke:#ff0000;" x="0.0" xlink:href="#C3_2_fe6175dc84" y="288.0"/>
    </g>
    <g clip-path="url(#pc6df0afb6d)">
     <use style="fill:none;stroke:#ff0000;" x="0.0" xlink:href="#C3_3_259be7250a" y="288.0"/>
    </g>
    <g clip-path="url(#pc6df0afb6d)">
     <use style="fill:none;stroke:#ff0000;" x="0.0" xlink:href="#C3_4_ba11597122" y="288.0"/>
    </g>
    <g clip-path="url(#pc6df0afb6d)">
     <use style="fill:none;stroke:#ff0000;" x="0.0" xlink:href="#C3_5_e17dd0c08e" y="288.0"/>
    </g>
    <g clip-path="url(#pc6df0afb6d)">
     <use style="fill:none;stroke:#ff0000;" x="0.0" xlink:href="#C3_6_89a0a96a06" y="288.0"/>
    </g>
   </g>
   <g id="line2d_1">
    <defs>
     <path d="
M3 1.83697e-16
L-3 -1.83697e-16" id="mdde457ef1d" style="stroke:#0000ff;stroke-width:0.5;"/>
    </defs>
    <g clip-path="url(#pc6df0afb6d)">
     <use style="fill:#0000ff;stroke:#0000ff;stroke-width:0.5;" x="277.944692096" xlink:href="#mdde457ef1d" y="90.3184991227"/>
     <use style="fill:#0000ff;stroke:#0000ff;stroke-width:0.5;" x="745.777596507" xlink:href="#mdde457ef1d" y="124.679760391"/>
     <use style="fill:#0000ff;stroke:#0000ff;stroke-width:0.5;" x="511.861144301" xlink:href="#mdde457ef1d" y="106.125247183"/>
     <use style="fill:#0000ff;stroke:#0000ff;stroke-width:0.5;" x="394.902918199" xlink:href="#mdde457ef1d" y="95.9293825713"/>
     <use style="fill:#0000ff;stroke:#0000ff;stroke-width:0.5;" x="628.819370404" xlink:href="#mdde457ef1d" y="121.96899532"/>
     <use style="fill:#0000ff;stroke:#0000ff;stroke-width:0.5;" x="160.986465993" xlink:href="#mdde457ef1d" y="71.9530267337"/>
    </g>
   </g>
   <g id="line2d_2">
    <g clip-path="url(#pc6df0afb6d)">
     <use style="fill:#0000ff;stroke:#0000ff;stroke-width:0.5;" x="277.944692096" xlink:href="#mdde457ef1d" y="70.5206295775"/>
     <use style="fill:#0000ff;stroke:#0000ff;stroke-width:0.5;" x="745.777596507" xlink:href="#mdde457ef1d" y="104.382910166"/>
     <use style="fill:#0000ff;stroke:#0000ff;stroke-width:0.5;" x="511.861144301" xlink:href="#mdde457ef1d" y="85.234647283"/>
     <use style="fill:#0000ff;stroke:#0000ff;stroke-width:0.5;" x="394.902918199" xlink:href="#mdde457ef1d" y="76.4398018266"/>
     <use style="fill:#0000ff;stroke:#0000ff;stroke-width:0.5;" x="628.819370404" xlink:href="#mdde457ef1d" y="102.41462548"/>
     <use style="fill:#0000ff;stroke:#0000ff;stroke-width:0.5;" x="160.986465993" xlink:href="#mdde457ef1d" y="52.0328547384"/>
    </g>
   </g>
   <g id="line2d_3">
    <defs>
     <path d="
M3.06162e-16 -5
L-1.12257 -1.54508
L-4.75528 -1.54508
L-1.81636 0.59017
L-2.93893 4.04508
L-3.5083e-16 1.90983
L2.93893 4.04508
L1.81636 0.59017
L4.75528 -1.54508
L1.12257 -1.54508
z
" id="m2000094e96" style="stroke:#000000;stroke-linejoin:bevel;stroke-width:0.5;"/>
    </defs>
    <g clip-path="url(#pc6df0afb6d)">
     <use style="fill:#0000ff;stroke:#000000;stroke-linejoin:bevel;stroke-width:0.5;" x="277.944692096" xlink:href="#m2000094e96" y="80.4195643501"/>
     <use style="fill:#0000ff;stroke:#000000;stroke-linejoin:bevel;stroke-width:0.5;" x="745.777596507" xlink:href="#m2000094e96" y="114.531335278"/>
     <use style="fill:#0000ff;stroke:#000000;stroke-linejoin:bevel;stroke-width:0.5;" x="511.861144301" xlink:href="#m2000094e96" y="95.6799472328"/>
     <use style="fill:#0000ff;stroke:#000000;stroke-linejoin:bevel;stroke-width:0.5;" x="394.902918199" xlink:href="#m2000094e96" y="86.1845921989"/>
     <use style="fill:#0000ff;stroke:#000000;stroke-linejoin:bevel;stroke-width:0.5;" x="628.819370404" xlink:href="#m2000094e96" y="112.1918104"/>
     <use style="fill:#0000ff;stroke:#000000;stroke-linejoin:bevel;stroke-width:0.5;" x="160.986465993" xlink:href="#m2000094e96" y="61.9929407361"/>
    </g>
   </g>
   <g id="line2d_4">
    <g clip-path="url(#pc6df0afb6d)">
     <use style="fill:#0000ff;stroke:#0000ff;stroke-width:0.5;" x="804.256709559" xlink:href="#mdde457ef1d" y="160.200464952"/>
     <use style="fill:#0000ff;stroke:#0000ff;stroke-width:0.5;" x="570.340257353" xlink:href="#mdde457ef1d" y="103.287700263"/>
     <use style="fill:#0000ff;stroke:#0000ff;stroke-width:0.5;" x="687.298483456" xlink:href="#mdde457ef1d" y="132.225033862"/>
     <use style="fill:#0000ff;stroke:#0000ff;stroke-width:0.5;" x="453.38203125" xlink:href="#mdde457ef1d" y="110.646871182"/>
     <use style="fill:#0000ff;stroke:#0000ff;stroke-width:0.5;" x="336.423805147" xlink:href="#mdde457ef1d" y="109.194868805"/>
     <use style="fill:#0000ff;stroke:#0000ff;stroke-width:0.5;" x="219.465579044" xlink:href="#mdde457ef1d" y="99.5150359678"/>
     <use style="fill:#0000ff;stroke:#0000ff;stroke-width:0.5;" x="102.507352941" xlink:href="#mdde457ef1d" y="104.693587479"/>
    </g>
   </g>
   <g id="line2d_5">
    <g clip-path="url(#pc6df0afb6d)">
     <use style="fill:#0000ff;stroke:#0000ff;stroke-width:0.5;" x="804.256709559" xlink:href="#mdde457ef1d" y="34.6620334542"/>
     <use style="fill:#0000ff;stroke:#0000ff;stroke-width:0.5;" x="570.340257353" xlink:href="#mdde457ef1d" y="83.3536222698"/>
     <use style="fill:#0000ff;stroke:#0000ff;stroke-width:0.5;" x="687.298483456" xlink:href="#mdde457ef1d" y="107.807922703"/>
     <use style="fill:#0000ff;stroke:#0000ff;stroke-width:0.5;" x="453.38203125" xlink:href="#mdde457ef1d" y="89.6596384016"/>
     <use style="fill:#0000ff;stroke:#0000ff;stroke-width:0.5;" x="336.423805147" xlink:href="#mdde457ef1d" y="86.7442075052"/>
     <use style="fill:#0000ff;stroke:#0000ff;stroke-width:0.5;" x="219.465579044" xlink:href="#mdde457ef1d" y="79.0844447282"/>
     <use style="fill:#0000ff;stroke:#0000ff;stroke-width:0.5;" x="102.507352941" xlink:href="#mdde457ef1d" y="82.6596505588"/>
    </g>
   </g>
   <g id="line2d_6">
    <defs>
     <path d="
M0 -5
L-5 5
L5 5
z
" id="m225e1ef6c6" style="stroke:#000000;stroke-linejoin:miter;stroke-width:0.5;"/>
    </defs>
    <g clip-path="url(#pc6df0afb6d)">
     <use style="fill:#0000ff;stroke:#000000;stroke-linejoin:miter;stroke-width:0.5;" x="804.256709559" xlink:href="#m225e1ef6c6" y="97.4312492032"/>
     <use style="fill:#0000ff;stroke:#000000;stroke-linejoin:miter;stroke-width:0.5;" x="570.340257353" xlink:href="#m225e1ef6c6" y="93.3206612665"/>
     <use style="fill:#0000ff;stroke:#000000;stroke-linejoin:miter;stroke-width:0.5;" x="687.298483456" xlink:href="#m225e1ef6c6" y="120.016478282"/>
     <use style="fill:#0000ff;stroke:#000000;stroke-linejoin:miter;stroke-width:0.5;" x="453.38203125" xlink:href="#m225e1ef6c6" y="100.153254792"/>
     <use style="fill:#0000ff;stroke:#000000;stroke-linejoin:miter;stroke-width:0.5;" x="336.423805147" xlink:href="#m225e1ef6c6" y="97.9695381553"/>
     <use style="fill:#0000ff;stroke:#000000;stroke-linejoin:miter;stroke-width:0.5;" x="219.465579044" xlink:href="#m225e1ef6c6" y="89.299740348"/>
     <use style="fill:#0000ff;stroke:#000000;stroke-linejoin:miter;stroke-width:0.5;" x="102.507352941" xlink:href="#m225e1ef6c6" y="93.6766190191"/>
    </g>
   </g>
   <g id="line2d_7">
    <defs>
     <path d="
M3 1.83697e-16
L-3 -1.83697e-16" id="m12d35e2592" style="stroke:#ff0000;stroke-width:0.5;"/>
    </defs>
    <g clip-path="url(#pc6df0afb6d)">
     <use style="fill:#ff0000;stroke:#ff0000;stroke-width:0.5;" x="277.944692096" xlink:href="#m12d35e2592" y="128.404376326"/>
     <use style="fill:#ff0000;stroke:#ff0000;stroke-width:0.5;" x="394.902918199" xlink:href="#m12d35e2592" y="104.638773016"/>
     <use style="fill:#ff0000;stroke:#ff0000;stroke-width:0.5;" x="511.861144301" xlink:href="#m12d35e2592" y="119.331189615"/>
     <use style="fill:#ff0000;stroke:#ff0000;stroke-width:0.5;" x="745.777596507" xlink:href="#m12d35e2592" y="167.912445321"/>
     <use style="fill:#ff0000;stroke:#ff0000;stroke-width:0.5;" x="160.986465993" xlink:href="#m12d35e2592" y="127.16873694"/>
     <use style="fill:#ff0000;stroke:#ff0000;stroke-width:0.5;" x="628.819370404" xlink:href="#m12d35e2592" y="127.810825582"/>
    </g>
   </g>
   <g id="line2d_8">
    <g clip-path="url(#pc6df0afb6d)">
     <use style="fill:#ff0000;stroke:#ff0000;stroke-width:0.5;" x="277.944692096" xlink:href="#m12d35e2592" y="108.783818257"/>
     <use style="fill:#ff0000;stroke:#ff0000;stroke-width:0.5;" x="394.902918199" xlink:href="#m12d35e2592" y="81.8196189462"/>
     <use style="fill:#ff0000;stroke:#ff0000;stroke-width:0.5;" x="511.861144301" xlink:href="#m12d35e2592" y="99.2449264875"/>
     <use style="fill:#ff0000;stroke:#ff0000;stroke-width:0.5;" x="745.777596507" xlink:href="#m12d35e2592" y="148.103312644"/>
     <use style="fill:#ff0000;stroke:#ff0000;stroke-width:0.5;" x="160.986465993" xlink:href="#m12d35e2592" y="106.978326854"/>
     <use style="fill:#ff0000;stroke:#ff0000;stroke-width:0.5;" x="628.819370404" xlink:href="#m12d35e2592" y="107.579733115"/>
    </g>
   </g>
   <g id="line2d_9">
    <defs>
     <path d="
M3.06162e-16 -5
L-1.12257 -1.54508
L-4.75528 -1.54508
L-1.81636 0.59017
L-2.93893 4.04508
L-3.5083e-16 1.90983
L2.93893 4.04508
L1.81636 0.59017
L4.75528 -1.54508
L1.12257 -1.54508
z
" id="m46c0476064" style="stroke:#000000;stroke-linejoin:bevel;stroke-width:0.5;"/>
    </defs>
    <g clip-path="url(#pc6df0afb6d)">
     <use style="fill:#ff0000;stroke:#000000;stroke-linejoin:bevel;stroke-width:0.5;" x="277.944692096" xlink:href="#m46c0476064" y="118.594097291"/>
     <use style="fill:#ff0000;stroke:#000000;stroke-linejoin:bevel;stroke-width:0.5;" x="394.902918199" xlink:href="#m46c0476064" y="93.229195981"/>
     <use style="fill:#ff0000;stroke:#000000;stroke-linejoin:bevel;stroke-width:0.5;" x="511.861144301" xlink:href="#m46c0476064" y="109.288058051"/>
     <use style="fill:#ff0000;stroke:#000000;stroke-linejoin:bevel;stroke-width:0.5;" x="745.777596507" xlink:href="#m46c0476064" y="158.007878983"/>
     <use style="fill:#ff0000;stroke:#000000;stroke-linejoin:bevel;stroke-width:0.5;" x="160.986465993" xlink:href="#m46c0476064" y="117.073531897"/>
     <use style="fill:#ff0000;stroke:#000000;stroke-linejoin:bevel;stroke-width:0.5;" x="628.819370404" xlink:href="#m46c0476064" y="117.695279349"/>
    </g>
   </g>
   <g id="line2d_10">
    <g clip-path="url(#pc6df0afb6d)">
     <use style="fill:#ff0000;stroke:#ff0000;stroke-width:0.5;" x="453.38203125" xlink:href="#m12d35e2592" y="151.466601491"/>
     <use style="fill:#ff0000;stroke:#ff0000;stroke-width:0.5;" x="219.465579044" xlink:href="#m12d35e2592" y="147.197276378"/>
     <use style="fill:#ff0000;stroke:#ff0000;stroke-width:0.5;" x="804.256709559" xlink:href="#m12d35e2592" y="173.244032411"/>
     <use style="fill:#ff0000;stroke:#ff0000;stroke-width:0.5;" x="687.298483456" xlink:href="#m12d35e2592" y="185.784531663"/>
     <use style="fill:#ff0000;stroke:#ff0000;stroke-width:0.5;" x="570.340257353" xlink:href="#m12d35e2592" y="154.473894341"/>
     <use style="fill:#ff0000;stroke:#ff0000;stroke-width:0.5;" x="102.507352941" xlink:href="#m12d35e2592" y="146.920373292"/>
     <use style="fill:#ff0000;stroke:#ff0000;stroke-width:0.5;" x="336.423805147" xlink:href="#m12d35e2592" y="147.682679481"/>
    </g>
   </g>
   <g id="line2d_11">
    <g clip-path="url(#pc6df0afb6d)">
     <use style="fill:#ff0000;stroke:#ff0000;stroke-width:0.5;" x="453.38203125" xlink:href="#m12d35e2592" y="133.136785566"/>
     <use style="fill:#ff0000;stroke:#ff0000;stroke-width:0.5;" x="219.465579044" xlink:href="#m12d35e2592" y="128.284378568"/>
     <use style="fill:#ff0000;stroke:#ff0000;stroke-width:0.5;" x="804.256709559" xlink:href="#m12d35e2592" y="121.47287288"/>
     <use style="fill:#ff0000;stroke:#ff0000;stroke-width:0.5;" x="687.298483456" xlink:href="#m12d35e2592" y="166.096399263"/>
     <use style="fill:#ff0000;stroke:#ff0000;stroke-width:0.5;" x="570.340257353" xlink:href="#m12d35e2592" y="133.939747565"/>
     <use style="fill:#ff0000;stroke:#ff0000;stroke-width:0.5;" x="102.507352941" xlink:href="#m12d35e2592" y="119.292662635"/>
     <use style="fill:#ff0000;stroke:#ff0000;stroke-width:0.5;" x="336.423805147" xlink:href="#m12d35e2592" y="125.11021007"/>
    </g>
   </g>
   <g id="line2d_12">
    <defs>
     <path d="
M0 -5
L-5 5
L5 5
z
" id="m9dfe19d8d5" style="stroke:#000000;stroke-linejoin:miter;stroke-width:0.5;"/>
    </defs>
    <g clip-path="url(#pc6df0afb6d)">
     <use style="fill:#ff0000;stroke:#000000;stroke-linejoin:miter;stroke-width:0.5;" x="453.38203125" xlink:href="#m9dfe19d8d5" y="142.301693528"/>
     <use style="fill:#ff0000;stroke:#000000;stroke-linejoin:miter;stroke-width:0.5;" x="219.465579044" xlink:href="#m9dfe19d8d5" y="137.740827473"/>
     <use style="fill:#ff0000;stroke:#000000;stroke-linejoin:miter;stroke-width:0.5;" x="804.256709559" xlink:href="#m9dfe19d8d5" y="147.358452645"/>
     <use style="fill:#ff0000;stroke:#000000;stroke-linejoin:miter;stroke-width:0.5;" x="687.298483456" xlink:href="#m9dfe19d8d5" y="175.940465463"/>
     <use style="fill:#ff0000;stroke:#000000;stroke-linejoin:miter;stroke-width:0.5;" x="570.340257353" xlink:href="#m9dfe19d8d5" y="144.206820953"/>
     <use style="fill:#ff0000;stroke:#000000;stroke-linejoin:miter;stroke-width:0.5;" x="102.507352941" xlink:href="#m9dfe19d8d5" y="133.106517964"/>
     <use style="fill:#ff0000;stroke:#000000;stroke-linejoin:miter;stroke-width:0.5;" x="336.423805147" xlink:href="#m9dfe19d8d5" y="136.396444775"/>
    </g>
   </g>
   <g id="matplotlib.axis_1">
    <g id="xtick_1">
     <g id="line2d_13">
      <defs>
       <path d="
M0 0
L0 -4" id="m93b0483c22" style="stroke:#000000;stroke-width:0.5;"/>
      </defs>
      <g>
       <use style="stroke:#000000;stroke-width:0.5;" x="102.507352941" xlink:href="#m93b0483c22" y="240.84"/>
      </g>
     </g>
     <g id="line2d_14">
      <defs>
       <path d="
M0 0
L0 4" id="m741efc42ff" style="stroke:#000000;stroke-width:0.5;"/>
      </defs>
      <g>
       <use style="stroke:#000000;stroke-width:0.5;" x="102.507352941" xlink:href="#m741efc42ff" y="19.26"/>
      </g>
     </g>
     <g id="text_1">
      <!-- 0 -->
      <defs>
       <path d="
M31.7812 66.4062
Q24.1719 66.4062 20.3281 58.9062
Q16.5 51.4219 16.5 36.375
Q16.5 21.3906 20.3281 13.8906
Q24.1719 6.39062 31.7812 6.39062
Q39.4531 6.39062 43.2812 13.8906
Q47.125 21.3906 47.125 36.375
Q47.125 51.4219 43.2812 58.9062
Q39.4531 66.4062 31.7812 66.4062
M31.7812 74.2188
Q44.0469 74.2188 50.5156 64.5156
Q56.9844 54.8281 56.9844 36.375
Q56.9844 17.9688 50.5156 8.26562
Q44.0469 -1.42188 31.7812 -1.42188
Q19.5312 -1.42188 13.0625 8.26562
Q6.59375 17.9688 6.59375 36.375
Q6.59375 54.8281 13.0625 64.5156
Q19.5312 74.2188 31.7812 74.2188" id="DejaVuSans-30"/>
      </defs>
      <g transform="translate(99.4839154412 253.958125)scale(0.12 -0.12)">
       <use xlink:href="#DejaVuSans-30"/>
      </g>
     </g>
    </g>
    <g id="xtick_2">
     <g id="line2d_15">
      <g>
       <use style="stroke:#000000;stroke-width:0.5;" x="219.465579044" xlink:href="#m93b0483c22" y="240.84"/>
      </g>
     </g>
     <g id="line2d_16">
      <g>
       <use style="stroke:#000000;stroke-width:0.5;" x="219.465579044" xlink:href="#m741efc42ff" y="19.26"/>
      </g>
     </g>
     <g id="text_2">
      <!-- 5 -->
      <defs>
       <path d="
M10.7969 72.9062
L49.5156 72.9062
L49.5156 64.5938
L19.8281 64.5938
L19.8281 46.7344
Q21.9688 47.4688 24.1094 47.8281
Q26.2656 48.1875 28.4219 48.1875
Q40.625 48.1875 47.75 41.5
Q54.8906 34.8125 54.8906 23.3906
Q54.8906 11.625 47.5625 5.09375
Q40.2344 -1.42188 26.9062 -1.42188
Q22.3125 -1.42188 17.5469 -0.640625
Q12.7969 0.140625 7.71875 1.70312
L7.71875 11.625
Q12.1094 9.23438 16.7969 8.0625
Q21.4844 6.89062 26.7031 6.89062
Q35.1562 6.89062 40.0781 11.3281
Q45.0156 15.7656 45.0156 23.3906
Q45.0156 31 40.0781 35.4375
Q35.1562 39.8906 26.7031 39.8906
Q22.75 39.8906 18.8125 39.0156
Q14.8906 38.1406 10.7969 36.2812
z
" id="DejaVuSans-35"/>
      </defs>
      <g transform="translate(216.635266544 253.958125)scale(0.12 -0.12)">
       <use xlink:href="#DejaVuSans-35"/>
      </g>
     </g>
    </g>
    <g id="xtick_3">
     <g id="line2d_17">
      <g>
       <use style="stroke:#000000;stroke-width:0.5;" x="336.423805147" xlink:href="#m93b0483c22" y="240.84"/>
      </g>
     </g>
     <g id="line2d_18">
      <g>
       <use style="stroke:#000000;stroke-width:0.5;" x="336.423805147" xlink:href="#m741efc42ff" y="19.26"/>
      </g>
     </g>
     <g id="text_3">
      <!-- 10 -->
      <defs>
       <path d="
M12.4062 8.29688
L28.5156 8.29688
L28.5156 63.9219
L10.9844 60.4062
L10.9844 69.3906
L28.4219 72.9062
L38.2812 72.9062
L38.2812 8.29688
L54.3906 8.29688
L54.3906 0
L12.4062 0
z
" id="DejaVuSans-31"/>
      </defs>
      <g transform="translate(329.846305147 253.958125)scale(0.12 -0.12)">
       <use xlink:href="#DejaVuSans-31"/>
       <use x="63.623046875" xlink:href="#DejaVuSans-30"/>
      </g>
     </g>
    </g>
    <g id="xtick_4">
     <g id="line2d_19">
      <g>
       <use style="stroke:#000000;stroke-width:0.5;" x="453.38203125" xlink:href="#m93b0483c22" y="240.84"/>
      </g>
     </g>
     <g id="line2d_20">
      <g>
       <use style="stroke:#000000;stroke-width:0.5;" x="453.38203125" xlink:href="#m741efc42ff" y="19.26"/>
      </g>
     </g>
     <g id="text_4">
      <!-- 15 -->
      <g transform="translate(446.93015625 253.958125)scale(0.12 -0.12)">
       <use xlink:href="#DejaVuSans-31"/>
       <use x="63.623046875" xlink:href="#DejaVuSans-35"/>
      </g>
     </g>
    </g>
    <g id="xtick_5">
     <g id="line2d_21">
      <g>
       <use style="stroke:#000000;stroke-width:0.5;" x="570.340257353" xlink:href="#m93b0483c22" y="240.84"/>
      </g>
     </g>
     <g id="line2d_22">
      <g>
       <use style="stroke:#000000;stroke-width:0.5;" x="570.340257353" xlink:href="#m741efc42ff" y="19.26"/>
      </g>
     </g>
     <g id="text_5">
      <!-- 20 -->
      <defs>
       <path d="
M19.1875 8.29688
L53.6094 8.29688
L53.6094 0
L7.32812 0
L7.32812 8.29688
Q12.9375 14.1094 22.625 23.8906
Q32.3281 33.6875 34.8125 36.5312
Q39.5469 41.8438 41.4219 45.5312
Q43.3125 49.2188 43.3125 52.7812
Q43.3125 58.5938 39.2344 62.25
Q35.1562 65.9219 28.6094 65.9219
Q23.9688 65.9219 18.8125 64.3125
Q13.6719 62.7031 7.8125 59.4219
L7.8125 69.3906
Q13.7656 71.7812 18.9375 73
Q24.125 74.2188 28.4219 74.2188
Q39.75 74.2188 46.4844 68.5469
Q53.2188 62.8906 53.2188 53.4219
Q53.2188 48.9219 51.5312 44.8906
Q49.8594 40.875 45.4062 35.4062
Q44.1875 33.9844 37.6406 27.2188
Q31.1094 20.4531 19.1875 8.29688" id="DejaVuSans-32"/>
      </defs>
      <g transform="translate(563.543382353 253.958125)scale(0.12 -0.12)">
       <use xlink:href="#DejaVuSans-32"/>
       <use x="63.623046875" xlink:href="#DejaVuSans-30"/>
      </g>
     </g>
    </g>
    <g id="xtick_6">
     <g id="line2d_23">
      <g>
       <use style="stroke:#000000;stroke-width:0.5;" x="687.298483456" xlink:href="#m93b0483c22" y="240.84"/>
      </g>
     </g>
     <g id="line2d_24">
      <g>
       <use style="stroke:#000000;stroke-width:0.5;" x="687.298483456" xlink:href="#m741efc42ff" y="19.26"/>
      </g>
     </g>
     <g id="text_6">
      <!-- 25 -->
      <g transform="translate(680.627233456 253.958125)scale(0.12 -0.12)">
       <use xlink:href="#DejaVuSans-32"/>
       <use x="63.623046875" xlink:href="#DejaVuSans-35"/>
      </g>
     </g>
    </g>
    <g id="xtick_7">
     <g id="line2d_25">
      <g>
       <use style="stroke:#000000;stroke-width:0.5;" x="804.256709559" xlink:href="#m93b0483c22" y="240.84"/>
      </g>
     </g>
     <g id="line2d_26">
      <g>
       <use style="stroke:#000000;stroke-width:0.5;" x="804.256709559" xlink:href="#m741efc42ff" y="19.26"/>
      </g>
     </g>
     <g id="text_7">
      <!-- 30 -->
      <defs>
       <path d="
M40.5781 39.3125
Q47.6562 37.7969 51.625 33
Q55.6094 28.2188 55.6094 21.1875
Q55.6094 10.4062 48.1875 4.48438
Q40.7656 -1.42188 27.0938 -1.42188
Q22.5156 -1.42188 17.6562 -0.515625
Q12.7969 0.390625 7.625 2.20312
L7.625 11.7188
Q11.7188 9.32812 16.5938 8.10938
Q21.4844 6.89062 26.8125 6.89062
Q36.0781 6.89062 40.9375 10.5469
Q45.7969 14.2031 45.7969 21.1875
Q45.7969 27.6406 41.2812 31.2656
Q36.7656 34.9062 28.7188 34.9062
L20.2188 34.9062
L20.2188 43.0156
L29.1094 43.0156
Q36.375 43.0156 40.2344 45.9219
Q44.0938 48.8281 44.0938 54.2969
Q44.0938 59.9062 40.1094 62.9062
Q36.1406 65.9219 28.7188 65.9219
Q24.6562 65.9219 20.0156 65.0312
Q15.375 64.1562 9.8125 62.3125
L9.8125 71.0938
Q15.4375 72.6562 20.3438 73.4375
Q25.25 74.2188 29.5938 74.2188
Q40.8281 74.2188 47.3594 69.1094
Q53.9062 64.0156 53.9062 55.3281
Q53.9062 49.2656 50.4375 45.0938
Q46.9688 40.9219 40.5781 39.3125" id="DejaVuSans-33"/>
      </defs>
      <g transform="translate(797.477647059 253.958125)scale(0.12 -0.12)">
       <use xlink:href="#DejaVuSans-33"/>
       <use x="63.623046875" xlink:href="#DejaVuSans-30"/>
      </g>
     </g>
    </g>
    <g id="text_8">
     <!-- Depth of Interaction (mm) -->
     <defs>
      <path d="
M8.01562 75.875
L15.8281 75.875
Q23.1406 64.3594 26.7812 53.3125
Q30.4219 42.2812 30.4219 31.3906
Q30.4219 20.4531 26.7812 9.375
Q23.1406 -1.70312 15.8281 -13.1875
L8.01562 -13.1875
Q14.5 -2 17.7031 9.0625
Q20.9062 20.125 20.9062 31.3906
Q20.9062 42.6719 17.7031 53.6562
Q14.5 64.6562 8.01562 75.875" id="DejaVuSans-29"/>
      <path d="
M30.6094 48.3906
Q23.3906 48.3906 19.1875 42.75
Q14.9844 37.1094 14.9844 27.2969
Q14.9844 17.4844 19.1562 11.8438
Q23.3438 6.20312 30.6094 6.20312
Q37.7969 6.20312 41.9844 11.8594
Q46.1875 17.5312 46.1875 27.2969
Q46.1875 37.0156 41.9844 42.7031
Q37.7969 48.3906 30.6094 48.3906
M30.6094 56
Q42.3281 56 49.0156 48.375
Q55.7188 40.7656 55.7188 27.2969
Q55.7188 13.875 49.0156 6.21875
Q42.3281 -1.42188 30.6094 -1.42188
Q18.8438 -1.42188 12.1719 6.21875
Q5.51562 13.875 5.51562 27.2969
Q5.51562 40.7656 12.1719 48.375
Q18.8438 56 30.6094 56" id="DejaVuSans-6f"/>
      <path d="
M52 44.1875
Q55.375 50.25 60.0625 53.125
Q64.75 56 71.0938 56
Q79.6406 56 84.2812 50.0156
Q88.9219 44.0469 88.9219 33.0156
L88.9219 0
L79.8906 0
L79.8906 32.7188
Q79.8906 40.5781 77.0938 44.375
Q74.3125 48.1875 68.6094 48.1875
Q61.625 48.1875 57.5625 43.5469
Q53.5156 38.9219 53.5156 30.9062
L53.5156 0
L44.4844 0
L44.4844 32.7188
Q44.4844 40.625 41.7031 44.4062
Q38.9219 48.1875 33.1094 48.1875
Q26.2188 48.1875 22.1562 43.5312
Q18.1094 38.875 18.1094 30.9062
L18.1094 0
L9.07812 0
L9.07812 54.6875
L18.1094 54.6875
L18.1094 46.1875
Q21.1875 51.2188 25.4844 53.6094
Q29.7812 56 35.6875 56
Q41.6562 56 45.8281 52.9688
Q50 49.9531 52 44.1875" id="DejaVuSans-6d"/>
      <path d="
M54.8906 33.0156
L54.8906 0
L45.9062 0
L45.9062 32.7188
Q45.9062 40.4844 42.875 44.3281
Q39.8438 48.1875 33.7969 48.1875
Q26.5156 48.1875 22.3125 43.5469
Q18.1094 38.9219 18.1094 30.9062
L18.1094 0
L9.07812 0
L9.07812 54.6875
L18.1094 54.6875
L18.1094 46.1875
Q21.3438 51.125 25.7031 53.5625
Q30.0781 56 35.7969 56
Q45.2188 56 50.0469 50.1719
Q54.8906 44.3438 54.8906 33.0156" id="DejaVuSans-6e"/>
      <path d="
M34.2812 27.4844
Q23.3906 27.4844 19.1875 25
Q14.9844 22.5156 14.9844 16.5
Q14.9844 11.7188 18.1406 8.90625
Q21.2969 6.10938 26.7031 6.10938
Q34.1875 6.10938 38.7031 11.4062
Q43.2188 16.7031 43.2188 25.4844
L43.2188 27.4844
z

M52.2031 31.2031
L52.2031 0
L43.2188 0
L43.2188 8.29688
Q40.1406 3.32812 35.5469 0.953125
Q30.9531 -1.42188 24.3125 -1.42188
Q15.9219 -1.42188 10.9531 3.29688
Q6 8.01562 6 15.9219
Q6 25.1406 12.1719 29.8281
Q18.3594 34.5156 30.6094 34.5156
L43.2188 34.5156
L43.2188 35.4062
Q43.2188 41.6094 39.1406 45
Q35.0625 48.3906 27.6875 48.3906
Q23 48.3906 18.5469 47.2656
Q14.1094 46.1406 10.0156 43.8906
L10.0156 52.2031
Q14.9375 54.1094 19.5781 55.0469
Q24.2188 56 28.6094 56
Q40.4844 56 46.3438 49.8438
Q52.2031 43.7031 52.2031 31.2031" id="DejaVuSans-61"/>
      <path d="
M9.8125 72.9062
L19.6719 72.9062
L19.6719 0
L9.8125 0
z
" id="DejaVuSans-49"/>
      <path d="
M19.6719 64.7969
L19.6719 8.10938
L31.5938 8.10938
Q46.6875 8.10938 53.6875 14.9375
Q60.6875 21.7812 60.6875 36.5312
Q60.6875 51.1719 53.6875 57.9844
Q46.6875 64.7969 31.5938 64.7969
z

M9.8125 72.9062
L30.0781 72.9062
Q51.2656 72.9062 61.1719 64.0938
Q71.0938 55.2812 71.0938 36.5312
Q71.0938 17.6719 61.125 8.82812
Q51.1719 0 30.0781 0
L9.8125 0
z
" id="DejaVuSans-44"/>
      <path d="
M48.7812 52.5938
L48.7812 44.1875
Q44.9688 46.2969 41.1406 47.3438
Q37.3125 48.3906 33.4062 48.3906
Q24.6562 48.3906 19.8125 42.8438
Q14.9844 37.3125 14.9844 27.2969
Q14.9844 17.2812 19.8125 11.7344
Q24.6562 6.20312 33.4062 6.20312
Q37.3125 6.20312 41.1406 7.25
Q44.9688 8.29688 48.7812 10.4062
L48.7812 2.09375
Q45.0156 0.34375 40.9844 -0.53125
Q36.9688 -1.42188 32.4219 -1.42188
Q20.0625 -1.42188 12.7812 6.34375
Q5.51562 14.1094 5.51562 27.2969
Q5.51562 40.6719 12.8594 48.3281
Q20.2188 56 33.0156 56
Q37.1562 56 41.1094 55.1406
Q45.0625 54.2969 48.7812 52.5938" id="DejaVuSans-63"/>
      <path id="DejaVuSans-20"/>
      <path d="
M54.8906 33.0156
L54.8906 0
L45.9062 0
L45.9062 32.7188
Q45.9062 40.4844 42.875 44.3281
Q39.8438 48.1875 33.7969 48.1875
Q26.5156 48.1875 22.3125 43.5469
Q18.1094 38.9219 18.1094 30.9062
L18.1094 0
L9.07812 0
L9.07812 75.9844
L18.1094 75.9844
L18.1094 46.1875
Q21.3438 51.125 25.7031 53.5625
Q30.0781 56 35.7969 56
Q45.2188 56 50.0469 50.1719
Q54.8906 44.3438 54.8906 33.0156" id="DejaVuSans-68"/>
      <path d="
M9.42188 54.6875
L18.4062 54.6875
L18.4062 0
L9.42188 0
z

M9.42188 75.9844
L18.4062 75.9844
L18.4062 64.5938
L9.42188 64.5938
z
" id="DejaVuSans-69"/>
      <path d="
M37.1094 75.9844
L37.1094 68.5
L28.5156 68.5
Q23.6875 68.5 21.7969 66.5469
Q19.9219 64.5938 19.9219 59.5156
L19.9219 54.6875
L34.7188 54.6875
L34.7188 47.7031
L19.9219 47.7031
L19.9219 0
L10.8906 0
L10.8906 47.7031
L2.29688 47.7031
L2.29688 54.6875
L10.8906 54.6875
L10.8906 58.5
Q10.8906 67.625 15.1406 71.7969
Q19.3906 75.9844 28.6094 75.9844
z
" id="DejaVuSans-66"/>
      <path d="
M18.3125 70.2188
L18.3125 54.6875
L36.8125 54.6875
L36.8125 47.7031
L18.3125 47.7031
L18.3125 18.0156
Q18.3125 11.3281 20.1406 9.42188
Q21.9688 7.51562 27.5938 7.51562
L36.8125 7.51562
L36.8125 0
L27.5938 0
Q17.1875 0 13.2344 3.875
Q9.28125 7.76562 9.28125 18.0156
L9.28125 47.7031
L2.6875 47.7031
L2.6875 54.6875
L9.28125 54.6875
L9.28125 70.2188
z
" id="DejaVuSans-74"/>
      <path d="
M31 75.875
Q24.4688 64.6562 21.2812 53.6562
Q18.1094 42.6719 18.1094 31.3906
Q18.1094 20.125 21.3125 9.0625
Q24.5156 -2 31 -13.1875
L23.1875 -13.1875
Q15.875 -1.70312 12.2344 9.375
Q8.59375 20.4531 8.59375 31.3906
Q8.59375 42.2812 12.2031 53.3125
Q15.8281 64.3594 23.1875 75.875
z
" id="DejaVuSans-28"/>
      <path d="
M56.2031 29.5938
L56.2031 25.2031
L14.8906 25.2031
Q15.4844 15.9219 20.4844 11.0625
Q25.4844 6.20312 34.4219 6.20312
Q39.5938 6.20312 44.4531 7.46875
Q49.3125 8.73438 54.1094 11.2812
L54.1094 2.78125
Q49.2656 0.734375 44.1875 -0.34375
Q39.1094 -1.42188 33.8906 -1.42188
Q20.7969 -1.42188 13.1562 6.1875
Q5.51562 13.8125 5.51562 26.8125
Q5.51562 40.2344 12.7656 48.1094
Q20.0156 56 32.3281 56
Q43.3594 56 49.7812 48.8906
Q56.2031 41.7969 56.2031 29.5938
M47.2188 32.2344
Q47.125 39.5938 43.0938 43.9844
Q39.0625 48.3906 32.4219 48.3906
Q24.9062 48.3906 20.3906 44.1406
Q15.875 39.8906 15.1875 32.1719
z
" id="DejaVuSans-65"/>
      <path d="
M18.1094 8.20312
L18.1094 -20.7969
L9.07812 -20.7969
L9.07812 54.6875
L18.1094 54.6875
L18.1094 46.3906
Q20.9531 51.2656 25.2656 53.625
Q29.5938 56 35.5938 56
Q45.5625 56 51.7812 48.0938
Q58.0156 40.1875 58.0156 27.2969
Q58.0156 14.4062 51.7812 6.48438
Q45.5625 -1.42188 35.5938 -1.42188
Q29.5938 -1.42188 25.2656 0.953125
Q20.9531 3.32812 18.1094 8.20312
M48.6875 27.2969
Q48.6875 37.2031 44.6094 42.8438
Q40.5312 48.4844 33.4062 48.4844
Q26.2656 48.4844 22.1875 42.8438
Q18.1094 37.2031 18.1094 27.2969
Q18.1094 17.3906 22.1875 11.75
Q26.2656 6.10938 33.4062 6.10938
Q40.5312 6.10938 44.6094 11.75
Q48.6875 17.3906 48.6875 27.2969" id="DejaVuSans-70"/>
      <path d="
M41.1094 46.2969
Q39.5938 47.1719 37.8125 47.5781
Q36.0312 48 33.8906 48
Q26.2656 48 22.1875 43.0469
Q18.1094 38.0938 18.1094 28.8125
L18.1094 0
L9.07812 0
L9.07812 54.6875
L18.1094 54.6875
L18.1094 46.1875
Q20.9531 51.1719 25.4844 53.5781
Q30.0312 56 36.5312 56
Q37.4531 56 38.5781 55.875
Q39.7031 55.7656 41.0625 55.5156
z
" id="DejaVuSans-72"/>
     </defs>
     <g transform="translate(375.19546875 270.571875)scale(0.12 -0.12)">
      <use xlink:href="#DejaVuSans-44"/>
      <use x="77.001953125" xlink:href="#DejaVuSans-65"/>
      <use x="138.525390625" xlink:href="#DejaVuSans-70"/>
      <use x="202.001953125" xlink:href="#DejaVuSans-74"/>
      <use x="241.2109375" xlink:href="#DejaVuSans-68"/>
      <use x="304.58984375" xlink:href="#DejaVuSans-20"/>
      <use x="336.376953125" xlink:href="#DejaVuSans-6f"/>
      <use x="397.55859375" xlink:href="#DejaVuSans-66"/>
      <use x="432.763671875" xlink:href="#DejaVuSans-20"/>
      <use x="464.55078125" xlink:href="#DejaVuSans-49"/>
      <use x="494.04296875" xlink:href="#DejaVuSans-6e"/>
      <use x="557.421875" xlink:href="#DejaVuSans-74"/>
      <use x="596.630859375" xlink:href="#DejaVuSans-65"/>
      <use x="658.154296875" xlink:href="#DejaVuSans-72"/>
      <use x="699.267578125" xlink:href="#DejaVuSans-61"/>
      <use x="760.546875" xlink:href="#DejaVuSans-63"/>
      <use x="815.52734375" xlink:href="#DejaVuSans-74"/>
      <use x="854.736328125" xlink:href="#DejaVuSans-69"/>
      <use x="882.51953125" xlink:href="#DejaVuSans-6f"/>
      <use x="943.701171875" xlink:href="#DejaVuSans-6e"/>
      <use x="1007.08007812" xlink:href="#DejaVuSans-20"/>
      <use x="1038.8671875" xlink:href="#DejaVuSans-28"/>
      <use x="1077.88085938" xlink:href="#DejaVuSans-6d"/>
      <use x="1175.29296875" xlink:href="#DejaVuSans-6d"/>
      <use x="1272.70507812" xlink:href="#DejaVuSans-29"/>
     </g>
    </g>
   </g>
   <g id="matplotlib.axis_2">
    <g id="ytick_1">
     <g id="line2d_27">
      <defs>
       <path d="
M0 0
L4 0" id="m728421d6d4" style="stroke:#000000;stroke-width:0.5;"/>
      </defs>
      <g>
       <use style="stroke:#000000;stroke-width:0.5;" x="55.7240625" xlink:href="#m728421d6d4" y="240.84"/>
      </g>
     </g>
     <g id="line2d_28">
      <defs>
       <path d="
M0 0
L-4 0" id="mcb0005524f" style="stroke:#000000;stroke-width:0.5;"/>
      </defs>
      <g>
       <use style="stroke:#000000;stroke-width:0.5;" x="851.04" xlink:href="#mcb0005524f" y="240.84"/>
      </g>
     </g>
     <g id="text_9">
      <!-- 180 -->
      <defs>
       <path d="
M31.7812 34.625
Q24.75 34.625 20.7188 30.8594
Q16.7031 27.0938 16.7031 20.5156
Q16.7031 13.9219 20.7188 10.1562
Q24.75 6.39062 31.7812 6.39062
Q38.8125 6.39062 42.8594 10.1719
Q46.9219 13.9688 46.9219 20.5156
Q46.9219 27.0938 42.8906 30.8594
Q38.875 34.625 31.7812 34.625
M21.9219 38.8125
Q15.5781 40.375 12.0312 44.7188
Q8.5 49.0781 8.5 55.3281
Q8.5 64.0625 14.7188 69.1406
Q20.9531 74.2188 31.7812 74.2188
Q42.6719 74.2188 48.875 69.1406
Q55.0781 64.0625 55.0781 55.3281
Q55.0781 49.0781 51.5312 44.7188
Q48 40.375 41.7031 38.8125
Q48.8281 37.1562 52.7969 32.3125
Q56.7812 27.4844 56.7812 20.5156
Q56.7812 9.90625 50.3125 4.23438
Q43.8438 -1.42188 31.7812 -1.42188
Q19.7344 -1.42188 13.25 4.23438
Q6.78125 9.90625 6.78125 20.5156
Q6.78125 27.4844 10.7812 32.3125
Q14.7969 37.1562 21.9219 38.8125
M18.3125 54.3906
Q18.3125 48.7344 21.8438 45.5625
Q25.3906 42.3906 31.7812 42.3906
Q38.1406 42.3906 41.7188 45.5625
Q45.3125 48.7344 45.3125 54.3906
Q45.3125 60.0625 41.7188 63.2344
Q38.1406 66.4062 31.7812 66.4062
Q25.3906 66.4062 21.8438 63.2344
Q18.3125 60.0625 18.3125 54.3906" id="DejaVuSans-38"/>
      </defs>
      <g transform="translate(30.9340625 244.15125)scale(0.12 -0.12)">
       <use xlink:href="#DejaVuSans-31"/>
       <use x="63.623046875" xlink:href="#DejaVuSans-38"/>
       <use x="127.24609375" xlink:href="#DejaVuSans-30"/>
      </g>
     </g>
    </g>
    <g id="ytick_2">
     <g id="line2d_29">
      <g>
       <use style="stroke:#000000;stroke-width:0.5;" x="55.7240625" xlink:href="#m728421d6d4" y="203.91"/>
      </g>
     </g>
     <g id="line2d_30">
      <g>
       <use style="stroke:#000000;stroke-width:0.5;" x="851.04" xlink:href="#mcb0005524f" y="203.91"/>
      </g>
     </g>
     <g id="text_10">
      <!-- 200 -->
      <g transform="translate(30.4953125 207.22125)scale(0.12 -0.12)">
       <use xlink:href="#DejaVuSans-32"/>
       <use x="63.623046875" xlink:href="#DejaVuSans-30"/>
       <use x="127.24609375" xlink:href="#DejaVuSans-30"/>
      </g>
     </g>
    </g>
    <g id="ytick_3">
     <g id="line2d_31">
      <g>
       <use style="stroke:#000000;stroke-width:0.5;" x="55.7240625" xlink:href="#m728421d6d4" y="166.98"/>
      </g>
     </g>
     <g id="line2d_32">
      <g>
       <use style="stroke:#000000;stroke-width:0.5;" x="851.04" xlink:href="#mcb0005524f" y="166.98"/>
      </g>
     </g>
     <g id="text_11">
      <!-- 220 -->
      <g transform="translate(30.4953125 170.29125)scale(0.12 -0.12)">
       <use xlink:href="#DejaVuSans-32"/>
       <use x="63.623046875" xlink:href="#DejaVuSans-32"/>
       <use x="127.24609375" xlink:href="#DejaVuSans-30"/>
      </g>
     </g>
    </g>
    <g id="ytick_4">
     <g id="line2d_33">
      <g>
       <use style="stroke:#000000;stroke-width:0.5;" x="55.7240625" xlink:href="#m728421d6d4" y="130.05"/>
      </g>
     </g>
     <g id="line2d_34">
      <g>
       <use style="stroke:#000000;stroke-width:0.5;" x="851.04" xlink:href="#mcb0005524f" y="130.05"/>
      </g>
     </g>
     <g id="text_12">
      <!-- 240 -->
      <defs>
       <path d="
M37.7969 64.3125
L12.8906 25.3906
L37.7969 25.3906
z

M35.2031 72.9062
L47.6094 72.9062
L47.6094 25.3906
L58.0156 25.3906
L58.0156 17.1875
L47.6094 17.1875
L47.6094 0
L37.7969 0
L37.7969 17.1875
L4.89062 17.1875
L4.89062 26.7031
z
" id="DejaVuSans-34"/>
      </defs>
      <g transform="translate(30.4953125 133.36125)scale(0.12 -0.12)">
       <use xlink:href="#DejaVuSans-32"/>
       <use x="63.623046875" xlink:href="#DejaVuSans-34"/>
       <use x="127.24609375" xlink:href="#DejaVuSans-30"/>
      </g>
     </g>
    </g>
    <g id="ytick_5">
     <g id="line2d_35">
      <g>
       <use style="stroke:#000000;stroke-width:0.5;" x="55.7240625" xlink:href="#m728421d6d4" y="93.12"/>
      </g>
     </g>
     <g id="line2d_36">
      <g>
       <use style="stroke:#000000;stroke-width:0.5;" x="851.04" xlink:href="#mcb0005524f" y="93.12"/>
      </g>
     </g>
     <g id="text_13">
      <!-- 260 -->
      <defs>
       <path d="
M33.0156 40.375
Q26.375 40.375 22.4844 35.8281
Q18.6094 31.2969 18.6094 23.3906
Q18.6094 15.5312 22.4844 10.9531
Q26.375 6.39062 33.0156 6.39062
Q39.6562 6.39062 43.5312 10.9531
Q47.4062 15.5312 47.4062 23.3906
Q47.4062 31.2969 43.5312 35.8281
Q39.6562 40.375 33.0156 40.375
M52.5938 71.2969
L52.5938 62.3125
Q48.875 64.0625 45.0938 64.9844
Q41.3125 65.9219 37.5938 65.9219
Q27.8281 65.9219 22.6719 59.3281
Q17.5312 52.7344 16.7969 39.4062
Q19.6719 43.6562 24.0156 45.9219
Q28.375 48.1875 33.5938 48.1875
Q44.5781 48.1875 50.9531 41.5156
Q57.3281 34.8594 57.3281 23.3906
Q57.3281 12.1562 50.6875 5.35938
Q44.0469 -1.42188 33.0156 -1.42188
Q20.3594 -1.42188 13.6719 8.26562
Q6.98438 17.9688 6.98438 36.375
Q6.98438 53.6562 15.1875 63.9375
Q23.3906 74.2188 37.2031 74.2188
Q40.9219 74.2188 44.7031 73.4844
Q48.4844 72.75 52.5938 71.2969" id="DejaVuSans-36"/>
      </defs>
      <g transform="translate(30.4953125 96.43125)scale(0.12 -0.12)">
       <use xlink:href="#DejaVuSans-32"/>
       <use x="63.623046875" xlink:href="#DejaVuSans-36"/>
       <use x="127.24609375" xlink:href="#DejaVuSans-30"/>
      </g>
     </g>
    </g>
    <g id="ytick_6">
     <g id="line2d_37">
      <g>
       <use style="stroke:#000000;stroke-width:0.5;" x="55.7240625" xlink:href="#m728421d6d4" y="56.19"/>
      </g>
     </g>
     <g id="line2d_38">
      <g>
       <use style="stroke:#000000;stroke-width:0.5;" x="851.04" xlink:href="#mcb0005524f" y="56.19"/>
      </g>
     </g>
     <g id="text_14">
      <!-- 280 -->
      <g transform="translate(30.4953125 59.50125)scale(0.12 -0.12)">
       <use xlink:href="#DejaVuSans-32"/>
       <use x="63.623046875" xlink:href="#DejaVuSans-38"/>
       <use x="127.24609375" xlink:href="#DejaVuSans-30"/>
      </g>
     </g>
    </g>
    <g id="ytick_7">
     <g id="line2d_39">
      <g>
       <use style="stroke:#000000;stroke-width:0.5;" x="55.7240625" xlink:href="#m728421d6d4" y="19.26"/>
      </g>
     </g>
     <g id="line2d_40">
      <g>
       <use style="stroke:#000000;stroke-width:0.5;" x="851.04" xlink:href="#mcb0005524f" y="19.26"/>
      </g>
     </g>
     <g id="text_15">
      <!-- 300 -->
      <g transform="translate(30.5309375 22.57125)scale(0.12 -0.12)">
       <use xlink:href="#DejaVuSans-33"/>
       <use x="63.623046875" xlink:href="#DejaVuSans-30"/>
       <use x="127.24609375" xlink:href="#DejaVuSans-30"/>
      </g>
     </g>
    </g>
    <g id="text_16">
     <!-- Coincidence Time Resolution (ps) -->
     <defs>
      <path d="
M9.42188 75.9844
L18.4062 75.9844
L18.4062 0
L9.42188 0
z
" id="DejaVuSans-6c"/>
      <path d="
M64.4062 67.2812
L64.4062 56.8906
Q59.4219 61.5312 53.7812 63.8125
Q48.1406 66.1094 41.7969 66.1094
Q29.2969 66.1094 22.6562 58.4688
Q16.0156 50.8281 16.0156 36.375
Q16.0156 21.9688 22.6562 14.3281
Q29.2969 6.6875 41.7969 6.6875
Q48.1406 6.6875 53.7812 8.98438
Q59.4219 11.2812 64.4062 15.9219
L64.4062 5.60938
Q59.2344 2.09375 53.4375 0.328125
Q47.6562 -1.42188 41.2188 -1.42188
Q24.6562 -1.42188 15.125 8.70312
Q5.60938 18.8438 5.60938 36.375
Q5.60938 53.9531 15.125 64.0781
Q24.6562 74.2188 41.2188 74.2188
Q47.75 74.2188 53.5312 72.4844
Q59.3281 70.75 64.4062 67.2812" id="DejaVuSans-43"/>
      <path d="
M8.5 21.5781
L8.5 54.6875
L17.4844 54.6875
L17.4844 21.9219
Q17.4844 14.1562 20.5 10.2656
Q23.5312 6.39062 29.5938 6.39062
Q36.8594 6.39062 41.0781 11.0312
Q45.3125 15.6719 45.3125 23.6875
L45.3125 54.6875
L54.2969 54.6875
L54.2969 0
L45.3125 0
L45.3125 8.40625
Q42.0469 3.42188 37.7188 1
Q33.4062 -1.42188 27.6875 -1.42188
Q18.2656 -1.42188 13.375 4.4375
Q8.5 10.2969 8.5 21.5781
M31.1094 56
z
" id="DejaVuSans-75"/>
      <path d="
M44.3906 34.1875
Q47.5625 33.1094 50.5625 29.5938
Q53.5625 26.0781 56.5938 19.9219
L66.6094 0
L56 0
L46.6875 18.7031
Q43.0625 26.0312 39.6719 28.4219
Q36.2812 30.8125 30.4219 30.8125
L19.6719 30.8125
L19.6719 0
L9.8125 0
L9.8125 72.9062
L32.0781 72.9062
Q44.5781 72.9062 50.7344 67.6719
Q56.8906 62.4531 56.8906 51.9062
Q56.8906 45.0156 53.6875 40.4688
Q50.4844 35.9375 44.3906 34.1875
M19.6719 64.7969
L19.6719 38.9219
L32.0781 38.9219
Q39.2031 38.9219 42.8438 42.2188
Q46.4844 45.5156 46.4844 51.9062
Q46.4844 58.2969 42.8438 61.5469
Q39.2031 64.7969 32.0781 64.7969
z
" id="DejaVuSans-52"/>
      <path d="
M45.4062 46.3906
L45.4062 75.9844
L54.3906 75.9844
L54.3906 0
L45.4062 0
L45.4062 8.20312
Q42.5781 3.32812 38.25 0.953125
Q33.9375 -1.42188 27.875 -1.42188
Q17.9688 -1.42188 11.7344 6.48438
Q5.51562 14.4062 5.51562 27.2969
Q5.51562 40.1875 11.7344 48.0938
Q17.9688 56 27.875 56
Q33.9375 56 38.25 53.625
Q42.5781 51.2656 45.4062 46.3906
M14.7969 27.2969
Q14.7969 17.3906 18.875 11.75
Q22.9531 6.10938 30.0781 6.10938
Q37.2031 6.10938 41.2969 11.75
Q45.4062 17.3906 45.4062 27.2969
Q45.4062 37.2031 41.2969 42.8438
Q37.2031 48.4844 30.0781 48.4844
Q22.9531 48.4844 18.875 42.8438
Q14.7969 37.2031 14.7969 27.2969" id="DejaVuSans-64"/>
      <path d="
M44.2812 53.0781
L44.2812 44.5781
Q40.4844 46.5312 36.375 47.5
Q32.2812 48.4844 27.875 48.4844
Q21.1875 48.4844 17.8438 46.4375
Q14.5 44.3906 14.5 40.2812
Q14.5 37.1562 16.8906 35.375
Q19.2812 33.5938 26.5156 31.9844
L29.5938 31.2969
Q39.1562 29.25 43.1875 25.5156
Q47.2188 21.7812 47.2188 15.0938
Q47.2188 7.46875 41.1875 3.01562
Q35.1562 -1.42188 24.6094 -1.42188
Q20.2188 -1.42188 15.4531 -0.5625
Q10.6875 0.296875 5.42188 2
L5.42188 11.2812
Q10.4062 8.6875 15.2344 7.39062
Q20.0625 6.10938 24.8125 6.10938
Q31.1562 6.10938 34.5625 8.28125
Q37.9844 10.4531 37.9844 14.4062
Q37.9844 18.0625 35.5156 20.0156
Q33.0625 21.9688 24.7031 23.7812
L21.5781 24.5156
Q13.2344 26.2656 9.51562 29.9062
Q5.8125 33.5469 5.8125 39.8906
Q5.8125 47.6094 11.2812 51.7969
Q16.75 56 26.8125 56
Q31.7812 56 36.1719 55.2656
Q40.5781 54.5469 44.2812 53.0781" id="DejaVuSans-73"/>
      <path d="
M-0.296875 72.9062
L61.375 72.9062
L61.375 64.5938
L35.5 64.5938
L35.5 0
L25.5938 0
L25.5938 64.5938
L-0.296875 64.5938
z
" id="DejaVuSans-54"/>
     </defs>
     <g transform="translate(22.9996875 229.4925)rotate(-90.0)scale(0.12 -0.12)">
      <use xlink:href="#DejaVuSans-43"/>
      <use x="69.82421875" xlink:href="#DejaVuSans-6f"/>
      <use x="131.005859375" xlink:href="#DejaVuSans-69"/>
      <use x="158.7890625" xlink:href="#DejaVuSans-6e"/>
      <use x="222.16796875" xlink:href="#DejaVuSans-63"/>
      <use x="277.1484375" xlink:href="#DejaVuSans-69"/>
      <use x="304.931640625" xlink:href="#DejaVuSans-64"/>
      <use x="368.408203125" xlink:href="#DejaVuSans-65"/>
      <use x="429.931640625" xlink:href="#DejaVuSans-6e"/>
      <use x="493.310546875" xlink:href="#DejaVuSans-63"/>
      <use x="548.291015625" xlink:href="#DejaVuSans-65"/>
      <use x="609.814453125" xlink:href="#DejaVuSans-20"/>
      <use x="641.6015625" xlink:href="#DejaVuSans-54"/>
      <use x="699.560546875" xlink:href="#DejaVuSans-69"/>
      <use x="727.34375" xlink:href="#DejaVuSans-6d"/>
      <use x="824.755859375" xlink:href="#DejaVuSans-65"/>
      <use x="886.279296875" xlink:href="#DejaVuSans-20"/>
      <use x="918.06640625" xlink:href="#DejaVuSans-52"/>
      <use x="983.048828125" xlink:href="#DejaVuSans-65"/>
      <use x="1044.57226562" xlink:href="#DejaVuSans-73"/>
      <use x="1096.671875" xlink:href="#DejaVuSans-6f"/>
      <use x="1157.85351562" xlink:href="#DejaVuSans-6c"/>
      <use x="1185.63671875" xlink:href="#DejaVuSans-75"/>
      <use x="1249.015625" xlink:href="#DejaVuSans-74"/>
      <use x="1288.22460938" xlink:href="#DejaVuSans-69"/>
      <use x="1316.0078125" xlink:href="#DejaVuSans-6f"/>
      <use x="1377.18945312" xlink:href="#DejaVuSans-6e"/>
      <use x="1440.56835938" xlink:href="#DejaVuSans-20"/>
      <use x="1472.35546875" xlink:href="#DejaVuSans-28"/>
      <use x="1511.36914062" xlink:href="#DejaVuSans-70"/>
      <use x="1574.84570312" xlink:href="#DejaVuSans-73"/>
      <use x="1626.9453125" xlink:href="#DejaVuSans-29"/>
     </g>
    </g>
   </g>
   <g id="patch_3">
    <path d="
M55.7241 19.26
L851.04 19.26" style="fill:none;stroke:#000000;"/>
   </g>
   <g id="patch_4">
    <path d="
M851.04 240.84
L851.04 19.26" style="fill:none;stroke:#000000;"/>
   </g>
   <g id="patch_5">
    <path d="
M55.7241 240.84
L851.04 240.84" style="fill:none;stroke:#000000;"/>
   </g>
   <g id="patch_6">
    <path d="
M55.7241 240.84
L55.7241 19.26" style="fill:none;stroke:#000000;"/>
   </g>
   <g id="legend_1">
    <g id="patch_7">
     <path d="
M62.9241 233.64
L390.691 233.64
L390.691 187.047
L62.9241 187.047
L62.9241 233.64
z
" style="fill:#ffffff;stroke:#000000;"/>
    </g>
    <g id="LineCollection_5">
     <defs>
      <path d="
M73.0041 -82.0912
L73.0041 -96.4912" id="C4_0_ce4088b84d"/>
      <path d="
M93.1641 -82.0912
L93.1641 -96.4912" id="C4_1_8ffc36d4c3"/>
     </defs>
     <use style="fill:none;stroke:#0000ff;" x="0.0" xlink:href="#C4_0_ce4088b84d" y="288.0"/>
     <use style="fill:none;stroke:#0000ff;" x="0.0" xlink:href="#C4_1_8ffc36d4c3" y="288.0"/>
    </g>
    <g id="line2d_41">
     <g>
      <use style="fill:#0000ff;stroke:#0000ff;stroke-width:0.5;" x="73.0040625" xlink:href="#mdde457ef1d" y="205.90875"/>
      <use style="fill:#0000ff;stroke:#0000ff;stroke-width:0.5;" x="93.1640625" xlink:href="#mdde457ef1d" y="205.90875"/>
     </g>
    </g>
    <g id="line2d_42">
     <g>
      <use style="fill:#0000ff;stroke:#0000ff;stroke-width:0.5;" x="73.0040625" xlink:href="#mdde457ef1d" y="191.50875"/>
      <use style="fill:#0000ff;stroke:#0000ff;stroke-width:0.5;" x="93.1640625" xlink:href="#mdde457ef1d" y="191.50875"/>
     </g>
    </g>
    <g id="line2d_43"/>
    <g id="line2d_44">
     <g>
      <use style="fill:#0000ff;stroke:#000000;stroke-linejoin:bevel;stroke-width:0.5;" x="73.0040625" xlink:href="#m2000094e96" y="198.70875"/>
      <use style="fill:#0000ff;stroke:#000000;stroke-linejoin:bevel;stroke-width:0.5;" x="93.1640625" xlink:href="#m2000094e96" y="198.70875"/>
     </g>
    </g>
    <g id="text_17">
     <!-- 30A unwrapped -->
     <defs>
      <path d="
M4.20312 54.6875
L13.1875 54.6875
L24.4219 12.0156
L35.5938 54.6875
L46.1875 54.6875
L57.4219 12.0156
L68.6094 54.6875
L77.5938 54.6875
L63.2812 0
L52.6875 0
L40.9219 44.8281
L29.1094 0
L18.5 0
z
" id="DejaVuSans-77"/>
      <path d="
M34.1875 63.1875
L20.7969 26.9062
L47.6094 26.9062
z

M28.6094 72.9062
L39.7969 72.9062
L67.5781 0
L57.3281 0
L50.6875 18.7031
L17.8281 18.7031
L11.1875 0
L0.78125 0
z
" id="DejaVuSans-41"/>
     </defs>
     <g transform="translate(109.0040625 203.74875)scale(0.144 -0.144)">
      <use xlink:href="#DejaVuSans-33"/>
      <use x="63.623046875" xlink:href="#DejaVuSans-30"/>
      <use x="127.24609375" xlink:href="#DejaVuSans-41"/>
      <use x="195.654296875" xlink:href="#DejaVuSans-20"/>
      <use x="227.44140625" xlink:href="#DejaVuSans-75"/>
      <use x="290.8203125" xlink:href="#DejaVuSans-6e"/>
      <use x="354.19921875" xlink:href="#DejaVuSans-77"/>
      <use x="435.986328125" xlink:href="#DejaVuSans-72"/>
      <use x="477.099609375" xlink:href="#DejaVuSans-61"/>
      <use x="538.37890625" xlink:href="#DejaVuSans-70"/>
      <use x="601.85546875" xlink:href="#DejaVuSans-70"/>
      <use x="665.33203125" xlink:href="#DejaVuSans-65"/>
      <use x="726.85546875" xlink:href="#DejaVuSans-64"/>
     </g>
    </g>
    <g id="LineCollection_6">
     <defs>
      <path d="
M73.0041 -60.9547
L73.0041 -75.3547" id="C5_0_6d87cae35b"/>
      <path d="
M93.1641 -60.9547
L93.1641 -75.3547" id="C5_1_793e302f3a"/>
     </defs>
     <use style="fill:none;stroke:#0000ff;" x="0.0" xlink:href="#C5_0_6d87cae35b" y="288.0"/>
     <use style="fill:none;stroke:#0000ff;" x="0.0" xlink:href="#C5_1_793e302f3a" y="288.0"/>
    </g>
    <g id="line2d_45">
     <g>
      <use style="fill:#0000ff;stroke:#0000ff;stroke-width:0.5;" x="73.0040625" xlink:href="#mdde457ef1d" y="227.04525"/>
      <use style="fill:#0000ff;stroke:#0000ff;stroke-width:0.5;" x="93.1640625" xlink:href="#mdde457ef1d" y="227.04525"/>
     </g>
    </g>
    <g id="line2d_46">
     <g>
      <use style="fill:#0000ff;stroke:#0000ff;stroke-width:0.5;" x="73.0040625" xlink:href="#mdde457ef1d" y="212.64525"/>
      <use style="fill:#0000ff;stroke:#0000ff;stroke-width:0.5;" x="93.1640625" xlink:href="#mdde457ef1d" y="212.64525"/>
     </g>
    </g>
    <g id="line2d_47"/>
    <g id="line2d_48">
     <g>
      <use style="fill:#0000ff;stroke:#000000;stroke-linejoin:miter;stroke-width:0.5;" x="73.0040625" xlink:href="#m225e1ef6c6" y="219.84525"/>
      <use style="fill:#0000ff;stroke:#000000;stroke-linejoin:miter;stroke-width:0.5;" x="93.1640625" xlink:href="#m225e1ef6c6" y="219.84525"/>
     </g>
    </g>
    <g id="text_18">
     <!-- 30B unwrapped -->
     <defs>
      <path d="
M19.6719 34.8125
L19.6719 8.10938
L35.5 8.10938
Q43.4531 8.10938 47.2812 11.4062
Q51.125 14.7031 51.125 21.4844
Q51.125 28.3281 47.2812 31.5625
Q43.4531 34.8125 35.5 34.8125
z

M19.6719 64.7969
L19.6719 42.8281
L34.2812 42.8281
Q41.5 42.8281 45.0312 45.5312
Q48.5781 48.25 48.5781 53.8125
Q48.5781 59.3281 45.0312 62.0625
Q41.5 64.7969 34.2812 64.7969
z

M9.8125 72.9062
L35.0156 72.9062
Q46.2969 72.9062 52.3906 68.2188
Q58.5 63.5312 58.5 54.8906
Q58.5 48.1875 55.375 44.2344
Q52.25 40.2812 46.1875 39.3125
Q53.4688 37.75 57.5 32.7812
Q61.5312 27.8281 61.5312 20.4062
Q61.5312 10.6406 54.8906 5.3125
Q48.25 0 35.9844 0
L9.8125 0
z
" id="DejaVuSans-42"/>
     </defs>
     <g transform="translate(109.0040625 224.88525)scale(0.144 -0.144)">
      <use xlink:href="#DejaVuSans-33"/>
      <use x="63.623046875" xlink:href="#DejaVuSans-30"/>
      <use x="127.24609375" xlink:href="#DejaVuSans-42"/>
      <use x="195.849609375" xlink:href="#DejaVuSans-20"/>
      <use x="227.63671875" xlink:href="#DejaVuSans-75"/>
      <use x="291.015625" xlink:href="#DejaVuSans-6e"/>
      <use x="354.39453125" xlink:href="#DejaVuSans-77"/>
      <use x="436.181640625" xlink:href="#DejaVuSans-72"/>
      <use x="477.294921875" xlink:href="#DejaVuSans-61"/>
      <use x="538.57421875" xlink:href="#DejaVuSans-70"/>
      <use x="602.05078125" xlink:href="#DejaVuSans-70"/>
      <use x="665.52734375" xlink:href="#DejaVuSans-65"/>
      <use x="727.05078125" xlink:href="#DejaVuSans-64"/>
     </g>
    </g>
    <g id="LineCollection_7">
     <defs>
      <path d="
M254.653 -82.0912
L254.653 -96.4912" id="C6_0_4562d27ef2"/>
      <path d="
M274.813 -82.0912
L274.813 -96.4912" id="C6_1_0c77e6fff2"/>
     </defs>
     <use style="fill:none;stroke:#ff0000;" x="0.0" xlink:href="#C6_0_4562d27ef2" y="288.0"/>
     <use style="fill:none;stroke:#ff0000;" x="0.0" xlink:href="#C6_1_0c77e6fff2" y="288.0"/>
    </g>
    <g id="line2d_49">
     <g>
      <use style="fill:#ff0000;stroke:#ff0000;stroke-width:0.5;" x="254.6533125" xlink:href="#m12d35e2592" y="205.90875"/>
      <use style="fill:#ff0000;stroke:#ff0000;stroke-width:0.5;" x="274.8133125" xlink:href="#m12d35e2592" y="205.90875"/>
     </g>
    </g>
    <g id="line2d_50">
     <g>
      <use style="fill:#ff0000;stroke:#ff0000;stroke-width:0.5;" x="254.6533125" xlink:href="#m12d35e2592" y="191.50875"/>
      <use style="fill:#ff0000;stroke:#ff0000;stroke-width:0.5;" x="274.8133125" xlink:href="#m12d35e2592" y="191.50875"/>
     </g>
    </g>
    <g id="line2d_51"/>
    <g id="line2d_52">
     <g>
      <use style="fill:#ff0000;stroke:#000000;stroke-linejoin:bevel;stroke-width:0.5;" x="254.6533125" xlink:href="#m46c0476064" y="198.70875"/>
      <use style="fill:#ff0000;stroke:#000000;stroke-linejoin:bevel;stroke-width:0.5;" x="274.8133125" xlink:href="#m46c0476064" y="198.70875"/>
     </g>
    </g>
    <g id="text_19">
     <!-- 30A wrapped -->
     <g transform="translate(290.6533125 203.74875)scale(0.144 -0.144)">
      <use xlink:href="#DejaVuSans-33"/>
      <use x="63.623046875" xlink:href="#DejaVuSans-30"/>
      <use x="127.24609375" xlink:href="#DejaVuSans-41"/>
      <use x="195.654296875" xlink:href="#DejaVuSans-20"/>
      <use x="227.44140625" xlink:href="#DejaVuSans-77"/>
      <use x="309.228515625" xlink:href="#DejaVuSans-72"/>
      <use x="350.341796875" xlink:href="#DejaVuSans-61"/>
      <use x="411.62109375" xlink:href="#DejaVuSans-70"/>
      <use x="475.09765625" xlink:href="#DejaVuSans-70"/>
      <use x="538.57421875" xlink:href="#DejaVuSans-65"/>
      <use x="600.09765625" xlink:href="#DejaVuSans-64"/>
     </g>
    </g>
    <g id="LineCollection_8">
     <defs>
      <path d="
M254.653 -60.9547
L254.653 -75.3547" id="C7_0_f4bec33568"/>
      <path d="
M274.813 -60.9547
L274.813 -75.3547" id="C7_1_ca718c151e"/>
     </defs>
     <use style="fill:none;stroke:#ff0000;" x="0.0" xlink:href="#C7_0_f4bec33568" y="288.0"/>
     <use style="fill:none;stroke:#ff0000;" x="0.0" xlink:href="#C7_1_ca718c151e" y="288.0"/>
    </g>
    <g id="line2d_53">
     <g>
      <use style="fill:#ff0000;stroke:#ff0000;stroke-width:0.5;" x="254.6533125" xlink:href="#m12d35e2592" y="227.04525"/>
      <use style="fill:#ff0000;stroke:#ff0000;stroke-width:0.5;" x="274.8133125" xlink:href="#m12d35e2592" y="227.04525"/>
     </g>
    </g>
    <g id="line2d_54">
     <g>
      <use style="fill:#ff0000;stroke:#ff0000;stroke-width:0.5;" x="254.6533125" xlink:href="#m12d35e2592" y="212.64525"/>
      <use style="fill:#ff0000;stroke:#ff0000;stroke-width:0.5;" x="274.8133125" xlink:href="#m12d35e2592" y="212.64525"/>
     </g>
    </g>
    <g id="line2d_55"/>
    <g id="line2d_56">
     <g>
      <use style="fill:#ff0000;stroke:#000000;stroke-linejoin:miter;stroke-width:0.5;" x="254.6533125" xlink:href="#m9dfe19d8d5" y="219.84525"/>
      <use style="fill:#ff0000;stroke:#000000;stroke-linejoin:miter;stroke-width:0.5;" x="274.8133125" xlink:href="#m9dfe19d8d5" y="219.84525"/>
     </g>
    </g>
    <g id="text_20">
     <!-- 30B wrapped -->
     <g transform="translate(290.6533125 224.88525)scale(0.144 -0.144)">
      <use xlink:href="#DejaVuSans-33"/>
      <use x="63.623046875" xlink:href="#DejaVuSans-30"/>
      <use x="127.24609375" xlink:href="#DejaVuSans-42"/>
      <use x="195.849609375" xlink:href="#DejaVuSans-20"/>
      <use x="227.63671875" xlink:href="#DejaVuSans-77"/>
      <use x="309.423828125" xlink:href="#DejaVuSans-72"/>
      <use x="350.537109375" xlink:href="#DejaVuSans-61"/>
      <use x="411.81640625" xlink:href="#DejaVuSans-70"/>
      <use x="475.29296875" xlink:href="#DejaVuSans-70"/>
      <use x="538.76953125" xlink:href="#DejaVuSans-65"/>
      <use x="600.29296875" xlink:href="#DejaVuSans-64"/>
     </g>
    </g>
   </g>
  </g>
 </g>
 <defs>
  <clipPath id="pc6df0afb6d">
   <rect height="221.58" width="795.3159375" x="55.7240625" y="19.26"/>
  </clipPath>
 </defs>
</svg>
