<?xml version="1.0" encoding="utf-8" standalone="no"?>
<!DOCTYPE svg PUBLIC "-//W3C//DTD SVG 1.1//EN"
  "http://www.w3.org/Graphics/SVG/1.1/DTD/svg11.dtd">
<!-- Created with matplotlib (http://matplotlib.org/) -->
<svg height="288pt" version="1.1" viewBox="0 0 864 288" width="864pt" xmlns="http://www.w3.org/2000/svg" xmlns:xlink="http://www.w3.org/1999/xlink">
 <defs>
  <style type="text/css">
*{stroke-linecap:butt;stroke-linejoin:round;}
  </style>
 </defs>
 <g id="figure_1">
  <g id="patch_1">
   <path d="
M0 288
L864 288
L864 0
L0 0
z
" style="fill:#ffffff;"/>
  </g>
  <g id="axes_1">
   <g id="patch_2">
    <path d="
M57.2091 238.314
L848.88 238.314
L848.88 21.42
L57.2091 21.42
z
" style="fill:#ffffff;"/>
   </g>
   <g id="LineCollection_1">
    <defs>
     <path d="
M632.97 -227.423
L632.97 -237.895" id="C0_0_f20bbe71e1"/>
     <path d="
M129.179 -75.9186
L129.179 -85.4225" id="C0_1_b8acb38e4c"/>
     <path d="
M776.91 -224.572
L776.91 -235.515" id="C0_2_c1c186da52"/>
     <path d="
M273.119 -142.579
L273.119 -151.456" id="C0_3_c8b10ae3dd"/>
     <path d="
M453.045 -179.862
L453.045 -189.847" id="C0_4_ef99b05299"/>
    </defs>
    <g clip-path="url(#p134defd3b4)">
     <use style="fill:none;stroke:#0000ff;" x="0.0" xlink:href="#C0_0_f20bbe71e1" y="288.0"/>
    </g>
    <g clip-path="url(#p134defd3b4)">
     <use style="fill:none;stroke:#0000ff;" x="0.0" xlink:href="#C0_1_b8acb38e4c" y="288.0"/>
    </g>
    <g clip-path="url(#p134defd3b4)">
     <use style="fill:none;stroke:#0000ff;" x="0.0" xlink:href="#C0_2_c1c186da52" y="288.0"/>
    </g>
    <g clip-path="url(#p134defd3b4)">
     <use style="fill:none;stroke:#0000ff;" x="0.0" xlink:href="#C0_3_c8b10ae3dd" y="288.0"/>
    </g>
    <g clip-path="url(#p134defd3b4)">
     <use style="fill:none;stroke:#0000ff;" x="0.0" xlink:href="#C0_4_ef99b05299" y="288.0"/>
    </g>
   </g>
   <g id="LineCollection_2">
    <defs>
     <path d="
M632.97 -159.89
L632.97 -162.779" id="C1_0_f4ead486ed"/>
     <path d="
M129.179 -79.3458
L129.179 -81.9953" id="C1_1_27f6bc6dec"/>
     <path d="
M776.91 -166.745
L776.91 -169.821" id="C1_2_72b522b605"/>
     <path d="
M273.119 -120.378
L273.119 -122.786" id="C1_3_f5a820360e"/>
     <path d="
M453.045 -145.077
L453.045 -147.823" id="C1_4_cf1ff5fa56"/>
    </defs>
    <g clip-path="url(#p134defd3b4)">
     <use style="fill:none;stroke:#008000;" x="0.0" xlink:href="#C1_0_f4ead486ed" y="288.0"/>
    </g>
    <g clip-path="url(#p134defd3b4)">
     <use style="fill:none;stroke:#008000;" x="0.0" xlink:href="#C1_1_27f6bc6dec" y="288.0"/>
    </g>
    <g clip-path="url(#p134defd3b4)">
     <use style="fill:none;stroke:#008000;" x="0.0" xlink:href="#C1_2_72b522b605" y="288.0"/>
    </g>
    <g clip-path="url(#p134defd3b4)">
     <use style="fill:none;stroke:#008000;" x="0.0" xlink:href="#C1_3_f5a820360e" y="288.0"/>
    </g>
    <g clip-path="url(#p134defd3b4)">
     <use style="fill:none;stroke:#008000;" x="0.0" xlink:href="#C1_4_cf1ff5fa56" y="288.0"/>
    </g>
   </g>
   <g id="LineCollection_3">
    <defs>
     <path d="
M632.97 -132.337
L632.97 -134.006" id="C2_0_8b3694acec"/>
     <path d="
M129.179 -79.8521
L129.179 -81.489" id="C2_1_7b70c7a97c"/>
     <path d="
M776.91 -136.625
L776.91 -138.734" id="C2_2_7998ddd2f2"/>
     <path d="
M273.119 -109.025
L273.119 -110.781" id="C2_3_bdb26c3222"/>
     <path d="
M453.045 -123.876
L453.045 -125.532" id="C2_4_084b6cd569"/>
    </defs>
    <g clip-path="url(#p134defd3b4)">
     <use style="fill:none;stroke:#ff0000;" x="0.0" xlink:href="#C2_0_8b3694acec" y="288.0"/>
    </g>
    <g clip-path="url(#p134defd3b4)">
     <use style="fill:none;stroke:#ff0000;" x="0.0" xlink:href="#C2_1_7b70c7a97c" y="288.0"/>
    </g>
    <g clip-path="url(#p134defd3b4)">
     <use style="fill:none;stroke:#ff0000;" x="0.0" xlink:href="#C2_2_7998ddd2f2" y="288.0"/>
    </g>
    <g clip-path="url(#p134defd3b4)">
     <use style="fill:none;stroke:#ff0000;" x="0.0" xlink:href="#C2_3_bdb26c3222" y="288.0"/>
    </g>
    <g clip-path="url(#p134defd3b4)">
     <use style="fill:none;stroke:#ff0000;" x="0.0" xlink:href="#C2_4_084b6cd569" y="288.0"/>
    </g>
   </g>
   <g id="LineCollection_4">
    <defs>
     <path d="
M632.97 -124.664
L632.97 -126.21" id="C3_0_ece3428bd0"/>
     <path d="
M129.179 -79.955
L129.179 -81.3861" id="C3_1_54fcd348f1"/>
     <path d="
M776.91 -130.68
L776.91 -132.4" id="C3_2_7fd1d25f90"/>
     <path d="
M273.119 -104.446
L273.119 -105.883" id="C3_3_566e5393a7"/>
    </defs>
    <g clip-path="url(#p134defd3b4)">
     <use style="fill:none;stroke:#00bfbf;" x="0.0" xlink:href="#C3_0_ece3428bd0" y="288.0"/>
    </g>
    <g clip-path="url(#p134defd3b4)">
     <use style="fill:none;stroke:#00bfbf;" x="0.0" xlink:href="#C3_1_54fcd348f1" y="288.0"/>
    </g>
    <g clip-path="url(#p134defd3b4)">
     <use style="fill:none;stroke:#00bfbf;" x="0.0" xlink:href="#C3_2_7fd1d25f90" y="288.0"/>
    </g>
    <g clip-path="url(#p134defd3b4)">
     <use style="fill:none;stroke:#00bfbf;" x="0.0" xlink:href="#C3_3_566e5393a7" y="288.0"/>
    </g>
   </g>
   <g id="line2d_1">
    <defs>
     <path d="
M3 1.83697e-16
L-3 -1.83697e-16" id="mdde457ef1d" style="stroke:#0000ff;stroke-width:0.5;"/>
    </defs>
    <g clip-path="url(#p134defd3b4)">
     <use style="fill:#0000ff;stroke:#0000ff;stroke-width:0.5;" x="632.969744318" xlink:href="#mdde457ef1d" y="60.5771660631"/>
     <use style="fill:#0000ff;stroke:#0000ff;stroke-width:0.5;" x="129.179147727" xlink:href="#mdde457ef1d" y="212.081392396"/>
     <use style="fill:#0000ff;stroke:#0000ff;stroke-width:0.5;" x="776.909914773" xlink:href="#mdde457ef1d" y="63.4281170279"/>
     <use style="fill:#0000ff;stroke:#0000ff;stroke-width:0.5;" x="273.119318182" xlink:href="#mdde457ef1d" y="145.42070407"/>
     <use style="fill:#0000ff;stroke:#0000ff;stroke-width:0.5;" x="453.04453125" xlink:href="#mdde457ef1d" y="108.138066227"/>
    </g>
   </g>
   <g id="line2d_2">
    <g clip-path="url(#p134defd3b4)">
     <use style="fill:#0000ff;stroke:#0000ff;stroke-width:0.5;" x="632.969744318" xlink:href="#mdde457ef1d" y="50.1048431289"/>
     <use style="fill:#0000ff;stroke:#0000ff;stroke-width:0.5;" x="129.179147727" xlink:href="#mdde457ef1d" y="202.577536175"/>
     <use style="fill:#0000ff;stroke:#0000ff;stroke-width:0.5;" x="776.909914773" xlink:href="#mdde457ef1d" y="52.484609894"/>
     <use style="fill:#0000ff;stroke:#0000ff;stroke-width:0.5;" x="273.119318182" xlink:href="#mdde457ef1d" y="136.544454744"/>
     <use style="fill:#0000ff;stroke:#0000ff;stroke-width:0.5;" x="453.04453125" xlink:href="#mdde457ef1d" y="98.1532648418"/>
    </g>
   </g>
   <g id="line2d_3">
    <defs>
     <path d="
M0 1.5
C0.397805 1.5 0.77937 1.34195 1.06066 1.06066
C1.34195 0.77937 1.5 0.397805 1.5 0
C1.5 -0.397805 1.34195 -0.77937 1.06066 -1.06066
C0.77937 -1.34195 0.397805 -1.5 0 -1.5
C-0.397805 -1.5 -0.77937 -1.34195 -1.06066 -1.06066
C-1.34195 -0.77937 -1.5 -0.397805 -1.5 0
C-1.5 0.397805 -1.34195 0.77937 -1.06066 1.06066
C-0.77937 1.34195 -0.397805 1.5 0 1.5
z
" id="m76a7ce5b4a" style="stroke:#0000ff;stroke-width:0.5;"/>
    </defs>
    <g clip-path="url(#p134defd3b4)">
     <use style="fill:#0000ff;stroke:#0000ff;stroke-width:0.5;" x="632.969744318" xlink:href="#m76a7ce5b4a" y="55.341004596"/>
     <use style="fill:#0000ff;stroke:#0000ff;stroke-width:0.5;" x="129.179147727" xlink:href="#m76a7ce5b4a" y="207.329464286"/>
     <use style="fill:#0000ff;stroke:#0000ff;stroke-width:0.5;" x="776.909914773" xlink:href="#m76a7ce5b4a" y="57.9563634609"/>
     <use style="fill:#0000ff;stroke:#0000ff;stroke-width:0.5;" x="273.119318182" xlink:href="#m76a7ce5b4a" y="140.982579407"/>
     <use style="fill:#0000ff;stroke:#0000ff;stroke-width:0.5;" x="453.04453125" xlink:href="#m76a7ce5b4a" y="103.145665534"/>
    </g>
   </g>
   <g id="line2d_4">
    <defs>
     <path d="
M3 1.83697e-16
L-3 -1.83697e-16" id="m1ef3793437" style="stroke:#008000;stroke-width:0.5;"/>
    </defs>
    <g clip-path="url(#p134defd3b4)">
     <use style="fill:#008000;stroke:#008000;stroke-width:0.5;" x="632.969744318" xlink:href="#m1ef3793437" y="128.110299893"/>
     <use style="fill:#008000;stroke:#008000;stroke-width:0.5;" x="129.179147727" xlink:href="#m1ef3793437" y="208.654183117"/>
     <use style="fill:#008000;stroke:#008000;stroke-width:0.5;" x="776.909914773" xlink:href="#m1ef3793437" y="121.255070643"/>
     <use style="fill:#008000;stroke:#008000;stroke-width:0.5;" x="273.119318182" xlink:href="#m1ef3793437" y="167.622383523"/>
     <use style="fill:#008000;stroke:#008000;stroke-width:0.5;" x="453.04453125" xlink:href="#m1ef3793437" y="142.923411759"/>
    </g>
   </g>
   <g id="line2d_5">
    <g clip-path="url(#p134defd3b4)">
     <use style="fill:#008000;stroke:#008000;stroke-width:0.5;" x="632.969744318" xlink:href="#m1ef3793437" y="125.22089939"/>
     <use style="fill:#008000;stroke:#008000;stroke-width:0.5;" x="129.179147727" xlink:href="#m1ef3793437" y="206.004745455"/>
     <use style="fill:#008000;stroke:#008000;stroke-width:0.5;" x="776.909914773" xlink:href="#m1ef3793437" y="118.179179484"/>
     <use style="fill:#008000;stroke:#008000;stroke-width:0.5;" x="273.119318182" xlink:href="#m1ef3793437" y="165.213741238"/>
     <use style="fill:#008000;stroke:#008000;stroke-width:0.5;" x="453.04453125" xlink:href="#m1ef3793437" y="140.176653734"/>
    </g>
   </g>
   <g id="line2d_6">
    <defs>
     <path d="
M0 1.5
C0.397805 1.5 0.77937 1.34195 1.06066 1.06066
C1.34195 0.77937 1.5 0.397805 1.5 0
C1.5 -0.397805 1.34195 -0.77937 1.06066 -1.06066
C0.77937 -1.34195 0.397805 -1.5 0 -1.5
C-0.397805 -1.5 -0.77937 -1.34195 -1.06066 -1.06066
C-1.34195 -0.77937 -1.5 -0.397805 -1.5 0
C-1.5 0.397805 -1.34195 0.77937 -1.06066 1.06066
C-0.77937 1.34195 -0.397805 1.5 0 1.5
z
" id="mb0b177905e" style="stroke:#008000;stroke-width:0.5;"/>
    </defs>
    <g clip-path="url(#p134defd3b4)">
     <use style="fill:#008000;stroke:#008000;stroke-width:0.5;" x="632.969744318" xlink:href="#mb0b177905e" y="126.665599641"/>
     <use style="fill:#008000;stroke:#008000;stroke-width:0.5;" x="129.179147727" xlink:href="#mb0b177905e" y="207.329464286"/>
     <use style="fill:#008000;stroke:#008000;stroke-width:0.5;" x="776.909914773" xlink:href="#mb0b177905e" y="119.717125064"/>
     <use style="fill:#008000;stroke:#008000;stroke-width:0.5;" x="273.119318182" xlink:href="#mb0b177905e" y="166.418062381"/>
     <use style="fill:#008000;stroke:#008000;stroke-width:0.5;" x="453.04453125" xlink:href="#mb0b177905e" y="141.550032746"/>
    </g>
   </g>
   <g id="line2d_7">
    <defs>
     <path d="
M3 1.83697e-16
L-3 -1.83697e-16" id="m12d35e2592" style="stroke:#ff0000;stroke-width:0.5;"/>
    </defs>
    <g clip-path="url(#p134defd3b4)">
     <use style="fill:#ff0000;stroke:#ff0000;stroke-width:0.5;" x="632.969744318" xlink:href="#m12d35e2592" y="155.662923389"/>
     <use style="fill:#ff0000;stroke:#ff0000;stroke-width:0.5;" x="129.179147727" xlink:href="#m12d35e2592" y="208.14790372"/>
     <use style="fill:#ff0000;stroke:#ff0000;stroke-width:0.5;" x="776.909914773" xlink:href="#m12d35e2592" y="151.3749176"/>
     <use style="fill:#ff0000;stroke:#ff0000;stroke-width:0.5;" x="273.119318182" xlink:href="#m12d35e2592" y="178.974923886"/>
     <use style="fill:#ff0000;stroke:#ff0000;stroke-width:0.5;" x="453.04453125" xlink:href="#m12d35e2592" y="164.124133206"/>
    </g>
   </g>
   <g id="line2d_8">
    <g clip-path="url(#p134defd3b4)">
     <use style="fill:#ff0000;stroke:#ff0000;stroke-width:0.5;" x="632.969744318" xlink:href="#m12d35e2592" y="153.994135608"/>
     <use style="fill:#ff0000;stroke:#ff0000;stroke-width:0.5;" x="129.179147727" xlink:href="#m12d35e2592" y="206.511024851"/>
     <use style="fill:#ff0000;stroke:#ff0000;stroke-width:0.5;" x="776.909914773" xlink:href="#m12d35e2592" y="149.265670821"/>
     <use style="fill:#ff0000;stroke:#ff0000;stroke-width:0.5;" x="273.119318182" xlink:href="#m12d35e2592" y="177.218677441"/>
     <use style="fill:#ff0000;stroke:#ff0000;stroke-width:0.5;" x="453.04453125" xlink:href="#m12d35e2592" y="162.467799535"/>
    </g>
   </g>
   <g id="line2d_9">
    <defs>
     <path d="
M0 1.5
C0.397805 1.5 0.77937 1.34195 1.06066 1.06066
C1.34195 0.77937 1.5 0.397805 1.5 0
C1.5 -0.397805 1.34195 -0.77937 1.06066 -1.06066
C0.77937 -1.34195 0.397805 -1.5 0 -1.5
C-0.397805 -1.5 -0.77937 -1.34195 -1.06066 -1.06066
C-1.34195 -0.77937 -1.5 -0.397805 -1.5 0
C-1.5 0.397805 -1.34195 0.77937 -1.06066 1.06066
C-0.77937 1.34195 -0.397805 1.5 0 1.5
z
" id="ma07bdd5909" style="stroke:#ff0000;stroke-width:0.5;"/>
    </defs>
    <g clip-path="url(#p134defd3b4)">
     <use style="fill:#ff0000;stroke:#ff0000;stroke-width:0.5;" x="632.969744318" xlink:href="#ma07bdd5909" y="154.828529499"/>
     <use style="fill:#ff0000;stroke:#ff0000;stroke-width:0.5;" x="129.179147727" xlink:href="#ma07bdd5909" y="207.329464286"/>
     <use style="fill:#ff0000;stroke:#ff0000;stroke-width:0.5;" x="776.909914773" xlink:href="#ma07bdd5909" y="150.32029421"/>
     <use style="fill:#ff0000;stroke:#ff0000;stroke-width:0.5;" x="273.119318182" xlink:href="#ma07bdd5909" y="178.096800663"/>
     <use style="fill:#ff0000;stroke:#ff0000;stroke-width:0.5;" x="453.04453125" xlink:href="#ma07bdd5909" y="163.29596637"/>
    </g>
   </g>
   <g id="line2d_10">
    <defs>
     <path d="
M3 1.83697e-16
L-3 -1.83697e-16" id="m4be1ff0e91" style="stroke:#00bfbf;stroke-width:0.5;"/>
    </defs>
    <g clip-path="url(#p134defd3b4)">
     <use style="fill:#00bfbf;stroke:#00bfbf;stroke-width:0.5;" x="632.969744318" xlink:href="#m4be1ff0e91" y="163.335537955"/>
     <use style="fill:#00bfbf;stroke:#00bfbf;stroke-width:0.5;" x="129.179147727" xlink:href="#m4be1ff0e91" y="208.045028961"/>
     <use style="fill:#00bfbf;stroke:#00bfbf;stroke-width:0.5;" x="776.909914773" xlink:href="#m4be1ff0e91" y="157.320164109"/>
     <use style="fill:#00bfbf;stroke:#00bfbf;stroke-width:0.5;" x="273.119318182" xlink:href="#m4be1ff0e91" y="183.554068132"/>
    </g>
   </g>
   <g id="line2d_11">
    <g clip-path="url(#p134defd3b4)">
     <use style="fill:#00bfbf;stroke:#00bfbf;stroke-width:0.5;" x="632.969744318" xlink:href="#m4be1ff0e91" y="161.790424481"/>
     <use style="fill:#00bfbf;stroke:#00bfbf;stroke-width:0.5;" x="129.179147727" xlink:href="#m4be1ff0e91" y="206.61389961"/>
     <use style="fill:#00bfbf;stroke:#00bfbf;stroke-width:0.5;" x="776.909914773" xlink:href="#m4be1ff0e91" y="155.600002893"/>
     <use style="fill:#00bfbf;stroke:#00bfbf;stroke-width:0.5;" x="273.119318182" xlink:href="#m4be1ff0e91" y="182.116605135"/>
    </g>
   </g>
   <g id="line2d_12">
    <defs>
     <path d="
M0 1.5
C0.397805 1.5 0.77937 1.34195 1.06066 1.06066
C1.34195 0.77937 1.5 0.397805 1.5 0
C1.5 -0.397805 1.34195 -0.77937 1.06066 -1.06066
C0.77937 -1.34195 0.397805 -1.5 0 -1.5
C-0.397805 -1.5 -0.77937 -1.34195 -1.06066 -1.06066
C-1.34195 -0.77937 -1.5 -0.397805 -1.5 0
C-1.5 0.397805 -1.34195 0.77937 -1.06066 1.06066
C-0.77937 1.34195 -0.397805 1.5 0 1.5
z
" id="m977c291b42" style="stroke:#00bfbf;stroke-width:0.5;"/>
    </defs>
    <g clip-path="url(#p134defd3b4)">
     <use style="fill:#00bfbf;stroke:#00bfbf;stroke-width:0.5;" x="632.969744318" xlink:href="#m977c291b42" y="162.562981218"/>
     <use style="fill:#00bfbf;stroke:#00bfbf;stroke-width:0.5;" x="129.179147727" xlink:href="#m977c291b42" y="207.329464286"/>
     <use style="fill:#00bfbf;stroke:#00bfbf;stroke-width:0.5;" x="776.909914773" xlink:href="#m977c291b42" y="156.460083501"/>
     <use style="fill:#00bfbf;stroke:#00bfbf;stroke-width:0.5;" x="273.119318182" xlink:href="#m977c291b42" y="182.835336633"/>
    </g>
   </g>
   <g id="matplotlib.axis_1">
    <g id="xtick_1">
     <g id="line2d_13">
      <path clip-path="url(#p134defd3b4)" d="
M93.1941 238.314
L93.1941 21.42" style="fill:none;stroke:#000000;stroke-dasharray:1.000000,3.000000;stroke-dashoffset:0.0;stroke-width:0.5;"/>
     </g>
     <g id="line2d_14">
      <defs>
       <path d="
M0 0
L0 -4" id="m93b0483c22" style="stroke:#000000;stroke-width:0.5;"/>
      </defs>
      <g>
       <use style="stroke:#000000;stroke-width:0.5;" x="93.1941051136" xlink:href="#m93b0483c22" y="238.314375"/>
      </g>
     </g>
     <g id="line2d_15">
      <defs>
       <path d="
M0 0
L0 4" id="m741efc42ff" style="stroke:#000000;stroke-width:0.5;"/>
      </defs>
      <g>
       <use style="stroke:#000000;stroke-width:0.5;" x="93.1941051136" xlink:href="#m741efc42ff" y="21.42"/>
      </g>
     </g>
     <g id="text_1">
      <!-- 0 -->
      <defs>
       <path d="
M31.7812 3.42188
Q39.2656 3.42188 42.9688 11.625
Q46.6875 19.8281 46.6875 36.375
Q46.6875 52.9844 42.9688 61.1875
Q39.2656 69.3906 31.7812 69.3906
Q24.3125 69.3906 20.5938 61.1875
Q16.8906 52.9844 16.8906 36.375
Q16.8906 19.8281 20.5938 11.625
Q24.3125 3.42188 31.7812 3.42188
M31.7812 -1.42188
Q19.9219 -1.42188 13.25 8.53125
Q6.59375 18.5 6.59375 36.375
Q6.59375 54.2969 13.25 64.25
Q19.9219 74.2188 31.7812 74.2188
Q43.7031 74.2188 50.3438 64.25
Q56.9844 54.2969 56.9844 36.375
Q56.9844 18.5 50.3438 8.53125
Q43.7031 -1.42188 31.7812 -1.42188" id="BitstreamVeraSerif-Roman-30"/>
      </defs>
      <g transform="translate(89.6667613636 252.9521875)scale(0.14 -0.14)">
       <use xlink:href="#BitstreamVeraSerif-Roman-30"/>
      </g>
     </g>
    </g>
    <g id="xtick_2">
     <g id="line2d_16">
      <path clip-path="url(#p134defd3b4)" d="
M273.119 238.314
L273.119 21.42" style="fill:none;stroke:#000000;stroke-dasharray:1.000000,3.000000;stroke-dashoffset:0.0;stroke-width:0.5;"/>
     </g>
     <g id="line2d_17">
      <g>
       <use style="stroke:#000000;stroke-width:0.5;" x="273.119318182" xlink:href="#m93b0483c22" y="238.314375"/>
      </g>
     </g>
     <g id="line2d_18">
      <g>
       <use style="stroke:#000000;stroke-width:0.5;" x="273.119318182" xlink:href="#m741efc42ff" y="21.42"/>
      </g>
     </g>
     <g id="text_2">
      <!-- 5 -->
      <defs>
       <path d="
M50.2969 72.9062
L50.2969 64.8906
L16.8906 64.8906
L16.8906 44
Q19.4375 45.75 22.8281 46.625
Q26.2188 47.5156 30.4219 47.5156
Q42.2344 47.5156 49.0625 40.9688
Q55.9062 34.4219 55.9062 23.0938
Q55.9062 11.5312 49 5.04688
Q42.0938 -1.42188 29.5938 -1.42188
Q24.5625 -1.42188 19.2812 -0.1875
Q14.0156 1.03125 8.5 3.51562
L8.5 17.6719
L14.0156 17.6719
Q14.4531 10.75 18.4219 7.07812
Q22.4062 3.42188 29.5938 3.42188
Q37.3125 3.42188 41.4531 8.5
Q45.6094 13.5781 45.6094 23.0938
Q45.6094 32.5625 41.4844 37.6094
Q37.3594 42.6719 29.5938 42.6719
Q25.2031 42.6719 21.8438 41.1094
Q18.5 39.5469 15.9219 36.2812
L11.7188 36.2812
L11.7188 72.9062
z
" id="BitstreamVeraSerif-Roman-35"/>
      </defs>
      <g transform="translate(269.800880682 252.9521875)scale(0.14 -0.14)">
       <use xlink:href="#BitstreamVeraSerif-Roman-35"/>
      </g>
     </g>
    </g>
    <g id="xtick_3">
     <g id="line2d_19">
      <path clip-path="url(#p134defd3b4)" d="
M453.045 238.314
L453.045 21.42" style="fill:none;stroke:#000000;stroke-dasharray:1.000000,3.000000;stroke-dashoffset:0.0;stroke-width:0.5;"/>
     </g>
     <g id="line2d_20">
      <g>
       <use style="stroke:#000000;stroke-width:0.5;" x="453.04453125" xlink:href="#m93b0483c22" y="238.314375"/>
      </g>
     </g>
     <g id="line2d_21">
      <g>
       <use style="stroke:#000000;stroke-width:0.5;" x="453.04453125" xlink:href="#m741efc42ff" y="21.42"/>
      </g>
     </g>
     <g id="text_3">
      <!-- 10 -->
      <defs>
       <path d="
M14.2031 0
L14.2031 5.17188
L26.9062 5.17188
L26.9062 65.8281
L12.2031 56.2969
L12.2031 62.7031
L29.9844 74.2188
L36.7188 74.2188
L36.7188 5.17188
L49.4219 5.17188
L49.4219 0
z
" id="BitstreamVeraSerif-Roman-31"/>
      </defs>
      <g transform="translate(445.45609375 252.9521875)scale(0.14 -0.14)">
       <use xlink:href="#BitstreamVeraSerif-Roman-31"/>
       <use x="63.623046875" xlink:href="#BitstreamVeraSerif-Roman-30"/>
      </g>
     </g>
    </g>
    <g id="xtick_4">
     <g id="line2d_22">
      <path clip-path="url(#p134defd3b4)" d="
M632.97 238.314
L632.97 21.42" style="fill:none;stroke:#000000;stroke-dasharray:1.000000,3.000000;stroke-dashoffset:0.0;stroke-width:0.5;"/>
     </g>
     <g id="line2d_23">
      <g>
       <use style="stroke:#000000;stroke-width:0.5;" x="632.969744318" xlink:href="#m93b0483c22" y="238.314375"/>
      </g>
     </g>
     <g id="line2d_24">
      <g>
       <use style="stroke:#000000;stroke-width:0.5;" x="632.969744318" xlink:href="#m741efc42ff" y="21.42"/>
      </g>
     </g>
     <g id="text_4">
      <!-- 15 -->
      <g transform="translate(625.456775568 252.9521875)scale(0.14 -0.14)">
       <use xlink:href="#BitstreamVeraSerif-Roman-31"/>
       <use x="63.623046875" xlink:href="#BitstreamVeraSerif-Roman-35"/>
      </g>
     </g>
    </g>
    <g id="xtick_5">
     <g id="line2d_25">
      <path clip-path="url(#p134defd3b4)" d="
M812.895 238.314
L812.895 21.42" style="fill:none;stroke:#000000;stroke-dasharray:1.000000,3.000000;stroke-dashoffset:0.0;stroke-width:0.5;"/>
     </g>
     <g id="line2d_26">
      <g>
       <use style="stroke:#000000;stroke-width:0.5;" x="812.894957386" xlink:href="#m93b0483c22" y="238.314375"/>
      </g>
     </g>
     <g id="line2d_27">
      <g>
       <use style="stroke:#000000;stroke-width:0.5;" x="812.894957386" xlink:href="#m741efc42ff" y="21.42"/>
      </g>
     </g>
     <g id="text_5">
      <!-- 20 -->
      <defs>
       <path d="
M12.7969 55.5156
L7.32812 55.5156
L7.32812 68.5
Q12.5469 71.2969 17.8438 72.75
Q23.1406 74.2188 28.2188 74.2188
Q39.5938 74.2188 46.1875 68.7031
Q52.7812 63.1875 52.7812 53.7188
Q52.7812 43.0156 37.8438 28.125
Q36.6719 27 36.0781 26.4219
L17.6719 8.01562
L48.0938 8.01562
L48.0938 17
L53.8125 17
L53.8125 0
L6.78125 0
L6.78125 5.32812
L28.9062 27.3906
Q36.2344 34.7188 39.3594 40.8438
Q42.4844 46.9688 42.4844 53.7188
Q42.4844 61.0781 38.6406 65.2344
Q34.8125 69.3906 28.0781 69.3906
Q21.0938 69.3906 17.2812 65.9219
Q13.4844 62.4531 12.7969 55.5156" id="BitstreamVeraSerif-Roman-32"/>
      </defs>
      <g transform="translate(804.926988636 252.9521875)scale(0.14 -0.14)">
       <use xlink:href="#BitstreamVeraSerif-Roman-32"/>
       <use x="63.623046875" xlink:href="#BitstreamVeraSerif-Roman-30"/>
      </g>
     </g>
    </g>
    <g id="text_6">
     <!-- Depth of Interaction (mm) -->
     <defs>
      <path d="
M31.8906 -15.5781
Q20.0156 -10.25 13.9531 1.29688
Q7.90625 12.8438 7.90625 30.1719
Q7.90625 47.5625 13.9531 59.1094
Q20.0156 70.6562 31.8906 75.9844
L31.8906 71.1875
Q24.3594 66.0156 21.0938 56.6094
Q17.8281 47.2188 17.8281 30.1719
Q17.8281 13.1875 21.0938 3.78125
Q24.3594 -5.60938 31.8906 -10.7969
z
" id="BitstreamVeraSerif-Roman-28"/>
      <path d="
M54.2031 25
L15.4844 25
L15.4844 24.6094
Q15.4844 14.1094 19.4375 8.76562
Q23.3906 3.42188 31.1094 3.42188
Q37.0156 3.42188 40.7969 6.51562
Q44.5781 9.625 46.0938 15.7188
L53.3281 15.7188
Q51.1719 7.17188 45.375 2.875
Q39.5938 -1.42188 30.1719 -1.42188
Q18.7969 -1.42188 11.8906 6.07812
Q4.98438 13.5781 4.98438 25.9844
Q4.98438 38.2812 11.7656 45.7969
Q18.5625 53.3281 29.5938 53.3281
Q41.3594 53.3281 47.6562 46.0625
Q53.9531 38.8125 54.2031 25
M43.6094 30.1719
Q43.3125 39.2656 39.7656 43.875
Q36.2344 48.4844 29.5938 48.4844
Q23.3906 48.4844 19.8281 43.8438
Q16.2656 39.2031 15.4844 30.1719
z
" id="BitstreamVeraSerif-Roman-65"/>
      <path d="
M43.0156 63.7188
L38.2812 63.7188
Q38.2344 67.3906 36.2031 69.2812
Q34.1875 71.1875 30.3281 71.1875
Q25.2969 71.1875 23.2344 68.4219
Q21.1875 65.6719 21.1875 58.5938
L21.1875 51.9062
L35.6875 51.9062
L35.6875 46.6875
L21.1875 46.6875
L21.1875 5.17188
L32.7188 5.17188
L32.7188 0
L3.60938 0
L3.60938 5.17188
L12.2031 5.17188
L12.2031 46.6875
L3.60938 46.6875
L3.60938 51.9062
L12.2031 51.9062
L12.2031 58.4062
Q12.2031 67.0938 16.7188 71.5312
Q21.2344 75.9844 29.9844 75.9844
Q33.25 75.9844 36.5156 75.3906
Q39.7969 74.8125 43.0156 73.5781
z
" id="BitstreamVeraSerif-Roman-66"/>
      <path d="
M10.7969 46.6875
L2.875 46.6875
L2.875 51.9062
L10.7969 51.9062
L10.7969 68.0156
L19.8281 68.0156
L19.8281 51.9062
L36.7188 51.9062
L36.7188 46.6875
L19.8281 46.6875
L19.8281 13.7188
Q19.8281 7.125 21.0938 5.26562
Q22.3594 3.42188 25.7812 3.42188
Q29.2969 3.42188 30.9062 5.48438
Q32.5156 7.5625 32.625 12.2031
L39.4062 12.2031
Q39.0156 5.125 35.5469 1.84375
Q32.0781 -1.42188 25 -1.42188
Q17.2344 -1.42188 14.0156 2.01562
Q10.7969 5.46875 10.7969 13.7188
z
" id="BitstreamVeraSerif-Roman-74"/>
      <path d="
M47.7969 52
L47.7969 39.0156
L42.625 39.0156
Q42.3906 42.875 40.4844 44.7812
Q38.5781 46.6875 34.9062 46.6875
Q28.2656 46.6875 24.7188 42.0938
Q21.1875 37.5 21.1875 28.9062
L21.1875 5.17188
L31.5938 5.17188
L31.5938 0
L4.10938 0
L4.10938 5.17188
L12.2031 5.17188
L12.2031 46.7812
L3.60938 46.7812
L3.60938 51.9062
L21.1875 51.9062
L21.1875 42.6719
Q23.8281 48.0938 27.9688 50.7031
Q32.125 53.3281 38.0938 53.3281
Q40.2812 53.3281 42.7031 52.9844
Q45.125 52.6406 47.7969 52" id="BitstreamVeraSerif-Roman-72"/>
      <path d="
M20.5156 28.5156
L20.5156 23.3906
Q20.5156 14.0156 24.0938 9.10938
Q27.6875 4.20312 34.5156 4.20312
Q41.4062 4.20312 44.9375 9.71875
Q48.4844 15.2344 48.4844 25.9844
Q48.4844 36.7656 44.9375 42.2344
Q41.4062 47.7031 34.5156 47.7031
Q27.6875 47.7031 24.0938 42.7656
Q20.5156 37.8438 20.5156 28.5156
M11.5312 46.6875
L2.875 46.6875
L2.875 51.9062
L20.5156 51.9062
L20.5156 43.7969
Q23.1406 48.6875 27.2188 51
Q31.2969 53.3281 37.3125 53.3281
Q46.875 53.3281 52.9219 45.75
Q58.9844 38.1875 58.9844 25.9844
Q58.9844 13.7656 52.9219 6.17188
Q46.875 -1.42188 37.3125 -1.42188
Q31.2969 -1.42188 27.2188 0.890625
Q23.1406 3.21875 20.5156 8.10938
L20.5156 -15.5781
L29 -15.5781
L29 -20.7969
L2.875 -20.7969
L2.875 -15.5781
L11.5312 -15.5781
z
" id="BitstreamVeraSerif-Roman-70"/>
      <path id="BitstreamVeraSerif-Roman-20"/>
      <path d="
M51.4219 15.5781
Q49.5156 7.28125 44.0938 2.92188
Q38.6719 -1.42188 30.0781 -1.42188
Q18.75 -1.42188 11.8594 6.07812
Q4.98438 13.5781 4.98438 25.9844
Q4.98438 38.4219 11.8594 45.875
Q18.75 53.3281 30.0781 53.3281
Q35.0156 53.3281 39.8906 52.1719
Q44.7812 51.0312 49.7031 48.6875
L49.7031 35.4062
L44.4844 35.4062
Q43.4531 42.2344 40.0156 45.3594
Q36.5781 48.4844 30.1719 48.4844
Q22.9062 48.4844 19.1875 42.8438
Q15.4844 37.2031 15.4844 25.9844
Q15.4844 14.75 19.1719 9.07812
Q22.8594 3.42188 30.1719 3.42188
Q35.9844 3.42188 39.4531 6.4375
Q42.9219 9.46875 44.1875 15.5781
z
" id="BitstreamVeraSerif-Roman-63"/>
      <path d="
M4.10938 0
L4.10938 5.17188
L12.2031 5.17188
L12.2031 70.7969
L3.60938 70.7969
L3.60938 75.9844
L21.1875 75.9844
L21.1875 42.6719
Q23.6875 47.9531 27.6562 50.6406
Q31.6406 53.3281 36.9219 53.3281
Q45.5156 53.3281 49.5625 48.3906
Q53.6094 43.4531 53.6094 33.0156
L53.6094 5.17188
L61.625 5.17188
L61.625 0
L36.8125 0
L36.8125 5.17188
L44.5781 5.17188
L44.5781 30.1719
Q44.5781 39.7031 42.25 43.1875
Q39.9375 46.6875 33.9844 46.6875
Q27.7344 46.6875 24.4531 42.1406
Q21.1875 37.5938 21.1875 28.9062
L21.1875 5.17188
L29 5.17188
L29 0
z
" id="BitstreamVeraSerif-Roman-68"/>
      <path d="
M9.71875 68.0156
Q9.71875 70.2656 11.3438 71.9219
Q12.9844 73.5781 15.2812 73.5781
Q17.5312 73.5781 19.1562 71.9219
Q20.7969 70.2656 20.7969 68.0156
Q20.7969 65.7188 19.1875 64.1094
Q17.5781 62.5 15.2812 62.5
Q12.9844 62.5 11.3438 64.1094
Q9.71875 65.7188 9.71875 68.0156
M21.1875 5.17188
L29.6875 5.17188
L29.6875 0
L3.60938 0
L3.60938 5.17188
L12.2031 5.17188
L12.2031 46.6875
L3.60938 46.6875
L3.60938 51.9062
L21.1875 51.9062
z
" id="BitstreamVeraSerif-Roman-69"/>
      <path d="
M51.8125 41.7969
Q54.3906 47.5156 58.4219 50.4219
Q62.4531 53.3281 67.8281 53.3281
Q75.9844 53.3281 79.9844 48.2656
Q83.9844 43.2188 83.9844 33.0156
L83.9844 5.17188
L92.0938 5.17188
L92.0938 0
L67.1875 0
L67.1875 5.17188
L75 5.17188
L75 31.9844
Q75 39.9375 72.6562 43.3125
Q70.3125 46.6875 64.8906 46.6875
Q58.8906 46.6875 55.7344 42.1406
Q52.5938 37.5938 52.5938 28.9062
L52.5938 5.17188
L60.4062 5.17188
L60.4062 0
L35.7969 0
L35.7969 5.17188
L43.6094 5.17188
L43.6094 32.3281
Q43.6094 40.0938 41.2656 43.3906
Q38.9219 46.6875 33.5 46.6875
Q27.4844 46.6875 24.3281 42.1406
Q21.1875 37.5938 21.1875 28.9062
L21.1875 5.17188
L29 5.17188
L29 0
L4.10938 0
L4.10938 5.17188
L12.2031 5.17188
L12.2031 46.7812
L3.60938 46.7812
L3.60938 51.9062
L21.1875 51.9062
L21.1875 42.6719
Q23.6875 47.8594 27.5312 50.5938
Q31.3906 53.3281 36.2812 53.3281
Q42.3281 53.3281 46.375 50.3125
Q50.4375 47.3125 51.8125 41.7969" id="BitstreamVeraSerif-Roman-6d"/>
      <path d="
M4.10938 0
L4.10938 5.17188
L12.2031 5.17188
L12.2031 46.6875
L3.60938 46.6875
L3.60938 51.9062
L21.1875 51.9062
L21.1875 42.6719
Q23.6875 47.9531 27.6562 50.6406
Q31.6406 53.3281 36.9219 53.3281
Q45.5156 53.3281 49.5625 48.3906
Q53.6094 43.4531 53.6094 33.0156
L53.6094 5.17188
L61.625 5.17188
L61.625 0
L36.8125 0
L36.8125 5.17188
L44.5781 5.17188
L44.5781 30.1719
Q44.5781 39.7031 42.2344 43.2344
Q39.8906 46.7812 33.9844 46.7812
Q27.7344 46.7812 24.4531 42.2031
Q21.1875 37.6406 21.1875 28.9062
L21.1875 5.17188
L29 5.17188
L29 0
z
" id="BitstreamVeraSerif-Roman-6e"/>
      <path d="
M30.0781 3.42188
Q37.3125 3.42188 40.9844 9.125
Q44.6719 14.8438 44.6719 25.9844
Q44.6719 37.1094 40.9844 42.7969
Q37.3125 48.4844 30.0781 48.4844
Q22.8594 48.4844 19.1719 42.7969
Q15.4844 37.1094 15.4844 25.9844
Q15.4844 14.8438 19.1875 9.125
Q22.9062 3.42188 30.0781 3.42188
M30.0781 -1.42188
Q18.75 -1.42188 11.8594 6.07812
Q4.98438 13.5781 4.98438 25.9844
Q4.98438 38.375 11.8438 45.8438
Q18.7031 53.3281 30.0781 53.3281
Q41.4531 53.3281 48.3125 45.8438
Q55.1719 38.375 55.1719 25.9844
Q55.1719 13.5781 48.3125 6.07812
Q41.4531 -1.42188 30.0781 -1.42188" id="BitstreamVeraSerif-Roman-6f"/>
      <path d="
M24.7031 5.17188
L33.9844 5.17188
L33.9844 0
L5.51562 0
L5.51562 5.17188
L14.7969 5.17188
L14.7969 67.6719
L5.51562 67.6719
L5.51562 72.9062
L33.9844 72.9062
L33.9844 67.6719
L24.7031 67.6719
z
" id="BitstreamVeraSerif-Roman-49"/>
      <path d="
M24.7031 5.17188
L33.7969 5.17188
Q48 5.17188 55.5938 13.2812
Q63.1875 21.3906 63.1875 36.5312
Q63.1875 51.6562 55.6094 59.6562
Q48.0469 67.6719 33.7969 67.6719
L24.7031 67.6719
z

M5.51562 0
L5.51562 5.17188
L14.7969 5.17188
L14.7969 67.6719
L5.51562 67.6719
L5.51562 72.9062
L34.5156 72.9062
Q53.375 72.9062 63.8906 63.2812
Q74.4219 53.6562 74.4219 36.5312
Q74.4219 19.3438 63.875 9.67188
Q53.3281 0 34.5156 0
z
" id="BitstreamVeraSerif-Roman-44"/>
      <path d="
M7.07812 -15.5781
L7.07812 -10.7969
Q14.5938 -5.60938 17.8906 3.78125
Q21.1875 13.1875 21.1875 30.1719
Q21.1875 47.2188 17.8906 56.6094
Q14.5938 66.0156 7.07812 71.1875
L7.07812 75.9844
Q19 70.6562 25.0469 59.1094
Q31.1094 47.5625 31.1094 30.1719
Q31.1094 12.8438 25.0469 1.29688
Q19 -10.25 7.07812 -15.5781" id="BitstreamVeraSerif-Roman-29"/>
      <path d="
M39.7969 16.3125
L39.7969 27.2969
L28.2188 27.2969
Q21.5312 27.2969 18.25 24.4062
Q14.9844 21.5312 14.9844 15.5781
Q14.9844 10.1562 18.2969 6.98438
Q21.625 3.8125 27.2969 3.8125
Q32.9062 3.8125 36.3438 7.28125
Q39.7969 10.75 39.7969 16.3125
M48.7812 32.4219
L48.7812 5.17188
L56.7812 5.17188
L56.7812 0
L39.7969 0
L39.7969 5.60938
Q36.8125 2 32.9062 0.28125
Q29 -1.42188 23.7812 -1.42188
Q15.1406 -1.42188 10.0625 3.17188
Q4.98438 7.76562 4.98438 15.5781
Q4.98438 23.6406 10.7969 28.0781
Q16.6094 32.5156 27.2031 32.5156
L39.7969 32.5156
L39.7969 36.0781
Q39.7969 42 36.2031 45.2344
Q32.625 48.4844 26.125 48.4844
Q20.75 48.4844 17.5781 46.0469
Q14.4062 43.6094 13.625 38.8125
L8.98438 38.8125
L8.98438 49.3125
Q13.6719 51.3125 18.0938 52.3125
Q22.5156 53.3281 26.7031 53.3281
Q37.5 53.3281 43.1406 47.9688
Q48.7812 42.625 48.7812 32.4219" id="BitstreamVeraSerif-Roman-61"/>
     </defs>
     <g transform="translate(360.37875 271.5015625)scale(0.14 -0.14)">
      <use xlink:href="#BitstreamVeraSerif-Roman-44"/>
      <use x="80.17578125" xlink:href="#BitstreamVeraSerif-Roman-65"/>
      <use x="139.35546875" xlink:href="#BitstreamVeraSerif-Roman-70"/>
      <use x="203.369140625" xlink:href="#BitstreamVeraSerif-Roman-74"/>
      <use x="243.5546875" xlink:href="#BitstreamVeraSerif-Roman-68"/>
      <use x="307.958984375" xlink:href="#BitstreamVeraSerif-Roman-20"/>
      <use x="339.74609375" xlink:href="#BitstreamVeraSerif-Roman-6f"/>
      <use x="399.951171875" xlink:href="#BitstreamVeraSerif-Roman-66"/>
      <use x="436.962890625" xlink:href="#BitstreamVeraSerif-Roman-20"/>
      <use x="468.75" xlink:href="#BitstreamVeraSerif-Roman-49"/>
      <use x="508.251953125" xlink:href="#BitstreamVeraSerif-Roman-6e"/>
      <use x="572.65625" xlink:href="#BitstreamVeraSerif-Roman-74"/>
      <use x="612.841796875" xlink:href="#BitstreamVeraSerif-Roman-65"/>
      <use x="672.021484375" xlink:href="#BitstreamVeraSerif-Roman-72"/>
      <use x="719.82421875" xlink:href="#BitstreamVeraSerif-Roman-61"/>
      <use x="779.443359375" xlink:href="#BitstreamVeraSerif-Roman-63"/>
      <use x="835.44921875" xlink:href="#BitstreamVeraSerif-Roman-74"/>
      <use x="875.634765625" xlink:href="#BitstreamVeraSerif-Roman-69"/>
      <use x="907.6171875" xlink:href="#BitstreamVeraSerif-Roman-6f"/>
      <use x="967.822265625" xlink:href="#BitstreamVeraSerif-Roman-6e"/>
      <use x="1032.2265625" xlink:href="#BitstreamVeraSerif-Roman-20"/>
      <use x="1064.01367188" xlink:href="#BitstreamVeraSerif-Roman-28"/>
      <use x="1103.02734375" xlink:href="#BitstreamVeraSerif-Roman-6d"/>
      <use x="1197.8515625" xlink:href="#BitstreamVeraSerif-Roman-6d"/>
      <use x="1292.67578125" xlink:href="#BitstreamVeraSerif-Roman-29"/>
     </g>
    </g>
   </g>
   <g id="matplotlib.axis_2">
    <g id="ytick_1">
     <g id="line2d_28">
      <path clip-path="url(#p134defd3b4)" d="
M57.2091 238.314
L848.88 238.314" style="fill:none;stroke:#000000;stroke-dasharray:1.000000,3.000000;stroke-dashoffset:0.0;stroke-width:0.5;"/>
     </g>
     <g id="line2d_29">
      <defs>
       <path d="
M0 0
L4 0" id="m728421d6d4" style="stroke:#000000;stroke-width:0.5;"/>
      </defs>
      <g>
       <use style="stroke:#000000;stroke-width:0.5;" x="57.2090625" xlink:href="#m728421d6d4" y="238.314375"/>
      </g>
     </g>
     <g id="line2d_30">
      <defs>
       <path d="
M0 0
L-4 0" id="mcb0005524f" style="stroke:#000000;stroke-width:0.5;"/>
      </defs>
      <g>
       <use style="stroke:#000000;stroke-width:0.5;" x="848.88" xlink:href="#mcb0005524f" y="238.314375"/>
      </g>
     </g>
     <g id="text_7">
      <!-- 0.8 -->
      <defs>
       <path d="
M46.5781 19.9219
Q46.5781 27.7344 42.6875 32.0469
Q38.8125 36.375 31.7812 36.375
Q24.75 36.375 20.875 32.0469
Q17 27.7344 17 19.9219
Q17 12.0625 20.875 7.73438
Q24.75 3.42188 31.7812 3.42188
Q38.8125 3.42188 42.6875 7.73438
Q46.5781 12.0625 46.5781 19.9219
M44.5781 55.3281
Q44.5781 61.9688 41.2031 65.6719
Q37.8438 69.3906 31.7812 69.3906
Q25.7812 69.3906 22.3906 65.6719
Q19 61.9688 19 55.3281
Q19 48.6406 22.3906 44.9219
Q25.7812 41.2188 31.7812 41.2188
Q37.8438 41.2188 41.2031 44.9219
Q44.5781 48.6406 44.5781 55.3281
M39.3125 38.8125
Q47.6094 37.7031 52.25 32.6875
Q56.8906 27.6875 56.8906 19.9219
Q56.8906 9.67188 50.3906 4.125
Q43.8906 -1.42188 31.7812 -1.42188
Q19.7344 -1.42188 13.2031 4.125
Q6.6875 9.67188 6.6875 19.9219
Q6.6875 27.6875 11.3281 32.6875
Q15.9688 37.7031 24.3125 38.8125
Q16.9375 40.1406 13 44.4062
Q9.07812 48.6875 9.07812 55.3281
Q9.07812 64.1094 15.125 69.1562
Q21.1875 74.2188 31.7812 74.2188
Q42.3906 74.2188 48.4375 69.1562
Q54.5 64.1094 54.5 55.3281
Q54.5 48.6875 50.5625 44.4062
Q46.625 40.1406 39.3125 38.8125" id="BitstreamVeraSerif-Roman-38"/>
       <path d="
M9.42188 5.07812
Q9.42188 7.8125 11.2812 9.71875
Q13.1406 11.625 15.9219 11.625
Q18.6094 11.625 20.5 9.71875
Q22.4062 7.8125 22.4062 5.07812
Q22.4062 2.39062 20.5 0.484375
Q18.6094 -1.42188 15.9219 -1.42188
Q13.1406 -1.42188 11.2812 0.453125
Q9.42188 2.34375 9.42188 5.07812" id="BitstreamVeraSerif-Roman-2e"/>
      </defs>
      <g transform="translate(32.810625 242.1775)scale(0.14 -0.14)">
       <use xlink:href="#BitstreamVeraSerif-Roman-30"/>
       <use x="63.623046875" xlink:href="#BitstreamVeraSerif-Roman-2e"/>
       <use x="95.41015625" xlink:href="#BitstreamVeraSerif-Roman-38"/>
      </g>
     </g>
    </g>
    <g id="ytick_2">
     <g id="line2d_31">
      <path clip-path="url(#p134defd3b4)" d="
M57.2091 207.329
L848.88 207.329" style="fill:none;stroke:#000000;stroke-dasharray:1.000000,3.000000;stroke-dashoffset:0.0;stroke-width:0.5;"/>
     </g>
     <g id="line2d_32">
      <g>
       <use style="stroke:#000000;stroke-width:0.5;" x="57.2090625" xlink:href="#m728421d6d4" y="207.329464286"/>
      </g>
     </g>
     <g id="line2d_33">
      <g>
       <use style="stroke:#000000;stroke-width:0.5;" x="848.88" xlink:href="#mcb0005524f" y="207.329464286"/>
      </g>
     </g>
     <g id="text_8">
      <!-- 1.0 -->
      <g transform="translate(33.5828125 211.192589286)scale(0.14 -0.14)">
       <use xlink:href="#BitstreamVeraSerif-Roman-31"/>
       <use x="63.623046875" xlink:href="#BitstreamVeraSerif-Roman-2e"/>
       <use x="95.41015625" xlink:href="#BitstreamVeraSerif-Roman-30"/>
      </g>
     </g>
    </g>
    <g id="ytick_3">
     <g id="line2d_34">
      <path clip-path="url(#p134defd3b4)" d="
M57.2091 176.345
L848.88 176.345" style="fill:none;stroke:#000000;stroke-dasharray:1.000000,3.000000;stroke-dashoffset:0.0;stroke-width:0.5;"/>
     </g>
     <g id="line2d_35">
      <g>
       <use style="stroke:#000000;stroke-width:0.5;" x="57.2090625" xlink:href="#m728421d6d4" y="176.344553571"/>
      </g>
     </g>
     <g id="line2d_36">
      <g>
       <use style="stroke:#000000;stroke-width:0.5;" x="848.88" xlink:href="#mcb0005524f" y="176.344553571"/>
      </g>
     </g>
     <g id="text_9">
      <!-- 1.2 -->
      <g transform="translate(34.026875 180.207678571)scale(0.14 -0.14)">
       <use xlink:href="#BitstreamVeraSerif-Roman-31"/>
       <use x="63.623046875" xlink:href="#BitstreamVeraSerif-Roman-2e"/>
       <use x="95.41015625" xlink:href="#BitstreamVeraSerif-Roman-32"/>
      </g>
     </g>
    </g>
    <g id="ytick_4">
     <g id="line2d_37">
      <path clip-path="url(#p134defd3b4)" d="
M57.2091 145.36
L848.88 145.36" style="fill:none;stroke:#000000;stroke-dasharray:1.000000,3.000000;stroke-dashoffset:0.0;stroke-width:0.5;"/>
     </g>
     <g id="line2d_38">
      <g>
       <use style="stroke:#000000;stroke-width:0.5;" x="57.2090625" xlink:href="#m728421d6d4" y="145.359642857"/>
      </g>
     </g>
     <g id="line2d_39">
      <g>
       <use style="stroke:#000000;stroke-width:0.5;" x="848.88" xlink:href="#mcb0005524f" y="145.359642857"/>
      </g>
     </g>
     <g id="text_10">
      <!-- 1.4 -->
      <defs>
       <path d="
M34.9062 24.7031
L34.9062 63.4844
L10.0156 24.7031
z

M56.3906 0
L23.1875 0
L23.1875 5.17188
L34.9062 5.17188
L34.9062 19.4844
L3.07812 19.4844
L3.07812 24.8125
L35.0156 74.2188
L44.6719 74.2188
L44.6719 24.7031
L58.5938 24.7031
L58.5938 19.4844
L44.6719 19.4844
L44.6719 5.17188
L56.3906 5.17188
z
" id="BitstreamVeraSerif-Roman-34"/>
      </defs>
      <g transform="translate(33.3575 149.222767857)scale(0.14 -0.14)">
       <use xlink:href="#BitstreamVeraSerif-Roman-31"/>
       <use x="63.623046875" xlink:href="#BitstreamVeraSerif-Roman-2e"/>
       <use x="95.41015625" xlink:href="#BitstreamVeraSerif-Roman-34"/>
      </g>
     </g>
    </g>
    <g id="ytick_5">
     <g id="line2d_40">
      <path clip-path="url(#p134defd3b4)" d="
M57.2091 114.375
L848.88 114.375" style="fill:none;stroke:#000000;stroke-dasharray:1.000000,3.000000;stroke-dashoffset:0.0;stroke-width:0.5;"/>
     </g>
     <g id="line2d_41">
      <g>
       <use style="stroke:#000000;stroke-width:0.5;" x="57.2090625" xlink:href="#m728421d6d4" y="114.374732143"/>
      </g>
     </g>
     <g id="line2d_42">
      <g>
       <use style="stroke:#000000;stroke-width:0.5;" x="848.88" xlink:href="#mcb0005524f" y="114.374732143"/>
      </g>
     </g>
     <g id="text_11">
      <!-- 1.6 -->
      <defs>
       <path d="
M32.7188 3.42188
Q39.5938 3.42188 43.2969 8.46875
Q47.0156 13.5312 47.0156 23
Q47.0156 32.4688 43.2969 37.5156
Q39.5938 42.5781 32.7188 42.5781
Q25.7344 42.5781 22.0625 37.6875
Q18.4062 32.8125 18.4062 23.5781
Q18.4062 13.875 22.1094 8.64062
Q25.8281 3.42188 32.7188 3.42188
M16.7969 40.1406
Q20.125 43.7969 24.3125 45.5938
Q28.5156 47.4062 33.7969 47.4062
Q44.6719 47.4062 51 40.8594
Q57.3281 34.3281 57.3281 23
Q57.3281 11.9219 50.5156 5.25
Q43.7031 -1.42188 32.3281 -1.42188
Q19.9688 -1.42188 13.3281 7.78125
Q6.6875 17 6.6875 34.0781
Q6.6875 53.2188 14.5469 63.7188
Q22.4062 74.2188 36.7188 74.2188
Q40.5781 74.2188 44.8281 73.4844
Q49.0781 72.75 53.5156 71.2969
L53.5156 59.2812
L48 59.2812
Q47.4062 64.2031 44.2344 66.7969
Q41.0625 69.3906 35.6875 69.3906
Q26.2188 69.3906 21.5781 62.2031
Q16.9375 55.0312 16.7969 40.1406" id="BitstreamVeraSerif-Roman-36"/>
      </defs>
      <g transform="translate(33.5346875 118.237857143)scale(0.14 -0.14)">
       <use xlink:href="#BitstreamVeraSerif-Roman-31"/>
       <use x="63.623046875" xlink:href="#BitstreamVeraSerif-Roman-2e"/>
       <use x="95.41015625" xlink:href="#BitstreamVeraSerif-Roman-36"/>
      </g>
     </g>
    </g>
    <g id="ytick_6">
     <g id="line2d_43">
      <path clip-path="url(#p134defd3b4)" d="
M57.2091 83.3898
L848.88 83.3898" style="fill:none;stroke:#000000;stroke-dasharray:1.000000,3.000000;stroke-dashoffset:0.0;stroke-width:0.5;"/>
     </g>
     <g id="line2d_44">
      <g>
       <use style="stroke:#000000;stroke-width:0.5;" x="57.2090625" xlink:href="#m728421d6d4" y="83.3898214286"/>
      </g>
     </g>
     <g id="line2d_45">
      <g>
       <use style="stroke:#000000;stroke-width:0.5;" x="848.88" xlink:href="#mcb0005524f" y="83.3898214286"/>
      </g>
     </g>
     <g id="text_12">
      <!-- 1.8 -->
      <g transform="translate(33.5959375 87.2529464286)scale(0.14 -0.14)">
       <use xlink:href="#BitstreamVeraSerif-Roman-31"/>
       <use x="63.623046875" xlink:href="#BitstreamVeraSerif-Roman-2e"/>
       <use x="95.41015625" xlink:href="#BitstreamVeraSerif-Roman-38"/>
      </g>
     </g>
    </g>
    <g id="ytick_7">
     <g id="line2d_46">
      <path clip-path="url(#p134defd3b4)" d="
M57.2091 52.4049
L848.88 52.4049" style="fill:none;stroke:#000000;stroke-dasharray:1.000000,3.000000;stroke-dashoffset:0.0;stroke-width:0.5;"/>
     </g>
     <g id="line2d_47">
      <g>
       <use style="stroke:#000000;stroke-width:0.5;" x="57.2090625" xlink:href="#m728421d6d4" y="52.4049107143"/>
      </g>
     </g>
     <g id="line2d_48">
      <g>
       <use style="stroke:#000000;stroke-width:0.5;" x="848.88" xlink:href="#mcb0005524f" y="52.4049107143"/>
      </g>
     </g>
     <g id="text_13">
      <!-- 2.0 -->
      <g transform="translate(32.82375 56.2680357143)scale(0.14 -0.14)">
       <use xlink:href="#BitstreamVeraSerif-Roman-32"/>
       <use x="63.623046875" xlink:href="#BitstreamVeraSerif-Roman-2e"/>
       <use x="95.41015625" xlink:href="#BitstreamVeraSerif-Roman-30"/>
      </g>
     </g>
    </g>
    <g id="ytick_8">
     <g id="line2d_49">
      <path clip-path="url(#p134defd3b4)" d="
M57.2091 21.42
L848.88 21.42" style="fill:none;stroke:#000000;stroke-dasharray:1.000000,3.000000;stroke-dashoffset:0.0;stroke-width:0.5;"/>
     </g>
     <g id="line2d_50">
      <g>
       <use style="stroke:#000000;stroke-width:0.5;" x="57.2090625" xlink:href="#m728421d6d4" y="21.42"/>
      </g>
     </g>
     <g id="line2d_51">
      <g>
       <use style="stroke:#000000;stroke-width:0.5;" x="848.88" xlink:href="#mcb0005524f" y="21.42"/>
      </g>
     </g>
     <g id="text_14">
      <!-- 2.2 -->
      <g transform="translate(33.2678125 25.283125)scale(0.14 -0.14)">
       <use xlink:href="#BitstreamVeraSerif-Roman-32"/>
       <use x="63.623046875" xlink:href="#BitstreamVeraSerif-Roman-2e"/>
       <use x="95.41015625" xlink:href="#BitstreamVeraSerif-Roman-32"/>
      </g>
     </g>
    </g>
    <g id="text_15">
     <!-- Ratio to first DOI value -->
     <defs>
      <path d="
M24.7031 0
L5.60938 46.6875
L-0.296875 46.6875
L-0.296875 51.9062
L23.5781 51.9062
L23.5781 46.6875
L15.2812 46.6875
L29.8906 10.9844
L44.4844 46.6875
L36.7188 46.6875
L36.7188 51.9062
L56.2031 51.9062
L56.2031 46.6875
L50.3906 46.6875
L31.2969 0
z
" id="BitstreamVeraSerif-Roman-76"/>
      <path d="
M35.4062 51.9062
L52.2031 51.9062
L52.2031 5.17188
L60.6875 5.17188
L60.6875 0
L43.2188 0
L43.2188 9.1875
Q40.7188 4 36.7656 1.28125
Q32.8125 -1.42188 27.5938 -1.42188
Q18.9531 -1.42188 14.875 3.48438
Q10.7969 8.40625 10.7969 18.8906
L10.7969 46.6875
L2.6875 46.6875
L2.6875 51.9062
L19.8281 51.9062
L19.8281 21.6875
Q19.8281 12.2031 22.1406 8.6875
Q24.4688 5.17188 30.4219 5.17188
Q36.6719 5.17188 39.9375 9.76562
Q43.2188 14.3594 43.2188 23.0938
L43.2188 46.6875
L35.4062 46.6875
z
" id="BitstreamVeraSerif-Roman-75"/>
      <path d="
M5.60938 2.875
L5.60938 14.9844
L10.7969 14.9844
Q10.9844 9.1875 14.4219 6.29688
Q17.875 3.42188 24.6094 3.42188
Q30.6719 3.42188 33.8438 5.6875
Q37.0156 7.95312 37.0156 12.3125
Q37.0156 15.7188 34.6875 17.8125
Q32.375 19.9219 24.9062 22.3125
L18.4062 24.5156
Q11.7188 26.6562 8.71875 29.875
Q5.71875 33.1094 5.71875 38.0938
Q5.71875 45.2188 10.9375 49.2656
Q16.1562 53.3281 25.3906 53.3281
Q29.5 53.3281 34.0312 52.25
Q38.5781 51.1719 43.4062 49.125
L43.4062 37.7969
L38.2344 37.7969
Q38.0312 42.8281 34.7031 45.6562
Q31.3906 48.4844 25.6875 48.4844
Q20.0156 48.4844 17.1094 46.4844
Q14.2031 44.4844 14.2031 40.4844
Q14.2031 37.2031 16.4062 35.2188
Q18.6094 33.25 25.2031 31.2031
L32.3281 29
Q39.7031 26.7031 42.9375 23.2656
Q46.1875 19.8281 46.1875 14.4062
Q46.1875 7.03125 40.5469 2.79688
Q34.9062 -1.42188 25 -1.42188
Q19.9688 -1.42188 15.1875 -0.34375
Q10.4062 0.734375 5.60938 2.875" id="BitstreamVeraSerif-Roman-73"/>
      <path d="
M41.0156 3.8125
Q52.9844 3.8125 59.0781 12.0312
Q65.1875 20.2656 65.1875 36.375
Q65.1875 52.5469 59.0781 60.7656
Q52.9844 69 41.0156 69
Q29 69 22.8906 60.7656
Q16.7969 52.5469 16.7969 36.375
Q16.7969 20.2656 22.8906 12.0312
Q29 3.8125 41.0156 3.8125
M41.0156 -1.42188
Q33.5938 -1.42188 27.3594 1.01562
Q21.1406 3.46875 16.4062 8.20312
Q10.9375 13.6719 8.26562 20.6094
Q5.60938 27.5469 5.60938 36.375
Q5.60938 45.2188 8.26562 52.1719
Q10.9375 59.125 16.4062 64.5938
Q21.1875 69.3906 27.3438 71.7969
Q33.5 74.2188 41.0156 74.2188
Q56.8906 74.2188 66.6562 63.8125
Q76.4219 53.4219 76.4219 36.375
Q76.4219 27.6406 73.7344 20.625
Q71.0469 13.625 65.5781 8.20312
Q60.7969 3.42188 54.6406 1
Q48.4844 -1.42188 41.0156 -1.42188" id="BitstreamVeraSerif-Roman-4f"/>
      <path d="
M20.5156 5.17188
L29 5.17188
L29 0
L2.875 0
L2.875 5.17188
L11.5312 5.17188
L11.5312 70.7969
L2.875 70.7969
L2.875 75.9844
L20.5156 75.9844
z
" id="BitstreamVeraSerif-Roman-6c"/>
      <path d="
M47.9062 36.1875
Q51.3125 35.25 53.7812 33.0312
Q56.25 30.8125 58.2031 26.8125
L68.7969 5.17188
L77.6875 5.17188
L77.6875 0
L60.5 0
L49.125 23.1875
Q45.8438 29.9375 43.1094 31.9062
Q40.375 33.8906 35.5938 33.8906
L24.7031 33.8906
L24.7031 5.17188
L35.0156 5.17188
L35.0156 0
L5.51562 0
L5.51562 5.17188
L14.7969 5.17188
L14.7969 67.6719
L5.51562 67.6719
L5.51562 72.9062
L42.4844 72.9062
Q53.125 72.9062 58.9062 67.8281
Q64.7031 62.75 64.7031 53.4219
Q64.7031 45.9062 60.4688 41.5781
Q56.25 37.25 47.9062 36.1875
M24.7031 39.1094
L39.1094 39.1094
Q46.4844 39.1094 50 42.5938
Q53.5156 46.0938 53.5156 53.4219
Q53.5156 60.75 50 64.2031
Q46.4844 67.6719 39.1094 67.6719
L24.7031 67.6719
z
" id="BitstreamVeraSerif-Roman-52"/>
     </defs>
     <g transform="translate(24.8990625 212.02859375)rotate(-90.0)scale(0.14 -0.14)">
      <use xlink:href="#BitstreamVeraSerif-Roman-52"/>
      <use x="77.54296875" xlink:href="#BitstreamVeraSerif-Roman-61"/>
      <use x="137.162109375" xlink:href="#BitstreamVeraSerif-Roman-74"/>
      <use x="177.34765625" xlink:href="#BitstreamVeraSerif-Roman-69"/>
      <use x="209.330078125" xlink:href="#BitstreamVeraSerif-Roman-6f"/>
      <use x="269.53515625" xlink:href="#BitstreamVeraSerif-Roman-20"/>
      <use x="301.322265625" xlink:href="#BitstreamVeraSerif-Roman-74"/>
      <use x="341.5078125" xlink:href="#BitstreamVeraSerif-Roman-6f"/>
      <use x="401.712890625" xlink:href="#BitstreamVeraSerif-Roman-20"/>
      <use x="433.5" xlink:href="#BitstreamVeraSerif-Roman-66"/>
      <use x="470.51171875" xlink:href="#BitstreamVeraSerif-Roman-69"/>
      <use x="502.494140625" xlink:href="#BitstreamVeraSerif-Roman-72"/>
      <use x="550.296875" xlink:href="#BitstreamVeraSerif-Roman-73"/>
      <use x="601.615234375" xlink:href="#BitstreamVeraSerif-Roman-74"/>
      <use x="641.80078125" xlink:href="#BitstreamVeraSerif-Roman-20"/>
      <use x="673.587890625" xlink:href="#BitstreamVeraSerif-Roman-44"/>
      <use x="753.763671875" xlink:href="#BitstreamVeraSerif-Roman-4f"/>
      <use x="835.74609375" xlink:href="#BitstreamVeraSerif-Roman-49"/>
      <use x="875.248046875" xlink:href="#BitstreamVeraSerif-Roman-20"/>
      <use x="907.03515625" xlink:href="#BitstreamVeraSerif-Roman-76"/>
      <use x="963.529296875" xlink:href="#BitstreamVeraSerif-Roman-61"/>
      <use x="1023.1484375" xlink:href="#BitstreamVeraSerif-Roman-6c"/>
      <use x="1055.13085938" xlink:href="#BitstreamVeraSerif-Roman-75"/>
      <use x="1119.53515625" xlink:href="#BitstreamVeraSerif-Roman-65"/>
     </g>
    </g>
   </g>
   <g id="patch_3">
    <path d="
M57.2091 21.42
L848.88 21.42" style="fill:none;stroke:#000000;"/>
   </g>
   <g id="patch_4">
    <path d="
M848.88 238.314
L848.88 21.42" style="fill:none;stroke:#000000;"/>
   </g>
   <g id="patch_5">
    <path d="
M57.2091 238.314
L848.88 238.314" style="fill:none;stroke:#000000;"/>
   </g>
   <g id="patch_6">
    <path d="
M57.2091 238.314
L57.2091 21.42" style="fill:none;stroke:#000000;"/>
   </g>
   <g id="legend_1">
    <g id="patch_7">
     <path d="
M65.6091 85.66
L475.307 85.66
L475.307 29.82
L65.6091 29.82
L65.6091 85.66
z
" style="fill:#ffffff;stroke:#000000;"/>
    </g>
    <g id="LineCollection_5">
     <defs>
      <path d="
M77.3691 -235.94
L77.3691 -252.74" id="C4_0_ef10a1cd3c"/>
      <path d="
M100.889 -235.94
L100.889 -252.74" id="C4_1_ec09f686e6"/>
     </defs>
     <use style="fill:none;stroke:#0000ff;" x="0.0" xlink:href="#C4_0_ef10a1cd3c" y="288.0"/>
     <use style="fill:none;stroke:#0000ff;" x="0.0" xlink:href="#C4_1_ec09f686e6" y="288.0"/>
    </g>
    <g id="line2d_52">
     <g>
      <use style="fill:#0000ff;stroke:#0000ff;stroke-width:0.5;" x="77.3690625" xlink:href="#mdde457ef1d" y="52.06"/>
      <use style="fill:#0000ff;stroke:#0000ff;stroke-width:0.5;" x="100.8890625" xlink:href="#mdde457ef1d" y="52.06"/>
     </g>
    </g>
    <g id="line2d_53">
     <g>
      <use style="fill:#0000ff;stroke:#0000ff;stroke-width:0.5;" x="77.3690625" xlink:href="#mdde457ef1d" y="35.26"/>
      <use style="fill:#0000ff;stroke:#0000ff;stroke-width:0.5;" x="100.8890625" xlink:href="#mdde457ef1d" y="35.26"/>
     </g>
    </g>
    <g id="line2d_54"/>
    <g id="line2d_55">
     <g>
      <use style="fill:#0000ff;stroke:#0000ff;stroke-width:0.5;" x="77.3690625" xlink:href="#m76a7ce5b4a" y="43.66"/>
      <use style="fill:#0000ff;stroke:#0000ff;stroke-width:0.5;" x="100.8890625" xlink:href="#m76a7ce5b4a" y="43.66"/>
     </g>
    </g>
    <g id="text_16">
     <!-- 80mV -->
     <defs>
      <path d="
M17.4844 67.6719
L39.0156 11.7188
L60.5 67.6719
L52.2969 67.6719
L52.2969 72.9062
L73.6875 72.9062
L73.6875 67.6719
L66.6094 67.6719
L40.5781 0
L32.1719 0
L6.29688 67.6719
L-0.984375 67.6719
L-0.984375 72.9062
L25.5938 72.9062
L25.5938 67.6719
z
" id="BitstreamVeraSerif-Roman-56"/>
     </defs>
     <g transform="translate(119.3690625 49.54)scale(0.168 -0.168)">
      <use xlink:href="#BitstreamVeraSerif-Roman-38"/>
      <use x="63.623046875" xlink:href="#BitstreamVeraSerif-Roman-30"/>
      <use x="127.24609375" xlink:href="#BitstreamVeraSerif-Roman-6d"/>
      <use x="222.0703125" xlink:href="#BitstreamVeraSerif-Roman-56"/>
     </g>
    </g>
    <g id="LineCollection_6">
     <defs>
      <path d="
M77.3691 -210.54
L77.3691 -227.34" id="C5_0_f7c2cb9711"/>
      <path d="
M100.889 -210.54
L100.889 -227.34" id="C5_1_254c7a7cc6"/>
     </defs>
     <use style="fill:none;stroke:#008000;" x="0.0" xlink:href="#C5_0_f7c2cb9711" y="288.0"/>
     <use style="fill:none;stroke:#008000;" x="0.0" xlink:href="#C5_1_254c7a7cc6" y="288.0"/>
    </g>
    <g id="line2d_56">
     <g>
      <use style="fill:#008000;stroke:#008000;stroke-width:0.5;" x="77.3690625" xlink:href="#m1ef3793437" y="77.46"/>
      <use style="fill:#008000;stroke:#008000;stroke-width:0.5;" x="100.8890625" xlink:href="#m1ef3793437" y="77.46"/>
     </g>
    </g>
    <g id="line2d_57">
     <g>
      <use style="fill:#008000;stroke:#008000;stroke-width:0.5;" x="77.3690625" xlink:href="#m1ef3793437" y="60.66"/>
      <use style="fill:#008000;stroke:#008000;stroke-width:0.5;" x="100.8890625" xlink:href="#m1ef3793437" y="60.66"/>
     </g>
    </g>
    <g id="line2d_58"/>
    <g id="line2d_59">
     <g>
      <use style="fill:#008000;stroke:#008000;stroke-width:0.5;" x="77.3690625" xlink:href="#mb0b177905e" y="69.06"/>
      <use style="fill:#008000;stroke:#008000;stroke-width:0.5;" x="100.8890625" xlink:href="#mb0b177905e" y="69.06"/>
     </g>
    </g>
    <g id="text_17">
     <!-- 200mV -->
     <g transform="translate(119.3690625 74.94)scale(0.168 -0.168)">
      <use xlink:href="#BitstreamVeraSerif-Roman-32"/>
      <use x="63.623046875" xlink:href="#BitstreamVeraSerif-Roman-30"/>
      <use x="127.24609375" xlink:href="#BitstreamVeraSerif-Roman-30"/>
      <use x="190.869140625" xlink:href="#BitstreamVeraSerif-Roman-6d"/>
      <use x="285.693359375" xlink:href="#BitstreamVeraSerif-Roman-56"/>
     </g>
    </g>
    <g id="LineCollection_7">
     <defs>
      <path d="
M217.384 -235.94
L217.384 -252.74" id="C6_0_850b31b4b1"/>
      <path d="
M240.904 -235.94
L240.904 -252.74" id="C6_1_5199716969"/>
     </defs>
     <use style="fill:none;stroke:#ff0000;" x="0.0" xlink:href="#C6_0_850b31b4b1" y="288.0"/>
     <use style="fill:none;stroke:#ff0000;" x="0.0" xlink:href="#C6_1_5199716969" y="288.0"/>
    </g>
    <g id="line2d_60">
     <g>
      <use style="fill:#ff0000;stroke:#ff0000;stroke-width:0.5;" x="217.3840625" xlink:href="#m12d35e2592" y="52.06"/>
      <use style="fill:#ff0000;stroke:#ff0000;stroke-width:0.5;" x="240.9040625" xlink:href="#m12d35e2592" y="52.06"/>
     </g>
    </g>
    <g id="line2d_61">
     <g>
      <use style="fill:#ff0000;stroke:#ff0000;stroke-width:0.5;" x="217.3840625" xlink:href="#m12d35e2592" y="35.26"/>
      <use style="fill:#ff0000;stroke:#ff0000;stroke-width:0.5;" x="240.9040625" xlink:href="#m12d35e2592" y="35.26"/>
     </g>
    </g>
    <g id="line2d_62"/>
    <g id="line2d_63">
     <g>
      <use style="fill:#ff0000;stroke:#ff0000;stroke-width:0.5;" x="217.3840625" xlink:href="#ma07bdd5909" y="43.66"/>
      <use style="fill:#ff0000;stroke:#ff0000;stroke-width:0.5;" x="240.9040625" xlink:href="#ma07bdd5909" y="43.66"/>
     </g>
    </g>
    <g id="text_18">
     <!-- 600mV -->
     <g transform="translate(259.3840625 49.54)scale(0.168 -0.168)">
      <use xlink:href="#BitstreamVeraSerif-Roman-36"/>
      <use x="63.623046875" xlink:href="#BitstreamVeraSerif-Roman-30"/>
      <use x="127.24609375" xlink:href="#BitstreamVeraSerif-Roman-30"/>
      <use x="190.869140625" xlink:href="#BitstreamVeraSerif-Roman-6d"/>
      <use x="285.693359375" xlink:href="#BitstreamVeraSerif-Roman-56"/>
     </g>
    </g>
    <g id="LineCollection_8">
     <defs>
      <path d="
M357.399 -235.94
L357.399 -252.74" id="C7_0_2608f2914d"/>
      <path d="
M380.919 -235.94
L380.919 -252.74" id="C7_1_27107a59a6"/>
     </defs>
     <use style="fill:none;stroke:#00bfbf;" x="0.0" xlink:href="#C7_0_2608f2914d" y="288.0"/>
     <use style="fill:none;stroke:#00bfbf;" x="0.0" xlink:href="#C7_1_27107a59a6" y="288.0"/>
    </g>
    <g id="line2d_64">
     <g>
      <use style="fill:#00bfbf;stroke:#00bfbf;stroke-width:0.5;" x="357.3990625" xlink:href="#m4be1ff0e91" y="52.06"/>
      <use style="fill:#00bfbf;stroke:#00bfbf;stroke-width:0.5;" x="380.9190625" xlink:href="#m4be1ff0e91" y="52.06"/>
     </g>
    </g>
    <g id="line2d_65">
     <g>
      <use style="fill:#00bfbf;stroke:#00bfbf;stroke-width:0.5;" x="357.3990625" xlink:href="#m4be1ff0e91" y="35.26"/>
      <use style="fill:#00bfbf;stroke:#00bfbf;stroke-width:0.5;" x="380.9190625" xlink:href="#m4be1ff0e91" y="35.26"/>
     </g>
    </g>
    <g id="line2d_66"/>
    <g id="line2d_67">
     <g>
      <use style="fill:#00bfbf;stroke:#00bfbf;stroke-width:0.5;" x="357.3990625" xlink:href="#m977c291b42" y="43.66"/>
      <use style="fill:#00bfbf;stroke:#00bfbf;stroke-width:0.5;" x="380.9190625" xlink:href="#m977c291b42" y="43.66"/>
     </g>
    </g>
    <g id="text_19">
     <!-- 1000mV -->
     <g transform="translate(399.3990625 49.54)scale(0.168 -0.168)">
      <use xlink:href="#BitstreamVeraSerif-Roman-31"/>
      <use x="63.623046875" xlink:href="#BitstreamVeraSerif-Roman-30"/>
      <use x="127.24609375" xlink:href="#BitstreamVeraSerif-Roman-30"/>
      <use x="190.869140625" xlink:href="#BitstreamVeraSerif-Roman-30"/>
      <use x="254.4921875" xlink:href="#BitstreamVeraSerif-Roman-6d"/>
      <use x="349.31640625" xlink:href="#BitstreamVeraSerif-Roman-56"/>
     </g>
    </g>
   </g>
  </g>
 </g>
 <defs>
  <clipPath id="p134defd3b4">
   <rect height="216.894375" width="791.6709375" x="57.2090625" y="21.42"/>
  </clipPath>
 </defs>
</svg>
