<?xml version="1.0" encoding="utf-8" standalone="no"?>
<!DOCTYPE svg PUBLIC "-//W3C//DTD SVG 1.1//EN"
  "http://www.w3.org/Graphics/SVG/1.1/DTD/svg11.dtd">
<!-- Created with matplotlib (http://matplotlib.org/) -->
<svg height="288pt" version="1.1" viewBox="0 0 864 288" width="864pt" xmlns="http://www.w3.org/2000/svg" xmlns:xlink="http://www.w3.org/1999/xlink">
 <defs>
  <style type="text/css">
*{stroke-linecap:butt;stroke-linejoin:round;}
  </style>
 </defs>
 <g id="figure_1">
  <g id="patch_1">
   <path d="
M0 288
L864 288
L864 0
L0 0
z
" style="fill:#ffffff;"/>
  </g>
  <g id="axes_1">
   <g id="patch_2">
    <path d="
M61.8919 238.314
L848.88 238.314
L848.88 21.42
L61.8919 21.42
z
" style="fill:#ffffff;"/>
   </g>
   <g id="LineCollection_1">
    <defs>
     <path d="
M133.436 -88.1131
L133.436 -89.7799" id="C0_0_208d069973"/>
     <path d="
M204.981 -119.519
L204.981 -121.14" id="C0_1_2f135c6357"/>
     <path d="
M276.525 -141.628
L276.525 -143.168" id="C0_2_275d2cacc8"/>
     <path d="
M455.386 -182.671
L455.386 -184.433" id="C0_3_a5dfef4455"/>
     <path d="
M526.93 -193.694
L526.93 -195.418" id="C0_4_873689df59"/>
     <path d="
M634.247 -205.302
L634.247 -207.087" id="C0_5_9dca54c2a7"/>
     <path d="
M348.069 -160.888
L348.069 -162.56" id="C0_6_7e28f636a4"/>
     <path d="
M777.336 -203.03
L777.336 -204.824" id="C0_7_b298e9453f"/>
     <path d="
M705.791 -204.482
L705.791 -206.178" id="C0_8_b57f6ff9c0"/>
    </defs>
    <g clip-path="url(#pfca090e27b)">
     <use style="fill:none;stroke:#0000ff;" x="0.0" xlink:href="#C0_0_208d069973" y="288.0"/>
    </g>
    <g clip-path="url(#pfca090e27b)">
     <use style="fill:none;stroke:#0000ff;" x="0.0" xlink:href="#C0_1_2f135c6357" y="288.0"/>
    </g>
    <g clip-path="url(#pfca090e27b)">
     <use style="fill:none;stroke:#0000ff;" x="0.0" xlink:href="#C0_2_275d2cacc8" y="288.0"/>
    </g>
    <g clip-path="url(#pfca090e27b)">
     <use style="fill:none;stroke:#0000ff;" x="0.0" xlink:href="#C0_3_a5dfef4455" y="288.0"/>
    </g>
    <g clip-path="url(#pfca090e27b)">
     <use style="fill:none;stroke:#0000ff;" x="0.0" xlink:href="#C0_4_873689df59" y="288.0"/>
    </g>
    <g clip-path="url(#pfca090e27b)">
     <use style="fill:none;stroke:#0000ff;" x="0.0" xlink:href="#C0_5_9dca54c2a7" y="288.0"/>
    </g>
    <g clip-path="url(#pfca090e27b)">
     <use style="fill:none;stroke:#0000ff;" x="0.0" xlink:href="#C0_6_7e28f636a4" y="288.0"/>
    </g>
    <g clip-path="url(#pfca090e27b)">
     <use style="fill:none;stroke:#0000ff;" x="0.0" xlink:href="#C0_7_b298e9453f" y="288.0"/>
    </g>
    <g clip-path="url(#pfca090e27b)">
     <use style="fill:none;stroke:#0000ff;" x="0.0" xlink:href="#C0_8_b57f6ff9c0" y="288.0"/>
    </g>
   </g>
   <g id="LineCollection_2">
    <defs>
     <path d="
M526.93 -189.519
L526.93 -194.952" id="C1_0_e14f783c67"/>
     <path d="
M455.386 -176.364
L455.386 -179.905" id="C1_1_2c99ae97ab"/>
     <path d="
M705.791 -181.256
L705.791 -211.076" id="C1_2_b67e2dc1d6"/>
     <path d="
M204.981 -139.601
L204.981 -141.428" id="C1_3_a7f28e2ff1"/>
     <path d="
M133.436 -110.609
L133.436 -112.35" id="C1_4_7bd77fc8a9"/>
     <path d="
M634.247 -189.798
L634.247 -207.347" id="C1_5_8ba1d360f8"/>
     <path d="
M276.525 -152.103
L276.525 -153.947" id="C1_6_0b191c5716"/>
     <path d="
M348.069 -167.44
L348.069 -169.566" id="C1_7_45b6ea584b"/>
    </defs>
    <g clip-path="url(#pfca090e27b)">
     <use style="fill:none;stroke:#ff0000;" x="0.0" xlink:href="#C1_0_e14f783c67" y="288.0"/>
    </g>
    <g clip-path="url(#pfca090e27b)">
     <use style="fill:none;stroke:#ff0000;" x="0.0" xlink:href="#C1_1_2c99ae97ab" y="288.0"/>
    </g>
    <g clip-path="url(#pfca090e27b)">
     <use style="fill:none;stroke:#ff0000;" x="0.0" xlink:href="#C1_2_b67e2dc1d6" y="288.0"/>
    </g>
    <g clip-path="url(#pfca090e27b)">
     <use style="fill:none;stroke:#ff0000;" x="0.0" xlink:href="#C1_3_a7f28e2ff1" y="288.0"/>
    </g>
    <g clip-path="url(#pfca090e27b)">
     <use style="fill:none;stroke:#ff0000;" x="0.0" xlink:href="#C1_4_7bd77fc8a9" y="288.0"/>
    </g>
    <g clip-path="url(#pfca090e27b)">
     <use style="fill:none;stroke:#ff0000;" x="0.0" xlink:href="#C1_5_8ba1d360f8" y="288.0"/>
    </g>
    <g clip-path="url(#pfca090e27b)">
     <use style="fill:none;stroke:#ff0000;" x="0.0" xlink:href="#C1_6_0b191c5716" y="288.0"/>
    </g>
    <g clip-path="url(#pfca090e27b)">
     <use style="fill:none;stroke:#ff0000;" x="0.0" xlink:href="#C1_7_45b6ea584b" y="288.0"/>
    </g>
   </g>
   <g id="LineCollection_3">
    <defs>
     <path d="
M455.386 -164.57
L455.386 -166.174" id="C2_0_1ad78a80df"/>
     <path d="
M777.336 -157.586
L777.336 -159.119" id="C2_1_bcb2814c1d"/>
     <path d="
M526.93 -167.821
L526.93 -169.38" id="C2_2_efd9ed78fd"/>
     <path d="
M634.247 -171.022
L634.247 -172.559" id="C2_3_dfffd50d49"/>
     <path d="
M276.525 -127.9
L276.525 -129.477" id="C2_4_03685fb591"/>
     <path d="
M348.069 -143.448
L348.069 -144.987" id="C2_5_02f9fe5427"/>
     <path d="
M169.208 -99.3497
L169.208 -100.9" id="C2_6_257a6d1ec3"/>
     <path d="
M705.791 -169.348
L705.791 -170.862" id="C2_7_6841b5b061"/>
     <path d="
M133.436 -76.5379
L133.436 -78.1278" id="C2_8_2ad0fcff4f"/>
    </defs>
    <g clip-path="url(#pfca090e27b)">
     <use style="fill:none;stroke:#008000;" x="0.0" xlink:href="#C2_0_1ad78a80df" y="288.0"/>
    </g>
    <g clip-path="url(#pfca090e27b)">
     <use style="fill:none;stroke:#008000;" x="0.0" xlink:href="#C2_1_bcb2814c1d" y="288.0"/>
    </g>
    <g clip-path="url(#pfca090e27b)">
     <use style="fill:none;stroke:#008000;" x="0.0" xlink:href="#C2_2_efd9ed78fd" y="288.0"/>
    </g>
    <g clip-path="url(#pfca090e27b)">
     <use style="fill:none;stroke:#008000;" x="0.0" xlink:href="#C2_3_dfffd50d49" y="288.0"/>
    </g>
    <g clip-path="url(#pfca090e27b)">
     <use style="fill:none;stroke:#008000;" x="0.0" xlink:href="#C2_4_03685fb591" y="288.0"/>
    </g>
    <g clip-path="url(#pfca090e27b)">
     <use style="fill:none;stroke:#008000;" x="0.0" xlink:href="#C2_5_02f9fe5427" y="288.0"/>
    </g>
    <g clip-path="url(#pfca090e27b)">
     <use style="fill:none;stroke:#008000;" x="0.0" xlink:href="#C2_6_257a6d1ec3" y="288.0"/>
    </g>
    <g clip-path="url(#pfca090e27b)">
     <use style="fill:none;stroke:#008000;" x="0.0" xlink:href="#C2_7_6841b5b061" y="288.0"/>
    </g>
    <g clip-path="url(#pfca090e27b)">
     <use style="fill:none;stroke:#008000;" x="0.0" xlink:href="#C2_8_2ad0fcff4f" y="288.0"/>
    </g>
   </g>
   <g id="line2d_1">
    <defs>
     <path d="
M3 1.83697e-16
L-3 -1.83697e-16" id="mdde457ef1d" style="stroke:#0000ff;stroke-width:0.5;"/>
    </defs>
    <g clip-path="url(#pfca090e27b)">
     <use style="fill:#0000ff;stroke:#0000ff;stroke-width:0.5;" x="133.43625" xlink:href="#mdde457ef1d" y="199.886895802"/>
     <use style="fill:#0000ff;stroke:#0000ff;stroke-width:0.5;" x="204.980625" xlink:href="#mdde457ef1d" y="168.481366905"/>
     <use style="fill:#0000ff;stroke:#0000ff;stroke-width:0.5;" x="276.525" xlink:href="#mdde457ef1d" y="146.371746512"/>
     <use style="fill:#0000ff;stroke:#0000ff;stroke-width:0.5;" x="455.3859375" xlink:href="#mdde457ef1d" y="105.329389847"/>
     <use style="fill:#0000ff;stroke:#0000ff;stroke-width:0.5;" x="526.9303125" xlink:href="#mdde457ef1d" y="94.3058406457"/>
     <use style="fill:#0000ff;stroke:#0000ff;stroke-width:0.5;" x="634.246875" xlink:href="#mdde457ef1d" y="82.6984507926"/>
     <use style="fill:#0000ff;stroke:#0000ff;stroke-width:0.5;" x="348.069375" xlink:href="#mdde457ef1d" y="127.112282308"/>
     <use style="fill:#0000ff;stroke:#0000ff;stroke-width:0.5;" x="777.335625" xlink:href="#mdde457ef1d" y="84.9695148884"/>
     <use style="fill:#0000ff;stroke:#0000ff;stroke-width:0.5;" x="705.79125" xlink:href="#mdde457ef1d" y="83.5175916903"/>
    </g>
   </g>
   <g id="line2d_2">
    <g clip-path="url(#pfca090e27b)">
     <use style="fill:#0000ff;stroke:#0000ff;stroke-width:0.5;" x="133.43625" xlink:href="#mdde457ef1d" y="198.220070563"/>
     <use style="fill:#0000ff;stroke:#0000ff;stroke-width:0.5;" x="204.980625" xlink:href="#mdde457ef1d" y="166.859883506"/>
     <use style="fill:#0000ff;stroke:#0000ff;stroke-width:0.5;" x="276.525" xlink:href="#mdde457ef1d" y="144.832124142"/>
     <use style="fill:#0000ff;stroke:#0000ff;stroke-width:0.5;" x="455.3859375" xlink:href="#mdde457ef1d" y="103.566889079"/>
     <use style="fill:#0000ff;stroke:#0000ff;stroke-width:0.5;" x="526.9303125" xlink:href="#mdde457ef1d" y="92.5816057785"/>
     <use style="fill:#0000ff;stroke:#0000ff;stroke-width:0.5;" x="634.246875" xlink:href="#mdde457ef1d" y="80.9126286603"/>
     <use style="fill:#0000ff;stroke:#0000ff;stroke-width:0.5;" x="348.069375" xlink:href="#mdde457ef1d" y="125.440252821"/>
     <use style="fill:#0000ff;stroke:#0000ff;stroke-width:0.5;" x="777.335625" xlink:href="#mdde457ef1d" y="83.1761324113"/>
     <use style="fill:#0000ff;stroke:#0000ff;stroke-width:0.5;" x="705.79125" xlink:href="#mdde457ef1d" y="81.8215295448"/>
    </g>
   </g>
   <g id="line2d_3">
    <defs>
     <path d="
M0 1.5
C0.397805 1.5 0.77937 1.34195 1.06066 1.06066
C1.34195 0.77937 1.5 0.397805 1.5 0
C1.5 -0.397805 1.34195 -0.77937 1.06066 -1.06066
C0.77937 -1.34195 0.397805 -1.5 0 -1.5
C-0.397805 -1.5 -0.77937 -1.34195 -1.06066 -1.06066
C-1.34195 -0.77937 -1.5 -0.397805 -1.5 0
C-1.5 0.397805 -1.34195 0.77937 -1.06066 1.06066
C-0.77937 1.34195 -0.397805 1.5 0 1.5
z
" id="m76a7ce5b4a" style="stroke:#0000ff;stroke-width:0.5;"/>
    </defs>
    <g clip-path="url(#pfca090e27b)">
     <use style="fill:#0000ff;stroke:#0000ff;stroke-width:0.5;" x="133.43625" xlink:href="#m76a7ce5b4a" y="199.053483183"/>
     <use style="fill:#0000ff;stroke:#0000ff;stroke-width:0.5;" x="204.980625" xlink:href="#m76a7ce5b4a" y="167.670625206"/>
     <use style="fill:#0000ff;stroke:#0000ff;stroke-width:0.5;" x="276.525" xlink:href="#m76a7ce5b4a" y="145.601935327"/>
     <use style="fill:#0000ff;stroke:#0000ff;stroke-width:0.5;" x="455.3859375" xlink:href="#m76a7ce5b4a" y="104.448139463"/>
     <use style="fill:#0000ff;stroke:#0000ff;stroke-width:0.5;" x="526.9303125" xlink:href="#m76a7ce5b4a" y="93.4437232121"/>
     <use style="fill:#0000ff;stroke:#0000ff;stroke-width:0.5;" x="634.246875" xlink:href="#m76a7ce5b4a" y="81.8055397265"/>
     <use style="fill:#0000ff;stroke:#0000ff;stroke-width:0.5;" x="348.069375" xlink:href="#m76a7ce5b4a" y="126.276267564"/>
     <use style="fill:#0000ff;stroke:#0000ff;stroke-width:0.5;" x="777.335625" xlink:href="#m76a7ce5b4a" y="84.0728236498"/>
     <use style="fill:#0000ff;stroke:#0000ff;stroke-width:0.5;" x="705.79125" xlink:href="#m76a7ce5b4a" y="82.6695606176"/>
    </g>
   </g>
   <g id="line2d_4">
    <defs>
     <path d="
M3 1.83697e-16
L-3 -1.83697e-16" id="m12d35e2592" style="stroke:#ff0000;stroke-width:0.5;"/>
    </defs>
    <g clip-path="url(#pfca090e27b)">
     <use style="fill:#ff0000;stroke:#ff0000;stroke-width:0.5;" x="526.9303125" xlink:href="#m12d35e2592" y="98.4812923173"/>
     <use style="fill:#ff0000;stroke:#ff0000;stroke-width:0.5;" x="455.3859375" xlink:href="#m12d35e2592" y="111.63625299"/>
     <use style="fill:#ff0000;stroke:#ff0000;stroke-width:0.5;" x="705.79125" xlink:href="#m12d35e2592" y="106.744191918"/>
     <use style="fill:#ff0000;stroke:#ff0000;stroke-width:0.5;" x="204.980625" xlink:href="#m12d35e2592" y="148.398537263"/>
     <use style="fill:#ff0000;stroke:#ff0000;stroke-width:0.5;" x="133.43625" xlink:href="#m12d35e2592" y="177.390771027"/>
     <use style="fill:#ff0000;stroke:#ff0000;stroke-width:0.5;" x="634.246875" xlink:href="#m12d35e2592" y="98.2020259579"/>
     <use style="fill:#ff0000;stroke:#ff0000;stroke-width:0.5;" x="276.525" xlink:href="#m12d35e2592" y="135.896851211"/>
     <use style="fill:#ff0000;stroke:#ff0000;stroke-width:0.5;" x="348.069375" xlink:href="#m12d35e2592" y="120.560179745"/>
    </g>
   </g>
   <g id="line2d_5">
    <g clip-path="url(#pfca090e27b)">
     <use style="fill:#ff0000;stroke:#ff0000;stroke-width:0.5;" x="526.9303125" xlink:href="#m12d35e2592" y="93.0480817566"/>
     <use style="fill:#ff0000;stroke:#ff0000;stroke-width:0.5;" x="455.3859375" xlink:href="#m12d35e2592" y="108.094688036"/>
     <use style="fill:#ff0000;stroke:#ff0000;stroke-width:0.5;" x="705.79125" xlink:href="#m12d35e2592" y="76.9238408631"/>
     <use style="fill:#ff0000;stroke:#ff0000;stroke-width:0.5;" x="204.980625" xlink:href="#m12d35e2592" y="146.572034936"/>
     <use style="fill:#ff0000;stroke:#ff0000;stroke-width:0.5;" x="133.43625" xlink:href="#m12d35e2592" y="175.649518536"/>
     <use style="fill:#ff0000;stroke:#ff0000;stroke-width:0.5;" x="634.246875" xlink:href="#m12d35e2592" y="80.6533379434"/>
     <use style="fill:#ff0000;stroke:#ff0000;stroke-width:0.5;" x="276.525" xlink:href="#m12d35e2592" y="134.052650589"/>
     <use style="fill:#ff0000;stroke:#ff0000;stroke-width:0.5;" x="348.069375" xlink:href="#m12d35e2592" y="118.433921214"/>
    </g>
   </g>
   <g id="line2d_6">
    <defs>
     <path d="
M0 1.5
C0.397805 1.5 0.77937 1.34195 1.06066 1.06066
C1.34195 0.77937 1.5 0.397805 1.5 0
C1.5 -0.397805 1.34195 -0.77937 1.06066 -1.06066
C0.77937 -1.34195 0.397805 -1.5 0 -1.5
C-0.397805 -1.5 -0.77937 -1.34195 -1.06066 -1.06066
C-1.34195 -0.77937 -1.5 -0.397805 -1.5 0
C-1.5 0.397805 -1.34195 0.77937 -1.06066 1.06066
C-0.77937 1.34195 -0.397805 1.5 0 1.5
z
" id="ma07bdd5909" style="stroke:#ff0000;stroke-width:0.5;"/>
    </defs>
    <g clip-path="url(#pfca090e27b)">
     <use style="fill:#ff0000;stroke:#ff0000;stroke-width:0.5;" x="526.9303125" xlink:href="#ma07bdd5909" y="95.764687037"/>
     <use style="fill:#ff0000;stroke:#ff0000;stroke-width:0.5;" x="455.3859375" xlink:href="#ma07bdd5909" y="109.865470513"/>
     <use style="fill:#ff0000;stroke:#ff0000;stroke-width:0.5;" x="705.79125" xlink:href="#ma07bdd5909" y="91.8340163908"/>
     <use style="fill:#ff0000;stroke:#ff0000;stroke-width:0.5;" x="204.980625" xlink:href="#ma07bdd5909" y="147.485286099"/>
     <use style="fill:#ff0000;stroke:#ff0000;stroke-width:0.5;" x="133.43625" xlink:href="#ma07bdd5909" y="176.520144782"/>
     <use style="fill:#ff0000;stroke:#ff0000;stroke-width:0.5;" x="634.246875" xlink:href="#ma07bdd5909" y="89.4276819506"/>
     <use style="fill:#ff0000;stroke:#ff0000;stroke-width:0.5;" x="276.525" xlink:href="#ma07bdd5909" y="134.9747509"/>
     <use style="fill:#ff0000;stroke:#ff0000;stroke-width:0.5;" x="348.069375" xlink:href="#ma07bdd5909" y="119.497050479"/>
    </g>
   </g>
   <g id="line2d_7">
    <defs>
     <path d="
M3 1.83697e-16
L-3 -1.83697e-16" id="m1ef3793437" style="stroke:#008000;stroke-width:0.5;"/>
    </defs>
    <g clip-path="url(#pfca090e27b)">
     <use style="fill:#008000;stroke:#008000;stroke-width:0.5;" x="455.3859375" xlink:href="#m1ef3793437" y="123.42960354"/>
     <use style="fill:#008000;stroke:#008000;stroke-width:0.5;" x="777.335625" xlink:href="#m1ef3793437" y="130.413589481"/>
     <use style="fill:#008000;stroke:#008000;stroke-width:0.5;" x="526.9303125" xlink:href="#m1ef3793437" y="120.178727323"/>
     <use style="fill:#008000;stroke:#008000;stroke-width:0.5;" x="634.246875" xlink:href="#m1ef3793437" y="116.97780773"/>
     <use style="fill:#008000;stroke:#008000;stroke-width:0.5;" x="276.525" xlink:href="#m1ef3793437" y="160.099803659"/>
     <use style="fill:#008000;stroke:#008000;stroke-width:0.5;" x="348.069375" xlink:href="#m1ef3793437" y="144.551831292"/>
     <use style="fill:#008000;stroke:#008000;stroke-width:0.5;" x="169.2084375" xlink:href="#m1ef3793437" y="188.650312885"/>
     <use style="fill:#008000;stroke:#008000;stroke-width:0.5;" x="705.79125" xlink:href="#m1ef3793437" y="118.65183476"/>
     <use style="fill:#008000;stroke:#008000;stroke-width:0.5;" x="133.43625" xlink:href="#m1ef3793437" y="211.462089935"/>
    </g>
   </g>
   <g id="line2d_8">
    <g clip-path="url(#pfca090e27b)">
     <use style="fill:#008000;stroke:#008000;stroke-width:0.5;" x="455.3859375" xlink:href="#m1ef3793437" y="121.825892372"/>
     <use style="fill:#008000;stroke:#008000;stroke-width:0.5;" x="777.335625" xlink:href="#m1ef3793437" y="128.881302347"/>
     <use style="fill:#008000;stroke:#008000;stroke-width:0.5;" x="526.9303125" xlink:href="#m1ef3793437" y="118.619585983"/>
     <use style="fill:#008000;stroke:#008000;stroke-width:0.5;" x="634.246875" xlink:href="#m1ef3793437" y="115.441284419"/>
     <use style="fill:#008000;stroke:#008000;stroke-width:0.5;" x="276.525" xlink:href="#m1ef3793437" y="158.522836903"/>
     <use style="fill:#008000;stroke:#008000;stroke-width:0.5;" x="348.069375" xlink:href="#m1ef3793437" y="143.013147994"/>
     <use style="fill:#008000;stroke:#008000;stroke-width:0.5;" x="169.2084375" xlink:href="#m1ef3793437" y="187.099527776"/>
     <use style="fill:#008000;stroke:#008000;stroke-width:0.5;" x="705.79125" xlink:href="#m1ef3793437" y="117.137815456"/>
     <use style="fill:#008000;stroke:#008000;stroke-width:0.5;" x="133.43625" xlink:href="#m1ef3793437" y="209.872161322"/>
    </g>
   </g>
   <g id="line2d_9">
    <defs>
     <path d="
M0 1.5
C0.397805 1.5 0.77937 1.34195 1.06066 1.06066
C1.34195 0.77937 1.5 0.397805 1.5 0
C1.5 -0.397805 1.34195 -0.77937 1.06066 -1.06066
C0.77937 -1.34195 0.397805 -1.5 0 -1.5
C-0.397805 -1.5 -0.77937 -1.34195 -1.06066 -1.06066
C-1.34195 -0.77937 -1.5 -0.397805 -1.5 0
C-1.5 0.397805 -1.34195 0.77937 -1.06066 1.06066
C-0.77937 1.34195 -0.397805 1.5 0 1.5
z
" id="mb0b177905e" style="stroke:#008000;stroke-width:0.5;"/>
    </defs>
    <g clip-path="url(#pfca090e27b)">
     <use style="fill:#008000;stroke:#008000;stroke-width:0.5;" x="455.3859375" xlink:href="#mb0b177905e" y="122.627747956"/>
     <use style="fill:#008000;stroke:#008000;stroke-width:0.5;" x="777.335625" xlink:href="#mb0b177905e" y="129.647445914"/>
     <use style="fill:#008000;stroke:#008000;stroke-width:0.5;" x="526.9303125" xlink:href="#mb0b177905e" y="119.399156653"/>
     <use style="fill:#008000;stroke:#008000;stroke-width:0.5;" x="634.246875" xlink:href="#mb0b177905e" y="116.209546075"/>
     <use style="fill:#008000;stroke:#008000;stroke-width:0.5;" x="276.525" xlink:href="#mb0b177905e" y="159.311320281"/>
     <use style="fill:#008000;stroke:#008000;stroke-width:0.5;" x="348.069375" xlink:href="#mb0b177905e" y="143.782489643"/>
     <use style="fill:#008000;stroke:#008000;stroke-width:0.5;" x="169.2084375" xlink:href="#mb0b177905e" y="187.87492033"/>
     <use style="fill:#008000;stroke:#008000;stroke-width:0.5;" x="705.79125" xlink:href="#mb0b177905e" y="117.894825108"/>
     <use style="fill:#008000;stroke:#008000;stroke-width:0.5;" x="133.43625" xlink:href="#mb0b177905e" y="210.667125629"/>
    </g>
   </g>
   <g id="matplotlib.axis_1">
    <g id="xtick_1">
     <g id="line2d_10">
      <path clip-path="url(#pfca090e27b)" d="
M97.6641 238.314
L97.6641 21.42" style="fill:none;stroke:#000000;stroke-dasharray:1.000000,3.000000;stroke-dashoffset:0.0;stroke-width:0.5;"/>
     </g>
     <g id="line2d_11">
      <defs>
       <path d="
M0 0
L0 -4" id="m93b0483c22" style="stroke:#000000;stroke-width:0.5;"/>
      </defs>
      <g>
       <use style="stroke:#000000;stroke-width:0.5;" x="97.6640625" xlink:href="#m93b0483c22" y="238.314375"/>
      </g>
     </g>
     <g id="line2d_12">
      <defs>
       <path d="
M0 0
L0 4" id="m741efc42ff" style="stroke:#000000;stroke-width:0.5;"/>
      </defs>
      <g>
       <use style="stroke:#000000;stroke-width:0.5;" x="97.6640625" xlink:href="#m741efc42ff" y="21.42"/>
      </g>
     </g>
     <g id="text_1">
      <!-- 0 -->
      <defs>
       <path d="
M31.7812 3.42188
Q39.2656 3.42188 42.9688 11.625
Q46.6875 19.8281 46.6875 36.375
Q46.6875 52.9844 42.9688 61.1875
Q39.2656 69.3906 31.7812 69.3906
Q24.3125 69.3906 20.5938 61.1875
Q16.8906 52.9844 16.8906 36.375
Q16.8906 19.8281 20.5938 11.625
Q24.3125 3.42188 31.7812 3.42188
M31.7812 -1.42188
Q19.9219 -1.42188 13.25 8.53125
Q6.59375 18.5 6.59375 36.375
Q6.59375 54.2969 13.25 64.25
Q19.9219 74.2188 31.7812 74.2188
Q43.7031 74.2188 50.3438 64.25
Q56.9844 54.2969 56.9844 36.375
Q56.9844 18.5 50.3438 8.53125
Q43.7031 -1.42188 31.7812 -1.42188" id="BitstreamVeraSerif-Roman-30"/>
      </defs>
      <g transform="translate(94.13671875 252.9521875)scale(0.14 -0.14)">
       <use xlink:href="#BitstreamVeraSerif-Roman-30"/>
      </g>
     </g>
    </g>
    <g id="xtick_2">
     <g id="line2d_13">
      <path clip-path="url(#pfca090e27b)" d="
M276.525 238.314
L276.525 21.42" style="fill:none;stroke:#000000;stroke-dasharray:1.000000,3.000000;stroke-dashoffset:0.0;stroke-width:0.5;"/>
     </g>
     <g id="line2d_14">
      <g>
       <use style="stroke:#000000;stroke-width:0.5;" x="276.525" xlink:href="#m93b0483c22" y="238.314375"/>
      </g>
     </g>
     <g id="line2d_15">
      <g>
       <use style="stroke:#000000;stroke-width:0.5;" x="276.525" xlink:href="#m741efc42ff" y="21.42"/>
      </g>
     </g>
     <g id="text_2">
      <!-- 5 -->
      <defs>
       <path d="
M50.2969 72.9062
L50.2969 64.8906
L16.8906 64.8906
L16.8906 44
Q19.4375 45.75 22.8281 46.625
Q26.2188 47.5156 30.4219 47.5156
Q42.2344 47.5156 49.0625 40.9688
Q55.9062 34.4219 55.9062 23.0938
Q55.9062 11.5312 49 5.04688
Q42.0938 -1.42188 29.5938 -1.42188
Q24.5625 -1.42188 19.2812 -0.1875
Q14.0156 1.03125 8.5 3.51562
L8.5 17.6719
L14.0156 17.6719
Q14.4531 10.75 18.4219 7.07812
Q22.4062 3.42188 29.5938 3.42188
Q37.3125 3.42188 41.4531 8.5
Q45.6094 13.5781 45.6094 23.0938
Q45.6094 32.5625 41.4844 37.6094
Q37.3594 42.6719 29.5938 42.6719
Q25.2031 42.6719 21.8438 41.1094
Q18.5 39.5469 15.9219 36.2812
L11.7188 36.2812
L11.7188 72.9062
z
" id="BitstreamVeraSerif-Roman-35"/>
      </defs>
      <g transform="translate(273.2065625 252.9521875)scale(0.14 -0.14)">
       <use xlink:href="#BitstreamVeraSerif-Roman-35"/>
      </g>
     </g>
    </g>
    <g id="xtick_3">
     <g id="line2d_16">
      <path clip-path="url(#pfca090e27b)" d="
M455.386 238.314
L455.386 21.42" style="fill:none;stroke:#000000;stroke-dasharray:1.000000,3.000000;stroke-dashoffset:0.0;stroke-width:0.5;"/>
     </g>
     <g id="line2d_17">
      <g>
       <use style="stroke:#000000;stroke-width:0.5;" x="455.3859375" xlink:href="#m93b0483c22" y="238.314375"/>
      </g>
     </g>
     <g id="line2d_18">
      <g>
       <use style="stroke:#000000;stroke-width:0.5;" x="455.3859375" xlink:href="#m741efc42ff" y="21.42"/>
      </g>
     </g>
     <g id="text_3">
      <!-- 10 -->
      <defs>
       <path d="
M14.2031 0
L14.2031 5.17188
L26.9062 5.17188
L26.9062 65.8281
L12.2031 56.2969
L12.2031 62.7031
L29.9844 74.2188
L36.7188 74.2188
L36.7188 5.17188
L49.4219 5.17188
L49.4219 0
z
" id="BitstreamVeraSerif-Roman-31"/>
      </defs>
      <g transform="translate(447.7975 252.9521875)scale(0.14 -0.14)">
       <use xlink:href="#BitstreamVeraSerif-Roman-31"/>
       <use x="63.623046875" xlink:href="#BitstreamVeraSerif-Roman-30"/>
      </g>
     </g>
    </g>
    <g id="xtick_4">
     <g id="line2d_19">
      <path clip-path="url(#pfca090e27b)" d="
M634.247 238.314
L634.247 21.42" style="fill:none;stroke:#000000;stroke-dasharray:1.000000,3.000000;stroke-dashoffset:0.0;stroke-width:0.5;"/>
     </g>
     <g id="line2d_20">
      <g>
       <use style="stroke:#000000;stroke-width:0.5;" x="634.246875" xlink:href="#m93b0483c22" y="238.314375"/>
      </g>
     </g>
     <g id="line2d_21">
      <g>
       <use style="stroke:#000000;stroke-width:0.5;" x="634.246875" xlink:href="#m741efc42ff" y="21.42"/>
      </g>
     </g>
     <g id="text_4">
      <!-- 15 -->
      <g transform="translate(626.73390625 252.9521875)scale(0.14 -0.14)">
       <use xlink:href="#BitstreamVeraSerif-Roman-31"/>
       <use x="63.623046875" xlink:href="#BitstreamVeraSerif-Roman-35"/>
      </g>
     </g>
    </g>
    <g id="xtick_5">
     <g id="line2d_22">
      <path clip-path="url(#pfca090e27b)" d="
M813.108 238.314
L813.108 21.42" style="fill:none;stroke:#000000;stroke-dasharray:1.000000,3.000000;stroke-dashoffset:0.0;stroke-width:0.5;"/>
     </g>
     <g id="line2d_23">
      <g>
       <use style="stroke:#000000;stroke-width:0.5;" x="813.1078125" xlink:href="#m93b0483c22" y="238.314375"/>
      </g>
     </g>
     <g id="line2d_24">
      <g>
       <use style="stroke:#000000;stroke-width:0.5;" x="813.1078125" xlink:href="#m741efc42ff" y="21.42"/>
      </g>
     </g>
     <g id="text_5">
      <!-- 20 -->
      <defs>
       <path d="
M12.7969 55.5156
L7.32812 55.5156
L7.32812 68.5
Q12.5469 71.2969 17.8438 72.75
Q23.1406 74.2188 28.2188 74.2188
Q39.5938 74.2188 46.1875 68.7031
Q52.7812 63.1875 52.7812 53.7188
Q52.7812 43.0156 37.8438 28.125
Q36.6719 27 36.0781 26.4219
L17.6719 8.01562
L48.0938 8.01562
L48.0938 17
L53.8125 17
L53.8125 0
L6.78125 0
L6.78125 5.32812
L28.9062 27.3906
Q36.2344 34.7188 39.3594 40.8438
Q42.4844 46.9688 42.4844 53.7188
Q42.4844 61.0781 38.6406 65.2344
Q34.8125 69.3906 28.0781 69.3906
Q21.0938 69.3906 17.2812 65.9219
Q13.4844 62.4531 12.7969 55.5156" id="BitstreamVeraSerif-Roman-32"/>
      </defs>
      <g transform="translate(805.13984375 252.9521875)scale(0.14 -0.14)">
       <use xlink:href="#BitstreamVeraSerif-Roman-32"/>
       <use x="63.623046875" xlink:href="#BitstreamVeraSerif-Roman-30"/>
      </g>
     </g>
    </g>
    <g id="text_6">
     <!-- Depth of Interaction (mm) -->
     <defs>
      <path d="
M31.8906 -15.5781
Q20.0156 -10.25 13.9531 1.29688
Q7.90625 12.8438 7.90625 30.1719
Q7.90625 47.5625 13.9531 59.1094
Q20.0156 70.6562 31.8906 75.9844
L31.8906 71.1875
Q24.3594 66.0156 21.0938 56.6094
Q17.8281 47.2188 17.8281 30.1719
Q17.8281 13.1875 21.0938 3.78125
Q24.3594 -5.60938 31.8906 -10.7969
z
" id="BitstreamVeraSerif-Roman-28"/>
      <path d="
M54.2031 25
L15.4844 25
L15.4844 24.6094
Q15.4844 14.1094 19.4375 8.76562
Q23.3906 3.42188 31.1094 3.42188
Q37.0156 3.42188 40.7969 6.51562
Q44.5781 9.625 46.0938 15.7188
L53.3281 15.7188
Q51.1719 7.17188 45.375 2.875
Q39.5938 -1.42188 30.1719 -1.42188
Q18.7969 -1.42188 11.8906 6.07812
Q4.98438 13.5781 4.98438 25.9844
Q4.98438 38.2812 11.7656 45.7969
Q18.5625 53.3281 29.5938 53.3281
Q41.3594 53.3281 47.6562 46.0625
Q53.9531 38.8125 54.2031 25
M43.6094 30.1719
Q43.3125 39.2656 39.7656 43.875
Q36.2344 48.4844 29.5938 48.4844
Q23.3906 48.4844 19.8281 43.8438
Q16.2656 39.2031 15.4844 30.1719
z
" id="BitstreamVeraSerif-Roman-65"/>
      <path d="
M43.0156 63.7188
L38.2812 63.7188
Q38.2344 67.3906 36.2031 69.2812
Q34.1875 71.1875 30.3281 71.1875
Q25.2969 71.1875 23.2344 68.4219
Q21.1875 65.6719 21.1875 58.5938
L21.1875 51.9062
L35.6875 51.9062
L35.6875 46.6875
L21.1875 46.6875
L21.1875 5.17188
L32.7188 5.17188
L32.7188 0
L3.60938 0
L3.60938 5.17188
L12.2031 5.17188
L12.2031 46.6875
L3.60938 46.6875
L3.60938 51.9062
L12.2031 51.9062
L12.2031 58.4062
Q12.2031 67.0938 16.7188 71.5312
Q21.2344 75.9844 29.9844 75.9844
Q33.25 75.9844 36.5156 75.3906
Q39.7969 74.8125 43.0156 73.5781
z
" id="BitstreamVeraSerif-Roman-66"/>
      <path d="
M10.7969 46.6875
L2.875 46.6875
L2.875 51.9062
L10.7969 51.9062
L10.7969 68.0156
L19.8281 68.0156
L19.8281 51.9062
L36.7188 51.9062
L36.7188 46.6875
L19.8281 46.6875
L19.8281 13.7188
Q19.8281 7.125 21.0938 5.26562
Q22.3594 3.42188 25.7812 3.42188
Q29.2969 3.42188 30.9062 5.48438
Q32.5156 7.5625 32.625 12.2031
L39.4062 12.2031
Q39.0156 5.125 35.5469 1.84375
Q32.0781 -1.42188 25 -1.42188
Q17.2344 -1.42188 14.0156 2.01562
Q10.7969 5.46875 10.7969 13.7188
z
" id="BitstreamVeraSerif-Roman-74"/>
      <path d="
M47.7969 52
L47.7969 39.0156
L42.625 39.0156
Q42.3906 42.875 40.4844 44.7812
Q38.5781 46.6875 34.9062 46.6875
Q28.2656 46.6875 24.7188 42.0938
Q21.1875 37.5 21.1875 28.9062
L21.1875 5.17188
L31.5938 5.17188
L31.5938 0
L4.10938 0
L4.10938 5.17188
L12.2031 5.17188
L12.2031 46.7812
L3.60938 46.7812
L3.60938 51.9062
L21.1875 51.9062
L21.1875 42.6719
Q23.8281 48.0938 27.9688 50.7031
Q32.125 53.3281 38.0938 53.3281
Q40.2812 53.3281 42.7031 52.9844
Q45.125 52.6406 47.7969 52" id="BitstreamVeraSerif-Roman-72"/>
      <path d="
M20.5156 28.5156
L20.5156 23.3906
Q20.5156 14.0156 24.0938 9.10938
Q27.6875 4.20312 34.5156 4.20312
Q41.4062 4.20312 44.9375 9.71875
Q48.4844 15.2344 48.4844 25.9844
Q48.4844 36.7656 44.9375 42.2344
Q41.4062 47.7031 34.5156 47.7031
Q27.6875 47.7031 24.0938 42.7656
Q20.5156 37.8438 20.5156 28.5156
M11.5312 46.6875
L2.875 46.6875
L2.875 51.9062
L20.5156 51.9062
L20.5156 43.7969
Q23.1406 48.6875 27.2188 51
Q31.2969 53.3281 37.3125 53.3281
Q46.875 53.3281 52.9219 45.75
Q58.9844 38.1875 58.9844 25.9844
Q58.9844 13.7656 52.9219 6.17188
Q46.875 -1.42188 37.3125 -1.42188
Q31.2969 -1.42188 27.2188 0.890625
Q23.1406 3.21875 20.5156 8.10938
L20.5156 -15.5781
L29 -15.5781
L29 -20.7969
L2.875 -20.7969
L2.875 -15.5781
L11.5312 -15.5781
z
" id="BitstreamVeraSerif-Roman-70"/>
      <path id="BitstreamVeraSerif-Roman-20"/>
      <path d="
M51.4219 15.5781
Q49.5156 7.28125 44.0938 2.92188
Q38.6719 -1.42188 30.0781 -1.42188
Q18.75 -1.42188 11.8594 6.07812
Q4.98438 13.5781 4.98438 25.9844
Q4.98438 38.4219 11.8594 45.875
Q18.75 53.3281 30.0781 53.3281
Q35.0156 53.3281 39.8906 52.1719
Q44.7812 51.0312 49.7031 48.6875
L49.7031 35.4062
L44.4844 35.4062
Q43.4531 42.2344 40.0156 45.3594
Q36.5781 48.4844 30.1719 48.4844
Q22.9062 48.4844 19.1875 42.8438
Q15.4844 37.2031 15.4844 25.9844
Q15.4844 14.75 19.1719 9.07812
Q22.8594 3.42188 30.1719 3.42188
Q35.9844 3.42188 39.4531 6.4375
Q42.9219 9.46875 44.1875 15.5781
z
" id="BitstreamVeraSerif-Roman-63"/>
      <path d="
M4.10938 0
L4.10938 5.17188
L12.2031 5.17188
L12.2031 70.7969
L3.60938 70.7969
L3.60938 75.9844
L21.1875 75.9844
L21.1875 42.6719
Q23.6875 47.9531 27.6562 50.6406
Q31.6406 53.3281 36.9219 53.3281
Q45.5156 53.3281 49.5625 48.3906
Q53.6094 43.4531 53.6094 33.0156
L53.6094 5.17188
L61.625 5.17188
L61.625 0
L36.8125 0
L36.8125 5.17188
L44.5781 5.17188
L44.5781 30.1719
Q44.5781 39.7031 42.25 43.1875
Q39.9375 46.6875 33.9844 46.6875
Q27.7344 46.6875 24.4531 42.1406
Q21.1875 37.5938 21.1875 28.9062
L21.1875 5.17188
L29 5.17188
L29 0
z
" id="BitstreamVeraSerif-Roman-68"/>
      <path d="
M9.71875 68.0156
Q9.71875 70.2656 11.3438 71.9219
Q12.9844 73.5781 15.2812 73.5781
Q17.5312 73.5781 19.1562 71.9219
Q20.7969 70.2656 20.7969 68.0156
Q20.7969 65.7188 19.1875 64.1094
Q17.5781 62.5 15.2812 62.5
Q12.9844 62.5 11.3438 64.1094
Q9.71875 65.7188 9.71875 68.0156
M21.1875 5.17188
L29.6875 5.17188
L29.6875 0
L3.60938 0
L3.60938 5.17188
L12.2031 5.17188
L12.2031 46.6875
L3.60938 46.6875
L3.60938 51.9062
L21.1875 51.9062
z
" id="BitstreamVeraSerif-Roman-69"/>
      <path d="
M51.8125 41.7969
Q54.3906 47.5156 58.4219 50.4219
Q62.4531 53.3281 67.8281 53.3281
Q75.9844 53.3281 79.9844 48.2656
Q83.9844 43.2188 83.9844 33.0156
L83.9844 5.17188
L92.0938 5.17188
L92.0938 0
L67.1875 0
L67.1875 5.17188
L75 5.17188
L75 31.9844
Q75 39.9375 72.6562 43.3125
Q70.3125 46.6875 64.8906 46.6875
Q58.8906 46.6875 55.7344 42.1406
Q52.5938 37.5938 52.5938 28.9062
L52.5938 5.17188
L60.4062 5.17188
L60.4062 0
L35.7969 0
L35.7969 5.17188
L43.6094 5.17188
L43.6094 32.3281
Q43.6094 40.0938 41.2656 43.3906
Q38.9219 46.6875 33.5 46.6875
Q27.4844 46.6875 24.3281 42.1406
Q21.1875 37.5938 21.1875 28.9062
L21.1875 5.17188
L29 5.17188
L29 0
L4.10938 0
L4.10938 5.17188
L12.2031 5.17188
L12.2031 46.7812
L3.60938 46.7812
L3.60938 51.9062
L21.1875 51.9062
L21.1875 42.6719
Q23.6875 47.8594 27.5312 50.5938
Q31.3906 53.3281 36.2812 53.3281
Q42.3281 53.3281 46.375 50.3125
Q50.4375 47.3125 51.8125 41.7969" id="BitstreamVeraSerif-Roman-6d"/>
      <path d="
M4.10938 0
L4.10938 5.17188
L12.2031 5.17188
L12.2031 46.6875
L3.60938 46.6875
L3.60938 51.9062
L21.1875 51.9062
L21.1875 42.6719
Q23.6875 47.9531 27.6562 50.6406
Q31.6406 53.3281 36.9219 53.3281
Q45.5156 53.3281 49.5625 48.3906
Q53.6094 43.4531 53.6094 33.0156
L53.6094 5.17188
L61.625 5.17188
L61.625 0
L36.8125 0
L36.8125 5.17188
L44.5781 5.17188
L44.5781 30.1719
Q44.5781 39.7031 42.2344 43.2344
Q39.8906 46.7812 33.9844 46.7812
Q27.7344 46.7812 24.4531 42.2031
Q21.1875 37.6406 21.1875 28.9062
L21.1875 5.17188
L29 5.17188
L29 0
z
" id="BitstreamVeraSerif-Roman-6e"/>
      <path d="
M30.0781 3.42188
Q37.3125 3.42188 40.9844 9.125
Q44.6719 14.8438 44.6719 25.9844
Q44.6719 37.1094 40.9844 42.7969
Q37.3125 48.4844 30.0781 48.4844
Q22.8594 48.4844 19.1719 42.7969
Q15.4844 37.1094 15.4844 25.9844
Q15.4844 14.8438 19.1875 9.125
Q22.9062 3.42188 30.0781 3.42188
M30.0781 -1.42188
Q18.75 -1.42188 11.8594 6.07812
Q4.98438 13.5781 4.98438 25.9844
Q4.98438 38.375 11.8438 45.8438
Q18.7031 53.3281 30.0781 53.3281
Q41.4531 53.3281 48.3125 45.8438
Q55.1719 38.375 55.1719 25.9844
Q55.1719 13.5781 48.3125 6.07812
Q41.4531 -1.42188 30.0781 -1.42188" id="BitstreamVeraSerif-Roman-6f"/>
      <path d="
M24.7031 5.17188
L33.9844 5.17188
L33.9844 0
L5.51562 0
L5.51562 5.17188
L14.7969 5.17188
L14.7969 67.6719
L5.51562 67.6719
L5.51562 72.9062
L33.9844 72.9062
L33.9844 67.6719
L24.7031 67.6719
z
" id="BitstreamVeraSerif-Roman-49"/>
      <path d="
M24.7031 5.17188
L33.7969 5.17188
Q48 5.17188 55.5938 13.2812
Q63.1875 21.3906 63.1875 36.5312
Q63.1875 51.6562 55.6094 59.6562
Q48.0469 67.6719 33.7969 67.6719
L24.7031 67.6719
z

M5.51562 0
L5.51562 5.17188
L14.7969 5.17188
L14.7969 67.6719
L5.51562 67.6719
L5.51562 72.9062
L34.5156 72.9062
Q53.375 72.9062 63.8906 63.2812
Q74.4219 53.6562 74.4219 36.5312
Q74.4219 19.3438 63.875 9.67188
Q53.3281 0 34.5156 0
z
" id="BitstreamVeraSerif-Roman-44"/>
      <path d="
M7.07812 -15.5781
L7.07812 -10.7969
Q14.5938 -5.60938 17.8906 3.78125
Q21.1875 13.1875 21.1875 30.1719
Q21.1875 47.2188 17.8906 56.6094
Q14.5938 66.0156 7.07812 71.1875
L7.07812 75.9844
Q19 70.6562 25.0469 59.1094
Q31.1094 47.5625 31.1094 30.1719
Q31.1094 12.8438 25.0469 1.29688
Q19 -10.25 7.07812 -15.5781" id="BitstreamVeraSerif-Roman-29"/>
      <path d="
M39.7969 16.3125
L39.7969 27.2969
L28.2188 27.2969
Q21.5312 27.2969 18.25 24.4062
Q14.9844 21.5312 14.9844 15.5781
Q14.9844 10.1562 18.2969 6.98438
Q21.625 3.8125 27.2969 3.8125
Q32.9062 3.8125 36.3438 7.28125
Q39.7969 10.75 39.7969 16.3125
M48.7812 32.4219
L48.7812 5.17188
L56.7812 5.17188
L56.7812 0
L39.7969 0
L39.7969 5.60938
Q36.8125 2 32.9062 0.28125
Q29 -1.42188 23.7812 -1.42188
Q15.1406 -1.42188 10.0625 3.17188
Q4.98438 7.76562 4.98438 15.5781
Q4.98438 23.6406 10.7969 28.0781
Q16.6094 32.5156 27.2031 32.5156
L39.7969 32.5156
L39.7969 36.0781
Q39.7969 42 36.2031 45.2344
Q32.625 48.4844 26.125 48.4844
Q20.75 48.4844 17.5781 46.0469
Q14.4062 43.6094 13.625 38.8125
L8.98438 38.8125
L8.98438 49.3125
Q13.6719 51.3125 18.0938 52.3125
Q22.5156 53.3281 26.7031 53.3281
Q37.5 53.3281 43.1406 47.9688
Q48.7812 42.625 48.7812 32.4219" id="BitstreamVeraSerif-Roman-61"/>
     </defs>
     <g transform="translate(362.72015625 271.5015625)scale(0.14 -0.14)">
      <use xlink:href="#BitstreamVeraSerif-Roman-44"/>
      <use x="80.17578125" xlink:href="#BitstreamVeraSerif-Roman-65"/>
      <use x="139.35546875" xlink:href="#BitstreamVeraSerif-Roman-70"/>
      <use x="203.369140625" xlink:href="#BitstreamVeraSerif-Roman-74"/>
      <use x="243.5546875" xlink:href="#BitstreamVeraSerif-Roman-68"/>
      <use x="307.958984375" xlink:href="#BitstreamVeraSerif-Roman-20"/>
      <use x="339.74609375" xlink:href="#BitstreamVeraSerif-Roman-6f"/>
      <use x="399.951171875" xlink:href="#BitstreamVeraSerif-Roman-66"/>
      <use x="436.962890625" xlink:href="#BitstreamVeraSerif-Roman-20"/>
      <use x="468.75" xlink:href="#BitstreamVeraSerif-Roman-49"/>
      <use x="508.251953125" xlink:href="#BitstreamVeraSerif-Roman-6e"/>
      <use x="572.65625" xlink:href="#BitstreamVeraSerif-Roman-74"/>
      <use x="612.841796875" xlink:href="#BitstreamVeraSerif-Roman-65"/>
      <use x="672.021484375" xlink:href="#BitstreamVeraSerif-Roman-72"/>
      <use x="719.82421875" xlink:href="#BitstreamVeraSerif-Roman-61"/>
      <use x="779.443359375" xlink:href="#BitstreamVeraSerif-Roman-63"/>
      <use x="835.44921875" xlink:href="#BitstreamVeraSerif-Roman-74"/>
      <use x="875.634765625" xlink:href="#BitstreamVeraSerif-Roman-69"/>
      <use x="907.6171875" xlink:href="#BitstreamVeraSerif-Roman-6f"/>
      <use x="967.822265625" xlink:href="#BitstreamVeraSerif-Roman-6e"/>
      <use x="1032.2265625" xlink:href="#BitstreamVeraSerif-Roman-20"/>
      <use x="1064.01367188" xlink:href="#BitstreamVeraSerif-Roman-28"/>
      <use x="1103.02734375" xlink:href="#BitstreamVeraSerif-Roman-6d"/>
      <use x="1197.8515625" xlink:href="#BitstreamVeraSerif-Roman-6d"/>
      <use x="1292.67578125" xlink:href="#BitstreamVeraSerif-Roman-29"/>
     </g>
    </g>
   </g>
   <g id="matplotlib.axis_2">
    <g id="ytick_1">
     <g id="line2d_25">
      <path clip-path="url(#pfca090e27b)" d="
M61.8919 238.314
L848.88 238.314" style="fill:none;stroke:#000000;stroke-dasharray:1.000000,3.000000;stroke-dashoffset:0.0;stroke-width:0.5;"/>
     </g>
     <g id="line2d_26">
      <defs>
       <path d="
M0 0
L4 0" id="m728421d6d4" style="stroke:#000000;stroke-width:0.5;"/>
      </defs>
      <g>
       <use style="stroke:#000000;stroke-width:0.5;" x="61.891875" xlink:href="#m728421d6d4" y="238.314375"/>
      </g>
     </g>
     <g id="line2d_27">
      <defs>
       <path d="
M0 0
L-4 0" id="mcb0005524f" style="stroke:#000000;stroke-width:0.5;"/>
      </defs>
      <g>
       <use style="stroke:#000000;stroke-width:0.5;" x="848.88" xlink:href="#mcb0005524f" y="238.314375"/>
      </g>
     </g>
     <g id="text_7">
      <!-- 0 -->
      <g transform="translate(50.8371875 242.1775)scale(0.14 -0.14)">
       <use xlink:href="#BitstreamVeraSerif-Roman-30"/>
      </g>
     </g>
    </g>
    <g id="ytick_2">
     <g id="line2d_28">
      <path clip-path="url(#pfca090e27b)" d="
M61.8919 202.165
L848.88 202.165" style="fill:none;stroke:#000000;stroke-dasharray:1.000000,3.000000;stroke-dashoffset:0.0;stroke-width:0.5;"/>
     </g>
     <g id="line2d_29">
      <g>
       <use style="stroke:#000000;stroke-width:0.5;" x="61.891875" xlink:href="#m728421d6d4" y="202.1653125"/>
      </g>
     </g>
     <g id="line2d_30">
      <g>
       <use style="stroke:#000000;stroke-width:0.5;" x="848.88" xlink:href="#mcb0005524f" y="202.1653125"/>
      </g>
     </g>
     <g id="text_8">
      <!-- 50 -->
      <g transform="translate(42.1965625 206.0284375)scale(0.14 -0.14)">
       <use xlink:href="#BitstreamVeraSerif-Roman-35"/>
       <use x="63.623046875" xlink:href="#BitstreamVeraSerif-Roman-30"/>
      </g>
     </g>
    </g>
    <g id="ytick_3">
     <g id="line2d_31">
      <path clip-path="url(#pfca090e27b)" d="
M61.8919 166.016
L848.88 166.016" style="fill:none;stroke:#000000;stroke-dasharray:1.000000,3.000000;stroke-dashoffset:0.0;stroke-width:0.5;"/>
     </g>
     <g id="line2d_32">
      <g>
       <use style="stroke:#000000;stroke-width:0.5;" x="61.891875" xlink:href="#m728421d6d4" y="166.01625"/>
      </g>
     </g>
     <g id="line2d_33">
      <g>
       <use style="stroke:#000000;stroke-width:0.5;" x="848.88" xlink:href="#mcb0005524f" y="166.01625"/>
      </g>
     </g>
     <g id="text_9">
      <!-- 100 -->
      <g transform="translate(33.8075 169.879375)scale(0.14 -0.14)">
       <use xlink:href="#BitstreamVeraSerif-Roman-31"/>
       <use x="63.623046875" xlink:href="#BitstreamVeraSerif-Roman-30"/>
       <use x="127.24609375" xlink:href="#BitstreamVeraSerif-Roman-30"/>
      </g>
     </g>
    </g>
    <g id="ytick_4">
     <g id="line2d_34">
      <path clip-path="url(#pfca090e27b)" d="
M61.8919 129.867
L848.88 129.867" style="fill:none;stroke:#000000;stroke-dasharray:1.000000,3.000000;stroke-dashoffset:0.0;stroke-width:0.5;"/>
     </g>
     <g id="line2d_35">
      <g>
       <use style="stroke:#000000;stroke-width:0.5;" x="61.891875" xlink:href="#m728421d6d4" y="129.8671875"/>
      </g>
     </g>
     <g id="line2d_36">
      <g>
       <use style="stroke:#000000;stroke-width:0.5;" x="848.88" xlink:href="#mcb0005524f" y="129.8671875"/>
      </g>
     </g>
     <g id="text_10">
      <!-- 150 -->
      <g transform="translate(33.8075 133.7303125)scale(0.14 -0.14)">
       <use xlink:href="#BitstreamVeraSerif-Roman-31"/>
       <use x="63.623046875" xlink:href="#BitstreamVeraSerif-Roman-35"/>
       <use x="127.24609375" xlink:href="#BitstreamVeraSerif-Roman-30"/>
      </g>
     </g>
    </g>
    <g id="ytick_5">
     <g id="line2d_37">
      <path clip-path="url(#pfca090e27b)" d="
M61.8919 93.7181
L848.88 93.7181" style="fill:none;stroke:#000000;stroke-dasharray:1.000000,3.000000;stroke-dashoffset:0.0;stroke-width:0.5;"/>
     </g>
     <g id="line2d_38">
      <g>
       <use style="stroke:#000000;stroke-width:0.5;" x="61.891875" xlink:href="#m728421d6d4" y="93.718125"/>
      </g>
     </g>
     <g id="line2d_39">
      <g>
       <use style="stroke:#000000;stroke-width:0.5;" x="848.88" xlink:href="#mcb0005524f" y="93.718125"/>
      </g>
     </g>
     <g id="text_11">
      <!-- 200 -->
      <g transform="translate(33.0484375 97.58125)scale(0.14 -0.14)">
       <use xlink:href="#BitstreamVeraSerif-Roman-32"/>
       <use x="63.623046875" xlink:href="#BitstreamVeraSerif-Roman-30"/>
       <use x="127.24609375" xlink:href="#BitstreamVeraSerif-Roman-30"/>
      </g>
     </g>
    </g>
    <g id="ytick_6">
     <g id="line2d_40">
      <path clip-path="url(#pfca090e27b)" d="
M61.8919 57.5691
L848.88 57.5691" style="fill:none;stroke:#000000;stroke-dasharray:1.000000,3.000000;stroke-dashoffset:0.0;stroke-width:0.5;"/>
     </g>
     <g id="line2d_41">
      <g>
       <use style="stroke:#000000;stroke-width:0.5;" x="61.891875" xlink:href="#m728421d6d4" y="57.5690625"/>
      </g>
     </g>
     <g id="line2d_42">
      <g>
       <use style="stroke:#000000;stroke-width:0.5;" x="848.88" xlink:href="#mcb0005524f" y="57.5690625"/>
      </g>
     </g>
     <g id="text_12">
      <!-- 250 -->
      <g transform="translate(33.0484375 61.4321875)scale(0.14 -0.14)">
       <use xlink:href="#BitstreamVeraSerif-Roman-32"/>
       <use x="63.623046875" xlink:href="#BitstreamVeraSerif-Roman-35"/>
       <use x="127.24609375" xlink:href="#BitstreamVeraSerif-Roman-30"/>
      </g>
     </g>
    </g>
    <g id="ytick_7">
     <g id="line2d_43">
      <path clip-path="url(#pfca090e27b)" d="
M61.8919 21.42
L848.88 21.42" style="fill:none;stroke:#000000;stroke-dasharray:1.000000,3.000000;stroke-dashoffset:0.0;stroke-width:0.5;"/>
     </g>
     <g id="line2d_44">
      <g>
       <use style="stroke:#000000;stroke-width:0.5;" x="61.891875" xlink:href="#m728421d6d4" y="21.42"/>
      </g>
     </g>
     <g id="line2d_45">
      <g>
       <use style="stroke:#000000;stroke-width:0.5;" x="848.88" xlink:href="#mcb0005524f" y="21.42"/>
      </g>
     </g>
     <g id="text_13">
      <!-- 300 -->
      <defs>
       <path d="
M9.71875 69.8281
Q15.4375 71.9688 20.6719 73.0938
Q25.9219 74.2188 30.5156 74.2188
Q41.2188 74.2188 47.2188 69.5938
Q53.2188 64.9844 53.2188 56.7812
Q53.2188 50.2031 49.0625 45.7812
Q44.9219 41.3594 37.3125 39.7969
Q46.2969 38.5312 51.25 33.2812
Q56.2031 28.0312 56.2031 19.6719
Q56.2031 9.46875 49.3438 4.01562
Q42.4844 -1.42188 29.5938 -1.42188
Q23.875 -1.42188 18.4219 -0.1875
Q12.9844 1.03125 7.625 3.51562
L7.625 17.6719
L13.0938 17.6719
Q13.5781 10.6406 17.8281 7.03125
Q22.0781 3.42188 29.7812 3.42188
Q37.25 3.42188 41.5781 7.73438
Q45.9062 12.0625 45.9062 19.5781
Q45.9062 28.1719 41.4531 32.5938
Q37.0156 37.0156 28.4219 37.0156
L23.7812 37.0156
L23.7812 42
L26.2188 42
Q34.7656 42 39.0312 45.5312
Q43.3125 49.0781 43.3125 56.2031
Q43.3125 62.5938 39.7969 65.9844
Q36.2812 69.3906 29.6875 69.3906
Q23.0938 69.3906 19.4531 66.2656
Q15.8281 63.1406 15.1875 56.9844
L9.71875 56.9844
z
" id="BitstreamVeraSerif-Roman-33"/>
      </defs>
      <g transform="translate(33.1665625 25.283125)scale(0.14 -0.14)">
       <use xlink:href="#BitstreamVeraSerif-Roman-33"/>
       <use x="63.623046875" xlink:href="#BitstreamVeraSerif-Roman-30"/>
       <use x="127.24609375" xlink:href="#BitstreamVeraSerif-Roman-30"/>
      </g>
     </g>
    </g>
    <g id="text_14">
     <!-- Delay Peak Centroid (ps) -->
     <defs>
      <path d="
M52.4844 5.17188
L61.0781 5.17188
L61.0781 0
L43.5 0
L43.5 8.10938
Q40.875 3.21875 36.7969 0.890625
Q32.7188 -1.42188 26.7031 -1.42188
Q17.1406 -1.42188 11.0625 6.17188
Q4.98438 13.7656 4.98438 25.9844
Q4.98438 38.1875 11.0312 45.75
Q17.0938 53.3281 26.7031 53.3281
Q32.7188 53.3281 36.7969 51
Q40.875 48.6875 43.5 43.7969
L43.5 70.7969
L35.0156 70.7969
L35.0156 75.9844
L52.4844 75.9844
z

M43.5 23.3906
L43.5 28.5156
Q43.5 37.8438 39.9062 42.7656
Q36.3281 47.7031 29.5 47.7031
Q22.5625 47.7031 19.0156 42.2344
Q15.4844 36.7656 15.4844 25.9844
Q15.4844 15.2344 19.0156 9.71875
Q22.5625 4.20312 29.5 4.20312
Q36.3281 4.20312 39.9062 9.10938
Q43.5 14.0156 43.5 23.3906" id="BitstreamVeraSerif-Roman-64"/>
      <path d="
M5.60938 2.875
L5.60938 14.9844
L10.7969 14.9844
Q10.9844 9.1875 14.4219 6.29688
Q17.875 3.42188 24.6094 3.42188
Q30.6719 3.42188 33.8438 5.6875
Q37.0156 7.95312 37.0156 12.3125
Q37.0156 15.7188 34.6875 17.8125
Q32.375 19.9219 24.9062 22.3125
L18.4062 24.5156
Q11.7188 26.6562 8.71875 29.875
Q5.71875 33.1094 5.71875 38.0938
Q5.71875 45.2188 10.9375 49.2656
Q16.1562 53.3281 25.3906 53.3281
Q29.5 53.3281 34.0312 52.25
Q38.5781 51.1719 43.4062 49.125
L43.4062 37.7969
L38.2344 37.7969
Q38.0312 42.8281 34.7031 45.6562
Q31.3906 48.4844 25.6875 48.4844
Q20.0156 48.4844 17.1094 46.4844
Q14.2031 44.4844 14.2031 40.4844
Q14.2031 37.2031 16.4062 35.2188
Q18.6094 33.25 25.2031 31.2031
L32.3281 29
Q39.7031 26.7031 42.9375 23.2656
Q46.1875 19.8281 46.1875 14.4062
Q46.1875 7.03125 40.5469 2.79688
Q34.9062 -1.42188 25 -1.42188
Q19.9688 -1.42188 15.1875 -0.34375
Q10.4062 0.734375 5.60938 2.875" id="BitstreamVeraSerif-Roman-73"/>
      <path d="
M21.5781 -9.51562
L25 -0.875
L5.60938 46.6875
L-0.296875 46.6875
L-0.296875 51.9062
L23.5781 51.9062
L23.5781 46.6875
L15.2812 46.6875
L29.8906 10.9844
L44.4844 46.6875
L36.7188 46.6875
L36.7188 51.9062
L56.2031 51.9062
L56.2031 46.6875
L50.3906 46.6875
L26.6094 -11.7188
Q24.1719 -17.7812 21.1875 -20
Q18.2188 -22.2188 12.7969 -22.2188
Q10.5 -22.2188 8.07812 -21.8281
Q5.67188 -21.4375 3.21875 -20.7031
L3.21875 -10.7969
L7.8125 -10.7969
Q8.10938 -14.1094 9.5 -15.5469
Q10.8906 -17 13.8125 -17
Q16.5 -17 18.1406 -15.5
Q19.7812 -14.0156 21.5781 -9.51562" id="BitstreamVeraSerif-Roman-79"/>
      <path d="
M28.6094 0
L3.42188 0
L3.42188 5.17188
L11.5312 5.17188
L11.5312 70.7969
L2.875 70.7969
L2.875 75.9844
L20.5156 75.9844
L20.5156 26.5156
L42.3906 46.6875
L34.9062 46.6875
L34.9062 51.9062
L58.4062 51.9062
L58.4062 46.6875
L49.5156 46.6875
L34.0781 32.4219
L53.8125 5.17188
L61.2812 5.17188
L61.2812 0
L35.6875 0
L35.6875 5.17188
L43.1094 5.17188
L27.5938 26.5156
L20.5156 19.9219
L20.5156 5.17188
L28.6094 5.17188
z
" id="BitstreamVeraSerif-Roman-6b"/>
      <path d="
M20.5156 5.17188
L29 5.17188
L29 0
L2.875 0
L2.875 5.17188
L11.5312 5.17188
L11.5312 70.7969
L2.875 70.7969
L2.875 75.9844
L20.5156 75.9844
z
" id="BitstreamVeraSerif-Roman-6c"/>
      <path d="
M24.7031 37.1094
L37.5938 37.1094
Q44.875 37.1094 48.6719 41.0312
Q52.4844 44.9688 52.4844 52.3906
Q52.4844 59.8594 48.6719 63.7656
Q44.875 67.6719 37.5938 67.6719
L24.7031 67.6719
z

M5.51562 0
L5.51562 5.17188
L14.7969 5.17188
L14.7969 67.6719
L5.51562 67.6719
L5.51562 72.9062
L39.9844 72.9062
Q50.9219 72.9062 57.3125 67.3594
Q63.7188 61.8125 63.7188 52.3906
Q63.7188 43.0156 57.3125 37.4531
Q50.9219 31.8906 39.9844 31.8906
L24.7031 31.8906
L24.7031 5.17188
L35.9844 5.17188
L35.9844 0
z
" id="BitstreamVeraSerif-Roman-50"/>
      <path d="
M70.5156 19.2812
Q67.2812 9.07812 59.6875 3.82812
Q52.0938 -1.42188 40.4844 -1.42188
Q33.3438 -1.42188 27.2344 1.01562
Q21.1406 3.46875 16.4062 8.20312
Q10.9375 13.6719 8.26562 20.625
Q5.60938 27.5938 5.60938 36.375
Q5.60938 53.375 15.4219 63.7969
Q25.25 74.2188 41.3125 74.2188
Q47.2656 74.2188 54 72.6562
Q60.75 71.0938 68.5 67.9219
L68.5 51.125
L62.9844 51.125
Q61.1875 60.2969 55.7344 64.6406
Q50.2969 69 40.4844 69
Q28.8125 69 22.7969 60.7188
Q16.7969 52.4375 16.7969 36.375
Q16.7969 20.3594 22.7969 12.0781
Q28.8125 3.8125 40.4844 3.8125
Q48.6406 3.8125 53.9062 7.6875
Q59.1875 11.5781 61.5312 19.2812
z
" id="BitstreamVeraSerif-Roman-43"/>
     </defs>
     <g transform="translate(24.9378125 217.6996875)rotate(-90.0)scale(0.14 -0.14)">
      <use xlink:href="#BitstreamVeraSerif-Roman-44"/>
      <use x="80.17578125" xlink:href="#BitstreamVeraSerif-Roman-65"/>
      <use x="139.35546875" xlink:href="#BitstreamVeraSerif-Roman-6c"/>
      <use x="171.337890625" xlink:href="#BitstreamVeraSerif-Roman-61"/>
      <use x="230.95703125" xlink:href="#BitstreamVeraSerif-Roman-79"/>
      <use x="287.451171875" xlink:href="#BitstreamVeraSerif-Roman-20"/>
      <use x="319.23828125" xlink:href="#BitstreamVeraSerif-Roman-50"/>
      <use x="382.0234375" xlink:href="#BitstreamVeraSerif-Roman-65"/>
      <use x="441.203125" xlink:href="#BitstreamVeraSerif-Roman-61"/>
      <use x="500.822265625" xlink:href="#BitstreamVeraSerif-Roman-6b"/>
      <use x="561.41796875" xlink:href="#BitstreamVeraSerif-Roman-20"/>
      <use x="593.205078125" xlink:href="#BitstreamVeraSerif-Roman-43"/>
      <use x="669.71875" xlink:href="#BitstreamVeraSerif-Roman-65"/>
      <use x="728.8984375" xlink:href="#BitstreamVeraSerif-Roman-6e"/>
      <use x="793.302734375" xlink:href="#BitstreamVeraSerif-Roman-74"/>
      <use x="833.48828125" xlink:href="#BitstreamVeraSerif-Roman-72"/>
      <use x="881.291015625" xlink:href="#BitstreamVeraSerif-Roman-6f"/>
      <use x="941.49609375" xlink:href="#BitstreamVeraSerif-Roman-69"/>
      <use x="973.478515625" xlink:href="#BitstreamVeraSerif-Roman-64"/>
      <use x="1037.4921875" xlink:href="#BitstreamVeraSerif-Roman-20"/>
      <use x="1069.27929688" xlink:href="#BitstreamVeraSerif-Roman-28"/>
      <use x="1108.29296875" xlink:href="#BitstreamVeraSerif-Roman-70"/>
      <use x="1172.30664062" xlink:href="#BitstreamVeraSerif-Roman-73"/>
      <use x="1223.625" xlink:href="#BitstreamVeraSerif-Roman-29"/>
     </g>
    </g>
   </g>
   <g id="patch_3">
    <path d="
M61.8919 21.42
L848.88 21.42" style="fill:none;stroke:#000000;"/>
   </g>
   <g id="patch_4">
    <path d="
M848.88 238.314
L848.88 21.42" style="fill:none;stroke:#000000;"/>
   </g>
   <g id="patch_5">
    <path d="
M61.8919 238.314
L848.88 238.314" style="fill:none;stroke:#000000;"/>
   </g>
   <g id="patch_6">
    <path d="
M61.8919 238.314
L61.8919 21.42" style="fill:none;stroke:#000000;"/>
   </g>
   <g id="legend_1">
    <g id="patch_7">
     <path d="
M291.048 60.26
L840.48 60.26
L840.48 29.82
L291.048 29.82
L291.048 60.26
z
" style="fill:#ffffff;stroke:#000000;"/>
    </g>
    <g id="LineCollection_4">
     <defs>
      <path d="
M302.808 -235.94
L302.808 -252.74" id="C3_0_5419fd97ed"/>
      <path d="
M326.328 -235.94
L326.328 -252.74" id="C3_1_6116ff989b"/>
     </defs>
     <use style="fill:none;stroke:#0000ff;" x="0.0" xlink:href="#C3_0_5419fd97ed" y="288.0"/>
     <use style="fill:none;stroke:#0000ff;" x="0.0" xlink:href="#C3_1_6116ff989b" y="288.0"/>
    </g>
    <g id="line2d_46">
     <g>
      <use style="fill:#0000ff;stroke:#0000ff;stroke-width:0.5;" x="302.808125" xlink:href="#mdde457ef1d" y="52.06"/>
      <use style="fill:#0000ff;stroke:#0000ff;stroke-width:0.5;" x="326.328125" xlink:href="#mdde457ef1d" y="52.06"/>
     </g>
    </g>
    <g id="line2d_47">
     <g>
      <use style="fill:#0000ff;stroke:#0000ff;stroke-width:0.5;" x="302.808125" xlink:href="#mdde457ef1d" y="35.26"/>
      <use style="fill:#0000ff;stroke:#0000ff;stroke-width:0.5;" x="326.328125" xlink:href="#mdde457ef1d" y="35.26"/>
     </g>
    </g>
    <g id="line2d_48"/>
    <g id="line2d_49">
     <g>
      <use style="fill:#0000ff;stroke:#0000ff;stroke-width:0.5;" x="302.808125" xlink:href="#m76a7ce5b4a" y="43.66"/>
      <use style="fill:#0000ff;stroke:#0000ff;stroke-width:0.5;" x="326.328125" xlink:href="#m76a7ce5b4a" y="43.66"/>
     </g>
    </g>
    <g id="text_15">
     <!-- Partially Wrapped -->
     <defs>
      <path d="
M76.2188 0
L68.2188 0
L51.5156 59.2812
L34.8125 0
L26.8125 0
L7.71875 67.6719
L0.484375 67.6719
L0.484375 72.9062
L27.0938 72.9062
L27.0938 67.6719
L18.0156 67.6719
L33.2031 13.8125
L49.8125 72.9062
L57.7188 72.9062
L74.6094 13.1875
L89.8906 67.6719
L81.5 67.6719
L81.5 72.9062
L102.484 72.9062
L102.484 67.6719
L95.3125 67.6719
z
" id="BitstreamVeraSerif-Roman-57"/>
     </defs>
     <g transform="translate(344.808125 49.54)scale(0.168 -0.168)">
      <use xlink:href="#BitstreamVeraSerif-Roman-50"/>
      <use x="62.78515625" xlink:href="#BitstreamVeraSerif-Roman-61"/>
      <use x="122.404296875" xlink:href="#BitstreamVeraSerif-Roman-72"/>
      <use x="170.20703125" xlink:href="#BitstreamVeraSerif-Roman-74"/>
      <use x="210.392578125" xlink:href="#BitstreamVeraSerif-Roman-69"/>
      <use x="242.375" xlink:href="#BitstreamVeraSerif-Roman-61"/>
      <use x="301.994140625" xlink:href="#BitstreamVeraSerif-Roman-6c"/>
      <use x="333.9765625" xlink:href="#BitstreamVeraSerif-Roman-6c"/>
      <use x="365.958984375" xlink:href="#BitstreamVeraSerif-Roman-79"/>
      <use x="422.453125" xlink:href="#BitstreamVeraSerif-Roman-20"/>
      <use x="454.240234375" xlink:href="#BitstreamVeraSerif-Roman-57"/>
      <use x="552.5234375" xlink:href="#BitstreamVeraSerif-Roman-72"/>
      <use x="600.326171875" xlink:href="#BitstreamVeraSerif-Roman-61"/>
      <use x="659.9453125" xlink:href="#BitstreamVeraSerif-Roman-70"/>
      <use x="723.958984375" xlink:href="#BitstreamVeraSerif-Roman-70"/>
      <use x="787.97265625" xlink:href="#BitstreamVeraSerif-Roman-65"/>
      <use x="847.15234375" xlink:href="#BitstreamVeraSerif-Roman-64"/>
     </g>
    </g>
    <g id="LineCollection_5">
     <defs>
      <path d="
M536.136 -235.94
L536.136 -252.74" id="C4_0_65d4fa6d9b"/>
      <path d="
M559.656 -235.94
L559.656 -252.74" id="C4_1_f1c0368115"/>
     </defs>
     <use style="fill:none;stroke:#ff0000;" x="0.0" xlink:href="#C4_0_65d4fa6d9b" y="288.0"/>
     <use style="fill:none;stroke:#ff0000;" x="0.0" xlink:href="#C4_1_f1c0368115" y="288.0"/>
    </g>
    <g id="line2d_50">
     <g>
      <use style="fill:#ff0000;stroke:#ff0000;stroke-width:0.5;" x="536.135625" xlink:href="#m12d35e2592" y="52.06"/>
      <use style="fill:#ff0000;stroke:#ff0000;stroke-width:0.5;" x="559.655625" xlink:href="#m12d35e2592" y="52.06"/>
     </g>
    </g>
    <g id="line2d_51">
     <g>
      <use style="fill:#ff0000;stroke:#ff0000;stroke-width:0.5;" x="536.135625" xlink:href="#m12d35e2592" y="35.26"/>
      <use style="fill:#ff0000;stroke:#ff0000;stroke-width:0.5;" x="559.655625" xlink:href="#m12d35e2592" y="35.26"/>
     </g>
    </g>
    <g id="line2d_52"/>
    <g id="line2d_53">
     <g>
      <use style="fill:#ff0000;stroke:#ff0000;stroke-width:0.5;" x="536.135625" xlink:href="#ma07bdd5909" y="43.66"/>
      <use style="fill:#ff0000;stroke:#ff0000;stroke-width:0.5;" x="559.655625" xlink:href="#ma07bdd5909" y="43.66"/>
     </g>
    </g>
    <g id="text_16">
     <!-- Unwrapped -->
     <defs>
      <path d="
M48 51.9062
L61.2812 11.375
L73 46.6875
L65.4844 46.6875
L65.4844 51.9062
L84.2812 51.9062
L84.2812 46.6875
L78.5156 46.6875
L63.0938 0
L55.6094 0
L42.8281 38.8125
L29.9844 0
L22.7969 0
L7.42188 46.6875
L1.60938 46.6875
L1.60938 51.9062
L25.0938 51.9062
L25.0938 46.6875
L16.7031 46.6875
L28.3281 11.375
L41.7031 51.9062
z
" id="BitstreamVeraSerif-Roman-77"/>
      <path d="
M14.0156 67.6719
L4.6875 67.6719
L4.6875 72.9062
L33.2031 72.9062
L33.2031 67.6719
L23.875 67.6719
L23.875 29.9844
Q23.875 16.0156 28.4375 10.5
Q33.0156 4.98438 44.1875 4.98438
Q55.375 4.98438 59.9375 10.5
Q64.5 16.0156 64.5 29.9844
L64.5 67.6719
L55.1719 67.6719
L55.1719 72.9062
L79.7812 72.9062
L79.7812 67.6719
L70.5156 67.6719
L70.5156 29
Q70.5156 12.3594 64.1094 5.46875
Q57.7188 -1.42188 42.3906 -1.42188
Q27.0469 -1.42188 20.5312 5.51562
Q14.0156 12.4531 14.0156 29
z
" id="BitstreamVeraSerif-Roman-55"/>
     </defs>
     <g transform="translate(578.135625 49.54)scale(0.168 -0.168)">
      <use xlink:href="#BitstreamVeraSerif-Roman-55"/>
      <use x="84.27734375" xlink:href="#BitstreamVeraSerif-Roman-6e"/>
      <use x="148.681640625" xlink:href="#BitstreamVeraSerif-Roman-77"/>
      <use x="234.27734375" xlink:href="#BitstreamVeraSerif-Roman-72"/>
      <use x="282.080078125" xlink:href="#BitstreamVeraSerif-Roman-61"/>
      <use x="341.69921875" xlink:href="#BitstreamVeraSerif-Roman-70"/>
      <use x="405.712890625" xlink:href="#BitstreamVeraSerif-Roman-70"/>
      <use x="469.7265625" xlink:href="#BitstreamVeraSerif-Roman-65"/>
      <use x="528.90625" xlink:href="#BitstreamVeraSerif-Roman-64"/>
     </g>
    </g>
    <g id="LineCollection_6">
     <defs>
      <path d="
M715.401 -235.94
L715.401 -252.74" id="C5_0_1e7f6b0407"/>
      <path d="
M738.921 -235.94
L738.921 -252.74" id="C5_1_8a8f2276c6"/>
     </defs>
     <use style="fill:none;stroke:#008000;" x="0.0" xlink:href="#C5_0_1e7f6b0407" y="288.0"/>
     <use style="fill:none;stroke:#008000;" x="0.0" xlink:href="#C5_1_8a8f2276c6" y="288.0"/>
    </g>
    <g id="line2d_54">
     <g>
      <use style="fill:#008000;stroke:#008000;stroke-width:0.5;" x="715.400625" xlink:href="#m1ef3793437" y="52.06"/>
      <use style="fill:#008000;stroke:#008000;stroke-width:0.5;" x="738.920625" xlink:href="#m1ef3793437" y="52.06"/>
     </g>
    </g>
    <g id="line2d_55">
     <g>
      <use style="fill:#008000;stroke:#008000;stroke-width:0.5;" x="715.400625" xlink:href="#m1ef3793437" y="35.26"/>
      <use style="fill:#008000;stroke:#008000;stroke-width:0.5;" x="738.920625" xlink:href="#m1ef3793437" y="35.26"/>
     </g>
    </g>
    <g id="line2d_56"/>
    <g id="line2d_57">
     <g>
      <use style="fill:#008000;stroke:#008000;stroke-width:0.5;" x="715.400625" xlink:href="#mb0b177905e" y="43.66"/>
      <use style="fill:#008000;stroke:#008000;stroke-width:0.5;" x="738.920625" xlink:href="#mb0b177905e" y="43.66"/>
     </g>
    </g>
    <g id="text_17">
     <!-- Wrapped -->
     <g transform="translate(757.400625 49.54)scale(0.168 -0.168)">
      <use xlink:href="#BitstreamVeraSerif-Roman-57"/>
      <use x="98.283203125" xlink:href="#BitstreamVeraSerif-Roman-72"/>
      <use x="146.0859375" xlink:href="#BitstreamVeraSerif-Roman-61"/>
      <use x="205.705078125" xlink:href="#BitstreamVeraSerif-Roman-70"/>
      <use x="269.71875" xlink:href="#BitstreamVeraSerif-Roman-70"/>
      <use x="333.732421875" xlink:href="#BitstreamVeraSerif-Roman-65"/>
      <use x="392.912109375" xlink:href="#BitstreamVeraSerif-Roman-64"/>
     </g>
    </g>
   </g>
  </g>
 </g>
 <defs>
  <clipPath id="pfca090e27b">
   <rect height="216.894375" width="786.988125" x="61.891875" y="21.42"/>
  </clipPath>
 </defs>
</svg>
