<?xml version="1.0" encoding="utf-8" standalone="no"?>
<!DOCTYPE svg PUBLIC "-//W3C//DTD SVG 1.1//EN"
  "http://www.w3.org/Graphics/SVG/1.1/DTD/svg11.dtd">
<!-- Created with matplotlib (http://matplotlib.org/) -->
<svg height="288pt" version="1.1" viewBox="0 0 864 288" width="864pt" xmlns="http://www.w3.org/2000/svg" xmlns:xlink="http://www.w3.org/1999/xlink">
 <defs>
  <style type="text/css">
*{stroke-linecap:butt;stroke-linejoin:round;}
  </style>
 </defs>
 <g id="figure_1">
  <g id="patch_1">
   <path d="
M0 288
L864 288
L864 0
L0 0
z
" style="fill:#ffffff;"/>
  </g>
  <g id="axes_1">
   <g id="patch_2">
    <path d="
M55.7241 240.84
L851.04 240.84
L851.04 19.26
L55.7241 19.26
z
" style="fill:#ffffff;"/>
   </g>
   <g id="LineCollection_1">
    <defs>
     <path d="
M128.026 -94.2692
L128.026 -96.3126" id="C0_0_52e7c55120"/>
     <path d="
M200.327 -132.77
L200.327 -134.758" id="C0_1_e2cf2a0547"/>
     <path d="
M272.628 -159.875
L272.628 -161.762" id="C0_2_69e4dce2f1"/>
     <path d="
M453.382 -210.189
L453.382 -212.35" id="C0_3_3cf9d62ff8"/>
     <path d="
M525.683 -223.704
L525.683 -225.817" id="C0_4_611cea2059"/>
     <path d="
M634.136 -237.933
L634.136 -240.123" id="C0_5_ea8c47aee6"/>
     <path d="
M344.93 -183.485
L344.93 -185.535" id="C0_6_92f007e054"/>
     <path d="
M778.739 -235.149
L778.739 -237.348" id="C0_7_246bcaa285"/>
     <path d="
M706.437 -236.929
L706.437 -239.008" id="C0_8_61dbbd84e6"/>
    </defs>
    <g clip-path="url(#p5546cca3e0)">
     <use style="fill:none;stroke:#008000;" x="0.0" xlink:href="#C0_0_52e7c55120" y="288.0"/>
    </g>
    <g clip-path="url(#p5546cca3e0)">
     <use style="fill:none;stroke:#008000;" x="0.0" xlink:href="#C0_1_e2cf2a0547" y="288.0"/>
    </g>
    <g clip-path="url(#p5546cca3e0)">
     <use style="fill:none;stroke:#008000;" x="0.0" xlink:href="#C0_2_69e4dce2f1" y="288.0"/>
    </g>
    <g clip-path="url(#p5546cca3e0)">
     <use style="fill:none;stroke:#008000;" x="0.0" xlink:href="#C0_3_3cf9d62ff8" y="288.0"/>
    </g>
    <g clip-path="url(#p5546cca3e0)">
     <use style="fill:none;stroke:#008000;" x="0.0" xlink:href="#C0_4_611cea2059" y="288.0"/>
    </g>
    <g clip-path="url(#p5546cca3e0)">
     <use style="fill:none;stroke:#008000;" x="0.0" xlink:href="#C0_5_ea8c47aee6" y="288.0"/>
    </g>
    <g clip-path="url(#p5546cca3e0)">
     <use style="fill:none;stroke:#008000;" x="0.0" xlink:href="#C0_6_92f007e054" y="288.0"/>
    </g>
    <g clip-path="url(#p5546cca3e0)">
     <use style="fill:none;stroke:#008000;" x="0.0" xlink:href="#C0_7_246bcaa285" y="288.0"/>
    </g>
    <g clip-path="url(#p5546cca3e0)">
     <use style="fill:none;stroke:#008000;" x="0.0" xlink:href="#C0_8_61dbbd84e6" y="288.0"/>
    </g>
   </g>
   <g id="LineCollection_2">
    <defs>
     <path d="
M525.683 -218.585
L525.683 -225.245" id="C1_0_1f7db3a124"/>
     <path d="
M453.382 -202.458
L453.382 -206.799" id="C1_1_9bb8b5f094"/>
     <path d="
M706.437 -208.455
L706.437 -245.013" id="C1_2_d8067948cf"/>
     <path d="
M200.327 -157.39
L200.327 -159.629" id="C1_3_27fe9734fa"/>
     <path d="
M128.026 -121.848
L128.026 -123.982" id="C1_4_0da80faae4"/>
     <path d="
M634.136 -218.927
L634.136 -240.44" id="C1_5_81da24dc6b"/>
     <path d="
M272.628 -172.716
L272.628 -174.977" id="C1_6_4c4f6076d3"/>
     <path d="
M344.93 -191.518
L344.93 -194.124" id="C1_7_af19ec8369"/>
    </defs>
    <g clip-path="url(#p5546cca3e0)">
     <use style="fill:none;stroke:#0000ff;" x="0.0" xlink:href="#C1_0_1f7db3a124" y="288.0"/>
    </g>
    <g clip-path="url(#p5546cca3e0)">
     <use style="fill:none;stroke:#0000ff;" x="0.0" xlink:href="#C1_1_9bb8b5f094" y="288.0"/>
    </g>
    <g clip-path="url(#p5546cca3e0)">
     <use style="fill:none;stroke:#0000ff;" x="0.0" xlink:href="#C1_2_d8067948cf" y="288.0"/>
    </g>
    <g clip-path="url(#p5546cca3e0)">
     <use style="fill:none;stroke:#0000ff;" x="0.0" xlink:href="#C1_3_27fe9734fa" y="288.0"/>
    </g>
    <g clip-path="url(#p5546cca3e0)">
     <use style="fill:none;stroke:#0000ff;" x="0.0" xlink:href="#C1_4_0da80faae4" y="288.0"/>
    </g>
    <g clip-path="url(#p5546cca3e0)">
     <use style="fill:none;stroke:#0000ff;" x="0.0" xlink:href="#C1_5_81da24dc6b" y="288.0"/>
    </g>
    <g clip-path="url(#p5546cca3e0)">
     <use style="fill:none;stroke:#0000ff;" x="0.0" xlink:href="#C1_6_4c4f6076d3" y="288.0"/>
    </g>
    <g clip-path="url(#p5546cca3e0)">
     <use style="fill:none;stroke:#0000ff;" x="0.0" xlink:href="#C1_7_af19ec8369" y="288.0"/>
    </g>
   </g>
   <g id="LineCollection_3">
    <defs>
     <path d="
M453.382 -188
L453.382 -189.966" id="C2_0_839a420137"/>
     <path d="
M778.739 -179.438
L778.739 -181.317" id="C2_1_b3f2356911"/>
     <path d="
M525.683 -191.985
L525.683 -193.897" id="C2_2_3bc3df4c77"/>
     <path d="
M634.136 -195.909
L634.136 -197.793" id="C2_3_f4f2d7e858"/>
     <path d="
M272.628 -143.045
L272.628 -144.978" id="C2_4_cb4606df8f"/>
     <path d="
M344.93 -162.106
L344.93 -163.992" id="C2_5_59a4534c9b"/>
     <path d="
M164.176 -108.044
L164.176 -109.946" id="C2_6_9f92ac1b48"/>
     <path d="
M706.437 -193.857
L706.437 -195.713" id="C2_7_21bf2d7874"/>
     <path d="
M128.026 -80.0789
L128.026 -82.028" id="C2_8_2484ca5d5d"/>
    </defs>
    <g clip-path="url(#p5546cca3e0)">
     <use style="fill:none;stroke:#ff0000;" x="0.0" xlink:href="#C2_0_839a420137" y="288.0"/>
    </g>
    <g clip-path="url(#p5546cca3e0)">
     <use style="fill:none;stroke:#ff0000;" x="0.0" xlink:href="#C2_1_b3f2356911" y="288.0"/>
    </g>
    <g clip-path="url(#p5546cca3e0)">
     <use style="fill:none;stroke:#ff0000;" x="0.0" xlink:href="#C2_2_3bc3df4c77" y="288.0"/>
    </g>
    <g clip-path="url(#p5546cca3e0)">
     <use style="fill:none;stroke:#ff0000;" x="0.0" xlink:href="#C2_3_f4f2d7e858" y="288.0"/>
    </g>
    <g clip-path="url(#p5546cca3e0)">
     <use style="fill:none;stroke:#ff0000;" x="0.0" xlink:href="#C2_4_cb4606df8f" y="288.0"/>
    </g>
    <g clip-path="url(#p5546cca3e0)">
     <use style="fill:none;stroke:#ff0000;" x="0.0" xlink:href="#C2_5_59a4534c9b" y="288.0"/>
    </g>
    <g clip-path="url(#p5546cca3e0)">
     <use style="fill:none;stroke:#ff0000;" x="0.0" xlink:href="#C2_6_9f92ac1b48" y="288.0"/>
    </g>
    <g clip-path="url(#p5546cca3e0)">
     <use style="fill:none;stroke:#ff0000;" x="0.0" xlink:href="#C2_7_21bf2d7874" y="288.0"/>
    </g>
    <g clip-path="url(#p5546cca3e0)">
     <use style="fill:none;stroke:#ff0000;" x="0.0" xlink:href="#C2_8_2484ca5d5d" y="288.0"/>
    </g>
   </g>
   <g id="line2d_1">
    <defs>
     <path d="
M3 1.83697e-16
L-3 -1.83697e-16" id="m1ef3793437" style="stroke:#008000;stroke-width:0.5;"/>
    </defs>
    <g clip-path="url(#p5546cca3e0)">
     <use style="fill:#008000;stroke:#008000;stroke-width:0.5;" x="128.025511364" xlink:href="#m1ef3793437" y="193.730834496"/>
     <use style="fill:#008000;stroke:#008000;stroke-width:0.5;" x="200.326960227" xlink:href="#m1ef3793437" y="155.230045752"/>
     <use style="fill:#008000;stroke:#008000;stroke-width:0.5;" x="272.628409091" xlink:href="#m1ef3793437" y="128.125333498"/>
     <use style="fill:#008000;stroke:#008000;stroke-width:0.5;" x="453.38203125" xlink:href="#m1ef3793437" y="77.8105271872"/>
     <use style="fill:#008000;stroke:#008000;stroke-width:0.5;" x="525.683480114" xlink:href="#m1ef3793437" y="64.2964946617"/>
     <use style="fill:#008000;stroke:#008000;stroke-width:0.5;" x="634.135653409" xlink:href="#m1ef3793437" y="50.0667179218"/>
     <use style="fill:#008000;stroke:#008000;stroke-width:0.5;" x="344.929857955" xlink:href="#m1ef3793437" y="104.514695859"/>
     <use style="fill:#008000;stroke:#008000;stroke-width:0.5;" x="778.738551136" xlink:href="#m1ef3793437" y="52.8508696953"/>
     <use style="fill:#008000;stroke:#008000;stroke-width:0.5;" x="706.437102273" xlink:href="#m1ef3793437" y="51.070922333"/>
    </g>
   </g>
   <g id="line2d_2">
    <g clip-path="url(#p5546cca3e0)">
     <use style="fill:#008000;stroke:#008000;stroke-width:0.5;" x="128.025511364" xlink:href="#m1ef3793437" y="191.687433584"/>
     <use style="fill:#008000;stroke:#008000;stroke-width:0.5;" x="200.326960227" xlink:href="#m1ef3793437" y="153.242230485"/>
     <use style="fill:#008000;stroke:#008000;stroke-width:0.5;" x="272.628409091" xlink:href="#m1ef3793437" y="126.237873623"/>
     <use style="fill:#008000;stroke:#008000;stroke-width:0.5;" x="453.38203125" xlink:href="#m1ef3793437" y="75.6498353572"/>
     <use style="fill:#008000;stroke:#008000;stroke-width:0.5;" x="525.683480114" xlink:href="#m1ef3793437" y="62.1827139136"/>
     <use style="fill:#008000;stroke:#008000;stroke-width:0.5;" x="634.135653409" xlink:href="#m1ef3793437" y="47.8774358729"/>
     <use style="fill:#008000;stroke:#008000;stroke-width:0.5;" x="344.929857955" xlink:href="#m1ef3793437" y="102.464914934"/>
     <use style="fill:#008000;stroke:#008000;stroke-width:0.5;" x="778.738551136" xlink:href="#m1ef3793437" y="50.652319239"/>
     <use style="fill:#008000;stroke:#008000;stroke-width:0.5;" x="706.437102273" xlink:href="#m1ef3793437" y="48.991679198"/>
    </g>
   </g>
   <g id="line2d_3">
    <defs>
     <path d="
M0 2.5
C0.663008 2.5 1.29895 2.23658 1.76777 1.76777
C2.23658 1.29895 2.5 0.663008 2.5 0
C2.5 -0.663008 2.23658 -1.29895 1.76777 -1.76777
C1.29895 -2.23658 0.663008 -2.5 0 -2.5
C-0.663008 -2.5 -1.29895 -2.23658 -1.76777 -1.76777
C-2.23658 -1.29895 -2.5 -0.663008 -2.5 0
C-2.5 0.663008 -2.23658 1.29895 -1.76777 1.76777
C-1.29895 2.23658 -0.663008 2.5 0 2.5
z
" id="m2a5b102ee3" style="stroke:#000000;stroke-width:0.5;"/>
    </defs>
    <g clip-path="url(#p5546cca3e0)">
     <use style="fill:#00ff00;stroke:#000000;stroke-width:0.5;" x="128.025511364" xlink:href="#m2a5b102ee3" y="192.70913404"/>
     <use style="fill:#00ff00;stroke:#000000;stroke-width:0.5;" x="200.326960227" xlink:href="#m2a5b102ee3" y="154.236138119"/>
     <use style="fill:#00ff00;stroke:#000000;stroke-width:0.5;" x="272.628409091" xlink:href="#m2a5b102ee3" y="127.18160356"/>
     <use style="fill:#00ff00;stroke:#000000;stroke-width:0.5;" x="453.38203125" xlink:href="#m2a5b102ee3" y="76.7301812722"/>
     <use style="fill:#00ff00;stroke:#000000;stroke-width:0.5;" x="525.683480114" xlink:href="#m2a5b102ee3" y="63.2396042876"/>
     <use style="fill:#00ff00;stroke:#000000;stroke-width:0.5;" x="634.135653409" xlink:href="#m2a5b102ee3" y="48.9720768974"/>
     <use style="fill:#00ff00;stroke:#000000;stroke-width:0.5;" x="344.929857955" xlink:href="#m2a5b102ee3" y="103.489805396"/>
     <use style="fill:#00ff00;stroke:#000000;stroke-width:0.5;" x="778.738551136" xlink:href="#m2a5b102ee3" y="51.7515944671"/>
     <use style="fill:#00ff00;stroke:#000000;stroke-width:0.5;" x="706.437102273" xlink:href="#m2a5b102ee3" y="50.0313007655"/>
    </g>
   </g>
   <g id="line2d_4">
    <defs>
     <path d="
M3 1.83697e-16
L-3 -1.83697e-16" id="mdde457ef1d" style="stroke:#0000ff;stroke-width:0.5;"/>
    </defs>
    <g clip-path="url(#p5546cca3e0)">
     <use style="fill:#0000ff;stroke:#0000ff;stroke-width:0.5;" x="525.683480114" xlink:href="#mdde457ef1d" y="69.415280696"/>
     <use style="fill:#0000ff;stroke:#0000ff;stroke-width:0.5;" x="453.38203125" xlink:href="#mdde457ef1d" y="85.5422615037"/>
     <use style="fill:#0000ff;stroke:#0000ff;stroke-width:0.5;" x="706.437102273" xlink:href="#mdde457ef1d" y="79.5449668732"/>
     <use style="fill:#0000ff;stroke:#0000ff;stroke-width:0.5;" x="200.326960227" xlink:href="#mdde457ef1d" y="130.610024737"/>
     <use style="fill:#0000ff;stroke:#0000ff;stroke-width:0.5;" x="128.025511364" xlink:href="#mdde457ef1d" y="166.152297279"/>
     <use style="fill:#0000ff;stroke:#0000ff;stroke-width:0.5;" x="634.135653409" xlink:href="#mdde457ef1d" y="69.0729213891"/>
     <use style="fill:#0000ff;stroke:#0000ff;stroke-width:0.5;" x="272.628409091" xlink:href="#mdde457ef1d" y="115.283908905"/>
     <use style="fill:#0000ff;stroke:#0000ff;stroke-width:0.5;" x="344.929857955" xlink:href="#mdde457ef1d" y="96.4823166736"/>
    </g>
   </g>
   <g id="line2d_5">
    <g clip-path="url(#p5546cca3e0)">
     <use style="fill:#0000ff;stroke:#0000ff;stroke-width:0.5;" x="525.683480114" xlink:href="#mdde457ef1d" y="62.754577968"/>
     <use style="fill:#0000ff;stroke:#0000ff;stroke-width:0.5;" x="453.38203125" xlink:href="#mdde457ef1d" y="81.2005723518"/>
     <use style="fill:#0000ff;stroke:#0000ff;stroke-width:0.5;" x="706.437102273" xlink:href="#mdde457ef1d" y="42.9874855451"/>
     <use style="fill:#0000ff;stroke:#0000ff;stroke-width:0.5;" x="200.326960227" xlink:href="#mdde457ef1d" y="128.370871865"/>
     <use style="fill:#0000ff;stroke:#0000ff;stroke-width:0.5;" x="128.025511364" xlink:href="#mdde457ef1d" y="164.017654219"/>
     <use style="fill:#0000ff;stroke:#0000ff;stroke-width:0.5;" x="634.135653409" xlink:href="#mdde457ef1d" y="47.5595651837"/>
     <use style="fill:#0000ff;stroke:#0000ff;stroke-width:0.5;" x="272.628409091" xlink:href="#mdde457ef1d" y="113.023059271"/>
     <use style="fill:#0000ff;stroke:#0000ff;stroke-width:0.5;" x="344.929857955" xlink:href="#mdde457ef1d" y="93.875685504"/>
    </g>
   </g>
   <g id="line2d_6">
    <defs>
     <path d="
M0 -5
L-5 5
L5 5
z
" id="m225e1ef6c6" style="stroke:#000000;stroke-linejoin:miter;stroke-width:0.5;"/>
    </defs>
    <g clip-path="url(#p5546cca3e0)">
     <use style="fill:#0000ff;stroke:#000000;stroke-linejoin:miter;stroke-width:0.5;" x="525.683480114" xlink:href="#m225e1ef6c6" y="66.084929332"/>
     <use style="fill:#0000ff;stroke:#000000;stroke-linejoin:miter;stroke-width:0.5;" x="453.38203125" xlink:href="#m225e1ef6c6" y="83.3714169278"/>
     <use style="fill:#0000ff;stroke:#000000;stroke-linejoin:miter;stroke-width:0.5;" x="706.437102273" xlink:href="#m225e1ef6c6" y="61.2662262091"/>
     <use style="fill:#0000ff;stroke:#000000;stroke-linejoin:miter;stroke-width:0.5;" x="200.326960227" xlink:href="#m225e1ef6c6" y="129.490448301"/>
     <use style="fill:#0000ff;stroke:#000000;stroke-linejoin:miter;stroke-width:0.5;" x="128.025511364" xlink:href="#m225e1ef6c6" y="165.084975749"/>
     <use style="fill:#0000ff;stroke:#000000;stroke-linejoin:miter;stroke-width:0.5;" x="634.135653409" xlink:href="#m225e1ef6c6" y="58.3162432864"/>
     <use style="fill:#0000ff;stroke:#000000;stroke-linejoin:miter;stroke-width:0.5;" x="272.628409091" xlink:href="#m225e1ef6c6" y="114.153484088"/>
     <use style="fill:#0000ff;stroke:#000000;stroke-linejoin:miter;stroke-width:0.5;" x="344.929857955" xlink:href="#m225e1ef6c6" y="95.1790010888"/>
    </g>
   </g>
   <g id="line2d_7">
    <defs>
     <path d="
M3 1.83697e-16
L-3 -1.83697e-16" id="m12d35e2592" style="stroke:#ff0000;stroke-width:0.5;"/>
    </defs>
    <g clip-path="url(#p5546cca3e0)">
     <use style="fill:#ff0000;stroke:#ff0000;stroke-width:0.5;" x="453.38203125" xlink:href="#m12d35e2592" y="100.000011908"/>
     <use style="fill:#ff0000;stroke:#ff0000;stroke-width:0.5;" x="778.738551136" xlink:href="#m12d35e2592" y="108.561847253"/>
     <use style="fill:#ff0000;stroke:#ff0000;stroke-width:0.5;" x="525.683480114" xlink:href="#m12d35e2592" y="96.0146850296"/>
     <use style="fill:#ff0000;stroke:#ff0000;stroke-width:0.5;" x="634.135653409" xlink:href="#m12d35e2592" y="92.0906011705"/>
     <use style="fill:#ff0000;stroke:#ff0000;stroke-width:0.5;" x="272.628409091" xlink:href="#m12d35e2592" y="144.954886975"/>
     <use style="fill:#ff0000;stroke:#ff0000;stroke-width:0.5;" x="344.929857955" xlink:href="#m12d35e2592" y="125.894255917"/>
     <use style="fill:#ff0000;stroke:#ff0000;stroke-width:0.5;" x="164.176235795" xlink:href="#m12d35e2592" y="179.955638844"/>
     <use style="fill:#ff0000;stroke:#ff0000;stroke-width:0.5;" x="706.437102273" xlink:href="#m12d35e2592" y="94.1428309306"/>
     <use style="fill:#ff0000;stroke:#ff0000;stroke-width:0.5;" x="128.025511364" xlink:href="#m12d35e2592" y="207.921141733"/>
    </g>
   </g>
   <g id="line2d_8">
    <g clip-path="url(#p5546cca3e0)">
     <use style="fill:#ff0000;stroke:#ff0000;stroke-width:0.5;" x="453.38203125" xlink:href="#m12d35e2592" y="98.033984045"/>
     <use style="fill:#ff0000;stroke:#ff0000;stroke-width:0.5;" x="778.738551136" xlink:href="#m12d35e2592" y="106.68337982"/>
     <use style="fill:#ff0000;stroke:#ff0000;stroke-width:0.5;" x="525.683480114" xlink:href="#m12d35e2592" y="94.103296384"/>
     <use style="fill:#ff0000;stroke:#ff0000;stroke-width:0.5;" x="634.135653409" xlink:href="#m12d35e2592" y="90.2069405068"/>
     <use style="fill:#ff0000;stroke:#ff0000;stroke-width:0.5;" x="272.628409091" xlink:href="#m12d35e2592" y="143.021645725"/>
     <use style="fill:#ff0000;stroke:#ff0000;stroke-width:0.5;" x="344.929857955" xlink:href="#m12d35e2592" y="124.007947273"/>
     <use style="fill:#ff0000;stroke:#ff0000;stroke-width:0.5;" x="164.176235795" xlink:href="#m12d35e2592" y="178.054494302"/>
     <use style="fill:#ff0000;stroke:#ff0000;stroke-width:0.5;" x="706.437102273" xlink:href="#m12d35e2592" y="92.2867584666"/>
     <use style="fill:#ff0000;stroke:#ff0000;stroke-width:0.5;" x="128.025511364" xlink:href="#m12d35e2592" y="205.972010233"/>
    </g>
   </g>
   <g id="line2d_9">
    <defs>
     <path d="
M3.06162e-16 -5
L-1.12257 -1.54508
L-4.75528 -1.54508
L-1.81636 0.59017
L-2.93893 4.04508
L-3.5083e-16 1.90983
L2.93893 4.04508
L1.81636 0.59017
L4.75528 -1.54508
L1.12257 -1.54508
z
" id="m46c0476064" style="stroke:#000000;stroke-linejoin:bevel;stroke-width:0.5;"/>
    </defs>
    <g clip-path="url(#p5546cca3e0)">
     <use style="fill:#ff0000;stroke:#000000;stroke-linejoin:bevel;stroke-width:0.5;" x="453.38203125" xlink:href="#m46c0476064" y="99.0169979767"/>
     <use style="fill:#ff0000;stroke:#000000;stroke-linejoin:bevel;stroke-width:0.5;" x="778.738551136" xlink:href="#m46c0476064" y="107.622613536"/>
     <use style="fill:#ff0000;stroke:#000000;stroke-linejoin:bevel;stroke-width:0.5;" x="525.683480114" xlink:href="#m46c0476064" y="95.0589907068"/>
     <use style="fill:#ff0000;stroke:#000000;stroke-linejoin:bevel;stroke-width:0.5;" x="634.135653409" xlink:href="#m46c0476064" y="91.1487708386"/>
     <use style="fill:#ff0000;stroke:#000000;stroke-linejoin:bevel;stroke-width:0.5;" x="272.628409091" xlink:href="#m46c0476064" y="143.98826635"/>
     <use style="fill:#ff0000;stroke:#000000;stroke-linejoin:bevel;stroke-width:0.5;" x="344.929857955" xlink:href="#m46c0476064" y="124.951101595"/>
     <use style="fill:#ff0000;stroke:#000000;stroke-linejoin:bevel;stroke-width:0.5;" x="164.176235795" xlink:href="#m46c0476064" y="179.005066573"/>
     <use style="fill:#ff0000;stroke:#000000;stroke-linejoin:bevel;stroke-width:0.5;" x="706.437102273" xlink:href="#m46c0476064" y="93.2147946986"/>
     <use style="fill:#ff0000;stroke:#000000;stroke-linejoin:bevel;stroke-width:0.5;" x="128.025511364" xlink:href="#m46c0476064" y="206.946575983"/>
    </g>
   </g>
   <g id="matplotlib.axis_1">
    <g id="xtick_1">
     <g id="line2d_10">
      <defs>
       <path d="
M0 0
L0 -4" id="m93b0483c22" style="stroke:#000000;stroke-width:0.5;"/>
      </defs>
      <g>
       <use style="stroke:#000000;stroke-width:0.5;" x="91.8747869318" xlink:href="#m93b0483c22" y="240.84"/>
      </g>
     </g>
     <g id="line2d_11">
      <defs>
       <path d="
M0 0
L0 4" id="m741efc42ff" style="stroke:#000000;stroke-width:0.5;"/>
      </defs>
      <g>
       <use style="stroke:#000000;stroke-width:0.5;" x="91.8747869318" xlink:href="#m741efc42ff" y="19.26"/>
      </g>
     </g>
     <g id="text_1">
      <!-- 0 -->
      <defs>
       <path d="
M31.7812 66.4062
Q24.1719 66.4062 20.3281 58.9062
Q16.5 51.4219 16.5 36.375
Q16.5 21.3906 20.3281 13.8906
Q24.1719 6.39062 31.7812 6.39062
Q39.4531 6.39062 43.2812 13.8906
Q47.125 21.3906 47.125 36.375
Q47.125 51.4219 43.2812 58.9062
Q39.4531 66.4062 31.7812 66.4062
M31.7812 74.2188
Q44.0469 74.2188 50.5156 64.5156
Q56.9844 54.8281 56.9844 36.375
Q56.9844 17.9688 50.5156 8.26562
Q44.0469 -1.42188 31.7812 -1.42188
Q19.5312 -1.42188 13.0625 8.26562
Q6.59375 17.9688 6.59375 36.375
Q6.59375 54.8281 13.0625 64.5156
Q19.5312 74.2188 31.7812 74.2188" id="DejaVuSans-30"/>
      </defs>
      <g transform="translate(88.8513494318 253.958125)scale(0.12 -0.12)">
       <use xlink:href="#DejaVuSans-30"/>
      </g>
     </g>
    </g>
    <g id="xtick_2">
     <g id="line2d_12">
      <g>
       <use style="stroke:#000000;stroke-width:0.5;" x="272.628409091" xlink:href="#m93b0483c22" y="240.84"/>
      </g>
     </g>
     <g id="line2d_13">
      <g>
       <use style="stroke:#000000;stroke-width:0.5;" x="272.628409091" xlink:href="#m741efc42ff" y="19.26"/>
      </g>
     </g>
     <g id="text_2">
      <!-- 5 -->
      <defs>
       <path d="
M10.7969 72.9062
L49.5156 72.9062
L49.5156 64.5938
L19.8281 64.5938
L19.8281 46.7344
Q21.9688 47.4688 24.1094 47.8281
Q26.2656 48.1875 28.4219 48.1875
Q40.625 48.1875 47.75 41.5
Q54.8906 34.8125 54.8906 23.3906
Q54.8906 11.625 47.5625 5.09375
Q40.2344 -1.42188 26.9062 -1.42188
Q22.3125 -1.42188 17.5469 -0.640625
Q12.7969 0.140625 7.71875 1.70312
L7.71875 11.625
Q12.1094 9.23438 16.7969 8.0625
Q21.4844 6.89062 26.7031 6.89062
Q35.1562 6.89062 40.0781 11.3281
Q45.0156 15.7656 45.0156 23.3906
Q45.0156 31 40.0781 35.4375
Q35.1562 39.8906 26.7031 39.8906
Q22.75 39.8906 18.8125 39.0156
Q14.8906 38.1406 10.7969 36.2812
z
" id="DejaVuSans-35"/>
      </defs>
      <g transform="translate(269.798096591 253.958125)scale(0.12 -0.12)">
       <use xlink:href="#DejaVuSans-35"/>
      </g>
     </g>
    </g>
    <g id="xtick_3">
     <g id="line2d_14">
      <g>
       <use style="stroke:#000000;stroke-width:0.5;" x="453.38203125" xlink:href="#m93b0483c22" y="240.84"/>
      </g>
     </g>
     <g id="line2d_15">
      <g>
       <use style="stroke:#000000;stroke-width:0.5;" x="453.38203125" xlink:href="#m741efc42ff" y="19.26"/>
      </g>
     </g>
     <g id="text_3">
      <!-- 10 -->
      <defs>
       <path d="
M12.4062 8.29688
L28.5156 8.29688
L28.5156 63.9219
L10.9844 60.4062
L10.9844 69.3906
L28.4219 72.9062
L38.2812 72.9062
L38.2812 8.29688
L54.3906 8.29688
L54.3906 0
L12.4062 0
z
" id="DejaVuSans-31"/>
      </defs>
      <g transform="translate(446.80453125 253.958125)scale(0.12 -0.12)">
       <use xlink:href="#DejaVuSans-31"/>
       <use x="63.623046875" xlink:href="#DejaVuSans-30"/>
      </g>
     </g>
    </g>
    <g id="xtick_4">
     <g id="line2d_16">
      <g>
       <use style="stroke:#000000;stroke-width:0.5;" x="634.135653409" xlink:href="#m93b0483c22" y="240.84"/>
      </g>
     </g>
     <g id="line2d_17">
      <g>
       <use style="stroke:#000000;stroke-width:0.5;" x="634.135653409" xlink:href="#m741efc42ff" y="19.26"/>
      </g>
     </g>
     <g id="text_4">
      <!-- 15 -->
      <g transform="translate(627.683778409 253.958125)scale(0.12 -0.12)">
       <use xlink:href="#DejaVuSans-31"/>
       <use x="63.623046875" xlink:href="#DejaVuSans-35"/>
      </g>
     </g>
    </g>
    <g id="xtick_5">
     <g id="line2d_18">
      <g>
       <use style="stroke:#000000;stroke-width:0.5;" x="814.889275568" xlink:href="#m93b0483c22" y="240.84"/>
      </g>
     </g>
     <g id="line2d_19">
      <g>
       <use style="stroke:#000000;stroke-width:0.5;" x="814.889275568" xlink:href="#m741efc42ff" y="19.26"/>
      </g>
     </g>
     <g id="text_5">
      <!-- 20 -->
      <defs>
       <path d="
M19.1875 8.29688
L53.6094 8.29688
L53.6094 0
L7.32812 0
L7.32812 8.29688
Q12.9375 14.1094 22.625 23.8906
Q32.3281 33.6875 34.8125 36.5312
Q39.5469 41.8438 41.4219 45.5312
Q43.3125 49.2188 43.3125 52.7812
Q43.3125 58.5938 39.2344 62.25
Q35.1562 65.9219 28.6094 65.9219
Q23.9688 65.9219 18.8125 64.3125
Q13.6719 62.7031 7.8125 59.4219
L7.8125 69.3906
Q13.7656 71.7812 18.9375 73
Q24.125 74.2188 28.4219 74.2188
Q39.75 74.2188 46.4844 68.5469
Q53.2188 62.8906 53.2188 53.4219
Q53.2188 48.9219 51.5312 44.8906
Q49.8594 40.875 45.4062 35.4062
Q44.1875 33.9844 37.6406 27.2188
Q31.1094 20.4531 19.1875 8.29688" id="DejaVuSans-32"/>
      </defs>
      <g transform="translate(808.092400568 253.958125)scale(0.12 -0.12)">
       <use xlink:href="#DejaVuSans-32"/>
       <use x="63.623046875" xlink:href="#DejaVuSans-30"/>
      </g>
     </g>
    </g>
    <g id="text_6">
     <!-- Depth of Interaction (mm) -->
     <defs>
      <path d="
M8.01562 75.875
L15.8281 75.875
Q23.1406 64.3594 26.7812 53.3125
Q30.4219 42.2812 30.4219 31.3906
Q30.4219 20.4531 26.7812 9.375
Q23.1406 -1.70312 15.8281 -13.1875
L8.01562 -13.1875
Q14.5 -2 17.7031 9.0625
Q20.9062 20.125 20.9062 31.3906
Q20.9062 42.6719 17.7031 53.6562
Q14.5 64.6562 8.01562 75.875" id="DejaVuSans-29"/>
      <path d="
M30.6094 48.3906
Q23.3906 48.3906 19.1875 42.75
Q14.9844 37.1094 14.9844 27.2969
Q14.9844 17.4844 19.1562 11.8438
Q23.3438 6.20312 30.6094 6.20312
Q37.7969 6.20312 41.9844 11.8594
Q46.1875 17.5312 46.1875 27.2969
Q46.1875 37.0156 41.9844 42.7031
Q37.7969 48.3906 30.6094 48.3906
M30.6094 56
Q42.3281 56 49.0156 48.375
Q55.7188 40.7656 55.7188 27.2969
Q55.7188 13.875 49.0156 6.21875
Q42.3281 -1.42188 30.6094 -1.42188
Q18.8438 -1.42188 12.1719 6.21875
Q5.51562 13.875 5.51562 27.2969
Q5.51562 40.7656 12.1719 48.375
Q18.8438 56 30.6094 56" id="DejaVuSans-6f"/>
      <path d="
M52 44.1875
Q55.375 50.25 60.0625 53.125
Q64.75 56 71.0938 56
Q79.6406 56 84.2812 50.0156
Q88.9219 44.0469 88.9219 33.0156
L88.9219 0
L79.8906 0
L79.8906 32.7188
Q79.8906 40.5781 77.0938 44.375
Q74.3125 48.1875 68.6094 48.1875
Q61.625 48.1875 57.5625 43.5469
Q53.5156 38.9219 53.5156 30.9062
L53.5156 0
L44.4844 0
L44.4844 32.7188
Q44.4844 40.625 41.7031 44.4062
Q38.9219 48.1875 33.1094 48.1875
Q26.2188 48.1875 22.1562 43.5312
Q18.1094 38.875 18.1094 30.9062
L18.1094 0
L9.07812 0
L9.07812 54.6875
L18.1094 54.6875
L18.1094 46.1875
Q21.1875 51.2188 25.4844 53.6094
Q29.7812 56 35.6875 56
Q41.6562 56 45.8281 52.9688
Q50 49.9531 52 44.1875" id="DejaVuSans-6d"/>
      <path d="
M54.8906 33.0156
L54.8906 0
L45.9062 0
L45.9062 32.7188
Q45.9062 40.4844 42.875 44.3281
Q39.8438 48.1875 33.7969 48.1875
Q26.5156 48.1875 22.3125 43.5469
Q18.1094 38.9219 18.1094 30.9062
L18.1094 0
L9.07812 0
L9.07812 54.6875
L18.1094 54.6875
L18.1094 46.1875
Q21.3438 51.125 25.7031 53.5625
Q30.0781 56 35.7969 56
Q45.2188 56 50.0469 50.1719
Q54.8906 44.3438 54.8906 33.0156" id="DejaVuSans-6e"/>
      <path d="
M34.2812 27.4844
Q23.3906 27.4844 19.1875 25
Q14.9844 22.5156 14.9844 16.5
Q14.9844 11.7188 18.1406 8.90625
Q21.2969 6.10938 26.7031 6.10938
Q34.1875 6.10938 38.7031 11.4062
Q43.2188 16.7031 43.2188 25.4844
L43.2188 27.4844
z

M52.2031 31.2031
L52.2031 0
L43.2188 0
L43.2188 8.29688
Q40.1406 3.32812 35.5469 0.953125
Q30.9531 -1.42188 24.3125 -1.42188
Q15.9219 -1.42188 10.9531 3.29688
Q6 8.01562 6 15.9219
Q6 25.1406 12.1719 29.8281
Q18.3594 34.5156 30.6094 34.5156
L43.2188 34.5156
L43.2188 35.4062
Q43.2188 41.6094 39.1406 45
Q35.0625 48.3906 27.6875 48.3906
Q23 48.3906 18.5469 47.2656
Q14.1094 46.1406 10.0156 43.8906
L10.0156 52.2031
Q14.9375 54.1094 19.5781 55.0469
Q24.2188 56 28.6094 56
Q40.4844 56 46.3438 49.8438
Q52.2031 43.7031 52.2031 31.2031" id="DejaVuSans-61"/>
      <path d="
M9.8125 72.9062
L19.6719 72.9062
L19.6719 0
L9.8125 0
z
" id="DejaVuSans-49"/>
      <path d="
M19.6719 64.7969
L19.6719 8.10938
L31.5938 8.10938
Q46.6875 8.10938 53.6875 14.9375
Q60.6875 21.7812 60.6875 36.5312
Q60.6875 51.1719 53.6875 57.9844
Q46.6875 64.7969 31.5938 64.7969
z

M9.8125 72.9062
L30.0781 72.9062
Q51.2656 72.9062 61.1719 64.0938
Q71.0938 55.2812 71.0938 36.5312
Q71.0938 17.6719 61.125 8.82812
Q51.1719 0 30.0781 0
L9.8125 0
z
" id="DejaVuSans-44"/>
      <path d="
M48.7812 52.5938
L48.7812 44.1875
Q44.9688 46.2969 41.1406 47.3438
Q37.3125 48.3906 33.4062 48.3906
Q24.6562 48.3906 19.8125 42.8438
Q14.9844 37.3125 14.9844 27.2969
Q14.9844 17.2812 19.8125 11.7344
Q24.6562 6.20312 33.4062 6.20312
Q37.3125 6.20312 41.1406 7.25
Q44.9688 8.29688 48.7812 10.4062
L48.7812 2.09375
Q45.0156 0.34375 40.9844 -0.53125
Q36.9688 -1.42188 32.4219 -1.42188
Q20.0625 -1.42188 12.7812 6.34375
Q5.51562 14.1094 5.51562 27.2969
Q5.51562 40.6719 12.8594 48.3281
Q20.2188 56 33.0156 56
Q37.1562 56 41.1094 55.1406
Q45.0625 54.2969 48.7812 52.5938" id="DejaVuSans-63"/>
      <path id="DejaVuSans-20"/>
      <path d="
M54.8906 33.0156
L54.8906 0
L45.9062 0
L45.9062 32.7188
Q45.9062 40.4844 42.875 44.3281
Q39.8438 48.1875 33.7969 48.1875
Q26.5156 48.1875 22.3125 43.5469
Q18.1094 38.9219 18.1094 30.9062
L18.1094 0
L9.07812 0
L9.07812 75.9844
L18.1094 75.9844
L18.1094 46.1875
Q21.3438 51.125 25.7031 53.5625
Q30.0781 56 35.7969 56
Q45.2188 56 50.0469 50.1719
Q54.8906 44.3438 54.8906 33.0156" id="DejaVuSans-68"/>
      <path d="
M9.42188 54.6875
L18.4062 54.6875
L18.4062 0
L9.42188 0
z

M9.42188 75.9844
L18.4062 75.9844
L18.4062 64.5938
L9.42188 64.5938
z
" id="DejaVuSans-69"/>
      <path d="
M37.1094 75.9844
L37.1094 68.5
L28.5156 68.5
Q23.6875 68.5 21.7969 66.5469
Q19.9219 64.5938 19.9219 59.5156
L19.9219 54.6875
L34.7188 54.6875
L34.7188 47.7031
L19.9219 47.7031
L19.9219 0
L10.8906 0
L10.8906 47.7031
L2.29688 47.7031
L2.29688 54.6875
L10.8906 54.6875
L10.8906 58.5
Q10.8906 67.625 15.1406 71.7969
Q19.3906 75.9844 28.6094 75.9844
z
" id="DejaVuSans-66"/>
      <path d="
M18.3125 70.2188
L18.3125 54.6875
L36.8125 54.6875
L36.8125 47.7031
L18.3125 47.7031
L18.3125 18.0156
Q18.3125 11.3281 20.1406 9.42188
Q21.9688 7.51562 27.5938 7.51562
L36.8125 7.51562
L36.8125 0
L27.5938 0
Q17.1875 0 13.2344 3.875
Q9.28125 7.76562 9.28125 18.0156
L9.28125 47.7031
L2.6875 47.7031
L2.6875 54.6875
L9.28125 54.6875
L9.28125 70.2188
z
" id="DejaVuSans-74"/>
      <path d="
M31 75.875
Q24.4688 64.6562 21.2812 53.6562
Q18.1094 42.6719 18.1094 31.3906
Q18.1094 20.125 21.3125 9.0625
Q24.5156 -2 31 -13.1875
L23.1875 -13.1875
Q15.875 -1.70312 12.2344 9.375
Q8.59375 20.4531 8.59375 31.3906
Q8.59375 42.2812 12.2031 53.3125
Q15.8281 64.3594 23.1875 75.875
z
" id="DejaVuSans-28"/>
      <path d="
M56.2031 29.5938
L56.2031 25.2031
L14.8906 25.2031
Q15.4844 15.9219 20.4844 11.0625
Q25.4844 6.20312 34.4219 6.20312
Q39.5938 6.20312 44.4531 7.46875
Q49.3125 8.73438 54.1094 11.2812
L54.1094 2.78125
Q49.2656 0.734375 44.1875 -0.34375
Q39.1094 -1.42188 33.8906 -1.42188
Q20.7969 -1.42188 13.1562 6.1875
Q5.51562 13.8125 5.51562 26.8125
Q5.51562 40.2344 12.7656 48.1094
Q20.0156 56 32.3281 56
Q43.3594 56 49.7812 48.8906
Q56.2031 41.7969 56.2031 29.5938
M47.2188 32.2344
Q47.125 39.5938 43.0938 43.9844
Q39.0625 48.3906 32.4219 48.3906
Q24.9062 48.3906 20.3906 44.1406
Q15.875 39.8906 15.1875 32.1719
z
" id="DejaVuSans-65"/>
      <path d="
M18.1094 8.20312
L18.1094 -20.7969
L9.07812 -20.7969
L9.07812 54.6875
L18.1094 54.6875
L18.1094 46.3906
Q20.9531 51.2656 25.2656 53.625
Q29.5938 56 35.5938 56
Q45.5625 56 51.7812 48.0938
Q58.0156 40.1875 58.0156 27.2969
Q58.0156 14.4062 51.7812 6.48438
Q45.5625 -1.42188 35.5938 -1.42188
Q29.5938 -1.42188 25.2656 0.953125
Q20.9531 3.32812 18.1094 8.20312
M48.6875 27.2969
Q48.6875 37.2031 44.6094 42.8438
Q40.5312 48.4844 33.4062 48.4844
Q26.2656 48.4844 22.1875 42.8438
Q18.1094 37.2031 18.1094 27.2969
Q18.1094 17.3906 22.1875 11.75
Q26.2656 6.10938 33.4062 6.10938
Q40.5312 6.10938 44.6094 11.75
Q48.6875 17.3906 48.6875 27.2969" id="DejaVuSans-70"/>
      <path d="
M41.1094 46.2969
Q39.5938 47.1719 37.8125 47.5781
Q36.0312 48 33.8906 48
Q26.2656 48 22.1875 43.0469
Q18.1094 38.0938 18.1094 28.8125
L18.1094 0
L9.07812 0
L9.07812 54.6875
L18.1094 54.6875
L18.1094 46.1875
Q20.9531 51.1719 25.4844 53.5781
Q30.0312 56 36.5312 56
Q37.4531 56 38.5781 55.875
Q39.7031 55.7656 41.0625 55.5156
z
" id="DejaVuSans-72"/>
     </defs>
     <g transform="translate(375.19546875 270.571875)scale(0.12 -0.12)">
      <use xlink:href="#DejaVuSans-44"/>
      <use x="77.001953125" xlink:href="#DejaVuSans-65"/>
      <use x="138.525390625" xlink:href="#DejaVuSans-70"/>
      <use x="202.001953125" xlink:href="#DejaVuSans-74"/>
      <use x="241.2109375" xlink:href="#DejaVuSans-68"/>
      <use x="304.58984375" xlink:href="#DejaVuSans-20"/>
      <use x="336.376953125" xlink:href="#DejaVuSans-6f"/>
      <use x="397.55859375" xlink:href="#DejaVuSans-66"/>
      <use x="432.763671875" xlink:href="#DejaVuSans-20"/>
      <use x="464.55078125" xlink:href="#DejaVuSans-49"/>
      <use x="494.04296875" xlink:href="#DejaVuSans-6e"/>
      <use x="557.421875" xlink:href="#DejaVuSans-74"/>
      <use x="596.630859375" xlink:href="#DejaVuSans-65"/>
      <use x="658.154296875" xlink:href="#DejaVuSans-72"/>
      <use x="699.267578125" xlink:href="#DejaVuSans-61"/>
      <use x="760.546875" xlink:href="#DejaVuSans-63"/>
      <use x="815.52734375" xlink:href="#DejaVuSans-74"/>
      <use x="854.736328125" xlink:href="#DejaVuSans-69"/>
      <use x="882.51953125" xlink:href="#DejaVuSans-6f"/>
      <use x="943.701171875" xlink:href="#DejaVuSans-6e"/>
      <use x="1007.08007812" xlink:href="#DejaVuSans-20"/>
      <use x="1038.8671875" xlink:href="#DejaVuSans-28"/>
      <use x="1077.88085938" xlink:href="#DejaVuSans-6d"/>
      <use x="1175.29296875" xlink:href="#DejaVuSans-6d"/>
      <use x="1272.70507812" xlink:href="#DejaVuSans-29"/>
     </g>
    </g>
   </g>
   <g id="matplotlib.axis_2">
    <g id="ytick_1">
     <g id="line2d_20">
      <defs>
       <path d="
M0 0
L4 0" id="m728421d6d4" style="stroke:#000000;stroke-width:0.5;"/>
      </defs>
      <g>
       <use style="stroke:#000000;stroke-width:0.5;" x="55.7240625" xlink:href="#m728421d6d4" y="240.84"/>
      </g>
     </g>
     <g id="line2d_21">
      <defs>
       <path d="
M0 0
L-4 0" id="mcb0005524f" style="stroke:#000000;stroke-width:0.5;"/>
      </defs>
      <g>
       <use style="stroke:#000000;stroke-width:0.5;" x="851.04" xlink:href="#mcb0005524f" y="240.84"/>
      </g>
     </g>
     <g id="text_7">
      <!-- 0 -->
      <g transform="translate(45.6771875 244.15125)scale(0.12 -0.12)">
       <use xlink:href="#DejaVuSans-30"/>
      </g>
     </g>
    </g>
    <g id="ytick_2">
     <g id="line2d_22">
      <g>
       <use style="stroke:#000000;stroke-width:0.5;" x="55.7240625" xlink:href="#m728421d6d4" y="196.524"/>
      </g>
     </g>
     <g id="line2d_23">
      <g>
       <use style="stroke:#000000;stroke-width:0.5;" x="851.04" xlink:href="#mcb0005524f" y="196.524"/>
      </g>
     </g>
     <g id="text_8">
      <!-- 50 -->
      <g transform="translate(38.1771875 199.83525)scale(0.12 -0.12)">
       <use xlink:href="#DejaVuSans-35"/>
       <use x="63.623046875" xlink:href="#DejaVuSans-30"/>
      </g>
     </g>
    </g>
    <g id="ytick_3">
     <g id="line2d_24">
      <g>
       <use style="stroke:#000000;stroke-width:0.5;" x="55.7240625" xlink:href="#m728421d6d4" y="152.208"/>
      </g>
     </g>
     <g id="line2d_25">
      <g>
       <use style="stroke:#000000;stroke-width:0.5;" x="851.04" xlink:href="#mcb0005524f" y="152.208"/>
      </g>
     </g>
     <g id="text_9">
      <!-- 100 -->
      <g transform="translate(30.9340625 155.51925)scale(0.12 -0.12)">
       <use xlink:href="#DejaVuSans-31"/>
       <use x="63.623046875" xlink:href="#DejaVuSans-30"/>
       <use x="127.24609375" xlink:href="#DejaVuSans-30"/>
      </g>
     </g>
    </g>
    <g id="ytick_4">
     <g id="line2d_26">
      <g>
       <use style="stroke:#000000;stroke-width:0.5;" x="55.7240625" xlink:href="#m728421d6d4" y="107.892"/>
      </g>
     </g>
     <g id="line2d_27">
      <g>
       <use style="stroke:#000000;stroke-width:0.5;" x="851.04" xlink:href="#mcb0005524f" y="107.892"/>
      </g>
     </g>
     <g id="text_10">
      <!-- 150 -->
      <g transform="translate(30.9340625 111.20325)scale(0.12 -0.12)">
       <use xlink:href="#DejaVuSans-31"/>
       <use x="63.623046875" xlink:href="#DejaVuSans-35"/>
       <use x="127.24609375" xlink:href="#DejaVuSans-30"/>
      </g>
     </g>
    </g>
    <g id="ytick_5">
     <g id="line2d_28">
      <g>
       <use style="stroke:#000000;stroke-width:0.5;" x="55.7240625" xlink:href="#m728421d6d4" y="63.576"/>
      </g>
     </g>
     <g id="line2d_29">
      <g>
       <use style="stroke:#000000;stroke-width:0.5;" x="851.04" xlink:href="#mcb0005524f" y="63.576"/>
      </g>
     </g>
     <g id="text_11">
      <!-- 200 -->
      <g transform="translate(30.4953125 66.88725)scale(0.12 -0.12)">
       <use xlink:href="#DejaVuSans-32"/>
       <use x="63.623046875" xlink:href="#DejaVuSans-30"/>
       <use x="127.24609375" xlink:href="#DejaVuSans-30"/>
      </g>
     </g>
    </g>
    <g id="ytick_6">
     <g id="line2d_30">
      <g>
       <use style="stroke:#000000;stroke-width:0.5;" x="55.7240625" xlink:href="#m728421d6d4" y="19.26"/>
      </g>
     </g>
     <g id="line2d_31">
      <g>
       <use style="stroke:#000000;stroke-width:0.5;" x="851.04" xlink:href="#mcb0005524f" y="19.26"/>
      </g>
     </g>
     <g id="text_12">
      <!-- 250 -->
      <g transform="translate(30.4953125 22.57125)scale(0.12 -0.12)">
       <use xlink:href="#DejaVuSans-32"/>
       <use x="63.623046875" xlink:href="#DejaVuSans-35"/>
       <use x="127.24609375" xlink:href="#DejaVuSans-30"/>
      </g>
     </g>
    </g>
    <g id="text_13">
     <!-- Delay Peak Centroid (ps) -->
     <defs>
      <path d="
M9.07812 75.9844
L18.1094 75.9844
L18.1094 31.1094
L44.9219 54.6875
L56.3906 54.6875
L27.3906 29.1094
L57.625 0
L45.9062 0
L18.1094 26.7031
L18.1094 0
L9.07812 0
z
" id="DejaVuSans-6b"/>
      <path d="
M9.42188 75.9844
L18.4062 75.9844
L18.4062 0
L9.42188 0
z
" id="DejaVuSans-6c"/>
      <path d="
M32.1719 -5.07812
Q28.375 -14.8438 24.75 -17.8125
Q21.1406 -20.7969 15.0938 -20.7969
L7.90625 -20.7969
L7.90625 -13.2812
L13.1875 -13.2812
Q16.8906 -13.2812 18.9375 -11.5156
Q21 -9.76562 23.4844 -3.21875
L25.0938 0.875
L2.98438 54.6875
L12.5 54.6875
L29.5938 11.9219
L46.6875 54.6875
L56.2031 54.6875
z
" id="DejaVuSans-79"/>
      <path d="
M64.4062 67.2812
L64.4062 56.8906
Q59.4219 61.5312 53.7812 63.8125
Q48.1406 66.1094 41.7969 66.1094
Q29.2969 66.1094 22.6562 58.4688
Q16.0156 50.8281 16.0156 36.375
Q16.0156 21.9688 22.6562 14.3281
Q29.2969 6.6875 41.7969 6.6875
Q48.1406 6.6875 53.7812 8.98438
Q59.4219 11.2812 64.4062 15.9219
L64.4062 5.60938
Q59.2344 2.09375 53.4375 0.328125
Q47.6562 -1.42188 41.2188 -1.42188
Q24.6562 -1.42188 15.125 8.70312
Q5.60938 18.8438 5.60938 36.375
Q5.60938 53.9531 15.125 64.0781
Q24.6562 74.2188 41.2188 74.2188
Q47.75 74.2188 53.5312 72.4844
Q59.3281 70.75 64.4062 67.2812" id="DejaVuSans-43"/>
      <path d="
M45.4062 46.3906
L45.4062 75.9844
L54.3906 75.9844
L54.3906 0
L45.4062 0
L45.4062 8.20312
Q42.5781 3.32812 38.25 0.953125
Q33.9375 -1.42188 27.875 -1.42188
Q17.9688 -1.42188 11.7344 6.48438
Q5.51562 14.4062 5.51562 27.2969
Q5.51562 40.1875 11.7344 48.0938
Q17.9688 56 27.875 56
Q33.9375 56 38.25 53.625
Q42.5781 51.2656 45.4062 46.3906
M14.7969 27.2969
Q14.7969 17.3906 18.875 11.75
Q22.9531 6.10938 30.0781 6.10938
Q37.2031 6.10938 41.2969 11.75
Q45.4062 17.3906 45.4062 27.2969
Q45.4062 37.2031 41.2969 42.8438
Q37.2031 48.4844 30.0781 48.4844
Q22.9531 48.4844 18.875 42.8438
Q14.7969 37.2031 14.7969 27.2969" id="DejaVuSans-64"/>
      <path d="
M19.6719 64.7969
L19.6719 37.4062
L32.0781 37.4062
Q38.9688 37.4062 42.7188 40.9688
Q46.4844 44.5312 46.4844 51.125
Q46.4844 57.6719 42.7188 61.2344
Q38.9688 64.7969 32.0781 64.7969
z

M9.8125 72.9062
L32.0781 72.9062
Q44.3438 72.9062 50.6094 67.3594
Q56.8906 61.8125 56.8906 51.125
Q56.8906 40.3281 50.6094 34.8125
Q44.3438 29.2969 32.0781 29.2969
L19.6719 29.2969
L19.6719 0
L9.8125 0
z
" id="DejaVuSans-50"/>
      <path d="
M44.2812 53.0781
L44.2812 44.5781
Q40.4844 46.5312 36.375 47.5
Q32.2812 48.4844 27.875 48.4844
Q21.1875 48.4844 17.8438 46.4375
Q14.5 44.3906 14.5 40.2812
Q14.5 37.1562 16.8906 35.375
Q19.2812 33.5938 26.5156 31.9844
L29.5938 31.2969
Q39.1562 29.25 43.1875 25.5156
Q47.2188 21.7812 47.2188 15.0938
Q47.2188 7.46875 41.1875 3.01562
Q35.1562 -1.42188 24.6094 -1.42188
Q20.2188 -1.42188 15.4531 -0.5625
Q10.6875 0.296875 5.42188 2
L5.42188 11.2812
Q10.4062 8.6875 15.2344 7.39062
Q20.0625 6.10938 24.8125 6.10938
Q31.1562 6.10938 34.5625 8.28125
Q37.9844 10.4531 37.9844 14.4062
Q37.9844 18.0625 35.5156 20.0156
Q33.0625 21.9688 24.7031 23.7812
L21.5781 24.5156
Q13.2344 26.2656 9.51562 29.9062
Q5.8125 33.5469 5.8125 39.8906
Q5.8125 47.6094 11.2812 51.7969
Q16.75 56 26.8125 56
Q31.7812 56 36.1719 55.2656
Q40.5781 54.5469 44.2812 53.0781" id="DejaVuSans-73"/>
     </defs>
     <g transform="translate(22.9996875 203.836875)rotate(-90.0)scale(0.12 -0.12)">
      <use xlink:href="#DejaVuSans-44"/>
      <use x="77.001953125" xlink:href="#DejaVuSans-65"/>
      <use x="138.525390625" xlink:href="#DejaVuSans-6c"/>
      <use x="166.30859375" xlink:href="#DejaVuSans-61"/>
      <use x="227.587890625" xlink:href="#DejaVuSans-79"/>
      <use x="286.767578125" xlink:href="#DejaVuSans-20"/>
      <use x="318.5546875" xlink:href="#DejaVuSans-50"/>
      <use x="375.232421875" xlink:href="#DejaVuSans-65"/>
      <use x="436.755859375" xlink:href="#DejaVuSans-61"/>
      <use x="498.03515625" xlink:href="#DejaVuSans-6b"/>
      <use x="555.9453125" xlink:href="#DejaVuSans-20"/>
      <use x="587.732421875" xlink:href="#DejaVuSans-43"/>
      <use x="657.556640625" xlink:href="#DejaVuSans-65"/>
      <use x="719.080078125" xlink:href="#DejaVuSans-6e"/>
      <use x="782.458984375" xlink:href="#DejaVuSans-74"/>
      <use x="821.66796875" xlink:href="#DejaVuSans-72"/>
      <use x="860.53125" xlink:href="#DejaVuSans-6f"/>
      <use x="921.712890625" xlink:href="#DejaVuSans-69"/>
      <use x="949.49609375" xlink:href="#DejaVuSans-64"/>
      <use x="1012.97265625" xlink:href="#DejaVuSans-20"/>
      <use x="1044.75976562" xlink:href="#DejaVuSans-28"/>
      <use x="1083.7734375" xlink:href="#DejaVuSans-70"/>
      <use x="1147.25" xlink:href="#DejaVuSans-73"/>
      <use x="1199.34960938" xlink:href="#DejaVuSans-29"/>
     </g>
    </g>
   </g>
   <g id="patch_3">
    <path d="
M55.7241 19.26
L851.04 19.26" style="fill:none;stroke:#000000;"/>
   </g>
   <g id="patch_4">
    <path d="
M851.04 240.84
L851.04 19.26" style="fill:none;stroke:#000000;"/>
   </g>
   <g id="patch_5">
    <path d="
M55.7241 240.84
L851.04 240.84" style="fill:none;stroke:#000000;"/>
   </g>
   <g id="patch_6">
    <path d="
M55.7241 240.84
L55.7241 19.26" style="fill:none;stroke:#000000;"/>
   </g>
   <g id="legend_1">
    <g id="patch_7">
     <path d="
M62.9241 51.9165
L521.407 51.9165
L521.407 26.46
L62.9241 26.46
L62.9241 51.9165
z
" style="fill:#ffffff;stroke:#000000;"/>
    </g>
    <g id="LineCollection_4">
     <defs>
      <path d="
M73.0041 -242.678
L73.0041 -257.078" id="C3_0_40df88753c"/>
      <path d="
M93.1641 -242.678
L93.1641 -257.078" id="C3_1_de71e2ba33"/>
     </defs>
     <use style="fill:none;stroke:#008000;" x="0.0" xlink:href="#C3_0_40df88753c" y="288.0"/>
     <use style="fill:none;stroke:#008000;" x="0.0" xlink:href="#C3_1_de71e2ba33" y="288.0"/>
    </g>
    <g id="line2d_32">
     <g>
      <use style="fill:#008000;stroke:#008000;stroke-width:0.5;" x="73.0040625" xlink:href="#m1ef3793437" y="45.32175"/>
      <use style="fill:#008000;stroke:#008000;stroke-width:0.5;" x="93.1640625" xlink:href="#m1ef3793437" y="45.32175"/>
     </g>
    </g>
    <g id="line2d_33">
     <g>
      <use style="fill:#008000;stroke:#008000;stroke-width:0.5;" x="73.0040625" xlink:href="#m1ef3793437" y="30.92175"/>
      <use style="fill:#008000;stroke:#008000;stroke-width:0.5;" x="93.1640625" xlink:href="#m1ef3793437" y="30.92175"/>
     </g>
    </g>
    <g id="line2d_34"/>
    <g id="line2d_35">
     <g>
      <use style="fill:#00ff00;stroke:#000000;stroke-width:0.5;" x="73.0040625" xlink:href="#m2a5b102ee3" y="38.12175"/>
      <use style="fill:#00ff00;stroke:#000000;stroke-width:0.5;" x="93.1640625" xlink:href="#m2a5b102ee3" y="38.12175"/>
     </g>
    </g>
    <g id="text_14">
     <!-- Partially Wrapped -->
     <defs>
      <path d="
M3.32812 72.9062
L13.2812 72.9062
L28.6094 11.2812
L43.8906 72.9062
L54.9844 72.9062
L70.3125 11.2812
L85.5938 72.9062
L95.6094 72.9062
L77.2969 0
L64.8906 0
L49.5156 63.2812
L33.9844 0
L21.5781 0
z
" id="DejaVuSans-57"/>
     </defs>
     <g transform="translate(109.0040625 43.16175)scale(0.144 -0.144)">
      <use xlink:href="#DejaVuSans-50"/>
      <use x="55.802734375" xlink:href="#DejaVuSans-61"/>
      <use x="117.08203125" xlink:href="#DejaVuSans-72"/>
      <use x="158.1953125" xlink:href="#DejaVuSans-74"/>
      <use x="197.404296875" xlink:href="#DejaVuSans-69"/>
      <use x="225.1875" xlink:href="#DejaVuSans-61"/>
      <use x="286.466796875" xlink:href="#DejaVuSans-6c"/>
      <use x="314.25" xlink:href="#DejaVuSans-6c"/>
      <use x="342.033203125" xlink:href="#DejaVuSans-79"/>
      <use x="401.212890625" xlink:href="#DejaVuSans-20"/>
      <use x="433.0" xlink:href="#DejaVuSans-57"/>
      <use x="527.376953125" xlink:href="#DejaVuSans-72"/>
      <use x="568.490234375" xlink:href="#DejaVuSans-61"/>
      <use x="629.76953125" xlink:href="#DejaVuSans-70"/>
      <use x="693.24609375" xlink:href="#DejaVuSans-70"/>
      <use x="756.72265625" xlink:href="#DejaVuSans-65"/>
      <use x="818.24609375" xlink:href="#DejaVuSans-64"/>
     </g>
    </g>
    <g id="LineCollection_5">
     <defs>
      <path d="
M267.784 -242.678
L267.784 -257.078" id="C4_0_34e9678615"/>
      <path d="
M287.944 -242.678
L287.944 -257.078" id="C4_1_34aa846c61"/>
     </defs>
     <use style="fill:none;stroke:#0000ff;" x="0.0" xlink:href="#C4_0_34e9678615" y="288.0"/>
     <use style="fill:none;stroke:#0000ff;" x="0.0" xlink:href="#C4_1_34aa846c61" y="288.0"/>
    </g>
    <g id="line2d_36">
     <g>
      <use style="fill:#0000ff;stroke:#0000ff;stroke-width:0.5;" x="267.7843125" xlink:href="#mdde457ef1d" y="45.32175"/>
      <use style="fill:#0000ff;stroke:#0000ff;stroke-width:0.5;" x="287.9443125" xlink:href="#mdde457ef1d" y="45.32175"/>
     </g>
    </g>
    <g id="line2d_37">
     <g>
      <use style="fill:#0000ff;stroke:#0000ff;stroke-width:0.5;" x="267.7843125" xlink:href="#mdde457ef1d" y="30.92175"/>
      <use style="fill:#0000ff;stroke:#0000ff;stroke-width:0.5;" x="287.9443125" xlink:href="#mdde457ef1d" y="30.92175"/>
     </g>
    </g>
    <g id="line2d_38"/>
    <g id="line2d_39">
     <g>
      <use style="fill:#0000ff;stroke:#000000;stroke-linejoin:miter;stroke-width:0.5;" x="267.7843125" xlink:href="#m225e1ef6c6" y="38.12175"/>
      <use style="fill:#0000ff;stroke:#000000;stroke-linejoin:miter;stroke-width:0.5;" x="287.9443125" xlink:href="#m225e1ef6c6" y="38.12175"/>
     </g>
    </g>
    <g id="text_15">
     <!-- Unwrapped -->
     <defs>
      <path d="
M4.20312 54.6875
L13.1875 54.6875
L24.4219 12.0156
L35.5938 54.6875
L46.1875 54.6875
L57.4219 12.0156
L68.6094 54.6875
L77.5938 54.6875
L63.2812 0
L52.6875 0
L40.9219 44.8281
L29.1094 0
L18.5 0
z
" id="DejaVuSans-77"/>
      <path d="
M8.6875 72.9062
L18.6094 72.9062
L18.6094 28.6094
Q18.6094 16.8906 22.8438 11.7344
Q27.0938 6.59375 36.625 6.59375
Q46.0938 6.59375 50.3438 11.7344
Q54.5938 16.8906 54.5938 28.6094
L54.5938 72.9062
L64.5 72.9062
L64.5 27.3906
Q64.5 13.1406 57.4375 5.85938
Q50.3906 -1.42188 36.625 -1.42188
Q22.7969 -1.42188 15.7344 5.85938
Q8.6875 13.1406 8.6875 27.3906
z
" id="DejaVuSans-55"/>
     </defs>
     <g transform="translate(303.7843125 43.16175)scale(0.144 -0.144)">
      <use xlink:href="#DejaVuSans-55"/>
      <use x="73.193359375" xlink:href="#DejaVuSans-6e"/>
      <use x="136.572265625" xlink:href="#DejaVuSans-77"/>
      <use x="218.359375" xlink:href="#DejaVuSans-72"/>
      <use x="259.47265625" xlink:href="#DejaVuSans-61"/>
      <use x="320.751953125" xlink:href="#DejaVuSans-70"/>
      <use x="384.228515625" xlink:href="#DejaVuSans-70"/>
      <use x="447.705078125" xlink:href="#DejaVuSans-65"/>
      <use x="509.228515625" xlink:href="#DejaVuSans-64"/>
     </g>
    </g>
    <g id="LineCollection_6">
     <defs>
      <path d="
M416.815 -242.678
L416.815 -257.078" id="C5_0_bad53d0534"/>
      <path d="
M436.975 -242.678
L436.975 -257.078" id="C5_1_95c1e6b9c2"/>
     </defs>
     <use style="fill:none;stroke:#ff0000;" x="0.0" xlink:href="#C5_0_bad53d0534" y="288.0"/>
     <use style="fill:none;stroke:#ff0000;" x="0.0" xlink:href="#C5_1_95c1e6b9c2" y="288.0"/>
    </g>
    <g id="line2d_40">
     <g>
      <use style="fill:#ff0000;stroke:#ff0000;stroke-width:0.5;" x="416.8153125" xlink:href="#m12d35e2592" y="45.32175"/>
      <use style="fill:#ff0000;stroke:#ff0000;stroke-width:0.5;" x="436.9753125" xlink:href="#m12d35e2592" y="45.32175"/>
     </g>
    </g>
    <g id="line2d_41">
     <g>
      <use style="fill:#ff0000;stroke:#ff0000;stroke-width:0.5;" x="416.8153125" xlink:href="#m12d35e2592" y="30.92175"/>
      <use style="fill:#ff0000;stroke:#ff0000;stroke-width:0.5;" x="436.9753125" xlink:href="#m12d35e2592" y="30.92175"/>
     </g>
    </g>
    <g id="line2d_42"/>
    <g id="line2d_43">
     <g>
      <use style="fill:#ff0000;stroke:#000000;stroke-linejoin:bevel;stroke-width:0.5;" x="416.8153125" xlink:href="#m46c0476064" y="38.12175"/>
      <use style="fill:#ff0000;stroke:#000000;stroke-linejoin:bevel;stroke-width:0.5;" x="436.9753125" xlink:href="#m46c0476064" y="38.12175"/>
     </g>
    </g>
    <g id="text_16">
     <!-- Wrapped -->
     <g transform="translate(452.8153125 43.16175)scale(0.144 -0.144)">
      <use xlink:href="#DejaVuSans-57"/>
      <use x="94.376953125" xlink:href="#DejaVuSans-72"/>
      <use x="135.490234375" xlink:href="#DejaVuSans-61"/>
      <use x="196.76953125" xlink:href="#DejaVuSans-70"/>
      <use x="260.24609375" xlink:href="#DejaVuSans-70"/>
      <use x="323.72265625" xlink:href="#DejaVuSans-65"/>
      <use x="385.24609375" xlink:href="#DejaVuSans-64"/>
     </g>
    </g>
   </g>
  </g>
 </g>
 <defs>
  <clipPath id="p5546cca3e0">
   <rect height="221.58" width="795.3159375" x="55.7240625" y="19.26"/>
  </clipPath>
 </defs>
</svg>
