<?xml version="1.0" encoding="utf-8" standalone="no"?>
<!DOCTYPE svg PUBLIC "-//W3C//DTD SVG 1.1//EN"
  "http://www.w3.org/Graphics/SVG/1.1/DTD/svg11.dtd">
<!-- Created with matplotlib (http://matplotlib.org/) -->
<svg height="288pt" version="1.1" viewBox="0 0 864 288" width="864pt" xmlns="http://www.w3.org/2000/svg" xmlns:xlink="http://www.w3.org/1999/xlink">
 <defs>
  <style type="text/css">
*{stroke-linecap:butt;stroke-linejoin:round;}
  </style>
 </defs>
 <g id="figure_1">
  <g id="patch_1">
   <path d="
M0 288
L864 288
L864 0
L0 0
z
" style="fill:#ffffff;"/>
  </g>
  <g id="axes_1">
   <g id="patch_2">
    <path d="
M64.4951 237.882
L848.88 237.882
L848.88 21.6195
L64.4951 21.6195
z
" style="fill:#ffffff;"/>
   </g>
   <g id="LineCollection_1">
    <defs>
     <path d="
M135.803 -204.585
L135.803 -208.985" id="C0_0_69403d02e7"/>
     <path d="
M207.111 -206.579
L207.111 -211.007" id="C0_1_5e08f7f9ba"/>
     <path d="
M278.418 -207.745
L278.418 -212.189" id="C0_2_3e646e739a"/>
     <path d="
M456.688 -201.302
L456.688 -205.656" id="C0_3_3abcb08e2f"/>
     <path d="
M527.995 -201.885
L527.995 -206.247" id="C0_4_8d6f33e5fc"/>
     <path d="
M634.957 -190.23
L634.957 -194.422" id="C0_5_e174be6e1b"/>
     <path d="
M349.726 -203.542
L349.726 -207.927" id="C0_6_4ab525cd8a"/>
     <path d="
M777.572 -178.732
L777.572 -182.749" id="C0_7_b104381ac7"/>
     <path d="
M706.265 -193.634
L706.265 -197.877" id="C0_8_5949c72658"/>
    </defs>
    <g clip-path="url(#p6beb79da72)">
     <use style="fill:none;stroke:#0000ff;" x="0.0" xlink:href="#C0_0_69403d02e7" y="288.0"/>
    </g>
    <g clip-path="url(#p6beb79da72)">
     <use style="fill:none;stroke:#0000ff;" x="0.0" xlink:href="#C0_1_5e08f7f9ba" y="288.0"/>
    </g>
    <g clip-path="url(#p6beb79da72)">
     <use style="fill:none;stroke:#0000ff;" x="0.0" xlink:href="#C0_2_3e646e739a" y="288.0"/>
    </g>
    <g clip-path="url(#p6beb79da72)">
     <use style="fill:none;stroke:#0000ff;" x="0.0" xlink:href="#C0_3_3abcb08e2f" y="288.0"/>
    </g>
    <g clip-path="url(#p6beb79da72)">
     <use style="fill:none;stroke:#0000ff;" x="0.0" xlink:href="#C0_4_8d6f33e5fc" y="288.0"/>
    </g>
    <g clip-path="url(#p6beb79da72)">
     <use style="fill:none;stroke:#0000ff;" x="0.0" xlink:href="#C0_5_e174be6e1b" y="288.0"/>
    </g>
    <g clip-path="url(#p6beb79da72)">
     <use style="fill:none;stroke:#0000ff;" x="0.0" xlink:href="#C0_6_4ab525cd8a" y="288.0"/>
    </g>
    <g clip-path="url(#p6beb79da72)">
     <use style="fill:none;stroke:#0000ff;" x="0.0" xlink:href="#C0_7_b104381ac7" y="288.0"/>
    </g>
    <g clip-path="url(#p6beb79da72)">
     <use style="fill:none;stroke:#0000ff;" x="0.0" xlink:href="#C0_8_5949c72658" y="288.0"/>
    </g>
   </g>
   <g id="LineCollection_2">
    <defs>
     <path d="
M527.995 -74.4457
L527.995 -76.2107" id="C1_0_97d99528d3"/>
     <path d="
M456.688 -98.3748
L456.688 -100.848" id="C1_1_e1970d733e"/>
     <path d="
M706.265 -58.4016
L706.265 -59.4447" id="C1_2_39f896ea39"/>
     <path d="
M207.111 -200.075
L207.111 -204.411" id="C1_3_f588bf5043"/>
     <path d="
M135.803 -208.358
L135.803 -212.811" id="C1_4_92024a45ec"/>
     <path d="
M634.957 -61.4365
L634.957 -62.6505" id="C1_5_f61e1b81c4"/>
     <path d="
M278.418 -187.347
L278.418 -191.497" id="C1_6_4416810808"/>
     <path d="
M349.726 -154.124
L349.726 -157.74" id="C1_7_97105f4771"/>
    </defs>
    <g clip-path="url(#p6beb79da72)">
     <use style="fill:none;stroke:#ff0000;" x="0.0" xlink:href="#C1_0_97d99528d3" y="288.0"/>
    </g>
    <g clip-path="url(#p6beb79da72)">
     <use style="fill:none;stroke:#ff0000;" x="0.0" xlink:href="#C1_1_e1970d733e" y="288.0"/>
    </g>
    <g clip-path="url(#p6beb79da72)">
     <use style="fill:none;stroke:#ff0000;" x="0.0" xlink:href="#C1_2_39f896ea39" y="288.0"/>
    </g>
    <g clip-path="url(#p6beb79da72)">
     <use style="fill:none;stroke:#ff0000;" x="0.0" xlink:href="#C1_3_f588bf5043" y="288.0"/>
    </g>
    <g clip-path="url(#p6beb79da72)">
     <use style="fill:none;stroke:#ff0000;" x="0.0" xlink:href="#C1_4_92024a45ec" y="288.0"/>
    </g>
    <g clip-path="url(#p6beb79da72)">
     <use style="fill:none;stroke:#ff0000;" x="0.0" xlink:href="#C1_5_f61e1b81c4" y="288.0"/>
    </g>
    <g clip-path="url(#p6beb79da72)">
     <use style="fill:none;stroke:#ff0000;" x="0.0" xlink:href="#C1_6_4416810808" y="288.0"/>
    </g>
    <g clip-path="url(#p6beb79da72)">
     <use style="fill:none;stroke:#ff0000;" x="0.0" xlink:href="#C1_7_97105f4771" y="288.0"/>
    </g>
   </g>
   <g id="LineCollection_3">
    <defs>
     <path d="
M456.688 -200.505
L456.688 -204.847" id="C2_0_dd3d1793bc"/>
     <path d="
M777.572 -196.333
L777.572 -200.615" id="C2_1_7ca852dd6f"/>
     <path d="
M527.995 -201.486
L527.995 -205.842" id="C2_2_e6c91e00c4"/>
     <path d="
M634.957 -201.916
L634.957 -206.278" id="C2_3_33e39478f5"/>
     <path d="
M278.418 -197.621
L278.418 -201.922" id="C2_4_57a57d9c2d"/>
     <path d="
M349.726 -198.511
L349.726 -202.824" id="C2_5_6893aaaa2c"/>
     <path d="
M171.457 -202.713
L171.457 -207.087" id="C2_6_13e3effd9e"/>
     <path d="
M706.265 -198.112
L706.265 -202.42" id="C2_7_a1af9e2129"/>
     <path d="
M135.803 -193.297
L135.803 -197.534" id="C2_8_18aed2095f"/>
    </defs>
    <g clip-path="url(#p6beb79da72)">
     <use style="fill:none;stroke:#008000;" x="0.0" xlink:href="#C2_0_dd3d1793bc" y="288.0"/>
    </g>
    <g clip-path="url(#p6beb79da72)">
     <use style="fill:none;stroke:#008000;" x="0.0" xlink:href="#C2_1_7ca852dd6f" y="288.0"/>
    </g>
    <g clip-path="url(#p6beb79da72)">
     <use style="fill:none;stroke:#008000;" x="0.0" xlink:href="#C2_2_e6c91e00c4" y="288.0"/>
    </g>
    <g clip-path="url(#p6beb79da72)">
     <use style="fill:none;stroke:#008000;" x="0.0" xlink:href="#C2_3_33e39478f5" y="288.0"/>
    </g>
    <g clip-path="url(#p6beb79da72)">
     <use style="fill:none;stroke:#008000;" x="0.0" xlink:href="#C2_4_57a57d9c2d" y="288.0"/>
    </g>
    <g clip-path="url(#p6beb79da72)">
     <use style="fill:none;stroke:#008000;" x="0.0" xlink:href="#C2_5_6893aaaa2c" y="288.0"/>
    </g>
    <g clip-path="url(#p6beb79da72)">
     <use style="fill:none;stroke:#008000;" x="0.0" xlink:href="#C2_6_13e3effd9e" y="288.0"/>
    </g>
    <g clip-path="url(#p6beb79da72)">
     <use style="fill:none;stroke:#008000;" x="0.0" xlink:href="#C2_7_a1af9e2129" y="288.0"/>
    </g>
    <g clip-path="url(#p6beb79da72)">
     <use style="fill:none;stroke:#008000;" x="0.0" xlink:href="#C2_8_18aed2095f" y="288.0"/>
    </g>
   </g>
   <g id="line2d_1">
    <defs>
     <path d="
M3 1.83697e-16
L-3 -1.83697e-16" id="mdde457ef1d" style="stroke:#0000ff;stroke-width:0.5;"/>
    </defs>
    <g clip-path="url(#p6beb79da72)">
     <use style="fill:#0000ff;stroke:#0000ff;stroke-width:0.5;" x="135.802788633" xlink:href="#mdde457ef1d" y="83.4152838375"/>
     <use style="fill:#0000ff;stroke:#0000ff;stroke-width:0.5;" x="207.110509769" xlink:href="#mdde457ef1d" y="81.4211892439"/>
     <use style="fill:#0000ff;stroke:#0000ff;stroke-width:0.5;" x="278.418230906" xlink:href="#mdde457ef1d" y="80.2553696913"/>
     <use style="fill:#0000ff;stroke:#0000ff;stroke-width:0.5;" x="456.687533748" xlink:href="#mdde457ef1d" y="86.6976726682"/>
     <use style="fill:#0000ff;stroke:#0000ff;stroke-width:0.5;" x="527.995254885" xlink:href="#mdde457ef1d" y="86.1148368078"/>
     <use style="fill:#0000ff;stroke:#0000ff;stroke-width:0.5;" x="634.95683659" xlink:href="#mdde457ef1d" y="97.7699845982"/>
     <use style="fill:#0000ff;stroke:#0000ff;stroke-width:0.5;" x="349.725952043" xlink:href="#mdde457ef1d" y="84.4583128134"/>
     <use style="fill:#0000ff;stroke:#0000ff;stroke-width:0.5;" x="777.572278863" xlink:href="#mdde457ef1d" y="109.268268568"/>
     <use style="fill:#0000ff;stroke:#0000ff;stroke-width:0.5;" x="706.264557727" xlink:href="#mdde457ef1d" y="94.3658051538"/>
    </g>
   </g>
   <g id="line2d_2">
    <g clip-path="url(#p6beb79da72)">
     <use style="fill:#0000ff;stroke:#0000ff;stroke-width:0.5;" x="135.802788633" xlink:href="#mdde457ef1d" y="79.0152144051"/>
     <use style="fill:#0000ff;stroke:#0000ff;stroke-width:0.5;" x="207.110509769" xlink:href="#mdde457ef1d" y="76.9930095926"/>
     <use style="fill:#0000ff;stroke:#0000ff;stroke-width:0.5;" x="278.418230906" xlink:href="#mdde457ef1d" y="75.8108387233"/>
     <use style="fill:#0000ff;stroke:#0000ff;stroke-width:0.5;" x="456.687533748" xlink:href="#mdde457ef1d" y="82.3442722888"/>
     <use style="fill:#0000ff;stroke:#0000ff;stroke-width:0.5;" x="527.995254885" xlink:href="#mdde457ef1d" y="81.7531129382"/>
     <use style="fill:#0000ff;stroke:#0000ff;stroke-width:0.5;" x="634.95683659" xlink:href="#mdde457ef1d" y="93.5778693674"/>
     <use style="fill:#0000ff;stroke:#0000ff;stroke-width:0.5;" x="349.725952043" xlink:href="#mdde457ef1d" y="80.0730189645"/>
     <use style="fill:#0000ff;stroke:#0000ff;stroke-width:0.5;" x="777.572278863" xlink:href="#mdde457ef1d" y="105.25054351"/>
     <use style="fill:#0000ff;stroke:#0000ff;stroke-width:0.5;" x="706.264557727" xlink:href="#mdde457ef1d" y="90.1234452108"/>
    </g>
   </g>
   <g id="line2d_3">
    <defs>
     <path d="
M0 1.5
C0.397805 1.5 0.77937 1.34195 1.06066 1.06066
C1.34195 0.77937 1.5 0.397805 1.5 0
C1.5 -0.397805 1.34195 -0.77937 1.06066 -1.06066
C0.77937 -1.34195 0.397805 -1.5 0 -1.5
C-0.397805 -1.5 -0.77937 -1.34195 -1.06066 -1.06066
C-1.34195 -0.77937 -1.5 -0.397805 -1.5 0
C-1.5 0.397805 -1.34195 0.77937 -1.06066 1.06066
C-0.77937 1.34195 -0.397805 1.5 0 1.5
z
" id="m76a7ce5b4a" style="stroke:#0000ff;stroke-width:0.5;"/>
    </defs>
    <g clip-path="url(#p6beb79da72)">
     <use style="fill:#0000ff;stroke:#0000ff;stroke-width:0.5;" x="135.802788633" xlink:href="#m76a7ce5b4a" y="81.2152491213"/>
     <use style="fill:#0000ff;stroke:#0000ff;stroke-width:0.5;" x="207.110509769" xlink:href="#m76a7ce5b4a" y="79.2070994183"/>
     <use style="fill:#0000ff;stroke:#0000ff;stroke-width:0.5;" x="278.418230906" xlink:href="#m76a7ce5b4a" y="78.0331042073"/>
     <use style="fill:#0000ff;stroke:#0000ff;stroke-width:0.5;" x="456.687533748" xlink:href="#m76a7ce5b4a" y="84.5209724785"/>
     <use style="fill:#0000ff;stroke:#0000ff;stroke-width:0.5;" x="527.995254885" xlink:href="#m76a7ce5b4a" y="83.933974873"/>
     <use style="fill:#0000ff;stroke:#0000ff;stroke-width:0.5;" x="634.95683659" xlink:href="#m76a7ce5b4a" y="95.6739269828"/>
     <use style="fill:#0000ff;stroke:#0000ff;stroke-width:0.5;" x="349.725952043" xlink:href="#m76a7ce5b4a" y="82.265665889"/>
     <use style="fill:#0000ff;stroke:#0000ff;stroke-width:0.5;" x="777.572278863" xlink:href="#m76a7ce5b4a" y="107.259406039"/>
     <use style="fill:#0000ff;stroke:#0000ff;stroke-width:0.5;" x="706.264557727" xlink:href="#m76a7ce5b4a" y="92.2446251823"/>
    </g>
   </g>
   <g id="line2d_4">
    <defs>
     <path d="
M3 1.83697e-16
L-3 -1.83697e-16" id="m12d35e2592" style="stroke:#ff0000;stroke-width:0.5;"/>
    </defs>
    <g clip-path="url(#p6beb79da72)">
     <use style="fill:#ff0000;stroke:#ff0000;stroke-width:0.5;" x="527.995254885" xlink:href="#m12d35e2592" y="213.554344748"/>
     <use style="fill:#ff0000;stroke:#ff0000;stroke-width:0.5;" x="456.687533748" xlink:href="#m12d35e2592" y="189.625210596"/>
     <use style="fill:#ff0000;stroke:#ff0000;stroke-width:0.5;" x="706.264557727" xlink:href="#m12d35e2592" y="229.598417542"/>
     <use style="fill:#ff0000;stroke:#ff0000;stroke-width:0.5;" x="207.110509769" xlink:href="#m12d35e2592" y="87.9246694178"/>
     <use style="fill:#ff0000;stroke:#ff0000;stroke-width:0.5;" x="135.802788633" xlink:href="#m12d35e2592" y="79.6417683951"/>
     <use style="fill:#ff0000;stroke:#ff0000;stroke-width:0.5;" x="634.95683659" xlink:href="#m12d35e2592" y="226.563483586"/>
     <use style="fill:#ff0000;stroke:#ff0000;stroke-width:0.5;" x="278.418230906" xlink:href="#m12d35e2592" y="100.652565335"/>
     <use style="fill:#ff0000;stroke:#ff0000;stroke-width:0.5;" x="349.725952043" xlink:href="#m12d35e2592" y="133.875839265"/>
    </g>
   </g>
   <g id="line2d_5">
    <g clip-path="url(#p6beb79da72)">
     <use style="fill:#ff0000;stroke:#ff0000;stroke-width:0.5;" x="527.995254885" xlink:href="#m12d35e2592" y="211.789291532"/>
     <use style="fill:#ff0000;stroke:#ff0000;stroke-width:0.5;" x="456.687533748" xlink:href="#m12d35e2592" y="187.152097483"/>
     <use style="fill:#ff0000;stroke:#ff0000;stroke-width:0.5;" x="706.264557727" xlink:href="#m12d35e2592" y="228.555295424"/>
     <use style="fill:#ff0000;stroke:#ff0000;stroke-width:0.5;" x="207.110509769" xlink:href="#m12d35e2592" y="83.5888444044"/>
     <use style="fill:#ff0000;stroke:#ff0000;stroke-width:0.5;" x="135.802788633" xlink:href="#m12d35e2592" y="75.1886555869"/>
     <use style="fill:#ff0000;stroke:#ff0000;stroke-width:0.5;" x="634.95683659" xlink:href="#m12d35e2592" y="225.349517996"/>
     <use style="fill:#ff0000;stroke:#ff0000;stroke-width:0.5;" x="278.418230906" xlink:href="#m12d35e2592" y="96.5034754635"/>
     <use style="fill:#ff0000;stroke:#ff0000;stroke-width:0.5;" x="349.725952043" xlink:href="#m12d35e2592" y="130.259717781"/>
    </g>
   </g>
   <g id="line2d_6">
    <defs>
     <path d="
M0 1.5
C0.397805 1.5 0.77937 1.34195 1.06066 1.06066
C1.34195 0.77937 1.5 0.397805 1.5 0
C1.5 -0.397805 1.34195 -0.77937 1.06066 -1.06066
C0.77937 -1.34195 0.397805 -1.5 0 -1.5
C-0.397805 -1.5 -0.77937 -1.34195 -1.06066 -1.06066
C-1.34195 -0.77937 -1.5 -0.397805 -1.5 0
C-1.5 0.397805 -1.34195 0.77937 -1.06066 1.06066
C-0.77937 1.34195 -0.397805 1.5 0 1.5
z
" id="ma07bdd5909" style="stroke:#ff0000;stroke-width:0.5;"/>
    </defs>
    <g clip-path="url(#p6beb79da72)">
     <use style="fill:#ff0000;stroke:#ff0000;stroke-width:0.5;" x="527.995254885" xlink:href="#ma07bdd5909" y="212.67181814"/>
     <use style="fill:#ff0000;stroke:#ff0000;stroke-width:0.5;" x="456.687533748" xlink:href="#ma07bdd5909" y="188.388654039"/>
     <use style="fill:#ff0000;stroke:#ff0000;stroke-width:0.5;" x="706.264557727" xlink:href="#ma07bdd5909" y="229.076856483"/>
     <use style="fill:#ff0000;stroke:#ff0000;stroke-width:0.5;" x="207.110509769" xlink:href="#ma07bdd5909" y="85.7567569111"/>
     <use style="fill:#ff0000;stroke:#ff0000;stroke-width:0.5;" x="135.802788633" xlink:href="#ma07bdd5909" y="77.415211991"/>
     <use style="fill:#ff0000;stroke:#ff0000;stroke-width:0.5;" x="634.95683659" xlink:href="#ma07bdd5909" y="225.956500791"/>
     <use style="fill:#ff0000;stroke:#ff0000;stroke-width:0.5;" x="278.418230906" xlink:href="#ma07bdd5909" y="98.5780203994"/>
     <use style="fill:#ff0000;stroke:#ff0000;stroke-width:0.5;" x="349.725952043" xlink:href="#ma07bdd5909" y="132.067778523"/>
    </g>
   </g>
   <g id="line2d_7">
    <defs>
     <path d="
M3 1.83697e-16
L-3 -1.83697e-16" id="m1ef3793437" style="stroke:#008000;stroke-width:0.5;"/>
    </defs>
    <g clip-path="url(#p6beb79da72)">
     <use style="fill:#008000;stroke:#008000;stroke-width:0.5;" x="456.687533748" xlink:href="#m1ef3793437" y="87.4952246016"/>
     <use style="fill:#008000;stroke:#008000;stroke-width:0.5;" x="777.572278863" xlink:href="#m1ef3793437" y="91.6667867339"/>
     <use style="fill:#008000;stroke:#008000;stroke-width:0.5;" x="527.995254885" xlink:href="#m1ef3793437" y="86.5136200977"/>
     <use style="fill:#008000;stroke:#008000;stroke-width:0.5;" x="634.95683659" xlink:href="#m1ef3793437" y="86.0841610162"/>
     <use style="fill:#008000;stroke:#008000;stroke-width:0.5;" x="278.418230906" xlink:href="#m1ef3793437" y="90.3785551777"/>
     <use style="fill:#008000;stroke:#008000;stroke-width:0.5;" x="349.725952043" xlink:href="#m1ef3793437" y="89.4890383429"/>
     <use style="fill:#008000;stroke:#008000;stroke-width:0.5;" x="171.456649201" xlink:href="#m1ef3793437" y="85.2865827496"/>
     <use style="fill:#008000;stroke:#008000;stroke-width:0.5;" x="706.264557727" xlink:href="#m1ef3793437" y="89.8877896404"/>
     <use style="fill:#008000;stroke:#008000;stroke-width:0.5;" x="135.802788633" xlink:href="#m1ef3793437" y="94.7031695674"/>
    </g>
   </g>
   <g id="line2d_8">
    <g clip-path="url(#p6beb79da72)">
     <use style="fill:#008000;stroke:#008000;stroke-width:0.5;" x="456.687533748" xlink:href="#m1ef3793437" y="83.1532401178"/>
     <use style="fill:#008000;stroke:#008000;stroke-width:0.5;" x="777.572278863" xlink:href="#m1ef3793437" y="87.3850121272"/>
     <use style="fill:#008000;stroke:#008000;stroke-width:0.5;" x="527.995254885" xlink:href="#m1ef3793437" y="82.1575895295"/>
     <use style="fill:#008000;stroke:#008000;stroke-width:0.5;" x="634.95683659" xlink:href="#m1ef3793437" y="81.7219995082"/>
     <use style="fill:#008000;stroke:#008000;stroke-width:0.5;" x="278.418230906" xlink:href="#m1ef3793437" y="86.0780963749"/>
     <use style="fill:#008000;stroke:#008000;stroke-width:0.5;" x="349.725952043" xlink:href="#m1ef3793437" y="85.1757257825"/>
     <use style="fill:#008000;stroke:#008000;stroke-width:0.5;" x="171.456649201" xlink:href="#m1ef3793437" y="80.9130580124"/>
     <use style="fill:#008000;stroke:#008000;stroke-width:0.5;" x="706.264557727" xlink:href="#m1ef3793437" y="85.5802343661"/>
     <use style="fill:#008000;stroke:#008000;stroke-width:0.5;" x="135.802788633" xlink:href="#m1ef3793437" y="90.4657622352"/>
    </g>
   </g>
   <g id="line2d_9">
    <defs>
     <path d="
M0 1.5
C0.397805 1.5 0.77937 1.34195 1.06066 1.06066
C1.34195 0.77937 1.5 0.397805 1.5 0
C1.5 -0.397805 1.34195 -0.77937 1.06066 -1.06066
C0.77937 -1.34195 0.397805 -1.5 0 -1.5
C-0.397805 -1.5 -0.77937 -1.34195 -1.06066 -1.06066
C-1.34195 -0.77937 -1.5 -0.397805 -1.5 0
C-1.5 0.397805 -1.34195 0.77937 -1.06066 1.06066
C-0.77937 1.34195 -0.397805 1.5 0 1.5
z
" id="mb0b177905e" style="stroke:#008000;stroke-width:0.5;"/>
    </defs>
    <g clip-path="url(#p6beb79da72)">
     <use style="fill:#008000;stroke:#008000;stroke-width:0.5;" x="456.687533748" xlink:href="#mb0b177905e" y="85.3242323597"/>
     <use style="fill:#008000;stroke:#008000;stroke-width:0.5;" x="777.572278863" xlink:href="#mb0b177905e" y="89.5258994306"/>
     <use style="fill:#008000;stroke:#008000;stroke-width:0.5;" x="527.995254885" xlink:href="#mb0b177905e" y="84.3356048136"/>
     <use style="fill:#008000;stroke:#008000;stroke-width:0.5;" x="634.95683659" xlink:href="#mb0b177905e" y="83.9030802622"/>
     <use style="fill:#008000;stroke:#008000;stroke-width:0.5;" x="278.418230906" xlink:href="#mb0b177905e" y="88.2283257763"/>
     <use style="fill:#008000;stroke:#008000;stroke-width:0.5;" x="349.725952043" xlink:href="#mb0b177905e" y="87.3323820627"/>
     <use style="fill:#008000;stroke:#008000;stroke-width:0.5;" x="171.456649201" xlink:href="#mb0b177905e" y="83.099820381"/>
     <use style="fill:#008000;stroke:#008000;stroke-width:0.5;" x="706.264557727" xlink:href="#mb0b177905e" y="87.7340120033"/>
     <use style="fill:#008000;stroke:#008000;stroke-width:0.5;" x="135.802788633" xlink:href="#mb0b177905e" y="92.5844659013"/>
    </g>
   </g>
   <g id="line2d_10">
    <path clip-path="url(#p6beb79da72)" d="
M63.3519 237.882
L79.4282 237.829
L82.6435 237.604
L85.8588 236.704
L89.0741 233.847
L92.2894 226.651
L95.5046 212.261
L98.7199 189.42
L105.15 131.87
L108.366 109.03
L111.581 94.6396
L114.796 87.4432
L118.012 84.5866
L121.227 83.6866
L124.442 83.4615
L134.088 83.4089
L793.22 83.4615
L796.435 83.6866
L799.651 84.5866
L802.866 87.4432
L806.081 94.6396
L809.296 109.03
L812.512 131.87
L818.942 189.42
L822.157 212.261
L825.373 226.651
L828.588 233.847
L831.803 236.704
L835.019 237.604
L838.234 237.829
L847.88 237.882
L851.095 237.882
L851.095 237.882" style="fill:none;stroke:#000000;stroke-dasharray:6.000000,6.000000;stroke-dashoffset:0.0;"/>
   </g>
   <g id="matplotlib.axis_1">
    <g id="xtick_1">
     <g id="line2d_11">
      <path clip-path="url(#p6beb79da72)" d="
M100.149 237.882
L100.149 21.6195" style="fill:none;stroke:#000000;stroke-dasharray:1.000000,3.000000;stroke-dashoffset:0.0;stroke-width:0.5;"/>
     </g>
     <g id="line2d_12">
      <defs>
       <path d="
M0 0
L0 -4" id="m93b0483c22" style="stroke:#000000;stroke-width:0.5;"/>
      </defs>
      <g>
       <use style="stroke:#000000;stroke-width:0.5;" x="100.148928064" xlink:href="#m93b0483c22" y="237.881820565"/>
      </g>
     </g>
     <g id="line2d_13">
      <defs>
       <path d="
M0 0
L0 4" id="m741efc42ff" style="stroke:#000000;stroke-width:0.5;"/>
      </defs>
      <g>
       <use style="stroke:#000000;stroke-width:0.5;" x="100.148928064" xlink:href="#m741efc42ff" y="21.6195448586"/>
      </g>
     </g>
     <g id="text_1">
      <!-- $0$ -->
      <defs>
       <path d="
M42 31.6406
C42 37.75 41.9062 48.125 37.7031 56.1094
C34 63.1094 28.0938 65.5938 22.9062 65.5938
C18.0938 65.5938 12 63.4062 8.20312 56.2031
C4.20312 48.7188 3.79688 39.4375 3.79688 31.6406
C3.79688 25.9531 3.90625 17.2812 7 9.67188
C11.2969 -0.609375 19 -2 22.9062 -2
C27.5 -2 34.5 -0.109375 38.5938 9.375
C41.5938 16.2812 42 24.3594 42 31.6406
M22.9062 -0.40625
C16.5 -0.40625 12.7031 5.07812 11.2969 12.6875
C10.2031 18.5625 10.2031 27.1562 10.2031 32.75
C10.2031 40.4375 10.2031 46.8281 11.5 52.9219
C13.4062 61.3906 19 64 22.9062 64
C27 64 32.2969 61.2969 34.2031 53.125
C35.5 47.4375 35.5938 40.7344 35.5938 32.75
C35.5938 26.25 35.5938 18.2656 34.4062 12.375
C32.2969 1.48438 26.4062 -0.40625 22.9062 -0.40625" id="CMR17-48"/>
      </defs>
      <g transform="translate(96.734683751 252.230905175)scale(0.14 -0.14)">
       <use transform="scale(0.996264009963)" xlink:href="#CMR17-48"/>
      </g>
     </g>
    </g>
    <g id="xtick_2">
     <g id="line2d_14">
      <path clip-path="url(#p6beb79da72)" d="
M278.418 237.882
L278.418 21.6195" style="fill:none;stroke:#000000;stroke-dasharray:1.000000,3.000000;stroke-dashoffset:0.0;stroke-width:0.5;"/>
     </g>
     <g id="line2d_15">
      <g>
       <use style="stroke:#000000;stroke-width:0.5;" x="278.418230906" xlink:href="#m93b0483c22" y="237.881820565"/>
      </g>
     </g>
     <g id="line2d_16">
      <g>
       <use style="stroke:#000000;stroke-width:0.5;" x="278.418230906" xlink:href="#m741efc42ff" y="21.6195448586"/>
      </g>
     </g>
     <g id="text_2">
      <!-- $5$ -->
      <defs>
       <path d="
M11.4062 57.6875
C12.4062 57.2812 16.5 56 20.7031 56
C30 56 35.0938 61.0156 38 63.9219
C38 64.7344 38 65.25 37.4062 65.25
C37.2969 65.25 37.0938 65.25 36.2969 64.8281
C32.7969 63.3125 28.7031 62.0781 23.7031 62.0781
C20.7031 62.0781 16.2031 62.5 11.2969 64.7344
C10.2031 65.25 10 65.25 9.90625 65.25
C9.40625 65.25 9.29688 65.1406 9.29688 63.1562
L9.29688 34.2812
C9.29688 32.5 9.29688 32 10.2969 32
C10.7969 32 11 32.2031 11.5 32.9062
C14.7031 37.4844 19.0938 39.4062 24.0938 39.4062
C27.5938 39.4062 35.0938 37.2188 35.0938 20.1406
C35.0938 16.9531 35.0938 11.1719 32.0938 6.57812
C29.5938 2.48438 25.7031 0.390625 21.4062 0.390625
C14.7969 0.390625 8.09375 5 6.29688 12.7188
C6.70312 12.6094 7.5 12.4219 7.90625 12.4219
C9.20312 12.4219 11.7031 13.125 11.7031 16.2188
C11.7031 18.9062 9.79688 20 7.90625 20
C5.59375 20 4.09375 18.5938 4.09375 15.7969
C4.09375 7.09375 11 -2 21.5938 -2
C31.9062 -2 41.7031 6.875 41.7031 19.75
C41.7031 31.7188 33.9062 41 24.2031 41
C19.0938 41 14.7969 39.0938 11.4062 35.4531
z
" id="CMR17-53"/>
      </defs>
      <g transform="translate(275.003986593 252.230905175)scale(0.14 -0.14)">
       <use transform="scale(0.996264009963)" xlink:href="#CMR17-53"/>
      </g>
     </g>
    </g>
    <g id="xtick_3">
     <g id="line2d_17">
      <path clip-path="url(#p6beb79da72)" d="
M456.688 237.882
L456.688 21.6195" style="fill:none;stroke:#000000;stroke-dasharray:1.000000,3.000000;stroke-dashoffset:0.0;stroke-width:0.5;"/>
     </g>
     <g id="line2d_18">
      <g>
       <use style="stroke:#000000;stroke-width:0.5;" x="456.687533748" xlink:href="#m93b0483c22" y="237.881820565"/>
      </g>
     </g>
     <g id="line2d_19">
      <g>
       <use style="stroke:#000000;stroke-width:0.5;" x="456.687533748" xlink:href="#m741efc42ff" y="21.6195448586"/>
      </g>
     </g>
     <g id="text_3">
      <!-- $10$ -->
      <defs>
       <path d="
M26.5938 63.3125
C26.5938 65.4062 26.5 65.5 25.0938 65.5
C21.2031 61.1875 15.2969 59.7969 9.70312 59.7969
C9.40625 59.7969 8.90625 59.7969 8.79688 59.5
C8.70312 59.2969 8.70312 59.0938 8.70312 57
C11.7969 57 17 57.5938 21 59.9844
L21 7.20312
C21 3.6875 20.7969 2.5 12.2031 2.5
L9.20312 2.5
L9.20312 0
C14 0 19 0 23.7969 0
C28.5938 0 33.5938 0 38.4062 0
L38.4062 2.5
L35.4062 2.5
C26.7969 2.5 26.5938 3.59375 26.5938 7.15625
z
" id="CMR17-49"/>
      </defs>
      <g transform="translate(449.859045121 252.230905175)scale(0.14 -0.14)">
       <use transform="scale(0.996264009963)" xlink:href="#CMR17-49"/>
       <use transform="translate(45.6904771171 0.0)scale(0.996264009963)" xlink:href="#CMR17-48"/>
      </g>
     </g>
    </g>
    <g id="xtick_4">
     <g id="line2d_20">
      <path clip-path="url(#p6beb79da72)" d="
M634.957 237.882
L634.957 21.6195" style="fill:none;stroke:#000000;stroke-dasharray:1.000000,3.000000;stroke-dashoffset:0.0;stroke-width:0.5;"/>
     </g>
     <g id="line2d_21">
      <g>
       <use style="stroke:#000000;stroke-width:0.5;" x="634.95683659" xlink:href="#m93b0483c22" y="237.881820565"/>
      </g>
     </g>
     <g id="line2d_22">
      <g>
       <use style="stroke:#000000;stroke-width:0.5;" x="634.95683659" xlink:href="#m741efc42ff" y="21.6195448586"/>
      </g>
     </g>
     <g id="text_4">
      <!-- $15$ -->
      <g transform="translate(628.128347963 252.230905175)scale(0.14 -0.14)">
       <use transform="scale(0.996264009963)" xlink:href="#CMR17-49"/>
       <use transform="translate(45.6904771171 0.0)scale(0.996264009963)" xlink:href="#CMR17-53"/>
      </g>
     </g>
    </g>
    <g id="xtick_5">
     <g id="line2d_23">
      <path clip-path="url(#p6beb79da72)" d="
M813.226 237.882
L813.226 21.6195" style="fill:none;stroke:#000000;stroke-dasharray:1.000000,3.000000;stroke-dashoffset:0.0;stroke-width:0.5;"/>
     </g>
     <g id="line2d_24">
      <g>
       <use style="stroke:#000000;stroke-width:0.5;" x="813.226139432" xlink:href="#m93b0483c22" y="237.881820565"/>
      </g>
     </g>
     <g id="line2d_25">
      <g>
       <use style="stroke:#000000;stroke-width:0.5;" x="813.226139432" xlink:href="#m741efc42ff" y="21.6195448586"/>
      </g>
     </g>
     <g id="text_5">
      <!-- $20$ -->
      <defs>
       <path d="
M41.7031 15.4531
L39.9062 15.4531
C38.9062 8.375 38.0938 7.17188 37.7031 6.5625
C37.2031 5.76562 30 5.76562 28.5938 5.76562
L9.40625 5.76562
C13 9.67188 20 16.75 28.5 24.9531
C34.5938 30.7344 41.7031 37.5312 41.7031 47.4219
C41.7031 59.2188 32.2969 66 21.7969 66
C10.7969 66 4.09375 56.3125 4.09375 47.3438
C4.09375 43.4375 7 42.9375 8.20312 42.9375
C9.20312 42.9375 12.2031 43.5469 12.2031 47.0312
C12.2031 50.1094 9.59375 51 8.20312 51
C7.59375 51 7 50.9062 6.59375 50.7031
C8.5 59.2188 14.2969 63.4062 20.4062 63.4062
C29.0938 63.4062 34.7969 56.5156 34.7969 47.4219
C34.7969 38.7344 29.7031 31.25 24 24.75
L4.09375 2.28125
L4.09375 0
L39.2969 0
z
" id="CMR17-50"/>
      </defs>
      <g transform="translate(806.397650805 252.230905175)scale(0.14 -0.14)">
       <use transform="scale(0.996264009963)" xlink:href="#CMR17-50"/>
       <use transform="translate(45.6904771171 0.0)scale(0.996264009963)" xlink:href="#CMR17-48"/>
      </g>
     </g>
    </g>
    <g id="text_6">
     <!-- Depth of Interaction (mm) -->
     <defs>
      <path d="
M46.5 23
C46.5938 37.8125 38.0938 48.2812 25.9062 48.2812
C13.0938 48.2812 3.5 37.25 3.5 22.3438
C3.5 8.4375 12.5938 -1 26.0938 -1
C35.5938 -1 42.4062 3.6875 46.5 13.1875
L43 15.0938
C38.9062 7.39062 34.7031 4.39062 28 4.39062
C22.9062 4.39062 19.2031 6.59375 16.5938 11
C14.7969 14 14 17.5 14.0938 23
z

M14.2031 27.2969
C14.2031 30.3438 14.5938 32.5 15.5938 35.25
C17.7031 41.1406 20.9062 44 25.7031 44
C31.7969 44 35.7969 38.7812 35.7969 30.9219
C35.7969 28.0781 34.9062 27.2969 31.7031 27.2969
z
" id="Century_Schoolbook_L_Roman-101"/>
      <path d="
M19.4062 47
L19.4062 67
L15.2969 67
C14.2969 53.875 9.90625 47.1875 1.79688 46.5938
L1.79688 42.7031
L10 42.7031
L10 17.2656
C10 10.2812 10.2031 7.78125 11.2031 5.48438
C12.7969 1.29688 16.7969 -1 22.5938 -1
C26.5 -1 29.9062 0.203125 32.2031 2.39062
C35.5 5.59375 37.4062 10.875 37.4062 16.375
C37.4062 16.9688 37.4062 17.6719 37.2969 18.6719
L33.0938 18.6719
C32.7969 9.6875 30.2031 5.09375 25.2969 5.09375
C23 5.09375 21 6.28125 20.2969 7.98438
C19.7031 9.375 19.4062 11.875 19.4062 15.4688
L19.4062 42.7031
L34.0938 42.7031
L34.0938 47
z
" id="Century_Schoolbook_L_Roman-116"/>
      <path d="
M19.7969 46
L2.09375 46
L2.09375 41.2188
L6.20312 41.2188
C9.90625 41.2188 10.5 40.5156 10.5 36.2031
L10.5 12.2969
L10.5 8.29688
C10.5 4.29688 9.40625 3.59375 2.90625 3.59375
L2.5 3.59375
L2.5 0
L29.2031 0
L29.2031 3.59375
L27.2969 3.59375
C20.9062 3.59375 19.7969 4.29688 19.7969 8.29688
L19.7969 12.2969
L19.7969 13.2969
C19.7969 20.8125 21.2031 28.4062 23.7031 34.1094
C26.0938 39.7031 29.5 42.8125 33.7031 43.3125
C32.2969 41.7031 31.9062 40.6875 31.9062 38.7656
C31.9062 35.5469 34.2031 33.2344 37.4062 33.2344
C41 33.2344 43.5 35.9375 43.5 40.0156
C43.5 44.8125 40.0938 48 34.7969 48
C28.5 48 23 42.9219 19.7969 34.1406
z
" id="Century_Schoolbook_L_Roman-114"/>
      <path d="
M20.0938 46.2969
L20.0938 52.1406
C20.0938 57.2656 20.4062 60.6562 21.2031 62.7188
C22.7969 67.2344 26.2969 70 30.2969 70
C32.4062 70 33.7031 69.3906 33.7031 68.2656
C33.7031 67.9375 33.5938 67.75 33.0938 66.9219
C32.5 65.9062 32.2031 64.7656 32.2031 63.6406
C32.2031 60.5469 34.5938 58.2031 37.7031 58.2031
C41 58.2031 43.2969 60.7344 43.2969 64.4062
C43.2969 70.3281 38.2969 74 30.2031 74
C23.2969 74 18.2969 71.5312 14.7031 66.4375
C11.7031 62.1406 10.7031 57.7344 10.7031 49.4688
L10.7031 46.2969
L1.90625 46.2969
L1.90625 42
L10.7031 42
L10.7031 12.2344
L10.7031 8.25
C10.7031 4.29688 9.59375 3.59375 3.20312 3.59375
L2.79688 3.59375
L2.79688 0
L29.5 0
L29.5 3.59375
L27.7031 3.59375
C21.2031 3.59375 20.0938 4.29688 20.0938 8.25
L20.0938 12.2344
L20.0938 42
L31.0938 42
L31.0938 46.2969
z
" id="Century_Schoolbook_L_Roman-102"/>
      <path d="
M20.0938 46
L2.79688 46
L2.79688 41.2188
L6.40625 41.2188
C10.0938 41.2188 10.7031 40.5156 10.7031 36.2188
L10.7031 -7.75
L10.7031 -11.7188
C10.7031 -15.7188 9.59375 -16.4062 3.20312 -16.4062
L2.79688 -16.4062
L2.79688 -20
L28.7969 -20
L28.7969 -16.4062
L27.7031 -16.4062
C21.2031 -16.4062 20.0938 -15.7188 20.0938 -11.7344
L20.0938 -7.75
L20.0938 6.6875
C23.4062 0.90625 27.2031 -1.39062 33.2969 -1.39062
C44.9062 -1.39062 53.5 9.26562 53.5 23.5
C53.5 37.2656 44.9062 48 33.9062 48
C27.7031 48 23.5938 45.4375 20.0938 39.5156
z

M32.0938 42.6094
C39 42.6094 43 35.75 43 24.0938
C43 11.2656 38.9062 4 31.7969 4
C24.7031 4 20 11.375 20 22.8125
C20 35.1406 24.5 42.6094 32.0938 42.6094" id="Century_Schoolbook_L_Roman-112"/>
      <path d="
M20 73
L1.5 73
L1.5 68.2188
L6.29688 68.2188
C10 68.2188 10.5938 67.5156 10.5938 63.2188
L10.5938 12.2812
L10.5938 8.28125
C10.5938 4.29688 9.5 3.59375 3.09375 3.59375
L2.70312 3.59375
L2.70312 0
L28 0
L28 3.59375
L27.5938 3.59375
C21.0938 3.59375 20 4.29688 20 8.28125
L20 12.2812
L20 22.5625
C20 27.5469 20.7031 32.0312 21.7969 34.3281
C23.9062 38.8281 28.4062 41.9219 32.7031 41.9219
C35.2969 41.9219 38.2969 40.4219 39.7969 38.4219
C41.2969 36.2344 42 33.2344 42 28.3438
L42 12.2812
L42 8.28125
C42 4.29688 40.9062 3.59375 34.4062 3.59375
L34 3.59375
L34 0
L59.2969 0
L59.2969 3.59375
L58.9062 3.59375
C52.5 3.59375 51.4062 4.29688 51.4062 8.28125
L51.4062 12.2812
L51.4062 27.9531
C51.4062 35.125 51.0938 36.9219 49.2969 40.3281
C46.7969 45.1094 41.7969 48 35.7969 48
C29.4062 48 24.5 45.0156 20 38.3281
z
" id="Century_Schoolbook_L_Roman-104"/>
      <path d="
M20 46
L2.70312 46
L2.70312 41.2188
L6.29688 41.2188
C10 41.2188 10.5938 40.5156 10.5938 36.2031
L10.5938 12.2969
L10.5938 8.29688
C10.5938 4.29688 9.5 3.59375 3.09375 3.59375
L2.70312 3.59375
L2.70312 0
L28 0
L28 3.59375
L27.5938 3.59375
C21.0938 3.59375 20 4.29688 20 8.28125
L20 12.2812
L20 22.6562
C20 27.5469 20.7031 32.0312 21.7969 34.3281
C23.9062 38.8281 28.4062 41.9219 32.7031 41.9219
C35.2969 41.9219 38.2969 40.4219 39.7969 38.4219
C41.2969 36.3281 42 33.2344 42 28.4375
L42 12.2812
L42 8.28125
C42 4.29688 40.9062 3.59375 34.4062 3.59375
L34 3.59375
L34 0
L59.2969 0
L59.2969 3.59375
L58.9062 3.59375
C52.5 3.59375 51.4062 4.29688 51.4062 8.28125
L51.4062 12.2812
L51.4062 27.9531
C51.4062 35.125 51.0938 36.9219 49.2969 40.3281
C46.7969 45.1094 41.7031 48 35.7969 48
C29.4062 48 24.4062 45.0469 20 38.5156
z
" id="Century_Schoolbook_L_Roman-110"/>
      <path d="
M25.2031 48.2812
C13 48.2812 3.40625 37.4531 3.40625 23.5469
C3.40625 9.9375 13 -1 25 -1
C37 -1 46.5938 9.9375 46.5938 23.6406
C46.5938 37.25 37 48.2812 25.2031 48.2812
M25.2031 44
C32.2031 44 36.0938 36.7344 36.0938 23.6406
C36.0938 10.4531 32.2031 3.29688 25 3.29688
C17.7969 3.29688 13.9062 10.4531 13.9062 23.5469
C13.9062 37.0469 17.7031 44 25.2031 44" id="Century_Schoolbook_L_Roman-111"/>
      <path d="
M20.0938 46
L2.29688 46
L2.29688 41.2188
L6.40625 41.2188
C10.0938 41.2188 10.7031 40.5156 10.7031 36.2031
L10.7031 12.2969
L10.7031 8.40625
C10.7031 4.29688 9.59375 3.59375 3.20312 3.59375
L2.79688 3.59375
L2.79688 0
L28 0
L28 3.59375
L27.5938 3.59375
C21.2031 3.59375 20.0938 4.29688 20.0938 8.39062
L20.0938 12.2812
L20.0938 26.4531
C20.0938 35.3281 25 41.9219 31.5 41.9219
C34.0938 41.9219 36.9062 40.5156 38.0938 38.625
C39.5 36.7344 40.0938 33.8281 40.0938 29.7344
L40.0938 12.2812
L40.0938 8.28125
C40.0938 4.29688 39 3.59375 32.5 3.59375
L32.0938 3.59375
L32.0938 0
L57.4062 0
L57.4062 3.59375
L57 3.59375
C50.5938 3.59375 49.5 4.29688 49.5 8.28125
L49.5 12.2812
L49.5 25.5469
C49.5 35.5312 54 41.9219 61 41.9219
C64.2969 41.9219 67 40.0156 68.2969 36.9219
C69.2031 34.7344 69.5 32.5312 69.5 28.6406
L69.5 12.2812
L69.5 8.28125
C69.5 4.29688 68.4062 3.59375 61.9062 3.59375
L61.5 3.59375
L61.5 0
L86.7969 0
L86.7969 3.59375
L86.4062 3.59375
C80 3.59375 78.9062 4.29688 78.9062 8.39062
L78.9062 12.2812
L78.9062 30.6406
C78.9062 36.8281 78.2969 38.9219 75.7031 42.3125
C72.7969 46.0156 68.7031 48 63.9062 48
C57.4062 48 52.5938 44.9375 48.2969 38.1094
C46.5938 44.0469 41.2031 48 34.5 48
C28.5 48 24 45.1406 20.0938 38.9219
z
" id="Century_Schoolbook_L_Roman-109"/>
      <path d="
M45.2031 32.5781
C45.2031 38.7969 44.0938 41.9688 41.2031 44.3438
C37.9062 46.9062 33 48.2812 26.5938 48.2812
C15.4062 48.2812 7.09375 43.0469 7.09375 35.9219
C7.09375 32.1562 9.40625 29.7812 12.9062 29.7812
C16 29.7812 18.2969 31.8594 18.2969 34.8125
C18.2969 36.1094 17.7969 37.4844 16.7969 38.875
C16.2031 39.5469 16.0938 39.8438 16.0938 40.1562
C16.0938 42.2188 20.2031 44 25 44
C28.0938 44 31.5938 43.0156 33.2031 41.5312
C35.0938 39.9531 35.7969 37.5781 35.7969 33.125
L35.7969 29.2812
C25.2969 27.4844 22.0938 26.6875 17.2031 24.8125
C8.59375 21.6094 4.40625 16.9375 4.40625 10.6562
C4.40625 3.57812 10.0938 -1 18.9062 -1
C25.7969 -1 32 1.85938 36.2969 7.0625
C37.9062 1.98438 40.4062 0 45.0938 0
C49.5938 0 54.2969 2.90625 54.2969 5.78125
C54.2969 6.46875 53.7969 6.96875 53.2969 6.96875
C52.9062 6.96875 52.5 6.875 51.7969 6.57812
C50.2031 6 49.7969 5.89062 49 5.89062
C46.2031 5.89062 45.2031 7.78125 45.2031 12.7188
z

M35.7969 20.4688
C35.7969 14.4688 35.5 13.0781 33.7969 10.4844
C31.2969 6.78125 26.7031 4.29688 22.4062 4.29688
C17.9062 4.29688 14.5 7.59375 14.5 12.0781
C14.5 16.2656 16.5938 19.2656 21 21.3594
C24.0938 22.75 28 23.75 35.7969 25.0469
z
" id="Century_Schoolbook_L_Roman-97"/>
      <path d="
M13.7031 12.2812
L13.7031 9.375
C13.7031 5.1875 12.7969 4.6875 4.79688 4.6875
L2.90625 4.6875
L2.90625 0
L36.5 0
C45.4062 0 52.2031 1.39062 57.5 4.39062
C67.5938 10.0625 73.2031 21.4375 73.2031 36.3906
C73.2031 50.0625 68.2031 60.9375 59 66.9062
C53.5 70.4062 46.0938 72 34.7031 72
L2.90625 72
L2.90625 67.3125
L4.79688 67.3125
C12.7969 67.3125 13.7031 66.8125 13.7031 62.6094
L13.7031 59.7188
z

M30.5938 4.6875
C25.5938 4.6875 24.9062 5.29688 24.9062 10.1875
L24.9062 61.7188
C24.9062 66.6094 25.5938 67.3125 30.5938 67.3125
L35.7969 67.3125
C52.9062 67.3125 60 58.0469 60 36
C60 13.6562 53.5 4.6875 37.4062 4.6875
z
" id="Century_Schoolbook_L_Roman-68"/>
      <path d="
M27.9062 73.4531
C21.9062 69.7656 18.7031 67.1719 15.2969 63.1719
C7.70312 54.1875 3.59375 42.7188 3.59375 30.6406
C3.59375 19.2656 7.20312 8.57812 13.9062 -0.296875
C17.7031 -5.09375 21.0938 -8.07812 27.9062 -12.2812
L27.9062 -8.57812
C17.9062 0.203125 13.9062 11.4844 13.9062 30.6406
C13.9062 49.7969 17.9062 60.9844 27.9062 69.7656
z
" id="Century_Schoolbook_L_Roman-40"/>
      <path d="
M20.5938 46
L1.79688 46
L1.79688 41.2188
L6.90625 41.2188
C10.5938 41.2188 11.2031 40.5156 11.2031 36.2031
L11.2031 12.2969
L11.2031 8.29688
C11.2031 4.29688 10.0938 3.59375 3.70312 3.59375
L3 3.59375
L3 0
L28.9062 0
L28.9062 3.59375
L28.2031 3.59375
C21.7031 3.59375 20.5938 4.28125 20.5938 8.21875
L20.5938 12.1719
z

M15.9062 71.5781
C12.7031 71.5781 10.0938 68.9844 10.0938 65.7969
C10.0938 62.7031 12.7031 60 15.7969 60
C19.0938 60 21.7031 62.5938 21.7031 65.7969
C21.7031 68.9844 19.0938 71.5781 15.9062 71.5781" id="Century_Schoolbook_L_Roman-105"/>
      <path d="
M5.40625 -12.2812
C11.4062 -8.57812 14.5938 -5.98438 18 -1.89062
C25.5938 6.98438 29.7031 18.5625 29.7031 30.6406
C29.7031 42.0156 26.0938 52.7031 19.4062 61.4844
C15.5938 66.375 12.2031 69.3594 5.40625 73.4531
L5.40625 69.7656
C15.4062 60.9844 19.4062 49.7969 19.4062 30.6406
C19.4062 11.375 15.4062 0.203125 5.40625 -8.57812
z
" id="Century_Schoolbook_L_Roman-41"/>
      <path d="
M26 59.7188
L26 62.6094
C26 66.8125 26.9062 67.3125 34.9062 67.3125
L36.9062 67.3125
L36.9062 72
L3.79688 72
L3.79688 67.3125
L5.79688 67.3125
C13.9062 67.3125 14.7969 66.8125 14.7969 62.6094
L14.7969 59.7188
L14.7969 12.2812
L14.7969 9.375
C14.7969 5.1875 13.9062 4.6875 5.79688 4.6875
L3.79688 4.6875
L3.79688 0
L36.9062 0
L36.9062 4.6875
L34.9062 4.6875
C26.9062 4.6875 26 5.1875 26 9.375
L26 12.2812
z
" id="Century_Schoolbook_L_Roman-73"/>
      <path d="
M38.7031 15.1094
C35.5 7.96875 32.0938 5.09375 26.9062 5.09375
C18.9062 5.09375 13.9062 12.3281 13.9062 23.9375
C13.9062 35.9531 18.7969 44 26.2031 44
C29.2031 44 31.7969 42.5938 31.7969 41.0156
C31.7969 40.7188 31.5938 40.4219 31.2031 39.8125
C29.5938 37.9375 29.2031 36.9375 29.2031 35.2656
C29.2031 31.9844 31.7031 29.7031 35.2031 29.7031
C38.7031 29.7031 41.2969 32.4844 41.2969 36.4531
C41.2969 43.1094 34.5938 48.2812 25.7031 48.2812
C12.7031 48.2812 3.40625 37.6562 3.40625 22.8438
C3.40625 8.73438 11.9062 -1 24.2969 -1
C33.2031 -1 38.2969 3.07812 42.5938 13.625
z
" id="Century_Schoolbook_L_Roman-99"/>
     </defs>
     <g transform="translate(372.102718748 270.229994892)scale(0.14 -0.14)">
      <use transform="scale(0.996264009963)" xlink:href="#Century_Schoolbook_L_Roman-68"/>
      <use transform="translate(77.5083701014 0.0)scale(0.996264009963)" xlink:href="#Century_Schoolbook_L_Roman-101"/>
      <use transform="translate(127.3215706 0.0)scale(0.996264009963)" xlink:href="#Century_Schoolbook_L_Roman-112"/>
      <use transform="translate(184.507057884 0.0)scale(0.996264009963)" xlink:href="#Century_Schoolbook_L_Roman-116"/>
      <use transform="translate(223.260764078 0.0)scale(0.996264009963)" xlink:href="#Century_Schoolbook_L_Roman-104"/>
      <use transform="translate(311.827564358 0.0)scale(0.996264009963)" xlink:href="#Century_Schoolbook_L_Roman-111"/>
      <use transform="translate(361.640764856 0.0)scale(0.996264009963)" xlink:href="#Century_Schoolbook_L_Roman-102"/>
      <use transform="translate(422.511164189 0.0)scale(0.996264009963)" xlink:href="#Century_Schoolbook_L_Roman-73"/>
      <use transform="translate(463.058589494 0.0)scale(0.996264009963)" xlink:href="#Century_Schoolbook_L_Roman-110"/>
      <use transform="translate(523.93022017 0.0)scale(0.996264009963)" xlink:href="#Century_Schoolbook_L_Roman-116"/>
      <use transform="translate(562.683926365 0.0)scale(0.996264009963)" xlink:href="#Century_Schoolbook_L_Roman-101"/>
      <use transform="translate(612.497126863 0.0)scale(0.996264009963)" xlink:href="#Century_Schoolbook_L_Roman-114"/>
      <use transform="translate(656.730695561 0.0)scale(0.996264009963)" xlink:href="#Century_Schoolbook_L_Roman-97"/>
      <use transform="translate(712.122372524 0.0)scale(0.996264009963)" xlink:href="#Century_Schoolbook_L_Roman-99"/>
      <use transform="translate(756.355941221 0.0)scale(0.996264009963)" xlink:href="#Century_Schoolbook_L_Roman-116"/>
      <use transform="translate(795.109647416 0.0)scale(0.996264009963)" xlink:href="#Century_Schoolbook_L_Roman-105"/>
      <use transform="translate(826.490960412 0.0)scale(0.996264009963)" xlink:href="#Century_Schoolbook_L_Roman-111"/>
      <use transform="translate(876.30416091 0.0)scale(0.996264009963)" xlink:href="#Century_Schoolbook_L_Roman-110"/>
      <use transform="translate(964.87096119 0.0)scale(0.996264009963)" xlink:href="#Century_Schoolbook_L_Roman-40"/>
      <use transform="translate(998.04619092 0.0)scale(0.996264009963)" xlink:href="#Century_Schoolbook_L_Roman-109"/>
      <use transform="translate(1086.61309761 0.0)scale(0.996264009963)" xlink:href="#Century_Schoolbook_L_Roman-109"/>
      <use transform="translate(1175.18000431 0.0)scale(0.996264009963)" xlink:href="#Century_Schoolbook_L_Roman-41"/>
     </g>
    </g>
   </g>
   <g id="matplotlib.axis_2">
    <g id="ytick_1">
     <g id="line2d_26">
      <path clip-path="url(#p6beb79da72)" d="
M64.4951 237.882
L848.88 237.882" style="fill:none;stroke:#000000;stroke-dasharray:1.000000,3.000000;stroke-dashoffset:0.0;stroke-width:0.5;"/>
     </g>
     <g id="line2d_27">
      <defs>
       <path d="
M0 0
L4 0" id="m728421d6d4" style="stroke:#000000;stroke-width:0.5;"/>
      </defs>
      <g>
       <use style="stroke:#000000;stroke-width:0.5;" x="64.4950674959" xlink:href="#m728421d6d4" y="237.881820565"/>
      </g>
     </g>
     <g id="line2d_28">
      <defs>
       <path d="
M0 0
L-4 0" id="mcb0005524f" style="stroke:#000000;stroke-width:0.5;"/>
      </defs>
      <g>
       <use style="stroke:#000000;stroke-width:0.5;" x="848.88" xlink:href="#mcb0005524f" y="237.881820565"/>
      </g>
     </g>
     <g id="text_7">
      <!-- $0$ -->
      <g transform="translate(53.6665788693 241.731360316)scale(0.14 -0.14)">
       <use transform="scale(0.996264009963)" xlink:href="#CMR17-48"/>
      </g>
     </g>
    </g>
    <g id="ytick_2">
     <g id="line2d_29">
      <path clip-path="url(#p6beb79da72)" d="
M64.4951 206.987
L848.88 206.987" style="fill:none;stroke:#000000;stroke-dasharray:1.000000,3.000000;stroke-dashoffset:0.0;stroke-width:0.5;"/>
     </g>
     <g id="line2d_30">
      <g>
       <use style="stroke:#000000;stroke-width:0.5;" x="64.4950674959" xlink:href="#m728421d6d4" y="206.98720975"/>
      </g>
     </g>
     <g id="line2d_31">
      <g>
       <use style="stroke:#000000;stroke-width:0.5;" x="848.88" xlink:href="#mcb0005524f" y="206.98720975"/>
      </g>
     </g>
     <g id="text_8">
      <!-- $1000$ -->
      <g transform="translate(33.1811129894 210.836749501)scale(0.14 -0.14)">
       <use transform="scale(0.996264009963)" xlink:href="#CMR17-49"/>
       <use transform="translate(45.6904771171 0.0)scale(0.996264009963)" xlink:href="#CMR17-48"/>
       <use transform="translate(91.3809542341 0.0)scale(0.996264009963)" xlink:href="#CMR17-48"/>
       <use transform="translate(137.071431351 0.0)scale(0.996264009963)" xlink:href="#CMR17-48"/>
      </g>
     </g>
    </g>
    <g id="ytick_3">
     <g id="line2d_32">
      <path clip-path="url(#p6beb79da72)" d="
M64.4951 176.093
L848.88 176.093" style="fill:none;stroke:#000000;stroke-dasharray:1.000000,3.000000;stroke-dashoffset:0.0;stroke-width:0.5;"/>
     </g>
     <g id="line2d_33">
      <g>
       <use style="stroke:#000000;stroke-width:0.5;" x="64.4950674959" xlink:href="#m728421d6d4" y="176.092598935"/>
      </g>
     </g>
     <g id="line2d_34">
      <g>
       <use style="stroke:#000000;stroke-width:0.5;" x="848.88" xlink:href="#mcb0005524f" y="176.092598935"/>
      </g>
     </g>
     <g id="text_9">
      <!-- $2000$ -->
      <g transform="translate(33.1811129894 179.942138686)scale(0.14 -0.14)">
       <use transform="scale(0.996264009963)" xlink:href="#CMR17-50"/>
       <use transform="translate(45.6904771171 0.0)scale(0.996264009963)" xlink:href="#CMR17-48"/>
       <use transform="translate(91.3809542341 0.0)scale(0.996264009963)" xlink:href="#CMR17-48"/>
       <use transform="translate(137.071431351 0.0)scale(0.996264009963)" xlink:href="#CMR17-48"/>
      </g>
     </g>
    </g>
    <g id="ytick_4">
     <g id="line2d_35">
      <path clip-path="url(#p6beb79da72)" d="
M64.4951 145.198
L848.88 145.198" style="fill:none;stroke:#000000;stroke-dasharray:1.000000,3.000000;stroke-dashoffset:0.0;stroke-width:0.5;"/>
     </g>
     <g id="line2d_36">
      <g>
       <use style="stroke:#000000;stroke-width:0.5;" x="64.4950674959" xlink:href="#m728421d6d4" y="145.19798812"/>
      </g>
     </g>
     <g id="line2d_37">
      <g>
       <use style="stroke:#000000;stroke-width:0.5;" x="848.88" xlink:href="#mcb0005524f" y="145.19798812"/>
      </g>
     </g>
     <g id="text_10">
      <!-- $3000$ -->
      <defs>
       <path d="
M22.0938 33.7031
C31 33.7031 34.9062 25.9688 34.9062 17.0312
C34.9062 5 28.5 0.390625 22.7031 0.390625
C17.4062 0.390625 8.79688 3.03125 6.09375 10.8281
C6.59375 10.625 7.09375 10.625 7.59375 10.625
C10 10.625 11.7969 12.2188 11.7969 14.8125
C11.7969 17.7031 9.59375 19 7.59375 19
C5.90625 19 3.29688 18.2031 3.29688 14.4688
C3.29688 5.23438 12.2969 -2 22.9062 -2
C34 -2 42.5 6.71875 42.5 16.9531
C42.5 26.6719 34.5 33.6875 25 34.7969
C32.5938 36.375 39.9062 43.0625 39.9062 52.0156
C39.9062 59.6875 32 65.2969 23 65.2969
C13.9062 65.2969 5.90625 59.8281 5.90625 52.0156
C5.90625 48.5938 8.5 48 9.79688 48
C11.9062 48 13.7031 49.2969 13.7031 51.8906
C13.7031 54.4688 11.9062 55.7656 9.79688 55.7656
C9.40625 55.7656 8.90625 55.7656 8.5 55.5625
C11.4062 61.8594 19.2969 63 22.7969 63
C26.2969 63 32.9062 61.3281 32.9062 51.875
C32.9062 49.1094 32.5 44.1875 29.0938 39.8438
C26.0938 36 22.7031 36 19.4062 35.5938
C18.9062 35.5938 16.5938 35.5938 16.2031 35.5938
C15.5 35.4844 15.0938 35.3906 15.0938 34.5938
C15.0938 33.8125 15.2031 33.7031 17.2031 33.7031
z
" id="CMR17-51"/>
      </defs>
      <g transform="translate(33.1811129894 149.047527871)scale(0.14 -0.14)">
       <use transform="scale(0.996264009963)" xlink:href="#CMR17-51"/>
       <use transform="translate(45.6904771171 0.0)scale(0.996264009963)" xlink:href="#CMR17-48"/>
       <use transform="translate(91.3809542341 0.0)scale(0.996264009963)" xlink:href="#CMR17-48"/>
       <use transform="translate(137.071431351 0.0)scale(0.996264009963)" xlink:href="#CMR17-48"/>
      </g>
     </g>
    </g>
    <g id="ytick_5">
     <g id="line2d_38">
      <path clip-path="url(#p6beb79da72)" d="
M64.4951 114.303
L848.88 114.303" style="fill:none;stroke:#000000;stroke-dasharray:1.000000,3.000000;stroke-dashoffset:0.0;stroke-width:0.5;"/>
     </g>
     <g id="line2d_39">
      <g>
       <use style="stroke:#000000;stroke-width:0.5;" x="64.4950674959" xlink:href="#m728421d6d4" y="114.303377304"/>
      </g>
     </g>
     <g id="line2d_40">
      <g>
       <use style="stroke:#000000;stroke-width:0.5;" x="848.88" xlink:href="#mcb0005524f" y="114.303377304"/>
      </g>
     </g>
     <g id="text_11">
      <!-- $4000$ -->
      <defs>
       <path d="
M33.5938 64.3281
C33.5938 66.4062 33.5 66.5 31.7031 66.5
L2 19.5938
L2 17
L27.7969 17
L27.7969 7.14062
C27.7969 3.5 27.5938 2.5 20.5938 2.5
L18.7031 2.5
L18.7031 0
C21.9062 0 27.2969 0 30.7031 0
C34.0938 0 39.5 0 42.7031 0
L42.7031 2.5
L40.7969 2.5
C33.7969 2.5 33.5938 3.5 33.5938 7.14062
L33.5938 17
L43.7969 17
L43.7969 19.5938
L33.5938 19.5938
z

M28.0938 57.7656
L28.0938 19.5938
L4 19.5938
z
" id="CMR17-52"/>
      </defs>
      <g transform="translate(33.1811129894 118.152917055)scale(0.14 -0.14)">
       <use transform="scale(0.996264009963)" xlink:href="#CMR17-52"/>
       <use transform="translate(45.6904771171 0.0)scale(0.996264009963)" xlink:href="#CMR17-48"/>
       <use transform="translate(91.3809542341 0.0)scale(0.996264009963)" xlink:href="#CMR17-48"/>
       <use transform="translate(137.071431351 0.0)scale(0.996264009963)" xlink:href="#CMR17-48"/>
      </g>
     </g>
    </g>
    <g id="ytick_6">
     <g id="line2d_41">
      <path clip-path="url(#p6beb79da72)" d="
M64.4951 83.4088
L848.88 83.4088" style="fill:none;stroke:#000000;stroke-dasharray:1.000000,3.000000;stroke-dashoffset:0.0;stroke-width:0.5;"/>
     </g>
     <g id="line2d_42">
      <g>
       <use style="stroke:#000000;stroke-width:0.5;" x="64.4950674959" xlink:href="#m728421d6d4" y="83.4087664892"/>
      </g>
     </g>
     <g id="line2d_43">
      <g>
       <use style="stroke:#000000;stroke-width:0.5;" x="848.88" xlink:href="#mcb0005524f" y="83.4087664892"/>
      </g>
     </g>
     <g id="text_12">
      <!-- $5000$ -->
      <g transform="translate(33.1811129894 87.25830624)scale(0.14 -0.14)">
       <use transform="scale(0.996264009963)" xlink:href="#CMR17-53"/>
       <use transform="translate(45.6904771171 0.0)scale(0.996264009963)" xlink:href="#CMR17-48"/>
       <use transform="translate(91.3809542341 0.0)scale(0.996264009963)" xlink:href="#CMR17-48"/>
       <use transform="translate(137.071431351 0.0)scale(0.996264009963)" xlink:href="#CMR17-48"/>
      </g>
     </g>
    </g>
    <g id="ytick_7">
     <g id="line2d_44">
      <path clip-path="url(#p6beb79da72)" d="
M64.4951 52.5142
L848.88 52.5142" style="fill:none;stroke:#000000;stroke-dasharray:1.000000,3.000000;stroke-dashoffset:0.0;stroke-width:0.5;"/>
     </g>
     <g id="line2d_45">
      <g>
       <use style="stroke:#000000;stroke-width:0.5;" x="64.4950674959" xlink:href="#m728421d6d4" y="52.5141556739"/>
      </g>
     </g>
     <g id="line2d_46">
      <g>
       <use style="stroke:#000000;stroke-width:0.5;" x="848.88" xlink:href="#mcb0005524f" y="52.5141556739"/>
      </g>
     </g>
     <g id="text_13">
      <!-- $6000$ -->
      <defs>
       <path d="
M10.5938 34
C10.5938 57.6562 21.7969 63 28.2969 63
C30.4062 63 35.5 62.6406 37.5 59
C35.9062 59 32.9062 59 32.9062 55.5156
C32.9062 52.8281 35.0938 51.9219 36.5 51.9219
C37.4062 51.9219 40.0938 52.3125 40.0938 55.625
C40.0938 61.7812 35.0938 65.2969 28.2031 65.2969
C16.2969 65.2969 3.79688 52.9688 3.79688 31
C3.79688 3.95312 15.0938 -2 23.0938 -2
C32.7969 -2 42 6.67188 42 20.0469
C42 32.5156 33.9062 41.5938 23.7031 41.5938
C17.5938 41.5938 13.0938 37.6094 10.5938 30.625
z

M23.0938 0.390625
C10.7969 0.390625 10.7969 18.75 10.7969 22.4375
C10.7969 29.625 14.2031 40 23.5 40
C25.2031 40 30.0938 40 33.4062 33.125
C35.2031 29.2188 35.2031 25.1406 35.2031 20.1406
C35.2031 14.75 35.2031 10.7812 33.0938 6.78125
C30.9062 2.67188 27.7031 0.390625 23.0938 0.390625" id="CMR17-54"/>
      </defs>
      <g transform="translate(33.1811129894 56.3636954247)scale(0.14 -0.14)">
       <use transform="scale(0.996264009963)" xlink:href="#CMR17-54"/>
       <use transform="translate(45.6904771171 0.0)scale(0.996264009963)" xlink:href="#CMR17-48"/>
       <use transform="translate(91.3809542341 0.0)scale(0.996264009963)" xlink:href="#CMR17-48"/>
       <use transform="translate(137.071431351 0.0)scale(0.996264009963)" xlink:href="#CMR17-48"/>
      </g>
     </g>
    </g>
    <g id="ytick_8">
     <g id="line2d_47">
      <path clip-path="url(#p6beb79da72)" d="
M64.4951 21.6195
L848.88 21.6195" style="fill:none;stroke:#000000;stroke-dasharray:1.000000,3.000000;stroke-dashoffset:0.0;stroke-width:0.5;"/>
     </g>
     <g id="line2d_48">
      <g>
       <use style="stroke:#000000;stroke-width:0.5;" x="64.4950674959" xlink:href="#m728421d6d4" y="21.6195448586"/>
      </g>
     </g>
     <g id="line2d_49">
      <g>
       <use style="stroke:#000000;stroke-width:0.5;" x="848.88" xlink:href="#mcb0005524f" y="21.6195448586"/>
      </g>
     </g>
     <g id="text_14">
      <!-- $7000$ -->
      <defs>
       <path d="
M45.0938 61.5781
L45.0938 63.7656
L21.5938 63.7656
C9.90625 63.7656 9.70312 65.0781 9.29688 67
L7.5 67
L4.59375 48.3438
L6.40625 48.3438
C6.70312 50.2344 7.40625 55.3125 8.59375 57.2031
C9.20312 58 16.5938 58 18.2969 58
L40.2969 58
L29.2031 41.5781
C21.7969 30.5312 16.7031 15.6094 16.7031 2.57812
C16.7031 1.39062 16.7031 -2 20.2969 -2
C23.9062 -2 23.9062 1.39062 23.9062 2.67188
L23.9062 7.26562
C23.9062 23.5625 26.7031 34.3125 31.2969 41.1875
z
" id="CMR17-55"/>
      </defs>
      <g transform="translate(33.1811129894 25.4690846095)scale(0.14 -0.14)">
       <use transform="scale(0.996264009963)" xlink:href="#CMR17-55"/>
       <use transform="translate(45.6904771171 0.0)scale(0.996264009963)" xlink:href="#CMR17-48"/>
       <use transform="translate(91.3809542341 0.0)scale(0.996264009963)" xlink:href="#CMR17-48"/>
       <use transform="translate(137.071431351 0.0)scale(0.996264009963)" xlink:href="#CMR17-48"/>
      </g>
     </g>
    </g>
    <g id="text_15">
     <!-- Number of $\gamma\gamma$ events detected -->
     <defs>
      <path d="
M41.2031 0
L59.4062 0
L59.4062 4.70312
L56.9062 4.70312
C51.4062 4.70312 50.5938 5.59375 50.5938 11.9531
L50.5938 46.7812
L31.7969 46.7812
L31.7969 42
L36.9062 42
C40.5938 42 41.2031 41.2969 41.2031 36.9531
L41.2031 24.5625
C41.2031 18.8125 40.5938 15.4844 39.0938 12.1562
C37 7.71875 33 5.09375 28.0938 5.09375
C25 5.09375 22.4062 6.1875 21.0938 8.17188
C19.7969 10.0469 19.5938 11.0469 19.5938 16.5
L19.5938 46.7812
L2.09375 46.7812
L2.09375 42
L5.90625 42
C9.59375 42 10.2031 41.2969 10.2031 36.9531
L10.2031 15.2188
C10.2031 10.0781 10.5938 7.76562 12.0938 5.45312
C14.7969 1.3125 19.5938 -1 25.5938 -1
C32.2031 -1 36.7969 1.71875 41.2031 8.125
z
" id="Century_Schoolbook_L_Roman-117"/>
      <path d="
M39 48
L35.5 48
L32.5938 44.4062
C29 47.2031 25.4062 48.3906 20.4062 48.3906
C11.5938 48.3906 5.79688 42.625 5.79688 33.9531
C5.79688 30.0781 7.09375 26.7812 9.29688 24.8125
C11.5938 22.7031 13.9062 21.7188 19.9062 20.3125
L25.2031 19.125
C33.0938 17.2344 35.9062 15.2344 35.9062 11.2656
C35.9062 6.57812 31.7969 3.29688 25.9062 3.29688
C17.5 3.29688 11.5 8.76562 9.09375 18.875
L5.09375 18.875
L5.09375 0
L8.59375 0
L12.0938 3.90625
C16.2031 0.59375 20.7969 -1 25.7969 -1
C35.5938 -1 42.0938 5.07812 42.0938 14.3438
C42.0938 18.7188 40.7031 22.0938 37.9062 24.3906
C35.5 26.4844 33.5 27.2812 27.4062 28.5625
L22.4062 29.6719
C16.9062 30.8594 16.9062 30.8594 15.0938 31.8594
C12.9062 32.8594 11.5938 34.9375 11.5938 37.1406
C11.5938 41.1094 15.4062 44 20.9062 44
C24.7031 44 27.7969 42.7031 30.5938 40.0156
C32.7969 37.8125 33.9062 35.8281 35.5 31.2344
L39 31.2344
z
" id="Century_Schoolbook_L_Roman-115"/>
      <path d="
M18 73
L0.796875 73
L0.796875 68.2188
L4.29688 68.2188
C8 68.2188 8.59375 67.5156 8.59375 63.25
L8.59375 24.625
C8.59375 11.3125 8.09375 4.84375 6.79688 -1
L10.5938 -1
L15.5 6.75
C19.5938 1.45312 24.2969 -1 30.5 -1
C42.7969 -1 52 9.59375 52 23.8281
C52 38.0781 43.5938 48.0781 31.5938 48.0781
C25.5 48.0781 21.7969 46 18 40.3281
z

M29.7969 43
C37.2969 43 41.5 35.7656 41.5 22.7969
C41.5 10.3125 37.4062 3.1875 30.0938 3.1875
C22.2031 3.1875 17.5 10.4062 17.5 22.5938
C17.5 35.7656 21.7969 43 29.7969 43" id="Century_Schoolbook_L_Roman-98"/>
      <path d="
M38 0
L55.4062 0
L55.4062 4.70312
L53.5938 4.70312
C48.2031 4.70312 47.4062 5.70312 47.4062 11.9688
L47.4062 73.7812
L27.7969 73.7812
L27.7969 69
L33.7031 69
C37.2969 69 38 68.2812 38 63.9219
L38 41
C34.2969 46.0938 30 48.3906 24.2031 48.3906
C12.9062 48.3906 4.29688 37.5469 4.29688 23.2031
C4.29688 9.0625 12.5938 -1 24.2031 -1
C30.5 -1 34.7969 1.67188 38 7.59375
z

M26.2031 43
C30.2969 43 34.2031 40.0312 36 35.4375
C37.2031 32.4531 37.9062 28.2812 37.9062 23.5156
C37.9062 11.9688 33.2969 4.39062 26.0938 4.39062
C19.0938 4.39062 14.7969 10.9688 14.7969 22.0156
C14.7969 27.8906 15.4062 32.3594 16.7031 35.7344
C18.4062 40.125 22.0938 43 26.2031 43" id="Century_Schoolbook_L_Roman-100"/>
      <path d="
M22.5 72
L1.90625 72
L1.90625 67.3125
L4.40625 67.3125
C9.5 67.3125 11.7969 66.5 13.5938 64.0156
L13.5938 21.5
C13.5938 7.78125 11.5938 4.89062 2 4.89062
L2 0
L30.5 0
L30.5 4.89062
C21 4.89062 19 7.79688 19 21.5
L19 58.6406
L63.5938 -1.6875
L67.7969 -1.6875
L67.7969 50.5938
C67.7969 64.3906 69.7969 67.3125 79.4062 67.3125
L79.4062 72
L50.9062 72
L50.9062 67.3125
C60.4062 67.3125 62.4062 64.4062 62.4062 50.625
L62.4062 19.0469
z
" id="Century_Schoolbook_L_Roman-78"/>
      <path d="
M29.5 12.0938
L18.0938 38.5938
C17.7969 39.2031 17.5938 40.0938 17.5938 40.7031
C17.5938 42.3906 18.9062 43 23 43
L24.4062 43
L24.4062 46.5938
L0.796875 46.5938
L0.796875 43
L1.59375 43
C5.40625 43 6.79688 42.0938 8.20312 38.7031
L25.4062 -1.5
L28.9062 -1.5
L43.0938 33.5938
C45.7969 40.2031 48.5938 43 52.4062 43
L52.7969 43
L52.7969 46.5938
L32.7969 46.5938
L32.7969 43
L34.2031 43
C37.7031 43 39.5938 41.7969 39.5938 39.5
C39.5938 38.3906 39.2031 36.7969 38.7031 35.2969
z
" id="Century_Schoolbook_L_Roman-118"/>
      <path d="
M37.7969 12.0781
C37.5938 16.9844 37.4062 24.6875 33.5938 33.7031
C31.5938 38.7031 28.2031 44 20.9062 44
C8.59375 44 1.90625 28.3125 1.90625 25.7031
C1.90625 24.7969 2.59375 24.7969 2.90625 24.7969
C3.79688 24.7969 3.79688 25 4.29688 26.2969
C6.40625 32.5156 12.7969 37.4219 19.7031 37.4219
C33.5938 37.4219 35.5938 21.8906 35.5938 11.9844
C35.5938 5.65625 34.9062 3.5625 34.2969 1.5625
C32.4062 -4.64062 29.0938 -17.0625 29.0938 -19.875
C29.0938 -20.6719 29.4062 -21.5781 30.2031 -21.5781
C31.7031 -21.5781 32.5938 -18.2656 33.7031 -14.25
C36.0938 -5.45312 36.7031 -1.04688 37.2031 2.95312
C37.5 5.35938 43.2031 21.875 51.0938 37.6094
C51.7969 39.2031 53.2031 41.9062 53.2031 42.2031
C53.2031 42.3125 53.0938 43.0156 52.2031 43.0156
C52 43.0156 51.5 43.0156 51.2969 42.6094
C51.0938 42.4062 47.5938 35.6094 44.5938 28.7969
C43.0938 25.4062 41.0938 20.8906 37.7969 12.0781" id="CMMI12-13"/>
     </defs>
     <g transform="translate(25.4690846095 225.672067303)rotate(-90.0)scale(0.14 -0.14)">
      <use transform="scale(0.996264009963)" xlink:href="#Century_Schoolbook_L_Roman-78"/>
      <use transform="translate(81.1945134943 0.0)scale(0.996264009963)" xlink:href="#Century_Schoolbook_L_Roman-117"/>
      <use transform="translate(142.066144171 0.0)scale(0.996264009963)" xlink:href="#Century_Schoolbook_L_Roman-109"/>
      <use transform="translate(230.633050864 0.0)scale(0.996264009963)" xlink:href="#Century_Schoolbook_L_Roman-98"/>
      <use transform="translate(286.024727827 0.0)scale(0.996264009963)" xlink:href="#Century_Schoolbook_L_Roman-101"/>
      <use transform="translate(335.837928325 0.0)scale(0.996264009963)" xlink:href="#Century_Schoolbook_L_Roman-114"/>
      <use transform="translate(407.766666626 0.0)scale(0.996264009963)" xlink:href="#Century_Schoolbook_L_Roman-111"/>
      <use transform="translate(457.579867124 0.0)scale(0.996264009963)" xlink:href="#Century_Schoolbook_L_Roman-102"/>
      <use transform="translate(518.450266457 0.0)scale(0.996264009963)" xlink:href="#CMMI12-13"/>
      <use transform="translate(574.468834522 0.0)scale(0.996264009963)" xlink:href="#CMMI12-13"/>
      <use transform="translate(658.18257219 0.0)scale(0.996264009963)" xlink:href="#Century_Schoolbook_L_Roman-101"/>
      <use transform="translate(707.995772688 0.0)scale(0.996264009963)" xlink:href="#Century_Schoolbook_L_Roman-118"/>
      <use transform="translate(761.495116579 0.0)scale(0.996264009963)" xlink:href="#Century_Schoolbook_L_Roman-101"/>
      <use transform="translate(811.308317078 0.0)scale(0.996264009963)" xlink:href="#Century_Schoolbook_L_Roman-110"/>
      <use transform="translate(872.179947755 0.0)scale(0.996264009963)" xlink:href="#Century_Schoolbook_L_Roman-116"/>
      <use transform="translate(910.933653949 0.0)scale(0.996264009963)" xlink:href="#Century_Schoolbook_L_Roman-115"/>
      <use transform="translate(984.754634111 0.0)scale(0.996264009963)" xlink:href="#Century_Schoolbook_L_Roman-100"/>
      <use transform="translate(1041.9401214 0.0)scale(0.996264009963)" xlink:href="#Century_Schoolbook_L_Roman-101"/>
      <use transform="translate(1091.75332189 0.0)scale(0.996264009963)" xlink:href="#Century_Schoolbook_L_Roman-116"/>
      <use transform="translate(1130.50702809 0.0)scale(0.996264009963)" xlink:href="#Century_Schoolbook_L_Roman-101"/>
      <use transform="translate(1180.32022859 0.0)scale(0.996264009963)" xlink:href="#Century_Schoolbook_L_Roman-99"/>
      <use transform="translate(1224.55379728 0.0)scale(0.996264009963)" xlink:href="#Century_Schoolbook_L_Roman-116"/>
      <use transform="translate(1263.30750348 0.0)scale(0.996264009963)" xlink:href="#Century_Schoolbook_L_Roman-101"/>
      <use transform="translate(1313.12070398 0.0)scale(0.996264009963)" xlink:href="#Century_Schoolbook_L_Roman-100"/>
     </g>
    </g>
   </g>
   <g id="patch_3">
    <path d="
M64.4951 21.6195
L848.88 21.6195" style="fill:none;stroke:#000000;"/>
   </g>
   <g id="patch_4">
    <path d="
M848.88 237.882
L848.88 21.6195" style="fill:none;stroke:#000000;"/>
   </g>
   <g id="patch_5">
    <path d="
M64.4951 237.882
L848.88 237.882" style="fill:none;stroke:#000000;"/>
   </g>
   <g id="patch_6">
    <path d="
M64.4951 237.882
L64.4951 21.6195" style="fill:none;stroke:#000000;"/>
   </g>
   <g id="legend_1">
    <g id="patch_7">
     <path d="
M314.657 59.0585
L840.48 59.0585
L840.48 30.0195
L314.657 30.0195
L314.657 59.0585
z
" style="fill:#ffffff;stroke:#000000;"/>
    </g>
    <g id="LineCollection_4">
     <defs>
      <path d="
M326.417 -236.322
L326.417 -253.122" id="C3_0_eba0acf9e2"/>
      <path d="
M349.937 -236.322
L349.937 -253.122" id="C3_1_5df9d558bd"/>
     </defs>
     <use style="fill:none;stroke:#0000ff;" x="0.0" xlink:href="#C3_0_eba0acf9e2" y="288.0"/>
     <use style="fill:none;stroke:#0000ff;" x="0.0" xlink:href="#C3_1_5df9d558bd" y="288.0"/>
    </g>
    <g id="line2d_50">
     <g>
      <use style="fill:#0000ff;stroke:#0000ff;stroke-width:0.5;" x="326.417202045" xlink:href="#mdde457ef1d" y="51.6784433496"/>
      <use style="fill:#0000ff;stroke:#0000ff;stroke-width:0.5;" x="349.937202045" xlink:href="#mdde457ef1d" y="51.6784433496"/>
     </g>
    </g>
    <g id="line2d_51">
     <g>
      <use style="fill:#0000ff;stroke:#0000ff;stroke-width:0.5;" x="326.417202045" xlink:href="#mdde457ef1d" y="34.8784433496"/>
      <use style="fill:#0000ff;stroke:#0000ff;stroke-width:0.5;" x="349.937202045" xlink:href="#mdde457ef1d" y="34.8784433496"/>
     </g>
    </g>
    <g id="line2d_52"/>
    <g id="line2d_53">
     <g>
      <use style="fill:#0000ff;stroke:#0000ff;stroke-width:0.5;" x="326.417202045" xlink:href="#m76a7ce5b4a" y="43.2784433496"/>
      <use style="fill:#0000ff;stroke:#0000ff;stroke-width:0.5;" x="349.937202045" xlink:href="#m76a7ce5b4a" y="43.2784433496"/>
     </g>
    </g>
    <g id="text_16">
     <!-- Partially Wrapped -->
     <defs>
      <path d="
M34.9062 18.0156
L20.5 62.7969
C20.2031 63.7188 20 64.8125 20 65.3125
C20 66.8125 21.0938 67.3125 24.2969 67.3125
L28.7969 67.3125
L28.7969 72
L0.59375 72
L0.59375 67.3125
L2.5 67.3125
C6.70312 67.3125 7.29688 66.9062 8.5 63.4062
L30.0938 -1.6875
L34.4062 -1.6875
L49.2031 48.0156
L65.4062 -1.6875
L69.5 -1.6875
L87.0938 57.0156
C88.2031 60.9062 88.7031 62.0938 89.7969 63.7188
C91.4062 66.1094 93.9062 67.3125 97.2031 67.3125
L97.5938 67.3125
L97.5938 72
L73.0938 72
L73.0938 67.3125
L73.9062 67.3125
C79.7031 67.3125 82.5 65.6094 82.5 62.0938
C82.5 61.1094 82.2969 59.7031 81.9062 58.6094
L69.9062 18.0156
L56.0938 61.7969
C55.5 63.7188 55.4062 63.9062 55.4062 64.6094
C55.4062 65.5156 56 66.4062 56.9062 66.8125
C58 67.2031 58.7031 67.3125 62.5938 67.3125
L64.2031 67.3125
L64.2031 72
L35.2969 72
L35.2969 67.3125
L37.5938 67.3125
C41.7031 67.3125 43.0938 66.6094 43.9062 64.2188
L46.5 56.4062
z
" id="Century_Schoolbook_L_Roman-87"/>
      <path d="
M20.4062 73
L1.90625 73
L1.90625 68.2188
L6.79688 68.2188
C10.4062 68.2188 11 67.5156 11 63.2188
L11 12.2812
L11 8.28125
C11 4.29688 9.90625 3.59375 3.5 3.59375
L2.79688 3.59375
L2.79688 0
L28.7031 0
L28.7031 3.59375
L28 3.59375
C21.5 3.59375 20.4062 4.29688 20.4062 8.25
L20.4062 12.2188
z
" id="Century_Schoolbook_L_Roman-108"/>
      <path d="
M30 13.2031
L19 38.8125
C18.5938 39.7031 18.4062 40.4062 18.4062 40.9062
C18.4062 42.7031 19.5938 43.4062 23 43.4062
L25.0938 43.4062
L25.0938 47
L1.29688 47
L1.29688 43.4062
L2.40625 43.4062
C5.59375 43.4062 7.40625 42 9.20312 38.0156
L25.5 1.23438
L23.7969 -2.26562
C20.2031 -9.82812 15.5 -15.1094 12.2969 -15.1094
C11.4062 -15.1094 10.7031 -14.7031 10.7031 -14.1094
C10.7031 -13.9062 10.7969 -13.6094 10.9062 -13.2031
C11.2031 -12.3125 11.4062 -11.4219 11.4062 -10.625
C11.4062 -8.03125 9.20312 -6.14062 6.29688 -6.14062
C2.79688 -6.14062 0.296875 -8.73438 0.296875 -12.3281
C0.296875 -16.7031 4.20312 -20 9.40625 -20
C14.7031 -20 19.2031 -17.4062 23.2031 -12.0312
C26.2969 -7.84375 28.2969 -3.84375 32.7031 7.21875
L44.0938 35.3281
C46.5938 41.4062 48.7031 43.4062 52.5 43.4062
L53.0938 43.4062
L53.0938 47
L33.0938 47
L33.0938 43.4062
L34.7031 43.4062
C38.5 43.4062 40.0938 42.2969 40.0938 39.7031
C40.0938 38.7031 39.7969 37.4219 39.0938 35.7344
z
" id="Century_Schoolbook_L_Roman-121"/>
      <path d="
M24.7969 32
L36.0938 32
C45.0938 32 49.7969 32.7031 53.7969 34.5938
C60.9062 38 64.9062 44.3594 64.9062 52.25
C64.9062 59.8438 61.4062 65.6094 54.7969 68.9062
C50.9062 70.9062 44.7031 72 37.7969 72
L2.79688 72
L2.79688 67.3125
L4.59375 67.3125
C12.7031 67.3125 13.5938 66.8125 13.5938 62.6094
L13.5938 59.7188
L13.5938 12.2812
L13.5938 9.375
C13.5938 5.1875 12.7031 4.6875 4.59375 4.6875
L2.79688 4.6875
L2.79688 0
L36.4062 0
L36.4062 4.6875
L33.7969 4.6875
C25.7031 4.6875 24.7969 5.1875 24.7969 9.375
L24.7969 12.2656
z

M24.7969 36.7031
L24.7969 62.2188
C24.7969 66.8125 25.4062 67.3125 30.9062 67.3125
L37.2969 67.3125
C47.7031 67.3125 52.5938 62.4219 52.5938 51.8594
C52.5938 41.5938 47.5 36.7031 36.9062 36.7031
z
" id="Century_Schoolbook_L_Roman-80"/>
     </defs>
     <g transform="translate(368.417202045 49.1584433496)scale(0.168 -0.168)">
      <use transform="scale(0.996264009963)" xlink:href="#Century_Schoolbook_L_Roman-80"/>
      <use transform="translate(62.7638725385 0.0)scale(0.996264009963)" xlink:href="#Century_Schoolbook_L_Roman-97"/>
      <use transform="translate(118.155549502 0.0)scale(0.996264009963)" xlink:href="#Century_Schoolbook_L_Roman-114"/>
      <use transform="translate(162.389118199 0.0)scale(0.996264009963)" xlink:href="#Century_Schoolbook_L_Roman-116"/>
      <use transform="translate(201.142824394 0.0)scale(0.996264009963)" xlink:href="#Century_Schoolbook_L_Roman-105"/>
      <use transform="translate(232.52413739 0.0)scale(0.996264009963)" xlink:href="#Century_Schoolbook_L_Roman-97"/>
      <use transform="translate(287.915814353 0.0)scale(0.996264009963)" xlink:href="#Century_Schoolbook_L_Roman-108"/>
      <use transform="translate(319.29712735 0.0)scale(0.996264009963)" xlink:href="#Century_Schoolbook_L_Roman-108"/>
      <use transform="translate(350.678440346 0.0)scale(0.996264009963)" xlink:href="#Century_Schoolbook_L_Roman-121"/>
      <use transform="translate(431.87295384 0.0)scale(0.996264009963)" xlink:href="#Century_Schoolbook_L_Roman-87"/>
      <use transform="translate(529.605866429 0.0)scale(0.996264009963)" xlink:href="#Century_Schoolbook_L_Roman-114"/>
      <use transform="translate(573.839435126 0.0)scale(0.996264009963)" xlink:href="#Century_Schoolbook_L_Roman-97"/>
      <use transform="translate(629.231112089 0.0)scale(0.996264009963)" xlink:href="#Century_Schoolbook_L_Roman-112"/>
      <use transform="translate(686.416599373 0.0)scale(0.996264009963)" xlink:href="#Century_Schoolbook_L_Roman-112"/>
      <use transform="translate(743.602086657 0.0)scale(0.996264009963)" xlink:href="#Century_Schoolbook_L_Roman-101"/>
      <use transform="translate(793.415287156 0.0)scale(0.996264009963)" xlink:href="#Century_Schoolbook_L_Roman-100"/>
     </g>
    </g>
    <g id="LineCollection_5">
     <defs>
      <path d="
M549.958 -236.322
L549.958 -253.122" id="C4_0_be91dccd1e"/>
      <path d="
M573.478 -236.322
L573.478 -253.122" id="C4_1_a1fef479c9"/>
     </defs>
     <use style="fill:none;stroke:#ff0000;" x="0.0" xlink:href="#C4_0_be91dccd1e" y="288.0"/>
     <use style="fill:none;stroke:#ff0000;" x="0.0" xlink:href="#C4_1_a1fef479c9" y="288.0"/>
    </g>
    <g id="line2d_54">
     <g>
      <use style="fill:#ff0000;stroke:#ff0000;stroke-width:0.5;" x="549.958076087" xlink:href="#m12d35e2592" y="51.6784433496"/>
      <use style="fill:#ff0000;stroke:#ff0000;stroke-width:0.5;" x="573.478076087" xlink:href="#m12d35e2592" y="51.6784433496"/>
     </g>
    </g>
    <g id="line2d_55">
     <g>
      <use style="fill:#ff0000;stroke:#ff0000;stroke-width:0.5;" x="549.958076087" xlink:href="#m12d35e2592" y="34.8784433496"/>
      <use style="fill:#ff0000;stroke:#ff0000;stroke-width:0.5;" x="573.478076087" xlink:href="#m12d35e2592" y="34.8784433496"/>
     </g>
    </g>
    <g id="line2d_56"/>
    <g id="line2d_57">
     <g>
      <use style="fill:#ff0000;stroke:#ff0000;stroke-width:0.5;" x="549.958076087" xlink:href="#ma07bdd5909" y="43.2784433496"/>
      <use style="fill:#ff0000;stroke:#ff0000;stroke-width:0.5;" x="573.478076087" xlink:href="#ma07bdd5909" y="43.2784433496"/>
     </g>
    </g>
    <g id="text_17">
     <!-- Unwrapped -->
     <defs>
      <path d="
M68.2969 50.5469
C68.2969 64.2188 70.2969 67.1094 79.9062 67.1094
L79.9062 72
L51.4062 72
L51.4062 67.1094
C60.9062 67.1094 62.9062 64.2188 62.9062 50.5312
L62.9062 28.4688
C62.9062 20.4844 62.4062 17.2812 60.5 13.7812
C57.2969 7.59375 50.7969 4 42.7031 4
C35.9062 4 30 6.57812 26.7031 11.0469
C24 14.7188 23.5 17.0938 23.5 26.3281
L23.5 59.5625
L23.5 62.4375
C23.5 66.6094 24.4062 67.1094 32.5 67.1094
L34.4062 67.1094
L34.4062 72
L1.70312 72
L1.70312 67.1094
L3.40625 67.1094
C11.4062 67.1094 12.2969 66.6094 12.2969 62.4375
L12.2969 59.5625
L12.2969 26.9062
L12.2969 20.0469
C12.5938 14.7812 13.4062 11.6094 15.2969 8.82812
C19.9062 2.29688 28.7031 -1.39062 40 -1.39062
C51.2969 -1.39062 59.0938 2 63.9062 9.09375
C67.0938 13.6875 68.2969 18.9844 68.2969 27.875
z
" id="Century_Schoolbook_L_Roman-85"/>
      <path d="
M54.7031 12.9062
L44.9062 38.6094
C44.5938 39.2969 44.5 39.7969 44.5 40.7031
C44.5 42.5 45.4062 43 48.7031 43
L51.0938 43
L51.0938 46.5938
L28.7031 46.5938
L28.7031 43
L30.4062 43
C33.5 43 34.7031 42.2031 35.5938 39.2969
L36.5 36.6875
L27.7031 13.4062
L18 38.5
C17.7969 39.2031 17.5938 40.0938 17.5938 40.7031
C17.5938 42.3906 18.7031 43 21.7031 43
L23.5 43
L23.5 46.5938
L1.5 46.5938
L1.5 43
L3.29688 43
C6.09375 43 7.09375 42.0938 8.5 38.0938
L23.5 -1.5
L27 -1.5
L38.9062 30.0938
L51.0938 -1.5
L54.2031 -1.5
L68.2031 35.3906
C70.4062 41.2969 72.0938 43 75.5938 43
L76.2969 43
L76.2969 46.5938
L57.4062 46.5938
L57.4062 43
L59.0938 43
C62.5938 43 64 41.8906 64 39.4062
C64 38.4062 63.7031 36.8906 63.2031 35.6875
z
" id="Century_Schoolbook_L_Roman-119"/>
     </defs>
     <g transform="translate(591.958076087 49.1584433496)scale(0.168 -0.168)">
      <use transform="scale(0.996264009963)" xlink:href="#Century_Schoolbook_L_Roman-85"/>
      <use transform="translate(81.1945134943 0.0)scale(0.996264009963)" xlink:href="#Century_Schoolbook_L_Roman-110"/>
      <use transform="translate(142.066144171 0.0)scale(0.996264009963)" xlink:href="#Century_Schoolbook_L_Roman-119"/>
      <use transform="translate(219.574514273 0.0)scale(0.996264009963)" xlink:href="#Century_Schoolbook_L_Roman-114"/>
      <use transform="translate(263.80808297 0.0)scale(0.996264009963)" xlink:href="#Century_Schoolbook_L_Roman-97"/>
      <use transform="translate(319.199759933 0.0)scale(0.996264009963)" xlink:href="#Century_Schoolbook_L_Roman-112"/>
      <use transform="translate(376.385247217 0.0)scale(0.996264009963)" xlink:href="#Century_Schoolbook_L_Roman-112"/>
      <use transform="translate(433.570734501 0.0)scale(0.996264009963)" xlink:href="#Century_Schoolbook_L_Roman-101"/>
      <use transform="translate(483.383935 0.0)scale(0.996264009963)" xlink:href="#Century_Schoolbook_L_Roman-100"/>
     </g>
    </g>
    <g id="LineCollection_6">
     <defs>
      <path d="
M721.414 -236.322
L721.414 -253.122" id="C5_0_468d825066"/>
      <path d="
M744.934 -236.322
L744.934 -253.122" id="C5_1_babfadb495"/>
     </defs>
     <use style="fill:none;stroke:#008000;" x="0.0" xlink:href="#C5_0_468d825066" y="288.0"/>
     <use style="fill:none;stroke:#008000;" x="0.0" xlink:href="#C5_1_babfadb495" y="288.0"/>
    </g>
    <g id="line2d_58">
     <g>
      <use style="fill:#008000;stroke:#008000;stroke-width:0.5;" x="721.413736841" xlink:href="#m1ef3793437" y="51.6784433496"/>
      <use style="fill:#008000;stroke:#008000;stroke-width:0.5;" x="744.933736841" xlink:href="#m1ef3793437" y="51.6784433496"/>
     </g>
    </g>
    <g id="line2d_59">
     <g>
      <use style="fill:#008000;stroke:#008000;stroke-width:0.5;" x="721.413736841" xlink:href="#m1ef3793437" y="34.8784433496"/>
      <use style="fill:#008000;stroke:#008000;stroke-width:0.5;" x="744.933736841" xlink:href="#m1ef3793437" y="34.8784433496"/>
     </g>
    </g>
    <g id="line2d_60"/>
    <g id="line2d_61">
     <g>
      <use style="fill:#008000;stroke:#008000;stroke-width:0.5;" x="721.413736841" xlink:href="#mb0b177905e" y="43.2784433496"/>
      <use style="fill:#008000;stroke:#008000;stroke-width:0.5;" x="744.933736841" xlink:href="#mb0b177905e" y="43.2784433496"/>
     </g>
    </g>
    <g id="text_18">
     <!-- Wrapped -->
     <g transform="translate(763.413736841 49.1584433496)scale(0.168 -0.168)">
      <use transform="scale(0.996264009963)" xlink:href="#Century_Schoolbook_L_Roman-87"/>
      <use transform="translate(97.7329125885 0.0)scale(0.996264009963)" xlink:href="#Century_Schoolbook_L_Roman-114"/>
      <use transform="translate(141.966481286 0.0)scale(0.996264009963)" xlink:href="#Century_Schoolbook_L_Roman-97"/>
      <use transform="translate(197.358158249 0.0)scale(0.996264009963)" xlink:href="#Century_Schoolbook_L_Roman-112"/>
      <use transform="translate(254.543645533 0.0)scale(0.996264009963)" xlink:href="#Century_Schoolbook_L_Roman-112"/>
      <use transform="translate(311.729132817 0.0)scale(0.996264009963)" xlink:href="#Century_Schoolbook_L_Roman-101"/>
      <use transform="translate(361.542333315 0.0)scale(0.996264009963)" xlink:href="#Century_Schoolbook_L_Roman-100"/>
     </g>
    </g>
   </g>
  </g>
 </g>
 <defs>
  <clipPath id="p6beb79da72">
   <rect height="216.262275707" width="784.384932504" x="64.4950674959" y="21.6195448586"/>
  </clipPath>
 </defs>
</svg>
