<?xml version="1.0" encoding="utf-8" standalone="no"?>
<!DOCTYPE svg PUBLIC "-//W3C//DTD SVG 1.1//EN"
  "http://www.w3.org/Graphics/SVG/1.1/DTD/svg11.dtd">
<!-- Created with matplotlib (http://matplotlib.org/) -->
<svg height="288pt" version="1.1" viewBox="0 0 864 288" width="864pt" xmlns="http://www.w3.org/2000/svg" xmlns:xlink="http://www.w3.org/1999/xlink">
 <defs>
  <style type="text/css">
*{stroke-linecap:butt;stroke-linejoin:round;}
  </style>
 </defs>
 <g id="figure_1">
  <g id="patch_1">
   <path d="
M0 288
L864 288
L864 0
L0 0
z
" style="fill:#ffffff;"/>
  </g>
  <g id="axes_1">
   <g id="patch_2">
    <path d="
M63.8319 237.534
L848.88 237.534
L848.88 21.319
L63.8319 21.319
z
" style="fill:#ffffff;"/>
   </g>
   <g id="LineCollection_1">
    <defs>
     <path d="
M135.2 -204.899
L135.2 -209.298" id="C0_0_363432b1da"/>
     <path d="
M206.568 -206.892
L206.568 -211.32" id="C0_1_dbe5087fe6"/>
     <path d="
M277.936 -208.058
L277.936 -212.501" id="C0_2_674c262bca"/>
     <path d="
M456.356 -201.617
L456.356 -205.969" id="C0_3_ca524a3b24"/>
     <path d="
M527.724 -202.2
L527.724 -206.561" id="C0_4_f134cdcc60"/>
     <path d="
M634.776 -190.547
L634.776 -194.738" id="C0_5_5f8c773e01"/>
     <path d="
M349.304 -203.856
L349.304 -208.24" id="C0_6_96d23422d5"/>
     <path d="
M777.512 -179.051
L777.512 -183.068" id="C0_7_a53a858203"/>
     <path d="
M706.144 -193.951
L706.144 -198.192" id="C0_8_f983430fb5"/>
    </defs>
    <g clip-path="url(#pf228d49d95)">
     <use style="fill:none;stroke:#008000;" x="0.0" xlink:href="#C0_0_363432b1da" y="288.0"/>
    </g>
    <g clip-path="url(#pf228d49d95)">
     <use style="fill:none;stroke:#008000;" x="0.0" xlink:href="#C0_1_dbe5087fe6" y="288.0"/>
    </g>
    <g clip-path="url(#pf228d49d95)">
     <use style="fill:none;stroke:#008000;" x="0.0" xlink:href="#C0_2_674c262bca" y="288.0"/>
    </g>
    <g clip-path="url(#pf228d49d95)">
     <use style="fill:none;stroke:#008000;" x="0.0" xlink:href="#C0_3_ca524a3b24" y="288.0"/>
    </g>
    <g clip-path="url(#pf228d49d95)">
     <use style="fill:none;stroke:#008000;" x="0.0" xlink:href="#C0_4_f134cdcc60" y="288.0"/>
    </g>
    <g clip-path="url(#pf228d49d95)">
     <use style="fill:none;stroke:#008000;" x="0.0" xlink:href="#C0_5_5f8c773e01" y="288.0"/>
    </g>
    <g clip-path="url(#pf228d49d95)">
     <use style="fill:none;stroke:#008000;" x="0.0" xlink:href="#C0_6_96d23422d5" y="288.0"/>
    </g>
    <g clip-path="url(#pf228d49d95)">
     <use style="fill:none;stroke:#008000;" x="0.0" xlink:href="#C0_7_a53a858203" y="288.0"/>
    </g>
    <g clip-path="url(#pf228d49d95)">
     <use style="fill:none;stroke:#008000;" x="0.0" xlink:href="#C0_8_f983430fb5" y="288.0"/>
    </g>
   </g>
   <g id="LineCollection_2">
    <defs>
     <path d="
M527.724 -74.7878
L527.724 -76.5525" id="C1_0_2e08d32fc3"/>
     <path d="
M456.356 -98.7118
L456.356 -101.184" id="C1_1_6d698fddf9"/>
     <path d="
M706.144 -58.7472
L706.144 -59.7901" id="C1_2_a275f52c5c"/>
     <path d="
M206.568 -200.39
L206.568 -204.725" id="C1_3_6d9384a59a"/>
     <path d="
M135.2 -208.671
L135.2 -213.124" id="C1_4_015c723ab4"/>
     <path d="
M634.776 -61.7815
L634.776 -62.9952" id="C1_5_dbf7caaae1"/>
     <path d="
M277.936 -187.665
L277.936 -191.813" id="C1_6_078b1af646"/>
     <path d="
M349.304 -154.449
L349.304 -158.064" id="C1_7_ce06a3b0f0"/>
    </defs>
    <g clip-path="url(#pf228d49d95)">
     <use style="fill:none;stroke:#0000ff;" x="0.0" xlink:href="#C1_0_2e08d32fc3" y="288.0"/>
    </g>
    <g clip-path="url(#pf228d49d95)">
     <use style="fill:none;stroke:#0000ff;" x="0.0" xlink:href="#C1_1_6d698fddf9" y="288.0"/>
    </g>
    <g clip-path="url(#pf228d49d95)">
     <use style="fill:none;stroke:#0000ff;" x="0.0" xlink:href="#C1_2_a275f52c5c" y="288.0"/>
    </g>
    <g clip-path="url(#pf228d49d95)">
     <use style="fill:none;stroke:#0000ff;" x="0.0" xlink:href="#C1_3_6d9384a59a" y="288.0"/>
    </g>
    <g clip-path="url(#pf228d49d95)">
     <use style="fill:none;stroke:#0000ff;" x="0.0" xlink:href="#C1_4_015c723ab4" y="288.0"/>
    </g>
    <g clip-path="url(#pf228d49d95)">
     <use style="fill:none;stroke:#0000ff;" x="0.0" xlink:href="#C1_5_dbf7caaae1" y="288.0"/>
    </g>
    <g clip-path="url(#pf228d49d95)">
     <use style="fill:none;stroke:#0000ff;" x="0.0" xlink:href="#C1_6_078b1af646" y="288.0"/>
    </g>
    <g clip-path="url(#pf228d49d95)">
     <use style="fill:none;stroke:#0000ff;" x="0.0" xlink:href="#C1_7_ce06a3b0f0" y="288.0"/>
    </g>
   </g>
   <g id="LineCollection_3">
    <defs>
     <path d="
M456.356 -200.82
L456.356 -205.161" id="C2_0_e05a331341"/>
     <path d="
M777.512 -196.649
L777.512 -200.93" id="C2_1_cab901e73f"/>
     <path d="
M527.724 -201.801
L527.724 -206.156" id="C2_2_9893232e33"/>
     <path d="
M634.776 -202.23
L634.776 -206.592" id="C2_3_d852381bc7"/>
     <path d="
M277.936 -197.937
L277.936 -202.236" id="C2_4_6534ffad46"/>
     <path d="
M349.304 -198.826
L349.304 -203.139" id="C2_5_44e779b031"/>
     <path d="
M170.884 -203.028
L170.884 -207.4" id="C2_6_4b771d81ec"/>
     <path d="
M706.144 -198.428
L706.144 -202.734" id="C2_7_588fa220f8"/>
     <path d="
M135.2 -193.613
L135.2 -197.85" id="C2_8_8f1a93cc67"/>
    </defs>
    <g clip-path="url(#pf228d49d95)">
     <use style="fill:none;stroke:#ff0000;" x="0.0" xlink:href="#C2_0_e05a331341" y="288.0"/>
    </g>
    <g clip-path="url(#pf228d49d95)">
     <use style="fill:none;stroke:#ff0000;" x="0.0" xlink:href="#C2_1_cab901e73f" y="288.0"/>
    </g>
    <g clip-path="url(#pf228d49d95)">
     <use style="fill:none;stroke:#ff0000;" x="0.0" xlink:href="#C2_2_9893232e33" y="288.0"/>
    </g>
    <g clip-path="url(#pf228d49d95)">
     <use style="fill:none;stroke:#ff0000;" x="0.0" xlink:href="#C2_3_d852381bc7" y="288.0"/>
    </g>
    <g clip-path="url(#pf228d49d95)">
     <use style="fill:none;stroke:#ff0000;" x="0.0" xlink:href="#C2_4_6534ffad46" y="288.0"/>
    </g>
    <g clip-path="url(#pf228d49d95)">
     <use style="fill:none;stroke:#ff0000;" x="0.0" xlink:href="#C2_5_44e779b031" y="288.0"/>
    </g>
    <g clip-path="url(#pf228d49d95)">
     <use style="fill:none;stroke:#ff0000;" x="0.0" xlink:href="#C2_6_4b771d81ec" y="288.0"/>
    </g>
    <g clip-path="url(#pf228d49d95)">
     <use style="fill:none;stroke:#ff0000;" x="0.0" xlink:href="#C2_7_588fa220f8" y="288.0"/>
    </g>
    <g clip-path="url(#pf228d49d95)">
     <use style="fill:none;stroke:#ff0000;" x="0.0" xlink:href="#C2_8_8f1a93cc67" y="288.0"/>
    </g>
   </g>
   <g id="line2d_1">
    <defs>
     <path d="
M3 1.83697e-16
L-3 -1.83697e-16" id="m1ef3793437" style="stroke:#008000;stroke-width:0.5;"/>
    </defs>
    <g clip-path="url(#pf228d49d95)">
     <use style="fill:#008000;stroke:#008000;stroke-width:0.5;" x="135.199872124" xlink:href="#m1ef3793437" y="83.1013102422"/>
     <use style="fill:#008000;stroke:#008000;stroke-width:0.5;" x="206.567884911" xlink:href="#m1ef3793437" y="81.1076474467"/>
     <use style="fill:#008000;stroke:#008000;stroke-width:0.5;" x="277.935897699" xlink:href="#m1ef3793437" y="79.9420803388"/>
     <use style="fill:#008000;stroke:#008000;stroke-width:0.5;" x="456.355929668" xlink:href="#m1ef3793437" y="86.3829883097"/>
     <use style="fill:#008000;stroke:#008000;stroke-width:0.5;" x="527.723942456" xlink:href="#m1ef3793437" y="85.8002786556"/>
     <use style="fill:#008000;stroke:#008000;stroke-width:0.5;" x="634.775961637" xlink:href="#m1ef3793437" y="97.4529026588"/>
     <use style="fill:#008000;stroke:#008000;stroke-width:0.5;" x="349.303910487" xlink:href="#m1ef3793437" y="84.1441133623"/>
     <use style="fill:#008000;stroke:#008000;stroke-width:0.5;" x="777.511987212" xlink:href="#m1ef3793437" y="108.948696808"/>
     <use style="fill:#008000;stroke:#008000;stroke-width:0.5;" x="706.143974425" xlink:href="#m1ef3793437" y="94.04946035"/>
    </g>
   </g>
   <g id="line2d_2">
    <g clip-path="url(#pf228d49d95)">
     <use style="fill:#008000;stroke:#008000;stroke-width:0.5;" x="135.199872124" xlink:href="#m1ef3793437" y="78.7021935938"/>
     <use style="fill:#008000;stroke:#008000;stroke-width:0.5;" x="206.567884911" xlink:href="#m1ef3793437" y="76.6804266664"/>
     <use style="fill:#008000;stroke:#008000;stroke-width:0.5;" x="277.935897699" xlink:href="#m1ef3793437" y="75.4985117825"/>
     <use style="fill:#008000;stroke:#008000;stroke-width:0.5;" x="456.355929668" xlink:href="#m1ef3793437" y="82.0305306086"/>
     <use style="fill:#008000;stroke:#008000;stroke-width:0.5;" x="527.723942456" xlink:href="#m1ef3793437" y="81.4394992668"/>
     <use style="fill:#008000;stroke:#008000;stroke-width:0.5;" x="634.775961637" xlink:href="#m1ef3793437" y="93.2616951819"/>
     <use style="fill:#008000;stroke:#008000;stroke-width:0.5;" x="349.303910487" xlink:href="#m1ef3793437" y="79.759769098"/>
     <use style="fill:#008000;stroke:#008000;stroke-width:0.5;" x="777.511987212" xlink:href="#m1ef3793437" y="104.931841742"/>
     <use style="fill:#008000;stroke:#008000;stroke-width:0.5;" x="706.143974425" xlink:href="#m1ef3793437" y="89.8080190409"/>
    </g>
   </g>
   <g id="line2d_3">
    <defs>
     <path d="
M0 2.5
C0.663008 2.5 1.29895 2.23658 1.76777 1.76777
C2.23658 1.29895 2.5 0.663008 2.5 0
C2.5 -0.663008 2.23658 -1.29895 1.76777 -1.76777
C1.29895 -2.23658 0.663008 -2.5 0 -2.5
C-0.663008 -2.5 -1.29895 -2.23658 -1.76777 -1.76777
C-2.23658 -1.29895 -2.5 -0.663008 -2.5 0
C-2.5 0.663008 -2.23658 1.29895 -1.76777 1.76777
C-1.29895 2.23658 -0.663008 2.5 0 2.5
z
" id="m2a5b102ee3" style="stroke:#000000;stroke-width:0.5;"/>
    </defs>
    <g clip-path="url(#pf228d49d95)">
     <use style="fill:#00ff00;stroke:#000000;stroke-width:0.5;" x="135.199872124" xlink:href="#m2a5b102ee3" y="80.901751918"/>
     <use style="fill:#00ff00;stroke:#000000;stroke-width:0.5;" x="206.567884911" xlink:href="#m2a5b102ee3" y="78.8940370566"/>
     <use style="fill:#00ff00;stroke:#000000;stroke-width:0.5;" x="277.935897699" xlink:href="#m2a5b102ee3" y="77.7202960607"/>
     <use style="fill:#00ff00;stroke:#000000;stroke-width:0.5;" x="456.355929668" xlink:href="#m2a5b102ee3" y="84.2067594591"/>
     <use style="fill:#00ff00;stroke:#000000;stroke-width:0.5;" x="527.723942456" xlink:href="#m2a5b102ee3" y="83.6198889612"/>
     <use style="fill:#00ff00;stroke:#000000;stroke-width:0.5;" x="634.775961637" xlink:href="#m2a5b102ee3" y="95.3572989204"/>
     <use style="fill:#00ff00;stroke:#000000;stroke-width:0.5;" x="349.303910487" xlink:href="#m2a5b102ee3" y="81.9519412301"/>
     <use style="fill:#00ff00;stroke:#000000;stroke-width:0.5;" x="777.511987212" xlink:href="#m2a5b102ee3" y="106.940269275"/>
     <use style="fill:#00ff00;stroke:#000000;stroke-width:0.5;" x="706.143974425" xlink:href="#m2a5b102ee3" y="91.9287396954"/>
    </g>
   </g>
   <g id="line2d_4">
    <defs>
     <path d="
M3 1.83697e-16
L-3 -1.83697e-16" id="mdde457ef1d" style="stroke:#0000ff;stroke-width:0.5;"/>
    </defs>
    <g clip-path="url(#pf228d49d95)">
     <use style="fill:#0000ff;stroke:#0000ff;stroke-width:0.5;" x="527.723942456" xlink:href="#mdde457ef1d" y="213.212191047"/>
     <use style="fill:#0000ff;stroke:#0000ff;stroke-width:0.5;" x="456.355929668" xlink:href="#mdde457ef1d" y="189.288238471"/>
     <use style="fill:#0000ff;stroke:#0000ff;stroke-width:0.5;" x="706.143974425" xlink:href="#mdde457ef1d" y="229.252789683"/>
     <use style="fill:#0000ff;stroke:#0000ff;stroke-width:0.5;" x="206.567884911" xlink:href="#mdde457ef1d" y="87.6097193673"/>
     <use style="fill:#0000ff;stroke:#0000ff;stroke-width:0.5;" x="135.199872124" xlink:href="#mdde457ef1d" y="79.3286119109"/>
     <use style="fill:#0000ff;stroke:#0000ff;stroke-width:0.5;" x="634.775961637" xlink:href="#mdde457ef1d" y="226.218512906"/>
     <use style="fill:#0000ff;stroke:#0000ff;stroke-width:0.5;" x="277.935897699" xlink:href="#mdde457ef1d" y="100.334859206"/>
     <use style="fill:#0000ff;stroke:#0000ff;stroke-width:0.5;" x="349.303910487" xlink:href="#mdde457ef1d" y="133.550939021"/>
    </g>
   </g>
   <g id="line2d_5">
    <g clip-path="url(#pf228d49d95)">
     <use style="fill:#0000ff;stroke:#0000ff;stroke-width:0.5;" x="527.723942456" xlink:href="#mdde457ef1d" y="211.447520033"/>
     <use style="fill:#0000ff;stroke:#0000ff;stroke-width:0.5;" x="456.355929668" xlink:href="#mdde457ef1d" y="186.815660882"/>
     <use style="fill:#0000ff;stroke:#0000ff;stroke-width:0.5;" x="706.143974425" xlink:href="#mdde457ef1d" y="228.20989344"/>
     <use style="fill:#0000ff;stroke:#0000ff;stroke-width:0.5;" x="206.567884911" xlink:href="#mdde457ef1d" y="83.2748332266"/>
     <use style="fill:#0000ff;stroke:#0000ff;stroke-width:0.5;" x="135.199872124" xlink:href="#mdde457ef1d" y="74.8764633726"/>
     <use style="fill:#0000ff;stroke:#0000ff;stroke-width:0.5;" x="634.775961637" xlink:href="#mdde457ef1d" y="225.004810186"/>
     <use style="fill:#0000ff;stroke:#0000ff;stroke-width:0.5;" x="277.935897699" xlink:href="#mdde457ef1d" y="96.1866677719"/>
     <use style="fill:#0000ff;stroke:#0000ff;stroke-width:0.5;" x="349.303910487" xlink:href="#mdde457ef1d" y="129.935600566"/>
    </g>
   </g>
   <g id="line2d_6">
    <defs>
     <path d="
M0 -5
L-5 5
L5 5
z
" id="m225e1ef6c6" style="stroke:#000000;stroke-linejoin:miter;stroke-width:0.5;"/>
    </defs>
    <g clip-path="url(#pf228d49d95)">
     <use style="fill:#0000ff;stroke:#000000;stroke-linejoin:miter;stroke-width:0.5;" x="527.723942456" xlink:href="#m225e1ef6c6" y="212.32985554"/>
     <use style="fill:#0000ff;stroke:#000000;stroke-linejoin:miter;stroke-width:0.5;" x="456.355929668" xlink:href="#m225e1ef6c6" y="188.051949677"/>
     <use style="fill:#0000ff;stroke:#000000;stroke-linejoin:miter;stroke-width:0.5;" x="706.143974425" xlink:href="#m225e1ef6c6" y="228.731341562"/>
     <use style="fill:#0000ff;stroke:#000000;stroke-linejoin:miter;stroke-width:0.5;" x="206.567884911" xlink:href="#m225e1ef6c6" y="85.442276297"/>
     <use style="fill:#0000ff;stroke:#000000;stroke-linejoin:miter;stroke-width:0.5;" x="135.199872124" xlink:href="#m225e1ef6c6" y="77.1025376418"/>
     <use style="fill:#0000ff;stroke:#000000;stroke-linejoin:miter;stroke-width:0.5;" x="634.775961637" xlink:href="#m225e1ef6c6" y="225.611661546"/>
     <use style="fill:#0000ff;stroke:#000000;stroke-linejoin:miter;stroke-width:0.5;" x="277.935897699" xlink:href="#m225e1ef6c6" y="98.2607634892"/>
     <use style="fill:#0000ff;stroke:#000000;stroke-linejoin:miter;stroke-width:0.5;" x="349.303910487" xlink:href="#m225e1ef6c6" y="131.743269794"/>
    </g>
   </g>
   <g id="line2d_7">
    <defs>
     <path d="
M3 1.83697e-16
L-3 -1.83697e-16" id="m12d35e2592" style="stroke:#ff0000;stroke-width:0.5;"/>
    </defs>
    <g clip-path="url(#pf228d49d95)">
     <use style="fill:#ff0000;stroke:#ff0000;stroke-width:0.5;" x="456.355929668" xlink:href="#m12d35e2592" y="87.1803675424"/>
     <use style="fill:#ff0000;stroke:#ff0000;stroke-width:0.5;" x="777.511987212" xlink:href="#m12d35e2592" y="91.3510263713"/>
     <use style="fill:#ff0000;stroke:#ff0000;stroke-width:0.5;" x="527.723942456" xlink:href="#m12d35e2592" y="86.1989755936"/>
     <use style="fill:#ff0000;stroke:#ff0000;stroke-width:0.5;" x="634.775961637" xlink:href="#m12d35e2592" y="85.7696095065"/>
     <use style="fill:#ff0000;stroke:#ff0000;stroke-width:0.5;" x="277.935897699" xlink:href="#m12d35e2592" y="90.0630737667"/>
     <use style="fill:#ff0000;stroke:#ff0000;stroke-width:0.5;" x="349.303910487" xlink:href="#m12d35e2592" y="89.1737495464"/>
     <use style="fill:#ff0000;stroke:#ff0000;stroke-width:0.5;" x="170.883878518" xlink:href="#m12d35e2592" y="84.9722039462"/>
     <use style="fill:#ff0000;stroke:#ff0000;stroke-width:0.5;" x="706.143974425" xlink:href="#m12d35e2592" y="89.572414499"/>
     <use style="fill:#ff0000;stroke:#ff0000;stroke-width:0.5;" x="135.199872124" xlink:href="#m12d35e2592" y="94.3867517112"/>
    </g>
   </g>
   <g id="line2d_8">
    <g clip-path="url(#pf228d49d95)">
     <use style="fill:#ff0000;stroke:#ff0000;stroke-width:0.5;" x="456.355929668" xlink:href="#m12d35e2592" y="82.839323265"/>
     <use style="fill:#ff0000;stroke:#ff0000;stroke-width:0.5;" x="777.511987212" xlink:href="#m12d35e2592" y="87.0701789333"/>
     <use style="fill:#ff0000;stroke:#ff0000;stroke-width:0.5;" x="527.723942456" xlink:href="#m12d35e2592" y="81.8438882733"/>
     <use style="fill:#ff0000;stroke:#ff0000;stroke-width:0.5;" x="634.775961637" xlink:href="#m12d35e2592" y="81.408392574"/>
     <use style="fill:#ff0000;stroke:#ff0000;stroke-width:0.5;" x="277.935897699" xlink:href="#m12d35e2592" y="85.7635461784"/>
     <use style="fill:#ff0000;stroke:#ff0000;stroke-width:0.5;" x="349.303910487" xlink:href="#m12d35e2592" y="84.8613709839"/>
     <use style="fill:#ff0000;stroke:#ff0000;stroke-width:0.5;" x="170.883878518" xlink:href="#m12d35e2592" y="80.5996262451"/>
     <use style="fill:#ff0000;stroke:#ff0000;stroke-width:0.5;" x="706.143974425" xlink:href="#m12d35e2592" y="85.2657919759"/>
     <use style="fill:#ff0000;stroke:#ff0000;stroke-width:0.5;" x="135.199872124" xlink:href="#m12d35e2592" y="90.1502619404"/>
    </g>
   </g>
   <g id="line2d_9">
    <defs>
     <path d="
M3.06162e-16 -5
L-1.12257 -1.54508
L-4.75528 -1.54508
L-1.81636 0.59017
L-2.93893 4.04508
L-3.5083e-16 1.90983
L2.93893 4.04508
L1.81636 0.59017
L4.75528 -1.54508
L1.12257 -1.54508
z
" id="m46c0476064" style="stroke:#000000;stroke-linejoin:bevel;stroke-width:0.5;"/>
    </defs>
    <g clip-path="url(#pf228d49d95)">
     <use style="fill:#ff0000;stroke:#000000;stroke-linejoin:bevel;stroke-width:0.5;" x="456.355929668" xlink:href="#m46c0476064" y="85.0098454037"/>
     <use style="fill:#ff0000;stroke:#000000;stroke-linejoin:bevel;stroke-width:0.5;" x="777.511987212" xlink:href="#m46c0476064" y="89.2106026523"/>
     <use style="fill:#ff0000;stroke:#000000;stroke-linejoin:bevel;stroke-width:0.5;" x="527.723942456" xlink:href="#m46c0476064" y="84.0214319335"/>
     <use style="fill:#ff0000;stroke:#000000;stroke-linejoin:bevel;stroke-width:0.5;" x="634.775961637" xlink:href="#m46c0476064" y="83.5890010402"/>
     <use style="fill:#ff0000;stroke:#000000;stroke-linejoin:bevel;stroke-width:0.5;" x="277.935897699" xlink:href="#m46c0476064" y="87.9133099726"/>
     <use style="fill:#ff0000;stroke:#000000;stroke-linejoin:bevel;stroke-width:0.5;" x="349.303910487" xlink:href="#m46c0476064" y="87.0175602652"/>
     <use style="fill:#ff0000;stroke:#000000;stroke-linejoin:bevel;stroke-width:0.5;" x="170.883878518" xlink:href="#m46c0476064" y="82.7859150957"/>
     <use style="fill:#ff0000;stroke:#000000;stroke-linejoin:bevel;stroke-width:0.5;" x="706.143974425" xlink:href="#m46c0476064" y="87.4191032374"/>
     <use style="fill:#ff0000;stroke:#000000;stroke-linejoin:bevel;stroke-width:0.5;" x="135.199872124" xlink:href="#m46c0476064" y="92.2685068258"/>
    </g>
   </g>
   <g id="line2d_10">
    <path clip-path="url(#pf228d49d95)" d="
M62.6877 237.534
L78.7777 237.482
L81.9957 237.257
L85.2137 236.357
L88.4317 233.501
L91.6497 226.306
L94.8676 211.919
L98.0856 189.084
L104.522 131.546
L107.74 108.71
L110.958 94.3232
L114.176 87.1284
L117.394 84.2724
L120.612 83.3725
L123.83 83.1475
L133.484 83.0949
L793.173 83.1475
L796.391 83.3725
L799.609 84.2724
L802.827 87.1284
L806.045 94.3232
L809.263 108.71
L812.481 131.546
L818.917 189.084
L822.135 211.919
L825.353 226.306
L828.571 233.501
L831.789 236.357
L835.007 237.257
L838.225 237.482
L847.879 237.534
L851.097 237.534
L851.097 237.534" style="fill:none;stroke:#000000;stroke-dasharray:6.000000,6.000000;stroke-dashoffset:0.0;"/>
   </g>
   <g id="matplotlib.axis_1">
    <g id="xtick_1">
     <g id="line2d_11">
      <defs>
       <path d="
M0 0
L0 -4" id="m93b0483c22" style="stroke:#000000;stroke-width:0.5;"/>
      </defs>
      <g>
       <use style="stroke:#000000;stroke-width:0.5;" x="99.5158657299" xlink:href="#m93b0483c22" y="237.534399031"/>
      </g>
     </g>
     <g id="line2d_12">
      <defs>
       <path d="
M0 0
L0 4" id="m741efc42ff" style="stroke:#000000;stroke-width:0.5;"/>
      </defs>
      <g>
       <use style="stroke:#000000;stroke-width:0.5;" x="99.5158657299" xlink:href="#m741efc42ff" y="21.3189524148"/>
      </g>
     </g>
     <g id="text_1">
      <!-- $0$ -->
      <defs>
       <path d="
M42 31.6406
C42 37.75 41.9062 48.125 37.7031 56.1094
C34 63.1094 28.0938 65.5938 22.9062 65.5938
C18.0938 65.5938 12 63.4062 8.20312 56.2031
C4.20312 48.7188 3.79688 39.4375 3.79688 31.6406
C3.79688 25.9531 3.90625 17.2812 7 9.67188
C11.2969 -0.609375 19 -2 22.9062 -2
C27.5 -2 34.5 -0.109375 38.5938 9.375
C41.5938 16.2812 42 24.3594 42 31.6406
M22.9062 -0.40625
C16.5 -0.40625 12.7031 5.07812 11.2969 12.6875
C10.2031 18.5625 10.2031 27.1562 10.2031 32.75
C10.2031 40.4375 10.2031 46.8281 11.5 52.9219
C13.4062 61.3906 19 64 22.9062 64
C27 64 32.2969 61.2969 34.2031 53.125
C35.5 47.4375 35.5938 40.7344 35.5938 32.75
C35.5938 26.25 35.5938 18.2656 34.4062 12.375
C32.2969 1.48438 26.4062 -0.40625 22.9062 -0.40625" id="CMR17-48"/>
      </defs>
      <g transform="translate(96.1016214166 251.220275481)scale(0.14 -0.14)">
       <use transform="scale(0.996264009963)" xlink:href="#CMR17-48"/>
      </g>
     </g>
    </g>
    <g id="xtick_2">
     <g id="line2d_13">
      <g>
       <use style="stroke:#000000;stroke-width:0.5;" x="277.935897699" xlink:href="#m93b0483c22" y="237.534399031"/>
      </g>
     </g>
     <g id="line2d_14">
      <g>
       <use style="stroke:#000000;stroke-width:0.5;" x="277.935897699" xlink:href="#m741efc42ff" y="21.3189524148"/>
      </g>
     </g>
     <g id="text_2">
      <!-- $5$ -->
      <defs>
       <path d="
M11.4062 57.6875
C12.4062 57.2812 16.5 56 20.7031 56
C30 56 35.0938 61.0156 38 63.9219
C38 64.7344 38 65.25 37.4062 65.25
C37.2969 65.25 37.0938 65.25 36.2969 64.8281
C32.7969 63.3125 28.7031 62.0781 23.7031 62.0781
C20.7031 62.0781 16.2031 62.5 11.2969 64.7344
C10.2031 65.25 10 65.25 9.90625 65.25
C9.40625 65.25 9.29688 65.1406 9.29688 63.1562
L9.29688 34.2812
C9.29688 32.5 9.29688 32 10.2969 32
C10.7969 32 11 32.2031 11.5 32.9062
C14.7031 37.4844 19.0938 39.4062 24.0938 39.4062
C27.5938 39.4062 35.0938 37.2188 35.0938 20.1406
C35.0938 16.9531 35.0938 11.1719 32.0938 6.57812
C29.5938 2.48438 25.7031 0.390625 21.4062 0.390625
C14.7969 0.390625 8.09375 5 6.29688 12.7188
C6.70312 12.6094 7.5 12.4219 7.90625 12.4219
C9.20312 12.4219 11.7031 13.125 11.7031 16.2188
C11.7031 18.9062 9.79688 20 7.90625 20
C5.59375 20 4.09375 18.5938 4.09375 15.7969
C4.09375 7.09375 11 -2 21.5938 -2
C31.9062 -2 41.7031 6.875 41.7031 19.75
C41.7031 31.7188 33.9062 41 24.2031 41
C19.0938 41 14.7969 39.0938 11.4062 35.4531
z
" id="CMR17-53"/>
      </defs>
      <g transform="translate(274.521653386 251.220275481)scale(0.14 -0.14)">
       <use transform="scale(0.996264009963)" xlink:href="#CMR17-53"/>
      </g>
     </g>
    </g>
    <g id="xtick_3">
     <g id="line2d_15">
      <g>
       <use style="stroke:#000000;stroke-width:0.5;" x="456.355929668" xlink:href="#m93b0483c22" y="237.534399031"/>
      </g>
     </g>
     <g id="line2d_16">
      <g>
       <use style="stroke:#000000;stroke-width:0.5;" x="456.355929668" xlink:href="#m741efc42ff" y="21.3189524148"/>
      </g>
     </g>
     <g id="text_3">
      <!-- $10$ -->
      <defs>
       <path d="
M26.5938 63.3125
C26.5938 65.4062 26.5 65.5 25.0938 65.5
C21.2031 61.1875 15.2969 59.7969 9.70312 59.7969
C9.40625 59.7969 8.90625 59.7969 8.79688 59.5
C8.70312 59.2969 8.70312 59.0938 8.70312 57
C11.7969 57 17 57.5938 21 59.9844
L21 7.20312
C21 3.6875 20.7969 2.5 12.2031 2.5
L9.20312 2.5
L9.20312 0
C14 0 19 0 23.7969 0
C28.5938 0 33.5938 0 38.4062 0
L38.4062 2.5
L35.4062 2.5
C26.7969 2.5 26.5938 3.59375 26.5938 7.15625
z
" id="CMR17-49"/>
      </defs>
      <g transform="translate(449.527441041 251.220275481)scale(0.14 -0.14)">
       <use transform="scale(0.996264009963)" xlink:href="#CMR17-49"/>
       <use transform="translate(45.6904771171 0.0)scale(0.996264009963)" xlink:href="#CMR17-48"/>
      </g>
     </g>
    </g>
    <g id="xtick_4">
     <g id="line2d_17">
      <g>
       <use style="stroke:#000000;stroke-width:0.5;" x="634.775961637" xlink:href="#m93b0483c22" y="237.534399031"/>
      </g>
     </g>
     <g id="line2d_18">
      <g>
       <use style="stroke:#000000;stroke-width:0.5;" x="634.775961637" xlink:href="#m741efc42ff" y="21.3189524148"/>
      </g>
     </g>
     <g id="text_4">
      <!-- $15$ -->
      <g transform="translate(627.94747301 251.220275481)scale(0.14 -0.14)">
       <use transform="scale(0.996264009963)" xlink:href="#CMR17-49"/>
       <use transform="translate(45.6904771171 0.0)scale(0.996264009963)" xlink:href="#CMR17-53"/>
      </g>
     </g>
    </g>
    <g id="xtick_5">
     <g id="line2d_19">
      <g>
       <use style="stroke:#000000;stroke-width:0.5;" x="813.195993606" xlink:href="#m93b0483c22" y="237.534399031"/>
      </g>
     </g>
     <g id="line2d_20">
      <g>
       <use style="stroke:#000000;stroke-width:0.5;" x="813.195993606" xlink:href="#m741efc42ff" y="21.3189524148"/>
      </g>
     </g>
     <g id="text_5">
      <!-- $20$ -->
      <defs>
       <path d="
M41.7031 15.4531
L39.9062 15.4531
C38.9062 8.375 38.0938 7.17188 37.7031 6.5625
C37.2031 5.76562 30 5.76562 28.5938 5.76562
L9.40625 5.76562
C13 9.67188 20 16.75 28.5 24.9531
C34.5938 30.7344 41.7031 37.5312 41.7031 47.4219
C41.7031 59.2188 32.2969 66 21.7969 66
C10.7969 66 4.09375 56.3125 4.09375 47.3438
C4.09375 43.4375 7 42.9375 8.20312 42.9375
C9.20312 42.9375 12.2031 43.5469 12.2031 47.0312
C12.2031 50.1094 9.59375 51 8.20312 51
C7.59375 51 7 50.9062 6.59375 50.7031
C8.5 59.2188 14.2969 63.4062 20.4062 63.4062
C29.0938 63.4062 34.7969 56.5156 34.7969 47.4219
C34.7969 38.7344 29.7031 31.25 24 24.75
L4.09375 2.28125
L4.09375 0
L39.2969 0
z
" id="CMR17-50"/>
      </defs>
      <g transform="translate(806.36750498 251.220275481)scale(0.14 -0.14)">
       <use transform="scale(0.996264009963)" xlink:href="#CMR17-50"/>
       <use transform="translate(45.6904771171 0.0)scale(0.996264009963)" xlink:href="#CMR17-48"/>
      </g>
     </g>
    </g>
    <g id="text_6">
     <!-- Depth of Interaction (mm) -->
     <defs>
      <path d="
M11.2969 -25
C16.7031 -19.5156 29.0938 -6.78125 29.0938 24.6719
C29.0938 56.2344 16.7031 68.875 11.2969 74.4531
L5.20312 74.4531
C17.5 61.7031 21.5 43.8906 21.5 24.7812
C21.5 5.76562 17.7031 -12.1562 5.20312 -25
z
" id="CMSS17-41"/>
      <path d="
M14.9062 21.2969
C14.9062 30.7031 21.7969 37 30.5938 37
L30.5938 43.5781
C24.2031 43.5781 18.2031 40.3906 14.5938 35.2031
L14.5938 43.0938
L7.5 43.0938
L7.5 0
L14.9062 0
z
" id="CMSS17-114"/>
      <path d="
M40.9062 29.3281
C40.9062 35.6719 39.4062 44 28.0938 44
C21.7969 44 17.7031 40.9219 14.7969 37.5312
L14.7969 69.0781
L7.40625 69.0781
L7.40625 0
L15 0
L15 24.3594
C15 30.6875 17.4062 37.9375 24.2031 37.9375
C33 37.9375 33.2969 32 33.2969 28.5781
L33.2969 0
L40.9062 0
z
" id="CMSS17-104"/>
      <path d="
M16.7031 37
L29.7031 37
L29.7031 42.7656
L16.7031 42.7656
L16.7031 55
L9.59375 55
L9.59375 42.7656
L1.70312 42.7656
L1.70312 37
L9.40625 37
L9.40625 11.7031
C9.40625 6 10.7031 -1 17.2969 -1
C22.2969 -1 26.9062 0.390625 31.2969 2.6875
L29.7031 8.5625
C27.2969 6.46875 24.4062 5.26562 21.2969 5.26562
C16.9062 5.26562 16.7031 10.875 16.7031 13.375
z
" id="CMSS17-116"/>
      <path d="
M44.2031 21.1875
C44.2031 34 34.7031 44 23.5 44
C12 44 2.70312 33.7031 2.70312 21.1875
C2.70312 8.5 12.2969 -1 23.4062 -1
C34.7969 -1 44.2031 8.79688 44.2031 21.1875
M23.5 5.26562
C16.4062 5.26562 10.2969 11.0781 10.2969 22
C10.2969 33.6094 17.4062 37.9219 23.4062 37.9219
C29.9062 37.9219 36.5938 33.2188 36.5938 22
C36.5938 10.6719 30.0938 5.26562 23.5 5.26562" id="CMSS17-111"/>
      <path d="
M40.9062 29.3281
C40.9062 35.6719 39.4062 44 28.0938 44
C21.7031 44 17.5 40.7188 14.7031 37.3281
L14.7031 43.0938
L7.40625 43.0938
L7.40625 0
L15 0
L15 24.3594
C15 30.6875 17.4062 37.9375 24.2031 37.9375
C33 37.9375 33.2969 32 33.2969 28.5781
L33.2969 0
L40.9062 0
z
" id="CMSS17-110"/>
      <path d="
M15.0938 5.20312
C18.4062 2.01562 22.9062 -0.078125 27.7031 -0.078125
C37 -0.078125 45 9.42188 45 22.0625
C45 33.7344 39 44 30.4062 44
C25.4062 44 19.4062 42.2188 14.9062 38.625
L14.9062 43.2031
L7.5 43.2031
L7.5 -19
L15.0938 -19
z

M15.0938 32.8125
C15.9062 34 19.2969 37.7344 24.7969 37.7344
C31.7969 37.7344 37.4062 30.625 37.4062 22.0625
C37.4062 12.2969 30.5938 6 23.9062 6
C21.9062 6 19.7969 6.48438 17.7969 8.17188
C15.0938 10.5312 15.0938 12 15.0938 13.3906
z
" id="CMSS17-112"/>
      <path d="
M39.0938 21.5156
C39.0938 24.8438 38.9062 31.2969 35.7031 36.6406
C32.2031 42.3906 26.5 44 22.2031 44
C11.7969 44 3 34.1875 3 21.4844
C3 9.09375 12.0938 -1 23.5938 -1
C28.0938 -1 33.5938 0.296875 38.5938 3.875
C38.5938 4.28125 38.4062 6.46875 38.2969 6.5625
C38.2969 6.76562 38 9.82812 38 10.2344
C33.2031 6.35938 27.7031 5.07812 23.7031 5.07812
C17.2969 5.07812 10.4062 10.4219 10.0938 21.5156
z

M10.9062 27
C12.2031 32.5625 16.5938 37.8281 22.2031 37.8281
C23.7031 37.8281 30.7031 37.8281 32.5 27
z
" id="CMSS17-101"/>
      <path d="
M25.2031 74.4531
C19.7969 68.9688 7.40625 56.2344 7.40625 24.7812
C7.40625 -6.78125 19.7969 -19.4219 25.2031 -25
L31.2969 -25
C19 -12.25 15 5.5625 15 24.6719
C15 43.6875 18.7969 61.6094 31.2969 74.4531
z
" id="CMSS17-40"/>
      <path d="
M67 29.3281
C67 36.0625 65.2969 44 54.0938 44
C46.5938 44 42.0938 39.3125 40.0938 36.4219
C38.2969 41.7188 34.0938 44 28.0938 44
C21.2969 44 17 40.125 14.7031 37.3281
L14.7031 43.0938
L7.40625 43.0938
L7.40625 0
L15 0
L15 24.3594
C15 30.2969 17.2031 37.9375 24.2969 37.9375
C33.4062 37.9375 33.4062 31.5 33.4062 28.5781
L33.4062 0
L41 0
L41 24.3594
C41 30.2969 43.2031 37.9375 50.2969 37.9375
C59.4062 37.9375 59.4062 31.5 59.4062 28.5781
L59.4062 0
L67 0
z
" id="CMSS17-109"/>
      <path d="
M8.90625 69
L8.90625 0
L33.5 0
C49.9062 0 62.5 15.3125 62.5 33.9062
C62.5 53.0938 49.9062 69 33.5 69
z

M17.0938 5.57812
L17.0938 63.4219
L31.2969 63.4219
C44.7031 63.4219 54.2969 51.2031 54.2969 33.9062
C54.2969 17.2969 44.7969 5.57812 31.2969 5.57812
z
" id="CMSS17-68"/>
      <path d="
M37.5938 27.9844
C37.5938 37.375 30.9062 43.875 21.9062 43.875
C17.5 43.875 12.7031 43.0781 7.20312 39.8906
L7.79688 33.3594
C10.2969 35.125 14.5938 38 21.7969 38
C26.9062 38 30 34.0625 30 27.8438
L30 24
C14 24 4 19.3438 4 11.3438
C4 7.20312 6.5 -1 14.7969 -1
C16.2969 -1 24.4062 -1 30.2031 3.39062
L30.2031 -0.296875
L37.5938 -0.296875
z

M30 12.75
C30 10.9531 30 8.5625 27 6.78125
C24.4062 5.07812 21.0938 5.07812 19.7031 5.07812
C14.7031 5.07812 11.2969 7.98438 11.2969 11.625
C11.2969 18.9219 26.9062 18.9219 30 18.9219
z
" id="CMSS17-97"/>
      <path d="
M15.2969 65.3594
L6.90625 65.3594
L6.90625 57
L15.2969 57
z

M14.7969 42.7969
L7.40625 42.7969
L7.40625 0
L14.7969 0
z
" id="CMSS17-105"/>
      <path d="
M16.7969 37
L26.9062 37
L26.9062 42.7656
L16.5938 42.7656
L16.5938 55.6094
C16.5938 62.7188 22 63.9375 25.0938 63.9375
C26.0938 63.9375 28.9062 63.9375 32.5 62.6406
L32.5 69.2031
C30.2031 69.7031 27.4062 70 25.2031 70
C15.9062 70 9.40625 62.3906 9.40625 52.4844
L9.40625 42.7656
L2.5 42.7656
L2.5 37
L9.40625 37
L9.40625 0
L16.7969 0
z
" id="CMSS17-102"/>
      <path d="
M38.5 39.7188
C38.5 40.4062 33.9062 42.4062 32.7031 42.7969
C29.4062 44 25.2031 44 24.0938 44
C11.0938 44 3.29688 32.7031 3.29688 21.2969
C3.29688 9.29688 12 -1 23.7031 -1
C30.4062 -1 35.2031 1.1875 39.0938 3.78125
L38.5 10.375
C34.2031 7.07812 29.2031 5.26562 23.7969 5.26562
C16 5.26562 10.9062 12.0938 10.9062 21.3906
C10.9062 28.6094 14.2031 37.7188 24.2031 37.7188
C29.7031 37.7188 32.7969 36.6094 37.4062 33.5156
z
" id="CMSS17-99"/>
      <path d="
M17.0938 69.0781
L8.70312 69.0781
L8.70312 0
L17.0938 0
z
" id="CMSS17-73"/>
     </defs>
     <g transform="translate(380.023843084 269.393075965)scale(0.14 -0.14)">
      <use transform="scale(0.996264009963)" xlink:href="#CMSS17-68"/>
      <use transform="translate(67.5428416631 0.0)scale(0.996264009963)" xlink:href="#CMSS17-101"/>
      <use transform="translate(109.181663732 0.0)scale(0.996264009963)" xlink:href="#CMSS17-112"/>
      <use transform="translate(157.386606865 0.0)scale(0.996264009963)" xlink:href="#CMSS17-116"/>
      <use transform="translate(191.218173548 0.0)scale(0.996264009963)" xlink:href="#CMSS17-104"/>
      <use transform="translate(270.652229433 0.0)scale(0.996264009963)" xlink:href="#CMSS17-111"/>
      <use transform="translate(317.495852954 0.0)scale(0.996264009963)" xlink:href="#CMSS17-102"/>
      <use transform="translate(377.351624523 0.0)scale(0.996264009963)" xlink:href="#CMSS17-73"/>
      <use transform="translate(403.135550037 0.0)scale(0.996264009963)" xlink:href="#CMSS17-110"/>
      <use transform="translate(451.34049317 0.0)scale(0.996264009963)" xlink:href="#CMSS17-116"/>
      <use transform="translate(485.172059854 0.0)scale(0.996264009963)" xlink:href="#CMSS17-101"/>
      <use transform="translate(526.810881922 0.0)scale(0.996264009963)" xlink:href="#CMSS17-114"/>
      <use transform="translate(558.720654479 0.0)scale(0.996264009963)" xlink:href="#CMSS17-97"/>
      <use transform="translate(603.642575085 0.0)scale(0.996264009963)" xlink:href="#CMSS17-99"/>
      <use transform="translate(645.281397153 0.0)scale(0.996264009963)" xlink:href="#CMSS17-116"/>
      <use transform="translate(679.112963837 0.0)scale(0.996264009963)" xlink:href="#CMSS17-105"/>
      <use transform="translate(701.293686882 0.0)scale(0.996264009963)" xlink:href="#CMSS17-111"/>
      <use transform="translate(748.137310403 0.0)scale(0.996264009963)" xlink:href="#CMSS17-110"/>
      <use transform="translate(827.571366288 0.0)scale(0.996264009963)" xlink:href="#CMSS17-40"/>
      <use transform="translate(864.005280491 0.0)scale(0.996264009963)" xlink:href="#CMSS17-109"/>
      <use transform="translate(938.234534923 0.0)scale(0.996264009963)" xlink:href="#CMSS17-109"/>
      <use transform="translate(1012.46378935 0.0)scale(0.996264009963)" xlink:href="#CMSS17-41"/>
     </g>
    </g>
   </g>
   <g id="matplotlib.axis_2">
    <g id="ytick_1">
     <g id="line2d_21">
      <defs>
       <path d="
M0 0
L4 0" id="m728421d6d4" style="stroke:#000000;stroke-width:0.5;"/>
      </defs>
      <g>
       <use style="stroke:#000000;stroke-width:0.5;" x="63.8318593361" xlink:href="#m728421d6d4" y="237.534399031"/>
      </g>
     </g>
     <g id="line2d_22">
      <defs>
       <path d="
M0 0
L-4 0" id="mcb0005524f" style="stroke:#000000;stroke-width:0.5;"/>
      </defs>
      <g>
       <use style="stroke:#000000;stroke-width:0.5;" x="848.88" xlink:href="#mcb0005524f" y="237.534399031"/>
      </g>
     </g>
     <g id="text_7">
      <!-- $0$ -->
      <g transform="translate(53.0033707094 241.021323066)scale(0.14 -0.14)">
       <use transform="scale(0.996264009963)" xlink:href="#CMR17-48"/>
      </g>
     </g>
    </g>
    <g id="ytick_2">
     <g id="line2d_23">
      <g>
       <use style="stroke:#000000;stroke-width:0.5;" x="63.8318593361" xlink:href="#m728421d6d4" y="206.646478086"/>
      </g>
     </g>
     <g id="line2d_24">
      <g>
       <use style="stroke:#000000;stroke-width:0.5;" x="848.88" xlink:href="#mcb0005524f" y="206.646478086"/>
      </g>
     </g>
     <g id="text_8">
      <!-- $1000$ -->
      <g transform="translate(32.5179048295 210.133402121)scale(0.14 -0.14)">
       <use transform="scale(0.996264009963)" xlink:href="#CMR17-49"/>
       <use transform="translate(45.6904771171 0.0)scale(0.996264009963)" xlink:href="#CMR17-48"/>
       <use transform="translate(91.3809542341 0.0)scale(0.996264009963)" xlink:href="#CMR17-48"/>
       <use transform="translate(137.071431351 0.0)scale(0.996264009963)" xlink:href="#CMR17-48"/>
      </g>
     </g>
    </g>
    <g id="ytick_3">
     <g id="line2d_25">
      <g>
       <use style="stroke:#000000;stroke-width:0.5;" x="63.8318593361" xlink:href="#m728421d6d4" y="175.758557141"/>
      </g>
     </g>
     <g id="line2d_26">
      <g>
       <use style="stroke:#000000;stroke-width:0.5;" x="848.88" xlink:href="#mcb0005524f" y="175.758557141"/>
      </g>
     </g>
     <g id="text_9">
      <!-- $2000$ -->
      <g transform="translate(32.5179048295 179.245481176)scale(0.14 -0.14)">
       <use transform="scale(0.996264009963)" xlink:href="#CMR17-50"/>
       <use transform="translate(45.6904771171 0.0)scale(0.996264009963)" xlink:href="#CMR17-48"/>
       <use transform="translate(91.3809542341 0.0)scale(0.996264009963)" xlink:href="#CMR17-48"/>
       <use transform="translate(137.071431351 0.0)scale(0.996264009963)" xlink:href="#CMR17-48"/>
      </g>
     </g>
    </g>
    <g id="ytick_4">
     <g id="line2d_27">
      <g>
       <use style="stroke:#000000;stroke-width:0.5;" x="63.8318593361" xlink:href="#m728421d6d4" y="144.870636195"/>
      </g>
     </g>
     <g id="line2d_28">
      <g>
       <use style="stroke:#000000;stroke-width:0.5;" x="848.88" xlink:href="#mcb0005524f" y="144.870636195"/>
      </g>
     </g>
     <g id="text_10">
      <!-- $3000$ -->
      <defs>
       <path d="
M22.0938 33.7031
C31 33.7031 34.9062 25.9688 34.9062 17.0312
C34.9062 5 28.5 0.390625 22.7031 0.390625
C17.4062 0.390625 8.79688 3.03125 6.09375 10.8281
C6.59375 10.625 7.09375 10.625 7.59375 10.625
C10 10.625 11.7969 12.2188 11.7969 14.8125
C11.7969 17.7031 9.59375 19 7.59375 19
C5.90625 19 3.29688 18.2031 3.29688 14.4688
C3.29688 5.23438 12.2969 -2 22.9062 -2
C34 -2 42.5 6.71875 42.5 16.9531
C42.5 26.6719 34.5 33.6875 25 34.7969
C32.5938 36.375 39.9062 43.0625 39.9062 52.0156
C39.9062 59.6875 32 65.2969 23 65.2969
C13.9062 65.2969 5.90625 59.8281 5.90625 52.0156
C5.90625 48.5938 8.5 48 9.79688 48
C11.9062 48 13.7031 49.2969 13.7031 51.8906
C13.7031 54.4688 11.9062 55.7656 9.79688 55.7656
C9.40625 55.7656 8.90625 55.7656 8.5 55.5625
C11.4062 61.8594 19.2969 63 22.7969 63
C26.2969 63 32.9062 61.3281 32.9062 51.875
C32.9062 49.1094 32.5 44.1875 29.0938 39.8438
C26.0938 36 22.7031 36 19.4062 35.5938
C18.9062 35.5938 16.5938 35.5938 16.2031 35.5938
C15.5 35.4844 15.0938 35.3906 15.0938 34.5938
C15.0938 33.8125 15.2031 33.7031 17.2031 33.7031
z
" id="CMR17-51"/>
      </defs>
      <g transform="translate(32.5179048295 148.35756023)scale(0.14 -0.14)">
       <use transform="scale(0.996264009963)" xlink:href="#CMR17-51"/>
       <use transform="translate(45.6904771171 0.0)scale(0.996264009963)" xlink:href="#CMR17-48"/>
       <use transform="translate(91.3809542341 0.0)scale(0.996264009963)" xlink:href="#CMR17-48"/>
       <use transform="translate(137.071431351 0.0)scale(0.996264009963)" xlink:href="#CMR17-48"/>
      </g>
     </g>
    </g>
    <g id="ytick_5">
     <g id="line2d_29">
      <g>
       <use style="stroke:#000000;stroke-width:0.5;" x="63.8318593361" xlink:href="#m728421d6d4" y="113.98271525"/>
      </g>
     </g>
     <g id="line2d_30">
      <g>
       <use style="stroke:#000000;stroke-width:0.5;" x="848.88" xlink:href="#mcb0005524f" y="113.98271525"/>
      </g>
     </g>
     <g id="text_11">
      <!-- $4000$ -->
      <defs>
       <path d="
M33.5938 64.3281
C33.5938 66.4062 33.5 66.5 31.7031 66.5
L2 19.5938
L2 17
L27.7969 17
L27.7969 7.14062
C27.7969 3.5 27.5938 2.5 20.5938 2.5
L18.7031 2.5
L18.7031 0
C21.9062 0 27.2969 0 30.7031 0
C34.0938 0 39.5 0 42.7031 0
L42.7031 2.5
L40.7969 2.5
C33.7969 2.5 33.5938 3.5 33.5938 7.14062
L33.5938 17
L43.7969 17
L43.7969 19.5938
L33.5938 19.5938
z

M28.0938 57.7656
L28.0938 19.5938
L4 19.5938
z
" id="CMR17-52"/>
      </defs>
      <g transform="translate(32.5179048295 117.469639285)scale(0.14 -0.14)">
       <use transform="scale(0.996264009963)" xlink:href="#CMR17-52"/>
       <use transform="translate(45.6904771171 0.0)scale(0.996264009963)" xlink:href="#CMR17-48"/>
       <use transform="translate(91.3809542341 0.0)scale(0.996264009963)" xlink:href="#CMR17-48"/>
       <use transform="translate(137.071431351 0.0)scale(0.996264009963)" xlink:href="#CMR17-48"/>
      </g>
     </g>
    </g>
    <g id="ytick_6">
     <g id="line2d_31">
      <g>
       <use style="stroke:#000000;stroke-width:0.5;" x="63.8318593361" xlink:href="#m728421d6d4" y="83.0947943051"/>
      </g>
     </g>
     <g id="line2d_32">
      <g>
       <use style="stroke:#000000;stroke-width:0.5;" x="848.88" xlink:href="#mcb0005524f" y="83.0947943051"/>
      </g>
     </g>
     <g id="text_12">
      <!-- $5000$ -->
      <g transform="translate(32.5179048295 86.58171834)scale(0.14 -0.14)">
       <use transform="scale(0.996264009963)" xlink:href="#CMR17-53"/>
       <use transform="translate(45.6904771171 0.0)scale(0.996264009963)" xlink:href="#CMR17-48"/>
       <use transform="translate(91.3809542341 0.0)scale(0.996264009963)" xlink:href="#CMR17-48"/>
       <use transform="translate(137.071431351 0.0)scale(0.996264009963)" xlink:href="#CMR17-48"/>
      </g>
     </g>
    </g>
    <g id="ytick_7">
     <g id="line2d_33">
      <g>
       <use style="stroke:#000000;stroke-width:0.5;" x="63.8318593361" xlink:href="#m728421d6d4" y="52.2068733599"/>
      </g>
     </g>
     <g id="line2d_34">
      <g>
       <use style="stroke:#000000;stroke-width:0.5;" x="848.88" xlink:href="#mcb0005524f" y="52.2068733599"/>
      </g>
     </g>
     <g id="text_13">
      <!-- $6000$ -->
      <defs>
       <path d="
M10.5938 34
C10.5938 57.6562 21.7969 63 28.2969 63
C30.4062 63 35.5 62.6406 37.5 59
C35.9062 59 32.9062 59 32.9062 55.5156
C32.9062 52.8281 35.0938 51.9219 36.5 51.9219
C37.4062 51.9219 40.0938 52.3125 40.0938 55.625
C40.0938 61.7812 35.0938 65.2969 28.2031 65.2969
C16.2969 65.2969 3.79688 52.9688 3.79688 31
C3.79688 3.95312 15.0938 -2 23.0938 -2
C32.7969 -2 42 6.67188 42 20.0469
C42 32.5156 33.9062 41.5938 23.7031 41.5938
C17.5938 41.5938 13.0938 37.6094 10.5938 30.625
z

M23.0938 0.390625
C10.7969 0.390625 10.7969 18.75 10.7969 22.4375
C10.7969 29.625 14.2031 40 23.5 40
C25.2031 40 30.0938 40 33.4062 33.125
C35.2031 29.2188 35.2031 25.1406 35.2031 20.1406
C35.2031 14.75 35.2031 10.7812 33.0938 6.78125
C30.9062 2.67188 27.7031 0.390625 23.0938 0.390625" id="CMR17-54"/>
      </defs>
      <g transform="translate(32.5179048295 55.6937973948)scale(0.14 -0.14)">
       <use transform="scale(0.996264009963)" xlink:href="#CMR17-54"/>
       <use transform="translate(45.6904771171 0.0)scale(0.996264009963)" xlink:href="#CMR17-48"/>
       <use transform="translate(91.3809542341 0.0)scale(0.996264009963)" xlink:href="#CMR17-48"/>
       <use transform="translate(137.071431351 0.0)scale(0.996264009963)" xlink:href="#CMR17-48"/>
      </g>
     </g>
    </g>
    <g id="ytick_8">
     <g id="line2d_35">
      <g>
       <use style="stroke:#000000;stroke-width:0.5;" x="63.8318593361" xlink:href="#m728421d6d4" y="21.3189524148"/>
      </g>
     </g>
     <g id="line2d_36">
      <g>
       <use style="stroke:#000000;stroke-width:0.5;" x="848.88" xlink:href="#mcb0005524f" y="21.3189524148"/>
      </g>
     </g>
     <g id="text_14">
      <!-- $7000$ -->
      <defs>
       <path d="
M45.0938 61.5781
L45.0938 63.7656
L21.5938 63.7656
C9.90625 63.7656 9.70312 65.0781 9.29688 67
L7.5 67
L4.59375 48.3438
L6.40625 48.3438
C6.70312 50.2344 7.40625 55.3125 8.59375 57.2031
C9.20312 58 16.5938 58 18.2969 58
L40.2969 58
L29.2031 41.5781
C21.7969 30.5312 16.7031 15.6094 16.7031 2.57812
C16.7031 1.39062 16.7031 -2 20.2969 -2
C23.9062 -2 23.9062 1.39062 23.9062 2.67188
L23.9062 7.26562
C23.9062 23.5625 26.7031 34.3125 31.2969 41.1875
z
" id="CMR17-55"/>
      </defs>
      <g transform="translate(32.5179048295 24.8058764496)scale(0.14 -0.14)">
       <use transform="scale(0.996264009963)" xlink:href="#CMR17-55"/>
       <use transform="translate(45.6904771171 0.0)scale(0.996264009963)" xlink:href="#CMR17-48"/>
       <use transform="translate(91.3809542341 0.0)scale(0.996264009963)" xlink:href="#CMR17-48"/>
       <use transform="translate(137.071431351 0.0)scale(0.996264009963)" xlink:href="#CMR17-48"/>
      </g>
     </g>
    </g>
    <g id="text_15">
     <!-- Number of $\gamma\gamma$ events detected -->
     <defs>
      <path d="
M32.2031 40.9844
C26.2969 43.8594 21.7031 43.8594 18.7031 43.8594
C11.5938 43.8594 3.09375 41.375 3.09375 31.2969
C3.09375 21.2344 14.0938 19.0312 17.0938 18.4219
C21.7031 17.5312 26.7969 16.5312 26.7969 11.5625
C26.7969 5.26562 19.5938 5.26562 18.2969 5.26562
C14.2969 5.26562 8.79688 6.35938 3.79688 9.96875
L2.59375 3.28125
C8.29688 0 13.7969 -1 18.4062 -1
C30.7031 -1 33.7969 6.5 33.7969 12.2031
C33.7969 17.0938 31 20.3906 29.0938 21.8906
C25.7969 24.5 24.5938 24.7969 16.4062 26.5
C15 26.7031 10.0938 27.7969 10.0938 32.2812
C10.0938 38 16.4062 38 17.7969 38
C24.2969 38 28.2969 35.9844 31 34.5
z
" id="CMSS17-115"/>
      <path d="
M40.9062 42.7969
L33.2969 42.7969
L33.2969 15.1875
C33.2969 7.78125 27.9062 4.78125 22.2031 4.78125
C15.5938 4.78125 15 6.98438 15 11.0781
L15 42.7969
L7.40625 42.7969
L7.40625 10.5938
C7.40625 2.79688 10.0938 -1 17 -1
C20.4062 -1 28.0938 -0.203125 33.5 4.78125
L33.5 0
L40.9062 0
z
" id="CMSS17-117"/>
      <path d="
M40.7969 69
L33.4062 69
L33.4062 38.0938
C30.2969 40.6719 25.2031 43.0625 19.5938 43.0625
C10.5 43.0625 3.29688 33.2969 3.29688 21.0312
C3.29688 8.78125 10.4062 -1 19.2969 -1
C26.2031 -1 30.7969 2.6875 33.2031 4.78125
L33.2031 -0.078125
L40.7969 -0.078125
z

M33.2031 13.0625
C33.2031 11.6719 33.2031 10.2031 30.0938 7.53125
C28.0938 5.85938 25.7031 5.07812 23.4062 5.07812
C18 5.07812 10.9062 9 10.9062 20.9375
C10.9062 33.3438 18.9062 37 24.4062 37
C28.0938 37 31.0938 35.2188 33.2031 32.2656
z
" id="CMSS17-100"/>
      <path d="
M41.7969 43
L34 43
L27.2969 24.3125
C25.2031 18.2031 22.2031 9.79688 21.7031 5.5
L21.5938 5.5
C21.4062 7.3125 20.5938 9.90625 20.0938 11.7031
C19.5 13.9062 18.7031 16.5 18.0938 18.3125
L9.29688 43
L1.29688 43
L17.0938 0
L26 0
z
" id="CMSS17-118"/>
      <path d="
M22.9062 65.3906
L21.0938 69.0781
L8.79688 69.0781
L8.79688 0
L16.5938 0
L16.5938 61.4062
L16.7031 61.5156
C17.4062 59.7188 17.7969 58.8281 21.9062 49.9688
L43.2969 3.6875
L45.0938 0
L57.4062 0
L57.4062 69.0781
L49.5938 69.0781
L49.5938 7.67188
L49.5 7.5625
C48.7969 9.35938 48.4062 10.25 44.2969 19.1094
z
" id="CMSS17-78"/>
      <path d="
M37.7969 12.0781
C37.5938 16.9844 37.4062 24.6875 33.5938 33.7031
C31.5938 38.7031 28.2031 44 20.9062 44
C8.59375 44 1.90625 28.3125 1.90625 25.7031
C1.90625 24.7969 2.59375 24.7969 2.90625 24.7969
C3.79688 24.7969 3.79688 25 4.29688 26.2969
C6.40625 32.5156 12.7969 37.4219 19.7031 37.4219
C33.5938 37.4219 35.5938 21.8906 35.5938 11.9844
C35.5938 5.65625 34.9062 3.5625 34.2969 1.5625
C32.4062 -4.64062 29.0938 -17.0625 29.0938 -19.875
C29.0938 -20.6719 29.4062 -21.5781 30.2031 -21.5781
C31.7031 -21.5781 32.5938 -18.2656 33.7031 -14.25
C36.0938 -5.45312 36.7031 -1.04688 37.2031 2.95312
C37.5 5.35938 43.2031 21.875 51.0938 37.6094
C51.7969 39.2031 53.2031 41.9062 53.2031 42.2031
C53.2031 42.3125 53.0938 43.0156 52.2031 43.0156
C52 43.0156 51.5 43.0156 51.2969 42.6094
C51.0938 42.4062 47.5938 35.6094 44.5938 28.7969
C43.0938 25.4062 41.0938 20.8906 37.7969 12.0781" id="CMMI12-13"/>
      <path d="
M14.9062 69
L7.5 69
L7.5 -0.078125
L15.0938 -0.078125
L15.0938 4.29688
C18.9062 0.59375 23.5 -1 27.5938 -1
C37.2031 -1 45 8.57812 45 21.125
C45 32.5938 39 43.0625 30.0938 43.0625
C23.7969 43.0625 18.2031 40.4844 14.9062 37.7969
z

M15.0938 31.9688
C17.2969 34.7188 20.4062 37 24.7969 37
C30.7031 37 37.4062 32.7656 37.4062 21.125
C37.4062 8.71875 29.4062 5.07812 23.9062 5.07812
C21.9062 5.07812 19.7969 5.5625 17.7969 7.25
C15.0938 9.60938 15.0938 11.0781 15.0938 12.4531
z
" id="CMSS17-98"/>
     </defs>
     <g transform="translate(24.8058764496 216.469185683)rotate(-90.0)scale(0.14 -0.14)">
      <use transform="scale(0.996264009963)" xlink:href="#CMSS17-78"/>
      <use transform="translate(66.061519181 0.0)scale(0.996264009963)" xlink:href="#CMSS17-117"/>
      <use transform="translate(114.266462314 0.0)scale(0.996264009963)" xlink:href="#CMSS17-109"/>
      <use transform="translate(188.495716746 0.0)scale(0.996264009963)" xlink:href="#CMSS17-98"/>
      <use transform="translate(239.30309861 0.0)scale(0.996264009963)" xlink:href="#CMSS17-101"/>
      <use transform="translate(280.941920678 0.0)scale(0.996264009963)" xlink:href="#CMSS17-114"/>
      <use transform="translate(344.080805986 0.0)scale(0.996264009963)" xlink:href="#CMSS17-111"/>
      <use transform="translate(390.924429508 0.0)scale(0.996264009963)" xlink:href="#CMSS17-102"/>
      <use transform="translate(450.780201077 0.0)scale(0.996264009963)" xlink:href="#CMMI12-13"/>
      <use transform="translate(506.798769142 0.0)scale(0.996264009963)" xlink:href="#CMMI12-13"/>
      <use transform="translate(594.046449958 0.0)scale(0.996264009963)" xlink:href="#CMSS17-101"/>
      <use transform="translate(635.685272027 0.0)scale(0.996264009963)" xlink:href="#CMSS17-118"/>
      <use transform="translate(678.685413707 0.0)scale(0.996264009963)" xlink:href="#CMSS17-101"/>
      <use transform="translate(720.324235776 0.0)scale(0.996264009963)" xlink:href="#CMSS17-110"/>
      <use transform="translate(768.529178909 0.0)scale(0.996264009963)" xlink:href="#CMSS17-116"/>
      <use transform="translate(802.360745593 0.0)scale(0.996264009963)" xlink:href="#CMSS17-115"/>
      <use transform="translate(869.503400335 0.0)scale(0.996264009963)" xlink:href="#CMSS17-100"/>
      <use transform="translate(917.708343468 0.0)scale(0.996264009963)" xlink:href="#CMSS17-101"/>
      <use transform="translate(959.347165536 0.0)scale(0.996264009963)" xlink:href="#CMSS17-116"/>
      <use transform="translate(993.17873222 0.0)scale(0.996264009963)" xlink:href="#CMSS17-101"/>
      <use transform="translate(1034.81755429 0.0)scale(0.996264009963)" xlink:href="#CMSS17-99"/>
      <use transform="translate(1076.45637636 0.0)scale(0.996264009963)" xlink:href="#CMSS17-116"/>
      <use transform="translate(1110.28794304 0.0)scale(0.996264009963)" xlink:href="#CMSS17-101"/>
      <use transform="translate(1151.92676511 0.0)scale(0.996264009963)" xlink:href="#CMSS17-100"/>
     </g>
    </g>
   </g>
   <g id="patch_3">
    <path d="
M63.8319 21.319
L848.88 21.319" style="fill:none;stroke:#000000;"/>
   </g>
   <g id="patch_4">
    <path d="
M848.88 237.534
L848.88 21.319" style="fill:none;stroke:#000000;"/>
   </g>
   <g id="patch_5">
    <path d="
M63.8319 237.534
L848.88 237.534" style="fill:none;stroke:#000000;"/>
   </g>
   <g id="patch_6">
    <path d="
M63.8319 237.534
L63.8319 21.319" style="fill:none;stroke:#000000;"/>
   </g>
   <g id="legend_1">
    <g id="patch_7">
     <path d="
M357.824 58.1734
L840.48 58.1734
L840.48 29.719
L357.824 29.719
L357.824 58.1734
z
" style="fill:#ffffff;stroke:#000000;"/>
    </g>
    <g id="LineCollection_4">
     <defs>
      <path d="
M369.584 -237.281
L369.584 -254.081" id="C3_0_f26beadd81"/>
      <path d="
M393.104 -237.281
L393.104 -254.081" id="C3_1_f0aa526f6b"/>
     </defs>
     <use style="fill:none;stroke:#008000;" x="0.0" xlink:href="#C3_0_f26beadd81" y="288.0"/>
     <use style="fill:none;stroke:#008000;" x="0.0" xlink:href="#C3_1_f0aa526f6b" y="288.0"/>
    </g>
    <g id="line2d_37">
     <g>
      <use style="fill:#008000;stroke:#008000;stroke-width:0.5;" x="369.583818445" xlink:href="#m1ef3793437" y="50.7189524148"/>
      <use style="fill:#008000;stroke:#008000;stroke-width:0.5;" x="393.103818445" xlink:href="#m1ef3793437" y="50.7189524148"/>
     </g>
    </g>
    <g id="line2d_38">
     <g>
      <use style="fill:#008000;stroke:#008000;stroke-width:0.5;" x="369.583818445" xlink:href="#m1ef3793437" y="33.9189524148"/>
      <use style="fill:#008000;stroke:#008000;stroke-width:0.5;" x="393.103818445" xlink:href="#m1ef3793437" y="33.9189524148"/>
     </g>
    </g>
    <g id="line2d_39"/>
    <g id="line2d_40">
     <g>
      <use style="fill:#00ff00;stroke:#000000;stroke-width:0.5;" x="369.583818445" xlink:href="#m2a5b102ee3" y="42.3189524148"/>
      <use style="fill:#00ff00;stroke:#000000;stroke-width:0.5;" x="393.103818445" xlink:href="#m2a5b102ee3" y="42.3189524148"/>
     </g>
    </g>
    <g id="text_16">
     <!-- Partially Wrapped -->
     <defs>
      <path d="
M41.7969 43
L34 43
C25.5 20.2188 22.5938 10.9844 22.4062 6
L22.2969 6
C22 10.8906 17.5938 22.8125 14.0938 31.375
L9.40625 43
L1.29688 43
L19 0.203125
C17.9062 -2.78125 16.2969 -7.26562 15.7969 -8.26562
C13.5938 -13.8281 12.0938 -13.8281 10.5 -13.8281
C10.0938 -13.8281 6.90625 -13.8281 3.29688 -12.625
L3.90625 -19.2031
C6.40625 -19.7031 8.90625 -20 10.7031 -20
C13.2031 -20 18.2031 -20 22.7969 -7.76562
z
" id="CMSS17-121"/>
      <path d="
M14.7969 69.0781
L7.40625 69.0781
L7.40625 0
L14.7969 0
z
" id="CMSS17-108"/>
      <path d="
M32.9062 29
C44.9062 29 54.7031 38.3281 54.7031 49.3438
C54.7031 60.1562 45.2969 69.5781 32.2969 69.5781
L8.90625 69.5781
L8.90625 0
L17.2969 0
L17.2969 29
z

M30.0938 64
C41.7031 64 46.7969 56.6719 46.7969 49.3281
C46.7969 42.5 42.0938 34.7812 30.0938 34.7812
L17.0938 34.7812
L17.0938 64
z
" id="CMSS17-80"/>
      <path d="
M87.2031 69
L79.5938 69
L71.2031 38.0625
C69.9062 33.0781 68.7031 28.1094 67.5 23.125
C65.7031 15.7656 64.4062 10.5938 64.2031 8
L64.0938 8
C63.9062 10.6875 62.5938 16.3594 61 22.7344
C59.7969 28.0156 58.5 33.2812 57.0938 38.4531
L48.7969 69
L40.4062 69
L32.5 40.0781
L28.5 24.2812
C25.5 11.7812 25.4062 9.98438 25.2031 8
L25.0938 8
C25.0938 8.59375 24.7031 11.875 21.9062 23.4844
C20.5 29.2656 19.0938 35.125 17.5938 40.6875
L9.90625 69
L1.29688 69
L20.2969 0
L28.5938 0
L36.5 28.7656
L40.5 44.5781
C43.2031 55.7344 43.7969 58.5156 44 61
L44.0938 61
C44.0938 60.6094 45 54.3281 48.9062 39.7969
L59.5 0
L68.2031 0
z
" id="CMSS17-87"/>
     </defs>
     <g transform="translate(411.583818445 48.1989524148)scale(0.168 -0.168)">
      <use transform="scale(0.996264009963)" xlink:href="#CMSS17-80"/>
      <use transform="translate(57.1331323455 0.0)scale(0.996264009963)" xlink:href="#CMSS17-97"/>
      <use transform="translate(99.4525990183 0.0)scale(0.996264009963)" xlink:href="#CMSS17-114"/>
      <use transform="translate(131.362371575 0.0)scale(0.996264009963)" xlink:href="#CMSS17-116"/>
      <use transform="translate(165.193938259 0.0)scale(0.996264009963)" xlink:href="#CMSS17-105"/>
      <use transform="translate(187.374661304 0.0)scale(0.996264009963)" xlink:href="#CMSS17-97"/>
      <use transform="translate(232.29658191 0.0)scale(0.996264009963)" xlink:href="#CMSS17-108"/>
      <use transform="translate(254.477304955 0.0)scale(0.996264009963)" xlink:href="#CMSS17-108"/>
      <use transform="translate(276.658028 0.0)scale(0.996264009963)" xlink:href="#CMSS17-121"/>
      <use transform="translate(350.887282432 0.0)scale(0.996264009963)" xlink:href="#CMSS17-87"/>
      <use transform="translate(436.526994717 0.0)scale(0.996264009963)" xlink:href="#CMSS17-114"/>
      <use transform="translate(468.436767274 0.0)scale(0.996264009963)" xlink:href="#CMSS17-97"/>
      <use transform="translate(513.358687879 0.0)scale(0.996264009963)" xlink:href="#CMSS17-112"/>
      <use transform="translate(561.563631013 0.0)scale(0.996264009963)" xlink:href="#CMSS17-112"/>
      <use transform="translate(612.371012877 0.0)scale(0.996264009963)" xlink:href="#CMSS17-101"/>
      <use transform="translate(654.009834945 0.0)scale(0.996264009963)" xlink:href="#CMSS17-100"/>
     </g>
    </g>
    <g id="LineCollection_5">
     <defs>
      <path d="
M572.739 -237.281
L572.739 -254.081" id="C4_0_1b40e64454"/>
      <path d="
M596.259 -237.281
L596.259 -254.081" id="C4_1_d6978adb05"/>
     </defs>
     <use style="fill:none;stroke:#0000ff;" x="0.0" xlink:href="#C4_0_1b40e64454" y="288.0"/>
     <use style="fill:none;stroke:#0000ff;" x="0.0" xlink:href="#C4_1_d6978adb05" y="288.0"/>
    </g>
    <g id="line2d_41">
     <g>
      <use style="fill:#0000ff;stroke:#0000ff;stroke-width:0.5;" x="572.739223931" xlink:href="#mdde457ef1d" y="50.7189524148"/>
      <use style="fill:#0000ff;stroke:#0000ff;stroke-width:0.5;" x="596.259223931" xlink:href="#mdde457ef1d" y="50.7189524148"/>
     </g>
    </g>
    <g id="line2d_42">
     <g>
      <use style="fill:#0000ff;stroke:#0000ff;stroke-width:0.5;" x="572.739223931" xlink:href="#mdde457ef1d" y="33.9189524148"/>
      <use style="fill:#0000ff;stroke:#0000ff;stroke-width:0.5;" x="596.259223931" xlink:href="#mdde457ef1d" y="33.9189524148"/>
     </g>
    </g>
    <g id="line2d_43"/>
    <g id="line2d_44">
     <g>
      <use style="fill:#0000ff;stroke:#000000;stroke-linejoin:miter;stroke-width:0.5;" x="572.739223931" xlink:href="#m225e1ef6c6" y="42.3189524148"/>
      <use style="fill:#0000ff;stroke:#000000;stroke-linejoin:miter;stroke-width:0.5;" x="596.259223931" xlink:href="#m225e1ef6c6" y="42.3189524148"/>
     </g>
    </g>
    <g id="text_17">
     <!-- Unwrapped -->
     <defs>
      <path d="
M55.5 68.5
L47.9062 68.5
L47.9062 22.6406
C47.9062 9.4375 39.7969 3.57812 32.4062 3.57812
C24.7969 3.57812 17.2031 9.73438 17.2031 22.5469
L17.2031 68.5
L8.79688 68.5
L8.79688 22.7188
C8.79688 8.42188 19.9062 -2 32.2969 -2
C44.7031 -2 55.5 8.42188 55.5 22.7188
z
" id="CMSS17-85"/>
      <path d="
M62.7031 43
L55.0938 43
L49.7969 25.1094
C48.7031 21.3281 45.5938 10.8906 45.2031 6
L45.0938 6
C44.9062 9 43.2031 16.1406 40.4062 25.6094
L35.2969 43
L28.4062 43
L23.4062 26
C20.9062 17.3438 19 9.98438 18.7969 6
L18.7031 6
C18.2969 11.875 14.2031 25.6094 13.5938 27.7969
L9.09375 43
L1.29688 43
L14.2969 0
L21.9062 0
C27.0938 17.125 31.0938 30.3594 31.4062 37.0312
C31.5938 33.75 33.2969 26.6719 34.2969 23.1875
L40.9062 0
L49.7031 0
z
" id="CMSS17-119"/>
     </defs>
     <g transform="translate(614.739223931 48.1989524148)scale(0.168 -0.168)">
      <use transform="scale(0.996264009963)" xlink:href="#CMSS17-85"/>
      <use transform="translate(64.1397402563 0.0)scale(0.996264009963)" xlink:href="#CMSS17-110"/>
      <use transform="translate(112.344683389 0.0)scale(0.996264009963)" xlink:href="#CMSS17-119"/>
      <use transform="translate(176.164228503 0.0)scale(0.996264009963)" xlink:href="#CMSS17-114"/>
      <use transform="translate(208.07400106 0.0)scale(0.996264009963)" xlink:href="#CMSS17-97"/>
      <use transform="translate(252.995921666 0.0)scale(0.996264009963)" xlink:href="#CMSS17-112"/>
      <use transform="translate(301.200864799 0.0)scale(0.996264009963)" xlink:href="#CMSS17-112"/>
      <use transform="translate(352.008246663 0.0)scale(0.996264009963)" xlink:href="#CMSS17-101"/>
      <use transform="translate(393.647068732 0.0)scale(0.996264009963)" xlink:href="#CMSS17-100"/>
     </g>
    </g>
    <g id="LineCollection_6">
     <defs>
      <path d="
M730.459 -237.281
L730.459 -254.081" id="C5_0_01b747ee8f"/>
      <path d="
M753.979 -237.281
L753.979 -254.081" id="C5_1_d577fd6579"/>
     </defs>
     <use style="fill:none;stroke:#ff0000;" x="0.0" xlink:href="#C5_0_01b747ee8f" y="288.0"/>
     <use style="fill:none;stroke:#ff0000;" x="0.0" xlink:href="#C5_1_d577fd6579" y="288.0"/>
    </g>
    <g id="line2d_45">
     <g>
      <use style="fill:#ff0000;stroke:#ff0000;stroke-width:0.5;" x="730.458690944" xlink:href="#m12d35e2592" y="50.7189524148"/>
      <use style="fill:#ff0000;stroke:#ff0000;stroke-width:0.5;" x="753.978690944" xlink:href="#m12d35e2592" y="50.7189524148"/>
     </g>
    </g>
    <g id="line2d_46">
     <g>
      <use style="fill:#ff0000;stroke:#ff0000;stroke-width:0.5;" x="730.458690944" xlink:href="#m12d35e2592" y="33.9189524148"/>
      <use style="fill:#ff0000;stroke:#ff0000;stroke-width:0.5;" x="753.978690944" xlink:href="#m12d35e2592" y="33.9189524148"/>
     </g>
    </g>
    <g id="line2d_47"/>
    <g id="line2d_48">
     <g>
      <use style="fill:#ff0000;stroke:#000000;stroke-linejoin:bevel;stroke-width:0.5;" x="730.458690944" xlink:href="#m46c0476064" y="42.3189524148"/>
      <use style="fill:#ff0000;stroke:#000000;stroke-linejoin:bevel;stroke-width:0.5;" x="753.978690944" xlink:href="#m46c0476064" y="42.3189524148"/>
     </g>
    </g>
    <g id="text_18">
     <!-- Wrapped -->
     <g transform="translate(772.458690944 48.1989524148)scale(0.168 -0.168)">
      <use transform="scale(0.996264009963)" xlink:href="#CMSS17-87"/>
      <use transform="translate(85.639712285 0.0)scale(0.996264009963)" xlink:href="#CMSS17-114"/>
      <use transform="translate(117.549484842 0.0)scale(0.996264009963)" xlink:href="#CMSS17-97"/>
      <use transform="translate(162.471405447 0.0)scale(0.996264009963)" xlink:href="#CMSS17-112"/>
      <use transform="translate(210.676348581 0.0)scale(0.996264009963)" xlink:href="#CMSS17-112"/>
      <use transform="translate(261.483730444 0.0)scale(0.996264009963)" xlink:href="#CMSS17-101"/>
      <use transform="translate(303.122552513 0.0)scale(0.996264009963)" xlink:href="#CMSS17-100"/>
     </g>
    </g>
   </g>
  </g>
 </g>
 <defs>
  <clipPath id="pf228d49d95">
   <rect height="216.215446616" width="785.048140664" x="63.8318593361" y="21.3189524148"/>
  </clipPath>
 </defs>
</svg>
