<?xml version="1.0" encoding="utf-8" standalone="no"?>
<!DOCTYPE svg PUBLIC "-//W3C//DTD SVG 1.1//EN"
  "http://www.w3.org/Graphics/SVG/1.1/DTD/svg11.dtd">
<!-- Created with matplotlib (http://matplotlib.org/) -->
<svg height="288pt" version="1.1" viewBox="0 0 864 288" width="864pt" xmlns="http://www.w3.org/2000/svg" xmlns:xlink="http://www.w3.org/1999/xlink">
 <defs>
  <style type="text/css">
*{stroke-linecap:butt;stroke-linejoin:round;}
  </style>
 </defs>
 <g id="figure_1">
  <g id="patch_1">
   <path d="
M0 288
L864 288
L864 0
L0 0
z
" style="fill:#ffffff;"/>
  </g>
  <g id="axes_1">
   <g id="patch_2">
    <path d="
M71.595 236.88
L848.88 236.88
L848.88 21.87
L71.595 21.87
z
" style="fill:#ffffff;"/>
   </g>
   <g id="LineCollection_1">
    <defs>
     <path d="
M142.257 -204.692
L142.257 -209.067" id="C0_0_9fe5a3d0a7"/>
     <path d="
M212.92 -206.675
L212.92 -211.077" id="C0_1_6850446f8e"/>
     <path d="
M283.582 -207.834
L283.582 -212.253" id="C0_2_78075a9016"/>
     <path d="
M460.237 -201.429
L460.237 -205.757" id="C0_3_861a888a55"/>
     <path d="
M530.9 -202.008
L530.9 -206.345" id="C0_4_41d3a307e5"/>
     <path d="
M636.893 -190.421
L636.893 -194.588" id="C0_5_91248f8a9a"/>
     <path d="
M354.244 -203.655
L354.244 -208.015" id="C0_6_def56305f1"/>
     <path d="
M778.218 -178.989
L778.218 -182.983" id="C0_7_fe02c41e7f"/>
     <path d="
M707.555 -193.805
L707.555 -198.023" id="C0_8_4e6ca44d20"/>
    </defs>
    <g clip-path="url(#pe74e8a12dc)">
     <use style="fill:none;stroke:#0000ff;" x="0.0" xlink:href="#C0_0_9fe5a3d0a7" y="288.0"/>
    </g>
    <g clip-path="url(#pe74e8a12dc)">
     <use style="fill:none;stroke:#0000ff;" x="0.0" xlink:href="#C0_1_6850446f8e" y="288.0"/>
    </g>
    <g clip-path="url(#pe74e8a12dc)">
     <use style="fill:none;stroke:#0000ff;" x="0.0" xlink:href="#C0_2_78075a9016" y="288.0"/>
    </g>
    <g clip-path="url(#pe74e8a12dc)">
     <use style="fill:none;stroke:#0000ff;" x="0.0" xlink:href="#C0_3_861a888a55" y="288.0"/>
    </g>
    <g clip-path="url(#pe74e8a12dc)">
     <use style="fill:none;stroke:#0000ff;" x="0.0" xlink:href="#C0_4_41d3a307e5" y="288.0"/>
    </g>
    <g clip-path="url(#pe74e8a12dc)">
     <use style="fill:none;stroke:#0000ff;" x="0.0" xlink:href="#C0_5_91248f8a9a" y="288.0"/>
    </g>
    <g clip-path="url(#pe74e8a12dc)">
     <use style="fill:none;stroke:#0000ff;" x="0.0" xlink:href="#C0_6_def56305f1" y="288.0"/>
    </g>
    <g clip-path="url(#pe74e8a12dc)">
     <use style="fill:none;stroke:#0000ff;" x="0.0" xlink:href="#C0_7_fe02c41e7f" y="288.0"/>
    </g>
    <g clip-path="url(#pe74e8a12dc)">
     <use style="fill:none;stroke:#0000ff;" x="0.0" xlink:href="#C0_8_4e6ca44d20" y="288.0"/>
    </g>
   </g>
   <g id="LineCollection_2">
    <defs>
     <path d="
M530.9 -75.3066
L530.9 -77.0614" id="C1_0_f63c1b892a"/>
     <path d="
M460.237 -99.0972
L460.237 -101.556" id="C1_1_ea1364bb41"/>
     <path d="
M707.555 -59.3554
L707.555 -60.3925" id="C1_2_e5918f1eeb"/>
     <path d="
M212.92 -200.209
L212.92 -204.52" id="C1_3_79495828c4"/>
     <path d="
M142.257 -208.444
L142.257 -212.871" id="C1_4_118629f7bd"/>
     <path d="
M636.893 -62.3728
L636.893 -63.5797" id="C1_5_df56037a88"/>
     <path d="
M283.582 -187.555
L283.582 -191.68" id="C1_6_3cebb600ed"/>
     <path d="
M354.244 -154.524
L354.244 -158.119" id="C1_7_ac9d3119e3"/>
    </defs>
    <g clip-path="url(#pe74e8a12dc)">
     <use style="fill:none;stroke:#ff0000;" x="0.0" xlink:href="#C1_0_f63c1b892a" y="288.0"/>
    </g>
    <g clip-path="url(#pe74e8a12dc)">
     <use style="fill:none;stroke:#ff0000;" x="0.0" xlink:href="#C1_1_ea1364bb41" y="288.0"/>
    </g>
    <g clip-path="url(#pe74e8a12dc)">
     <use style="fill:none;stroke:#ff0000;" x="0.0" xlink:href="#C1_2_e5918f1eeb" y="288.0"/>
    </g>
    <g clip-path="url(#pe74e8a12dc)">
     <use style="fill:none;stroke:#ff0000;" x="0.0" xlink:href="#C1_3_79495828c4" y="288.0"/>
    </g>
    <g clip-path="url(#pe74e8a12dc)">
     <use style="fill:none;stroke:#ff0000;" x="0.0" xlink:href="#C1_4_118629f7bd" y="288.0"/>
    </g>
    <g clip-path="url(#pe74e8a12dc)">
     <use style="fill:none;stroke:#ff0000;" x="0.0" xlink:href="#C1_5_df56037a88" y="288.0"/>
    </g>
    <g clip-path="url(#pe74e8a12dc)">
     <use style="fill:none;stroke:#ff0000;" x="0.0" xlink:href="#C1_6_3cebb600ed" y="288.0"/>
    </g>
    <g clip-path="url(#pe74e8a12dc)">
     <use style="fill:none;stroke:#ff0000;" x="0.0" xlink:href="#C1_7_ac9d3119e3" y="288.0"/>
    </g>
   </g>
   <g id="LineCollection_3">
    <defs>
     <path d="
M460.237 -200.636
L460.237 -204.953" id="C2_0_6ae27d1e96"/>
     <path d="
M778.218 -196.488
L778.218 -200.745" id="C2_1_d36edd07c3"/>
     <path d="
M530.9 -201.612
L530.9 -205.943" id="C2_2_22a5270bd7"/>
     <path d="
M636.893 -202.039
L636.893 -206.376" id="C2_3_e841f32cd1"/>
     <path d="
M283.582 -197.769
L283.582 -202.045" id="C2_4_f9c6b89605"/>
     <path d="
M354.244 -198.654
L354.244 -202.942" id="C2_5_d898990548"/>
     <path d="
M177.588 -202.832
L177.588 -207.18" id="C2_6_b3ae4ad1d7"/>
     <path d="
M707.555 -198.257
L707.555 -202.54" id="C2_7_bf9a74df7a"/>
     <path d="
M142.257 -193.47
L142.257 -197.682" id="C2_8_ef4433b20c"/>
    </defs>
    <g clip-path="url(#pe74e8a12dc)">
     <use style="fill:none;stroke:#008000;" x="0.0" xlink:href="#C2_0_6ae27d1e96" y="288.0"/>
    </g>
    <g clip-path="url(#pe74e8a12dc)">
     <use style="fill:none;stroke:#008000;" x="0.0" xlink:href="#C2_1_d36edd07c3" y="288.0"/>
    </g>
    <g clip-path="url(#pe74e8a12dc)">
     <use style="fill:none;stroke:#008000;" x="0.0" xlink:href="#C2_2_22a5270bd7" y="288.0"/>
    </g>
    <g clip-path="url(#pe74e8a12dc)">
     <use style="fill:none;stroke:#008000;" x="0.0" xlink:href="#C2_3_e841f32cd1" y="288.0"/>
    </g>
    <g clip-path="url(#pe74e8a12dc)">
     <use style="fill:none;stroke:#008000;" x="0.0" xlink:href="#C2_4_f9c6b89605" y="288.0"/>
    </g>
    <g clip-path="url(#pe74e8a12dc)">
     <use style="fill:none;stroke:#008000;" x="0.0" xlink:href="#C2_5_d898990548" y="288.0"/>
    </g>
    <g clip-path="url(#pe74e8a12dc)">
     <use style="fill:none;stroke:#008000;" x="0.0" xlink:href="#C2_6_b3ae4ad1d7" y="288.0"/>
    </g>
    <g clip-path="url(#pe74e8a12dc)">
     <use style="fill:none;stroke:#008000;" x="0.0" xlink:href="#C2_7_bf9a74df7a" y="288.0"/>
    </g>
    <g clip-path="url(#pe74e8a12dc)">
     <use style="fill:none;stroke:#008000;" x="0.0" xlink:href="#C2_8_ef4433b20c" y="288.0"/>
    </g>
   </g>
   <g id="line2d_1">
    <defs>
     <path d="
M3 1.83697e-16
L-3 -1.83697e-16" id="mdde457ef1d" style="stroke:#0000ff;stroke-width:0.5;"/>
    </defs>
    <g clip-path="url(#pe74e8a12dc)">
     <use style="fill:#0000ff;stroke:#0000ff;stroke-width:0.5;" x="142.257272727" xlink:href="#mdde457ef1d" y="83.3079081808"/>
     <use style="fill:#0000ff;stroke:#0000ff;stroke-width:0.5;" x="212.919545455" xlink:href="#mdde457ef1d" y="81.325360475"/>
     <use style="fill:#0000ff;stroke:#0000ff;stroke-width:0.5;" x="283.581818182" xlink:href="#mdde457ef1d" y="80.1662916489"/>
     <use style="fill:#0000ff;stroke:#0000ff;stroke-width:0.5;" x="460.2375" xlink:href="#mdde457ef1d" y="86.5712902024"/>
     <use style="fill:#0000ff;stroke:#0000ff;stroke-width:0.5;" x="530.899772727" xlink:href="#mdde457ef1d" y="85.9918292773"/>
     <use style="fill:#0000ff;stroke:#0000ff;stroke-width:0.5;" x="636.893181818" xlink:href="#mdde457ef1d" y="97.5794874494"/>
     <use style="fill:#0000ff;stroke:#0000ff;stroke-width:0.5;" x="354.244090909" xlink:href="#mdde457ef1d" y="84.344897454"/>
     <use style="fill:#0000ff;stroke:#0000ff;stroke-width:0.5;" x="778.217727273" xlink:href="#mdde457ef1d" y="109.011190127"/>
     <use style="fill:#0000ff;stroke:#0000ff;stroke-width:0.5;" x="707.555454545" xlink:href="#mdde457ef1d" y="94.1950200478"/>
    </g>
   </g>
   <g id="line2d_2">
    <g clip-path="url(#pe74e8a12dc)">
     <use style="fill:#0000ff;stroke:#0000ff;stroke-width:0.5;" x="142.257272727" xlink:href="#mdde457ef1d" y="78.9333175335"/>
     <use style="fill:#0000ff;stroke:#0000ff;stroke-width:0.5;" x="212.919545455" xlink:href="#mdde457ef1d" y="76.9228223822"/>
     <use style="fill:#0000ff;stroke:#0000ff;stroke-width:0.5;" x="283.581818182" xlink:href="#mdde457ef1d" y="75.7474969225"/>
     <use style="fill:#0000ff;stroke:#0000ff;stroke-width:0.5;" x="460.2375" xlink:href="#mdde457ef1d" y="82.243098369"/>
     <use style="fill:#0000ff;stroke:#0000ff;stroke-width:0.5;" x="530.899772727" xlink:href="#mdde457ef1d" y="81.6553621513"/>
     <use style="fill:#0000ff;stroke:#0000ff;stroke-width:0.5;" x="636.893181818" xlink:href="#mdde457ef1d" y="93.4116468363"/>
     <use style="fill:#0000ff;stroke:#0000ff;stroke-width:0.5;" x="354.244090909" xlink:href="#mdde457ef1d" y="79.9849968317"/>
     <use style="fill:#0000ff;stroke:#0000ff;stroke-width:0.5;" x="778.217727273" xlink:href="#mdde457ef1d" y="105.016729873"/>
     <use style="fill:#0000ff;stroke:#0000ff;stroke-width:0.5;" x="707.555454545" xlink:href="#mdde457ef1d" y="89.9772256665"/>
    </g>
   </g>
   <g id="line2d_3">
    <defs>
     <path d="
M0 1.5
C0.397805 1.5 0.77937 1.34195 1.06066 1.06066
C1.34195 0.77937 1.5 0.397805 1.5 0
C1.5 -0.397805 1.34195 -0.77937 1.06066 -1.06066
C0.77937 -1.34195 0.397805 -1.5 0 -1.5
C-0.397805 -1.5 -0.77937 -1.34195 -1.06066 -1.06066
C-1.34195 -0.77937 -1.5 -0.397805 -1.5 0
C-1.5 0.397805 -1.34195 0.77937 -1.06066 1.06066
C-0.77937 1.34195 -0.397805 1.5 0 1.5
z
" id="m76a7ce5b4a" style="stroke:#0000ff;stroke-width:0.5;"/>
    </defs>
    <g clip-path="url(#pe74e8a12dc)">
     <use style="fill:#0000ff;stroke:#0000ff;stroke-width:0.5;" x="142.257272727" xlink:href="#m76a7ce5b4a" y="81.1206128571"/>
     <use style="fill:#0000ff;stroke:#0000ff;stroke-width:0.5;" x="212.919545455" xlink:href="#m76a7ce5b4a" y="79.1240914286"/>
     <use style="fill:#0000ff;stroke:#0000ff;stroke-width:0.5;" x="283.581818182" xlink:href="#m76a7ce5b4a" y="77.9568942857"/>
     <use style="fill:#0000ff;stroke:#0000ff;stroke-width:0.5;" x="460.2375" xlink:href="#m76a7ce5b4a" y="84.4071942857"/>
     <use style="fill:#0000ff;stroke:#0000ff;stroke-width:0.5;" x="530.899772727" xlink:href="#m76a7ce5b4a" y="83.8235957143"/>
     <use style="fill:#0000ff;stroke:#0000ff;stroke-width:0.5;" x="636.893181818" xlink:href="#m76a7ce5b4a" y="95.4955671429"/>
     <use style="fill:#0000ff;stroke:#0000ff;stroke-width:0.5;" x="354.244090909" xlink:href="#m76a7ce5b4a" y="82.1649471429"/>
     <use style="fill:#0000ff;stroke:#0000ff;stroke-width:0.5;" x="778.217727273" xlink:href="#m76a7ce5b4a" y="107.01396"/>
     <use style="fill:#0000ff;stroke:#0000ff;stroke-width:0.5;" x="707.555454545" xlink:href="#m76a7ce5b4a" y="92.0861228571"/>
    </g>
   </g>
   <g id="line2d_4">
    <defs>
     <path d="
M3 1.83697e-16
L-3 -1.83697e-16" id="m12d35e2592" style="stroke:#ff0000;stroke-width:0.5;"/>
    </defs>
    <g clip-path="url(#pe74e8a12dc)">
     <use style="fill:#ff0000;stroke:#ff0000;stroke-width:0.5;" x="530.899772727" xlink:href="#m12d35e2592" y="212.693393444"/>
     <use style="fill:#ff0000;stroke:#ff0000;stroke-width:0.5;" x="460.2375" xlink:href="#m12d35e2592" y="188.902821939"/>
     <use style="fill:#ff0000;stroke:#ff0000;stroke-width:0.5;" x="707.555454545" xlink:href="#m12d35e2592" y="228.644562367"/>
     <use style="fill:#ff0000;stroke:#ff0000;stroke-width:0.5;" x="212.919545455" xlink:href="#m12d35e2592" y="87.7911819763"/>
     <use style="fill:#ff0000;stroke:#ff0000;stroke-width:0.5;" x="142.257272727" xlink:href="#m12d35e2592" y="79.5562434366"/>
     <use style="fill:#ff0000;stroke:#ff0000;stroke-width:0.5;" x="636.893181818" xlink:href="#m12d35e2592" y="225.627202321"/>
     <use style="fill:#ff0000;stroke:#ff0000;stroke-width:0.5;" x="283.581818182" xlink:href="#m12d35e2592" y="100.445376483"/>
     <use style="fill:#ff0000;stroke:#ff0000;stroke-width:0.5;" x="354.244090909" xlink:href="#m12d35e2592" y="133.476269663"/>
    </g>
   </g>
   <g id="line2d_5">
    <g clip-path="url(#pe74e8a12dc)">
     <use style="fill:#ff0000;stroke:#ff0000;stroke-width:0.5;" x="530.899772727" xlink:href="#m12d35e2592" y="210.938560842"/>
     <use style="fill:#ff0000;stroke:#ff0000;stroke-width:0.5;" x="460.2375" xlink:href="#m12d35e2592" y="186.44402949"/>
     <use style="fill:#ff0000;stroke:#ff0000;stroke-width:0.5;" x="707.555454545" xlink:href="#m12d35e2592" y="227.60748049"/>
     <use style="fill:#ff0000;stroke:#ff0000;stroke-width:0.5;" x="212.919545455" xlink:href="#m12d35e2592" y="83.480463738"/>
     <use style="fill:#ff0000;stroke:#ff0000;stroke-width:0.5;" x="142.257272727" xlink:href="#m12d35e2592" y="75.1289165634"/>
     <use style="fill:#ff0000;stroke:#ff0000;stroke-width:0.5;" x="636.893181818" xlink:href="#m12d35e2592" y="224.42026625"/>
     <use style="fill:#ff0000;stroke:#ff0000;stroke-width:0.5;" x="283.581818182" xlink:href="#m12d35e2592" y="96.3203120886"/>
     <use style="fill:#ff0000;stroke:#ff0000;stroke-width:0.5;" x="354.244090909" xlink:href="#m12d35e2592" y="129.88108748"/>
    </g>
   </g>
   <g id="line2d_6">
    <defs>
     <path d="
M0 1.5
C0.397805 1.5 0.77937 1.34195 1.06066 1.06066
C1.34195 0.77937 1.5 0.397805 1.5 0
C1.5 -0.397805 1.34195 -0.77937 1.06066 -1.06066
C0.77937 -1.34195 0.397805 -1.5 0 -1.5
C-0.397805 -1.5 -0.77937 -1.34195 -1.06066 -1.06066
C-1.34195 -0.77937 -1.5 -0.397805 -1.5 0
C-1.5 0.397805 -1.34195 0.77937 -1.06066 1.06066
C-0.77937 1.34195 -0.397805 1.5 0 1.5
z
" id="ma07bdd5909" style="stroke:#ff0000;stroke-width:0.5;"/>
    </defs>
    <g clip-path="url(#pe74e8a12dc)">
     <use style="fill:#ff0000;stroke:#ff0000;stroke-width:0.5;" x="530.899772727" xlink:href="#ma07bdd5909" y="211.815977143"/>
     <use style="fill:#ff0000;stroke:#ff0000;stroke-width:0.5;" x="460.2375" xlink:href="#ma07bdd5909" y="187.673425714"/>
     <use style="fill:#ff0000;stroke:#ff0000;stroke-width:0.5;" x="707.555454545" xlink:href="#ma07bdd5909" y="228.126021429"/>
     <use style="fill:#ff0000;stroke:#ff0000;stroke-width:0.5;" x="212.919545455" xlink:href="#ma07bdd5909" y="85.6358228571"/>
     <use style="fill:#ff0000;stroke:#ff0000;stroke-width:0.5;" x="142.257272727" xlink:href="#ma07bdd5909" y="77.34258"/>
     <use style="fill:#ff0000;stroke:#ff0000;stroke-width:0.5;" x="636.893181818" xlink:href="#ma07bdd5909" y="225.023734286"/>
     <use style="fill:#ff0000;stroke:#ff0000;stroke-width:0.5;" x="283.581818182" xlink:href="#ma07bdd5909" y="98.3828442857"/>
     <use style="fill:#ff0000;stroke:#ff0000;stroke-width:0.5;" x="354.244090909" xlink:href="#ma07bdd5909" y="131.678678571"/>
    </g>
   </g>
   <g id="line2d_7">
    <defs>
     <path d="
M3 1.83697e-16
L-3 -1.83697e-16" id="m1ef3793437" style="stroke:#008000;stroke-width:0.5;"/>
    </defs>
    <g clip-path="url(#pe74e8a12dc)">
     <use style="fill:#008000;stroke:#008000;stroke-width:0.5;" x="460.2375" xlink:href="#m1ef3793437" y="87.3642238782"/>
     <use style="fill:#008000;stroke:#008000;stroke-width:0.5;" x="778.217727273" xlink:href="#m1ef3793437" y="91.5116304063"/>
     <use style="fill:#008000;stroke:#008000;stroke-width:0.5;" x="530.899772727" xlink:href="#m1ef3793437" y="86.388303396"/>
     <use style="fill:#008000;stroke:#008000;stroke-width:0.5;" x="636.893181818" xlink:href="#m1ef3793437" y="85.9613311151"/>
     <use style="fill:#008000;stroke:#008000;stroke-width:0.5;" x="283.581818182" xlink:href="#m1ef3793437" y="90.2308584086"/>
     <use style="fill:#008000;stroke:#008000;stroke-width:0.5;" x="354.244090909" xlink:href="#m1ef3793437" y="89.346492358"/>
     <use style="fill:#008000;stroke:#008000;stroke-width:0.5;" x="177.588409091" xlink:href="#m1ef3793437" y="85.1683712587"/>
     <use style="fill:#008000;stroke:#008000;stroke-width:0.5;" x="707.555454545" xlink:href="#m1ef3793437" y="89.7429346695"/>
     <use style="fill:#008000;stroke:#008000;stroke-width:0.5;" x="142.257272727" xlink:href="#m1ef3793437" y="94.5304309387"/>
    </g>
   </g>
   <g id="line2d_8">
    <g clip-path="url(#pe74e8a12dc)">
     <use style="fill:#008000;stroke:#008000;stroke-width:0.5;" x="460.2375" xlink:href="#m1ef3793437" y="83.0473818361"/>
     <use style="fill:#008000;stroke:#008000;stroke-width:0.5;" x="778.217727273" xlink:href="#m1ef3793437" y="87.2546495937"/>
     <use style="fill:#008000;stroke:#008000;stroke-width:0.5;" x="530.899772727" xlink:href="#m1ef3793437" y="82.057496604"/>
     <use style="fill:#008000;stroke:#008000;stroke-width:0.5;" x="636.893181818" xlink:href="#m1ef3793437" y="81.6244288849"/>
     <use style="fill:#008000;stroke:#008000;stroke-width:0.5;" x="283.581818182" xlink:href="#m1ef3793437" y="85.9553015914"/>
     <use style="fill:#008000;stroke:#008000;stroke-width:0.5;" x="354.244090909" xlink:href="#m1ef3793437" y="85.0581562134"/>
     <use style="fill:#008000;stroke:#008000;stroke-width:0.5;" x="177.588409091" xlink:href="#m1ef3793437" y="80.8201715984"/>
     <use style="fill:#008000;stroke:#008000;stroke-width:0.5;" x="707.555454545" xlink:href="#m1ef3793437" y="85.4603224733"/>
     <use style="fill:#008000;stroke:#008000;stroke-width:0.5;" x="142.257272727" xlink:href="#m1ef3793437" y="90.3175604899"/>
    </g>
   </g>
   <g id="line2d_9">
    <defs>
     <path d="
M0 1.5
C0.397805 1.5 0.77937 1.34195 1.06066 1.06066
C1.34195 0.77937 1.5 0.397805 1.5 0
C1.5 -0.397805 1.34195 -0.77937 1.06066 -1.06066
C0.77937 -1.34195 0.397805 -1.5 0 -1.5
C-0.397805 -1.5 -0.77937 -1.34195 -1.06066 -1.06066
C-1.34195 -0.77937 -1.5 -0.397805 -1.5 0
C-1.5 0.397805 -1.34195 0.77937 -1.06066 1.06066
C-0.77937 1.34195 -0.397805 1.5 0 1.5
z
" id="mb0b177905e" style="stroke:#008000;stroke-width:0.5;"/>
    </defs>
    <g clip-path="url(#pe74e8a12dc)">
     <use style="fill:#008000;stroke:#008000;stroke-width:0.5;" x="460.2375" xlink:href="#mb0b177905e" y="85.2058028571"/>
     <use style="fill:#008000;stroke:#008000;stroke-width:0.5;" x="778.217727273" xlink:href="#mb0b177905e" y="89.38314"/>
     <use style="fill:#008000;stroke:#008000;stroke-width:0.5;" x="530.899772727" xlink:href="#mb0b177905e" y="84.2229"/>
     <use style="fill:#008000;stroke:#008000;stroke-width:0.5;" x="636.893181818" xlink:href="#mb0b177905e" y="83.79288"/>
     <use style="fill:#008000;stroke:#008000;stroke-width:0.5;" x="283.581818182" xlink:href="#mb0b177905e" y="88.09308"/>
     <use style="fill:#008000;stroke:#008000;stroke-width:0.5;" x="354.244090909" xlink:href="#mb0b177905e" y="87.2023242857"/>
     <use style="fill:#008000;stroke:#008000;stroke-width:0.5;" x="177.588409091" xlink:href="#mb0b177905e" y="82.9942714286"/>
     <use style="fill:#008000;stroke:#008000;stroke-width:0.5;" x="707.555454545" xlink:href="#mb0b177905e" y="87.6016285714"/>
     <use style="fill:#008000;stroke:#008000;stroke-width:0.5;" x="142.257272727" xlink:href="#mb0b177905e" y="92.4239957143"/>
    </g>
   </g>
   <g id="line2d_10">
    <path clip-path="url(#pe74e8a12dc)" d="
M70.4621 236.88
L86.393 236.828
L89.5792 236.604
L92.7654 235.709
L95.9515 232.869
L99.1377 225.714
L102.324 211.407
L105.51 188.699
L111.882 131.482
L115.069 108.774
L118.255 94.4673
L121.441 87.3125
L124.627 84.4724
L127.813 83.5776
L130.999 83.3538
L140.558 83.3015
L793.724 83.3538
L796.91 83.5776
L800.096 84.4724
L803.282 87.3125
L806.468 94.4673
L809.655 108.774
L812.841 131.482
L819.213 188.699
L822.399 211.407
L825.586 225.714
L828.772 232.869
L831.958 235.709
L835.144 236.604
L838.33 236.828
L847.889 236.88
L851.075 236.88
L851.075 236.88" style="fill:none;stroke:#000000;stroke-dasharray:6.000000,6.000000;stroke-dashoffset:0.0;"/>
   </g>
   <g id="matplotlib.axis_1">
    <g id="xtick_1">
     <g id="line2d_11">
      <path clip-path="url(#pe74e8a12dc)" d="
M106.926 236.88
L106.926 21.87" style="fill:none;stroke:#000000;stroke-dasharray:1.000000,3.000000;stroke-dashoffset:0.0;stroke-width:0.5;"/>
     </g>
     <g id="line2d_12">
      <defs>
       <path d="
M0 0
L0 -4" id="m93b0483c22" style="stroke:#000000;stroke-width:0.5;"/>
      </defs>
      <g>
       <use style="stroke:#000000;stroke-width:0.5;" x="106.926136364" xlink:href="#m93b0483c22" y="236.88"/>
      </g>
     </g>
     <g id="line2d_13">
      <defs>
       <path d="
M0 0
L0 4" id="m741efc42ff" style="stroke:#000000;stroke-width:0.5;"/>
      </defs>
      <g>
       <use style="stroke:#000000;stroke-width:0.5;" x="106.926136364" xlink:href="#m741efc42ff" y="21.87"/>
      </g>
     </g>
     <g id="text_1">
      <!-- 0 -->
      <defs>
       <path d="
M31.7812 66.4062
Q24.1719 66.4062 20.3281 58.9062
Q16.5 51.4219 16.5 36.375
Q16.5 21.3906 20.3281 13.8906
Q24.1719 6.39062 31.7812 6.39062
Q39.4531 6.39062 43.2812 13.8906
Q47.125 21.3906 47.125 36.375
Q47.125 51.4219 43.2812 58.9062
Q39.4531 66.4062 31.7812 66.4062
M31.7812 74.2188
Q44.0469 74.2188 50.5156 64.5156
Q56.9844 54.8281 56.9844 36.375
Q56.9844 17.9688 50.5156 8.26562
Q44.0469 -1.42188 31.7812 -1.42188
Q19.5312 -1.42188 13.0625 8.26562
Q6.59375 17.9688 6.59375 36.375
Q6.59375 54.8281 13.0625 64.5156
Q19.5312 74.2188 31.7812 74.2188" id="BitstreamVeraSans-Roman-30"/>
      </defs>
      <g transform="translate(103.398792614 251.5178125)scale(0.14 -0.14)">
       <use xlink:href="#BitstreamVeraSans-Roman-30"/>
      </g>
     </g>
    </g>
    <g id="xtick_2">
     <g id="line2d_14">
      <path clip-path="url(#pe74e8a12dc)" d="
M283.582 236.88
L283.582 21.87" style="fill:none;stroke:#000000;stroke-dasharray:1.000000,3.000000;stroke-dashoffset:0.0;stroke-width:0.5;"/>
     </g>
     <g id="line2d_15">
      <g>
       <use style="stroke:#000000;stroke-width:0.5;" x="283.581818182" xlink:href="#m93b0483c22" y="236.88"/>
      </g>
     </g>
     <g id="line2d_16">
      <g>
       <use style="stroke:#000000;stroke-width:0.5;" x="283.581818182" xlink:href="#m741efc42ff" y="21.87"/>
      </g>
     </g>
     <g id="text_2">
      <!-- 5 -->
      <defs>
       <path d="
M10.7969 72.9062
L49.5156 72.9062
L49.5156 64.5938
L19.8281 64.5938
L19.8281 46.7344
Q21.9688 47.4688 24.1094 47.8281
Q26.2656 48.1875 28.4219 48.1875
Q40.625 48.1875 47.75 41.5
Q54.8906 34.8125 54.8906 23.3906
Q54.8906 11.625 47.5625 5.09375
Q40.2344 -1.42188 26.9062 -1.42188
Q22.3125 -1.42188 17.5469 -0.640625
Q12.7969 0.140625 7.71875 1.70312
L7.71875 11.625
Q12.1094 9.23438 16.7969 8.0625
Q21.4844 6.89062 26.7031 6.89062
Q35.1562 6.89062 40.0781 11.3281
Q45.0156 15.7656 45.0156 23.3906
Q45.0156 31 40.0781 35.4375
Q35.1562 39.8906 26.7031 39.8906
Q22.75 39.8906 18.8125 39.0156
Q14.8906 38.1406 10.7969 36.2812
z
" id="BitstreamVeraSans-Roman-35"/>
      </defs>
      <g transform="translate(280.279786932 251.5178125)scale(0.14 -0.14)">
       <use xlink:href="#BitstreamVeraSans-Roman-35"/>
      </g>
     </g>
    </g>
    <g id="xtick_3">
     <g id="line2d_17">
      <path clip-path="url(#pe74e8a12dc)" d="
M460.237 236.88
L460.237 21.87" style="fill:none;stroke:#000000;stroke-dasharray:1.000000,3.000000;stroke-dashoffset:0.0;stroke-width:0.5;"/>
     </g>
     <g id="line2d_18">
      <g>
       <use style="stroke:#000000;stroke-width:0.5;" x="460.2375" xlink:href="#m93b0483c22" y="236.88"/>
      </g>
     </g>
     <g id="line2d_19">
      <g>
       <use style="stroke:#000000;stroke-width:0.5;" x="460.2375" xlink:href="#m741efc42ff" y="21.87"/>
      </g>
     </g>
     <g id="text_3">
      <!-- 10 -->
      <defs>
       <path d="
M12.4062 8.29688
L28.5156 8.29688
L28.5156 63.9219
L10.9844 60.4062
L10.9844 69.3906
L28.4219 72.9062
L38.2812 72.9062
L38.2812 8.29688
L54.3906 8.29688
L54.3906 0
L12.4062 0
z
" id="BitstreamVeraSans-Roman-31"/>
      </defs>
      <g transform="translate(452.56375 251.5178125)scale(0.14 -0.14)">
       <use xlink:href="#BitstreamVeraSans-Roman-31"/>
       <use x="63.623046875" xlink:href="#BitstreamVeraSans-Roman-30"/>
      </g>
     </g>
    </g>
    <g id="xtick_4">
     <g id="line2d_20">
      <path clip-path="url(#pe74e8a12dc)" d="
M636.893 236.88
L636.893 21.87" style="fill:none;stroke:#000000;stroke-dasharray:1.000000,3.000000;stroke-dashoffset:0.0;stroke-width:0.5;"/>
     </g>
     <g id="line2d_21">
      <g>
       <use style="stroke:#000000;stroke-width:0.5;" x="636.893181818" xlink:href="#m93b0483c22" y="236.88"/>
      </g>
     </g>
     <g id="line2d_22">
      <g>
       <use style="stroke:#000000;stroke-width:0.5;" x="636.893181818" xlink:href="#m741efc42ff" y="21.87"/>
      </g>
     </g>
     <g id="text_4">
      <!-- 15 -->
      <g transform="translate(629.365994318 251.5178125)scale(0.14 -0.14)">
       <use xlink:href="#BitstreamVeraSans-Roman-31"/>
       <use x="63.623046875" xlink:href="#BitstreamVeraSans-Roman-35"/>
      </g>
     </g>
    </g>
    <g id="xtick_5">
     <g id="line2d_23">
      <path clip-path="url(#pe74e8a12dc)" d="
M813.549 236.88
L813.549 21.87" style="fill:none;stroke:#000000;stroke-dasharray:1.000000,3.000000;stroke-dashoffset:0.0;stroke-width:0.5;"/>
     </g>
     <g id="line2d_24">
      <g>
       <use style="stroke:#000000;stroke-width:0.5;" x="813.548863636" xlink:href="#m93b0483c22" y="236.88"/>
      </g>
     </g>
     <g id="line2d_25">
      <g>
       <use style="stroke:#000000;stroke-width:0.5;" x="813.548863636" xlink:href="#m741efc42ff" y="21.87"/>
      </g>
     </g>
     <g id="text_5">
      <!-- 20 -->
      <defs>
       <path d="
M19.1875 8.29688
L53.6094 8.29688
L53.6094 0
L7.32812 0
L7.32812 8.29688
Q12.9375 14.1094 22.625 23.8906
Q32.3281 33.6875 34.8125 36.5312
Q39.5469 41.8438 41.4219 45.5312
Q43.3125 49.2188 43.3125 52.7812
Q43.3125 58.5938 39.2344 62.25
Q35.1562 65.9219 28.6094 65.9219
Q23.9688 65.9219 18.8125 64.3125
Q13.6719 62.7031 7.8125 59.4219
L7.8125 69.3906
Q13.7656 71.7812 18.9375 73
Q24.125 74.2188 28.4219 74.2188
Q39.75 74.2188 46.4844 68.5469
Q53.2188 62.8906 53.2188 53.4219
Q53.2188 48.9219 51.5312 44.8906
Q49.8594 40.875 45.4062 35.4062
Q44.1875 33.9844 37.6406 27.2188
Q31.1094 20.4531 19.1875 8.29688" id="BitstreamVeraSans-Roman-32"/>
      </defs>
      <g transform="translate(805.619176136 251.5178125)scale(0.14 -0.14)">
       <use xlink:href="#BitstreamVeraSans-Roman-32"/>
       <use x="63.623046875" xlink:href="#BitstreamVeraSans-Roman-30"/>
      </g>
     </g>
    </g>
    <g id="text_6">
     <!-- Depth of Interaction (mm) -->
     <defs>
      <path id="BitstreamVeraSans-Roman-20"/>
      <path d="
M9.8125 72.9062
L19.6719 72.9062
L19.6719 0
L9.8125 0
z
" id="BitstreamVeraSans-Roman-49"/>
      <path d="
M54.8906 33.0156
L54.8906 0
L45.9062 0
L45.9062 32.7188
Q45.9062 40.4844 42.875 44.3281
Q39.8438 48.1875 33.7969 48.1875
Q26.5156 48.1875 22.3125 43.5469
Q18.1094 38.9219 18.1094 30.9062
L18.1094 0
L9.07812 0
L9.07812 54.6875
L18.1094 54.6875
L18.1094 46.1875
Q21.3438 51.125 25.7031 53.5625
Q30.0781 56 35.7969 56
Q45.2188 56 50.0469 50.1719
Q54.8906 44.3438 54.8906 33.0156" id="BitstreamVeraSans-Roman-6e"/>
      <path d="
M34.2812 27.4844
Q23.3906 27.4844 19.1875 25
Q14.9844 22.5156 14.9844 16.5
Q14.9844 11.7188 18.1406 8.90625
Q21.2969 6.10938 26.7031 6.10938
Q34.1875 6.10938 38.7031 11.4062
Q43.2188 16.7031 43.2188 25.4844
L43.2188 27.4844
z

M52.2031 31.2031
L52.2031 0
L43.2188 0
L43.2188 8.29688
Q40.1406 3.32812 35.5469 0.953125
Q30.9531 -1.42188 24.3125 -1.42188
Q15.9219 -1.42188 10.9531 3.29688
Q6 8.01562 6 15.9219
Q6 25.1406 12.1719 29.8281
Q18.3594 34.5156 30.6094 34.5156
L43.2188 34.5156
L43.2188 35.4062
Q43.2188 41.6094 39.1406 45
Q35.0625 48.3906 27.6875 48.3906
Q23 48.3906 18.5469 47.2656
Q14.1094 46.1406 10.0156 43.8906
L10.0156 52.2031
Q14.9375 54.1094 19.5781 55.0469
Q24.2188 56 28.6094 56
Q40.4844 56 46.3438 49.8438
Q52.2031 43.7031 52.2031 31.2031" id="BitstreamVeraSans-Roman-61"/>
      <path d="
M30.6094 48.3906
Q23.3906 48.3906 19.1875 42.75
Q14.9844 37.1094 14.9844 27.2969
Q14.9844 17.4844 19.1562 11.8438
Q23.3438 6.20312 30.6094 6.20312
Q37.7969 6.20312 41.9844 11.8594
Q46.1875 17.5312 46.1875 27.2969
Q46.1875 37.0156 41.9844 42.7031
Q37.7969 48.3906 30.6094 48.3906
M30.6094 56
Q42.3281 56 49.0156 48.375
Q55.7188 40.7656 55.7188 27.2969
Q55.7188 13.875 49.0156 6.21875
Q42.3281 -1.42188 30.6094 -1.42188
Q18.8438 -1.42188 12.1719 6.21875
Q5.51562 13.875 5.51562 27.2969
Q5.51562 40.7656 12.1719 48.375
Q18.8438 56 30.6094 56" id="BitstreamVeraSans-Roman-6f"/>
      <path d="
M8.01562 75.875
L15.8281 75.875
Q23.1406 64.3594 26.7812 53.3125
Q30.4219 42.2812 30.4219 31.3906
Q30.4219 20.4531 26.7812 9.375
Q23.1406 -1.70312 15.8281 -13.1875
L8.01562 -13.1875
Q14.5 -2 17.7031 9.0625
Q20.9062 20.125 20.9062 31.3906
Q20.9062 42.6719 17.7031 53.6562
Q14.5 64.6562 8.01562 75.875" id="BitstreamVeraSans-Roman-29"/>
      <path d="
M19.6719 64.7969
L19.6719 8.10938
L31.5938 8.10938
Q46.6875 8.10938 53.6875 14.9375
Q60.6875 21.7812 60.6875 36.5312
Q60.6875 51.1719 53.6875 57.9844
Q46.6875 64.7969 31.5938 64.7969
z

M9.8125 72.9062
L30.0781 72.9062
Q51.2656 72.9062 61.1719 64.0938
Q71.0938 55.2812 71.0938 36.5312
Q71.0938 17.6719 61.125 8.82812
Q51.1719 0 30.0781 0
L9.8125 0
z
" id="BitstreamVeraSans-Roman-44"/>
      <path d="
M9.42188 54.6875
L18.4062 54.6875
L18.4062 0
L9.42188 0
z

M9.42188 75.9844
L18.4062 75.9844
L18.4062 64.5938
L9.42188 64.5938
z
" id="BitstreamVeraSans-Roman-69"/>
      <path d="
M54.8906 33.0156
L54.8906 0
L45.9062 0
L45.9062 32.7188
Q45.9062 40.4844 42.875 44.3281
Q39.8438 48.1875 33.7969 48.1875
Q26.5156 48.1875 22.3125 43.5469
Q18.1094 38.9219 18.1094 30.9062
L18.1094 0
L9.07812 0
L9.07812 75.9844
L18.1094 75.9844
L18.1094 46.1875
Q21.3438 51.125 25.7031 53.5625
Q30.0781 56 35.7969 56
Q45.2188 56 50.0469 50.1719
Q54.8906 44.3438 54.8906 33.0156" id="BitstreamVeraSans-Roman-68"/>
      <path d="
M48.7812 52.5938
L48.7812 44.1875
Q44.9688 46.2969 41.1406 47.3438
Q37.3125 48.3906 33.4062 48.3906
Q24.6562 48.3906 19.8125 42.8438
Q14.9844 37.3125 14.9844 27.2969
Q14.9844 17.2812 19.8125 11.7344
Q24.6562 6.20312 33.4062 6.20312
Q37.3125 6.20312 41.1406 7.25
Q44.9688 8.29688 48.7812 10.4062
L48.7812 2.09375
Q45.0156 0.34375 40.9844 -0.53125
Q36.9688 -1.42188 32.4219 -1.42188
Q20.0625 -1.42188 12.7812 6.34375
Q5.51562 14.1094 5.51562 27.2969
Q5.51562 40.6719 12.8594 48.3281
Q20.2188 56 33.0156 56
Q37.1562 56 41.1094 55.1406
Q45.0625 54.2969 48.7812 52.5938" id="BitstreamVeraSans-Roman-63"/>
      <path d="
M31 75.875
Q24.4688 64.6562 21.2812 53.6562
Q18.1094 42.6719 18.1094 31.3906
Q18.1094 20.125 21.3125 9.0625
Q24.5156 -2 31 -13.1875
L23.1875 -13.1875
Q15.875 -1.70312 12.2344 9.375
Q8.59375 20.4531 8.59375 31.3906
Q8.59375 42.2812 12.2031 53.3125
Q15.8281 64.3594 23.1875 75.875
z
" id="BitstreamVeraSans-Roman-28"/>
      <path d="
M56.2031 29.5938
L56.2031 25.2031
L14.8906 25.2031
Q15.4844 15.9219 20.4844 11.0625
Q25.4844 6.20312 34.4219 6.20312
Q39.5938 6.20312 44.4531 7.46875
Q49.3125 8.73438 54.1094 11.2812
L54.1094 2.78125
Q49.2656 0.734375 44.1875 -0.34375
Q39.1094 -1.42188 33.8906 -1.42188
Q20.7969 -1.42188 13.1562 6.1875
Q5.51562 13.8125 5.51562 26.8125
Q5.51562 40.2344 12.7656 48.1094
Q20.0156 56 32.3281 56
Q43.3594 56 49.7812 48.8906
Q56.2031 41.7969 56.2031 29.5938
M47.2188 32.2344
Q47.125 39.5938 43.0938 43.9844
Q39.0625 48.3906 32.4219 48.3906
Q24.9062 48.3906 20.3906 44.1406
Q15.875 39.8906 15.1875 32.1719
z
" id="BitstreamVeraSans-Roman-65"/>
      <path d="
M52 44.1875
Q55.375 50.25 60.0625 53.125
Q64.75 56 71.0938 56
Q79.6406 56 84.2812 50.0156
Q88.9219 44.0469 88.9219 33.0156
L88.9219 0
L79.8906 0
L79.8906 32.7188
Q79.8906 40.5781 77.0938 44.375
Q74.3125 48.1875 68.6094 48.1875
Q61.625 48.1875 57.5625 43.5469
Q53.5156 38.9219 53.5156 30.9062
L53.5156 0
L44.4844 0
L44.4844 32.7188
Q44.4844 40.625 41.7031 44.4062
Q38.9219 48.1875 33.1094 48.1875
Q26.2188 48.1875 22.1562 43.5312
Q18.1094 38.875 18.1094 30.9062
L18.1094 0
L9.07812 0
L9.07812 54.6875
L18.1094 54.6875
L18.1094 46.1875
Q21.1875 51.2188 25.4844 53.6094
Q29.7812 56 35.6875 56
Q41.6562 56 45.8281 52.9688
Q50 49.9531 52 44.1875" id="BitstreamVeraSans-Roman-6d"/>
      <path d="
M18.3125 70.2188
L18.3125 54.6875
L36.8125 54.6875
L36.8125 47.7031
L18.3125 47.7031
L18.3125 18.0156
Q18.3125 11.3281 20.1406 9.42188
Q21.9688 7.51562 27.5938 7.51562
L36.8125 7.51562
L36.8125 0
L27.5938 0
Q17.1875 0 13.2344 3.875
Q9.28125 7.76562 9.28125 18.0156
L9.28125 47.7031
L2.6875 47.7031
L2.6875 54.6875
L9.28125 54.6875
L9.28125 70.2188
z
" id="BitstreamVeraSans-Roman-74"/>
      <path d="
M37.1094 75.9844
L37.1094 68.5
L28.5156 68.5
Q23.6875 68.5 21.7969 66.5469
Q19.9219 64.5938 19.9219 59.5156
L19.9219 54.6875
L34.7188 54.6875
L34.7188 47.7031
L19.9219 47.7031
L19.9219 0
L10.8906 0
L10.8906 47.7031
L2.29688 47.7031
L2.29688 54.6875
L10.8906 54.6875
L10.8906 58.5
Q10.8906 67.625 15.1406 71.7969
Q19.3906 75.9844 28.6094 75.9844
z
" id="BitstreamVeraSans-Roman-66"/>
      <path d="
M41.1094 46.2969
Q39.5938 47.1719 37.8125 47.5781
Q36.0312 48 33.8906 48
Q26.2656 48 22.1875 43.0469
Q18.1094 38.0938 18.1094 28.8125
L18.1094 0
L9.07812 0
L9.07812 54.6875
L18.1094 54.6875
L18.1094 46.1875
Q20.9531 51.1719 25.4844 53.5781
Q30.0312 56 36.5312 56
Q37.4531 56 38.5781 55.875
Q39.7031 55.7656 41.0625 55.5156
z
" id="BitstreamVeraSans-Roman-72"/>
      <path d="
M18.1094 8.20312
L18.1094 -20.7969
L9.07812 -20.7969
L9.07812 54.6875
L18.1094 54.6875
L18.1094 46.3906
Q20.9531 51.2656 25.2656 53.625
Q29.5938 56 35.5938 56
Q45.5625 56 51.7812 48.0938
Q58.0156 40.1875 58.0156 27.2969
Q58.0156 14.4062 51.7812 6.48438
Q45.5625 -1.42188 35.5938 -1.42188
Q29.5938 -1.42188 25.2656 0.953125
Q20.9531 3.32812 18.1094 8.20312
M48.6875 27.2969
Q48.6875 37.2031 44.6094 42.8438
Q40.5312 48.4844 33.4062 48.4844
Q26.2656 48.4844 22.1875 42.8438
Q18.1094 37.2031 18.1094 27.2969
Q18.1094 17.3906 22.1875 11.75
Q26.2656 6.10938 33.4062 6.10938
Q40.5312 6.10938 44.6094 11.75
Q48.6875 17.3906 48.6875 27.2969" id="BitstreamVeraSans-Roman-70"/>
     </defs>
     <g transform="translate(369.01984375 270.0671875)scale(0.14 -0.14)">
      <use xlink:href="#BitstreamVeraSans-Roman-44"/>
      <use x="77.001953125" xlink:href="#BitstreamVeraSans-Roman-65"/>
      <use x="138.525390625" xlink:href="#BitstreamVeraSans-Roman-70"/>
      <use x="202.001953125" xlink:href="#BitstreamVeraSans-Roman-74"/>
      <use x="241.2109375" xlink:href="#BitstreamVeraSans-Roman-68"/>
      <use x="304.58984375" xlink:href="#BitstreamVeraSans-Roman-20"/>
      <use x="336.376953125" xlink:href="#BitstreamVeraSans-Roman-6f"/>
      <use x="397.55859375" xlink:href="#BitstreamVeraSans-Roman-66"/>
      <use x="432.763671875" xlink:href="#BitstreamVeraSans-Roman-20"/>
      <use x="464.55078125" xlink:href="#BitstreamVeraSans-Roman-49"/>
      <use x="494.04296875" xlink:href="#BitstreamVeraSans-Roman-6e"/>
      <use x="557.421875" xlink:href="#BitstreamVeraSans-Roman-74"/>
      <use x="596.630859375" xlink:href="#BitstreamVeraSans-Roman-65"/>
      <use x="658.154296875" xlink:href="#BitstreamVeraSans-Roman-72"/>
      <use x="699.267578125" xlink:href="#BitstreamVeraSans-Roman-61"/>
      <use x="760.546875" xlink:href="#BitstreamVeraSans-Roman-63"/>
      <use x="815.52734375" xlink:href="#BitstreamVeraSans-Roman-74"/>
      <use x="854.736328125" xlink:href="#BitstreamVeraSans-Roman-69"/>
      <use x="882.51953125" xlink:href="#BitstreamVeraSans-Roman-6f"/>
      <use x="943.701171875" xlink:href="#BitstreamVeraSans-Roman-6e"/>
      <use x="1007.08007812" xlink:href="#BitstreamVeraSans-Roman-20"/>
      <use x="1038.8671875" xlink:href="#BitstreamVeraSans-Roman-28"/>
      <use x="1077.88085938" xlink:href="#BitstreamVeraSans-Roman-6d"/>
      <use x="1175.29296875" xlink:href="#BitstreamVeraSans-Roman-6d"/>
      <use x="1272.70507812" xlink:href="#BitstreamVeraSans-Roman-29"/>
     </g>
    </g>
   </g>
   <g id="matplotlib.axis_2">
    <g id="ytick_1">
     <g id="line2d_26">
      <path clip-path="url(#pe74e8a12dc)" d="
M71.595 236.88
L848.88 236.88" style="fill:none;stroke:#000000;stroke-dasharray:1.000000,3.000000;stroke-dashoffset:0.0;stroke-width:0.5;"/>
     </g>
     <g id="line2d_27">
      <defs>
       <path d="
M0 0
L4 0" id="m728421d6d4" style="stroke:#000000;stroke-width:0.5;"/>
      </defs>
      <g>
       <use style="stroke:#000000;stroke-width:0.5;" x="71.595" xlink:href="#m728421d6d4" y="236.88"/>
      </g>
     </g>
     <g id="line2d_28">
      <defs>
       <path d="
M0 0
L-4 0" id="mcb0005524f" style="stroke:#000000;stroke-width:0.5;"/>
      </defs>
      <g>
       <use style="stroke:#000000;stroke-width:0.5;" x="848.88" xlink:href="#mcb0005524f" y="236.88"/>
      </g>
     </g>
     <g id="text_7">
      <!-- 0 -->
      <g transform="translate(60.5403125 240.743125)scale(0.14 -0.14)">
       <use xlink:href="#BitstreamVeraSans-Roman-30"/>
      </g>
     </g>
    </g>
    <g id="ytick_2">
     <g id="line2d_29">
      <path clip-path="url(#pe74e8a12dc)" d="
M71.595 206.164
L848.88 206.164" style="fill:none;stroke:#000000;stroke-dasharray:1.000000,3.000000;stroke-dashoffset:0.0;stroke-width:0.5;"/>
     </g>
     <g id="line2d_30">
      <g>
       <use style="stroke:#000000;stroke-width:0.5;" x="71.595" xlink:href="#m728421d6d4" y="206.164285714"/>
      </g>
     </g>
     <g id="line2d_31">
      <g>
       <use style="stroke:#000000;stroke-width:0.5;" x="848.88" xlink:href="#mcb0005524f" y="206.164285714"/>
      </g>
     </g>
     <g id="text_8">
      <!-- 1000 -->
      <g transform="translate(34.4325 210.027410714)scale(0.14 -0.14)">
       <use xlink:href="#BitstreamVeraSans-Roman-31"/>
       <use x="63.623046875" xlink:href="#BitstreamVeraSans-Roman-30"/>
       <use x="127.24609375" xlink:href="#BitstreamVeraSans-Roman-30"/>
       <use x="190.869140625" xlink:href="#BitstreamVeraSans-Roman-30"/>
      </g>
     </g>
    </g>
    <g id="ytick_3">
     <g id="line2d_32">
      <path clip-path="url(#pe74e8a12dc)" d="
M71.595 175.449
L848.88 175.449" style="fill:none;stroke:#000000;stroke-dasharray:1.000000,3.000000;stroke-dashoffset:0.0;stroke-width:0.5;"/>
     </g>
     <g id="line2d_33">
      <g>
       <use style="stroke:#000000;stroke-width:0.5;" x="71.595" xlink:href="#m728421d6d4" y="175.448571429"/>
      </g>
     </g>
     <g id="line2d_34">
      <g>
       <use style="stroke:#000000;stroke-width:0.5;" x="848.88" xlink:href="#mcb0005524f" y="175.448571429"/>
      </g>
     </g>
     <g id="text_9">
      <!-- 2000 -->
      <g transform="translate(33.920625 179.311696429)scale(0.14 -0.14)">
       <use xlink:href="#BitstreamVeraSans-Roman-32"/>
       <use x="63.623046875" xlink:href="#BitstreamVeraSans-Roman-30"/>
       <use x="127.24609375" xlink:href="#BitstreamVeraSans-Roman-30"/>
       <use x="190.869140625" xlink:href="#BitstreamVeraSans-Roman-30"/>
      </g>
     </g>
    </g>
    <g id="ytick_4">
     <g id="line2d_35">
      <path clip-path="url(#pe74e8a12dc)" d="
M71.595 144.733
L848.88 144.733" style="fill:none;stroke:#000000;stroke-dasharray:1.000000,3.000000;stroke-dashoffset:0.0;stroke-width:0.5;"/>
     </g>
     <g id="line2d_36">
      <g>
       <use style="stroke:#000000;stroke-width:0.5;" x="71.595" xlink:href="#m728421d6d4" y="144.732857143"/>
      </g>
     </g>
     <g id="line2d_37">
      <g>
       <use style="stroke:#000000;stroke-width:0.5;" x="848.88" xlink:href="#mcb0005524f" y="144.732857143"/>
      </g>
     </g>
     <g id="text_10">
      <!-- 3000 -->
      <defs>
       <path d="
M40.5781 39.3125
Q47.6562 37.7969 51.625 33
Q55.6094 28.2188 55.6094 21.1875
Q55.6094 10.4062 48.1875 4.48438
Q40.7656 -1.42188 27.0938 -1.42188
Q22.5156 -1.42188 17.6562 -0.515625
Q12.7969 0.390625 7.625 2.20312
L7.625 11.7188
Q11.7188 9.32812 16.5938 8.10938
Q21.4844 6.89062 26.8125 6.89062
Q36.0781 6.89062 40.9375 10.5469
Q45.7969 14.2031 45.7969 21.1875
Q45.7969 27.6406 41.2812 31.2656
Q36.7656 34.9062 28.7188 34.9062
L20.2188 34.9062
L20.2188 43.0156
L29.1094 43.0156
Q36.375 43.0156 40.2344 45.9219
Q44.0938 48.8281 44.0938 54.2969
Q44.0938 59.9062 40.1094 62.9062
Q36.1406 65.9219 28.7188 65.9219
Q24.6562 65.9219 20.0156 65.0312
Q15.375 64.1562 9.8125 62.3125
L9.8125 71.0938
Q15.4375 72.6562 20.3438 73.4375
Q25.25 74.2188 29.5938 74.2188
Q40.8281 74.2188 47.3594 69.1094
Q53.9062 64.0156 53.9062 55.3281
Q53.9062 49.2656 50.4375 45.0938
Q46.9688 40.9219 40.5781 39.3125" id="BitstreamVeraSans-Roman-33"/>
      </defs>
      <g transform="translate(33.9621875 148.595982143)scale(0.14 -0.14)">
       <use xlink:href="#BitstreamVeraSans-Roman-33"/>
       <use x="63.623046875" xlink:href="#BitstreamVeraSans-Roman-30"/>
       <use x="127.24609375" xlink:href="#BitstreamVeraSans-Roman-30"/>
       <use x="190.869140625" xlink:href="#BitstreamVeraSans-Roman-30"/>
      </g>
     </g>
    </g>
    <g id="ytick_5">
     <g id="line2d_38">
      <path clip-path="url(#pe74e8a12dc)" d="
M71.595 114.017
L848.88 114.017" style="fill:none;stroke:#000000;stroke-dasharray:1.000000,3.000000;stroke-dashoffset:0.0;stroke-width:0.5;"/>
     </g>
     <g id="line2d_39">
      <g>
       <use style="stroke:#000000;stroke-width:0.5;" x="71.595" xlink:href="#m728421d6d4" y="114.017142857"/>
      </g>
     </g>
     <g id="line2d_40">
      <g>
       <use style="stroke:#000000;stroke-width:0.5;" x="848.88" xlink:href="#mcb0005524f" y="114.017142857"/>
      </g>
     </g>
     <g id="text_11">
      <!-- 4000 -->
      <defs>
       <path d="
M37.7969 64.3125
L12.8906 25.3906
L37.7969 25.3906
z

M35.2031 72.9062
L47.6094 72.9062
L47.6094 25.3906
L58.0156 25.3906
L58.0156 17.1875
L47.6094 17.1875
L47.6094 0
L37.7969 0
L37.7969 17.1875
L4.89062 17.1875
L4.89062 26.7031
z
" id="BitstreamVeraSans-Roman-34"/>
      </defs>
      <g transform="translate(33.579375 117.880267857)scale(0.14 -0.14)">
       <use xlink:href="#BitstreamVeraSans-Roman-34"/>
       <use x="63.623046875" xlink:href="#BitstreamVeraSans-Roman-30"/>
       <use x="127.24609375" xlink:href="#BitstreamVeraSans-Roman-30"/>
       <use x="190.869140625" xlink:href="#BitstreamVeraSans-Roman-30"/>
      </g>
     </g>
    </g>
    <g id="ytick_6">
     <g id="line2d_41">
      <path clip-path="url(#pe74e8a12dc)" d="
M71.595 83.3014
L848.88 83.3014" style="fill:none;stroke:#000000;stroke-dasharray:1.000000,3.000000;stroke-dashoffset:0.0;stroke-width:0.5;"/>
     </g>
     <g id="line2d_42">
      <g>
       <use style="stroke:#000000;stroke-width:0.5;" x="71.595" xlink:href="#m728421d6d4" y="83.3014285714"/>
      </g>
     </g>
     <g id="line2d_43">
      <g>
       <use style="stroke:#000000;stroke-width:0.5;" x="848.88" xlink:href="#mcb0005524f" y="83.3014285714"/>
      </g>
     </g>
     <g id="text_12">
      <!-- 5000 -->
      <g transform="translate(33.9753125 87.1645535714)scale(0.14 -0.14)">
       <use xlink:href="#BitstreamVeraSans-Roman-35"/>
       <use x="63.623046875" xlink:href="#BitstreamVeraSans-Roman-30"/>
       <use x="127.24609375" xlink:href="#BitstreamVeraSans-Roman-30"/>
       <use x="190.869140625" xlink:href="#BitstreamVeraSans-Roman-30"/>
      </g>
     </g>
    </g>
    <g id="ytick_7">
     <g id="line2d_44">
      <path clip-path="url(#pe74e8a12dc)" d="
M71.595 52.5857
L848.88 52.5857" style="fill:none;stroke:#000000;stroke-dasharray:1.000000,3.000000;stroke-dashoffset:0.0;stroke-width:0.5;"/>
     </g>
     <g id="line2d_45">
      <g>
       <use style="stroke:#000000;stroke-width:0.5;" x="71.595" xlink:href="#m728421d6d4" y="52.5857142857"/>
      </g>
     </g>
     <g id="line2d_46">
      <g>
       <use style="stroke:#000000;stroke-width:0.5;" x="848.88" xlink:href="#mcb0005524f" y="52.5857142857"/>
      </g>
     </g>
     <g id="text_13">
      <!-- 6000 -->
      <defs>
       <path d="
M33.0156 40.375
Q26.375 40.375 22.4844 35.8281
Q18.6094 31.2969 18.6094 23.3906
Q18.6094 15.5312 22.4844 10.9531
Q26.375 6.39062 33.0156 6.39062
Q39.6562 6.39062 43.5312 10.9531
Q47.4062 15.5312 47.4062 23.3906
Q47.4062 31.2969 43.5312 35.8281
Q39.6562 40.375 33.0156 40.375
M52.5938 71.2969
L52.5938 62.3125
Q48.875 64.0625 45.0938 64.9844
Q41.3125 65.9219 37.5938 65.9219
Q27.8281 65.9219 22.6719 59.3281
Q17.5312 52.7344 16.7969 39.4062
Q19.6719 43.6562 24.0156 45.9219
Q28.375 48.1875 33.5938 48.1875
Q44.5781 48.1875 50.9531 41.5156
Q57.3281 34.8594 57.3281 23.3906
Q57.3281 12.1562 50.6875 5.35938
Q44.0469 -1.42188 33.0156 -1.42188
Q20.3594 -1.42188 13.6719 8.26562
Q6.98438 17.9688 6.98438 36.375
Q6.98438 53.6562 15.1875 63.9375
Q23.3906 74.2188 37.2031 74.2188
Q40.9219 74.2188 44.7031 73.4844
Q48.4844 72.75 52.5938 71.2969" id="BitstreamVeraSans-Roman-36"/>
      </defs>
      <g transform="translate(33.8725 56.4488392857)scale(0.14 -0.14)">
       <use xlink:href="#BitstreamVeraSans-Roman-36"/>
       <use x="63.623046875" xlink:href="#BitstreamVeraSans-Roman-30"/>
       <use x="127.24609375" xlink:href="#BitstreamVeraSans-Roman-30"/>
       <use x="190.869140625" xlink:href="#BitstreamVeraSans-Roman-30"/>
      </g>
     </g>
    </g>
    <g id="ytick_8">
     <g id="line2d_47">
      <path clip-path="url(#pe74e8a12dc)" d="
M71.595 21.87
L848.88 21.87" style="fill:none;stroke:#000000;stroke-dasharray:1.000000,3.000000;stroke-dashoffset:0.0;stroke-width:0.5;"/>
     </g>
     <g id="line2d_48">
      <g>
       <use style="stroke:#000000;stroke-width:0.5;" x="71.595" xlink:href="#m728421d6d4" y="21.87"/>
      </g>
     </g>
     <g id="line2d_49">
      <g>
       <use style="stroke:#000000;stroke-width:0.5;" x="848.88" xlink:href="#mcb0005524f" y="21.87"/>
      </g>
     </g>
     <g id="text_14">
      <!-- 7000 -->
      <defs>
       <path d="
M8.20312 72.9062
L55.0781 72.9062
L55.0781 68.7031
L28.6094 0
L18.3125 0
L43.2188 64.5938
L8.20312 64.5938
z
" id="BitstreamVeraSans-Roman-37"/>
      </defs>
      <g transform="translate(34.043125 25.733125)scale(0.14 -0.14)">
       <use xlink:href="#BitstreamVeraSans-Roman-37"/>
       <use x="63.623046875" xlink:href="#BitstreamVeraSans-Roman-30"/>
       <use x="127.24609375" xlink:href="#BitstreamVeraSans-Roman-30"/>
       <use x="190.869140625" xlink:href="#BitstreamVeraSans-Roman-30"/>
      </g>
     </g>
    </g>
    <g id="text_15">
     <!-- Number of Samples -->
     <defs>
      <path d="
M9.8125 72.9062
L23.0938 72.9062
L55.4219 11.9219
L55.4219 72.9062
L64.9844 72.9062
L64.9844 0
L51.7031 0
L19.3906 60.9844
L19.3906 0
L9.8125 0
z
" id="BitstreamVeraSans-Roman-4e"/>
      <path d="
M9.42188 75.9844
L18.4062 75.9844
L18.4062 0
L9.42188 0
z
" id="BitstreamVeraSans-Roman-6c"/>
      <path d="
M53.5156 70.5156
L53.5156 60.8906
Q47.9062 63.5781 42.9219 64.8906
Q37.9375 66.2188 33.2969 66.2188
Q25.25 66.2188 20.875 63.0938
Q16.5 59.9688 16.5 54.2031
Q16.5 49.3594 19.4062 46.8906
Q22.3125 44.4375 30.4219 42.9219
L36.375 41.7031
Q47.4062 39.5938 52.6562 34.2969
Q57.9062 29 57.9062 20.125
Q57.9062 9.51562 50.7969 4.04688
Q43.7031 -1.42188 29.9844 -1.42188
Q24.8125 -1.42188 18.9688 -0.25
Q13.1406 0.921875 6.89062 3.21875
L6.89062 13.375
Q12.8906 10.0156 18.6562 8.29688
Q24.4219 6.59375 29.9844 6.59375
Q38.4219 6.59375 43.0156 9.90625
Q47.6094 13.2344 47.6094 19.3906
Q47.6094 24.75 44.3125 27.7812
Q41.0156 30.8125 33.5 32.3281
L27.4844 33.5
Q16.4531 35.6875 11.5156 40.375
Q6.59375 45.0625 6.59375 53.4219
Q6.59375 63.0938 13.4062 68.6562
Q20.2188 74.2188 32.1719 74.2188
Q37.3125 74.2188 42.625 73.2812
Q47.9531 72.3594 53.5156 70.5156" id="BitstreamVeraSans-Roman-53"/>
      <path d="
M8.5 21.5781
L8.5 54.6875
L17.4844 54.6875
L17.4844 21.9219
Q17.4844 14.1562 20.5 10.2656
Q23.5312 6.39062 29.5938 6.39062
Q36.8594 6.39062 41.0781 11.0312
Q45.3125 15.6719 45.3125 23.6875
L45.3125 54.6875
L54.2969 54.6875
L54.2969 0
L45.3125 0
L45.3125 8.40625
Q42.0469 3.42188 37.7188 1
Q33.4062 -1.42188 27.6875 -1.42188
Q18.2656 -1.42188 13.375 4.4375
Q8.5 10.2969 8.5 21.5781" id="BitstreamVeraSans-Roman-75"/>
      <path d="
M44.2812 53.0781
L44.2812 44.5781
Q40.4844 46.5312 36.375 47.5
Q32.2812 48.4844 27.875 48.4844
Q21.1875 48.4844 17.8438 46.4375
Q14.5 44.3906 14.5 40.2812
Q14.5 37.1562 16.8906 35.375
Q19.2812 33.5938 26.5156 31.9844
L29.5938 31.2969
Q39.1562 29.25 43.1875 25.5156
Q47.2188 21.7812 47.2188 15.0938
Q47.2188 7.46875 41.1875 3.01562
Q35.1562 -1.42188 24.6094 -1.42188
Q20.2188 -1.42188 15.4531 -0.5625
Q10.6875 0.296875 5.42188 2
L5.42188 11.2812
Q10.4062 8.6875 15.2344 7.39062
Q20.0625 6.10938 24.8125 6.10938
Q31.1562 6.10938 34.5625 8.28125
Q37.9844 10.4531 37.9844 14.4062
Q37.9844 18.0625 35.5156 20.0156
Q33.0625 21.9688 24.7031 23.7812
L21.5781 24.5156
Q13.2344 26.2656 9.51562 29.9062
Q5.8125 33.5469 5.8125 39.8906
Q5.8125 47.6094 11.2812 51.7969
Q16.75 56 26.8125 56
Q31.7812 56 36.1719 55.2656
Q40.5781 54.5469 44.2812 53.0781" id="BitstreamVeraSans-Roman-73"/>
      <path d="
M48.6875 27.2969
Q48.6875 37.2031 44.6094 42.8438
Q40.5312 48.4844 33.4062 48.4844
Q26.2656 48.4844 22.1875 42.8438
Q18.1094 37.2031 18.1094 27.2969
Q18.1094 17.3906 22.1875 11.75
Q26.2656 6.10938 33.4062 6.10938
Q40.5312 6.10938 44.6094 11.75
Q48.6875 17.3906 48.6875 27.2969
M18.1094 46.3906
Q20.9531 51.2656 25.2656 53.625
Q29.5938 56 35.5938 56
Q45.5625 56 51.7812 48.0938
Q58.0156 40.1875 58.0156 27.2969
Q58.0156 14.4062 51.7812 6.48438
Q45.5625 -1.42188 35.5938 -1.42188
Q29.5938 -1.42188 25.2656 0.953125
Q20.9531 3.32812 18.1094 8.20312
L18.1094 0
L9.07812 0
L9.07812 75.9844
L18.1094 75.9844
z
" id="BitstreamVeraSans-Roman-62"/>
     </defs>
     <g transform="translate(25.6678125 198.24515625)rotate(-90.0)scale(0.14 -0.14)">
      <use xlink:href="#BitstreamVeraSans-Roman-4e"/>
      <use x="74.8046875" xlink:href="#BitstreamVeraSans-Roman-75"/>
      <use x="138.18359375" xlink:href="#BitstreamVeraSans-Roman-6d"/>
      <use x="235.595703125" xlink:href="#BitstreamVeraSans-Roman-62"/>
      <use x="299.072265625" xlink:href="#BitstreamVeraSans-Roman-65"/>
      <use x="360.595703125" xlink:href="#BitstreamVeraSans-Roman-72"/>
      <use x="401.708984375" xlink:href="#BitstreamVeraSans-Roman-20"/>
      <use x="433.49609375" xlink:href="#BitstreamVeraSans-Roman-6f"/>
      <use x="494.677734375" xlink:href="#BitstreamVeraSans-Roman-66"/>
      <use x="529.8828125" xlink:href="#BitstreamVeraSans-Roman-20"/>
      <use x="561.669921875" xlink:href="#BitstreamVeraSans-Roman-53"/>
      <use x="625.146484375" xlink:href="#BitstreamVeraSans-Roman-61"/>
      <use x="686.42578125" xlink:href="#BitstreamVeraSans-Roman-6d"/>
      <use x="783.837890625" xlink:href="#BitstreamVeraSans-Roman-70"/>
      <use x="847.314453125" xlink:href="#BitstreamVeraSans-Roman-6c"/>
      <use x="875.09765625" xlink:href="#BitstreamVeraSans-Roman-65"/>
      <use x="936.62109375" xlink:href="#BitstreamVeraSans-Roman-73"/>
     </g>
    </g>
   </g>
   <g id="patch_3">
    <path d="
M71.595 21.87
L848.88 21.87" style="fill:none;stroke:#000000;"/>
   </g>
   <g id="patch_4">
    <path d="
M848.88 236.88
L848.88 21.87" style="fill:none;stroke:#000000;"/>
   </g>
   <g id="patch_5">
    <path d="
M71.595 236.88
L848.88 236.88" style="fill:none;stroke:#000000;"/>
   </g>
   <g id="patch_6">
    <path d="
M71.595 236.88
L71.595 21.87" style="fill:none;stroke:#000000;"/>
   </g>
   <g id="legend_1">
    <g id="patch_7">
     <path d="
M213.876 61.71
L840.48 61.71
L840.48 30.27
L213.876 30.27
L213.876 61.71
z
" style="fill:#ffffff;stroke:#000000;"/>
    </g>
    <g id="LineCollection_4">
     <defs>
      <path d="
M225.636 -234.49
L225.636 -251.29" id="C3_0_a5cb60c42d"/>
      <path d="
M249.156 -234.49
L249.156 -251.29" id="C3_1_61b80d3942"/>
     </defs>
     <use style="fill:none;stroke:#0000ff;" x="0.0" xlink:href="#C3_0_a5cb60c42d" y="288.0"/>
     <use style="fill:none;stroke:#0000ff;" x="0.0" xlink:href="#C3_1_61b80d3942" y="288.0"/>
    </g>
    <g id="line2d_50">
     <g>
      <use style="fill:#0000ff;stroke:#0000ff;stroke-width:0.5;" x="225.63625" xlink:href="#mdde457ef1d" y="53.51"/>
      <use style="fill:#0000ff;stroke:#0000ff;stroke-width:0.5;" x="249.15625" xlink:href="#mdde457ef1d" y="53.51"/>
     </g>
    </g>
    <g id="line2d_51">
     <g>
      <use style="fill:#0000ff;stroke:#0000ff;stroke-width:0.5;" x="225.63625" xlink:href="#mdde457ef1d" y="36.71"/>
      <use style="fill:#0000ff;stroke:#0000ff;stroke-width:0.5;" x="249.15625" xlink:href="#mdde457ef1d" y="36.71"/>
     </g>
    </g>
    <g id="line2d_52"/>
    <g id="line2d_53">
     <g>
      <use style="fill:#0000ff;stroke:#0000ff;stroke-width:0.5;" x="225.63625" xlink:href="#m76a7ce5b4a" y="45.11"/>
      <use style="fill:#0000ff;stroke:#0000ff;stroke-width:0.5;" x="249.15625" xlink:href="#m76a7ce5b4a" y="45.11"/>
     </g>
    </g>
    <g id="text_16">
     <!-- 2396 partialwrap -->
     <defs>
      <path d="
M4.20312 54.6875
L13.1875 54.6875
L24.4219 12.0156
L35.5938 54.6875
L46.1875 54.6875
L57.4219 12.0156
L68.6094 54.6875
L77.5938 54.6875
L63.2812 0
L52.6875 0
L40.9219 44.8281
L29.1094 0
L18.5 0
z
" id="BitstreamVeraSans-Roman-77"/>
      <path d="
M10.9844 1.51562
L10.9844 10.5
Q14.7031 8.73438 18.5 7.8125
Q22.3125 6.89062 25.9844 6.89062
Q35.75 6.89062 40.8906 13.4531
Q46.0469 20.0156 46.7812 33.4062
Q43.9531 29.2031 39.5938 26.9531
Q35.25 24.7031 29.9844 24.7031
Q19.0469 24.7031 12.6719 31.3125
Q6.29688 37.9375 6.29688 49.4219
Q6.29688 60.6406 12.9375 67.4219
Q19.5781 74.2188 30.6094 74.2188
Q43.2656 74.2188 49.9219 64.5156
Q56.5938 54.8281 56.5938 36.375
Q56.5938 19.1406 48.4062 8.85938
Q40.2344 -1.42188 26.4219 -1.42188
Q22.7031 -1.42188 18.8906 -0.6875
Q15.0938 0.046875 10.9844 1.51562
M30.6094 32.4219
Q37.25 32.4219 41.125 36.9531
Q45.0156 41.5 45.0156 49.4219
Q45.0156 57.2812 41.125 61.8438
Q37.25 66.4062 30.6094 66.4062
Q23.9688 66.4062 20.0938 61.8438
Q16.2188 57.2812 16.2188 49.4219
Q16.2188 41.5 20.0938 36.9531
Q23.9688 32.4219 30.6094 32.4219" id="BitstreamVeraSans-Roman-39"/>
     </defs>
     <g transform="translate(267.63625 50.99)scale(0.168 -0.168)">
      <use xlink:href="#BitstreamVeraSans-Roman-32"/>
      <use x="63.623046875" xlink:href="#BitstreamVeraSans-Roman-33"/>
      <use x="127.24609375" xlink:href="#BitstreamVeraSans-Roman-39"/>
      <use x="190.869140625" xlink:href="#BitstreamVeraSans-Roman-36"/>
      <use x="254.4921875" xlink:href="#BitstreamVeraSans-Roman-20"/>
      <use x="286.279296875" xlink:href="#BitstreamVeraSans-Roman-70"/>
      <use x="349.755859375" xlink:href="#BitstreamVeraSans-Roman-61"/>
      <use x="411.03515625" xlink:href="#BitstreamVeraSans-Roman-72"/>
      <use x="452.1484375" xlink:href="#BitstreamVeraSans-Roman-74"/>
      <use x="491.357421875" xlink:href="#BitstreamVeraSans-Roman-69"/>
      <use x="519.140625" xlink:href="#BitstreamVeraSans-Roman-61"/>
      <use x="580.419921875" xlink:href="#BitstreamVeraSans-Roman-6c"/>
      <use x="608.203125" xlink:href="#BitstreamVeraSans-Roman-77"/>
      <use x="689.990234375" xlink:href="#BitstreamVeraSans-Roman-72"/>
      <use x="731.103515625" xlink:href="#BitstreamVeraSans-Roman-61"/>
      <use x="792.3828125" xlink:href="#BitstreamVeraSans-Roman-70"/>
     </g>
    </g>
    <g id="LineCollection_5">
     <defs>
      <path d="
M449.62 -234.49
L449.62 -251.29" id="C4_0_5daf84bdbd"/>
      <path d="
M473.14 -234.49
L473.14 -251.29" id="C4_1_bb4d3c2a26"/>
     </defs>
     <use style="fill:none;stroke:#ff0000;" x="0.0" xlink:href="#C4_0_5daf84bdbd" y="288.0"/>
     <use style="fill:none;stroke:#ff0000;" x="0.0" xlink:href="#C4_1_bb4d3c2a26" y="288.0"/>
    </g>
    <g id="line2d_54">
     <g>
      <use style="fill:#ff0000;stroke:#ff0000;stroke-width:0.5;" x="449.62" xlink:href="#m12d35e2592" y="53.51"/>
      <use style="fill:#ff0000;stroke:#ff0000;stroke-width:0.5;" x="473.14" xlink:href="#m12d35e2592" y="53.51"/>
     </g>
    </g>
    <g id="line2d_55">
     <g>
      <use style="fill:#ff0000;stroke:#ff0000;stroke-width:0.5;" x="449.62" xlink:href="#m12d35e2592" y="36.71"/>
      <use style="fill:#ff0000;stroke:#ff0000;stroke-width:0.5;" x="473.14" xlink:href="#m12d35e2592" y="36.71"/>
     </g>
    </g>
    <g id="line2d_56"/>
    <g id="line2d_57">
     <g>
      <use style="fill:#ff0000;stroke:#ff0000;stroke-width:0.5;" x="449.62" xlink:href="#ma07bdd5909" y="45.11"/>
      <use style="fill:#ff0000;stroke:#ff0000;stroke-width:0.5;" x="473.14" xlink:href="#ma07bdd5909" y="45.11"/>
     </g>
    </g>
    <g id="text_17">
     <!-- 2396 unwrapped -->
     <defs>
      <path d="
M45.4062 46.3906
L45.4062 75.9844
L54.3906 75.9844
L54.3906 0
L45.4062 0
L45.4062 8.20312
Q42.5781 3.32812 38.25 0.953125
Q33.9375 -1.42188 27.875 -1.42188
Q17.9688 -1.42188 11.7344 6.48438
Q5.51562 14.4062 5.51562 27.2969
Q5.51562 40.1875 11.7344 48.0938
Q17.9688 56 27.875 56
Q33.9375 56 38.25 53.625
Q42.5781 51.2656 45.4062 46.3906
M14.7969 27.2969
Q14.7969 17.3906 18.875 11.75
Q22.9531 6.10938 30.0781 6.10938
Q37.2031 6.10938 41.2969 11.75
Q45.4062 17.3906 45.4062 27.2969
Q45.4062 37.2031 41.2969 42.8438
Q37.2031 48.4844 30.0781 48.4844
Q22.9531 48.4844 18.875 42.8438
Q14.7969 37.2031 14.7969 27.2969" id="BitstreamVeraSans-Roman-64"/>
     </defs>
     <g transform="translate(491.62 50.99)scale(0.168 -0.168)">
      <use xlink:href="#BitstreamVeraSans-Roman-32"/>
      <use x="63.623046875" xlink:href="#BitstreamVeraSans-Roman-33"/>
      <use x="127.24609375" xlink:href="#BitstreamVeraSans-Roman-39"/>
      <use x="190.869140625" xlink:href="#BitstreamVeraSans-Roman-36"/>
      <use x="254.4921875" xlink:href="#BitstreamVeraSans-Roman-20"/>
      <use x="286.279296875" xlink:href="#BitstreamVeraSans-Roman-75"/>
      <use x="349.658203125" xlink:href="#BitstreamVeraSans-Roman-6e"/>
      <use x="413.037109375" xlink:href="#BitstreamVeraSans-Roman-77"/>
      <use x="494.82421875" xlink:href="#BitstreamVeraSans-Roman-72"/>
      <use x="535.9375" xlink:href="#BitstreamVeraSans-Roman-61"/>
      <use x="597.216796875" xlink:href="#BitstreamVeraSans-Roman-70"/>
      <use x="660.693359375" xlink:href="#BitstreamVeraSans-Roman-70"/>
      <use x="724.169921875" xlink:href="#BitstreamVeraSans-Roman-65"/>
      <use x="785.693359375" xlink:href="#BitstreamVeraSans-Roman-64"/>
     </g>
    </g>
    <g id="LineCollection_6">
     <defs>
      <path d="
M671.635 -234.49
L671.635 -251.29" id="C5_0_0f76634c7b"/>
      <path d="
M695.155 -234.49
L695.155 -251.29" id="C5_1_74ca0382d8"/>
     </defs>
     <use style="fill:none;stroke:#008000;" x="0.0" xlink:href="#C5_0_0f76634c7b" y="288.0"/>
     <use style="fill:none;stroke:#008000;" x="0.0" xlink:href="#C5_1_74ca0382d8" y="288.0"/>
    </g>
    <g id="line2d_58">
     <g>
      <use style="fill:#008000;stroke:#008000;stroke-width:0.5;" x="671.635" xlink:href="#m1ef3793437" y="53.51"/>
      <use style="fill:#008000;stroke:#008000;stroke-width:0.5;" x="695.155" xlink:href="#m1ef3793437" y="53.51"/>
     </g>
    </g>
    <g id="line2d_59">
     <g>
      <use style="fill:#008000;stroke:#008000;stroke-width:0.5;" x="671.635" xlink:href="#m1ef3793437" y="36.71"/>
      <use style="fill:#008000;stroke:#008000;stroke-width:0.5;" x="695.155" xlink:href="#m1ef3793437" y="36.71"/>
     </g>
    </g>
    <g id="line2d_60"/>
    <g id="line2d_61">
     <g>
      <use style="fill:#008000;stroke:#008000;stroke-width:0.5;" x="671.635" xlink:href="#mb0b177905e" y="45.11"/>
      <use style="fill:#008000;stroke:#008000;stroke-width:0.5;" x="695.155" xlink:href="#mb0b177905e" y="45.11"/>
     </g>
    </g>
    <g id="text_18">
     <!-- 2396 wrapped -->
     <g transform="translate(713.635 50.99)scale(0.168 -0.168)">
      <use xlink:href="#BitstreamVeraSans-Roman-32"/>
      <use x="63.623046875" xlink:href="#BitstreamVeraSans-Roman-33"/>
      <use x="127.24609375" xlink:href="#BitstreamVeraSans-Roman-39"/>
      <use x="190.869140625" xlink:href="#BitstreamVeraSans-Roman-36"/>
      <use x="254.4921875" xlink:href="#BitstreamVeraSans-Roman-20"/>
      <use x="286.279296875" xlink:href="#BitstreamVeraSans-Roman-77"/>
      <use x="368.06640625" xlink:href="#BitstreamVeraSans-Roman-72"/>
      <use x="409.1796875" xlink:href="#BitstreamVeraSans-Roman-61"/>
      <use x="470.458984375" xlink:href="#BitstreamVeraSans-Roman-70"/>
      <use x="533.935546875" xlink:href="#BitstreamVeraSans-Roman-70"/>
      <use x="597.412109375" xlink:href="#BitstreamVeraSans-Roman-65"/>
      <use x="658.935546875" xlink:href="#BitstreamVeraSans-Roman-64"/>
     </g>
    </g>
   </g>
  </g>
 </g>
 <defs>
  <clipPath id="pe74e8a12dc">
   <rect height="215.01" width="777.285" x="71.595" y="21.87"/>
  </clipPath>
 </defs>
</svg>
